<svg width="350" height="108" viewBox="0 0 350 108" fill="none" xmlns="http://www.w3.org/2000/svg">
<mask id="path-1-inside-1_16_1017" fill="white">
<path fill-rule="evenodd" clip-rule="evenodd" d="M112 39H60V89H112C125.807 89 137 77.8071 137 64C137 50.1929 125.807 39 112 39Z"/>
</mask>
<path fill-rule="evenodd" clip-rule="evenodd" d="M112 39H60V89H112C125.807 89 137 77.8071 137 64C137 50.1929 125.807 39 112 39Z" fill="#D9D9D9"/>
<path d="M60 39V37H58V39H60ZM60 89H58V91H60V89ZM60 41H112V37H60V41ZM62 89V39H58V89H62ZM112 87H60V91H112V87ZM135 64C135 76.7025 124.703 87 112 87V91C126.912 91 139 78.9117 139 64H135ZM112 41C124.703 41 135 51.2975 135 64H139C139 49.0883 126.912 37 112 37V41Z" fill="black" mask="url(#path-1-inside-1_16_1017)"/>
<line x1="38" y1="49" x2="60" y2="49" stroke="black" stroke-width="2"/>
<line x1="38" y1="79" x2="60" y2="79" stroke="black" stroke-width="2"/>
<path d="M146 64L171 64" stroke="black" stroke-width="2"/>
<path d="M47.8516 42.2324C47.4609 42.5645 47.084 42.7988 46.7207 42.9355C46.3613 43.0723 45.9746 43.1406 45.5605 43.1406C44.877 43.1406 44.3516 42.9746 43.9844 42.6426C43.6172 42.3066 43.4336 41.8789 43.4336 41.3594C43.4336 41.0547 43.502 40.7773 43.6387 40.5273C43.7793 40.2734 43.9609 40.0703 44.1836 39.918C44.4102 39.7656 44.6641 39.6504 44.9453 39.5723C45.1523 39.5176 45.4648 39.4648 45.8828 39.4141C46.7344 39.3125 47.3613 39.1914 47.7637 39.0508C47.7676 38.9062 47.7695 38.8145 47.7695 38.7754C47.7695 38.3457 47.6699 38.043 47.4707 37.8672C47.2012 37.6289 46.8008 37.5098 46.2695 37.5098C45.7734 37.5098 45.4062 37.5977 45.168 37.7734C44.9336 37.9453 44.7598 38.252 44.6465 38.6934L43.6152 38.5527C43.709 38.1113 43.8633 37.7559 44.0781 37.4863C44.293 37.2129 44.6035 37.0039 45.0098 36.8594C45.416 36.7109 45.8867 36.6367 46.4219 36.6367C46.9531 36.6367 47.3848 36.6992 47.7168 36.8242C48.0488 36.9492 48.293 37.1074 48.4492 37.2988C48.6055 37.4863 48.7148 37.7246 48.7773 38.0137C48.8125 38.1934 48.8301 38.5176 48.8301 38.9863V40.3926C48.8301 41.373 48.8516 41.9941 48.8945 42.2559C48.9414 42.5137 49.0312 42.7617 49.1641 43H48.0625C47.9531 42.7812 47.8828 42.5254 47.8516 42.2324ZM47.7637 39.877C47.3809 40.0332 46.8066 40.166 46.041 40.2754C45.6074 40.3379 45.3008 40.4082 45.1211 40.4863C44.9414 40.5645 44.8027 40.6797 44.7051 40.832C44.6074 40.9805 44.5586 41.1465 44.5586 41.3301C44.5586 41.6113 44.6641 41.8457 44.875 42.0332C45.0898 42.2207 45.4023 42.3145 45.8125 42.3145C46.2188 42.3145 46.5801 42.2266 46.8965 42.0508C47.2129 41.8711 47.4453 41.627 47.5938 41.3184C47.707 41.0801 47.7637 40.7285 47.7637 40.2637V39.877Z" fill="black"/>
<path d="M79.8906 68V59.4102H81.5781L85.0938 65.1465V59.4102H86.7051V68H84.9648L81.502 62.3984V68H79.8906ZM89.7637 63.6758L88.2695 63.4062C88.4375 62.8047 88.7266 62.3594 89.1367 62.0703C89.5469 61.7812 90.1562 61.6367 90.9648 61.6367C91.6992 61.6367 92.2461 61.7246 92.6055 61.9004C92.9648 62.0723 93.2168 62.293 93.3613 62.5625C93.5098 62.8281 93.584 63.3184 93.584 64.0332L93.5664 65.9551C93.5664 66.502 93.5918 66.9062 93.6426 67.168C93.6973 67.4258 93.7969 67.7031 93.9414 68H92.3125C92.2695 67.8906 92.2168 67.7285 92.1543 67.5137C92.127 67.416 92.1074 67.3516 92.0957 67.3203C91.8145 67.5938 91.5137 67.7988 91.1934 67.9355C90.873 68.0723 90.5312 68.1406 90.168 68.1406C89.5273 68.1406 89.0215 67.9668 88.6504 67.6191C88.2832 67.2715 88.0996 66.832 88.0996 66.3008C88.0996 65.9492 88.1836 65.6367 88.3516 65.3633C88.5195 65.0859 88.7539 64.875 89.0547 64.7305C89.3594 64.582 89.7969 64.4531 90.3672 64.3438C91.1367 64.1992 91.6699 64.0645 91.9668 63.9395V63.7754C91.9668 63.459 91.8887 63.2344 91.7324 63.1016C91.5762 62.9648 91.2812 62.8965 90.8477 62.8965C90.5547 62.8965 90.3262 62.9551 90.1621 63.0723C89.998 63.1855 89.8652 63.3867 89.7637 63.6758ZM91.9668 65.0117C91.7559 65.082 91.4219 65.166 90.9648 65.2637C90.5078 65.3613 90.209 65.457 90.0684 65.5508C89.8535 65.7031 89.7461 65.8965 89.7461 66.1309C89.7461 66.3613 89.832 66.5605 90.0039 66.7285C90.1758 66.8965 90.3945 66.9805 90.6602 66.9805C90.957 66.9805 91.2402 66.8828 91.5098 66.6875C91.709 66.5391 91.8398 66.3574 91.9023 66.1426C91.9453 66.002 91.9668 65.7344 91.9668 65.3398V65.0117ZM100.873 68H99.2266V64.8242C99.2266 64.1523 99.1914 63.7188 99.1211 63.5234C99.0508 63.3242 98.9355 63.1699 98.7754 63.0605C98.6191 62.9512 98.4297 62.8965 98.207 62.8965C97.9219 62.8965 97.666 62.9746 97.4395 63.1309C97.2129 63.2871 97.0566 63.4941 96.9707 63.752C96.8887 64.0098 96.8477 64.4863 96.8477 65.1816V68H95.2012V61.7773H96.7305V62.6914C97.2734 61.9883 97.957 61.6367 98.7812 61.6367C99.1445 61.6367 99.4766 61.7031 99.7773 61.8359C100.078 61.9648 100.305 62.1309 100.457 62.334C100.613 62.5371 100.721 62.7676 100.779 63.0254C100.842 63.2832 100.873 63.6523 100.873 64.1328V68ZM108.256 68H106.727V67.0859C106.473 67.4414 106.172 67.707 105.824 67.8828C105.48 68.0547 105.133 68.1406 104.781 68.1406C104.066 68.1406 103.453 67.8535 102.941 67.2793C102.434 66.7012 102.18 65.8965 102.18 64.8652C102.18 63.8105 102.428 63.0098 102.924 62.4629C103.42 61.9121 104.047 61.6367 104.805 61.6367C105.5 61.6367 106.102 61.9258 106.609 62.5039V59.4102H108.256V68ZM103.861 64.7539C103.861 65.418 103.953 65.8984 104.137 66.1953C104.402 66.625 104.773 66.8398 105.25 66.8398C105.629 66.8398 105.951 66.6797 106.217 66.3594C106.482 66.0352 106.615 65.5527 106.615 64.9121C106.615 64.1973 106.486 63.6836 106.229 63.3711C105.971 63.0547 105.641 62.8965 105.238 62.8965C104.848 62.8965 104.52 63.0527 104.254 63.3652C103.992 63.6738 103.861 64.1367 103.861 64.7539Z" fill="black"/>
<path d="M44.7637 75H43.7852V66.4102H44.8398V69.4746C45.2852 68.916 45.8535 68.6367 46.5449 68.6367C46.9277 68.6367 47.2891 68.7148 47.6289 68.8711C47.9727 69.0234 48.2539 69.2402 48.4727 69.5215C48.6953 69.7988 48.8691 70.1348 48.9941 70.5293C49.1191 70.9238 49.1816 71.3457 49.1816 71.7949C49.1816 72.8613 48.918 73.6855 48.3906 74.2676C47.8633 74.8496 47.2305 75.1406 46.4922 75.1406C45.7578 75.1406 45.1816 74.834 44.7637 74.2207V75ZM44.752 71.8418C44.752 72.5879 44.8535 73.127 45.0566 73.459C45.3887 74.002 45.8379 74.2734 46.4043 74.2734C46.8652 74.2734 47.2637 74.0742 47.5996 73.6758C47.9355 73.2734 48.1035 72.6758 48.1035 71.8828C48.1035 71.0703 47.9414 70.4707 47.6172 70.084C47.2969 69.6973 46.9082 69.5039 46.4512 69.5039C45.9902 69.5039 45.5918 69.7051 45.2559 70.1074C44.9199 70.5059 44.752 71.084 44.752 71.8418Z" fill="black"/>
<path d="M150.398 55.8887C150.398 54.7363 150.719 53.8828 151.359 53.3281C151.895 52.8672 152.547 52.6367 153.316 52.6367C154.172 52.6367 154.871 52.918 155.414 53.4805C155.957 54.0391 156.229 54.8125 156.229 55.8008C156.229 56.6016 156.107 57.2324 155.865 57.6934C155.627 58.1504 155.277 58.5059 154.816 58.7598C154.359 59.0137 153.859 59.1406 153.316 59.1406C152.445 59.1406 151.74 58.8613 151.201 58.3027C150.666 57.7441 150.398 56.9395 150.398 55.8887ZM151.482 55.8887C151.482 56.6855 151.656 57.2832 152.004 57.6816C152.352 58.0762 152.789 58.2734 153.316 58.2734C153.84 58.2734 154.275 58.0742 154.623 57.6758C154.971 57.2773 155.145 56.6699 155.145 55.8535C155.145 55.084 154.969 54.502 154.617 54.1074C154.27 53.709 153.836 53.5098 153.316 53.5098C152.789 53.5098 152.352 53.707 152.004 54.1016C151.656 54.4961 151.482 55.0918 151.482 55.8887ZM161.549 59V58.0859C161.064 58.7891 160.406 59.1406 159.574 59.1406C159.207 59.1406 158.863 59.0703 158.543 58.9297C158.227 58.7891 157.99 58.6133 157.834 58.4023C157.682 58.1875 157.574 57.9258 157.512 57.6172C157.469 57.4102 157.447 57.082 157.447 56.6328V52.7773H158.502V56.2285C158.502 56.7793 158.523 57.1504 158.566 57.3418C158.633 57.6191 158.773 57.8379 158.988 57.998C159.203 58.1543 159.469 58.2324 159.785 58.2324C160.102 58.2324 160.398 58.1523 160.676 57.9922C160.953 57.8281 161.148 57.6074 161.262 57.3301C161.379 57.0488 161.438 56.6426 161.438 56.1113V52.7773H162.492V59H161.549ZM166.453 58.0566L166.605 58.9883C166.309 59.0508 166.043 59.082 165.809 59.082C165.426 59.082 165.129 59.0215 164.918 58.9004C164.707 58.7793 164.559 58.6211 164.473 58.4258C164.387 58.2266 164.344 57.8105 164.344 57.1777V53.5977H163.57V52.7773H164.344V51.2363L165.393 50.6035V52.7773H166.453V53.5977H165.393V57.2363C165.393 57.5371 165.41 57.7305 165.445 57.8164C165.484 57.9023 165.545 57.9707 165.627 58.0215C165.713 58.0723 165.834 58.0977 165.99 58.0977C166.107 58.0977 166.262 58.084 166.453 58.0566Z" fill="black"/>
<circle cx="142" cy="64" r="5" fill="#D9D9D9" stroke="black" stroke-width="2"/>
<path d="M150.398 74.8887C150.398 73.7363 150.719 72.8828 151.359 72.3281C151.895 71.8672 152.547 71.6367 153.316 71.6367C154.172 71.6367 154.871 71.918 155.414 72.4805C155.957 73.0391 156.229 73.8125 156.229 74.8008C156.229 75.6016 156.107 76.2324 155.865 76.6934C155.627 77.1504 155.277 77.5059 154.816 77.7598C154.359 78.0137 153.859 78.1406 153.316 78.1406C152.445 78.1406 151.74 77.8613 151.201 77.3027C150.666 76.7441 150.398 75.9395 150.398 74.8887ZM151.482 74.8887C151.482 75.6855 151.656 76.2832 152.004 76.6816C152.352 77.0762 152.789 77.2734 153.316 77.2734C153.84 77.2734 154.275 77.0742 154.623 76.6758C154.971 76.2773 155.145 75.6699 155.145 74.8535C155.145 74.084 154.969 73.502 154.617 73.1074C154.27 72.709 153.836 72.5098 153.316 72.5098C152.789 72.5098 152.352 72.707 152.004 73.1016C151.656 73.4961 151.482 74.0918 151.482 74.8887ZM161.15 78H160.096V71.2793C159.842 71.5215 159.508 71.7637 159.094 72.0059C158.684 72.248 158.314 72.4297 157.986 72.5508V71.5312C158.576 71.2539 159.092 70.918 159.533 70.5234C159.975 70.1289 160.287 69.7461 160.471 69.375H161.15V78Z" fill="black"/>
<path d="M36.6191 11H34.7324L33.9824 9.04883H30.5488L29.8398 11H28L31.3457 2.41016H33.1797L36.6191 11ZM33.4258 7.60156L32.2422 4.41406L31.082 7.60156H33.4258ZM43.1934 11H41.5469V7.82422C41.5469 7.15234 41.5117 6.71875 41.4414 6.52344C41.3711 6.32422 41.2559 6.16992 41.0957 6.06055C40.9395 5.95117 40.75 5.89648 40.5273 5.89648C40.2422 5.89648 39.9863 5.97461 39.7598 6.13086C39.5332 6.28711 39.377 6.49414 39.291 6.75195C39.209 7.00977 39.168 7.48633 39.168 8.18164V11H37.5215V4.77734H39.0508V5.69141C39.5938 4.98828 40.2773 4.63672 41.1016 4.63672C41.4648 4.63672 41.7969 4.70312 42.0977 4.83594C42.3984 4.96484 42.625 5.13086 42.7773 5.33398C42.9336 5.53711 43.041 5.76758 43.0996 6.02539C43.1621 6.2832 43.1934 6.65234 43.1934 7.13281V11ZM50.5762 11H49.0469V10.0859C48.793 10.4414 48.4922 10.707 48.1445 10.8828C47.8008 11.0547 47.4531 11.1406 47.1016 11.1406C46.3867 11.1406 45.7734 10.8535 45.2617 10.2793C44.7539 9.70117 44.5 8.89648 44.5 7.86523C44.5 6.81055 44.748 6.00977 45.2441 5.46289C45.7402 4.91211 46.3672 4.63672 47.125 4.63672C47.8203 4.63672 48.4219 4.92578 48.9297 5.50391V2.41016H50.5762V11ZM46.1816 7.75391C46.1816 8.41797 46.2734 8.89844 46.457 9.19531C46.7227 9.625 47.0938 9.83984 47.5703 9.83984C47.9492 9.83984 48.2715 9.67969 48.5371 9.35938C48.8027 9.03516 48.9355 8.55273 48.9355 7.91211C48.9355 7.19727 48.8066 6.68359 48.5488 6.37109C48.291 6.05469 47.9609 5.89648 47.5586 5.89648C47.168 5.89648 46.8398 6.05273 46.5742 6.36523C46.3125 6.67383 46.1816 7.13672 46.1816 7.75391Z" fill="black"/>
<line x1="275" y1="63.8" x2="315" y2="63.8" stroke="black" stroke-width="2.4"/>
<path d="M176.797 48.623V47.4102H177.852V48.623H176.797ZM176.797 56V49.7773H177.852V56H176.797ZM179.463 56V49.7773H180.412V50.6621C180.869 49.9785 181.529 49.6367 182.393 49.6367C182.768 49.6367 183.111 49.7051 183.424 49.8418C183.74 49.9746 183.977 50.1504 184.133 50.3691C184.289 50.5879 184.398 50.8477 184.461 51.1484C184.5 51.3438 184.52 51.6855 184.52 52.1738V56H183.465V52.2148C183.465 51.7852 183.424 51.4648 183.342 51.2539C183.26 51.0391 183.113 50.8691 182.902 50.7441C182.695 50.6152 182.451 50.5508 182.17 50.5508C181.721 50.5508 181.332 50.6934 181.004 50.9785C180.68 51.2637 180.518 51.8047 180.518 52.6016V56H179.463Z" fill="black"/>
<line x1="169" y1="63.8" x2="216" y2="63.8" stroke="black" stroke-width="2.4"/>
<path d="M296.398 50.8887C296.398 49.7363 296.719 48.8828 297.359 48.3281C297.895 47.8672 298.547 47.6367 299.316 47.6367C300.172 47.6367 300.871 47.918 301.414 48.4805C301.957 49.0391 302.229 49.8125 302.229 50.8008C302.229 51.6016 302.107 52.2324 301.865 52.6934C301.627 53.1504 301.277 53.5059 300.816 53.7598C300.359 54.0137 299.859 54.1406 299.316 54.1406C298.445 54.1406 297.74 53.8613 297.201 53.3027C296.666 52.7441 296.398 51.9395 296.398 50.8887ZM297.482 50.8887C297.482 51.6855 297.656 52.2832 298.004 52.6816C298.352 53.0762 298.789 53.2734 299.316 53.2734C299.84 53.2734 300.275 53.0742 300.623 52.6758C300.971 52.2773 301.145 51.6699 301.145 50.8535C301.145 50.084 300.969 49.502 300.617 49.1074C300.27 48.709 299.836 48.5098 299.316 48.5098C298.789 48.5098 298.352 48.707 298.004 49.1016C297.656 49.4961 297.482 50.0918 297.482 50.8887ZM307.549 54V53.0859C307.064 53.7891 306.406 54.1406 305.574 54.1406C305.207 54.1406 304.863 54.0703 304.543 53.9297C304.227 53.7891 303.99 53.6133 303.834 53.4023C303.682 53.1875 303.574 52.9258 303.512 52.6172C303.469 52.4102 303.447 52.082 303.447 51.6328V47.7773H304.502V51.2285C304.502 51.7793 304.523 52.1504 304.566 52.3418C304.633 52.6191 304.773 52.8379 304.988 52.998C305.203 53.1543 305.469 53.2324 305.785 53.2324C306.102 53.2324 306.398 53.1523 306.676 52.9922C306.953 52.8281 307.148 52.6074 307.262 52.3301C307.379 52.0488 307.438 51.6426 307.438 51.1113V47.7773H308.492V54H307.549ZM312.453 53.0566L312.605 53.9883C312.309 54.0508 312.043 54.082 311.809 54.082C311.426 54.082 311.129 54.0215 310.918 53.9004C310.707 53.7793 310.559 53.6211 310.473 53.4258C310.387 53.2266 310.344 52.8105 310.344 52.1777V48.5977H309.57V47.7773H310.344V46.2363L311.393 45.6035V47.7773H312.453V48.5977H311.393V52.2363C311.393 52.5371 311.41 52.7305 311.445 52.8164C311.484 52.9023 311.545 52.9707 311.627 53.0215C311.713 53.0723 311.834 53.0977 311.99 53.0977C312.107 53.0977 312.262 53.084 312.453 53.0566Z" fill="black"/>
<path d="M216.4 33.0785L270.4 64.2554L216.4 95.4323L216.4 33.0785Z" fill="#D9D9D9" stroke="black" stroke-width="2.4"/>
<circle cx="277.4" cy="64.2554" r="6" fill="#D9D9D9" stroke="black" stroke-width="2.4"/>
<path d="M219.891 67.8554V59.2655H221.578L225.094 65.0019V59.2655H226.705V67.8554H224.965L221.502 62.2538V67.8554H219.891ZM228.152 64.6562C228.152 64.1093 228.287 63.58 228.557 63.0683C228.826 62.5565 229.207 62.1659 229.699 61.8964C230.195 61.6269 230.748 61.4921 231.357 61.4921C232.299 61.4921 233.07 61.7987 233.672 62.412C234.273 63.0214 234.574 63.7929 234.574 64.7265C234.574 65.6679 234.27 66.4491 233.66 67.0702C233.055 67.6874 232.291 67.996 231.369 67.996C230.799 67.996 230.254 67.8671 229.734 67.6093C229.219 67.3515 228.826 66.9745 228.557 66.4784C228.287 65.9784 228.152 65.371 228.152 64.6562ZM229.84 64.744C229.84 65.3612 229.986 65.8339 230.279 66.162C230.572 66.4901 230.934 66.6542 231.363 66.6542C231.793 66.6542 232.152 66.4901 232.441 66.162C232.734 65.8339 232.881 65.3573 232.881 64.7323C232.881 64.123 232.734 63.6542 232.441 63.3261C232.152 62.998 231.793 62.8339 231.363 62.8339C230.934 62.8339 230.572 62.998 230.279 63.3261C229.986 63.6542 229.84 64.1269 229.84 64.744ZM238.723 61.6327V62.9452H237.598V65.453C237.598 65.9608 237.607 66.2577 237.627 66.3437C237.65 66.4257 237.699 66.494 237.773 66.5487C237.852 66.6034 237.945 66.6308 238.055 66.6308C238.207 66.6308 238.428 66.578 238.717 66.4726L238.857 67.7499C238.475 67.914 238.041 67.996 237.557 67.996C237.26 67.996 236.992 67.9472 236.754 67.8495C236.516 67.748 236.34 67.619 236.227 67.4628C236.117 67.3026 236.041 67.0878 235.998 66.8183C235.963 66.6269 235.945 66.2401 235.945 65.6581V62.9452H235.189V61.6327H235.945V60.3964L237.598 59.4355V61.6327H238.723Z" fill="black"/>
<path d="M14.8516 41.2324C14.4609 41.5645 14.084 41.7988 13.7207 41.9355C13.3613 42.0723 12.9746 42.1406 12.5605 42.1406C11.877 42.1406 11.3516 41.9746 10.9844 41.6426C10.6172 41.3066 10.4336 40.8789 10.4336 40.3594C10.4336 40.0547 10.502 39.7773 10.6387 39.5273C10.7793 39.2734 10.9609 39.0703 11.1836 38.918C11.4102 38.7656 11.6641 38.6504 11.9453 38.5723C12.1523 38.5176 12.4648 38.4648 12.8828 38.4141C13.7344 38.3125 14.3613 38.1914 14.7637 38.0508C14.7676 37.9062 14.7695 37.8145 14.7695 37.7754C14.7695 37.3457 14.6699 37.043 14.4707 36.8672C14.2012 36.6289 13.8008 36.5098 13.2695 36.5098C12.7734 36.5098 12.4062 36.5977 12.168 36.7734C11.9336 36.9453 11.7598 37.252 11.6465 37.6934L10.6152 37.5527C10.709 37.1113 10.8633 36.7559 11.0781 36.4863C11.293 36.2129 11.6035 36.0039 12.0098 35.8594C12.416 35.7109 12.8867 35.6367 13.4219 35.6367C13.9531 35.6367 14.3848 35.6992 14.7168 35.8242C15.0488 35.9492 15.293 36.1074 15.4492 36.2988C15.6055 36.4863 15.7148 36.7246 15.7773 37.0137C15.8125 37.1934 15.8301 37.5176 15.8301 37.9863V39.3926C15.8301 40.373 15.8516 40.9941 15.8945 41.2559C15.9414 41.5137 16.0312 41.7617 16.1641 42H15.0625C14.9531 41.7812 14.8828 41.5254 14.8516 41.2324ZM14.7637 38.877C14.3809 39.0332 13.8066 39.166 13.041 39.2754C12.6074 39.3379 12.3008 39.4082 12.1211 39.4863C11.9414 39.5645 11.8027 39.6797 11.7051 39.832C11.6074 39.9805 11.5586 40.1465 11.5586 40.3301C11.5586 40.6113 11.6641 40.8457 11.875 41.0332C12.0898 41.2207 12.4023 41.3145 12.8125 41.3145C13.2188 41.3145 13.5801 41.2266 13.8965 41.0508C14.2129 40.8711 14.4453 40.627 14.5938 40.3184C14.707 40.0801 14.7637 39.7285 14.7637 39.2637V38.877Z" fill="black"/>
<path d="M11.7637 72H10.7852V63.4102H11.8398V66.4746C12.2852 65.916 12.8535 65.6367 13.5449 65.6367C13.9277 65.6367 14.2891 65.7148 14.6289 65.8711C14.9727 66.0234 15.2539 66.2402 15.4727 66.5215C15.6953 66.7988 15.8691 67.1348 15.9941 67.5293C16.1191 67.9238 16.1816 68.3457 16.1816 68.7949C16.1816 69.8613 15.918 70.6855 15.3906 71.2676C14.8633 71.8496 14.2305 72.1406 13.4922 72.1406C12.7578 72.1406 12.1816 71.834 11.7637 71.2207V72ZM11.752 68.8418C11.752 69.5879 11.8535 70.127 12.0566 70.459C12.3887 71.002 12.8379 71.2734 13.4043 71.2734C13.8652 71.2734 14.2637 71.0742 14.5996 70.6758C14.9355 70.2734 15.1035 69.6758 15.1035 68.8828C15.1035 68.0703 14.9414 67.4707 14.6172 67.084C14.2969 66.6973 13.9082 66.5039 13.4512 66.5039C12.9902 66.5039 12.5918 66.7051 12.2559 67.1074C11.9199 67.5059 11.752 68.084 11.752 68.8418Z" fill="black"/>
<line x1="-8.74228e-08" y1="49" x2="38" y2="49" stroke="#FF6B00" stroke-width="2"/>
<line x1="-8.74228e-08" y1="79" x2="38" y2="79" stroke="#FF6B00" stroke-width="2"/>
<path d="M326.398 53.8887C326.398 52.7363 326.719 51.8828 327.359 51.3281C327.895 50.8672 328.547 50.6367 329.316 50.6367C330.172 50.6367 330.871 50.918 331.414 51.4805C331.957 52.0391 332.229 52.8125 332.229 53.8008C332.229 54.6016 332.107 55.2324 331.865 55.6934C331.627 56.1504 331.277 56.5059 330.816 56.7598C330.359 57.0137 329.859 57.1406 329.316 57.1406C328.445 57.1406 327.74 56.8613 327.201 56.3027C326.666 55.7441 326.398 54.9395 326.398 53.8887ZM327.482 53.8887C327.482 54.6855 327.656 55.2832 328.004 55.6816C328.352 56.0762 328.789 56.2734 329.316 56.2734C329.84 56.2734 330.275 56.0742 330.623 55.6758C330.971 55.2773 331.145 54.6699 331.145 53.8535C331.145 53.084 330.969 52.502 330.617 52.1074C330.27 51.709 329.836 51.5098 329.316 51.5098C328.789 51.5098 328.352 51.707 328.004 52.1016C327.656 52.4961 327.482 53.0918 327.482 53.8887ZM337.549 57V56.0859C337.064 56.7891 336.406 57.1406 335.574 57.1406C335.207 57.1406 334.863 57.0703 334.543 56.9297C334.227 56.7891 333.99 56.6133 333.834 56.4023C333.682 56.1875 333.574 55.9258 333.512 55.6172C333.469 55.4102 333.447 55.082 333.447 54.6328V50.7773H334.502V54.2285C334.502 54.7793 334.523 55.1504 334.566 55.3418C334.633 55.6191 334.773 55.8379 334.988 55.998C335.203 56.1543 335.469 56.2324 335.785 56.2324C336.102 56.2324 336.398 56.1523 336.676 55.9922C336.953 55.8281 337.148 55.6074 337.262 55.3301C337.379 55.0488 337.438 54.6426 337.438 54.1113V50.7773H338.492V57H337.549ZM342.453 56.0566L342.605 56.9883C342.309 57.0508 342.043 57.082 341.809 57.082C341.426 57.082 341.129 57.0215 340.918 56.9004C340.707 56.7793 340.559 56.6211 340.473 56.4258C340.387 56.2266 340.344 55.8105 340.344 55.1777V51.5977H339.57V50.7773H340.344V49.2363L341.393 48.6035V50.7773H342.453V51.5977H341.393V55.2363C341.393 55.5371 341.41 55.7305 341.445 55.8164C341.484 55.9023 341.545 55.9707 341.627 56.0215C341.713 56.0723 341.834 56.0977 341.99 56.0977C342.107 56.0977 342.262 56.084 342.453 56.0566Z" fill="black"/>
<line x1="312" y1="64" x2="350" y2="64" stroke="#FF6B00" stroke-width="2"/>
<rect x="28.5" y="19.5" width="293" height="88" stroke="black" stroke-dasharray="2 2"/>
</svg>
