<svg width="169" height="67" viewBox="0 0 169 67" fill="none" xmlns="http://www.w3.org/2000/svg">
<mask id="path-1-inside-1_98_1376" fill="white">
<path fill-rule="evenodd" clip-rule="evenodd" d="M96 7H44V57H96C109.807 57 121 45.8071 121 32C121 18.1929 109.807 7 96 7Z"/>
</mask>
<path d="M44 7V5H42V7H44ZM44 57H42V59H44V57ZM44 9H96V5H44V9ZM46 57V7H42V57H46ZM96 55H44V59H96V55ZM119 32C119 44.7025 108.703 55 96 55V59C110.912 59 123 46.9117 123 32H119ZM96 9C108.703 9 119 19.2975 119 32H123C123 17.0883 110.912 5 96 5V9Z" fill="black" mask="url(#path-1-inside-1_98_1376)"/>
<line x1="-8.74228e-08" y1="17" x2="44" y2="17" stroke="black" stroke-width="2"/>
<line x1="8.74228e-08" y1="47" x2="44" y2="47" stroke="black" stroke-width="2"/>
<line x1="121" y1="32" x2="169" y2="32" stroke="black" stroke-width="2"/>
<path d="M4.85156 10.2324C4.46094 10.5645 4.08398 10.7988 3.7207 10.9355C3.36133 11.0723 2.97461 11.1406 2.56055 11.1406C1.87695 11.1406 1.35156 10.9746 0.984375 10.6426C0.617188 10.3066 0.433594 9.87891 0.433594 9.35938C0.433594 9.05469 0.501953 8.77734 0.638672 8.52734C0.779297 8.27344 0.960938 8.07031 1.18359 7.91797C1.41016 7.76562 1.66406 7.65039 1.94531 7.57227C2.15234 7.51758 2.46484 7.46484 2.88281 7.41406C3.73438 7.3125 4.36133 7.19141 4.76367 7.05078C4.76758 6.90625 4.76953 6.81445 4.76953 6.77539C4.76953 6.3457 4.66992 6.04297 4.4707 5.86719C4.20117 5.62891 3.80078 5.50977 3.26953 5.50977C2.77344 5.50977 2.40625 5.59766 2.16797 5.77344C1.93359 5.94531 1.75977 6.25195 1.64648 6.69336L0.615234 6.55273C0.708984 6.11133 0.863281 5.75586 1.07812 5.48633C1.29297 5.21289 1.60352 5.00391 2.00977 4.85938C2.41602 4.71094 2.88672 4.63672 3.42188 4.63672C3.95312 4.63672 4.38477 4.69922 4.7168 4.82422C5.04883 4.94922 5.29297 5.10742 5.44922 5.29883C5.60547 5.48633 5.71484 5.72461 5.77734 6.01367C5.8125 6.19336 5.83008 6.51758 5.83008 6.98633V8.39258C5.83008 9.37305 5.85156 9.99414 5.89453 10.2559C5.94141 10.5137 6.03125 10.7617 6.16406 11H5.0625C4.95312 10.7812 4.88281 10.5254 4.85156 10.2324ZM4.76367 7.87695C4.38086 8.0332 3.80664 8.16602 3.04102 8.27539C2.60742 8.33789 2.30078 8.4082 2.12109 8.48633C1.94141 8.56445 1.80273 8.67969 1.70508 8.83203C1.60742 8.98047 1.55859 9.14648 1.55859 9.33008C1.55859 9.61133 1.66406 9.8457 1.875 10.0332C2.08984 10.2207 2.40234 10.3145 2.8125 10.3145C3.21875 10.3145 3.58008 10.2266 3.89648 10.0508C4.21289 9.87109 4.44531 9.62695 4.59375 9.31836C4.70703 9.08008 4.76367 8.72852 4.76367 8.26367V7.87695Z" fill="black"/>
<path d="M68.6191 37H66.7324L65.9824 35.0488H62.5488L61.8398 37H60L63.3457 28.4102H65.1797L68.6191 37ZM65.4258 33.6016L64.2422 30.4141L63.082 33.6016H65.4258ZM75.1934 37H73.5469V33.8242C73.5469 33.1523 73.5117 32.7188 73.4414 32.5234C73.3711 32.3242 73.2559 32.1699 73.0957 32.0605C72.9395 31.9512 72.75 31.8965 72.5273 31.8965C72.2422 31.8965 71.9863 31.9746 71.7598 32.1309C71.5332 32.2871 71.377 32.4941 71.291 32.752C71.209 33.0098 71.168 33.4863 71.168 34.1816V37H69.5215V30.7773H71.0508V31.6914C71.5938 30.9883 72.2773 30.6367 73.1016 30.6367C73.4648 30.6367 73.7969 30.7031 74.0977 30.8359C74.3984 30.9648 74.625 31.1309 74.7773 31.334C74.9336 31.5371 75.041 31.7676 75.0996 32.0254C75.1621 32.2832 75.1934 32.6523 75.1934 33.1328V37ZM82.5762 37H81.0469V36.0859C80.793 36.4414 80.4922 36.707 80.1445 36.8828C79.8008 37.0547 79.4531 37.1406 79.1016 37.1406C78.3867 37.1406 77.7734 36.8535 77.2617 36.2793C76.7539 35.7012 76.5 34.8965 76.5 33.8652C76.5 32.8105 76.748 32.0098 77.2441 31.4629C77.7402 30.9121 78.3672 30.6367 79.125 30.6367C79.8203 30.6367 80.4219 30.9258 80.9297 31.5039V28.4102H82.5762V37ZM78.1816 33.7539C78.1816 34.418 78.2734 34.8984 78.457 35.1953C78.7227 35.625 79.0938 35.8398 79.5703 35.8398C79.9492 35.8398 80.2715 35.6797 80.5371 35.3594C80.8027 35.0352 80.9355 34.5527 80.9355 33.9121C80.9355 33.1973 80.8066 32.6836 80.5488 32.3711C80.291 32.0547 79.9609 31.8965 79.5586 31.8965C79.168 31.8965 78.8398 32.0527 78.5742 32.3652C78.3125 32.6738 78.1816 33.1367 78.1816 33.7539ZM88.0664 37H86.4199V30.7949C85.8184 31.3574 85.1094 31.7734 84.293 32.043V30.5488C84.7227 30.4082 85.1895 30.1426 85.6934 29.752C86.1973 29.3574 86.543 28.8984 86.7305 28.375H88.0664V37ZM96.1113 30.5137L94.5176 30.6895C94.4785 30.3613 94.377 30.1191 94.2129 29.9629C94.0488 29.8066 93.8359 29.7285 93.5742 29.7285C93.2266 29.7285 92.9316 29.8848 92.6895 30.1973C92.4512 30.5098 92.3008 31.1602 92.2383 32.1484C92.6484 31.6641 93.1582 31.4219 93.7676 31.4219C94.4551 31.4219 95.043 31.6836 95.5312 32.207C96.0234 32.7305 96.2695 33.4062 96.2695 34.2344C96.2695 35.1133 96.0117 35.8184 95.4961 36.3496C94.9805 36.8809 94.3184 37.1465 93.5098 37.1465C92.6426 37.1465 91.9297 36.8105 91.3711 36.1387C90.8125 35.4629 90.5332 34.3574 90.5332 32.8223C90.5332 31.248 90.8242 30.1133 91.4062 29.418C91.9883 28.7227 92.7441 28.375 93.6738 28.375C94.3262 28.375 94.8652 28.5586 95.291 28.9258C95.7207 29.2891 95.9941 29.8184 96.1113 30.5137ZM92.3789 34.1055C92.3789 34.6406 92.502 35.0547 92.748 35.3477C92.9941 35.6367 93.2754 35.7812 93.5918 35.7812C93.8965 35.7812 94.1504 35.6621 94.3535 35.4238C94.5566 35.1855 94.6582 34.7949 94.6582 34.252C94.6582 33.6934 94.5488 33.2852 94.3301 33.0273C94.1113 32.7656 93.8379 32.6348 93.5098 32.6348C93.1934 32.6348 92.9258 32.7598 92.707 33.0098C92.4883 33.2559 92.3789 33.6211 92.3789 34.1055Z" fill="black"/>
<path d="M150.398 23.8887C150.398 22.7363 150.719 21.8828 151.359 21.3281C151.895 20.8672 152.547 20.6367 153.316 20.6367C154.172 20.6367 154.871 20.918 155.414 21.4805C155.957 22.0391 156.229 22.8125 156.229 23.8008C156.229 24.6016 156.107 25.2324 155.865 25.6934C155.627 26.1504 155.277 26.5059 154.816 26.7598C154.359 27.0137 153.859 27.1406 153.316 27.1406C152.445 27.1406 151.74 26.8613 151.201 26.3027C150.666 25.7441 150.398 24.9395 150.398 23.8887ZM151.482 23.8887C151.482 24.6855 151.656 25.2832 152.004 25.6816C152.352 26.0762 152.789 26.2734 153.316 26.2734C153.84 26.2734 154.275 26.0742 154.623 25.6758C154.971 25.2773 155.145 24.6699 155.145 23.8535C155.145 23.084 154.969 22.502 154.617 22.1074C154.27 21.709 153.836 21.5098 153.316 21.5098C152.789 21.5098 152.352 21.707 152.004 22.1016C151.656 22.4961 151.482 23.0918 151.482 23.8887ZM161.549 27V26.0859C161.064 26.7891 160.406 27.1406 159.574 27.1406C159.207 27.1406 158.863 27.0703 158.543 26.9297C158.227 26.7891 157.99 26.6133 157.834 26.4023C157.682 26.1875 157.574 25.9258 157.512 25.6172C157.469 25.4102 157.447 25.082 157.447 24.6328V20.7773H158.502V24.2285C158.502 24.7793 158.523 25.1504 158.566 25.3418C158.633 25.6191 158.773 25.8379 158.988 25.998C159.203 26.1543 159.469 26.2324 159.785 26.2324C160.102 26.2324 160.398 26.1523 160.676 25.9922C160.953 25.8281 161.148 25.6074 161.262 25.3301C161.379 25.0488 161.438 24.6426 161.438 24.1113V20.7773H162.492V27H161.549ZM166.453 26.0566L166.605 26.9883C166.309 27.0508 166.043 27.082 165.809 27.082C165.426 27.082 165.129 27.0215 164.918 26.9004C164.707 26.7793 164.559 26.6211 164.473 26.4258C164.387 26.2266 164.344 25.8105 164.344 25.1777V21.5977H163.57V20.7773H164.344V19.2363L165.393 18.6035V20.7773H166.453V21.5977H165.393V25.2363C165.393 25.5371 165.41 25.7305 165.445 25.8164C165.484 25.9023 165.545 25.9707 165.627 26.0215C165.713 26.0723 165.834 26.0977 165.99 26.0977C166.107 26.0977 166.262 26.084 166.453 26.0566Z" fill="black"/>
<line x1="40.3536" y1="7.35355" x2="22.3536" y2="25.3536" stroke="black"/>
<path d="M23.4707 36H22.416V29.2793C22.1621 29.5215 21.8281 29.7637 21.4141 30.0059C21.0039 30.248 20.6348 30.4297 20.3066 30.5508V29.5312C20.8965 29.2539 21.4121 28.918 21.8535 28.5234C22.2949 28.1289 22.6074 27.7461 22.791 27.375H23.4707V36ZM31.6504 29.5137L30.6016 29.5957C30.5078 29.1816 30.375 28.8809 30.2031 28.6934C29.918 28.3926 29.5664 28.2422 29.1484 28.2422C28.8125 28.2422 28.5176 28.3359 28.2637 28.5234C27.9316 28.7656 27.6699 29.1191 27.4785 29.584C27.2871 30.0488 27.1875 30.7109 27.1797 31.5703C27.4336 31.1836 27.7441 30.8965 28.1113 30.709C28.4785 30.5215 28.8633 30.4277 29.2656 30.4277C29.9688 30.4277 30.5664 30.6875 31.0586 31.207C31.5547 31.7227 31.8027 32.3906 31.8027 33.2109C31.8027 33.75 31.6855 34.252 31.4512 34.7168C31.2207 35.1777 30.9023 35.5312 30.4961 35.7773C30.0898 36.0234 29.6289 36.1465 29.1133 36.1465C28.2344 36.1465 27.5176 35.8242 26.9629 35.1797C26.4082 34.5312 26.1309 33.4648 26.1309 31.9805C26.1309 30.3203 26.4375 29.1133 27.0508 28.3594C27.5859 27.7031 28.3066 27.375 29.2129 27.375C29.8887 27.375 30.4414 27.5645 30.8711 27.9434C31.3047 28.3223 31.5645 28.8457 31.6504 29.5137ZM27.3438 33.2168C27.3438 33.5801 27.4199 33.9277 27.5723 34.2598C27.7285 34.5918 27.9453 34.8457 28.2227 35.0215C28.5 35.1934 28.791 35.2793 29.0957 35.2793C29.541 35.2793 29.9238 35.0996 30.2441 34.7402C30.5645 34.3809 30.7246 33.8926 30.7246 33.2754C30.7246 32.6816 30.5664 32.2148 30.25 31.875C29.9336 31.5312 29.5352 31.3594 29.0547 31.3594C28.5781 31.3594 28.1738 31.5312 27.8418 31.875C27.5098 32.2148 27.3438 32.6621 27.3438 33.2168Z" fill="black"/>
<line x1="38.3536" y1="37.3536" x2="20.3536" y2="55.3536" stroke="black"/>
<path d="M21.4707 66H20.416V59.2793C20.1621 59.5215 19.8281 59.7637 19.4141 60.0059C19.0039 60.248 18.6348 60.4297 18.3066 60.5508V59.5312C18.8965 59.2539 19.4121 58.918 19.8535 58.5234C20.2949 58.1289 20.6074 57.7461 20.791 57.375H21.4707V66ZM29.6504 59.5137L28.6016 59.5957C28.5078 59.1816 28.375 58.8809 28.2031 58.6934C27.918 58.3926 27.5664 58.2422 27.1484 58.2422C26.8125 58.2422 26.5176 58.3359 26.2637 58.5234C25.9316 58.7656 25.6699 59.1191 25.4785 59.584C25.2871 60.0488 25.1875 60.7109 25.1797 61.5703C25.4336 61.1836 25.7441 60.8965 26.1113 60.709C26.4785 60.5215 26.8633 60.4277 27.2656 60.4277C27.9688 60.4277 28.5664 60.6875 29.0586 61.207C29.5547 61.7227 29.8027 62.3906 29.8027 63.2109C29.8027 63.75 29.6855 64.252 29.4512 64.7168C29.2207 65.1777 28.9023 65.5312 28.4961 65.7773C28.0898 66.0234 27.6289 66.1465 27.1133 66.1465C26.2344 66.1465 25.5176 65.8242 24.9629 65.1797C24.4082 64.5312 24.1309 63.4648 24.1309 61.9805C24.1309 60.3203 24.4375 59.1133 25.0508 58.3594C25.5859 57.7031 26.3066 57.375 27.2129 57.375C27.8887 57.375 28.4414 57.5645 28.8711 57.9434C29.3047 58.3223 29.5645 58.8457 29.6504 59.5137ZM25.3438 63.2168C25.3438 63.5801 25.4199 63.9277 25.5723 64.2598C25.7285 64.5918 25.9453 64.8457 26.2227 65.0215C26.5 65.1934 26.791 65.2793 27.0957 65.2793C27.541 65.2793 27.9238 65.0996 28.2441 64.7402C28.5645 64.3809 28.7246 63.8926 28.7246 63.2754C28.7246 62.6816 28.5664 62.2148 28.25 61.875C27.9336 61.5312 27.5352 61.3594 27.0547 61.3594C26.5781 61.3594 26.1738 61.5312 25.8418 61.875C25.5098 62.2148 25.3438 62.6621 25.3438 63.2168Z" fill="black"/>
<line x1="143.354" y1="23.3536" x2="125.354" y2="41.3536" stroke="black"/>
<path d="M126.471 52H125.416V45.2793C125.162 45.5215 124.828 45.7637 124.414 46.0059C124.004 46.248 123.635 46.4297 123.307 46.5508V45.5312C123.896 45.2539 124.412 44.918 124.854 44.5234C125.295 44.1289 125.607 43.7461 125.791 43.375H126.471V52ZM134.65 45.5137L133.602 45.5957C133.508 45.1816 133.375 44.8809 133.203 44.6934C132.918 44.3926 132.566 44.2422 132.148 44.2422C131.812 44.2422 131.518 44.3359 131.264 44.5234C130.932 44.7656 130.67 45.1191 130.479 45.584C130.287 46.0488 130.188 46.7109 130.18 47.5703C130.434 47.1836 130.744 46.8965 131.111 46.709C131.479 46.5215 131.863 46.4277 132.266 46.4277C132.969 46.4277 133.566 46.6875 134.059 47.207C134.555 47.7227 134.803 48.3906 134.803 49.2109C134.803 49.75 134.686 50.252 134.451 50.7168C134.221 51.1777 133.902 51.5312 133.496 51.7773C133.09 52.0234 132.629 52.1465 132.113 52.1465C131.234 52.1465 130.518 51.8242 129.963 51.1797C129.408 50.5312 129.131 49.4648 129.131 47.9805C129.131 46.3203 129.438 45.1133 130.051 44.3594C130.586 43.7031 131.307 43.375 132.213 43.375C132.889 43.375 133.441 43.5645 133.871 43.9434C134.305 44.3223 134.564 44.8457 134.65 45.5137ZM130.344 49.2168C130.344 49.5801 130.42 49.9277 130.572 50.2598C130.729 50.5918 130.945 50.8457 131.223 51.0215C131.5 51.1934 131.791 51.2793 132.096 51.2793C132.541 51.2793 132.924 51.0996 133.244 50.7402C133.564 50.3809 133.725 49.8926 133.725 49.2754C133.725 48.6816 133.566 48.2148 133.25 47.875C132.934 47.5312 132.535 47.3594 132.055 47.3594C131.578 47.3594 131.174 47.5312 130.842 47.875C130.51 48.2148 130.344 48.6621 130.344 49.2168Z" fill="black"/>
<path d="M1.76367 42H0.785156V33.4102H1.83984V36.4746C2.28516 35.916 2.85352 35.6367 3.54492 35.6367C3.92773 35.6367 4.28906 35.7148 4.62891 35.8711C4.97266 36.0234 5.25391 36.2402 5.47266 36.5215C5.69531 36.7988 5.86914 37.1348 5.99414 37.5293C6.11914 37.9238 6.18164 38.3457 6.18164 38.7949C6.18164 39.8613 5.91797 40.6855 5.39062 41.2676C4.86328 41.8496 4.23047 42.1406 3.49219 42.1406C2.75781 42.1406 2.18164 41.834 1.76367 41.2207V42ZM1.75195 38.8418C1.75195 39.5879 1.85352 40.127 2.05664 40.459C2.38867 41.002 2.83789 41.2734 3.4043 41.2734C3.86523 41.2734 4.26367 41.0742 4.59961 40.6758C4.93555 40.2734 5.10352 39.6758 5.10352 38.8828C5.10352 38.0703 4.94141 37.4707 4.61719 37.084C4.29688 36.6973 3.9082 36.5039 3.45117 36.5039C2.99023 36.5039 2.5918 36.7051 2.25586 37.1074C1.91992 37.5059 1.75195 38.084 1.75195 38.8418Z" fill="black"/>
</svg>
