<svg width="145" height="106" viewBox="0 0 145 106" fill="none" xmlns="http://www.w3.org/2000/svg">
<path d="M145 28L135 22.2265V33.7735L145 28ZM109 29H136V27H109V29Z" fill="black"/>
<path d="M145 70.2872L135 64.5137V76.0607L145 70.2872ZM109 71.2872H136V69.2872H109V71.2872Z" fill="black"/>
<path d="M118.852 21.2324C118.461 21.5645 118.084 21.7988 117.721 21.9355C117.361 22.0723 116.975 22.1406 116.561 22.1406C115.877 22.1406 115.352 21.9746 114.984 21.6426C114.617 21.3066 114.434 20.8789 114.434 20.3594C114.434 20.0547 114.502 19.7773 114.639 19.5273C114.779 19.2734 114.961 19.0703 115.184 18.918C115.41 18.7656 115.664 18.6504 115.945 18.5723C116.152 18.5176 116.465 18.4648 116.883 18.4141C117.734 18.3125 118.361 18.1914 118.764 18.0508C118.768 17.9062 118.77 17.8145 118.77 17.7754C118.77 17.3457 118.67 17.043 118.471 16.8672C118.201 16.6289 117.801 16.5098 117.27 16.5098C116.773 16.5098 116.406 16.5977 116.168 16.7734C115.934 16.9453 115.76 17.252 115.646 17.6934L114.615 17.5527C114.709 17.1113 114.863 16.7559 115.078 16.4863C115.293 16.2129 115.604 16.0039 116.01 15.8594C116.416 15.7109 116.887 15.6367 117.422 15.6367C117.953 15.6367 118.385 15.6992 118.717 15.8242C119.049 15.9492 119.293 16.1074 119.449 16.2988C119.605 16.4863 119.715 16.7246 119.777 17.0137C119.812 17.1934 119.83 17.5176 119.83 17.9863V19.3926C119.83 20.373 119.852 20.9941 119.895 21.2559C119.941 21.5137 120.031 21.7617 120.164 22H119.062C118.953 21.7812 118.883 21.5254 118.852 21.2324ZM118.764 18.877C118.381 19.0332 117.807 19.166 117.041 19.2754C116.607 19.3379 116.301 19.4082 116.121 19.4863C115.941 19.5645 115.803 19.6797 115.705 19.832C115.607 19.9805 115.559 20.1465 115.559 20.3301C115.559 20.6113 115.664 20.8457 115.875 21.0332C116.09 21.2207 116.402 21.3145 116.812 21.3145C117.219 21.3145 117.58 21.2266 117.896 21.0508C118.213 20.8711 118.445 20.627 118.594 20.3184C118.707 20.0801 118.764 19.7285 118.764 19.2637V18.877Z" fill="black"/>
<path d="M75 70L69.2265 80L80.7735 80L75 70ZM76 106L76 79L74 79L74 106L76 106Z" fill="black"/>
<path d="M55.3691 93.8554L56.4121 93.6913C56.4707 94.1093 56.6328 94.4296 56.8984 94.6523C57.168 94.8749 57.543 94.9862 58.0234 94.9862C58.5078 94.9862 58.8672 94.8886 59.1016 94.6933C59.3359 94.494 59.4531 94.2616 59.4531 93.996C59.4531 93.7577 59.3496 93.5702 59.1426 93.4335C58.998 93.3398 58.6387 93.2206 58.0645 93.0761C57.291 92.8808 56.7539 92.7128 56.4531 92.5722C56.1562 92.4276 55.9297 92.2304 55.7734 91.9804C55.6211 91.7265 55.5449 91.4472 55.5449 91.1425C55.5449 90.8651 55.6074 90.6093 55.7324 90.3749C55.8613 90.1366 56.0352 89.9394 56.2539 89.7831C56.418 89.662 56.6406 89.5605 56.9219 89.4784C57.207 89.3925 57.5117 89.3495 57.8359 89.3495C58.3242 89.3495 58.752 89.4198 59.1191 89.5605C59.4902 89.7011 59.7637 89.8925 59.9395 90.1347C60.1152 90.373 60.2363 90.6933 60.3027 91.0956L59.2715 91.2362C59.2246 90.9159 59.0879 90.6659 58.8613 90.4862C58.6387 90.3065 58.3223 90.2167 57.9121 90.2167C57.4277 90.2167 57.082 90.2968 56.875 90.4569C56.668 90.6171 56.5645 90.8046 56.5645 91.0194C56.5645 91.1562 56.6074 91.2792 56.6934 91.3886C56.7793 91.5019 56.9141 91.5956 57.0977 91.6698C57.2031 91.7089 57.5137 91.7987 58.0293 91.9394C58.7754 92.1386 59.2949 92.3026 59.5879 92.4315C59.8848 92.5565 60.1172 92.7401 60.2852 92.9823C60.4531 93.2245 60.5371 93.5253 60.5371 93.8847C60.5371 94.2362 60.4336 94.5683 60.2266 94.8808C60.0234 95.1894 59.7285 95.4296 59.3418 95.6015C58.9551 95.7694 58.5176 95.8534 58.0293 95.8534C57.2207 95.8534 56.6035 95.6855 56.1777 95.3495C55.7559 95.0136 55.4863 94.5155 55.3691 93.8554ZM66.0508 93.7089L67.1406 93.8437C66.9688 94.4804 66.6504 94.9745 66.1855 95.3261C65.7207 95.6776 65.127 95.8534 64.4043 95.8534C63.4941 95.8534 62.7715 95.5741 62.2363 95.0155C61.7051 94.453 61.4395 93.6659 61.4395 92.6542C61.4395 91.6073 61.709 90.7948 62.248 90.2167C62.7871 89.6386 63.4863 89.3495 64.3457 89.3495C65.1777 89.3495 65.8574 89.6327 66.3848 90.1991C66.9121 90.7655 67.1758 91.5624 67.1758 92.5898C67.1758 92.6523 67.1738 92.746 67.1699 92.871H62.5293C62.5684 93.5546 62.7617 94.078 63.1094 94.4413C63.457 94.8046 63.8906 94.9862 64.4102 94.9862C64.7969 94.9862 65.127 94.8847 65.4004 94.6815C65.6738 94.4784 65.8906 94.1542 66.0508 93.7089ZM62.5879 92.0038H66.0625C66.0156 91.4804 65.8828 91.0878 65.6641 90.8261C65.3281 90.4198 64.8926 90.2167 64.3574 90.2167C63.873 90.2167 63.4648 90.3788 63.1328 90.703C62.8047 91.0273 62.623 91.4608 62.5879 92.0038ZM68.4473 95.7128V87.123H69.502V95.7128H68.4473Z" fill="black"/>
<path d="M115.764 64.2872H114.785V55.6973H115.84V58.7618C116.285 58.2032 116.854 57.9239 117.545 57.9239C117.928 57.9239 118.289 58.002 118.629 58.1583C118.973 58.3106 119.254 58.5274 119.473 58.8087C119.695 59.086 119.869 59.422 119.994 59.8165C120.119 60.211 120.182 60.6329 120.182 61.0821C120.182 62.1485 119.918 62.9727 119.391 63.5548C118.863 64.1368 118.23 64.4278 117.492 64.4278C116.758 64.4278 116.182 64.1212 115.764 63.5079V64.2872ZM115.752 61.129C115.752 61.8751 115.854 62.4141 116.057 62.7462C116.389 63.2891 116.838 63.5606 117.404 63.5606C117.865 63.5606 118.264 63.3614 118.6 62.963C118.936 62.5606 119.104 61.963 119.104 61.17C119.104 60.3575 118.941 59.7579 118.617 59.3712C118.297 58.9845 117.908 58.7911 117.451 58.7911C116.99 58.7911 116.592 58.9923 116.256 59.3946C115.92 59.793 115.752 60.3712 115.752 61.129Z" fill="black"/>
<path d="M38 48.2872L28 42.5137L28 54.0607L38 48.2872ZM8.74228e-08 49.2872L29 49.2872L29 47.2872L-8.74228e-08 47.2872L8.74228e-08 49.2872Z" fill="black"/>
<path d="M4.79688 35.623V34.4102H5.85156V35.623H4.79688ZM4.79688 43V36.7773H5.85156V43H4.79688ZM7.46289 43V36.7773H8.41211V37.6621C8.86914 36.9785 9.5293 36.6367 10.3926 36.6367C10.7676 36.6367 11.1113 36.7051 11.4238 36.8418C11.7402 36.9746 11.9766 37.1504 12.1328 37.3691C12.2891 37.5879 12.3984 37.8477 12.4609 38.1484C12.5 38.3438 12.5195 38.6855 12.5195 39.1738V43H11.4648V39.2148C11.4648 38.7852 11.4238 38.4648 11.3418 38.2539C11.2598 38.0391 11.1133 37.8691 10.9023 37.7441C10.6953 37.6152 10.4512 37.5508 10.1699 37.5508C9.7207 37.5508 9.33203 37.6934 9.00391 37.9785C8.67969 38.2637 8.51758 38.8047 8.51758 39.6016V43H7.46289Z" fill="black"/>
<path d="M108 87.8372L39 48L108 8.16284L108 87.8372Z" stroke="black" stroke-width="2"/>
</svg>
