<svg width="547" height="346" viewBox="0 0 547 346" fill="none" xmlns="http://www.w3.org/2000/svg">
<path d="M508 203L498 197.227L498 208.774L508 203ZM447 204L499 204L499 202L447 202L447 204Z" fill="black"/>
<path d="M339 243L329 237.227L329 248.774L339 243ZM278 244L330 244L330 242L278 242L278 244Z" fill="black"/>
<path d="M508 257L498 251.227L498 262.774L508 257ZM447 258L499 258L499 256L447 256L447 258Z" fill="black"/>
<path d="M508 231L498 225.227L498 236.774L508 231ZM447 232L499 232L499 230L447 230L447 232Z" fill="black"/>
<path d="M508 285L498 279.227L498 290.774L508 285ZM447 286L499 286L499 284L447 284L447 286Z" fill="black"/>
<path d="M489.852 196.232C489.461 196.564 489.084 196.799 488.721 196.936C488.361 197.072 487.975 197.141 487.561 197.141C486.877 197.141 486.352 196.975 485.984 196.643C485.617 196.307 485.434 195.879 485.434 195.359C485.434 195.055 485.502 194.777 485.639 194.527C485.779 194.273 485.961 194.07 486.184 193.918C486.41 193.766 486.664 193.65 486.945 193.572C487.152 193.518 487.465 193.465 487.883 193.414C488.734 193.312 489.361 193.191 489.764 193.051C489.768 192.906 489.77 192.814 489.77 192.775C489.77 192.346 489.67 192.043 489.471 191.867C489.201 191.629 488.801 191.51 488.27 191.51C487.773 191.51 487.406 191.598 487.168 191.773C486.934 191.945 486.76 192.252 486.646 192.693L485.615 192.553C485.709 192.111 485.863 191.756 486.078 191.486C486.293 191.213 486.604 191.004 487.01 190.859C487.416 190.711 487.887 190.637 488.422 190.637C488.953 190.637 489.385 190.699 489.717 190.824C490.049 190.949 490.293 191.107 490.449 191.299C490.605 191.486 490.715 191.725 490.777 192.014C490.812 192.193 490.83 192.518 490.83 192.986V194.393C490.83 195.373 490.852 195.994 490.895 196.256C490.941 196.514 491.031 196.762 491.164 197H490.062C489.953 196.781 489.883 196.525 489.852 196.232ZM489.764 193.877C489.381 194.033 488.807 194.166 488.041 194.275C487.607 194.338 487.301 194.408 487.121 194.486C486.941 194.564 486.803 194.68 486.705 194.832C486.607 194.98 486.559 195.146 486.559 195.33C486.559 195.611 486.664 195.846 486.875 196.033C487.09 196.221 487.402 196.314 487.812 196.314C488.219 196.314 488.58 196.227 488.896 196.051C489.213 195.871 489.445 195.627 489.594 195.318C489.707 195.08 489.764 194.729 489.764 194.264V193.877Z" fill="black"/>
<path d="M282.797 228.623V227.41H283.852V228.623H282.797ZM282.797 236V229.777H283.852V236H282.797ZM285.463 236V229.777H286.412V230.662C286.869 229.979 287.529 229.637 288.393 229.637C288.768 229.637 289.111 229.705 289.424 229.842C289.74 229.975 289.977 230.15 290.133 230.369C290.289 230.588 290.398 230.848 290.461 231.148C290.5 231.344 290.52 231.686 290.52 232.174V236H289.465V232.215C289.465 231.785 289.424 231.465 289.342 231.254C289.26 231.039 289.113 230.869 288.902 230.744C288.695 230.615 288.451 230.551 288.17 230.551C287.721 230.551 287.332 230.693 287.004 230.979C286.68 231.264 286.518 231.805 286.518 232.602V236H285.463Z" fill="black"/>
<path d="M489.852 248.721L490.889 248.855C490.775 249.57 490.484 250.131 490.016 250.537C489.551 250.939 488.979 251.141 488.299 251.141C487.447 251.141 486.762 250.863 486.242 250.309C485.727 249.75 485.469 248.951 485.469 247.912C485.469 247.24 485.58 246.652 485.803 246.148C486.025 245.645 486.363 245.268 486.816 245.018C487.273 244.764 487.77 244.637 488.305 244.637C488.98 244.637 489.533 244.809 489.963 245.152C490.393 245.492 490.668 245.977 490.789 246.605L489.764 246.764C489.666 246.346 489.492 246.031 489.242 245.82C488.996 245.609 488.697 245.504 488.346 245.504C487.814 245.504 487.383 245.695 487.051 246.078C486.719 246.457 486.553 247.059 486.553 247.883C486.553 248.719 486.713 249.326 487.033 249.705C487.354 250.084 487.771 250.273 488.287 250.273C488.701 250.273 489.047 250.146 489.324 249.893C489.602 249.639 489.777 249.248 489.852 248.721Z" fill="black"/>
<path d="M486.764 225.287H485.785V216.697H486.84V219.762C487.285 219.203 487.854 218.924 488.545 218.924C488.928 218.924 489.289 219.002 489.629 219.158C489.973 219.311 490.254 219.527 490.473 219.809C490.695 220.086 490.869 220.422 490.994 220.816C491.119 221.211 491.182 221.633 491.182 222.082C491.182 223.148 490.918 223.973 490.391 224.555C489.863 225.137 489.23 225.428 488.492 225.428C487.758 225.428 487.182 225.121 486.764 224.508V225.287ZM486.752 222.129C486.752 222.875 486.854 223.414 487.057 223.746C487.389 224.289 487.838 224.561 488.404 224.561C488.865 224.561 489.264 224.361 489.6 223.963C489.936 223.561 490.104 222.963 490.104 222.17C490.104 221.357 489.941 220.758 489.617 220.371C489.297 219.984 488.908 219.791 488.451 219.791C487.99 219.791 487.592 219.992 487.256 220.395C486.92 220.793 486.752 221.371 486.752 222.129Z" fill="black"/>
<path d="M489.828 279.287V278.502C489.434 279.119 488.854 279.428 488.088 279.428C487.592 279.428 487.135 279.291 486.717 279.018C486.303 278.744 485.98 278.363 485.75 277.875C485.523 277.383 485.41 276.818 485.41 276.182C485.41 275.561 485.514 274.998 485.721 274.494C485.928 273.986 486.238 273.598 486.652 273.328C487.066 273.059 487.529 272.924 488.041 272.924C488.416 272.924 488.75 273.004 489.043 273.164C489.336 273.32 489.574 273.525 489.758 273.779V270.697H490.807V279.287H489.828ZM486.494 276.182C486.494 276.979 486.662 277.574 486.998 277.969C487.334 278.363 487.73 278.561 488.188 278.561C488.648 278.561 489.039 278.373 489.359 277.998C489.684 277.619 489.846 277.043 489.846 276.27C489.846 275.418 489.682 274.793 489.354 274.395C489.025 273.996 488.621 273.797 488.141 273.797C487.672 273.797 487.279 273.988 486.963 274.371C486.65 274.754 486.494 275.357 486.494 276.182Z" fill="black"/>
<path d="M445.5 302.756L342 243L445.5 183.244L445.5 302.756Z" fill="#D9D9D9" stroke="black" stroke-width="3"/>
<path d="M373.926 247V238.41H376.885C377.553 238.41 378.062 238.451 378.414 238.533C378.906 238.646 379.326 238.852 379.674 239.148C380.127 239.531 380.465 240.021 380.688 240.619C380.914 241.213 381.027 241.893 381.027 242.658C381.027 243.311 380.951 243.889 380.799 244.393C380.646 244.896 380.451 245.314 380.213 245.646C379.975 245.975 379.713 246.234 379.428 246.426C379.146 246.613 378.805 246.756 378.402 246.854C378.004 246.951 377.545 247 377.025 247H373.926ZM375.062 245.986H376.896C377.463 245.986 377.906 245.934 378.227 245.828C378.551 245.723 378.809 245.574 379 245.383C379.27 245.113 379.479 244.752 379.627 244.299C379.779 243.842 379.855 243.289 379.855 242.641C379.855 241.742 379.707 241.053 379.41 240.572C379.117 240.088 378.76 239.764 378.338 239.6C378.033 239.482 377.543 239.424 376.867 239.424H375.062V245.986ZM382.562 247V238.41H384.273L386.307 244.492C386.494 245.059 386.631 245.482 386.717 245.764C386.814 245.451 386.967 244.992 387.174 244.387L389.23 238.41H390.76V247H389.664V239.811L387.168 247H386.143L383.658 239.688V247H382.562ZM396.537 247V246.086C396.053 246.789 395.395 247.141 394.562 247.141C394.195 247.141 393.852 247.07 393.531 246.93C393.215 246.789 392.979 246.613 392.822 246.402C392.67 246.188 392.562 245.926 392.5 245.617C392.457 245.41 392.436 245.082 392.436 244.633V240.777H393.49V244.229C393.49 244.779 393.512 245.15 393.555 245.342C393.621 245.619 393.762 245.838 393.977 245.998C394.191 246.154 394.457 246.232 394.773 246.232C395.09 246.232 395.387 246.152 395.664 245.992C395.941 245.828 396.137 245.607 396.25 245.33C396.367 245.049 396.426 244.643 396.426 244.111V240.777H397.48V247H396.537ZM398.436 247L400.709 243.766L398.605 240.777H399.924L400.879 242.236C401.059 242.514 401.203 242.746 401.312 242.934C401.484 242.676 401.643 242.447 401.787 242.248L402.836 240.777H404.096L401.945 243.707L404.26 247H402.965L401.688 245.066L401.348 244.545L399.713 247H398.436ZM408.227 247V244.943H404.5V243.977L408.42 238.41H409.281V243.977H410.441V244.943H409.281V247H408.227ZM408.227 243.977V240.104L405.537 243.977H408.227ZM413.453 247L411.174 238.41H412.34L413.646 244.041C413.787 244.631 413.908 245.217 414.01 245.799C414.229 244.881 414.357 244.352 414.396 244.211L416.031 238.41H417.402L418.633 242.758C418.941 243.836 419.164 244.85 419.301 245.799C419.41 245.256 419.553 244.633 419.729 243.93L421.076 238.41H422.219L419.863 247H418.768L416.957 240.455C416.805 239.908 416.715 239.572 416.688 239.447C416.598 239.842 416.514 240.178 416.436 240.455L414.613 247H413.453ZM426.766 246.232C426.375 246.564 425.998 246.799 425.635 246.936C425.275 247.072 424.889 247.141 424.475 247.141C423.791 247.141 423.266 246.975 422.898 246.643C422.531 246.307 422.348 245.879 422.348 245.359C422.348 245.055 422.416 244.777 422.553 244.527C422.693 244.273 422.875 244.07 423.098 243.918C423.324 243.766 423.578 243.65 423.859 243.572C424.066 243.518 424.379 243.465 424.797 243.414C425.648 243.312 426.275 243.191 426.678 243.051C426.682 242.906 426.684 242.814 426.684 242.775C426.684 242.346 426.584 242.043 426.385 241.867C426.115 241.629 425.715 241.51 425.184 241.51C424.688 241.51 424.32 241.598 424.082 241.773C423.848 241.945 423.674 242.252 423.561 242.693L422.529 242.553C422.623 242.111 422.777 241.756 422.992 241.486C423.207 241.213 423.518 241.004 423.924 240.859C424.33 240.711 424.801 240.637 425.336 240.637C425.867 240.637 426.299 240.699 426.631 240.824C426.963 240.949 427.207 241.107 427.363 241.299C427.52 241.486 427.629 241.725 427.691 242.014C427.727 242.193 427.744 242.518 427.744 242.986V244.393C427.744 245.373 427.766 245.994 427.809 246.256C427.855 246.514 427.945 246.762 428.078 247H426.977C426.867 246.781 426.797 246.525 426.766 246.232ZM426.678 243.877C426.295 244.033 425.721 244.166 424.955 244.275C424.521 244.338 424.215 244.408 424.035 244.486C423.855 244.564 423.717 244.68 423.619 244.832C423.521 244.98 423.473 245.146 423.473 245.33C423.473 245.611 423.578 245.846 423.789 246.033C424.004 246.221 424.316 246.314 424.727 246.314C425.133 246.314 425.494 246.227 425.811 246.051C426.127 245.871 426.359 245.627 426.508 245.318C426.621 245.08 426.678 244.729 426.678 244.264V243.877ZM429.338 249.396L429.221 248.406C429.451 248.469 429.652 248.5 429.824 248.5C430.059 248.5 430.246 248.461 430.387 248.383C430.527 248.305 430.643 248.195 430.732 248.055C430.799 247.949 430.906 247.688 431.055 247.27C431.074 247.211 431.105 247.125 431.148 247.012L428.787 240.777H429.924L431.219 244.381C431.387 244.838 431.537 245.318 431.67 245.822C431.791 245.338 431.936 244.865 432.104 244.404L433.434 240.777H434.488L432.121 247.105C431.867 247.789 431.67 248.26 431.529 248.518C431.342 248.865 431.127 249.119 430.885 249.279C430.643 249.443 430.354 249.525 430.018 249.525C429.814 249.525 429.588 249.482 429.338 249.396Z" fill="black"/>
<path d="M371 262L365.226 272L376.774 272L371 262ZM372 310L372 271L370 271L370 310L372 310Z" fill="black"/>
<path d="M406 282L400.226 292L411.774 292L406 282ZM407 330L407 291L405 291L405 330L407 330Z" fill="black"/>
<path d="M336.369 304.143L337.412 303.979C337.471 304.396 337.633 304.717 337.898 304.939C338.168 305.162 338.543 305.273 339.023 305.273C339.508 305.273 339.867 305.176 340.102 304.98C340.336 304.781 340.453 304.549 340.453 304.283C340.453 304.045 340.35 303.857 340.143 303.721C339.998 303.627 339.639 303.508 339.064 303.363C338.291 303.168 337.754 303 337.453 302.859C337.156 302.715 336.93 302.518 336.773 302.268C336.621 302.014 336.545 301.734 336.545 301.43C336.545 301.152 336.607 300.896 336.732 300.662C336.861 300.424 337.035 300.227 337.254 300.07C337.418 299.949 337.641 299.848 337.922 299.766C338.207 299.68 338.512 299.637 338.836 299.637C339.324 299.637 339.752 299.707 340.119 299.848C340.49 299.988 340.764 300.18 340.939 300.422C341.115 300.66 341.236 300.98 341.303 301.383L340.271 301.523C340.225 301.203 340.088 300.953 339.861 300.773C339.639 300.594 339.322 300.504 338.912 300.504C338.428 300.504 338.082 300.584 337.875 300.744C337.668 300.904 337.564 301.092 337.564 301.307C337.564 301.443 337.607 301.566 337.693 301.676C337.779 301.789 337.914 301.883 338.098 301.957C338.203 301.996 338.514 302.086 339.029 302.227C339.775 302.426 340.295 302.59 340.588 302.719C340.885 302.844 341.117 303.027 341.285 303.27C341.453 303.512 341.537 303.812 341.537 304.172C341.537 304.523 341.434 304.855 341.227 305.168C341.023 305.477 340.729 305.717 340.342 305.889C339.955 306.057 339.518 306.141 339.029 306.141C338.221 306.141 337.604 305.973 337.178 305.637C336.756 305.301 336.486 304.803 336.369 304.143ZM347.051 303.996L348.141 304.131C347.969 304.768 347.65 305.262 347.186 305.613C346.721 305.965 346.127 306.141 345.404 306.141C344.494 306.141 343.771 305.861 343.236 305.303C342.705 304.74 342.439 303.953 342.439 302.941C342.439 301.895 342.709 301.082 343.248 300.504C343.787 299.926 344.486 299.637 345.346 299.637C346.178 299.637 346.857 299.92 347.385 300.486C347.912 301.053 348.176 301.85 348.176 302.877C348.176 302.939 348.174 303.033 348.17 303.158H343.529C343.568 303.842 343.762 304.365 344.109 304.729C344.457 305.092 344.891 305.273 345.41 305.273C345.797 305.273 346.127 305.172 346.4 304.969C346.674 304.766 346.891 304.441 347.051 303.996ZM343.588 302.291H347.062C347.016 301.768 346.883 301.375 346.664 301.113C346.328 300.707 345.893 300.504 345.357 300.504C344.873 300.504 344.465 300.666 344.133 300.99C343.805 301.314 343.623 301.748 343.588 302.291ZM349.447 306V297.41H350.502V306H349.447ZM352.166 308.385V297.41H354.492V298.283H353.221V307.512H354.492V308.385H352.166ZM359.162 306H358.107V299.279C357.854 299.521 357.52 299.764 357.105 300.006C356.695 300.248 356.326 300.43 355.998 300.551V299.531C356.588 299.254 357.104 298.918 357.545 298.523C357.986 298.129 358.299 297.746 358.482 297.375H359.162V306ZM363.926 308.385H361.6V307.512H362.871V298.283H361.6V297.41H363.926V308.385Z" fill="black"/>
<path d="M409.369 324.143L410.412 323.979C410.471 324.396 410.633 324.717 410.898 324.939C411.168 325.162 411.543 325.273 412.023 325.273C412.508 325.273 412.867 325.176 413.102 324.98C413.336 324.781 413.453 324.549 413.453 324.283C413.453 324.045 413.35 323.857 413.143 323.721C412.998 323.627 412.639 323.508 412.064 323.363C411.291 323.168 410.754 323 410.453 322.859C410.156 322.715 409.93 322.518 409.773 322.268C409.621 322.014 409.545 321.734 409.545 321.43C409.545 321.152 409.607 320.896 409.732 320.662C409.861 320.424 410.035 320.227 410.254 320.07C410.418 319.949 410.641 319.848 410.922 319.766C411.207 319.68 411.512 319.637 411.836 319.637C412.324 319.637 412.752 319.707 413.119 319.848C413.49 319.988 413.764 320.18 413.939 320.422C414.115 320.66 414.236 320.98 414.303 321.383L413.271 321.523C413.225 321.203 413.088 320.953 412.861 320.773C412.639 320.594 412.322 320.504 411.912 320.504C411.428 320.504 411.082 320.584 410.875 320.744C410.668 320.904 410.564 321.092 410.564 321.307C410.564 321.443 410.607 321.566 410.693 321.676C410.779 321.789 410.914 321.883 411.098 321.957C411.203 321.996 411.514 322.086 412.029 322.227C412.775 322.426 413.295 322.59 413.588 322.719C413.885 322.844 414.117 323.027 414.285 323.27C414.453 323.512 414.537 323.812 414.537 324.172C414.537 324.523 414.434 324.855 414.227 325.168C414.023 325.477 413.729 325.717 413.342 325.889C412.955 326.057 412.518 326.141 412.029 326.141C411.221 326.141 410.604 325.973 410.178 325.637C409.756 325.301 409.486 324.803 409.369 324.143ZM420.051 323.996L421.141 324.131C420.969 324.768 420.65 325.262 420.186 325.613C419.721 325.965 419.127 326.141 418.404 326.141C417.494 326.141 416.771 325.861 416.236 325.303C415.705 324.74 415.439 323.953 415.439 322.941C415.439 321.895 415.709 321.082 416.248 320.504C416.787 319.926 417.486 319.637 418.346 319.637C419.178 319.637 419.857 319.92 420.385 320.486C420.912 321.053 421.176 321.85 421.176 322.877C421.176 322.939 421.174 323.033 421.17 323.158H416.529C416.568 323.842 416.762 324.365 417.109 324.729C417.457 325.092 417.891 325.273 418.41 325.273C418.797 325.273 419.127 325.172 419.4 324.969C419.674 324.766 419.891 324.441 420.051 323.996ZM416.588 322.291H420.062C420.016 321.768 419.883 321.375 419.664 321.113C419.328 320.707 418.893 320.504 418.357 320.504C417.873 320.504 417.465 320.666 417.133 320.99C416.805 321.314 416.623 321.748 416.588 322.291ZM422.447 326V317.41H423.502V326H422.447ZM425.166 328.385V317.41H427.492V318.283H426.221V327.512H427.492V328.385H425.166ZM428.189 321.764C428.189 320.748 428.293 319.932 428.5 319.314C428.711 318.693 429.021 318.215 429.432 317.879C429.846 317.543 430.365 317.375 430.99 317.375C431.451 317.375 431.855 317.469 432.203 317.656C432.551 317.84 432.838 318.107 433.064 318.459C433.291 318.807 433.469 319.232 433.598 319.736C433.727 320.236 433.791 320.912 433.791 321.764C433.791 322.771 433.688 323.586 433.48 324.207C433.273 324.824 432.963 325.303 432.549 325.643C432.139 325.979 431.619 326.146 430.99 326.146C430.162 326.146 429.512 325.85 429.039 325.256C428.473 324.541 428.189 323.377 428.189 321.764ZM429.273 321.764C429.273 323.174 429.438 324.113 429.766 324.582C430.098 325.047 430.506 325.279 430.99 325.279C431.475 325.279 431.881 325.045 432.209 324.576C432.541 324.107 432.707 323.17 432.707 321.764C432.707 320.35 432.541 319.41 432.209 318.945C431.881 318.48 431.471 318.248 430.979 318.248C430.494 318.248 430.107 318.453 429.818 318.863C429.455 319.387 429.273 320.354 429.273 321.764ZM436.926 328.385H434.6V327.512H435.871V318.283H434.6V317.41H436.926V328.385Z" fill="black"/>
<path d="M506 52L496 46.2265L496 57.7735L506 52ZM445 53L497 53L497 51L445 51L445 53Z" fill="black"/>
<path d="M337 92L327 86.2265L327 97.7735L337 92ZM276 93L328 93L328 91L276 91L276 93Z" fill="black"/>
<path d="M506 106L496 100.227L496 111.774L506 106ZM445 107L497 107L497 105L445 105L445 107Z" fill="black"/>
<path d="M506 80L496 74.2265L496 85.7735L506 80ZM445 81L497 81L497 79L445 79L445 81Z" fill="black"/>
<path d="M506 134L496 128.227L496 139.774L506 134ZM445 135L497 135L497 133L445 133L445 135Z" fill="black"/>
<path d="M487.852 45.2324C487.461 45.5645 487.084 45.7988 486.721 45.9355C486.361 46.0723 485.975 46.1406 485.561 46.1406C484.877 46.1406 484.352 45.9746 483.984 45.6426C483.617 45.3066 483.434 44.8789 483.434 44.3594C483.434 44.0547 483.502 43.7773 483.639 43.5273C483.779 43.2734 483.961 43.0703 484.184 42.918C484.41 42.7656 484.664 42.6504 484.945 42.5723C485.152 42.5176 485.465 42.4648 485.883 42.4141C486.734 42.3125 487.361 42.1914 487.764 42.0508C487.768 41.9062 487.77 41.8145 487.77 41.7754C487.77 41.3457 487.67 41.043 487.471 40.8672C487.201 40.6289 486.801 40.5098 486.27 40.5098C485.773 40.5098 485.406 40.5977 485.168 40.7734C484.934 40.9453 484.76 41.252 484.646 41.6934L483.615 41.5527C483.709 41.1113 483.863 40.7559 484.078 40.4863C484.293 40.2129 484.604 40.0039 485.01 39.8594C485.416 39.7109 485.887 39.6367 486.422 39.6367C486.953 39.6367 487.385 39.6992 487.717 39.8242C488.049 39.9492 488.293 40.1074 488.449 40.2988C488.605 40.4863 488.715 40.7246 488.777 41.0137C488.812 41.1934 488.83 41.5176 488.83 41.9863V43.3926C488.83 44.373 488.852 44.9941 488.895 45.2559C488.941 45.5137 489.031 45.7617 489.164 46H488.062C487.953 45.7812 487.883 45.5254 487.852 45.2324ZM487.764 42.877C487.381 43.0332 486.807 43.166 486.041 43.2754C485.607 43.3379 485.301 43.4082 485.121 43.4863C484.941 43.5645 484.803 43.6797 484.705 43.832C484.607 43.9805 484.559 44.1465 484.559 44.3301C484.559 44.6113 484.664 44.8457 484.875 45.0332C485.09 45.2207 485.402 45.3145 485.812 45.3145C486.219 45.3145 486.58 45.2266 486.896 45.0508C487.213 44.8711 487.445 44.627 487.594 44.3184C487.707 44.0801 487.764 43.7285 487.764 43.2637V42.877Z" fill="black"/>
<path d="M280.797 77.623V76.4102H281.852V77.623H280.797ZM280.797 85V78.7773H281.852V85H280.797ZM283.463 85V78.7773H284.412V79.6621C284.869 78.9785 285.529 78.6367 286.393 78.6367C286.768 78.6367 287.111 78.7051 287.424 78.8418C287.74 78.9746 287.977 79.1504 288.133 79.3691C288.289 79.5879 288.398 79.8477 288.461 80.1484C288.5 80.3438 288.52 80.6855 288.52 81.1738V85H287.465V81.2148C287.465 80.7852 287.424 80.4648 287.342 80.2539C287.26 80.0391 287.113 79.8691 286.902 79.7441C286.695 79.6152 286.451 79.5508 286.17 79.5508C285.721 79.5508 285.332 79.6934 285.004 79.9785C284.68 80.2637 284.518 80.8047 284.518 81.6016V85H283.463Z" fill="black"/>
<path d="M487.852 97.7207L488.889 97.8555C488.775 98.5703 488.484 99.1309 488.016 99.5371C487.551 99.9395 486.979 100.141 486.299 100.141C485.447 100.141 484.762 99.8633 484.242 99.3086C483.727 98.75 483.469 97.9512 483.469 96.9121C483.469 96.2402 483.58 95.6523 483.803 95.1484C484.025 94.6445 484.363 94.2676 484.816 94.0176C485.273 93.7637 485.77 93.6367 486.305 93.6367C486.98 93.6367 487.533 93.8086 487.963 94.1523C488.393 94.4922 488.668 94.9766 488.789 95.6055L487.764 95.7637C487.666 95.3457 487.492 95.0312 487.242 94.8203C486.996 94.6094 486.697 94.5039 486.346 94.5039C485.814 94.5039 485.383 94.6953 485.051 95.0781C484.719 95.457 484.553 96.0586 484.553 96.8828C484.553 97.7188 484.713 98.3262 485.033 98.7051C485.354 99.084 485.771 99.2734 486.287 99.2734C486.701 99.2734 487.047 99.1465 487.324 98.8926C487.602 98.6387 487.777 98.248 487.852 97.7207Z" fill="black"/>
<path d="M484.764 74.2871H483.785V65.6973H484.84V68.7617C485.285 68.2031 485.854 67.9238 486.545 67.9238C486.928 67.9238 487.289 68.002 487.629 68.1582C487.973 68.3105 488.254 68.5273 488.473 68.8086C488.695 69.0859 488.869 69.4219 488.994 69.8164C489.119 70.2109 489.182 70.6328 489.182 71.082C489.182 72.1484 488.918 72.9727 488.391 73.5547C487.863 74.1367 487.23 74.4277 486.492 74.4277C485.758 74.4277 485.182 74.1211 484.764 73.5078V74.2871ZM484.752 71.1289C484.752 71.875 484.854 72.4141 485.057 72.7461C485.389 73.2891 485.838 73.5605 486.404 73.5605C486.865 73.5605 487.264 73.3613 487.6 72.9629C487.936 72.5605 488.104 71.9629 488.104 71.1699C488.104 70.3574 487.941 69.7578 487.617 69.3711C487.297 68.9844 486.908 68.791 486.451 68.791C485.99 68.791 485.592 68.9922 485.256 69.3945C484.92 69.793 484.752 70.3711 484.752 71.1289Z" fill="black"/>
<path d="M487.828 128.287V127.502C487.434 128.119 486.854 128.428 486.088 128.428C485.592 128.428 485.135 128.291 484.717 128.018C484.303 127.744 483.98 127.363 483.75 126.875C483.523 126.383 483.41 125.818 483.41 125.182C483.41 124.561 483.514 123.998 483.721 123.494C483.928 122.986 484.238 122.598 484.652 122.328C485.066 122.059 485.529 121.924 486.041 121.924C486.416 121.924 486.75 122.004 487.043 122.164C487.336 122.32 487.574 122.525 487.758 122.779V119.697H488.807V128.287H487.828ZM484.494 125.182C484.494 125.979 484.662 126.574 484.998 126.969C485.334 127.363 485.73 127.561 486.188 127.561C486.648 127.561 487.039 127.373 487.359 126.998C487.684 126.619 487.846 126.043 487.846 125.27C487.846 124.418 487.682 123.793 487.354 123.395C487.025 122.996 486.621 122.797 486.141 122.797C485.672 122.797 485.279 122.988 484.963 123.371C484.65 123.754 484.494 124.357 484.494 125.182Z" fill="black"/>
<path d="M443.5 151.756L340 92L443.5 32.2443L443.5 151.756Z" fill="#D9D9D9" stroke="black" stroke-width="3"/>
<path d="M371.926 96V87.4102H374.885C375.553 87.4102 376.062 87.4512 376.414 87.5332C376.906 87.6465 377.326 87.8516 377.674 88.1484C378.127 88.5312 378.465 89.0215 378.688 89.6191C378.914 90.2129 379.027 90.8926 379.027 91.6582C379.027 92.3105 378.951 92.8887 378.799 93.3926C378.646 93.8965 378.451 94.3145 378.213 94.6465C377.975 94.9746 377.713 95.2344 377.428 95.4258C377.146 95.6133 376.805 95.7559 376.402 95.8535C376.004 95.9512 375.545 96 375.025 96H371.926ZM373.062 94.9863H374.896C375.463 94.9863 375.906 94.9336 376.227 94.8281C376.551 94.7227 376.809 94.5742 377 94.3828C377.27 94.1133 377.479 93.752 377.627 93.2988C377.779 92.8418 377.855 92.2891 377.855 91.6406C377.855 90.7422 377.707 90.0527 377.41 89.5723C377.117 89.0879 376.76 88.7637 376.338 88.5996C376.033 88.4824 375.543 88.4238 374.867 88.4238H373.062V94.9863ZM380.562 96V87.4102H382.273L384.307 93.4922C384.494 94.0586 384.631 94.4824 384.717 94.7637C384.814 94.4512 384.967 93.9922 385.174 93.3867L387.23 87.4102H388.76V96H387.664V88.8105L385.168 96H384.143L381.658 88.6875V96H380.562ZM394.537 96V95.0859C394.053 95.7891 393.395 96.1406 392.562 96.1406C392.195 96.1406 391.852 96.0703 391.531 95.9297C391.215 95.7891 390.979 95.6133 390.822 95.4023C390.67 95.1875 390.562 94.9258 390.5 94.6172C390.457 94.4102 390.436 94.082 390.436 93.6328V89.7773H391.49V93.2285C391.49 93.7793 391.512 94.1504 391.555 94.3418C391.621 94.6191 391.762 94.8379 391.977 94.998C392.191 95.1543 392.457 95.2324 392.773 95.2324C393.09 95.2324 393.387 95.1523 393.664 94.9922C393.941 94.8281 394.137 94.6074 394.25 94.3301C394.367 94.0488 394.426 93.6426 394.426 93.1113V89.7773H395.48V96H394.537ZM396.436 96L398.709 92.7656L396.605 89.7773H397.924L398.879 91.2363C399.059 91.5137 399.203 91.7461 399.312 91.9336C399.484 91.6758 399.643 91.4473 399.787 91.248L400.836 89.7773H402.096L399.945 92.707L402.26 96H400.965L399.688 94.0664L399.348 93.5449L397.713 96H396.436ZM406.227 96V93.9434H402.5V92.9766L406.42 87.4102H407.281V92.9766H408.441V93.9434H407.281V96H406.227ZM406.227 92.9766V89.1035L403.537 92.9766H406.227ZM411.453 96L409.174 87.4102H410.34L411.646 93.041C411.787 93.6309 411.908 94.2168 412.01 94.7988C412.229 93.8809 412.357 93.3516 412.396 93.2109L414.031 87.4102H415.402L416.633 91.7578C416.941 92.8359 417.164 93.8496 417.301 94.7988C417.41 94.2559 417.553 93.6328 417.729 92.9297L419.076 87.4102H420.219L417.863 96H416.768L414.957 89.4551C414.805 88.9082 414.715 88.5723 414.688 88.4473C414.598 88.8418 414.514 89.1777 414.436 89.4551L412.613 96H411.453ZM424.766 95.2324C424.375 95.5645 423.998 95.7988 423.635 95.9355C423.275 96.0723 422.889 96.1406 422.475 96.1406C421.791 96.1406 421.266 95.9746 420.898 95.6426C420.531 95.3066 420.348 94.8789 420.348 94.3594C420.348 94.0547 420.416 93.7773 420.553 93.5273C420.693 93.2734 420.875 93.0703 421.098 92.918C421.324 92.7656 421.578 92.6504 421.859 92.5723C422.066 92.5176 422.379 92.4648 422.797 92.4141C423.648 92.3125 424.275 92.1914 424.678 92.0508C424.682 91.9062 424.684 91.8145 424.684 91.7754C424.684 91.3457 424.584 91.043 424.385 90.8672C424.115 90.6289 423.715 90.5098 423.184 90.5098C422.688 90.5098 422.32 90.5977 422.082 90.7734C421.848 90.9453 421.674 91.252 421.561 91.6934L420.529 91.5527C420.623 91.1113 420.777 90.7559 420.992 90.4863C421.207 90.2129 421.518 90.0039 421.924 89.8594C422.33 89.7109 422.801 89.6367 423.336 89.6367C423.867 89.6367 424.299 89.6992 424.631 89.8242C424.963 89.9492 425.207 90.1074 425.363 90.2988C425.52 90.4863 425.629 90.7246 425.691 91.0137C425.727 91.1934 425.744 91.5176 425.744 91.9863V93.3926C425.744 94.373 425.766 94.9941 425.809 95.2559C425.855 95.5137 425.945 95.7617 426.078 96H424.977C424.867 95.7812 424.797 95.5254 424.766 95.2324ZM424.678 92.877C424.295 93.0332 423.721 93.166 422.955 93.2754C422.521 93.3379 422.215 93.4082 422.035 93.4863C421.855 93.5645 421.717 93.6797 421.619 93.832C421.521 93.9805 421.473 94.1465 421.473 94.3301C421.473 94.6113 421.578 94.8457 421.789 95.0332C422.004 95.2207 422.316 95.3145 422.727 95.3145C423.133 95.3145 423.494 95.2266 423.811 95.0508C424.127 94.8711 424.359 94.627 424.508 94.3184C424.621 94.0801 424.678 93.7285 424.678 93.2637V92.877ZM427.338 98.3965L427.221 97.4062C427.451 97.4688 427.652 97.5 427.824 97.5C428.059 97.5 428.246 97.4609 428.387 97.3828C428.527 97.3047 428.643 97.1953 428.732 97.0547C428.799 96.9492 428.906 96.6875 429.055 96.2695C429.074 96.2109 429.105 96.125 429.148 96.0117L426.787 89.7773H427.924L429.219 93.3809C429.387 93.8379 429.537 94.3184 429.67 94.8223C429.791 94.3379 429.936 93.8652 430.104 93.4043L431.434 89.7773H432.488L430.121 96.1055C429.867 96.7891 429.67 97.2598 429.529 97.5176C429.342 97.8652 429.127 98.1191 428.885 98.2793C428.643 98.4434 428.354 98.5254 428.018 98.5254C427.814 98.5254 427.588 98.4824 427.338 98.3965Z" fill="black"/>
<path d="M369 111L363.226 121L374.774 121L369 111ZM370 159L370 120L368 120L368 159L370 159Z" fill="black"/>
<path d="M404 131L398.226 141L409.774 141L404 131ZM405 179L405 140L403 140L403 179L405 179Z" fill="black"/>
<path d="M334.369 153.143L335.412 152.979C335.471 153.396 335.633 153.717 335.898 153.939C336.168 154.162 336.543 154.273 337.023 154.273C337.508 154.273 337.867 154.176 338.102 153.98C338.336 153.781 338.453 153.549 338.453 153.283C338.453 153.045 338.35 152.857 338.143 152.721C337.998 152.627 337.639 152.508 337.064 152.363C336.291 152.168 335.754 152 335.453 151.859C335.156 151.715 334.93 151.518 334.773 151.268C334.621 151.014 334.545 150.734 334.545 150.43C334.545 150.152 334.607 149.896 334.732 149.662C334.861 149.424 335.035 149.227 335.254 149.07C335.418 148.949 335.641 148.848 335.922 148.766C336.207 148.68 336.512 148.637 336.836 148.637C337.324 148.637 337.752 148.707 338.119 148.848C338.49 148.988 338.764 149.18 338.939 149.422C339.115 149.66 339.236 149.98 339.303 150.383L338.271 150.523C338.225 150.203 338.088 149.953 337.861 149.773C337.639 149.594 337.322 149.504 336.912 149.504C336.428 149.504 336.082 149.584 335.875 149.744C335.668 149.904 335.564 150.092 335.564 150.307C335.564 150.443 335.607 150.566 335.693 150.676C335.779 150.789 335.914 150.883 336.098 150.957C336.203 150.996 336.514 151.086 337.029 151.227C337.775 151.426 338.295 151.59 338.588 151.719C338.885 151.844 339.117 152.027 339.285 152.27C339.453 152.512 339.537 152.812 339.537 153.172C339.537 153.523 339.434 153.855 339.227 154.168C339.023 154.477 338.729 154.717 338.342 154.889C337.955 155.057 337.518 155.141 337.029 155.141C336.221 155.141 335.604 154.973 335.178 154.637C334.756 154.301 334.486 153.803 334.369 153.143ZM345.051 152.996L346.141 153.131C345.969 153.768 345.65 154.262 345.186 154.613C344.721 154.965 344.127 155.141 343.404 155.141C342.494 155.141 341.771 154.861 341.236 154.303C340.705 153.74 340.439 152.953 340.439 151.941C340.439 150.895 340.709 150.082 341.248 149.504C341.787 148.926 342.486 148.637 343.346 148.637C344.178 148.637 344.857 148.92 345.385 149.486C345.912 150.053 346.176 150.85 346.176 151.877C346.176 151.939 346.174 152.033 346.17 152.158H341.529C341.568 152.842 341.762 153.365 342.109 153.729C342.457 154.092 342.891 154.273 343.41 154.273C343.797 154.273 344.127 154.172 344.4 153.969C344.674 153.766 344.891 153.441 345.051 152.996ZM341.588 151.291H345.062C345.016 150.768 344.883 150.375 344.664 150.113C344.328 149.707 343.893 149.504 343.357 149.504C342.873 149.504 342.465 149.666 342.133 149.99C341.805 150.314 341.623 150.748 341.588 151.291ZM347.447 155V146.41H348.502V155H347.447ZM350.166 157.385V146.41H352.492V147.283H351.221V156.512H352.492V157.385H350.166ZM357.162 155H356.107V148.279C355.854 148.521 355.52 148.764 355.105 149.006C354.695 149.248 354.326 149.43 353.998 149.551V148.531C354.588 148.254 355.104 147.918 355.545 147.523C355.986 147.129 356.299 146.746 356.482 146.375H357.162V155ZM361.926 157.385H359.6V156.512H360.871V147.283H359.6V146.41H361.926V157.385Z" fill="black"/>
<path d="M407.369 173.143L408.412 172.979C408.471 173.396 408.633 173.717 408.898 173.939C409.168 174.162 409.543 174.273 410.023 174.273C410.508 174.273 410.867 174.176 411.102 173.98C411.336 173.781 411.453 173.549 411.453 173.283C411.453 173.045 411.35 172.857 411.143 172.721C410.998 172.627 410.639 172.508 410.064 172.363C409.291 172.168 408.754 172 408.453 171.859C408.156 171.715 407.93 171.518 407.773 171.268C407.621 171.014 407.545 170.734 407.545 170.43C407.545 170.152 407.607 169.896 407.732 169.662C407.861 169.424 408.035 169.227 408.254 169.07C408.418 168.949 408.641 168.848 408.922 168.766C409.207 168.68 409.512 168.637 409.836 168.637C410.324 168.637 410.752 168.707 411.119 168.848C411.49 168.988 411.764 169.18 411.939 169.422C412.115 169.66 412.236 169.98 412.303 170.383L411.271 170.523C411.225 170.203 411.088 169.953 410.861 169.773C410.639 169.594 410.322 169.504 409.912 169.504C409.428 169.504 409.082 169.584 408.875 169.744C408.668 169.904 408.564 170.092 408.564 170.307C408.564 170.443 408.607 170.566 408.693 170.676C408.779 170.789 408.914 170.883 409.098 170.957C409.203 170.996 409.514 171.086 410.029 171.227C410.775 171.426 411.295 171.59 411.588 171.719C411.885 171.844 412.117 172.027 412.285 172.27C412.453 172.512 412.537 172.812 412.537 173.172C412.537 173.523 412.434 173.855 412.227 174.168C412.023 174.477 411.729 174.717 411.342 174.889C410.955 175.057 410.518 175.141 410.029 175.141C409.221 175.141 408.604 174.973 408.178 174.637C407.756 174.301 407.486 173.803 407.369 173.143ZM418.051 172.996L419.141 173.131C418.969 173.768 418.65 174.262 418.186 174.613C417.721 174.965 417.127 175.141 416.404 175.141C415.494 175.141 414.771 174.861 414.236 174.303C413.705 173.74 413.439 172.953 413.439 171.941C413.439 170.895 413.709 170.082 414.248 169.504C414.787 168.926 415.486 168.637 416.346 168.637C417.178 168.637 417.857 168.92 418.385 169.486C418.912 170.053 419.176 170.85 419.176 171.877C419.176 171.939 419.174 172.033 419.17 172.158H414.529C414.568 172.842 414.762 173.365 415.109 173.729C415.457 174.092 415.891 174.273 416.41 174.273C416.797 174.273 417.127 174.172 417.4 173.969C417.674 173.766 417.891 173.441 418.051 172.996ZM414.588 171.291H418.062C418.016 170.768 417.883 170.375 417.664 170.113C417.328 169.707 416.893 169.504 416.357 169.504C415.873 169.504 415.465 169.666 415.133 169.99C414.805 170.314 414.623 170.748 414.588 171.291ZM420.447 175V166.41H421.502V175H420.447ZM423.166 177.385V166.41H425.492V167.283H424.221V176.512H425.492V177.385H423.166ZM426.189 170.764C426.189 169.748 426.293 168.932 426.5 168.314C426.711 167.693 427.021 167.215 427.432 166.879C427.846 166.543 428.365 166.375 428.99 166.375C429.451 166.375 429.855 166.469 430.203 166.656C430.551 166.84 430.838 167.107 431.064 167.459C431.291 167.807 431.469 168.232 431.598 168.736C431.727 169.236 431.791 169.912 431.791 170.764C431.791 171.771 431.688 172.586 431.48 173.207C431.273 173.824 430.963 174.303 430.549 174.643C430.139 174.979 429.619 175.146 428.99 175.146C428.162 175.146 427.512 174.85 427.039 174.256C426.473 173.541 426.189 172.377 426.189 170.764ZM427.273 170.764C427.273 172.174 427.438 173.113 427.766 173.582C428.098 174.047 428.506 174.279 428.99 174.279C429.475 174.279 429.881 174.045 430.209 173.576C430.541 173.107 430.707 172.17 430.707 170.764C430.707 169.35 430.541 168.41 430.209 167.945C429.881 167.48 429.471 167.248 428.979 167.248C428.494 167.248 428.107 167.453 427.818 167.863C427.455 168.387 427.273 169.354 427.273 170.764ZM434.926 177.385H432.6V176.512H433.871V167.283H432.6V166.41H434.926V177.385Z" fill="black"/>
<path d="M189 201L179 195.226V206.774L189 201ZM153 202H180V200H153V202Z" fill="black"/>
<path d="M189 243.287L179 237.514V249.061L189 243.287ZM153 244.287H180V242.287H153V244.287Z" fill="black"/>
<path d="M162.852 194.232C162.461 194.564 162.084 194.799 161.721 194.936C161.361 195.072 160.975 195.141 160.561 195.141C159.877 195.141 159.352 194.975 158.984 194.643C158.617 194.307 158.434 193.879 158.434 193.359C158.434 193.055 158.502 192.777 158.639 192.527C158.779 192.273 158.961 192.07 159.184 191.918C159.41 191.766 159.664 191.65 159.945 191.572C160.152 191.518 160.465 191.465 160.883 191.414C161.734 191.312 162.361 191.191 162.764 191.051C162.768 190.906 162.77 190.814 162.77 190.775C162.77 190.346 162.67 190.043 162.471 189.867C162.201 189.629 161.801 189.51 161.27 189.51C160.773 189.51 160.406 189.598 160.168 189.773C159.934 189.945 159.76 190.252 159.646 190.693L158.615 190.553C158.709 190.111 158.863 189.756 159.078 189.486C159.293 189.213 159.604 189.004 160.01 188.859C160.416 188.711 160.887 188.637 161.422 188.637C161.953 188.637 162.385 188.699 162.717 188.824C163.049 188.949 163.293 189.107 163.449 189.299C163.605 189.486 163.715 189.725 163.777 190.014C163.812 190.193 163.83 190.518 163.83 190.986V192.393C163.83 193.373 163.852 193.994 163.895 194.256C163.941 194.514 164.031 194.762 164.164 195H163.062C162.953 194.781 162.883 194.525 162.852 194.232ZM162.764 191.877C162.381 192.033 161.807 192.166 161.041 192.275C160.607 192.338 160.301 192.408 160.121 192.486C159.941 192.564 159.803 192.68 159.705 192.832C159.607 192.98 159.559 193.146 159.559 193.33C159.559 193.611 159.664 193.846 159.875 194.033C160.09 194.221 160.402 194.314 160.812 194.314C161.219 194.314 161.58 194.227 161.896 194.051C162.213 193.871 162.445 193.627 162.594 193.318C162.707 193.08 162.764 192.729 162.764 192.264V191.877Z" fill="black"/>
<path d="M163.398 209.889C163.398 208.736 163.719 207.883 164.359 207.328C164.895 206.867 165.547 206.637 166.316 206.637C167.172 206.637 167.871 206.918 168.414 207.48C168.957 208.039 169.229 208.812 169.229 209.801C169.229 210.602 169.107 211.232 168.865 211.693C168.627 212.15 168.277 212.506 167.816 212.76C167.359 213.014 166.859 213.141 166.316 213.141C165.445 213.141 164.74 212.861 164.201 212.303C163.666 211.744 163.398 210.939 163.398 209.889ZM164.482 209.889C164.482 210.686 164.656 211.283 165.004 211.682C165.352 212.076 165.789 212.273 166.316 212.273C166.84 212.273 167.275 212.074 167.623 211.676C167.971 211.277 168.145 210.67 168.145 209.854C168.145 209.084 167.969 208.502 167.617 208.107C167.27 207.709 166.836 207.51 166.316 207.51C165.789 207.51 165.352 207.707 165.004 208.102C164.656 208.496 164.482 209.092 164.482 209.889ZM174.15 213H173.096V206.279C172.842 206.521 172.508 206.764 172.094 207.006C171.684 207.248 171.314 207.43 170.986 207.551V206.531C171.576 206.254 172.092 205.918 172.533 205.523C172.975 205.129 173.287 204.746 173.471 204.375H174.15V213Z" fill="black"/>
<path d="M164.398 256.889C164.398 255.736 164.719 254.883 165.359 254.328C165.895 253.867 166.547 253.637 167.316 253.637C168.172 253.637 168.871 253.918 169.414 254.48C169.957 255.039 170.229 255.812 170.229 256.801C170.229 257.602 170.107 258.232 169.865 258.693C169.627 259.15 169.277 259.506 168.816 259.76C168.359 260.014 167.859 260.141 167.316 260.141C166.445 260.141 165.74 259.861 165.201 259.303C164.666 258.744 164.398 257.939 164.398 256.889ZM165.482 256.889C165.482 257.686 165.656 258.283 166.004 258.682C166.352 259.076 166.789 259.273 167.316 259.273C167.84 259.273 168.275 259.074 168.623 258.676C168.971 258.277 169.145 257.67 169.145 256.854C169.145 256.084 168.969 255.502 168.617 255.107C168.27 254.709 167.836 254.51 167.316 254.51C166.789 254.51 166.352 254.707 166.004 255.102C165.656 255.496 165.482 256.092 165.482 256.889ZM176.721 258.986V260H171.043C171.035 259.746 171.076 259.502 171.166 259.268C171.311 258.881 171.541 258.5 171.857 258.125C172.178 257.75 172.639 257.316 173.24 256.824C174.174 256.059 174.805 255.453 175.133 255.008C175.461 254.559 175.625 254.135 175.625 253.736C175.625 253.318 175.475 252.967 175.174 252.682C174.877 252.393 174.488 252.248 174.008 252.248C173.5 252.248 173.094 252.4 172.789 252.705C172.484 253.01 172.33 253.432 172.326 253.971L171.242 253.859C171.316 253.051 171.596 252.436 172.08 252.014C172.564 251.588 173.215 251.375 174.031 251.375C174.855 251.375 175.508 251.604 175.988 252.061C176.469 252.518 176.709 253.084 176.709 253.76C176.709 254.104 176.639 254.441 176.498 254.773C176.357 255.105 176.123 255.455 175.795 255.822C175.471 256.189 174.93 256.693 174.172 257.334C173.539 257.865 173.133 258.227 172.953 258.418C172.773 258.605 172.625 258.795 172.508 258.986H176.721Z" fill="black"/>
<path d="M119 243L113.226 253L124.774 253L119 243ZM120 279L120 252L118 252L118 279L120 279Z" fill="black"/>
<path d="M99.3691 266.855L100.412 266.691C100.471 267.109 100.633 267.43 100.898 267.652C101.168 267.875 101.543 267.986 102.023 267.986C102.508 267.986 102.867 267.889 103.102 267.693C103.336 267.494 103.453 267.262 103.453 266.996C103.453 266.758 103.35 266.57 103.143 266.433C102.998 266.34 102.639 266.221 102.064 266.076C101.291 265.881 100.754 265.713 100.453 265.572C100.156 265.428 99.9297 265.23 99.7734 264.98C99.6211 264.726 99.5449 264.447 99.5449 264.142C99.5449 263.865 99.6074 263.609 99.7324 263.375C99.8613 263.137 100.035 262.939 100.254 262.783C100.418 262.662 100.641 262.56 100.922 262.478C101.207 262.392 101.512 262.349 101.836 262.349C102.324 262.349 102.752 262.42 103.119 262.56C103.49 262.701 103.764 262.892 103.939 263.135C104.115 263.373 104.236 263.693 104.303 264.096L103.271 264.236C103.225 263.916 103.088 263.666 102.861 263.486C102.639 263.307 102.322 263.217 101.912 263.217C101.428 263.217 101.082 263.297 100.875 263.457C100.668 263.617 100.564 263.805 100.564 264.019C100.564 264.156 100.607 264.279 100.693 264.389C100.779 264.502 100.914 264.596 101.098 264.67C101.203 264.709 101.514 264.799 102.029 264.939C102.775 265.139 103.295 265.303 103.588 265.432C103.885 265.557 104.117 265.74 104.285 265.982C104.453 266.224 104.537 266.525 104.537 266.885C104.537 267.236 104.434 267.568 104.227 267.881C104.023 268.189 103.729 268.43 103.342 268.601C102.955 268.769 102.518 268.853 102.029 268.853C101.221 268.853 100.604 268.685 100.178 268.349C99.7559 268.014 99.4863 267.516 99.3691 266.855ZM110.051 266.709L111.141 266.844C110.969 267.48 110.65 267.974 110.186 268.326C109.721 268.678 109.127 268.853 108.404 268.853C107.494 268.853 106.771 268.574 106.236 268.016C105.705 267.453 105.439 266.666 105.439 265.654C105.439 264.607 105.709 263.795 106.248 263.217C106.787 262.639 107.486 262.349 108.346 262.349C109.178 262.349 109.857 262.633 110.385 263.199C110.912 263.766 111.176 264.562 111.176 265.59C111.176 265.652 111.174 265.746 111.17 265.871H106.529C106.568 266.555 106.762 267.078 107.109 267.441C107.457 267.805 107.891 267.986 108.41 267.986C108.797 267.986 109.127 267.885 109.4 267.682C109.674 267.478 109.891 267.154 110.051 266.709ZM106.588 265.004H110.062C110.016 264.48 109.883 264.088 109.664 263.826C109.328 263.42 108.893 263.217 108.357 263.217C107.873 263.217 107.465 263.379 107.133 263.703C106.805 264.027 106.623 264.461 106.588 265.004ZM112.447 268.713V260.123H113.502V268.713H112.447Z" fill="black"/>
<path d="M159.764 237.287H158.785V228.697H159.84V231.762C160.285 231.203 160.854 230.924 161.545 230.924C161.928 230.924 162.289 231.002 162.629 231.158C162.973 231.311 163.254 231.527 163.473 231.809C163.695 232.086 163.869 232.422 163.994 232.817C164.119 233.211 164.182 233.633 164.182 234.082C164.182 235.149 163.918 235.973 163.391 236.555C162.863 237.137 162.23 237.428 161.492 237.428C160.758 237.428 160.182 237.121 159.764 236.508V237.287ZM159.752 234.129C159.752 234.875 159.854 235.414 160.057 235.746C160.389 236.289 160.838 236.561 161.404 236.561C161.865 236.561 162.264 236.361 162.6 235.963C162.936 235.561 163.104 234.963 163.104 234.17C163.104 233.358 162.941 232.758 162.617 232.371C162.297 231.984 161.908 231.791 161.451 231.791C160.99 231.791 160.592 231.992 160.256 232.395C159.92 232.793 159.752 233.371 159.752 234.129Z" fill="black"/>
<path d="M82 221.287L72 215.514L72 227.061L82 221.287ZM44 222.287L73 222.287L73 220.287L44 220.287L44 222.287Z" fill="black"/>
<path d="M48.7969 208.623V207.41H49.8516V208.623H48.7969ZM48.7969 216V209.777H49.8516V216H48.7969ZM51.4629 216V209.777H52.4121V210.662C52.8691 209.979 53.5293 209.637 54.3926 209.637C54.7676 209.637 55.1113 209.705 55.4238 209.842C55.7402 209.975 55.9766 210.15 56.1328 210.369C56.2891 210.588 56.3984 210.848 56.4609 211.148C56.5 211.344 56.5195 211.686 56.5195 212.174V216H55.4648V212.215C55.4648 211.785 55.4238 211.465 55.3418 211.254C55.2598 211.039 55.1133 210.869 54.9023 210.744C54.6953 210.615 54.4512 210.551 54.1699 210.551C53.7207 210.551 53.332 210.693 53.0039 210.979C52.6797 211.264 52.5176 211.805 52.5176 212.602V216H51.4629Z" fill="black"/>
<path d="M152 260.837L83 221L152 181.163L152 260.837Z" fill="#D9D9D9" stroke="black" stroke-width="2"/>
<path d="M112.926 225V216.41H115.885C116.553 216.41 117.062 216.451 117.414 216.533C117.906 216.646 118.326 216.852 118.674 217.148C119.127 217.531 119.465 218.021 119.688 218.619C119.914 219.213 120.027 219.893 120.027 220.658C120.027 221.311 119.951 221.889 119.799 222.393C119.646 222.896 119.451 223.314 119.213 223.646C118.975 223.975 118.713 224.234 118.428 224.426C118.146 224.613 117.805 224.756 117.402 224.854C117.004 224.951 116.545 225 116.025 225H112.926ZM114.062 223.986H115.896C116.463 223.986 116.906 223.934 117.227 223.828C117.551 223.723 117.809 223.574 118 223.383C118.27 223.113 118.479 222.752 118.627 222.299C118.779 221.842 118.855 221.289 118.855 220.641C118.855 219.742 118.707 219.053 118.41 218.572C118.117 218.088 117.76 217.764 117.338 217.6C117.033 217.482 116.543 217.424 115.867 217.424H114.062V223.986ZM121.562 225V216.41H123.273L125.307 222.492C125.494 223.059 125.631 223.482 125.717 223.764C125.814 223.451 125.967 222.992 126.174 222.387L128.23 216.41H129.76V225H128.664V217.811L126.168 225H125.143L122.658 217.688V225H121.562ZM135.537 225V224.086C135.053 224.789 134.395 225.141 133.562 225.141C133.195 225.141 132.852 225.07 132.531 224.93C132.215 224.789 131.979 224.613 131.822 224.402C131.67 224.188 131.562 223.926 131.5 223.617C131.457 223.41 131.436 223.082 131.436 222.633V218.777H132.49V222.229C132.49 222.779 132.512 223.15 132.555 223.342C132.621 223.619 132.762 223.838 132.977 223.998C133.191 224.154 133.457 224.232 133.773 224.232C134.09 224.232 134.387 224.152 134.664 223.992C134.941 223.828 135.137 223.607 135.25 223.33C135.367 223.049 135.426 222.643 135.426 222.111V218.777H136.48V225H135.537ZM137.436 225L139.709 221.766L137.605 218.777H138.924L139.879 220.236C140.059 220.514 140.203 220.746 140.312 220.934C140.484 220.676 140.643 220.447 140.787 220.248L141.836 218.777H143.096L140.945 221.707L143.26 225H141.965L140.688 223.066L140.348 222.545L138.713 225H137.436Z" fill="black"/>
<path d="M0 221L44 221" stroke="#FF6B00" stroke-width="2"/>
<path d="M189 243L279 243" stroke="#FF6B00" stroke-width="2"/>
<path d="M189 92L276 92" stroke="#FF6B00" stroke-width="2"/>
<path d="M190 92L190 201" stroke="#FF6B00" stroke-width="2"/>
<path d="M119 279L119 289" stroke="#00FF00" stroke-width="2"/>
<path d="M264 180L264 331" stroke="#00FF00" stroke-width="2" stroke-dasharray="4 4"/>
<path d="M244 159L244 310" stroke="#00FF00" stroke-width="2" stroke-dasharray="4 4"/>
<path d="M4.79688 207.623V206.41H5.85156V207.623H4.79688ZM4.79688 215V208.777H5.85156V215H4.79688ZM7.46289 215V208.777H8.41211V209.662C8.86914 208.979 9.5293 208.637 10.3926 208.637C10.7676 208.637 11.1113 208.705 11.4238 208.842C11.7402 208.975 11.9766 209.15 12.1328 209.369C12.2891 209.588 12.3984 209.848 12.4609 210.148C12.5 210.344 12.5195 210.686 12.5195 211.174V215H11.4648V211.215C11.4648 210.785 11.4238 210.465 11.3418 210.254C11.2598 210.039 11.1133 209.869 10.9023 209.744C10.6953 209.615 10.4512 209.551 10.1699 209.551C9.7207 209.551 9.33203 209.693 9.00391 209.979C8.67969 210.264 8.51758 210.805 8.51758 211.602V215H7.46289Z" fill="black"/>
<path d="M0 289L120 289" stroke="#00FF00" stroke-width="2"/>
<path d="M0 311L372 311" stroke="#00FF00" stroke-width="2"/>
<path d="M244 160L370 160" stroke="#00FF00" stroke-width="2"/>
<path d="M0 331L407 331" stroke="#00FF00" stroke-width="2"/>
<path d="M264 180L405 180" stroke="#00FF00" stroke-width="2"/>
<path d="M0.369141 279.143L1.41211 278.979C1.4707 279.396 1.63281 279.717 1.89844 279.939C2.16797 280.162 2.54297 280.273 3.02344 280.273C3.50781 280.273 3.86719 280.176 4.10156 279.98C4.33594 279.781 4.45312 279.549 4.45312 279.283C4.45312 279.045 4.34961 278.857 4.14258 278.721C3.99805 278.627 3.63867 278.508 3.06445 278.363C2.29102 278.168 1.75391 278 1.45312 277.859C1.15625 277.715 0.929688 277.518 0.773438 277.268C0.621094 277.014 0.544922 276.734 0.544922 276.43C0.544922 276.152 0.607422 275.896 0.732422 275.662C0.861328 275.424 1.03516 275.227 1.25391 275.07C1.41797 274.949 1.64062 274.848 1.92188 274.766C2.20703 274.68 2.51172 274.637 2.83594 274.637C3.32422 274.637 3.75195 274.707 4.11914 274.848C4.49023 274.988 4.76367 275.18 4.93945 275.422C5.11523 275.66 5.23633 275.98 5.30273 276.383L4.27148 276.523C4.22461 276.203 4.08789 275.953 3.86133 275.773C3.63867 275.594 3.32227 275.504 2.91211 275.504C2.42773 275.504 2.08203 275.584 1.875 275.744C1.66797 275.904 1.56445 276.092 1.56445 276.307C1.56445 276.443 1.60742 276.566 1.69336 276.676C1.7793 276.789 1.91406 276.883 2.09766 276.957C2.20312 276.996 2.51367 277.086 3.0293 277.227C3.77539 277.426 4.29492 277.59 4.58789 277.719C4.88477 277.844 5.11719 278.027 5.28516 278.27C5.45312 278.512 5.53711 278.812 5.53711 279.172C5.53711 279.523 5.43359 279.855 5.22656 280.168C5.02344 280.477 4.72852 280.717 4.3418 280.889C3.95508 281.057 3.51758 281.141 3.0293 281.141C2.2207 281.141 1.60352 280.973 1.17773 280.637C0.755859 280.301 0.486328 279.803 0.369141 279.143ZM11.0508 278.996L12.1406 279.131C11.9688 279.768 11.6504 280.262 11.1855 280.613C10.7207 280.965 10.127 281.141 9.4043 281.141C8.49414 281.141 7.77148 280.861 7.23633 280.303C6.70508 279.74 6.43945 278.953 6.43945 277.941C6.43945 276.895 6.70898 276.082 7.24805 275.504C7.78711 274.926 8.48633 274.637 9.3457 274.637C10.1777 274.637 10.8574 274.92 11.3848 275.486C11.9121 276.053 12.1758 276.85 12.1758 277.877C12.1758 277.939 12.1738 278.033 12.1699 278.158H7.5293C7.56836 278.842 7.76172 279.365 8.10938 279.729C8.45703 280.092 8.89062 280.273 9.41016 280.273C9.79688 280.273 10.127 280.172 10.4004 279.969C10.6738 279.766 10.8906 279.441 11.0508 278.996ZM7.58789 277.291H11.0625C11.0156 276.768 10.8828 276.375 10.6641 276.113C10.3281 275.707 9.89258 275.504 9.35742 275.504C8.87305 275.504 8.46484 275.666 8.13281 275.99C7.80469 276.314 7.62305 276.748 7.58789 277.291ZM13.4473 281V272.41H14.502V281H13.4473ZM16.166 283.385V272.41H18.4922V273.283H17.2207V282.512H18.4922V283.385H16.166ZM24.7324 279.986V281H19.0547C19.0469 280.746 19.0879 280.502 19.1777 280.268C19.3223 279.881 19.5527 279.5 19.8691 279.125C20.1895 278.75 20.6504 278.316 21.252 277.824C22.1855 277.059 22.8164 276.453 23.1445 276.008C23.4727 275.559 23.6367 275.135 23.6367 274.736C23.6367 274.318 23.4863 273.967 23.1855 273.682C22.8887 273.393 22.5 273.248 22.0195 273.248C21.5117 273.248 21.1055 273.4 20.8008 273.705C20.4961 274.01 20.3418 274.432 20.3379 274.971L19.2539 274.859C19.3281 274.051 19.6074 273.436 20.0918 273.014C20.5762 272.588 21.2266 272.375 22.043 272.375C22.8672 272.375 23.5195 272.604 24 273.061C24.4805 273.518 24.7207 274.084 24.7207 274.76C24.7207 275.104 24.6504 275.441 24.5098 275.773C24.3691 276.105 24.1348 276.455 23.8066 276.822C23.4824 277.189 22.9414 277.693 22.1836 278.334C21.5508 278.865 21.1445 279.227 20.9648 279.418C20.7852 279.605 20.6367 279.795 20.5195 279.986H24.7324ZM27.9258 283.385H25.5996V282.512H26.8711V273.283H25.5996V272.41H27.9258V283.385Z" fill="black"/>
<path d="M0.369141 301.143L1.41211 300.979C1.4707 301.396 1.63281 301.717 1.89844 301.939C2.16797 302.162 2.54297 302.273 3.02344 302.273C3.50781 302.273 3.86719 302.176 4.10156 301.98C4.33594 301.781 4.45312 301.549 4.45312 301.283C4.45312 301.045 4.34961 300.857 4.14258 300.721C3.99805 300.627 3.63867 300.508 3.06445 300.363C2.29102 300.168 1.75391 300 1.45312 299.859C1.15625 299.715 0.929688 299.518 0.773438 299.268C0.621094 299.014 0.544922 298.734 0.544922 298.43C0.544922 298.152 0.607422 297.896 0.732422 297.662C0.861328 297.424 1.03516 297.227 1.25391 297.07C1.41797 296.949 1.64062 296.848 1.92188 296.766C2.20703 296.68 2.51172 296.637 2.83594 296.637C3.32422 296.637 3.75195 296.707 4.11914 296.848C4.49023 296.988 4.76367 297.18 4.93945 297.422C5.11523 297.66 5.23633 297.98 5.30273 298.383L4.27148 298.523C4.22461 298.203 4.08789 297.953 3.86133 297.773C3.63867 297.594 3.32227 297.504 2.91211 297.504C2.42773 297.504 2.08203 297.584 1.875 297.744C1.66797 297.904 1.56445 298.092 1.56445 298.307C1.56445 298.443 1.60742 298.566 1.69336 298.676C1.7793 298.789 1.91406 298.883 2.09766 298.957C2.20312 298.996 2.51367 299.086 3.0293 299.227C3.77539 299.426 4.29492 299.59 4.58789 299.719C4.88477 299.844 5.11719 300.027 5.28516 300.27C5.45312 300.512 5.53711 300.812 5.53711 301.172C5.53711 301.523 5.43359 301.855 5.22656 302.168C5.02344 302.477 4.72852 302.717 4.3418 302.889C3.95508 303.057 3.51758 303.141 3.0293 303.141C2.2207 303.141 1.60352 302.973 1.17773 302.637C0.755859 302.301 0.486328 301.803 0.369141 301.143ZM11.0508 300.996L12.1406 301.131C11.9688 301.768 11.6504 302.262 11.1855 302.613C10.7207 302.965 10.127 303.141 9.4043 303.141C8.49414 303.141 7.77148 302.861 7.23633 302.303C6.70508 301.74 6.43945 300.953 6.43945 299.941C6.43945 298.895 6.70898 298.082 7.24805 297.504C7.78711 296.926 8.48633 296.637 9.3457 296.637C10.1777 296.637 10.8574 296.92 11.3848 297.486C11.9121 298.053 12.1758 298.85 12.1758 299.877C12.1758 299.939 12.1738 300.033 12.1699 300.158H7.5293C7.56836 300.842 7.76172 301.365 8.10938 301.729C8.45703 302.092 8.89062 302.273 9.41016 302.273C9.79688 302.273 10.127 302.172 10.4004 301.969C10.6738 301.766 10.8906 301.441 11.0508 300.996ZM7.58789 299.291H11.0625C11.0156 298.768 10.8828 298.375 10.6641 298.113C10.3281 297.707 9.89258 297.504 9.35742 297.504C8.87305 297.504 8.46484 297.666 8.13281 297.99C7.80469 298.314 7.62305 298.748 7.58789 299.291ZM13.4473 303V294.41H14.502V303H13.4473ZM16.166 305.385V294.41H18.4922V295.283H17.2207V304.512H18.4922V305.385H16.166ZM23.1621 303H22.1074V296.279C21.8535 296.521 21.5195 296.764 21.1055 297.006C20.6953 297.248 20.3262 297.43 19.998 297.551V296.531C20.5879 296.254 21.1035 295.918 21.5449 295.523C21.9863 295.129 22.2988 294.746 22.4824 294.375H23.1621V303ZM27.9258 305.385H25.5996V304.512H26.8711V295.283H25.5996V294.41H27.9258V305.385Z" fill="black"/>
<path d="M0.369141 322.143L1.41211 321.979C1.4707 322.396 1.63281 322.717 1.89844 322.939C2.16797 323.162 2.54297 323.273 3.02344 323.273C3.50781 323.273 3.86719 323.176 4.10156 322.98C4.33594 322.781 4.45312 322.549 4.45312 322.283C4.45312 322.045 4.34961 321.857 4.14258 321.721C3.99805 321.627 3.63867 321.508 3.06445 321.363C2.29102 321.168 1.75391 321 1.45312 320.859C1.15625 320.715 0.929688 320.518 0.773438 320.268C0.621094 320.014 0.544922 319.734 0.544922 319.43C0.544922 319.152 0.607422 318.896 0.732422 318.662C0.861328 318.424 1.03516 318.227 1.25391 318.07C1.41797 317.949 1.64062 317.848 1.92188 317.766C2.20703 317.68 2.51172 317.637 2.83594 317.637C3.32422 317.637 3.75195 317.707 4.11914 317.848C4.49023 317.988 4.76367 318.18 4.93945 318.422C5.11523 318.66 5.23633 318.98 5.30273 319.383L4.27148 319.523C4.22461 319.203 4.08789 318.953 3.86133 318.773C3.63867 318.594 3.32227 318.504 2.91211 318.504C2.42773 318.504 2.08203 318.584 1.875 318.744C1.66797 318.904 1.56445 319.092 1.56445 319.307C1.56445 319.443 1.60742 319.566 1.69336 319.676C1.7793 319.789 1.91406 319.883 2.09766 319.957C2.20312 319.996 2.51367 320.086 3.0293 320.227C3.77539 320.426 4.29492 320.59 4.58789 320.719C4.88477 320.844 5.11719 321.027 5.28516 321.27C5.45312 321.512 5.53711 321.812 5.53711 322.172C5.53711 322.523 5.43359 322.855 5.22656 323.168C5.02344 323.477 4.72852 323.717 4.3418 323.889C3.95508 324.057 3.51758 324.141 3.0293 324.141C2.2207 324.141 1.60352 323.973 1.17773 323.637C0.755859 323.301 0.486328 322.803 0.369141 322.143ZM11.0508 321.996L12.1406 322.131C11.9688 322.768 11.6504 323.262 11.1855 323.613C10.7207 323.965 10.127 324.141 9.4043 324.141C8.49414 324.141 7.77148 323.861 7.23633 323.303C6.70508 322.74 6.43945 321.953 6.43945 320.941C6.43945 319.895 6.70898 319.082 7.24805 318.504C7.78711 317.926 8.48633 317.637 9.3457 317.637C10.1777 317.637 10.8574 317.92 11.3848 318.486C11.9121 319.053 12.1758 319.85 12.1758 320.877C12.1758 320.939 12.1738 321.033 12.1699 321.158H7.5293C7.56836 321.842 7.76172 322.365 8.10938 322.729C8.45703 323.092 8.89062 323.273 9.41016 323.273C9.79688 323.273 10.127 323.172 10.4004 322.969C10.6738 322.766 10.8906 322.441 11.0508 321.996ZM7.58789 320.291H11.0625C11.0156 319.768 10.8828 319.375 10.6641 319.113C10.3281 318.707 9.89258 318.504 9.35742 318.504C8.87305 318.504 8.46484 318.666 8.13281 318.99C7.80469 319.314 7.62305 319.748 7.58789 320.291ZM13.4473 324V315.41H14.502V324H13.4473ZM16.166 326.385V315.41H18.4922V316.283H17.2207V325.512H18.4922V326.385H16.166ZM19.1895 319.764C19.1895 318.748 19.293 317.932 19.5 317.314C19.7109 316.693 20.0215 316.215 20.4316 315.879C20.8457 315.543 21.3652 315.375 21.9902 315.375C22.4512 315.375 22.8555 315.469 23.2031 315.656C23.5508 315.84 23.8379 316.107 24.0645 316.459C24.291 316.807 24.4688 317.232 24.5977 317.736C24.7266 318.236 24.791 318.912 24.791 319.764C24.791 320.771 24.6875 321.586 24.4805 322.207C24.2734 322.824 23.9629 323.303 23.5488 323.643C23.1387 323.979 22.6191 324.146 21.9902 324.146C21.1621 324.146 20.5117 323.85 20.0391 323.256C19.4727 322.541 19.1895 321.377 19.1895 319.764ZM20.2734 319.764C20.2734 321.174 20.4375 322.113 20.7656 322.582C21.0977 323.047 21.5059 323.279 21.9902 323.279C22.4746 323.279 22.8809 323.045 23.209 322.576C23.541 322.107 23.707 321.17 23.707 319.764C23.707 318.35 23.541 317.41 23.209 316.945C22.8809 316.48 22.4707 316.248 21.9785 316.248C21.4941 316.248 21.1074 316.453 20.8184 316.863C20.4551 317.387 20.2734 318.354 20.2734 319.764ZM27.9258 326.385H25.5996V325.512H26.8711V316.283H25.5996V315.41H27.9258V326.385Z" fill="black"/>
<circle cx="264" cy="331" r="5" fill="#00FF00"/>
<circle cx="244" cy="311" r="5" fill="#00FF00"/>
<path d="M35.9258 11V2.41016H38.8848C39.5527 2.41016 40.0625 2.45117 40.4141 2.5332C40.9062 2.64648 41.3262 2.85156 41.6738 3.14844C42.127 3.53125 42.4648 4.02148 42.6875 4.61914C42.9141 5.21289 43.0273 5.89258 43.0273 6.6582C43.0273 7.31055 42.9512 7.88867 42.7988 8.39258C42.6465 8.89648 42.4512 9.31445 42.2129 9.64648C41.9746 9.97461 41.7129 10.2344 41.4277 10.4258C41.1465 10.6133 40.8047 10.7559 40.4023 10.8535C40.0039 10.9512 39.5449 11 39.0254 11H35.9258ZM37.0625 9.98633H38.8965C39.4629 9.98633 39.9062 9.93359 40.2266 9.82812C40.5508 9.72266 40.8086 9.57422 41 9.38281C41.2695 9.11328 41.4785 8.75195 41.627 8.29883C41.7793 7.8418 41.8555 7.28906 41.8555 6.64062C41.8555 5.74219 41.707 5.05273 41.4102 4.57227C41.1172 4.08789 40.7598 3.76367 40.3379 3.59961C40.0332 3.48242 39.543 3.42383 38.8672 3.42383H37.0625V9.98633ZM44.5625 11V2.41016H46.2734L48.3066 8.49219C48.4941 9.05859 48.6309 9.48242 48.7168 9.76367C48.8145 9.45117 48.9668 8.99219 49.1738 8.38672L51.2305 2.41016H52.7598V11H51.6641V3.81055L49.168 11H48.1426L45.6582 3.6875V11H44.5625ZM58.5371 11V10.0859C58.0527 10.7891 57.3945 11.1406 56.5625 11.1406C56.1953 11.1406 55.8516 11.0703 55.5312 10.9297C55.2148 10.7891 54.9785 10.6133 54.8223 10.4023C54.6699 10.1875 54.5625 9.92578 54.5 9.61719C54.457 9.41016 54.4355 9.08203 54.4355 8.63281V4.77734H55.4902V8.22852C55.4902 8.7793 55.5117 9.15039 55.5547 9.3418C55.6211 9.61914 55.7617 9.83789 55.9766 9.99805C56.1914 10.1543 56.457 10.2324 56.7734 10.2324C57.0898 10.2324 57.3867 10.1523 57.6641 9.99219C57.9414 9.82812 58.1367 9.60742 58.25 9.33008C58.3672 9.04883 58.4258 8.64258 58.4258 8.11133V4.77734H59.4805V11H58.5371ZM60.4355 11L62.709 7.76562L60.6055 4.77734H61.9238L62.8789 6.23633C63.0586 6.51367 63.2031 6.74609 63.3125 6.93359C63.4844 6.67578 63.6426 6.44727 63.7871 6.24805L64.8359 4.77734H66.0957L63.9453 7.70703L66.2598 11H64.9648L63.6875 9.06641L63.3477 8.54492L61.7129 11H60.4355ZM70.2266 11V8.94336H66.5V7.97656L70.4199 2.41016H71.2812V7.97656H72.4414V8.94336H71.2812V11H70.2266ZM70.2266 7.97656V4.10352L67.5371 7.97656H70.2266ZM75.4531 11L73.1738 2.41016H74.3398L75.6465 8.04102C75.7871 8.63086 75.9082 9.2168 76.0098 9.79883C76.2285 8.88086 76.3574 8.35156 76.3965 8.21094L78.0312 2.41016H79.4023L80.6328 6.75781C80.9414 7.83594 81.1641 8.84961 81.3008 9.79883C81.4102 9.25586 81.5527 8.63281 81.7285 7.92969L83.0762 2.41016H84.2188L81.8633 11H80.7676L78.957 4.45508C78.8047 3.9082 78.7148 3.57227 78.6875 3.44727C78.5977 3.8418 78.5137 4.17773 78.4355 4.45508L76.6133 11H75.4531ZM88.7656 10.2324C88.375 10.5645 87.998 10.7988 87.6348 10.9355C87.2754 11.0723 86.8887 11.1406 86.4746 11.1406C85.791 11.1406 85.2656 10.9746 84.8984 10.6426C84.5312 10.3066 84.3477 9.87891 84.3477 9.35938C84.3477 9.05469 84.416 8.77734 84.5527 8.52734C84.6934 8.27344 84.875 8.07031 85.0977 7.91797C85.3242 7.76562 85.5781 7.65039 85.8594 7.57227C86.0664 7.51758 86.3789 7.46484 86.7969 7.41406C87.6484 7.3125 88.2754 7.19141 88.6777 7.05078C88.6816 6.90625 88.6836 6.81445 88.6836 6.77539C88.6836 6.3457 88.584 6.04297 88.3848 5.86719C88.1152 5.62891 87.7148 5.50977 87.1836 5.50977C86.6875 5.50977 86.3203 5.59766 86.082 5.77344C85.8477 5.94531 85.6738 6.25195 85.5605 6.69336L84.5293 6.55273C84.623 6.11133 84.7773 5.75586 84.9922 5.48633C85.207 5.21289 85.5176 5.00391 85.9238 4.85938C86.3301 4.71094 86.8008 4.63672 87.3359 4.63672C87.8672 4.63672 88.2988 4.69922 88.6309 4.82422C88.9629 4.94922 89.207 5.10742 89.3633 5.29883C89.5195 5.48633 89.6289 5.72461 89.6914 6.01367C89.7266 6.19336 89.7441 6.51758 89.7441 6.98633V8.39258C89.7441 9.37305 89.7656 9.99414 89.8086 10.2559C89.8555 10.5137 89.9453 10.7617 90.0781 11H88.9766C88.8672 10.7812 88.7969 10.5254 88.7656 10.2324ZM88.6777 7.87695C88.2949 8.0332 87.7207 8.16602 86.9551 8.27539C86.5215 8.33789 86.2148 8.4082 86.0352 8.48633C85.8555 8.56445 85.7168 8.67969 85.6191 8.83203C85.5215 8.98047 85.4727 9.14648 85.4727 9.33008C85.4727 9.61133 85.5781 9.8457 85.7891 10.0332C86.0039 10.2207 86.3164 10.3145 86.7266 10.3145C87.1328 10.3145 87.4941 10.2266 87.8105 10.0508C88.127 9.87109 88.3594 9.62695 88.5078 9.31836C88.6211 9.08008 88.6777 8.72852 88.6777 8.26367V7.87695ZM91.3379 13.3965L91.2207 12.4062C91.4512 12.4688 91.6523 12.5 91.8242 12.5C92.0586 12.5 92.2461 12.4609 92.3867 12.3828C92.5273 12.3047 92.6426 12.1953 92.7324 12.0547C92.7988 11.9492 92.9062 11.6875 93.0547 11.2695C93.0742 11.2109 93.1055 11.125 93.1484 11.0117L90.7871 4.77734H91.9238L93.2188 8.38086C93.3867 8.83789 93.5371 9.31836 93.6699 9.82227C93.791 9.33789 93.9355 8.86523 94.1035 8.4043L95.4336 4.77734H96.4883L94.1211 11.1055C93.8672 11.7891 93.6699 12.2598 93.5293 12.5176C93.3418 12.8652 93.127 13.1191 92.8848 13.2793C92.6426 13.4434 92.3535 13.5254 92.0176 13.5254C91.8145 13.5254 91.5879 13.4824 91.3379 13.3965Z" fill="black"/>
<rect x="35.5" y="20.5" width="486" height="325" stroke="black" stroke-dasharray="2 2"/>
<path d="M506 52L545 52" stroke="#FF6B00" stroke-width="2"/>
<path d="M508 203L547 203" stroke="#FF6B00" stroke-width="2"/>
<path d="M506 80L545 80" stroke="#FF6B00" stroke-width="2"/>
<path d="M508 231L547 231" stroke="#FF6B00" stroke-width="2"/>
<path d="M506 106L545 106" stroke="#FF6B00" stroke-width="2"/>
<path d="M508 257L547 257" stroke="#FF6B00" stroke-width="2"/>
<path d="M506 134L545 134" stroke="#FF6B00" stroke-width="2"/>
<path d="M508 285L547 285" stroke="#FF6B00" stroke-width="2"/>
<path d="M539.852 45.2324C539.461 45.5645 539.084 45.7988 538.721 45.9355C538.361 46.0723 537.975 46.1406 537.561 46.1406C536.877 46.1406 536.352 45.9746 535.984 45.6426C535.617 45.3066 535.434 44.8789 535.434 44.3594C535.434 44.0547 535.502 43.7773 535.639 43.5273C535.779 43.2734 535.961 43.0703 536.184 42.918C536.41 42.7656 536.664 42.6504 536.945 42.5723C537.152 42.5176 537.465 42.4648 537.883 42.4141C538.734 42.3125 539.361 42.1914 539.764 42.0508C539.768 41.9062 539.77 41.8145 539.77 41.7754C539.77 41.3457 539.67 41.043 539.471 40.8672C539.201 40.6289 538.801 40.5098 538.27 40.5098C537.773 40.5098 537.406 40.5977 537.168 40.7734C536.934 40.9453 536.76 41.252 536.646 41.6934L535.615 41.5527C535.709 41.1113 535.863 40.7559 536.078 40.4863C536.293 40.2129 536.604 40.0039 537.01 39.8594C537.416 39.7109 537.887 39.6367 538.422 39.6367C538.953 39.6367 539.385 39.6992 539.717 39.8242C540.049 39.9492 540.293 40.1074 540.449 40.2988C540.605 40.4863 540.715 40.7246 540.777 41.0137C540.812 41.1934 540.83 41.5176 540.83 41.9863V43.3926C540.83 44.373 540.852 44.9941 540.895 45.2559C540.941 45.5137 541.031 45.7617 541.164 46H540.062C539.953 45.7812 539.883 45.5254 539.852 45.2324ZM539.764 42.877C539.381 43.0332 538.807 43.166 538.041 43.2754C537.607 43.3379 537.301 43.4082 537.121 43.4863C536.941 43.5645 536.803 43.6797 536.705 43.832C536.607 43.9805 536.559 44.1465 536.559 44.3301C536.559 44.6113 536.664 44.8457 536.875 45.0332C537.09 45.2207 537.402 45.3145 537.812 45.3145C538.219 45.3145 538.58 45.2266 538.896 45.0508C539.213 44.8711 539.445 44.627 539.594 44.3184C539.707 44.0801 539.764 43.7285 539.764 43.2637V42.877Z" fill="black"/>
<path d="M542.051 194.996L543.141 195.131C542.969 195.768 542.65 196.262 542.186 196.613C541.721 196.965 541.127 197.141 540.404 197.141C539.494 197.141 538.771 196.861 538.236 196.303C537.705 195.74 537.439 194.953 537.439 193.941C537.439 192.895 537.709 192.082 538.248 191.504C538.787 190.926 539.486 190.637 540.346 190.637C541.178 190.637 541.857 190.92 542.385 191.486C542.912 192.053 543.176 192.85 543.176 193.877C543.176 193.939 543.174 194.033 543.17 194.158H538.529C538.568 194.842 538.762 195.365 539.109 195.729C539.457 196.092 539.891 196.273 540.41 196.273C540.797 196.273 541.127 196.172 541.4 195.969C541.674 195.766 541.891 195.441 542.051 194.996ZM538.588 193.291H542.062C542.016 192.768 541.883 192.375 541.664 192.113C541.328 191.707 540.893 191.504 540.357 191.504C539.873 191.504 539.465 191.666 539.133 191.99C538.805 192.314 538.623 192.748 538.588 193.291Z" fill="black"/>
<path d="M536.764 74H535.785V65.4102H536.84V68.4746C537.285 67.916 537.854 67.6367 538.545 67.6367C538.928 67.6367 539.289 67.7148 539.629 67.8711C539.973 68.0234 540.254 68.2402 540.473 68.5215C540.695 68.7988 540.869 69.1348 540.994 69.5293C541.119 69.9238 541.182 70.3457 541.182 70.7949C541.182 71.8613 540.918 72.6855 540.391 73.2676C539.863 73.8496 539.23 74.1406 538.492 74.1406C537.758 74.1406 537.182 73.834 536.764 73.2207V74ZM536.752 70.8418C536.752 71.5879 536.854 72.127 537.057 72.459C537.389 73.002 537.838 73.2734 538.404 73.2734C538.865 73.2734 539.264 73.0742 539.6 72.6758C539.936 72.2734 540.104 71.6758 540.104 70.8828C540.104 70.0703 539.941 69.4707 539.617 69.084C539.297 68.6973 538.908 68.5039 538.451 68.5039C537.99 68.5039 537.592 68.7051 537.256 69.1074C536.92 69.5059 536.752 70.084 536.752 70.8418Z" fill="black"/>
<path d="M538.043 225V219.598H537.111V218.777H538.043V218.115C538.043 217.697 538.08 217.387 538.154 217.184C538.256 216.91 538.434 216.689 538.688 216.521C538.945 216.35 539.305 216.264 539.766 216.264C540.062 216.264 540.391 216.299 540.75 216.369L540.592 217.289C540.373 217.25 540.166 217.23 539.971 217.23C539.65 217.23 539.424 217.299 539.291 217.436C539.158 217.572 539.092 217.828 539.092 218.203V218.777H540.305V219.598H539.092V225H538.043Z" fill="black"/>
<path d="M539.852 97.7207L540.889 97.8555C540.775 98.5703 540.484 99.1309 540.016 99.5371C539.551 99.9395 538.979 100.141 538.299 100.141C537.447 100.141 536.762 99.8633 536.242 99.3086C535.727 98.75 535.469 97.9512 535.469 96.9121C535.469 96.2402 535.58 95.6523 535.803 95.1484C536.025 94.6445 536.363 94.2676 536.816 94.0176C537.273 93.7637 537.77 93.6367 538.305 93.6367C538.98 93.6367 539.533 93.8086 539.963 94.1523C540.393 94.4922 540.668 94.9766 540.789 95.6055L539.764 95.7637C539.666 95.3457 539.492 95.0312 539.242 94.8203C538.996 94.6094 538.697 94.5039 538.346 94.5039C537.814 94.5039 537.383 94.6953 537.051 95.0781C536.719 95.457 536.553 96.0586 536.553 96.8828C536.553 97.7188 536.713 98.3262 537.033 98.7051C537.354 99.084 537.771 99.2734 538.287 99.2734C538.701 99.2734 539.047 99.1465 539.324 98.8926C539.602 98.6387 539.777 98.248 539.852 97.7207Z" fill="black"/>
<path d="M537.598 251.516L538.623 251.668C538.666 251.984 538.785 252.215 538.98 252.359C539.242 252.555 539.6 252.652 540.053 252.652C540.541 252.652 540.918 252.555 541.184 252.359C541.449 252.164 541.629 251.891 541.723 251.539C541.777 251.324 541.803 250.873 541.799 250.186C541.338 250.729 540.764 251 540.076 251C539.221 251 538.559 250.691 538.09 250.074C537.621 249.457 537.387 248.717 537.387 247.854C537.387 247.26 537.494 246.713 537.709 246.213C537.924 245.709 538.234 245.32 538.641 245.047C539.051 244.773 539.531 244.637 540.082 244.637C540.816 244.637 541.422 244.934 541.898 245.527V244.777H542.871V250.156C542.871 251.125 542.771 251.811 542.572 252.213C542.377 252.619 542.064 252.939 541.635 253.174C541.209 253.408 540.684 253.525 540.059 253.525C539.316 253.525 538.717 253.357 538.26 253.021C537.803 252.689 537.582 252.188 537.598 251.516ZM538.471 247.777C538.471 248.594 538.633 249.189 538.957 249.564C539.281 249.939 539.688 250.127 540.176 250.127C540.66 250.127 541.066 249.941 541.395 249.57C541.723 249.195 541.887 248.609 541.887 247.812C541.887 247.051 541.717 246.477 541.377 246.09C541.041 245.703 540.635 245.51 540.158 245.51C539.689 245.51 539.291 245.701 538.963 246.084C538.635 246.463 538.471 247.027 538.471 247.777Z" fill="black"/>
<path d="M539.828 128V127.215C539.434 127.832 538.854 128.141 538.088 128.141C537.592 128.141 537.135 128.004 536.717 127.73C536.303 127.457 535.98 127.076 535.75 126.588C535.523 126.096 535.41 125.531 535.41 124.895C535.41 124.273 535.514 123.711 535.721 123.207C535.928 122.699 536.238 122.311 536.652 122.041C537.066 121.771 537.529 121.637 538.041 121.637C538.416 121.637 538.75 121.717 539.043 121.877C539.336 122.033 539.574 122.238 539.758 122.492V119.41H540.807V128H539.828ZM536.494 124.895C536.494 125.691 536.662 126.287 536.998 126.682C537.334 127.076 537.73 127.273 538.188 127.273C538.648 127.273 539.039 127.086 539.359 126.711C539.684 126.332 539.846 125.756 539.846 124.982C539.846 124.131 539.682 123.506 539.354 123.107C539.025 122.709 538.621 122.51 538.141 122.51C537.672 122.51 537.279 122.701 536.963 123.084C536.65 123.467 536.494 124.07 536.494 124.895Z" fill="black"/>
<path d="M537.791 279V270.41H538.846V273.492C539.338 272.922 539.959 272.637 540.709 272.637C541.17 272.637 541.57 272.729 541.91 272.912C542.25 273.092 542.492 273.342 542.637 273.662C542.785 273.982 542.859 274.447 542.859 275.057V279H541.805V275.057C541.805 274.529 541.689 274.146 541.459 273.908C541.232 273.666 540.91 273.545 540.492 273.545C540.18 273.545 539.885 273.627 539.607 273.791C539.334 273.951 539.139 274.17 539.021 274.447C538.904 274.725 538.846 275.107 538.846 275.596V279H537.791Z" fill="black"/>
</svg>
