<svg width="367" height="255" viewBox="0 0 367 255" fill="none" xmlns="http://www.w3.org/2000/svg">
<mask id="path-1-inside-1_94_926" fill="white">
<path fill-rule="evenodd" clip-rule="evenodd" d="M285 47H233V97H285C298.807 97 310 85.8071 310 72C310 58.1929 298.807 47 285 47Z"/>
</mask>
<path fill-rule="evenodd" clip-rule="evenodd" d="M285 47H233V97H285C298.807 97 310 85.8071 310 72C310 58.1929 298.807 47 285 47Z" fill="#D9D9D9"/>
<path d="M233 47V45H231V47H233ZM233 97H231V99H233V97ZM233 49H285V45H233V49ZM235 97V47H231V97H235ZM285 95H233V99H285V95ZM308 72C308 84.7025 297.703 95 285 95V99C299.912 99 312 86.9117 312 72H308ZM285 49C297.703 49 308 59.2975 308 72H312C312 57.0883 299.912 45 285 45V49Z" fill="black" mask="url(#path-1-inside-1_94_926)"/>
<line x1="211" y1="57" x2="233" y2="57" stroke="black" stroke-width="2"/>
<line x1="211" y1="87" x2="233" y2="87" stroke="black" stroke-width="2"/>
<line x1="310" y1="72" x2="332" y2="72" stroke="black" stroke-width="2"/>
<path d="M220.852 50.2324C220.461 50.5645 220.084 50.7988 219.721 50.9355C219.361 51.0723 218.975 51.1406 218.561 51.1406C217.877 51.1406 217.352 50.9746 216.984 50.6426C216.617 50.3066 216.434 49.8789 216.434 49.3594C216.434 49.0547 216.502 48.7773 216.639 48.5273C216.779 48.2734 216.961 48.0703 217.184 47.918C217.41 47.7656 217.664 47.6504 217.945 47.5723C218.152 47.5176 218.465 47.4648 218.883 47.4141C219.734 47.3125 220.361 47.1914 220.764 47.0508C220.768 46.9062 220.77 46.8145 220.77 46.7754C220.77 46.3457 220.67 46.043 220.471 45.8672C220.201 45.6289 219.801 45.5098 219.27 45.5098C218.773 45.5098 218.406 45.5977 218.168 45.7734C217.934 45.9453 217.76 46.252 217.646 46.6934L216.615 46.5527C216.709 46.1113 216.863 45.7559 217.078 45.4863C217.293 45.2129 217.604 45.0039 218.01 44.8594C218.416 44.7109 218.887 44.6367 219.422 44.6367C219.953 44.6367 220.385 44.6992 220.717 44.8242C221.049 44.9492 221.293 45.1074 221.449 45.2988C221.605 45.4863 221.715 45.7246 221.777 46.0137C221.812 46.1934 221.83 46.5176 221.83 46.9863V48.3926C221.83 49.373 221.852 49.9941 221.895 50.2559C221.941 50.5137 222.031 50.7617 222.164 51H221.062C220.953 50.7812 220.883 50.5254 220.852 50.2324ZM220.764 47.877C220.381 48.0332 219.807 48.166 219.041 48.2754C218.607 48.3379 218.301 48.4082 218.121 48.4863C217.941 48.5645 217.803 48.6797 217.705 48.832C217.607 48.9805 217.559 49.1465 217.559 49.3301C217.559 49.6113 217.664 49.8457 217.875 50.0332C218.09 50.2207 218.402 50.3145 218.812 50.3145C219.219 50.3145 219.58 50.2266 219.896 50.0508C220.213 49.8711 220.445 49.627 220.594 49.3184C220.707 49.0801 220.764 48.7285 220.764 48.2637V47.877Z" fill="black"/>
<path d="M264.619 77H262.732L261.982 75.0488H258.549L257.84 77H256L259.346 68.4102H261.18L264.619 77ZM261.426 73.6016L260.242 70.4141L259.082 73.6016H261.426ZM271.193 77H269.547V73.8242C269.547 73.1523 269.512 72.7188 269.441 72.5234C269.371 72.3242 269.256 72.1699 269.096 72.0605C268.939 71.9512 268.75 71.8965 268.527 71.8965C268.242 71.8965 267.986 71.9746 267.76 72.1309C267.533 72.2871 267.377 72.4941 267.291 72.752C267.209 73.0098 267.168 73.4863 267.168 74.1816V77H265.521V70.7773H267.051V71.6914C267.594 70.9883 268.277 70.6367 269.102 70.6367C269.465 70.6367 269.797 70.7031 270.098 70.8359C270.398 70.9648 270.625 71.1309 270.777 71.334C270.934 71.5371 271.041 71.7676 271.1 72.0254C271.162 72.2832 271.193 72.6523 271.193 73.1328V77ZM278.576 77H277.047V76.0859C276.793 76.4414 276.492 76.707 276.145 76.8828C275.801 77.0547 275.453 77.1406 275.102 77.1406C274.387 77.1406 273.773 76.8535 273.262 76.2793C272.754 75.7012 272.5 74.8965 272.5 73.8652C272.5 72.8105 272.748 72.0098 273.244 71.4629C273.74 70.9121 274.367 70.6367 275.125 70.6367C275.82 70.6367 276.422 70.9258 276.93 71.5039V68.4102H278.576V77ZM274.182 73.7539C274.182 74.418 274.273 74.8984 274.457 75.1953C274.723 75.625 275.094 75.8398 275.57 75.8398C275.949 75.8398 276.271 75.6797 276.537 75.3594C276.803 75.0352 276.936 74.5527 276.936 73.9121C276.936 73.1973 276.807 72.6836 276.549 72.3711C276.291 72.0547 275.961 71.8965 275.559 71.8965C275.168 71.8965 274.84 72.0527 274.574 72.3652C274.312 72.6738 274.182 73.1367 274.182 73.7539Z" fill="black"/>
<path d="M217.764 83H216.785V74.4102H217.84V77.4746C218.285 76.916 218.854 76.6367 219.545 76.6367C219.928 76.6367 220.289 76.7148 220.629 76.8711C220.973 77.0234 221.254 77.2402 221.473 77.5215C221.695 77.7988 221.869 78.1348 221.994 78.5293C222.119 78.9238 222.182 79.3457 222.182 79.7949C222.182 80.8613 221.918 81.6855 221.391 82.2676C220.863 82.8496 220.23 83.1406 219.492 83.1406C218.758 83.1406 218.182 82.834 217.764 82.2207V83ZM217.752 79.8418C217.752 80.5879 217.854 81.127 218.057 81.459C218.389 82.002 218.838 82.2734 219.404 82.2734C219.865 82.2734 220.264 82.0742 220.6 81.6758C220.936 81.2734 221.104 80.6758 221.104 79.8828C221.104 79.0703 220.941 78.4707 220.617 78.084C220.297 77.6973 219.908 77.5039 219.451 77.5039C218.99 77.5039 218.592 77.7051 218.256 78.1074C217.92 78.5059 217.752 79.084 217.752 79.8418Z" fill="black"/>
<path d="M314.398 63.8887C314.398 62.7363 314.719 61.8828 315.359 61.3281C315.895 60.8672 316.547 60.6367 317.316 60.6367C318.172 60.6367 318.871 60.918 319.414 61.4805C319.957 62.0391 320.229 62.8125 320.229 63.8008C320.229 64.6016 320.107 65.2324 319.865 65.6934C319.627 66.1504 319.277 66.5059 318.816 66.7598C318.359 67.0137 317.859 67.1406 317.316 67.1406C316.445 67.1406 315.74 66.8613 315.201 66.3027C314.666 65.7441 314.398 64.9395 314.398 63.8887ZM315.482 63.8887C315.482 64.6855 315.656 65.2832 316.004 65.6816C316.352 66.0762 316.789 66.2734 317.316 66.2734C317.84 66.2734 318.275 66.0742 318.623 65.6758C318.971 65.2773 319.145 64.6699 319.145 63.8535C319.145 63.084 318.969 62.502 318.617 62.1074C318.27 61.709 317.836 61.5098 317.316 61.5098C316.789 61.5098 316.352 61.707 316.004 62.1016C315.656 62.4961 315.482 63.0918 315.482 63.8887ZM325.549 67V66.0859C325.064 66.7891 324.406 67.1406 323.574 67.1406C323.207 67.1406 322.863 67.0703 322.543 66.9297C322.227 66.7891 321.99 66.6133 321.834 66.4023C321.682 66.1875 321.574 65.9258 321.512 65.6172C321.469 65.4102 321.447 65.082 321.447 64.6328V60.7773H322.502V64.2285C322.502 64.7793 322.523 65.1504 322.566 65.3418C322.633 65.6191 322.773 65.8379 322.988 65.998C323.203 66.1543 323.469 66.2324 323.785 66.2324C324.102 66.2324 324.398 66.1523 324.676 65.9922C324.953 65.8281 325.148 65.6074 325.262 65.3301C325.379 65.0488 325.438 64.6426 325.438 64.1113V60.7773H326.492V67H325.549ZM330.453 66.0566L330.605 66.9883C330.309 67.0508 330.043 67.082 329.809 67.082C329.426 67.082 329.129 67.0215 328.918 66.9004C328.707 66.7793 328.559 66.6211 328.473 66.4258C328.387 66.2266 328.344 65.8105 328.344 65.1777V61.5977H327.57V60.7773H328.344V59.2363L329.393 58.6035V60.7773H330.453V61.5977H329.393V65.2363C329.393 65.5371 329.41 65.7305 329.445 65.8164C329.484 65.9023 329.545 65.9707 329.627 66.0215C329.713 66.0723 329.834 66.0977 329.99 66.0977C330.107 66.0977 330.262 66.084 330.453 66.0566Z" fill="black"/>
<path d="M31.8672 2.41016H35.0371C35.752 2.41016 36.2969 2.46484 36.6719 2.57422C37.1758 2.72266 37.6074 2.98633 37.9668 3.36523C38.3262 3.74414 38.5996 4.20898 38.7871 4.75977C38.9746 5.30664 39.0684 5.98242 39.0684 6.78711C39.0684 7.49414 38.9805 8.10352 38.8047 8.61523C38.5898 9.24023 38.2832 9.74609 37.8848 10.1328C37.584 10.4258 37.1777 10.6543 36.666 10.8184C36.2832 10.9395 35.7715 11 35.1309 11H31.8672V2.41016ZM33.6016 3.86328V9.55273H34.8965C35.3809 9.55273 35.7305 9.52539 35.9453 9.4707C36.2266 9.40039 36.459 9.28125 36.6426 9.11328C36.8301 8.94531 36.9824 8.66992 37.0996 8.28711C37.2168 7.90039 37.2754 7.375 37.2754 6.71094C37.2754 6.04688 37.2168 5.53711 37.0996 5.18164C36.9824 4.82617 36.8184 4.54883 36.6074 4.34961C36.3965 4.15039 36.1289 4.01562 35.8047 3.94531C35.5625 3.89063 35.0879 3.86328 34.3809 3.86328H33.6016ZM40.5215 11V2.41016H43.1172L44.6758 8.26953L46.2168 2.41016H48.8184V11H47.207V4.23828L45.502 11H43.832L42.1328 4.23828V11H40.5215ZM54.625 11V10.0684C54.3984 10.4004 54.0996 10.6621 53.7285 10.8535C53.3613 11.0449 52.9727 11.1406 52.5625 11.1406C52.1445 11.1406 51.7695 11.0488 51.4375 10.8652C51.1055 10.6816 50.8652 10.4238 50.7168 10.0918C50.5684 9.75977 50.4941 9.30078 50.4941 8.71484V4.77734H52.1406V7.63672C52.1406 8.51172 52.1699 9.04883 52.2285 9.24805C52.291 9.44336 52.4023 9.59961 52.5625 9.7168C52.7227 9.83008 52.9258 9.88672 53.1719 9.88672C53.4531 9.88672 53.7051 9.81055 53.9277 9.6582C54.1504 9.50195 54.3027 9.31055 54.3848 9.08398C54.4668 8.85352 54.5078 8.29297 54.5078 7.40234V4.77734H56.1543V11H54.625ZM57.0742 11L59.3184 7.79492L57.168 4.77734H59.1777L60.2793 6.48828L61.4395 4.77734H63.373L61.2637 7.72461L63.5664 11H61.5449L60.2793 9.07227L59.002 11H57.0742Z" fill="black"/>
<path d="M351.852 64.2324C351.461 64.5645 351.084 64.7988 350.721 64.9355C350.361 65.0723 349.975 65.1406 349.561 65.1406C348.877 65.1406 348.352 64.9746 347.984 64.6426C347.617 64.3066 347.434 63.8789 347.434 63.3594C347.434 63.0547 347.502 62.7773 347.639 62.5273C347.779 62.2734 347.961 62.0703 348.184 61.918C348.41 61.7656 348.664 61.6504 348.945 61.5723C349.152 61.5176 349.465 61.4648 349.883 61.4141C350.734 61.3125 351.361 61.1914 351.764 61.0508C351.768 60.9062 351.77 60.8145 351.77 60.7754C351.77 60.3457 351.67 60.043 351.471 59.8672C351.201 59.6289 350.801 59.5098 350.27 59.5098C349.773 59.5098 349.406 59.5977 349.168 59.7734C348.934 59.9453 348.76 60.252 348.646 60.6934L347.615 60.5527C347.709 60.1113 347.863 59.7559 348.078 59.4863C348.293 59.2129 348.604 59.0039 349.01 58.8594C349.416 58.7109 349.887 58.6367 350.422 58.6367C350.953 58.6367 351.385 58.6992 351.717 58.8242C352.049 58.9492 352.293 59.1074 352.449 59.2988C352.605 59.4863 352.715 59.7246 352.777 60.0137C352.812 60.1934 352.83 60.5176 352.83 60.9863V62.3926C352.83 63.373 352.852 63.9941 352.895 64.2559C352.941 64.5137 353.031 64.7617 353.164 65H352.062C351.953 64.7812 351.883 64.5254 351.852 64.2324ZM351.764 61.877C351.381 62.0332 350.807 62.166 350.041 62.2754C349.607 62.3379 349.301 62.4082 349.121 62.4863C348.941 62.5645 348.803 62.6797 348.705 62.832C348.607 62.9805 348.559 63.1465 348.559 63.3301C348.559 63.6113 348.664 63.8457 348.875 64.0332C349.09 64.2207 349.402 64.3145 349.812 64.3145C350.219 64.3145 350.58 64.2266 350.896 64.0508C351.213 63.8711 351.445 63.627 351.594 63.3184C351.707 63.0801 351.764 62.7285 351.764 62.2637V61.877Z" fill="black"/>
<path d="M348.764 209H347.785V200.41H348.84V203.475C349.285 202.916 349.854 202.637 350.545 202.637C350.928 202.637 351.289 202.715 351.629 202.871C351.973 203.023 352.254 203.24 352.473 203.521C352.695 203.799 352.869 204.135 352.994 204.529C353.119 204.924 353.182 205.346 353.182 205.795C353.182 206.861 352.918 207.686 352.391 208.268C351.863 208.85 351.23 209.141 350.492 209.141C349.758 209.141 349.182 208.834 348.764 208.221V209ZM348.752 205.842C348.752 206.588 348.854 207.127 349.057 207.459C349.389 208.002 349.838 208.273 350.404 208.273C350.865 208.273 351.264 208.074 351.6 207.676C351.936 207.273 352.104 206.676 352.104 205.883C352.104 205.07 351.941 204.471 351.617 204.084C351.297 203.697 350.908 203.504 350.451 203.504C349.99 203.504 349.592 203.705 349.256 204.107C348.92 204.506 348.752 205.084 348.752 205.842Z" fill="black"/>
<path d="M0.796875 43.623V42.4102H1.85156V43.623H0.796875ZM0.796875 51V44.7773H1.85156V51H0.796875ZM3.46289 51V44.7773H4.41211V45.6621C4.86914 44.9785 5.5293 44.6367 6.39258 44.6367C6.76758 44.6367 7.11133 44.7051 7.42383 44.8418C7.74023 44.9746 7.97656 45.1504 8.13281 45.3691C8.28906 45.5879 8.39844 45.8477 8.46094 46.1484C8.5 46.3438 8.51953 46.6855 8.51953 47.1738V51H7.46484V47.2148C7.46484 46.7852 7.42383 46.4648 7.3418 46.2539C7.25977 46.0391 7.11328 45.8691 6.90234 45.7441C6.69531 45.6152 6.45117 45.5508 6.16992 45.5508C5.7207 45.5508 5.33203 45.6934 5.00391 45.9785C4.67969 46.2637 4.51758 46.8047 4.51758 47.6016V51H3.46289Z" fill="black"/>
<path d="M1.36914 132.143L2.41211 131.979C2.4707 132.396 2.63281 132.717 2.89844 132.939C3.16797 133.162 3.54297 133.273 4.02344 133.273C4.50781 133.273 4.86719 133.176 5.10156 132.98C5.33594 132.781 5.45312 132.549 5.45312 132.283C5.45312 132.045 5.34961 131.857 5.14258 131.721C4.99805 131.627 4.63867 131.508 4.06445 131.363C3.29102 131.168 2.75391 131 2.45312 130.859C2.15625 130.715 1.92969 130.518 1.77344 130.268C1.62109 130.014 1.54492 129.734 1.54492 129.43C1.54492 129.152 1.60742 128.896 1.73242 128.662C1.86133 128.424 2.03516 128.227 2.25391 128.07C2.41797 127.949 2.64062 127.848 2.92188 127.766C3.20703 127.68 3.51172 127.637 3.83594 127.637C4.32422 127.637 4.75195 127.707 5.11914 127.848C5.49023 127.988 5.76367 128.18 5.93945 128.422C6.11523 128.66 6.23633 128.98 6.30273 129.383L5.27148 129.523C5.22461 129.203 5.08789 128.953 4.86133 128.773C4.63867 128.594 4.32227 128.504 3.91211 128.504C3.42773 128.504 3.08203 128.584 2.875 128.744C2.66797 128.904 2.56445 129.092 2.56445 129.307C2.56445 129.443 2.60742 129.566 2.69336 129.676C2.7793 129.789 2.91406 129.883 3.09766 129.957C3.20312 129.996 3.51367 130.086 4.0293 130.227C4.77539 130.426 5.29492 130.59 5.58789 130.719C5.88477 130.844 6.11719 131.027 6.28516 131.27C6.45312 131.512 6.53711 131.812 6.53711 132.172C6.53711 132.523 6.43359 132.855 6.22656 133.168C6.02344 133.477 5.72852 133.717 5.3418 133.889C4.95508 134.057 4.51758 134.141 4.0293 134.141C3.2207 134.141 2.60352 133.973 2.17773 133.637C1.75586 133.301 1.48633 132.803 1.36914 132.143ZM12.0508 131.996L13.1406 132.131C12.9688 132.768 12.6504 133.262 12.1855 133.613C11.7207 133.965 11.127 134.141 10.4043 134.141C9.49414 134.141 8.77148 133.861 8.23633 133.303C7.70508 132.74 7.43945 131.953 7.43945 130.941C7.43945 129.895 7.70898 129.082 8.24805 128.504C8.78711 127.926 9.48633 127.637 10.3457 127.637C11.1777 127.637 11.8574 127.92 12.3848 128.486C12.9121 129.053 13.1758 129.85 13.1758 130.877C13.1758 130.939 13.1738 131.033 13.1699 131.158H8.5293C8.56836 131.842 8.76172 132.365 9.10938 132.729C9.45703 133.092 9.89062 133.273 10.4102 133.273C10.7969 133.273 11.127 133.172 11.4004 132.969C11.6738 132.766 11.8906 132.441 12.0508 131.996ZM8.58789 130.291H12.0625C12.0156 129.768 11.8828 129.375 11.6641 129.113C11.3281 128.707 10.8926 128.504 10.3574 128.504C9.87305 128.504 9.46484 128.666 9.13281 128.99C8.80469 129.314 8.62305 129.748 8.58789 130.291ZM14.4473 134V125.41H15.502V134H14.4473Z" fill="black"/>
<line x1="1" y1="57" x2="211" y2="57" stroke="#FF6B00" stroke-width="2"/>
<line x1="332" y1="72" x2="367" y2="72" stroke="#FF6B00" stroke-width="2"/>
<line x1="332" y1="216" x2="367" y2="216" stroke="#FF6B00" stroke-width="2"/>
<line x1="55" y1="201" x2="211" y2="201" stroke="#FF6B00" stroke-width="2"/>
<line x1="40" y1="231" x2="211" y2="231" stroke="#FF6B00" stroke-width="2"/>
<line x1="1" y1="139" x2="63" y2="139" stroke="#FF6B00" stroke-width="2"/>
<line x1="210" y1="86" x2="210" y2="140" stroke="#FF6B00" stroke-width="2"/>
<line x1="169" y1="138.8" x2="209" y2="138.8" stroke="black" stroke-width="2.4"/>
<path d="M70.7969 123.623V122.41H71.8516V123.623H70.7969ZM70.7969 131V124.777H71.8516V131H70.7969ZM73.4629 131V124.777H74.4121V125.662C74.8691 124.979 75.5293 124.637 76.3926 124.637C76.7676 124.637 77.1113 124.705 77.4238 124.842C77.7402 124.975 77.9766 125.15 78.1328 125.369C78.2891 125.588 78.3984 125.848 78.4609 126.148C78.5 126.344 78.5195 126.686 78.5195 127.174V131H77.4648V127.215C77.4648 126.785 77.4238 126.465 77.3418 126.254C77.2598 126.039 77.1133 125.869 76.9023 125.744C76.6953 125.615 76.4512 125.551 76.1699 125.551C75.7207 125.551 75.332 125.693 75.0039 125.979C74.6797 126.264 74.5176 126.805 74.5176 127.602V131H73.4629Z" fill="black"/>
<line x1="63" y1="138.8" x2="110" y2="138.8" stroke="black" stroke-width="2.4"/>
<path d="M190.398 125.889C190.398 124.736 190.719 123.883 191.359 123.328C191.895 122.867 192.547 122.637 193.316 122.637C194.172 122.637 194.871 122.918 195.414 123.48C195.957 124.039 196.229 124.812 196.229 125.801C196.229 126.602 196.107 127.232 195.865 127.693C195.627 128.15 195.277 128.506 194.816 128.76C194.359 129.014 193.859 129.141 193.316 129.141C192.445 129.141 191.74 128.861 191.201 128.303C190.666 127.744 190.398 126.939 190.398 125.889ZM191.482 125.889C191.482 126.686 191.656 127.283 192.004 127.682C192.352 128.076 192.789 128.273 193.316 128.273C193.84 128.273 194.275 128.074 194.623 127.676C194.971 127.277 195.145 126.67 195.145 125.854C195.145 125.084 194.969 124.502 194.617 124.107C194.27 123.709 193.836 123.51 193.316 123.51C192.789 123.51 192.352 123.707 192.004 124.102C191.656 124.496 191.482 125.092 191.482 125.889ZM201.549 129V128.086C201.064 128.789 200.406 129.141 199.574 129.141C199.207 129.141 198.863 129.07 198.543 128.93C198.227 128.789 197.99 128.613 197.834 128.402C197.682 128.188 197.574 127.926 197.512 127.617C197.469 127.41 197.447 127.082 197.447 126.633V122.777H198.502V126.229C198.502 126.779 198.523 127.15 198.566 127.342C198.633 127.619 198.773 127.838 198.988 127.998C199.203 128.154 199.469 128.232 199.785 128.232C200.102 128.232 200.398 128.152 200.676 127.992C200.953 127.828 201.148 127.607 201.262 127.33C201.379 127.049 201.438 126.643 201.438 126.111V122.777H202.492V129H201.549ZM206.453 128.057L206.605 128.988C206.309 129.051 206.043 129.082 205.809 129.082C205.426 129.082 205.129 129.021 204.918 128.9C204.707 128.779 204.559 128.621 204.473 128.426C204.387 128.227 204.344 127.811 204.344 127.178V123.598H203.57V122.777H204.344V121.236L205.393 120.604V122.777H206.453V123.598H205.393V127.236C205.393 127.537 205.41 127.73 205.445 127.816C205.484 127.902 205.545 127.971 205.627 128.021C205.713 128.072 205.834 128.098 205.99 128.098C206.107 128.098 206.262 128.084 206.453 128.057Z" fill="black"/>
<path d="M110.4 108.078L164.4 139.255L110.4 170.432L110.4 108.078Z" fill="#D9D9D9" stroke="black" stroke-width="2.4"/>
<circle cx="171.4" cy="139.255" r="6" fill="#D9D9D9" stroke="black" stroke-width="2.4"/>
<path d="M113.891 142.855V134.266H115.578L119.094 140.002V134.266H120.705V142.855H118.965L115.502 137.254V142.855H113.891ZM122.152 139.656C122.152 139.109 122.287 138.58 122.557 138.068C122.826 137.557 123.207 137.166 123.699 136.896C124.195 136.627 124.748 136.492 125.357 136.492C126.299 136.492 127.07 136.799 127.672 137.412C128.273 138.021 128.574 138.793 128.574 139.726C128.574 140.668 128.27 141.449 127.66 142.07C127.055 142.687 126.291 142.996 125.369 142.996C124.799 142.996 124.254 142.867 123.734 142.609C123.219 142.351 122.826 141.975 122.557 141.478C122.287 140.978 122.152 140.371 122.152 139.656ZM123.84 139.744C123.84 140.361 123.986 140.834 124.279 141.162C124.572 141.49 124.934 141.654 125.363 141.654C125.793 141.654 126.152 141.49 126.441 141.162C126.734 140.834 126.881 140.357 126.881 139.732C126.881 139.123 126.734 138.654 126.441 138.326C126.152 137.998 125.793 137.834 125.363 137.834C124.934 137.834 124.572 137.998 124.279 138.326C123.986 138.654 123.84 139.127 123.84 139.744ZM132.723 136.633V137.945H131.598V140.453C131.598 140.961 131.607 141.258 131.627 141.344C131.65 141.426 131.699 141.494 131.773 141.549C131.852 141.603 131.945 141.631 132.055 141.631C132.207 141.631 132.428 141.578 132.717 141.473L132.857 142.75C132.475 142.914 132.041 142.996 131.557 142.996C131.26 142.996 130.992 142.947 130.754 142.85C130.516 142.748 130.34 142.619 130.227 142.463C130.117 142.303 130.041 142.088 129.998 141.818C129.963 141.627 129.945 141.24 129.945 140.658V137.945H129.189V136.633H129.945V135.396L131.598 134.435V136.633H132.723Z" fill="black"/>
<path d="M182.398 151.889C182.398 150.736 182.719 149.883 183.359 149.328C183.895 148.867 184.547 148.637 185.316 148.637C186.172 148.637 186.871 148.918 187.414 149.48C187.957 150.039 188.229 150.812 188.229 151.801C188.229 152.602 188.107 153.232 187.865 153.693C187.627 154.15 187.277 154.506 186.816 154.76C186.359 155.014 185.859 155.141 185.316 155.141C184.445 155.141 183.74 154.861 183.201 154.303C182.666 153.744 182.398 152.939 182.398 151.889ZM183.482 151.889C183.482 152.686 183.656 153.283 184.004 153.682C184.352 154.076 184.789 154.273 185.316 154.273C185.84 154.273 186.275 154.074 186.623 153.676C186.971 153.277 187.145 152.67 187.145 151.854C187.145 151.084 186.969 150.502 186.617 150.107C186.27 149.709 185.836 149.51 185.316 149.51C184.789 149.51 184.352 149.707 184.004 150.102C183.656 150.496 183.482 151.092 183.482 151.889ZM193.15 155H192.096V148.279C191.842 148.521 191.508 148.764 191.094 149.006C190.684 149.248 190.314 149.43 189.986 149.551V148.531C190.576 148.254 191.092 147.918 191.533 147.523C191.975 147.129 192.287 146.746 192.471 146.375H193.15V155Z" fill="black"/>
<mask id="path-30-inside-2_94_926" fill="white">
<path fill-rule="evenodd" clip-rule="evenodd" d="M285 191H233V241H285C298.807 241 310 229.807 310 216C310 202.193 298.807 191 285 191Z"/>
</mask>
<path fill-rule="evenodd" clip-rule="evenodd" d="M285 191H233V241H285C298.807 241 310 229.807 310 216C310 202.193 298.807 191 285 191Z" fill="#D9D9D9"/>
<path d="M233 191V189H231V191H233ZM233 241H231V243H233V241ZM233 193H285V189H233V193ZM235 241V191H231V241H235ZM285 239H233V243H285V239ZM308 216C308 228.703 297.703 239 285 239V243C299.912 243 312 230.912 312 216H308ZM285 193C297.703 193 308 203.297 308 216H312C312 201.088 299.912 189 285 189V193Z" fill="black" mask="url(#path-30-inside-2_94_926)"/>
<line x1="211" y1="201" x2="233" y2="201" stroke="black" stroke-width="2"/>
<line x1="211" y1="231" x2="233" y2="231" stroke="black" stroke-width="2"/>
<line x1="310" y1="216" x2="332" y2="216" stroke="black" stroke-width="2"/>
<path d="M220.852 194.232C220.461 194.564 220.084 194.799 219.721 194.936C219.361 195.072 218.975 195.141 218.561 195.141C217.877 195.141 217.352 194.975 216.984 194.643C216.617 194.307 216.434 193.879 216.434 193.359C216.434 193.055 216.502 192.777 216.639 192.527C216.779 192.273 216.961 192.07 217.184 191.918C217.41 191.766 217.664 191.65 217.945 191.572C218.152 191.518 218.465 191.465 218.883 191.414C219.734 191.312 220.361 191.191 220.764 191.051C220.768 190.906 220.77 190.814 220.77 190.775C220.77 190.346 220.67 190.043 220.471 189.867C220.201 189.629 219.801 189.51 219.27 189.51C218.773 189.51 218.406 189.598 218.168 189.773C217.934 189.945 217.76 190.252 217.646 190.693L216.615 190.553C216.709 190.111 216.863 189.756 217.078 189.486C217.293 189.213 217.604 189.004 218.01 188.859C218.416 188.711 218.887 188.637 219.422 188.637C219.953 188.637 220.385 188.699 220.717 188.824C221.049 188.949 221.293 189.107 221.449 189.299C221.605 189.486 221.715 189.725 221.777 190.014C221.812 190.193 221.83 190.518 221.83 190.986V192.393C221.83 193.373 221.852 193.994 221.895 194.256C221.941 194.514 222.031 194.762 222.164 195H221.062C220.953 194.781 220.883 194.525 220.852 194.232ZM220.764 191.877C220.381 192.033 219.807 192.166 219.041 192.275C218.607 192.338 218.301 192.408 218.121 192.486C217.941 192.564 217.803 192.68 217.705 192.832C217.607 192.98 217.559 193.146 217.559 193.33C217.559 193.611 217.664 193.846 217.875 194.033C218.09 194.221 218.402 194.314 218.812 194.314C219.219 194.314 219.58 194.227 219.896 194.051C220.213 193.871 220.445 193.627 220.594 193.318C220.707 193.08 220.764 192.729 220.764 192.264V191.877Z" fill="black"/>
<path d="M264.619 221H262.732L261.982 219.049H258.549L257.84 221H256L259.346 212.41H261.18L264.619 221ZM261.426 217.602L260.242 214.414L259.082 217.602H261.426ZM271.193 221H269.547V217.824C269.547 217.152 269.512 216.719 269.441 216.523C269.371 216.324 269.256 216.17 269.096 216.061C268.939 215.951 268.75 215.896 268.527 215.896C268.242 215.896 267.986 215.975 267.76 216.131C267.533 216.287 267.377 216.494 267.291 216.752C267.209 217.01 267.168 217.486 267.168 218.182V221H265.521V214.777H267.051V215.691C267.594 214.988 268.277 214.637 269.102 214.637C269.465 214.637 269.797 214.703 270.098 214.836C270.398 214.965 270.625 215.131 270.777 215.334C270.934 215.537 271.041 215.768 271.1 216.025C271.162 216.283 271.193 216.652 271.193 217.133V221ZM278.576 221H277.047V220.086C276.793 220.441 276.492 220.707 276.145 220.883C275.801 221.055 275.453 221.141 275.102 221.141C274.387 221.141 273.773 220.854 273.262 220.279C272.754 219.701 272.5 218.896 272.5 217.865C272.5 216.811 272.748 216.01 273.244 215.463C273.74 214.912 274.367 214.637 275.125 214.637C275.82 214.637 276.422 214.926 276.93 215.504V212.41H278.576V221ZM274.182 217.754C274.182 218.418 274.273 218.898 274.457 219.195C274.723 219.625 275.094 219.84 275.57 219.84C275.949 219.84 276.271 219.68 276.537 219.359C276.803 219.035 276.936 218.553 276.936 217.912C276.936 217.197 276.807 216.684 276.549 216.371C276.291 216.055 275.961 215.896 275.559 215.896C275.168 215.896 274.84 216.053 274.574 216.365C274.312 216.674 274.182 217.137 274.182 217.754Z" fill="black"/>
<path d="M217.764 227H216.785V218.41H217.84V221.475C218.285 220.916 218.854 220.637 219.545 220.637C219.928 220.637 220.289 220.715 220.629 220.871C220.973 221.023 221.254 221.24 221.473 221.521C221.695 221.799 221.869 222.135 221.994 222.529C222.119 222.924 222.182 223.346 222.182 223.795C222.182 224.861 221.918 225.686 221.391 226.268C220.863 226.85 220.23 227.141 219.492 227.141C218.758 227.141 218.182 226.834 217.764 226.221V227ZM217.752 223.842C217.752 224.588 217.854 225.127 218.057 225.459C218.389 226.002 218.838 226.273 219.404 226.273C219.865 226.273 220.264 226.074 220.6 225.676C220.936 225.273 221.104 224.676 221.104 223.883C221.104 223.07 220.941 222.471 220.617 222.084C220.297 221.697 219.908 221.504 219.451 221.504C218.99 221.504 218.592 221.705 218.256 222.107C217.92 222.506 217.752 223.084 217.752 223.842Z" fill="black"/>
<path d="M314.398 207.889C314.398 206.736 314.719 205.883 315.359 205.328C315.895 204.867 316.547 204.637 317.316 204.637C318.172 204.637 318.871 204.918 319.414 205.48C319.957 206.039 320.229 206.812 320.229 207.801C320.229 208.602 320.107 209.232 319.865 209.693C319.627 210.15 319.277 210.506 318.816 210.76C318.359 211.014 317.859 211.141 317.316 211.141C316.445 211.141 315.74 210.861 315.201 210.303C314.666 209.744 314.398 208.939 314.398 207.889ZM315.482 207.889C315.482 208.686 315.656 209.283 316.004 209.682C316.352 210.076 316.789 210.273 317.316 210.273C317.84 210.273 318.275 210.074 318.623 209.676C318.971 209.277 319.145 208.67 319.145 207.854C319.145 207.084 318.969 206.502 318.617 206.107C318.27 205.709 317.836 205.51 317.316 205.51C316.789 205.51 316.352 205.707 316.004 206.102C315.656 206.496 315.482 207.092 315.482 207.889ZM325.549 211V210.086C325.064 210.789 324.406 211.141 323.574 211.141C323.207 211.141 322.863 211.07 322.543 210.93C322.227 210.789 321.99 210.613 321.834 210.402C321.682 210.188 321.574 209.926 321.512 209.617C321.469 209.41 321.447 209.082 321.447 208.633V204.777H322.502V208.229C322.502 208.779 322.523 209.15 322.566 209.342C322.633 209.619 322.773 209.838 322.988 209.998C323.203 210.154 323.469 210.232 323.785 210.232C324.102 210.232 324.398 210.152 324.676 209.992C324.953 209.828 325.148 209.607 325.262 209.33C325.379 209.049 325.438 208.643 325.438 208.111V204.777H326.492V211H325.549ZM330.453 210.057L330.605 210.988C330.309 211.051 330.043 211.082 329.809 211.082C329.426 211.082 329.129 211.021 328.918 210.9C328.707 210.779 328.559 210.621 328.473 210.426C328.387 210.227 328.344 209.811 328.344 209.178V205.598H327.57V204.777H328.344V203.236L329.393 202.604V204.777H330.453V205.598H329.393V209.236C329.393 209.537 329.41 209.73 329.445 209.816C329.484 209.902 329.545 209.971 329.627 210.021C329.713 210.072 329.834 210.098 329.99 210.098C330.107 210.098 330.262 210.084 330.453 210.057Z" fill="black"/>
<line x1="55" y1="202" x2="55" y2="57" stroke="#FF6B00" stroke-width="2" stroke-dasharray="4 4"/>
<line x1="39" y1="232" x2="39" y2="139" stroke="#FF6B00" stroke-width="2"/>
<circle cx="55" cy="57" r="5" fill="#FF6B00"/>
<circle cx="39" cy="139" r="5" fill="#FF6B00"/>
<rect x="27.5" y="24.5" width="310" height="230" stroke="black" stroke-dasharray="2 2"/>
</svg>
