<svg width="458" height="246" viewBox="0 0 458 246" fill="none" xmlns="http://www.w3.org/2000/svg">
<path d="M189 134L179 128.226V139.774L189 134ZM153 135H180V133H153V135Z" fill="black"/>
<path d="M189 176.287L179 170.514V182.061L189 176.287ZM153 177.287H180V175.287H153V177.287Z" fill="black"/>
<path d="M162.852 127.232C162.461 127.564 162.084 127.799 161.721 127.936C161.361 128.072 160.975 128.141 160.561 128.141C159.877 128.141 159.352 127.975 158.984 127.643C158.617 127.307 158.434 126.879 158.434 126.359C158.434 126.055 158.502 125.777 158.639 125.527C158.779 125.273 158.961 125.07 159.184 124.918C159.41 124.766 159.664 124.65 159.945 124.572C160.152 124.518 160.465 124.465 160.883 124.414C161.734 124.312 162.361 124.191 162.764 124.051C162.768 123.906 162.77 123.814 162.77 123.775C162.77 123.346 162.67 123.043 162.471 122.867C162.201 122.629 161.801 122.51 161.27 122.51C160.773 122.51 160.406 122.598 160.168 122.773C159.934 122.945 159.76 123.252 159.646 123.693L158.615 123.553C158.709 123.111 158.863 122.756 159.078 122.486C159.293 122.213 159.604 122.004 160.01 121.859C160.416 121.711 160.887 121.637 161.422 121.637C161.953 121.637 162.385 121.699 162.717 121.824C163.049 121.949 163.293 122.107 163.449 122.299C163.605 122.486 163.715 122.725 163.777 123.014C163.812 123.193 163.83 123.518 163.83 123.986V125.393C163.83 126.373 163.852 126.994 163.895 127.256C163.941 127.514 164.031 127.762 164.164 128H163.062C162.953 127.781 162.883 127.525 162.852 127.232ZM162.764 124.877C162.381 125.033 161.807 125.166 161.041 125.275C160.607 125.338 160.301 125.408 160.121 125.486C159.941 125.564 159.803 125.68 159.705 125.832C159.607 125.98 159.559 126.146 159.559 126.33C159.559 126.611 159.664 126.846 159.875 127.033C160.09 127.221 160.402 127.314 160.812 127.314C161.219 127.314 161.58 127.227 161.896 127.051C162.213 126.871 162.445 126.627 162.594 126.318C162.707 126.08 162.764 125.729 162.764 125.264V124.877Z" fill="black"/>
<path d="M163.398 142.889C163.398 141.736 163.719 140.883 164.359 140.328C164.895 139.867 165.547 139.637 166.316 139.637C167.172 139.637 167.871 139.918 168.414 140.48C168.957 141.039 169.229 141.812 169.229 142.801C169.229 143.602 169.107 144.232 168.865 144.693C168.627 145.15 168.277 145.506 167.816 145.76C167.359 146.014 166.859 146.141 166.316 146.141C165.445 146.141 164.74 145.861 164.201 145.303C163.666 144.744 163.398 143.939 163.398 142.889ZM164.482 142.889C164.482 143.686 164.656 144.283 165.004 144.682C165.352 145.076 165.789 145.273 166.316 145.273C166.84 145.273 167.275 145.074 167.623 144.676C167.971 144.277 168.145 143.67 168.145 142.854C168.145 142.084 167.969 141.502 167.617 141.107C167.27 140.709 166.836 140.51 166.316 140.51C165.789 140.51 165.352 140.707 165.004 141.102C164.656 141.496 164.482 142.092 164.482 142.889ZM174.15 146H173.096V139.279C172.842 139.521 172.508 139.764 172.094 140.006C171.684 140.248 171.314 140.43 170.986 140.551V139.531C171.576 139.254 172.092 138.918 172.533 138.523C172.975 138.129 173.287 137.746 173.471 137.375H174.15V146Z" fill="black"/>
<path d="M164.398 189.889C164.398 188.736 164.719 187.883 165.359 187.328C165.895 186.867 166.547 186.637 167.316 186.637C168.172 186.637 168.871 186.918 169.414 187.48C169.957 188.039 170.229 188.812 170.229 189.801C170.229 190.602 170.107 191.232 169.865 191.693C169.627 192.15 169.277 192.506 168.816 192.76C168.359 193.014 167.859 193.141 167.316 193.141C166.445 193.141 165.74 192.861 165.201 192.303C164.666 191.744 164.398 190.939 164.398 189.889ZM165.482 189.889C165.482 190.686 165.656 191.283 166.004 191.682C166.352 192.076 166.789 192.273 167.316 192.273C167.84 192.273 168.275 192.074 168.623 191.676C168.971 191.277 169.145 190.67 169.145 189.854C169.145 189.084 168.969 188.502 168.617 188.107C168.27 187.709 167.836 187.51 167.316 187.51C166.789 187.51 166.352 187.707 166.004 188.102C165.656 188.496 165.482 189.092 165.482 189.889ZM176.721 191.986V193H171.043C171.035 192.746 171.076 192.502 171.166 192.268C171.311 191.881 171.541 191.5 171.857 191.125C172.178 190.75 172.639 190.316 173.24 189.824C174.174 189.059 174.805 188.453 175.133 188.008C175.461 187.559 175.625 187.135 175.625 186.736C175.625 186.318 175.475 185.967 175.174 185.682C174.877 185.393 174.488 185.248 174.008 185.248C173.5 185.248 173.094 185.4 172.789 185.705C172.484 186.01 172.33 186.432 172.326 186.971L171.242 186.859C171.316 186.051 171.596 185.436 172.08 185.014C172.564 184.588 173.215 184.375 174.031 184.375C174.855 184.375 175.508 184.604 175.988 185.061C176.469 185.518 176.709 186.084 176.709 186.76C176.709 187.104 176.639 187.441 176.498 187.773C176.357 188.105 176.123 188.455 175.795 188.822C175.471 189.189 174.93 189.693 174.172 190.334C173.539 190.865 173.133 191.227 172.953 191.418C172.773 191.605 172.625 191.795 172.508 191.986H176.721Z" fill="black"/>
<path d="M119 176L113.226 186L124.774 186L119 176ZM120 212L120 185L118 185L118 212L120 212Z" fill="black"/>
<path d="M99.3691 199.855L100.412 199.691C100.471 200.109 100.633 200.43 100.898 200.652C101.168 200.875 101.543 200.986 102.023 200.986C102.508 200.986 102.867 200.889 103.102 200.693C103.336 200.494 103.453 200.262 103.453 199.996C103.453 199.758 103.35 199.57 103.143 199.433C102.998 199.34 102.639 199.221 102.064 199.076C101.291 198.881 100.754 198.713 100.453 198.572C100.156 198.428 99.9297 198.23 99.7734 197.98C99.6211 197.726 99.5449 197.447 99.5449 197.142C99.5449 196.865 99.6074 196.609 99.7324 196.375C99.8613 196.137 100.035 195.939 100.254 195.783C100.418 195.662 100.641 195.56 100.922 195.478C101.207 195.392 101.512 195.349 101.836 195.349C102.324 195.349 102.752 195.42 103.119 195.56C103.49 195.701 103.764 195.892 103.939 196.135C104.115 196.373 104.236 196.693 104.303 197.096L103.271 197.236C103.225 196.916 103.088 196.666 102.861 196.486C102.639 196.307 102.322 196.217 101.912 196.217C101.428 196.217 101.082 196.297 100.875 196.457C100.668 196.617 100.564 196.805 100.564 197.019C100.564 197.156 100.607 197.279 100.693 197.389C100.779 197.502 100.914 197.596 101.098 197.67C101.203 197.709 101.514 197.799 102.029 197.939C102.775 198.139 103.295 198.303 103.588 198.432C103.885 198.557 104.117 198.74 104.285 198.982C104.453 199.224 104.537 199.525 104.537 199.885C104.537 200.236 104.434 200.568 104.227 200.881C104.023 201.189 103.729 201.43 103.342 201.601C102.955 201.769 102.518 201.853 102.029 201.853C101.221 201.853 100.604 201.685 100.178 201.349C99.7559 201.014 99.4863 200.516 99.3691 199.855ZM110.051 199.709L111.141 199.844C110.969 200.48 110.65 200.974 110.186 201.326C109.721 201.678 109.127 201.853 108.404 201.853C107.494 201.853 106.771 201.574 106.236 201.016C105.705 200.453 105.439 199.666 105.439 198.654C105.439 197.607 105.709 196.795 106.248 196.217C106.787 195.639 107.486 195.349 108.346 195.349C109.178 195.349 109.857 195.633 110.385 196.199C110.912 196.766 111.176 197.562 111.176 198.59C111.176 198.652 111.174 198.746 111.17 198.871H106.529C106.568 199.555 106.762 200.078 107.109 200.441C107.457 200.805 107.891 200.986 108.41 200.986C108.797 200.986 109.127 200.885 109.4 200.682C109.674 200.478 109.891 200.154 110.051 199.709ZM106.588 198.004H110.062C110.016 197.48 109.883 197.088 109.664 196.826C109.328 196.42 108.893 196.217 108.357 196.217C107.873 196.217 107.465 196.379 107.133 196.703C106.805 197.027 106.623 197.461 106.588 198.004ZM112.447 201.713V193.123H113.502V201.713H112.447Z" fill="black"/>
<path d="M159.764 170.287H158.785V161.697H159.84V164.762C160.285 164.203 160.854 163.924 161.545 163.924C161.928 163.924 162.289 164.002 162.629 164.158C162.973 164.311 163.254 164.527 163.473 164.809C163.695 165.086 163.869 165.422 163.994 165.817C164.119 166.211 164.182 166.633 164.182 167.082C164.182 168.149 163.918 168.973 163.391 169.555C162.863 170.137 162.23 170.428 161.492 170.428C160.758 170.428 160.182 170.121 159.764 169.508V170.287ZM159.752 167.129C159.752 167.875 159.854 168.414 160.057 168.746C160.389 169.289 160.838 169.561 161.404 169.561C161.865 169.561 162.264 169.361 162.6 168.963C162.936 168.561 163.104 167.963 163.104 167.17C163.104 166.358 162.941 165.758 162.617 165.371C162.297 164.984 161.908 164.791 161.451 164.791C160.99 164.791 160.592 164.992 160.256 165.395C159.92 165.793 159.752 166.371 159.752 167.129Z" fill="black"/>
<path d="M82 154.287L72 148.514L72 160.061L82 154.287ZM44 155.287L73 155.287L73 153.287L44 153.287L44 155.287Z" fill="black"/>
<path d="M48.7969 141.623V140.41H49.8516V141.623H48.7969ZM48.7969 149V142.777H49.8516V149H48.7969ZM51.4629 149V142.777H52.4121V143.662C52.8691 142.979 53.5293 142.637 54.3926 142.637C54.7676 142.637 55.1113 142.705 55.4238 142.842C55.7402 142.975 55.9766 143.15 56.1328 143.369C56.2891 143.588 56.3984 143.848 56.4609 144.148C56.5 144.344 56.5195 144.686 56.5195 145.174V149H55.4648V145.215C55.4648 144.785 55.4238 144.465 55.3418 144.254C55.2598 144.039 55.1133 143.869 54.9023 143.744C54.6953 143.615 54.4512 143.551 54.1699 143.551C53.7207 143.551 53.332 143.693 53.0039 143.979C52.6797 144.264 52.5176 144.805 52.5176 145.602V149H51.4629Z" fill="black"/>
<path d="M152 193.837L83 154L152 114.163L152 193.837Z" fill="#D9D9D9" stroke="black" stroke-width="2"/>
<path d="M112.926 158V149.41H115.885C116.553 149.41 117.062 149.451 117.414 149.533C117.906 149.646 118.326 149.852 118.674 150.148C119.127 150.531 119.465 151.021 119.688 151.619C119.914 152.213 120.027 152.893 120.027 153.658C120.027 154.311 119.951 154.889 119.799 155.393C119.646 155.896 119.451 156.314 119.213 156.646C118.975 156.975 118.713 157.234 118.428 157.426C118.146 157.613 117.805 157.756 117.402 157.854C117.004 157.951 116.545 158 116.025 158H112.926ZM114.062 156.986H115.896C116.463 156.986 116.906 156.934 117.227 156.828C117.551 156.723 117.809 156.574 118 156.383C118.27 156.113 118.479 155.752 118.627 155.299C118.779 154.842 118.855 154.289 118.855 153.641C118.855 152.742 118.707 152.053 118.41 151.572C118.117 151.088 117.76 150.764 117.338 150.6C117.033 150.482 116.543 150.424 115.867 150.424H114.062V156.986ZM121.562 158V149.41H123.273L125.307 155.492C125.494 156.059 125.631 156.482 125.717 156.764C125.814 156.451 125.967 155.992 126.174 155.387L128.23 149.41H129.76V158H128.664V150.811L126.168 158H125.143L122.658 150.688V158H121.562ZM135.537 158V157.086C135.053 157.789 134.395 158.141 133.562 158.141C133.195 158.141 132.852 158.07 132.531 157.93C132.215 157.789 131.979 157.613 131.822 157.402C131.67 157.188 131.562 156.926 131.5 156.617C131.457 156.41 131.436 156.082 131.436 155.633V151.777H132.49V155.229C132.49 155.779 132.512 156.15 132.555 156.342C132.621 156.619 132.762 156.838 132.977 156.998C133.191 157.154 133.457 157.232 133.773 157.232C134.09 157.232 134.387 157.152 134.664 156.992C134.941 156.828 135.137 156.607 135.25 156.33C135.367 156.049 135.426 155.643 135.426 155.111V151.777H136.48V158H135.537ZM137.436 158L139.709 154.766L137.605 151.777H138.924L139.879 153.236C140.059 153.514 140.203 153.746 140.312 153.934C140.484 153.676 140.643 153.447 140.787 153.248L141.836 151.777H143.096L140.945 154.707L143.26 158H141.965L140.688 156.066L140.348 155.545L138.713 158H137.436Z" fill="black"/>
<path d="M334 50L324 44.2265V55.7735L334 50ZM298 51H325V49H298V51Z" fill="black"/>
<path d="M334 92.2872L324 86.5137V98.0607L334 92.2872ZM298 93.2872H325V91.2872H298V93.2872Z" fill="black"/>
<path d="M307.852 43.2324C307.461 43.5645 307.084 43.7988 306.721 43.9355C306.361 44.0723 305.975 44.1406 305.561 44.1406C304.877 44.1406 304.352 43.9746 303.984 43.6426C303.617 43.3066 303.434 42.8789 303.434 42.3594C303.434 42.0547 303.502 41.7773 303.639 41.5273C303.779 41.2734 303.961 41.0703 304.184 40.918C304.41 40.7656 304.664 40.6504 304.945 40.5723C305.152 40.5176 305.465 40.4648 305.883 40.4141C306.734 40.3125 307.361 40.1914 307.764 40.0508C307.768 39.9062 307.77 39.8145 307.77 39.7754C307.77 39.3457 307.67 39.043 307.471 38.8672C307.201 38.6289 306.801 38.5098 306.27 38.5098C305.773 38.5098 305.406 38.5977 305.168 38.7734C304.934 38.9453 304.76 39.252 304.646 39.6934L303.615 39.5527C303.709 39.1113 303.863 38.7559 304.078 38.4863C304.293 38.2129 304.604 38.0039 305.01 37.8594C305.416 37.7109 305.887 37.6367 306.422 37.6367C306.953 37.6367 307.385 37.6992 307.717 37.8242C308.049 37.9492 308.293 38.1074 308.449 38.2988C308.605 38.4863 308.715 38.7246 308.777 39.0137C308.812 39.1934 308.83 39.5176 308.83 39.9863V41.3926C308.83 42.373 308.852 42.9941 308.895 43.2559C308.941 43.5137 309.031 43.7617 309.164 44H308.062C307.953 43.7812 307.883 43.5254 307.852 43.2324ZM307.764 40.877C307.381 41.0332 306.807 41.166 306.041 41.2754C305.607 41.3379 305.301 41.4082 305.121 41.4863C304.941 41.5645 304.803 41.6797 304.705 41.832C304.607 41.9805 304.559 42.1465 304.559 42.3301C304.559 42.6113 304.664 42.8457 304.875 43.0332C305.09 43.2207 305.402 43.3145 305.812 43.3145C306.219 43.3145 306.58 43.2266 306.896 43.0508C307.213 42.8711 307.445 42.627 307.594 42.3184C307.707 42.0801 307.764 41.7285 307.764 41.2637V40.877Z" fill="black"/>
<path d="M264 92L258.226 102L269.774 102L264 92ZM265 128L265 101L263 101L263 128L265 128Z" fill="black"/>
<path d="M244.369 115.855L245.412 115.691C245.471 116.109 245.633 116.43 245.898 116.652C246.168 116.875 246.543 116.986 247.023 116.986C247.508 116.986 247.867 116.889 248.102 116.693C248.336 116.494 248.453 116.262 248.453 115.996C248.453 115.758 248.35 115.57 248.143 115.433C247.998 115.34 247.639 115.221 247.064 115.076C246.291 114.881 245.754 114.713 245.453 114.572C245.156 114.428 244.93 114.23 244.773 113.98C244.621 113.726 244.545 113.447 244.545 113.142C244.545 112.865 244.607 112.609 244.732 112.375C244.861 112.137 245.035 111.939 245.254 111.783C245.418 111.662 245.641 111.56 245.922 111.478C246.207 111.392 246.512 111.349 246.836 111.349C247.324 111.349 247.752 111.42 248.119 111.56C248.49 111.701 248.764 111.892 248.939 112.135C249.115 112.373 249.236 112.693 249.303 113.096L248.271 113.236C248.225 112.916 248.088 112.666 247.861 112.486C247.639 112.307 247.322 112.217 246.912 112.217C246.428 112.217 246.082 112.297 245.875 112.457C245.668 112.617 245.564 112.805 245.564 113.019C245.564 113.156 245.607 113.279 245.693 113.389C245.779 113.502 245.914 113.596 246.098 113.67C246.203 113.709 246.514 113.799 247.029 113.939C247.775 114.139 248.295 114.303 248.588 114.432C248.885 114.557 249.117 114.74 249.285 114.982C249.453 115.224 249.537 115.525 249.537 115.885C249.537 116.236 249.434 116.568 249.227 116.881C249.023 117.189 248.729 117.43 248.342 117.601C247.955 117.769 247.518 117.853 247.029 117.853C246.221 117.853 245.604 117.685 245.178 117.349C244.756 117.014 244.486 116.516 244.369 115.855ZM255.051 115.709L256.141 115.844C255.969 116.48 255.65 116.974 255.186 117.326C254.721 117.678 254.127 117.853 253.404 117.853C252.494 117.853 251.771 117.574 251.236 117.016C250.705 116.453 250.439 115.666 250.439 114.654C250.439 113.607 250.709 112.795 251.248 112.217C251.787 111.639 252.486 111.349 253.346 111.349C254.178 111.349 254.857 111.633 255.385 112.199C255.912 112.766 256.176 113.562 256.176 114.59C256.176 114.652 256.174 114.746 256.17 114.871H251.529C251.568 115.555 251.762 116.078 252.109 116.441C252.457 116.805 252.891 116.986 253.41 116.986C253.797 116.986 254.127 116.885 254.4 116.682C254.674 116.478 254.891 116.154 255.051 115.709ZM251.588 114.004H255.062C255.016 113.48 254.883 113.088 254.664 112.826C254.328 112.42 253.893 112.217 253.357 112.217C252.873 112.217 252.465 112.379 252.133 112.703C251.805 113.027 251.623 113.461 251.588 114.004ZM257.447 117.713V109.123H258.502V117.713H257.447Z" fill="black"/>
<path d="M304.764 86.2872H303.785V77.6974H304.84V80.7618C305.285 80.2032 305.854 79.924 306.545 79.924C306.928 79.924 307.289 80.0021 307.629 80.1583C307.973 80.3107 308.254 80.5275 308.473 80.8087C308.695 81.0861 308.869 81.422 308.994 81.8165C309.119 82.2111 309.182 82.6329 309.182 83.0822C309.182 84.1486 308.918 84.9728 308.391 85.5548C307.863 86.1368 307.23 86.4279 306.492 86.4279C305.758 86.4279 305.182 86.1212 304.764 85.5079V86.2872ZM304.752 83.129C304.752 83.8751 304.854 84.4142 305.057 84.7462C305.389 85.2892 305.838 85.5607 306.404 85.5607C306.865 85.5607 307.264 85.3615 307.6 84.963C307.936 84.5607 308.104 83.963 308.104 83.17C308.104 82.3575 307.941 81.7579 307.617 81.3712C307.297 80.9845 306.908 80.7911 306.451 80.7911C305.99 80.7911 305.592 80.9923 305.256 81.3947C304.92 81.7931 304.752 82.3712 304.752 83.129Z" fill="black"/>
<path d="M227 70.2872L217 64.5137L217 76.0607L227 70.2872ZM189 71.2872L218 71.2872L218 69.2872L189 69.2872L189 71.2872Z" fill="black"/>
<path d="M193.797 57.623V56.4102H194.852V57.623H193.797ZM193.797 65V58.7773H194.852V65H193.797ZM196.463 65V58.7773H197.412V59.6621C197.869 58.9785 198.529 58.6367 199.393 58.6367C199.768 58.6367 200.111 58.7051 200.424 58.8418C200.74 58.9746 200.977 59.1504 201.133 59.3691C201.289 59.5879 201.398 59.8477 201.461 60.1484C201.5 60.3438 201.52 60.6855 201.52 61.1738V65H200.465V61.2148C200.465 60.7852 200.424 60.4648 200.342 60.2539C200.26 60.0391 200.113 59.8691 199.902 59.7441C199.695 59.6152 199.451 59.5508 199.17 59.5508C198.721 59.5508 198.332 59.6934 198.004 59.9785C197.68 60.2637 197.518 60.8047 197.518 61.6016V65H196.463Z" fill="black"/>
<path d="M297 109.837L228 70L297 30.1628L297 109.837Z" fill="#D9D9D9" stroke="black" stroke-width="2"/>
<path d="M257.926 74V65.4102H260.885C261.553 65.4102 262.062 65.4512 262.414 65.5332C262.906 65.6465 263.326 65.8516 263.674 66.1484C264.127 66.5312 264.465 67.0215 264.688 67.6191C264.914 68.2129 265.027 68.8926 265.027 69.6582C265.027 70.3105 264.951 70.8887 264.799 71.3926C264.646 71.8965 264.451 72.3145 264.213 72.6465C263.975 72.9746 263.713 73.2344 263.428 73.4258C263.146 73.6133 262.805 73.7559 262.402 73.8535C262.004 73.9512 261.545 74 261.025 74H257.926ZM259.062 72.9863H260.896C261.463 72.9863 261.906 72.9336 262.227 72.8281C262.551 72.7227 262.809 72.5742 263 72.3828C263.27 72.1133 263.479 71.752 263.627 71.2988C263.779 70.8418 263.855 70.2891 263.855 69.6406C263.855 68.7422 263.707 68.0527 263.41 67.5723C263.117 67.0879 262.76 66.7637 262.338 66.5996C262.033 66.4824 261.543 66.4238 260.867 66.4238H259.062V72.9863ZM266.562 74V65.4102H268.273L270.307 71.4922C270.494 72.0586 270.631 72.4824 270.717 72.7637C270.814 72.4512 270.967 71.9922 271.174 71.3867L273.23 65.4102H274.76V74H273.664V66.8105L271.168 74H270.143L267.658 66.6875V74H266.562ZM280.537 74V73.0859C280.053 73.7891 279.395 74.1406 278.562 74.1406C278.195 74.1406 277.852 74.0703 277.531 73.9297C277.215 73.7891 276.979 73.6133 276.822 73.4023C276.67 73.1875 276.562 72.9258 276.5 72.6172C276.457 72.4102 276.436 72.082 276.436 71.6328V67.7773H277.49V71.2285C277.49 71.7793 277.512 72.1504 277.555 72.3418C277.621 72.6191 277.762 72.8379 277.977 72.998C278.191 73.1543 278.457 73.2324 278.773 73.2324C279.09 73.2324 279.387 73.1523 279.664 72.9922C279.941 72.8281 280.137 72.6074 280.25 72.3301C280.367 72.0488 280.426 71.6426 280.426 71.1113V67.7773H281.48V74H280.537ZM282.436 74L284.709 70.7656L282.605 67.7773H283.924L284.879 69.2363C285.059 69.5137 285.203 69.7461 285.312 69.9336C285.484 69.6758 285.643 69.4473 285.787 69.248L286.836 67.7773H288.096L285.945 70.707L288.26 74H286.965L285.688 72.0664L285.348 71.5449L283.713 74H282.436Z" fill="black"/>
<path d="M424 156L414 150.226V161.774L424 156ZM388 157H415V155H388V157Z" fill="black"/>
<path d="M424 198.287L414 192.514V204.061L424 198.287ZM388 199.287H415V197.287H388V199.287Z" fill="black"/>
<path d="M397.852 149.232C397.461 149.564 397.084 149.799 396.721 149.936C396.361 150.072 395.975 150.141 395.561 150.141C394.877 150.141 394.352 149.975 393.984 149.643C393.617 149.307 393.434 148.879 393.434 148.359C393.434 148.055 393.502 147.777 393.639 147.527C393.779 147.273 393.961 147.07 394.184 146.918C394.41 146.766 394.664 146.65 394.945 146.572C395.152 146.518 395.465 146.465 395.883 146.414C396.734 146.312 397.361 146.191 397.764 146.051C397.768 145.906 397.77 145.814 397.77 145.775C397.77 145.346 397.67 145.043 397.471 144.867C397.201 144.629 396.801 144.51 396.27 144.51C395.773 144.51 395.406 144.598 395.168 144.773C394.934 144.945 394.76 145.252 394.646 145.693L393.615 145.553C393.709 145.111 393.863 144.756 394.078 144.486C394.293 144.213 394.604 144.004 395.01 143.859C395.416 143.711 395.887 143.637 396.422 143.637C396.953 143.637 397.385 143.699 397.717 143.824C398.049 143.949 398.293 144.107 398.449 144.299C398.605 144.486 398.715 144.725 398.777 145.014C398.812 145.193 398.83 145.518 398.83 145.986V147.393C398.83 148.373 398.852 148.994 398.895 149.256C398.941 149.514 399.031 149.762 399.164 150H398.062C397.953 149.781 397.883 149.525 397.852 149.232ZM397.764 146.877C397.381 147.033 396.807 147.166 396.041 147.275C395.607 147.338 395.301 147.408 395.121 147.486C394.941 147.564 394.803 147.68 394.705 147.832C394.607 147.98 394.559 148.146 394.559 148.33C394.559 148.611 394.664 148.846 394.875 149.033C395.09 149.221 395.402 149.314 395.812 149.314C396.219 149.314 396.58 149.227 396.896 149.051C397.213 148.871 397.445 148.627 397.594 148.318C397.707 148.08 397.764 147.729 397.764 147.264V146.877Z" fill="black"/>
<path d="M354 198L348.226 208L359.774 208L354 198ZM355 234L355 207L353 207L353 234L355 234Z" fill="black"/>
<path d="M334.369 221.855L335.412 221.691C335.471 222.109 335.633 222.43 335.898 222.652C336.168 222.875 336.543 222.986 337.023 222.986C337.508 222.986 337.867 222.889 338.102 222.693C338.336 222.494 338.453 222.262 338.453 221.996C338.453 221.758 338.35 221.57 338.143 221.433C337.998 221.34 337.639 221.221 337.064 221.076C336.291 220.881 335.754 220.713 335.453 220.572C335.156 220.428 334.93 220.23 334.773 219.98C334.621 219.726 334.545 219.447 334.545 219.142C334.545 218.865 334.607 218.609 334.732 218.375C334.861 218.137 335.035 217.939 335.254 217.783C335.418 217.662 335.641 217.56 335.922 217.478C336.207 217.392 336.512 217.349 336.836 217.349C337.324 217.349 337.752 217.42 338.119 217.56C338.49 217.701 338.764 217.892 338.939 218.135C339.115 218.373 339.236 218.693 339.303 219.096L338.271 219.236C338.225 218.916 338.088 218.666 337.861 218.486C337.639 218.307 337.322 218.217 336.912 218.217C336.428 218.217 336.082 218.297 335.875 218.457C335.668 218.617 335.564 218.805 335.564 219.019C335.564 219.156 335.607 219.279 335.693 219.389C335.779 219.502 335.914 219.596 336.098 219.67C336.203 219.709 336.514 219.799 337.029 219.939C337.775 220.139 338.295 220.303 338.588 220.432C338.885 220.557 339.117 220.74 339.285 220.982C339.453 221.224 339.537 221.525 339.537 221.885C339.537 222.236 339.434 222.568 339.227 222.881C339.023 223.189 338.729 223.43 338.342 223.601C337.955 223.769 337.518 223.853 337.029 223.853C336.221 223.853 335.604 223.685 335.178 223.349C334.756 223.014 334.486 222.516 334.369 221.855ZM345.051 221.709L346.141 221.844C345.969 222.48 345.65 222.974 345.186 223.326C344.721 223.678 344.127 223.853 343.404 223.853C342.494 223.853 341.771 223.574 341.236 223.016C340.705 222.453 340.439 221.666 340.439 220.654C340.439 219.607 340.709 218.795 341.248 218.217C341.787 217.639 342.486 217.349 343.346 217.349C344.178 217.349 344.857 217.633 345.385 218.199C345.912 218.766 346.176 219.562 346.176 220.59C346.176 220.652 346.174 220.746 346.17 220.871H341.529C341.568 221.555 341.762 222.078 342.109 222.441C342.457 222.805 342.891 222.986 343.41 222.986C343.797 222.986 344.127 222.885 344.4 222.682C344.674 222.478 344.891 222.154 345.051 221.709ZM341.588 220.004H345.062C345.016 219.48 344.883 219.088 344.664 218.826C344.328 218.42 343.893 218.217 343.357 218.217C342.873 218.217 342.465 218.379 342.133 218.703C341.805 219.027 341.623 219.461 341.588 220.004ZM347.447 223.713V215.123H348.502V223.713H347.447Z" fill="black"/>
<path d="M394.764 192.287H393.785V183.697H394.84V186.762C395.285 186.203 395.854 185.924 396.545 185.924C396.928 185.924 397.289 186.002 397.629 186.158C397.973 186.311 398.254 186.527 398.473 186.809C398.695 187.086 398.869 187.422 398.994 187.817C399.119 188.211 399.182 188.633 399.182 189.082C399.182 190.149 398.918 190.973 398.391 191.555C397.863 192.137 397.23 192.428 396.492 192.428C395.758 192.428 395.182 192.121 394.764 191.508V192.287ZM394.752 189.129C394.752 189.875 394.854 190.414 395.057 190.746C395.389 191.289 395.838 191.561 396.404 191.561C396.865 191.561 397.264 191.361 397.6 190.963C397.936 190.561 398.104 189.963 398.104 189.17C398.104 188.358 397.941 187.758 397.617 187.371C397.297 186.984 396.908 186.791 396.451 186.791C395.99 186.791 395.592 186.992 395.256 187.395C394.92 187.793 394.752 188.371 394.752 189.129Z" fill="black"/>
<path d="M317 176.287L307 170.514L307 182.061L317 176.287ZM279 177.287L308 177.287L308 175.287L279 175.287L279 177.287Z" fill="black"/>
<path d="M283.797 163.623V162.41H284.852V163.623H283.797ZM283.797 171V164.777H284.852V171H283.797ZM286.463 171V164.777H287.412V165.662C287.869 164.979 288.529 164.637 289.393 164.637C289.768 164.637 290.111 164.705 290.424 164.842C290.74 164.975 290.977 165.15 291.133 165.369C291.289 165.588 291.398 165.848 291.461 166.148C291.5 166.344 291.52 166.686 291.52 167.174V171H290.465V167.215C290.465 166.785 290.424 166.465 290.342 166.254C290.26 166.039 290.113 165.869 289.902 165.744C289.695 165.615 289.451 165.551 289.17 165.551C288.721 165.551 288.332 165.693 288.004 165.979C287.68 166.264 287.518 166.805 287.518 167.602V171H286.463Z" fill="black"/>
<path d="M387 215.837L318 176L387 136.163L387 215.837Z" fill="#D9D9D9" stroke="black" stroke-width="2"/>
<path d="M347.926 180V171.41H350.885C351.553 171.41 352.062 171.451 352.414 171.533C352.906 171.646 353.326 171.852 353.674 172.148C354.127 172.531 354.465 173.021 354.688 173.619C354.914 174.213 355.027 174.893 355.027 175.658C355.027 176.311 354.951 176.889 354.799 177.393C354.646 177.896 354.451 178.314 354.213 178.646C353.975 178.975 353.713 179.234 353.428 179.426C353.146 179.613 352.805 179.756 352.402 179.854C352.004 179.951 351.545 180 351.025 180H347.926ZM349.062 178.986H350.896C351.463 178.986 351.906 178.934 352.227 178.828C352.551 178.723 352.809 178.574 353 178.383C353.27 178.113 353.479 177.752 353.627 177.299C353.779 176.842 353.855 176.289 353.855 175.641C353.855 174.742 353.707 174.053 353.41 173.572C353.117 173.088 352.76 172.764 352.338 172.6C352.033 172.482 351.543 172.424 350.867 172.424H349.062V178.986ZM356.562 180V171.41H358.273L360.307 177.492C360.494 178.059 360.631 178.482 360.717 178.764C360.814 178.451 360.967 177.992 361.174 177.387L363.23 171.41H364.76V180H363.664V172.811L361.168 180H360.143L357.658 172.688V180H356.562ZM370.537 180V179.086C370.053 179.789 369.395 180.141 368.562 180.141C368.195 180.141 367.852 180.07 367.531 179.93C367.215 179.789 366.979 179.613 366.822 179.402C366.67 179.188 366.562 178.926 366.5 178.617C366.457 178.41 366.436 178.082 366.436 177.633V173.777H367.49V177.229C367.49 177.779 367.512 178.15 367.555 178.342C367.621 178.619 367.762 178.838 367.977 178.998C368.191 179.154 368.457 179.232 368.773 179.232C369.09 179.232 369.387 179.152 369.664 178.992C369.941 178.828 370.137 178.607 370.25 178.33C370.367 178.049 370.426 177.643 370.426 177.111V173.777H371.48V180H370.537ZM372.436 180L374.709 176.766L372.605 173.777H373.924L374.879 175.236C375.059 175.514 375.203 175.746 375.312 175.934C375.484 175.676 375.643 175.447 375.787 175.248L376.836 173.777H378.096L375.945 176.707L378.26 180H376.965L375.688 178.066L375.348 177.545L373.713 180H372.436Z" fill="black"/>
<path d="M0 154L44 154" stroke="#FF6B00" stroke-width="2"/>
<path d="M334 50L457 50" stroke="#FF6B00" stroke-width="2"/>
<path d="M334 92L457 92" stroke="#FF6B00" stroke-width="2"/>
<path d="M424 156L457 156" stroke="#FF6B00" stroke-width="2"/>
<path d="M424 198L457 198" stroke="#FF6B00" stroke-width="2"/>
<path d="M189 176L279 176" stroke="#FF6B00" stroke-width="2"/>
<path d="M190 71L190 134" stroke="#FF6B00" stroke-width="2"/>
<path d="M264 128L264 236" stroke="#00FF00" stroke-width="2" stroke-dasharray="4 4"/>
<path d="M4.79688 140.623V139.41H5.85156V140.623H4.79688ZM4.79688 148V141.777H5.85156V148H4.79688ZM7.46289 148V141.777H8.41211V142.662C8.86914 141.979 9.5293 141.637 10.3926 141.637C10.7676 141.637 11.1113 141.705 11.4238 141.842C11.7402 141.975 11.9766 142.15 12.1328 142.369C12.2891 142.588 12.3984 142.848 12.4609 143.148C12.5 143.344 12.5195 143.686 12.5195 144.174V148H11.4648V144.215C11.4648 143.785 11.4238 143.465 11.3418 143.254C11.2598 143.039 11.1133 142.869 10.9023 142.744C10.6953 142.615 10.4512 142.551 10.1699 142.551C9.7207 142.551 9.33203 142.693 9.00391 142.979C8.67969 143.264 8.51758 143.805 8.51758 144.602V148H7.46289Z" fill="black"/>
<path d="M452.828 191V190.215C452.434 190.832 451.854 191.141 451.088 191.141C450.592 191.141 450.135 191.004 449.717 190.73C449.303 190.457 448.98 190.076 448.75 189.588C448.523 189.096 448.41 188.531 448.41 187.895C448.41 187.273 448.514 186.711 448.721 186.207C448.928 185.699 449.238 185.311 449.652 185.041C450.066 184.771 450.529 184.637 451.041 184.637C451.416 184.637 451.75 184.717 452.043 184.877C452.336 185.033 452.574 185.238 452.758 185.492V182.41H453.807V191H452.828ZM449.494 187.895C449.494 188.691 449.662 189.287 449.998 189.682C450.334 190.076 450.73 190.273 451.188 190.273C451.648 190.273 452.039 190.086 452.359 189.711C452.684 189.332 452.846 188.756 452.846 187.982C452.846 187.131 452.682 186.506 452.354 186.107C452.025 185.709 451.621 185.51 451.141 185.51C450.672 185.51 450.279 185.701 449.963 186.084C449.65 186.467 449.494 187.07 449.494 187.895Z" fill="black"/>
<path d="M455.852 147.721L456.889 147.855C456.775 148.57 456.484 149.131 456.016 149.537C455.551 149.939 454.979 150.141 454.299 150.141C453.447 150.141 452.762 149.863 452.242 149.309C451.727 148.75 451.469 147.951 451.469 146.912C451.469 146.24 451.58 145.652 451.803 145.148C452.025 144.645 452.363 144.268 452.816 144.018C453.273 143.764 453.77 143.637 454.305 143.637C454.98 143.637 455.533 143.809 455.963 144.152C456.393 144.492 456.668 144.977 456.789 145.605L455.764 145.764C455.666 145.346 455.492 145.031 455.242 144.82C454.996 144.609 454.697 144.504 454.346 144.504C453.814 144.504 453.383 144.695 453.051 145.078C452.719 145.457 452.553 146.059 452.553 146.883C452.553 147.719 452.713 148.326 453.033 148.705C453.354 149.084 453.771 149.273 454.287 149.273C454.701 149.273 455.047 149.146 455.324 148.893C455.602 148.639 455.777 148.248 455.852 147.721Z" fill="black"/>
<path d="M452.764 88H451.785V79.4102H452.84V82.4746C453.285 81.916 453.854 81.6367 454.545 81.6367C454.928 81.6367 455.289 81.7148 455.629 81.8711C455.973 82.0234 456.254 82.2402 456.473 82.5215C456.695 82.7988 456.869 83.1348 456.994 83.5293C457.119 83.9238 457.182 84.3457 457.182 84.7949C457.182 85.8613 456.918 86.6855 456.391 87.2676C455.863 87.8496 455.23 88.1406 454.492 88.1406C453.758 88.1406 453.182 87.834 452.764 87.2207V88ZM452.752 84.8418C452.752 85.5879 452.854 86.127 453.057 86.459C453.389 87.002 453.838 87.2734 454.404 87.2734C454.865 87.2734 455.264 87.0742 455.6 86.6758C455.936 86.2734 456.104 85.6758 456.104 84.8828C456.104 84.0703 455.941 83.4707 455.617 83.084C455.297 82.6973 454.908 82.5039 454.451 82.5039C453.99 82.5039 453.592 82.7051 453.256 83.1074C452.92 83.5059 452.752 84.084 452.752 84.8418Z" fill="black"/>
<path d="M455.852 43.2324C455.461 43.5645 455.084 43.7988 454.721 43.9355C454.361 44.0723 453.975 44.1406 453.561 44.1406C452.877 44.1406 452.352 43.9746 451.984 43.6426C451.617 43.3066 451.434 42.8789 451.434 42.3594C451.434 42.0547 451.502 41.7773 451.639 41.5273C451.779 41.2734 451.961 41.0703 452.184 40.918C452.41 40.7656 452.664 40.6504 452.945 40.5723C453.152 40.5176 453.465 40.4648 453.883 40.4141C454.734 40.3125 455.361 40.1914 455.764 40.0508C455.768 39.9062 455.77 39.8145 455.77 39.7754C455.77 39.3457 455.67 39.043 455.471 38.8672C455.201 38.6289 454.801 38.5098 454.27 38.5098C453.773 38.5098 453.406 38.5977 453.168 38.7734C452.934 38.9453 452.76 39.252 452.646 39.6934L451.615 39.5527C451.709 39.1113 451.863 38.7559 452.078 38.4863C452.293 38.2129 452.604 38.0039 453.01 37.8594C453.416 37.7109 453.887 37.6367 454.422 37.6367C454.953 37.6367 455.385 37.6992 455.717 37.8242C456.049 37.9492 456.293 38.1074 456.449 38.2988C456.605 38.4863 456.715 38.7246 456.777 39.0137C456.812 39.1934 456.83 39.5176 456.83 39.9863V41.3926C456.83 42.373 456.852 42.9941 456.895 43.2559C456.941 43.5137 457.031 43.7617 457.164 44H456.062C455.953 43.7812 455.883 43.5254 455.852 43.2324ZM455.764 40.877C455.381 41.0332 454.807 41.166 454.041 41.2754C453.607 41.3379 453.301 41.4082 453.121 41.4863C452.941 41.5645 452.803 41.6797 452.705 41.832C452.607 41.9805 452.559 42.1465 452.559 42.3301C452.559 42.6113 452.664 42.8457 452.875 43.0332C453.09 43.2207 453.402 43.3145 453.812 43.3145C454.219 43.3145 454.58 43.2266 454.896 43.0508C455.213 42.8711 455.445 42.627 455.594 42.3184C455.707 42.0801 455.764 41.7285 455.764 41.2637V40.877Z" fill="black"/>
<path d="M0 213L120 213" stroke="#00FF00" stroke-width="2"/>
<path d="M0 235L355 235" stroke="#00FF00" stroke-width="2"/>
<path d="M0.369141 203.143L1.41211 202.979C1.4707 203.396 1.63281 203.717 1.89844 203.939C2.16797 204.162 2.54297 204.273 3.02344 204.273C3.50781 204.273 3.86719 204.176 4.10156 203.98C4.33594 203.781 4.45312 203.549 4.45312 203.283C4.45312 203.045 4.34961 202.857 4.14258 202.721C3.99805 202.627 3.63867 202.508 3.06445 202.363C2.29102 202.168 1.75391 202 1.45312 201.859C1.15625 201.715 0.929688 201.518 0.773438 201.268C0.621094 201.014 0.544922 200.734 0.544922 200.43C0.544922 200.152 0.607422 199.896 0.732422 199.662C0.861328 199.424 1.03516 199.227 1.25391 199.07C1.41797 198.949 1.64062 198.848 1.92188 198.766C2.20703 198.68 2.51172 198.637 2.83594 198.637C3.32422 198.637 3.75195 198.707 4.11914 198.848C4.49023 198.988 4.76367 199.18 4.93945 199.422C5.11523 199.66 5.23633 199.98 5.30273 200.383L4.27148 200.523C4.22461 200.203 4.08789 199.953 3.86133 199.773C3.63867 199.594 3.32227 199.504 2.91211 199.504C2.42773 199.504 2.08203 199.584 1.875 199.744C1.66797 199.904 1.56445 200.092 1.56445 200.307C1.56445 200.443 1.60742 200.566 1.69336 200.676C1.7793 200.789 1.91406 200.883 2.09766 200.957C2.20312 200.996 2.51367 201.086 3.0293 201.227C3.77539 201.426 4.29492 201.59 4.58789 201.719C4.88477 201.844 5.11719 202.027 5.28516 202.27C5.45312 202.512 5.53711 202.812 5.53711 203.172C5.53711 203.523 5.43359 203.855 5.22656 204.168C5.02344 204.477 4.72852 204.717 4.3418 204.889C3.95508 205.057 3.51758 205.141 3.0293 205.141C2.2207 205.141 1.60352 204.973 1.17773 204.637C0.755859 204.301 0.486328 203.803 0.369141 203.143ZM11.0508 202.996L12.1406 203.131C11.9688 203.768 11.6504 204.262 11.1855 204.613C10.7207 204.965 10.127 205.141 9.4043 205.141C8.49414 205.141 7.77148 204.861 7.23633 204.303C6.70508 203.74 6.43945 202.953 6.43945 201.941C6.43945 200.895 6.70898 200.082 7.24805 199.504C7.78711 198.926 8.48633 198.637 9.3457 198.637C10.1777 198.637 10.8574 198.92 11.3848 199.486C11.9121 200.053 12.1758 200.85 12.1758 201.877C12.1758 201.939 12.1738 202.033 12.1699 202.158H7.5293C7.56836 202.842 7.76172 203.365 8.10938 203.729C8.45703 204.092 8.89062 204.273 9.41016 204.273C9.79688 204.273 10.127 204.172 10.4004 203.969C10.6738 203.766 10.8906 203.441 11.0508 202.996ZM7.58789 201.291H11.0625C11.0156 200.768 10.8828 200.375 10.6641 200.113C10.3281 199.707 9.89258 199.504 9.35742 199.504C8.87305 199.504 8.46484 199.666 8.13281 199.99C7.80469 200.314 7.62305 200.748 7.58789 201.291ZM13.4473 205V196.41H14.502V205H13.4473ZM16.166 207.385V196.41H18.4922V197.283H17.2207V206.512H18.4922V207.385H16.166ZM23.1621 205H22.1074V198.279C21.8535 198.521 21.5195 198.764 21.1055 199.006C20.6953 199.248 20.3262 199.43 19.998 199.551V198.531C20.5879 198.254 21.1035 197.918 21.5449 197.523C21.9863 197.129 22.2988 196.746 22.4824 196.375H23.1621V205ZM27.9258 207.385H25.5996V206.512H26.8711V197.283H25.5996V196.41H27.9258V207.385Z" fill="black"/>
<path d="M0.369141 225.143L1.41211 224.979C1.4707 225.396 1.63281 225.717 1.89844 225.939C2.16797 226.162 2.54297 226.273 3.02344 226.273C3.50781 226.273 3.86719 226.176 4.10156 225.98C4.33594 225.781 4.45312 225.549 4.45312 225.283C4.45312 225.045 4.34961 224.857 4.14258 224.721C3.99805 224.627 3.63867 224.508 3.06445 224.363C2.29102 224.168 1.75391 224 1.45312 223.859C1.15625 223.715 0.929688 223.518 0.773438 223.268C0.621094 223.014 0.544922 222.734 0.544922 222.43C0.544922 222.152 0.607422 221.896 0.732422 221.662C0.861328 221.424 1.03516 221.227 1.25391 221.07C1.41797 220.949 1.64062 220.848 1.92188 220.766C2.20703 220.68 2.51172 220.637 2.83594 220.637C3.32422 220.637 3.75195 220.707 4.11914 220.848C4.49023 220.988 4.76367 221.18 4.93945 221.422C5.11523 221.66 5.23633 221.98 5.30273 222.383L4.27148 222.523C4.22461 222.203 4.08789 221.953 3.86133 221.773C3.63867 221.594 3.32227 221.504 2.91211 221.504C2.42773 221.504 2.08203 221.584 1.875 221.744C1.66797 221.904 1.56445 222.092 1.56445 222.307C1.56445 222.443 1.60742 222.566 1.69336 222.676C1.7793 222.789 1.91406 222.883 2.09766 222.957C2.20312 222.996 2.51367 223.086 3.0293 223.227C3.77539 223.426 4.29492 223.59 4.58789 223.719C4.88477 223.844 5.11719 224.027 5.28516 224.27C5.45312 224.512 5.53711 224.812 5.53711 225.172C5.53711 225.523 5.43359 225.855 5.22656 226.168C5.02344 226.477 4.72852 226.717 4.3418 226.889C3.95508 227.057 3.51758 227.141 3.0293 227.141C2.2207 227.141 1.60352 226.973 1.17773 226.637C0.755859 226.301 0.486328 225.803 0.369141 225.143ZM11.0508 224.996L12.1406 225.131C11.9688 225.768 11.6504 226.262 11.1855 226.613C10.7207 226.965 10.127 227.141 9.4043 227.141C8.49414 227.141 7.77148 226.861 7.23633 226.303C6.70508 225.74 6.43945 224.953 6.43945 223.941C6.43945 222.895 6.70898 222.082 7.24805 221.504C7.78711 220.926 8.48633 220.637 9.3457 220.637C10.1777 220.637 10.8574 220.92 11.3848 221.486C11.9121 222.053 12.1758 222.85 12.1758 223.877C12.1758 223.939 12.1738 224.033 12.1699 224.158H7.5293C7.56836 224.842 7.76172 225.365 8.10938 225.729C8.45703 226.092 8.89062 226.273 9.41016 226.273C9.79688 226.273 10.127 226.172 10.4004 225.969C10.6738 225.766 10.8906 225.441 11.0508 224.996ZM7.58789 223.291H11.0625C11.0156 222.768 10.8828 222.375 10.6641 222.113C10.3281 221.707 9.89258 221.504 9.35742 221.504C8.87305 221.504 8.46484 221.666 8.13281 221.99C7.80469 222.314 7.62305 222.748 7.58789 223.291ZM13.4473 227V218.41H14.502V227H13.4473ZM16.166 229.385V218.41H18.4922V219.283H17.2207V228.512H18.4922V229.385H16.166ZM19.1895 222.764C19.1895 221.748 19.293 220.932 19.5 220.314C19.7109 219.693 20.0215 219.215 20.4316 218.879C20.8457 218.543 21.3652 218.375 21.9902 218.375C22.4512 218.375 22.8555 218.469 23.2031 218.656C23.5508 218.84 23.8379 219.107 24.0645 219.459C24.291 219.807 24.4688 220.232 24.5977 220.736C24.7266 221.236 24.791 221.912 24.791 222.764C24.791 223.771 24.6875 224.586 24.4805 225.207C24.2734 225.824 23.9629 226.303 23.5488 226.643C23.1387 226.979 22.6191 227.146 21.9902 227.146C21.1621 227.146 20.5117 226.85 20.0391 226.256C19.4727 225.541 19.1895 224.377 19.1895 222.764ZM20.2734 222.764C20.2734 224.174 20.4375 225.113 20.7656 225.582C21.0977 226.047 21.5059 226.279 21.9902 226.279C22.4746 226.279 22.8809 226.045 23.209 225.576C23.541 225.107 23.707 224.17 23.707 222.764C23.707 221.35 23.541 220.41 23.209 219.945C22.8809 219.48 22.4707 219.248 21.9785 219.248C21.4941 219.248 21.1074 219.453 20.8184 219.863C20.4551 220.387 20.2734 221.354 20.2734 222.764ZM27.9258 229.385H25.5996V228.512H26.8711V219.283H25.5996V218.41H27.9258V229.385Z" fill="black"/>
<circle cx="264" cy="235" r="5" fill="#00FF00"/>
<rect x="38.5" y="22.5" width="396" height="223" stroke="black" stroke-dasharray="2 2"/>
<path d="M38.9258 11V2.41016H41.8848C42.5527 2.41016 43.0625 2.45117 43.4141 2.5332C43.9062 2.64648 44.3262 2.85156 44.6738 3.14844C45.127 3.53125 45.4648 4.02148 45.6875 4.61914C45.9141 5.21289 46.0273 5.89258 46.0273 6.6582C46.0273 7.31055 45.9512 7.88867 45.7988 8.39258C45.6465 8.89648 45.4512 9.31445 45.2129 9.64648C44.9746 9.97461 44.7129 10.2344 44.4277 10.4258C44.1465 10.6133 43.8047 10.7559 43.4023 10.8535C43.0039 10.9512 42.5449 11 42.0254 11H38.9258ZM40.0625 9.98633H41.8965C42.4629 9.98633 42.9062 9.93359 43.2266 9.82812C43.5508 9.72266 43.8086 9.57422 44 9.38281C44.2695 9.11328 44.4785 8.75195 44.627 8.29883C44.7793 7.8418 44.8555 7.28906 44.8555 6.64062C44.8555 5.74219 44.707 5.05273 44.4102 4.57227C44.1172 4.08789 43.7598 3.76367 43.3379 3.59961C43.0332 3.48242 42.543 3.42383 41.8672 3.42383H40.0625V9.98633ZM47.5625 11V2.41016H49.2734L51.3066 8.49219C51.4941 9.05859 51.6309 9.48242 51.7168 9.76367C51.8145 9.45117 51.9668 8.99219 52.1738 8.38672L54.2305 2.41016H55.7598V11H54.6641V3.81055L52.168 11H51.1426L48.6582 3.6875V11H47.5625ZM61.5371 11V10.0859C61.0527 10.7891 60.3945 11.1406 59.5625 11.1406C59.1953 11.1406 58.8516 11.0703 58.5312 10.9297C58.2148 10.7891 57.9785 10.6133 57.8223 10.4023C57.6699 10.1875 57.5625 9.92578 57.5 9.61719C57.457 9.41016 57.4355 9.08203 57.4355 8.63281V4.77734H58.4902V8.22852C58.4902 8.7793 58.5117 9.15039 58.5547 9.3418C58.6211 9.61914 58.7617 9.83789 58.9766 9.99805C59.1914 10.1543 59.457 10.2324 59.7734 10.2324C60.0898 10.2324 60.3867 10.1523 60.6641 9.99219C60.9414 9.82812 61.1367 9.60742 61.25 9.33008C61.3672 9.04883 61.4258 8.64258 61.4258 8.11133V4.77734H62.4805V11H61.5371ZM63.4355 11L65.709 7.76562L63.6055 4.77734H64.9238L65.8789 6.23633C66.0586 6.51367 66.2031 6.74609 66.3125 6.93359C66.4844 6.67578 66.6426 6.44727 66.7871 6.24805L67.8359 4.77734H69.0957L66.9453 7.70703L69.2598 11H67.9648L66.6875 9.06641L66.3477 8.54492L64.7129 11H63.4355ZM73.2266 11V8.94336H69.5V7.97656L73.4199 2.41016H74.2812V7.97656H75.4414V8.94336H74.2812V11H73.2266ZM73.2266 7.97656V4.10352L70.5371 7.97656H73.2266ZM78.4531 11L76.1738 2.41016H77.3398L78.6465 8.04102C78.7871 8.63086 78.9082 9.2168 79.0098 9.79883C79.2285 8.88086 79.3574 8.35156 79.3965 8.21094L81.0312 2.41016H82.4023L83.6328 6.75781C83.9414 7.83594 84.1641 8.84961 84.3008 9.79883C84.4102 9.25586 84.5527 8.63281 84.7285 7.92969L86.0762 2.41016H87.2188L84.8633 11H83.7676L81.957 4.45508C81.8047 3.9082 81.7148 3.57227 81.6875 3.44727C81.5977 3.8418 81.5137 4.17773 81.4355 4.45508L79.6133 11H78.4531ZM91.7656 10.2324C91.375 10.5645 90.998 10.7988 90.6348 10.9355C90.2754 11.0723 89.8887 11.1406 89.4746 11.1406C88.791 11.1406 88.2656 10.9746 87.8984 10.6426C87.5312 10.3066 87.3477 9.87891 87.3477 9.35938C87.3477 9.05469 87.416 8.77734 87.5527 8.52734C87.6934 8.27344 87.875 8.07031 88.0977 7.91797C88.3242 7.76562 88.5781 7.65039 88.8594 7.57227C89.0664 7.51758 89.3789 7.46484 89.7969 7.41406C90.6484 7.3125 91.2754 7.19141 91.6777 7.05078C91.6816 6.90625 91.6836 6.81445 91.6836 6.77539C91.6836 6.3457 91.584 6.04297 91.3848 5.86719C91.1152 5.62891 90.7148 5.50977 90.1836 5.50977C89.6875 5.50977 89.3203 5.59766 89.082 5.77344C88.8477 5.94531 88.6738 6.25195 88.5605 6.69336L87.5293 6.55273C87.623 6.11133 87.7773 5.75586 87.9922 5.48633C88.207 5.21289 88.5176 5.00391 88.9238 4.85938C89.3301 4.71094 89.8008 4.63672 90.3359 4.63672C90.8672 4.63672 91.2988 4.69922 91.6309 4.82422C91.9629 4.94922 92.207 5.10742 92.3633 5.29883C92.5195 5.48633 92.6289 5.72461 92.6914 6.01367C92.7266 6.19336 92.7441 6.51758 92.7441 6.98633V8.39258C92.7441 9.37305 92.7656 9.99414 92.8086 10.2559C92.8555 10.5137 92.9453 10.7617 93.0781 11H91.9766C91.8672 10.7812 91.7969 10.5254 91.7656 10.2324ZM91.6777 7.87695C91.2949 8.0332 90.7207 8.16602 89.9551 8.27539C89.5215 8.33789 89.2148 8.4082 89.0352 8.48633C88.8555 8.56445 88.7168 8.67969 88.6191 8.83203C88.5215 8.98047 88.4727 9.14648 88.4727 9.33008C88.4727 9.61133 88.5781 9.8457 88.7891 10.0332C89.0039 10.2207 89.3164 10.3145 89.7266 10.3145C90.1328 10.3145 90.4941 10.2266 90.8105 10.0508C91.127 9.87109 91.3594 9.62695 91.5078 9.31836C91.6211 9.08008 91.6777 8.72852 91.6777 8.26367V7.87695ZM94.3379 13.3965L94.2207 12.4062C94.4512 12.4688 94.6523 12.5 94.8242 12.5C95.0586 12.5 95.2461 12.4609 95.3867 12.3828C95.5273 12.3047 95.6426 12.1953 95.7324 12.0547C95.7988 11.9492 95.9062 11.6875 96.0547 11.2695C96.0742 11.2109 96.1055 11.125 96.1484 11.0117L93.7871 4.77734H94.9238L96.2188 8.38086C96.3867 8.83789 96.5371 9.31836 96.6699 9.82227C96.791 9.33789 96.9355 8.86523 97.1035 8.4043L98.4336 4.77734H99.4883L97.1211 11.1055C96.8672 11.7891 96.6699 12.2598 96.5293 12.5176C96.3418 12.8652 96.127 13.1191 95.8848 13.2793C95.6426 13.4434 95.3535 13.5254 95.0176 13.5254C94.8145 13.5254 94.5879 13.4824 94.3379 13.3965Z" fill="black"/>
</svg>
