<svg width="230" height="133" viewBox="0 0 230 133" fill="none" xmlns="http://www.w3.org/2000/svg">
<path d="M230 23L220 17.2265L220 28.7735L230 23ZM169 24L221 24L221 22L169 22L169 24Z" fill="black"/>
<path d="M61 63L51 57.2265L51 68.7735L61 63ZM-8.74228e-08 64L52 64L52 62L8.74228e-08 62L-8.74228e-08 64Z" fill="black"/>
<path d="M230 77L220 71.2265L220 82.7735L230 77ZM169 78L221 78L221 76L169 76L169 78Z" fill="black"/>
<path d="M230 51L220 45.2265L220 56.7735L230 51ZM169 52L221 52L221 50L169 50L169 52Z" fill="black"/>
<path d="M230 105L220 99.2265L220 110.774L230 105ZM169 106L221 106L221 104L169 104L169 106Z" fill="black"/>
<path d="M211.852 16.2324C211.461 16.5645 211.084 16.7988 210.721 16.9355C210.361 17.0723 209.975 17.1406 209.561 17.1406C208.877 17.1406 208.352 16.9746 207.984 16.6426C207.617 16.3066 207.434 15.8789 207.434 15.3594C207.434 15.0547 207.502 14.7773 207.639 14.5273C207.779 14.2734 207.961 14.0703 208.184 13.918C208.41 13.7656 208.664 13.6504 208.945 13.5723C209.152 13.5176 209.465 13.4648 209.883 13.4141C210.734 13.3125 211.361 13.1914 211.764 13.0508C211.768 12.9062 211.77 12.8145 211.77 12.7754C211.77 12.3457 211.67 12.043 211.471 11.8672C211.201 11.6289 210.801 11.5098 210.27 11.5098C209.773 11.5098 209.406 11.5977 209.168 11.7734C208.934 11.9453 208.76 12.252 208.646 12.6934L207.615 12.5527C207.709 12.1113 207.863 11.7559 208.078 11.4863C208.293 11.2129 208.604 11.0039 209.01 10.8594C209.416 10.7109 209.887 10.6367 210.422 10.6367C210.953 10.6367 211.385 10.6992 211.717 10.8242C212.049 10.9492 212.293 11.1074 212.449 11.2988C212.605 11.4863 212.715 11.7246 212.777 12.0137C212.812 12.1934 212.83 12.5176 212.83 12.9863V14.3926C212.83 15.373 212.852 15.9941 212.895 16.2559C212.941 16.5137 213.031 16.7617 213.164 17H212.062C211.953 16.7812 211.883 16.5254 211.852 16.2324ZM211.764 13.877C211.381 14.0332 210.807 14.166 210.041 14.2754C209.607 14.3379 209.301 14.4082 209.121 14.4863C208.941 14.5645 208.803 14.6797 208.705 14.832C208.607 14.9805 208.559 15.1465 208.559 15.3301C208.559 15.6113 208.664 15.8457 208.875 16.0332C209.09 16.2207 209.402 16.3145 209.812 16.3145C210.219 16.3145 210.58 16.2266 210.896 16.0508C211.213 15.8711 211.445 15.627 211.594 15.3184C211.707 15.0801 211.764 14.7285 211.764 14.2637V13.877Z" fill="black"/>
<path d="M4.79688 48.623V47.4102H5.85156V48.623H4.79688ZM4.79688 56V49.7773H5.85156V56H4.79688ZM7.46289 56V49.7773H8.41211V50.6621C8.86914 49.9785 9.5293 49.6367 10.3926 49.6367C10.7676 49.6367 11.1113 49.7051 11.4238 49.8418C11.7402 49.9746 11.9766 50.1504 12.1328 50.3691C12.2891 50.5879 12.3984 50.8477 12.4609 51.1484C12.5 51.3438 12.5195 51.6855 12.5195 52.1738V56H11.4648V52.2148C11.4648 51.7852 11.4238 51.4648 11.3418 51.2539C11.2598 51.0391 11.1133 50.8691 10.9023 50.7441C10.6953 50.6152 10.4512 50.5508 10.1699 50.5508C9.7207 50.5508 9.33203 50.6934 9.00391 50.9785C8.67969 51.2637 8.51758 51.8047 8.51758 52.6016V56H7.46289Z" fill="black"/>
<path d="M211.852 68.7207L212.889 68.8555C212.775 69.5703 212.484 70.1309 212.016 70.5371C211.551 70.9395 210.979 71.1406 210.299 71.1406C209.447 71.1406 208.762 70.8633 208.242 70.3086C207.727 69.75 207.469 68.9512 207.469 67.9121C207.469 67.2402 207.58 66.6523 207.803 66.1484C208.025 65.6445 208.363 65.2676 208.816 65.0176C209.273 64.7637 209.77 64.6367 210.305 64.6367C210.98 64.6367 211.533 64.8086 211.963 65.1523C212.393 65.4922 212.668 65.9766 212.789 66.6055L211.764 66.7637C211.666 66.3457 211.492 66.0312 211.242 65.8203C210.996 65.6094 210.697 65.5039 210.346 65.5039C209.814 65.5039 209.383 65.6953 209.051 66.0781C208.719 66.457 208.553 67.0586 208.553 67.8828C208.553 68.7188 208.713 69.3262 209.033 69.7051C209.354 70.084 209.771 70.2734 210.287 70.2734C210.701 70.2734 211.047 70.1465 211.324 69.8926C211.602 69.6387 211.777 69.248 211.852 68.7207Z" fill="black"/>
<path d="M208.764 45.2872H207.785V36.6973H208.84V39.7618C209.285 39.2032 209.854 38.9239 210.545 38.9239C210.928 38.9239 211.289 39.002 211.629 39.1583C211.973 39.3106 212.254 39.5274 212.473 39.8087C212.695 40.086 212.869 40.4219 212.994 40.8165C213.119 41.211 213.182 41.6329 213.182 42.0821C213.182 43.1485 212.918 43.9727 212.391 44.5547C211.863 45.1368 211.23 45.4278 210.492 45.4278C209.758 45.4278 209.182 45.1212 208.764 44.5079V45.2872ZM208.752 42.129C208.752 42.8751 208.854 43.4141 209.057 43.7462C209.389 44.2891 209.838 44.5606 210.404 44.5606C210.865 44.5606 211.264 44.3614 211.6 43.963C211.936 43.5606 212.104 42.963 212.104 42.17C212.104 41.3575 211.941 40.7579 211.617 40.3712C211.297 39.9844 210.908 39.7911 210.451 39.7911C209.99 39.7911 209.592 39.9922 209.256 40.3946C208.92 40.793 208.752 41.3712 208.752 42.129Z" fill="black"/>
<path d="M211.828 99.2872V98.502C211.434 99.1192 210.854 99.4278 210.088 99.4278C209.592 99.4278 209.135 99.2911 208.717 99.0176C208.303 98.7442 207.98 98.3633 207.75 97.8751C207.523 97.3829 207.41 96.8184 207.41 96.1817C207.41 95.5606 207.514 94.9981 207.721 94.4942C207.928 93.9864 208.238 93.5977 208.652 93.3282C209.066 93.0587 209.529 92.9239 210.041 92.9239C210.416 92.9239 210.75 93.004 211.043 93.1641C211.336 93.3204 211.574 93.5255 211.758 93.7794V90.6973H212.807V99.2872H211.828ZM208.494 96.1817C208.494 96.9786 208.662 97.5743 208.998 97.9688C209.334 98.3633 209.73 98.5606 210.188 98.5606C210.648 98.5606 211.039 98.3731 211.359 97.9981C211.684 97.6192 211.846 97.043 211.846 96.2696C211.846 95.418 211.682 94.793 211.354 94.3946C211.025 93.9962 210.621 93.7969 210.141 93.7969C209.672 93.7969 209.279 93.9883 208.963 94.3712C208.65 94.754 208.494 95.3575 208.494 96.1817Z" fill="black"/>
<path d="M167.5 122.756L64 63L167.5 3.24426L167.5 122.756Z" fill="#D9D9D9" stroke="black" stroke-width="3"/>
<path d="M95.9258 67V58.4102H98.8848C99.5527 58.4102 100.062 58.4512 100.414 58.5332C100.906 58.6465 101.326 58.8516 101.674 59.1484C102.127 59.5312 102.465 60.0215 102.688 60.6191C102.914 61.2129 103.027 61.8926 103.027 62.6582C103.027 63.3105 102.951 63.8887 102.799 64.3926C102.646 64.8965 102.451 65.3145 102.213 65.6465C101.975 65.9746 101.713 66.2344 101.428 66.4258C101.146 66.6133 100.805 66.7559 100.402 66.8535C100.004 66.9512 99.5449 67 99.0254 67H95.9258ZM97.0625 65.9863H98.8965C99.4629 65.9863 99.9062 65.9336 100.227 65.8281C100.551 65.7227 100.809 65.5742 101 65.3828C101.27 65.1133 101.479 64.752 101.627 64.2988C101.779 63.8418 101.855 63.2891 101.855 62.6406C101.855 61.7422 101.707 61.0527 101.41 60.5723C101.117 60.0879 100.76 59.7637 100.338 59.5996C100.033 59.4824 99.543 59.4238 98.8672 59.4238H97.0625V65.9863ZM104.562 67V58.4102H106.273L108.307 64.4922C108.494 65.0586 108.631 65.4824 108.717 65.7637C108.814 65.4512 108.967 64.9922 109.174 64.3867L111.23 58.4102H112.76V67H111.664V59.8105L109.168 67H108.143L105.658 59.6875V67H104.562ZM118.537 67V66.0859C118.053 66.7891 117.395 67.1406 116.562 67.1406C116.195 67.1406 115.852 67.0703 115.531 66.9297C115.215 66.7891 114.979 66.6133 114.822 66.4023C114.67 66.1875 114.562 65.9258 114.5 65.6172C114.457 65.4102 114.436 65.082 114.436 64.6328V60.7773H115.49V64.2285C115.49 64.7793 115.512 65.1504 115.555 65.3418C115.621 65.6191 115.762 65.8379 115.977 65.998C116.191 66.1543 116.457 66.2324 116.773 66.2324C117.09 66.2324 117.387 66.1523 117.664 65.9922C117.941 65.8281 118.137 65.6074 118.25 65.3301C118.367 65.0488 118.426 64.6426 118.426 64.1113V60.7773H119.48V67H118.537ZM120.436 67L122.709 63.7656L120.605 60.7773H121.924L122.879 62.2363C123.059 62.5137 123.203 62.7461 123.312 62.9336C123.484 62.6758 123.643 62.4473 123.787 62.248L124.836 60.7773H126.096L123.945 63.707L126.26 67H124.965L123.688 65.0664L123.348 64.5449L121.713 67H120.436ZM130.227 67V64.9434H126.5V63.9766L130.42 58.4102H131.281V63.9766H132.441V64.9434H131.281V67H130.227ZM130.227 63.9766V60.1035L127.537 63.9766H130.227ZM135.453 67L133.174 58.4102H134.34L135.646 64.041C135.787 64.6309 135.908 65.2168 136.01 65.7988C136.229 64.8809 136.357 64.3516 136.396 64.2109L138.031 58.4102H139.402L140.633 62.7578C140.941 63.8359 141.164 64.8496 141.301 65.7988C141.41 65.2559 141.553 64.6328 141.729 63.9297L143.076 58.4102H144.219L141.863 67H140.768L138.957 60.4551C138.805 59.9082 138.715 59.5723 138.688 59.4473C138.598 59.8418 138.514 60.1777 138.436 60.4551L136.613 67H135.453ZM148.766 66.2324C148.375 66.5645 147.998 66.7988 147.635 66.9355C147.275 67.0723 146.889 67.1406 146.475 67.1406C145.791 67.1406 145.266 66.9746 144.898 66.6426C144.531 66.3066 144.348 65.8789 144.348 65.3594C144.348 65.0547 144.416 64.7773 144.553 64.5273C144.693 64.2734 144.875 64.0703 145.098 63.918C145.324 63.7656 145.578 63.6504 145.859 63.5723C146.066 63.5176 146.379 63.4648 146.797 63.4141C147.648 63.3125 148.275 63.1914 148.678 63.0508C148.682 62.9062 148.684 62.8145 148.684 62.7754C148.684 62.3457 148.584 62.043 148.385 61.8672C148.115 61.6289 147.715 61.5098 147.184 61.5098C146.688 61.5098 146.32 61.5977 146.082 61.7734C145.848 61.9453 145.674 62.252 145.561 62.6934L144.529 62.5527C144.623 62.1113 144.777 61.7559 144.992 61.4863C145.207 61.2129 145.518 61.0039 145.924 60.8594C146.33 60.7109 146.801 60.6367 147.336 60.6367C147.867 60.6367 148.299 60.6992 148.631 60.8242C148.963 60.9492 149.207 61.1074 149.363 61.2988C149.52 61.4863 149.629 61.7246 149.691 62.0137C149.727 62.1934 149.744 62.5176 149.744 62.9863V64.3926C149.744 65.373 149.766 65.9941 149.809 66.2559C149.855 66.5137 149.945 66.7617 150.078 67H148.977C148.867 66.7812 148.797 66.5254 148.766 66.2324ZM148.678 63.877C148.295 64.0332 147.721 64.166 146.955 64.2754C146.521 64.3379 146.215 64.4082 146.035 64.4863C145.855 64.5645 145.717 64.6797 145.619 64.832C145.521 64.9805 145.473 65.1465 145.473 65.3301C145.473 65.6113 145.578 65.8457 145.789 66.0332C146.004 66.2207 146.316 66.3145 146.727 66.3145C147.133 66.3145 147.494 66.2266 147.811 66.0508C148.127 65.8711 148.359 65.627 148.508 65.3184C148.621 65.0801 148.678 64.7285 148.678 64.2637V63.877ZM151.338 69.3965L151.221 68.4062C151.451 68.4688 151.652 68.5 151.824 68.5C152.059 68.5 152.246 68.4609 152.387 68.3828C152.527 68.3047 152.643 68.1953 152.732 68.0547C152.799 67.9492 152.906 67.6875 153.055 67.2695C153.074 67.2109 153.105 67.125 153.148 67.0117L150.787 60.7773H151.924L153.219 64.3809C153.387 64.8379 153.537 65.3184 153.67 65.8223C153.791 65.3379 153.936 64.8652 154.104 64.4043L155.434 60.7773H156.488L154.121 67.1055C153.867 67.7891 153.67 68.2598 153.529 68.5176C153.342 68.8652 153.127 69.1191 152.885 69.2793C152.643 69.4434 152.354 69.5254 152.018 69.5254C151.814 69.5254 151.588 69.4824 151.338 69.3965Z" fill="black"/>
<path d="M93 82L87.2265 92L98.7735 92L93 82ZM94 130L94 91L92 91L92 130L94 130Z" fill="black"/>
<path d="M71.3691 128.143L72.4121 127.979C72.4707 128.396 72.6328 128.717 72.8984 128.939C73.168 129.162 73.543 129.273 74.0234 129.273C74.5078 129.273 74.8672 129.176 75.1016 128.98C75.3359 128.781 75.4531 128.549 75.4531 128.283C75.4531 128.045 75.3496 127.857 75.1426 127.721C74.998 127.627 74.6387 127.508 74.0645 127.363C73.291 127.168 72.7539 127 72.4531 126.859C72.1562 126.715 71.9297 126.518 71.7734 126.268C71.6211 126.014 71.5449 125.734 71.5449 125.43C71.5449 125.152 71.6074 124.896 71.7324 124.662C71.8613 124.424 72.0352 124.227 72.2539 124.07C72.418 123.949 72.6406 123.848 72.9219 123.766C73.207 123.68 73.5117 123.637 73.8359 123.637C74.3242 123.637 74.752 123.707 75.1191 123.848C75.4902 123.988 75.7637 124.18 75.9395 124.422C76.1152 124.66 76.2363 124.98 76.3027 125.383L75.2715 125.523C75.2246 125.203 75.0879 124.953 74.8613 124.773C74.6387 124.594 74.3223 124.504 73.9121 124.504C73.4277 124.504 73.082 124.584 72.875 124.744C72.668 124.904 72.5645 125.092 72.5645 125.307C72.5645 125.443 72.6074 125.566 72.6934 125.676C72.7793 125.789 72.9141 125.883 73.0977 125.957C73.2031 125.996 73.5137 126.086 74.0293 126.227C74.7754 126.426 75.2949 126.59 75.5879 126.719C75.8848 126.844 76.1172 127.027 76.2852 127.27C76.4531 127.512 76.5371 127.812 76.5371 128.172C76.5371 128.523 76.4336 128.855 76.2266 129.168C76.0234 129.477 75.7285 129.717 75.3418 129.889C74.9551 130.057 74.5176 130.141 74.0293 130.141C73.2207 130.141 72.6035 129.973 72.1777 129.637C71.7559 129.301 71.4863 128.803 71.3691 128.143ZM82.0508 127.996L83.1406 128.131C82.9688 128.768 82.6504 129.262 82.1855 129.613C81.7207 129.965 81.127 130.141 80.4043 130.141C79.4941 130.141 78.7715 129.861 78.2363 129.303C77.7051 128.74 77.4395 127.953 77.4395 126.941C77.4395 125.895 77.709 125.082 78.248 124.504C78.7871 123.926 79.4863 123.637 80.3457 123.637C81.1777 123.637 81.8574 123.92 82.3848 124.486C82.9121 125.053 83.1758 125.85 83.1758 126.877C83.1758 126.939 83.1738 127.033 83.1699 127.158H78.5293C78.5684 127.842 78.7617 128.365 79.1094 128.729C79.457 129.092 79.8906 129.273 80.4102 129.273C80.7969 129.273 81.127 129.172 81.4004 128.969C81.6738 128.766 81.8906 128.441 82.0508 127.996ZM78.5879 126.291H82.0625C82.0156 125.768 81.8828 125.375 81.6641 125.113C81.3281 124.707 80.8926 124.504 80.3574 124.504C79.873 124.504 79.4648 124.666 79.1328 124.99C78.8047 125.314 78.623 125.748 78.5879 126.291ZM84.4473 130V121.41H85.502V130H84.4473Z" fill="black"/>
<line x1="102.354" y1="97.3536" x2="84.3536" y2="115.354" stroke="black"/>
<path d="M106.041 112.986V114H100.363C100.355 113.746 100.396 113.502 100.486 113.268C100.631 112.881 100.861 112.5 101.178 112.125C101.498 111.75 101.959 111.316 102.561 110.824C103.494 110.059 104.125 109.453 104.453 109.008C104.781 108.559 104.945 108.135 104.945 107.736C104.945 107.318 104.795 106.967 104.494 106.682C104.197 106.393 103.809 106.248 103.328 106.248C102.82 106.248 102.414 106.4 102.109 106.705C101.805 107.01 101.65 107.432 101.646 107.971L100.562 107.859C100.637 107.051 100.916 106.436 101.4 106.014C101.885 105.588 102.535 105.375 103.352 105.375C104.176 105.375 104.828 105.604 105.309 106.061C105.789 106.518 106.029 107.084 106.029 107.76C106.029 108.104 105.959 108.441 105.818 108.773C105.678 109.105 105.443 109.455 105.115 109.822C104.791 110.189 104.25 110.693 103.492 111.334C102.859 111.865 102.453 112.227 102.273 112.418C102.094 112.605 101.945 112.795 101.828 112.986H106.041Z" fill="black"/>
</svg>
