<svg width="328" height="288" viewBox="0 0 328 288" fill="none" xmlns="http://www.w3.org/2000/svg">
<path d="M317 52L307 46.2265L307 57.7735L317 52ZM256 53L308 53L308 51L256 51L256 53Z" fill="black"/>
<path d="M317 166L307 160.227L307 171.774L317 166ZM256 167L308 167L308 165L256 165L256 167Z" fill="black"/>
<path d="M40 144L30 138.226L30 149.774L40 144ZM8.74228e-08 145L31 145L31 143L-8.74228e-08 143L8.74228e-08 145Z" fill="black"/>
<path d="M317 106L307 100.227L307 111.774L317 106ZM256 107L308 107L308 105L256 105L256 107Z" fill="black"/>
<path d="M317 220L307 214.227L307 225.774L317 220ZM256 221L308 221L308 219L256 219L256 221Z" fill="black"/>
<path d="M317 80L307 74.2265L307 85.7735L317 80ZM256 81L308 81L308 79L256 79L256 81Z" fill="black"/>
<path d="M317 194L307 188.227L307 199.774L317 194ZM256 195L308 195L308 193L256 193L256 195Z" fill="black"/>
<path d="M317 134L307 128.227L307 139.774L317 134ZM256 135L308 135L308 133L256 133L256 135Z" fill="black"/>
<path d="M317 248L307 242.227L307 253.774L317 248ZM256 249L308 249L308 247L256 247L256 249Z" fill="black"/>
<path d="M263.852 45.2324C263.461 45.5645 263.084 45.7988 262.721 45.9355C262.361 46.0723 261.975 46.1406 261.561 46.1406C260.877 46.1406 260.352 45.9746 259.984 45.6426C259.617 45.3066 259.434 44.8789 259.434 44.3594C259.434 44.0547 259.502 43.7773 259.639 43.5273C259.779 43.2734 259.961 43.0703 260.184 42.918C260.41 42.7656 260.664 42.6504 260.945 42.5723C261.152 42.5176 261.465 42.4648 261.883 42.4141C262.734 42.3125 263.361 42.1914 263.764 42.0508C263.768 41.9062 263.77 41.8145 263.77 41.7754C263.77 41.3457 263.67 41.043 263.471 40.8672C263.201 40.6289 262.801 40.5098 262.27 40.5098C261.773 40.5098 261.406 40.5977 261.168 40.7734C260.934 40.9453 260.76 41.252 260.646 41.6934L259.615 41.5527C259.709 41.1113 259.863 40.7559 260.078 40.4863C260.293 40.2129 260.604 40.0039 261.01 39.8594C261.416 39.7109 261.887 39.6367 262.422 39.6367C262.953 39.6367 263.385 39.6992 263.717 39.8242C264.049 39.9492 264.293 40.1074 264.449 40.2988C264.605 40.4863 264.715 40.7246 264.777 41.0137C264.812 41.1934 264.83 41.5176 264.83 41.9863V43.3926C264.83 44.373 264.852 44.9941 264.895 45.2559C264.941 45.5137 265.031 45.7617 265.164 46H264.062C263.953 45.7812 263.883 45.5254 263.852 45.2324ZM263.764 42.877C263.381 43.0332 262.807 43.166 262.041 43.2754C261.607 43.3379 261.301 43.4082 261.121 43.4863C260.941 43.5645 260.803 43.6797 260.705 43.832C260.607 43.9805 260.559 44.1465 260.559 44.3301C260.559 44.6113 260.664 44.8457 260.875 45.0332C261.09 45.2207 261.402 45.3145 261.812 45.3145C262.219 45.3145 262.58 45.2266 262.896 45.0508C263.213 44.8711 263.445 44.627 263.594 44.3184C263.707 44.0801 263.764 43.7285 263.764 43.2637V42.877Z" fill="black"/>
<path d="M264.051 157.996L265.141 158.131C264.969 158.768 264.65 159.262 264.186 159.613C263.721 159.965 263.127 160.141 262.404 160.141C261.494 160.141 260.771 159.861 260.236 159.303C259.705 158.74 259.439 157.953 259.439 156.941C259.439 155.895 259.709 155.082 260.248 154.504C260.787 153.926 261.486 153.637 262.346 153.637C263.178 153.637 263.857 153.92 264.385 154.486C264.912 155.053 265.176 155.85 265.176 156.877C265.176 156.939 265.174 157.033 265.17 157.158H260.529C260.568 157.842 260.762 158.365 261.109 158.729C261.457 159.092 261.891 159.273 262.41 159.273C262.797 159.273 263.127 159.172 263.4 158.969C263.674 158.766 263.891 158.441 264.051 157.996ZM260.588 156.291H264.062C264.016 155.768 263.883 155.375 263.664 155.113C263.328 154.707 262.893 154.504 262.357 154.504C261.873 154.504 261.465 154.666 261.133 154.99C260.805 155.314 260.623 155.748 260.588 156.291Z" fill="black"/>
<path d="M4.79688 129.623V128.41H5.85156V129.623H4.79688ZM4.79688 137V130.777H5.85156V137H4.79688ZM7.46289 137V130.777H8.41211V131.662C8.86914 130.979 9.5293 130.637 10.3926 130.637C10.7676 130.637 11.1113 130.705 11.4238 130.842C11.7402 130.975 11.9766 131.15 12.1328 131.369C12.2891 131.588 12.3984 131.848 12.4609 132.148C12.5 132.344 12.5195 132.686 12.5195 133.174V137H11.4648V133.215C11.4648 132.785 11.4238 132.465 11.3418 132.254C11.2598 132.039 11.1133 131.869 10.9023 131.744C10.6953 131.615 10.4512 131.551 10.1699 131.551C9.7207 131.551 9.33203 131.693 9.00391 131.979C8.67969 132.264 8.51758 132.805 8.51758 133.602V137H7.46289Z" fill="black"/>
<path d="M263.852 97.7207L264.889 97.8555C264.775 98.5703 264.484 99.1309 264.016 99.5371C263.551 99.9395 262.979 100.141 262.299 100.141C261.447 100.141 260.762 99.8633 260.242 99.3086C259.727 98.75 259.469 97.9512 259.469 96.9121C259.469 96.2402 259.58 95.6523 259.803 95.1484C260.025 94.6445 260.363 94.2676 260.816 94.0176C261.273 93.7637 261.77 93.6367 262.305 93.6367C262.98 93.6367 263.533 93.8086 263.963 94.1523C264.393 94.4922 264.668 94.9766 264.789 95.6055L263.764 95.7637C263.666 95.3457 263.492 95.0312 263.242 94.8203C262.996 94.6094 262.697 94.5039 262.346 94.5039C261.814 94.5039 261.383 94.6953 261.051 95.0781C260.719 95.457 260.553 96.0586 260.553 96.8828C260.553 97.7188 260.713 98.3262 261.033 98.7051C261.354 99.084 261.771 99.2734 262.287 99.2734C262.701 99.2734 263.047 99.1465 263.324 98.8926C263.602 98.6387 263.777 98.248 263.852 97.7207Z" fill="black"/>
<path d="M259.598 214.516L260.623 214.668C260.666 214.984 260.785 215.215 260.98 215.359C261.242 215.555 261.6 215.652 262.053 215.652C262.541 215.652 262.918 215.555 263.184 215.359C263.449 215.164 263.629 214.891 263.723 214.539C263.777 214.324 263.803 213.873 263.799 213.186C263.338 213.729 262.764 214 262.076 214C261.221 214 260.559 213.691 260.09 213.074C259.621 212.457 259.387 211.717 259.387 210.854C259.387 210.26 259.494 209.713 259.709 209.213C259.924 208.709 260.234 208.32 260.641 208.047C261.051 207.773 261.531 207.637 262.082 207.637C262.816 207.637 263.422 207.934 263.898 208.527V207.777H264.871V213.156C264.871 214.125 264.771 214.811 264.572 215.213C264.377 215.619 264.064 215.939 263.635 216.174C263.209 216.408 262.684 216.525 262.059 216.525C261.316 216.525 260.717 216.357 260.26 216.021C259.803 215.689 259.582 215.188 259.598 214.516ZM260.471 210.777C260.471 211.594 260.633 212.189 260.957 212.564C261.281 212.939 261.688 213.127 262.176 213.127C262.66 213.127 263.066 212.941 263.395 212.57C263.723 212.195 263.887 211.609 263.887 210.812C263.887 210.051 263.717 209.477 263.377 209.09C263.041 208.703 262.635 208.51 262.158 208.51C261.689 208.51 261.291 208.701 260.963 209.084C260.635 209.463 260.471 210.027 260.471 210.777Z" fill="black"/>
<path d="M260.764 74.2872H259.785V65.6973H260.84V68.7618C261.285 68.2032 261.854 67.9239 262.545 67.9239C262.928 67.9239 263.289 68.002 263.629 68.1583C263.973 68.3106 264.254 68.5274 264.473 68.8087C264.695 69.086 264.869 69.4219 264.994 69.8165C265.119 70.211 265.182 70.6329 265.182 71.0821C265.182 72.1485 264.918 72.9727 264.391 73.5547C263.863 74.1368 263.23 74.4278 262.492 74.4278C261.758 74.4278 261.182 74.1212 260.764 73.5079V74.2872ZM260.752 71.129C260.752 71.8751 260.854 72.4141 261.057 72.7462C261.389 73.2891 261.838 73.5606 262.404 73.5606C262.865 73.5606 263.264 73.3614 263.6 72.963C263.936 72.5606 264.104 71.963 264.104 71.17C264.104 70.3575 263.941 69.7579 263.617 69.3712C263.297 68.9844 262.908 68.7911 262.451 68.7911C261.99 68.7911 261.592 68.9922 261.256 69.3946C260.92 69.793 260.752 70.3712 260.752 71.129Z" fill="black"/>
<path d="M260.043 188.287V182.885H259.111V182.065H260.043V181.402C260.043 180.984 260.08 180.674 260.154 180.471C260.256 180.197 260.434 179.977 260.688 179.809C260.945 179.637 261.305 179.551 261.766 179.551C262.062 179.551 262.391 179.586 262.75 179.656L262.592 180.576C262.373 180.537 262.166 180.518 261.971 180.518C261.65 180.518 261.424 180.586 261.291 180.723C261.158 180.859 261.092 181.115 261.092 181.49V182.065H262.305V182.885H261.092V188.287H260.043Z" fill="black"/>
<path d="M263.828 128.287V127.502C263.434 128.119 262.854 128.428 262.088 128.428C261.592 128.428 261.135 128.291 260.717 128.018C260.303 127.744 259.98 127.363 259.75 126.875C259.523 126.383 259.41 125.818 259.41 125.182C259.41 124.561 259.514 123.998 259.721 123.494C259.928 122.986 260.238 122.598 260.652 122.328C261.066 122.059 261.529 121.924 262.041 121.924C262.416 121.924 262.75 122.004 263.043 122.164C263.336 122.32 263.574 122.525 263.758 122.779V119.697H264.807V128.287H263.828ZM260.494 125.182C260.494 125.979 260.662 126.574 260.998 126.969C261.334 127.363 261.73 127.561 262.188 127.561C262.648 127.561 263.039 127.373 263.359 126.998C263.684 126.619 263.846 126.043 263.846 125.27C263.846 124.418 263.682 123.793 263.354 123.395C263.025 122.996 262.621 122.797 262.141 122.797C261.672 122.797 261.279 122.988 260.963 123.371C260.65 123.754 260.494 124.357 260.494 125.182Z" fill="black"/>
<path d="M259.791 242.287V233.697H260.846V236.779C261.338 236.209 261.959 235.924 262.709 235.924C263.17 235.924 263.57 236.016 263.91 236.199C264.25 236.379 264.492 236.629 264.637 236.949C264.785 237.27 264.859 237.734 264.859 238.344V242.287H263.805V238.344C263.805 237.816 263.689 237.434 263.459 237.195C263.232 236.953 262.91 236.832 262.492 236.832C262.18 236.832 261.885 236.914 261.607 237.078C261.334 237.238 261.139 237.457 261.021 237.734C260.904 238.012 260.846 238.395 260.846 238.883V242.287H259.791Z" fill="black"/>
<path d="M254.5 266.11L43 144L254.5 21.8904L254.5 266.11Z" fill="#D9D9D9" stroke="black" stroke-width="3"/>
<path d="M152.891 149V140.41H154.602L156.635 146.492C156.822 147.059 156.959 147.482 157.045 147.764C157.143 147.451 157.295 146.992 157.502 146.387L159.559 140.41H161.088V149H159.992V141.811L157.496 149H156.471L153.986 141.688V149H152.891ZM166.865 149V148.086C166.381 148.789 165.723 149.141 164.891 149.141C164.523 149.141 164.18 149.07 163.859 148.93C163.543 148.789 163.307 148.613 163.15 148.402C162.998 148.188 162.891 147.926 162.828 147.617C162.785 147.41 162.764 147.082 162.764 146.633V142.777H163.818V146.229C163.818 146.779 163.84 147.15 163.883 147.342C163.949 147.619 164.09 147.838 164.305 147.998C164.52 148.154 164.785 148.232 165.102 148.232C165.418 148.232 165.715 148.152 165.992 147.992C166.27 147.828 166.465 147.607 166.578 147.33C166.695 147.049 166.754 146.643 166.754 146.111V142.777H167.809V149H166.865ZM168.764 149L171.037 145.766L168.934 142.777H170.252L171.207 144.236C171.387 144.514 171.531 144.746 171.641 144.934C171.812 144.676 171.971 144.447 172.115 144.248L173.164 142.777H174.424L172.273 145.707L174.588 149H173.293L172.016 147.066L171.676 146.545L170.041 149H168.764ZM176.797 144.342C176.359 144.182 176.035 143.953 175.824 143.656C175.613 143.359 175.508 143.004 175.508 142.59C175.508 141.965 175.732 141.439 176.182 141.014C176.631 140.588 177.229 140.375 177.975 140.375C178.725 140.375 179.328 140.594 179.785 141.031C180.242 141.465 180.471 141.994 180.471 142.619C180.471 143.018 180.365 143.365 180.154 143.662C179.947 143.955 179.631 144.182 179.205 144.342C179.732 144.514 180.133 144.791 180.406 145.174C180.684 145.557 180.822 146.014 180.822 146.545C180.822 147.279 180.562 147.896 180.043 148.396C179.523 148.896 178.84 149.146 177.992 149.146C177.145 149.146 176.461 148.896 175.941 148.396C175.422 147.893 175.162 147.266 175.162 146.516C175.162 145.957 175.303 145.49 175.584 145.115C175.869 144.736 176.273 144.479 176.797 144.342ZM176.586 142.555C176.586 142.961 176.717 143.293 176.979 143.551C177.24 143.809 177.58 143.938 177.998 143.938C178.404 143.938 178.736 143.811 178.994 143.557C179.256 143.299 179.387 142.984 179.387 142.613C179.387 142.227 179.252 141.902 178.982 141.641C178.717 141.375 178.385 141.242 177.986 141.242C177.584 141.242 177.25 141.371 176.984 141.629C176.719 141.887 176.586 142.195 176.586 142.555ZM176.246 146.521C176.246 146.822 176.316 147.113 176.457 147.395C176.602 147.676 176.814 147.895 177.096 148.051C177.377 148.203 177.68 148.279 178.004 148.279C178.508 148.279 178.924 148.117 179.252 147.793C179.58 147.469 179.744 147.057 179.744 146.557C179.744 146.049 179.574 145.629 179.234 145.297C178.898 144.965 178.477 144.799 177.969 144.799C177.473 144.799 177.061 144.963 176.732 145.291C176.408 145.619 176.246 146.029 176.246 146.521ZM183.781 149L181.502 140.41H182.668L183.975 146.041C184.115 146.631 184.236 147.217 184.338 147.799C184.557 146.881 184.686 146.352 184.725 146.211L186.359 140.41H187.73L188.961 144.758C189.27 145.836 189.492 146.85 189.629 147.799C189.738 147.256 189.881 146.633 190.057 145.93L191.404 140.41H192.547L190.191 149H189.096L187.285 142.455C187.133 141.908 187.043 141.572 187.016 141.447C186.926 141.842 186.842 142.178 186.764 142.455L184.941 149H183.781ZM197.094 148.232C196.703 148.564 196.326 148.799 195.963 148.936C195.604 149.072 195.217 149.141 194.803 149.141C194.119 149.141 193.594 148.975 193.227 148.643C192.859 148.307 192.676 147.879 192.676 147.359C192.676 147.055 192.744 146.777 192.881 146.527C193.021 146.273 193.203 146.07 193.426 145.918C193.652 145.766 193.906 145.65 194.188 145.572C194.395 145.518 194.707 145.465 195.125 145.414C195.977 145.312 196.604 145.191 197.006 145.051C197.01 144.906 197.012 144.814 197.012 144.775C197.012 144.346 196.912 144.043 196.713 143.867C196.443 143.629 196.043 143.51 195.512 143.51C195.016 143.51 194.648 143.598 194.41 143.773C194.176 143.945 194.002 144.252 193.889 144.693L192.857 144.553C192.951 144.111 193.105 143.756 193.32 143.486C193.535 143.213 193.846 143.004 194.252 142.859C194.658 142.711 195.129 142.637 195.664 142.637C196.195 142.637 196.627 142.699 196.959 142.824C197.291 142.949 197.535 143.107 197.691 143.299C197.848 143.486 197.957 143.725 198.02 144.014C198.055 144.193 198.072 144.518 198.072 144.986V146.393C198.072 147.373 198.094 147.994 198.137 148.256C198.184 148.514 198.273 148.762 198.406 149H197.305C197.195 148.781 197.125 148.525 197.094 148.232ZM197.006 145.877C196.623 146.033 196.049 146.166 195.283 146.275C194.85 146.338 194.543 146.408 194.363 146.486C194.184 146.564 194.045 146.68 193.947 146.832C193.85 146.98 193.801 147.146 193.801 147.33C193.801 147.611 193.906 147.846 194.117 148.033C194.332 148.221 194.645 148.314 195.055 148.314C195.461 148.314 195.822 148.227 196.139 148.051C196.455 147.871 196.688 147.627 196.836 147.318C196.949 147.08 197.006 146.729 197.006 146.264V145.877ZM199.666 151.396L199.549 150.406C199.779 150.469 199.98 150.5 200.152 150.5C200.387 150.5 200.574 150.461 200.715 150.383C200.855 150.305 200.971 150.195 201.061 150.055C201.127 149.949 201.234 149.688 201.383 149.27C201.402 149.211 201.434 149.125 201.477 149.012L199.115 142.777H200.252L201.547 146.381C201.715 146.838 201.865 147.318 201.998 147.822C202.119 147.338 202.264 146.865 202.432 146.404L203.762 142.777H204.816L202.449 149.105C202.195 149.789 201.998 150.26 201.857 150.518C201.67 150.865 201.455 151.119 201.213 151.279C200.971 151.443 200.682 151.525 200.346 151.525C200.143 151.525 199.916 151.482 199.666 151.396Z" fill="black"/>
<path d="M155 213L149.226 223L160.774 223L155 213ZM156 261L156 222L154 222L154 261L156 261Z" fill="black"/>
<path d="M135.369 257.143L136.412 256.979C136.471 257.396 136.633 257.717 136.898 257.939C137.168 258.162 137.543 258.273 138.023 258.273C138.508 258.273 138.867 258.176 139.102 257.98C139.336 257.781 139.453 257.549 139.453 257.283C139.453 257.045 139.35 256.857 139.143 256.721C138.998 256.627 138.639 256.508 138.064 256.363C137.291 256.168 136.754 256 136.453 255.859C136.156 255.715 135.93 255.518 135.773 255.268C135.621 255.014 135.545 254.734 135.545 254.43C135.545 254.152 135.607 253.896 135.732 253.662C135.861 253.424 136.035 253.227 136.254 253.07C136.418 252.949 136.641 252.848 136.922 252.766C137.207 252.68 137.512 252.637 137.836 252.637C138.324 252.637 138.752 252.707 139.119 252.848C139.49 252.988 139.764 253.18 139.939 253.422C140.115 253.66 140.236 253.98 140.303 254.383L139.271 254.523C139.225 254.203 139.088 253.953 138.861 253.773C138.639 253.594 138.322 253.504 137.912 253.504C137.428 253.504 137.082 253.584 136.875 253.744C136.668 253.904 136.564 254.092 136.564 254.307C136.564 254.443 136.607 254.566 136.693 254.676C136.779 254.789 136.914 254.883 137.098 254.957C137.203 254.996 137.514 255.086 138.029 255.227C138.775 255.426 139.295 255.59 139.588 255.719C139.885 255.844 140.117 256.027 140.285 256.27C140.453 256.512 140.537 256.812 140.537 257.172C140.537 257.523 140.434 257.855 140.227 258.168C140.023 258.477 139.729 258.717 139.342 258.889C138.955 259.057 138.518 259.141 138.029 259.141C137.221 259.141 136.604 258.973 136.178 258.637C135.756 258.301 135.486 257.803 135.369 257.143ZM146.051 256.996L147.141 257.131C146.969 257.768 146.65 258.262 146.186 258.613C145.721 258.965 145.127 259.141 144.404 259.141C143.494 259.141 142.771 258.861 142.236 258.303C141.705 257.74 141.439 256.953 141.439 255.941C141.439 254.895 141.709 254.082 142.248 253.504C142.787 252.926 143.486 252.637 144.346 252.637C145.178 252.637 145.857 252.92 146.385 253.486C146.912 254.053 147.176 254.85 147.176 255.877C147.176 255.939 147.174 256.033 147.17 256.158H142.529C142.568 256.842 142.762 257.365 143.109 257.729C143.457 258.092 143.891 258.273 144.41 258.273C144.797 258.273 145.127 258.172 145.4 257.969C145.674 257.766 145.891 257.441 146.051 256.996ZM142.588 255.291H146.062C146.016 254.768 145.883 254.375 145.664 254.113C145.328 253.707 144.893 253.504 144.357 253.504C143.873 253.504 143.465 253.666 143.133 253.99C142.805 254.314 142.623 254.748 142.588 255.291ZM148.447 259V250.41H149.502V259H148.447Z" fill="black"/>
<line x1="164.354" y1="225.354" x2="146.354" y2="243.354" stroke="black"/>
<path d="M162.504 239.732L163.559 239.592C163.68 240.189 163.885 240.621 164.174 240.887C164.467 241.148 164.822 241.279 165.24 241.279C165.736 241.279 166.154 241.107 166.494 240.764C166.838 240.42 167.01 239.994 167.01 239.486C167.01 239.002 166.852 238.604 166.535 238.291C166.219 237.975 165.816 237.816 165.328 237.816C165.129 237.816 164.881 237.855 164.584 237.934L164.701 237.008C164.771 237.016 164.828 237.02 164.871 237.02C165.32 237.02 165.725 236.902 166.084 236.668C166.443 236.434 166.623 236.072 166.623 235.584C166.623 235.197 166.492 234.877 166.23 234.623C165.969 234.369 165.631 234.242 165.217 234.242C164.807 234.242 164.465 234.371 164.191 234.629C163.918 234.887 163.742 235.273 163.664 235.789L162.609 235.602C162.738 234.895 163.031 234.348 163.488 233.961C163.945 233.57 164.514 233.375 165.193 233.375C165.662 233.375 166.094 233.477 166.488 233.68C166.883 233.879 167.184 234.152 167.391 234.5C167.602 234.848 167.707 235.217 167.707 235.607C167.707 235.979 167.607 236.316 167.408 236.621C167.209 236.926 166.914 237.168 166.523 237.348C167.031 237.465 167.426 237.709 167.707 238.08C167.988 238.447 168.129 238.908 168.129 239.463C168.129 240.213 167.855 240.85 167.309 241.373C166.762 241.893 166.07 242.152 165.234 242.152C164.48 242.152 163.854 241.928 163.354 241.479C162.857 241.029 162.574 240.447 162.504 239.732Z" fill="black"/>
</svg>
