<svg width="491" height="233" viewBox="0 0 491 233" fill="none" xmlns="http://www.w3.org/2000/svg">
<mask id="path-1-inside-1_92_844" fill="white">
<path fill-rule="evenodd" clip-rule="evenodd" d="M301 33H249V83H301C314.807 83 326 71.8071 326 58C326 44.1929 314.807 33 301 33Z"/>
</mask>
<path fill-rule="evenodd" clip-rule="evenodd" d="M301 33H249V83H301C314.807 83 326 71.8071 326 58C326 44.1929 314.807 33 301 33Z" fill="#D9D9D9"/>
<path d="M249 33V31H247V33H249ZM249 83H247V85H249V83ZM249 35H301V31H249V35ZM251 83V33H247V83H251ZM301 81H249V85H301V81ZM324 58C324 70.7025 313.703 81 301 81V85C315.912 85 328 72.9117 328 58H324ZM301 35C313.703 35 324 45.2975 324 58H328C328 43.0883 315.912 31 301 31V35Z" fill="black" mask="url(#path-1-inside-1_92_844)"/>
<line x1="227" y1="43" x2="249" y2="43" stroke="black" stroke-width="2"/>
<line x1="227" y1="73" x2="249" y2="73" stroke="black" stroke-width="2"/>
<line x1="326" y1="58" x2="348" y2="58" stroke="black" stroke-width="2"/>
<path d="M236.852 36.2324C236.461 36.5645 236.084 36.7988 235.721 36.9355C235.361 37.0723 234.975 37.1406 234.561 37.1406C233.877 37.1406 233.352 36.9746 232.984 36.6426C232.617 36.3066 232.434 35.8789 232.434 35.3594C232.434 35.0547 232.502 34.7773 232.639 34.5273C232.779 34.2734 232.961 34.0703 233.184 33.918C233.41 33.7656 233.664 33.6504 233.945 33.5723C234.152 33.5176 234.465 33.4648 234.883 33.4141C235.734 33.3125 236.361 33.1914 236.764 33.0508C236.768 32.9062 236.77 32.8145 236.77 32.7754C236.77 32.3457 236.67 32.043 236.471 31.8672C236.201 31.6289 235.801 31.5098 235.27 31.5098C234.773 31.5098 234.406 31.5977 234.168 31.7734C233.934 31.9453 233.76 32.252 233.646 32.6934L232.615 32.5527C232.709 32.1113 232.863 31.7559 233.078 31.4863C233.293 31.2129 233.604 31.0039 234.01 30.8594C234.416 30.7109 234.887 30.6367 235.422 30.6367C235.953 30.6367 236.385 30.6992 236.717 30.8242C237.049 30.9492 237.293 31.1074 237.449 31.2988C237.605 31.4863 237.715 31.7246 237.777 32.0137C237.812 32.1934 237.83 32.5176 237.83 32.9863V34.3926C237.83 35.373 237.852 35.9941 237.895 36.2559C237.941 36.5137 238.031 36.7617 238.164 37H237.062C236.953 36.7812 236.883 36.5254 236.852 36.2324ZM236.764 33.877C236.381 34.0332 235.807 34.166 235.041 34.2754C234.607 34.3379 234.301 34.4082 234.121 34.4863C233.941 34.5645 233.803 34.6797 233.705 34.832C233.607 34.9805 233.559 35.1465 233.559 35.3301C233.559 35.6113 233.664 35.8457 233.875 36.0332C234.09 36.2207 234.402 36.3145 234.812 36.3145C235.219 36.3145 235.58 36.2266 235.896 36.0508C236.213 35.8711 236.445 35.627 236.594 35.3184C236.707 35.0801 236.764 34.7285 236.764 34.2637V33.877Z" fill="black"/>
<path d="M280.619 63H278.732L277.982 61.0488H274.549L273.84 63H272L275.346 54.4102H277.18L280.619 63ZM277.426 59.6016L276.242 56.4141L275.082 59.6016H277.426ZM287.193 63H285.547V59.8242C285.547 59.1523 285.512 58.7188 285.441 58.5234C285.371 58.3242 285.256 58.1699 285.096 58.0605C284.939 57.9512 284.75 57.8965 284.527 57.8965C284.242 57.8965 283.986 57.9746 283.76 58.1309C283.533 58.2871 283.377 58.4941 283.291 58.752C283.209 59.0098 283.168 59.4863 283.168 60.1816V63H281.521V56.7773H283.051V57.6914C283.594 56.9883 284.277 56.6367 285.102 56.6367C285.465 56.6367 285.797 56.7031 286.098 56.8359C286.398 56.9648 286.625 57.1309 286.777 57.334C286.934 57.5371 287.041 57.7676 287.1 58.0254C287.162 58.2832 287.193 58.6523 287.193 59.1328V63ZM294.576 63H293.047V62.0859C292.793 62.4414 292.492 62.707 292.145 62.8828C291.801 63.0547 291.453 63.1406 291.102 63.1406C290.387 63.1406 289.773 62.8535 289.262 62.2793C288.754 61.7012 288.5 60.8965 288.5 59.8652C288.5 58.8105 288.748 58.0098 289.244 57.4629C289.74 56.9121 290.367 56.6367 291.125 56.6367C291.82 56.6367 292.422 56.9258 292.93 57.5039V54.4102H294.576V63ZM290.182 59.7539C290.182 60.418 290.273 60.8984 290.457 61.1953C290.723 61.625 291.094 61.8398 291.57 61.8398C291.949 61.8398 292.271 61.6797 292.537 61.3594C292.803 61.0352 292.936 60.5527 292.936 59.9121C292.936 59.1973 292.807 58.6836 292.549 58.3711C292.291 58.0547 291.961 57.8965 291.559 57.8965C291.168 57.8965 290.84 58.0527 290.574 58.3652C290.312 58.6738 290.182 59.1367 290.182 59.7539Z" fill="black"/>
<path d="M233.764 69H232.785V60.4102H233.84V63.4746C234.285 62.916 234.854 62.6367 235.545 62.6367C235.928 62.6367 236.289 62.7148 236.629 62.8711C236.973 63.0234 237.254 63.2402 237.473 63.5215C237.695 63.7988 237.869 64.1348 237.994 64.5293C238.119 64.9238 238.182 65.3457 238.182 65.7949C238.182 66.8613 237.918 67.6855 237.391 68.2676C236.863 68.8496 236.23 69.1406 235.492 69.1406C234.758 69.1406 234.182 68.834 233.764 68.2207V69ZM233.752 65.8418C233.752 66.5879 233.854 67.127 234.057 67.459C234.389 68.002 234.838 68.2734 235.404 68.2734C235.865 68.2734 236.264 68.0742 236.6 67.6758C236.936 67.2734 237.104 66.6758 237.104 65.8828C237.104 65.0703 236.941 64.4707 236.617 64.084C236.297 63.6973 235.908 63.5039 235.451 63.5039C234.99 63.5039 234.592 63.7051 234.256 64.1074C233.92 64.5059 233.752 65.084 233.752 65.8418Z" fill="black"/>
<path d="M330.398 49.8887C330.398 48.7363 330.719 47.8828 331.359 47.3281C331.895 46.8672 332.547 46.6367 333.316 46.6367C334.172 46.6367 334.871 46.918 335.414 47.4805C335.957 48.0391 336.229 48.8125 336.229 49.8008C336.229 50.6016 336.107 51.2324 335.865 51.6934C335.627 52.1504 335.277 52.5059 334.816 52.7598C334.359 53.0137 333.859 53.1406 333.316 53.1406C332.445 53.1406 331.74 52.8613 331.201 52.3027C330.666 51.7441 330.398 50.9395 330.398 49.8887ZM331.482 49.8887C331.482 50.6855 331.656 51.2832 332.004 51.6816C332.352 52.0762 332.789 52.2734 333.316 52.2734C333.84 52.2734 334.275 52.0742 334.623 51.6758C334.971 51.2773 335.145 50.6699 335.145 49.8535C335.145 49.084 334.969 48.502 334.617 48.1074C334.27 47.709 333.836 47.5098 333.316 47.5098C332.789 47.5098 332.352 47.707 332.004 48.1016C331.656 48.4961 331.482 49.0918 331.482 49.8887ZM341.549 53V52.0859C341.064 52.7891 340.406 53.1406 339.574 53.1406C339.207 53.1406 338.863 53.0703 338.543 52.9297C338.227 52.7891 337.99 52.6133 337.834 52.4023C337.682 52.1875 337.574 51.9258 337.512 51.6172C337.469 51.4102 337.447 51.082 337.447 50.6328V46.7773H338.502V50.2285C338.502 50.7793 338.523 51.1504 338.566 51.3418C338.633 51.6191 338.773 51.8379 338.988 51.998C339.203 52.1543 339.469 52.2324 339.785 52.2324C340.102 52.2324 340.398 52.1523 340.676 51.9922C340.953 51.8281 341.148 51.6074 341.262 51.3301C341.379 51.0488 341.438 50.6426 341.438 50.1113V46.7773H342.492V53H341.549ZM346.453 52.0566L346.605 52.9883C346.309 53.0508 346.043 53.082 345.809 53.082C345.426 53.082 345.129 53.0215 344.918 52.9004C344.707 52.7793 344.559 52.6211 344.473 52.4258C344.387 52.2266 344.344 51.8105 344.344 51.1777V47.5977H343.57V46.7773H344.344V45.2363L345.393 44.6035V46.7773H346.453V47.5977H345.393V51.2363C345.393 51.5371 345.41 51.7305 345.445 51.8164C345.484 51.9023 345.545 51.9707 345.627 52.0215C345.713 52.0723 345.834 52.0977 345.99 52.0977C346.107 52.0977 346.262 52.084 346.453 52.0566Z" fill="black"/>
<path d="M25.8496 11V2.41016H28.4453L30.0039 8.26953L31.5449 2.41016H34.1465V11H32.5352V4.23828L30.8301 11H29.1602L27.4609 4.23828V11H25.8496ZM39.9531 11V10.0684C39.7266 10.4004 39.4277 10.6621 39.0566 10.8535C38.6895 11.0449 38.3008 11.1406 37.8906 11.1406C37.4727 11.1406 37.0977 11.0488 36.7656 10.8652C36.4336 10.6816 36.1934 10.4238 36.0449 10.0918C35.8965 9.75977 35.8223 9.30078 35.8223 8.71484V4.77734H37.4688V7.63672C37.4688 8.51172 37.498 9.04883 37.5566 9.24805C37.6191 9.44336 37.7305 9.59961 37.8906 9.7168C38.0508 9.83008 38.2539 9.88672 38.5 9.88672C38.7812 9.88672 39.0332 9.81055 39.2559 9.6582C39.4785 9.50195 39.6309 9.31055 39.7129 9.08398C39.7949 8.85352 39.8359 8.29297 39.8359 7.40234V4.77734H41.4824V11H39.9531ZM42.4023 11L44.6465 7.79492L42.4961 4.77734H44.5059L45.6074 6.48828L46.7676 4.77734H48.7012L46.5918 7.72461L48.8945 11H46.873L45.6074 9.07227L44.3301 11H42.4023Z" fill="black"/>
<path d="M327.398 68.8887C327.398 67.7363 327.719 66.8828 328.359 66.3281C328.895 65.8672 329.547 65.6367 330.316 65.6367C331.172 65.6367 331.871 65.918 332.414 66.4805C332.957 67.0391 333.229 67.8125 333.229 68.8008C333.229 69.6016 333.107 70.2324 332.865 70.6934C332.627 71.1504 332.277 71.5059 331.816 71.7598C331.359 72.0137 330.859 72.1406 330.316 72.1406C329.445 72.1406 328.74 71.8613 328.201 71.3027C327.666 70.7441 327.398 69.9395 327.398 68.8887ZM328.482 68.8887C328.482 69.6855 328.656 70.2832 329.004 70.6816C329.352 71.0762 329.789 71.2734 330.316 71.2734C330.84 71.2734 331.275 71.0742 331.623 70.6758C331.971 70.2773 332.145 69.6699 332.145 68.8535C332.145 68.084 331.969 67.502 331.617 67.1074C331.27 66.709 330.836 66.5098 330.316 66.5098C329.789 66.5098 329.352 66.707 329.004 67.1016C328.656 67.4961 328.482 68.0918 328.482 68.8887ZM339.721 70.9863V72H334.043C334.035 71.7461 334.076 71.502 334.166 71.2676C334.311 70.8809 334.541 70.5 334.857 70.125C335.178 69.75 335.639 69.3164 336.24 68.8242C337.174 68.0586 337.805 67.4531 338.133 67.0078C338.461 66.5586 338.625 66.1348 338.625 65.7363C338.625 65.3184 338.475 64.9668 338.174 64.6816C337.877 64.3926 337.488 64.248 337.008 64.248C336.5 64.248 336.094 64.4004 335.789 64.7051C335.484 65.0098 335.33 65.4316 335.326 65.9707L334.242 65.8594C334.316 65.0508 334.596 64.4355 335.08 64.0137C335.564 63.5879 336.215 63.375 337.031 63.375C337.855 63.375 338.508 63.6035 338.988 64.0605C339.469 64.5176 339.709 65.084 339.709 65.7598C339.709 66.1035 339.639 66.4414 339.498 66.7734C339.357 67.1055 339.123 67.4551 338.795 67.8223C338.471 68.1895 337.93 68.6934 337.172 69.334C336.539 69.8652 336.133 70.2266 335.953 70.418C335.773 70.6055 335.625 70.7949 335.508 70.9863H339.721Z" fill="black"/>
<line x1="185" y1="115.8" x2="225" y2="115.8" stroke="black" stroke-width="2.4"/>
<path d="M86.7969 100.623V99.4102H87.8516V100.623H86.7969ZM86.7969 108V101.777H87.8516V108H86.7969ZM89.4629 108V101.777H90.4121V102.662C90.8691 101.979 91.5293 101.637 92.3926 101.637C92.7676 101.637 93.1113 101.705 93.4238 101.842C93.7402 101.975 93.9766 102.15 94.1328 102.369C94.2891 102.588 94.3984 102.848 94.4609 103.148C94.5 103.344 94.5195 103.686 94.5195 104.174V108H93.4648V104.215C93.4648 103.785 93.4238 103.465 93.3418 103.254C93.2598 103.039 93.1133 102.869 92.9023 102.744C92.6953 102.615 92.4512 102.551 92.1699 102.551C91.7207 102.551 91.332 102.693 91.0039 102.979C90.6797 103.264 90.5176 103.805 90.5176 104.602V108H89.4629Z" fill="black"/>
<line x1="79" y1="115.8" x2="126" y2="115.8" stroke="black" stroke-width="2.4"/>
<path d="M206.398 102.889C206.398 101.736 206.719 100.883 207.359 100.328C207.895 99.8672 208.547 99.6367 209.316 99.6367C210.172 99.6367 210.871 99.918 211.414 100.48C211.957 101.039 212.229 101.812 212.229 102.801C212.229 103.602 212.107 104.232 211.865 104.693C211.627 105.15 211.277 105.506 210.816 105.76C210.359 106.014 209.859 106.141 209.316 106.141C208.445 106.141 207.74 105.861 207.201 105.303C206.666 104.744 206.398 103.939 206.398 102.889ZM207.482 102.889C207.482 103.686 207.656 104.283 208.004 104.682C208.352 105.076 208.789 105.273 209.316 105.273C209.84 105.273 210.275 105.074 210.623 104.676C210.971 104.277 211.145 103.67 211.145 102.854C211.145 102.084 210.969 101.502 210.617 101.107C210.27 100.709 209.836 100.51 209.316 100.51C208.789 100.51 208.352 100.707 208.004 101.102C207.656 101.496 207.482 102.092 207.482 102.889ZM217.549 106V105.086C217.064 105.789 216.406 106.141 215.574 106.141C215.207 106.141 214.863 106.07 214.543 105.93C214.227 105.789 213.99 105.613 213.834 105.402C213.682 105.188 213.574 104.926 213.512 104.617C213.469 104.41 213.447 104.082 213.447 103.633V99.7773H214.502V103.229C214.502 103.779 214.523 104.15 214.566 104.342C214.633 104.619 214.773 104.838 214.988 104.998C215.203 105.154 215.469 105.232 215.785 105.232C216.102 105.232 216.398 105.152 216.676 104.992C216.953 104.828 217.148 104.607 217.262 104.33C217.379 104.049 217.438 103.643 217.438 103.111V99.7773H218.492V106H217.549ZM222.453 105.057L222.605 105.988C222.309 106.051 222.043 106.082 221.809 106.082C221.426 106.082 221.129 106.021 220.918 105.9C220.707 105.779 220.559 105.621 220.473 105.426C220.387 105.227 220.344 104.811 220.344 104.178V100.598H219.57V99.7773H220.344V98.2363L221.393 97.6035V99.7773H222.453V100.598H221.393V104.236C221.393 104.537 221.41 104.73 221.445 104.816C221.484 104.902 221.545 104.971 221.627 105.021C221.713 105.072 221.834 105.098 221.99 105.098C222.107 105.098 222.262 105.084 222.453 105.057Z" fill="black"/>
<path d="M126.4 85.0785L180.4 116.255L126.4 147.432L126.4 85.0785Z" fill="#D9D9D9" stroke="black" stroke-width="2.4"/>
<circle cx="187.4" cy="116.255" r="6" fill="#D9D9D9" stroke="black" stroke-width="2.4"/>
<path d="M129.891 119.855V111.266H131.578L135.094 117.002V111.266H136.705V119.855H134.965L131.502 114.254V119.855H129.891ZM138.152 116.656C138.152 116.109 138.287 115.58 138.557 115.068C138.826 114.557 139.207 114.166 139.699 113.896C140.195 113.627 140.748 113.492 141.357 113.492C142.299 113.492 143.07 113.799 143.672 114.412C144.273 115.021 144.574 115.793 144.574 116.726C144.574 117.668 144.27 118.449 143.66 119.07C143.055 119.687 142.291 119.996 141.369 119.996C140.799 119.996 140.254 119.867 139.734 119.609C139.219 119.351 138.826 118.975 138.557 118.478C138.287 117.978 138.152 117.371 138.152 116.656ZM139.84 116.744C139.84 117.361 139.986 117.834 140.279 118.162C140.572 118.49 140.934 118.654 141.363 118.654C141.793 118.654 142.152 118.49 142.441 118.162C142.734 117.834 142.881 117.357 142.881 116.732C142.881 116.123 142.734 115.654 142.441 115.326C142.152 114.998 141.793 114.834 141.363 114.834C140.934 114.834 140.572 114.998 140.279 115.326C139.986 115.654 139.84 116.127 139.84 116.744ZM148.723 113.633V114.945H147.598V117.453C147.598 117.961 147.607 118.258 147.627 118.344C147.65 118.426 147.699 118.494 147.773 118.549C147.852 118.603 147.945 118.631 148.055 118.631C148.207 118.631 148.428 118.578 148.717 118.473L148.857 119.75C148.475 119.914 148.041 119.996 147.557 119.996C147.26 119.996 146.992 119.947 146.754 119.85C146.516 119.748 146.34 119.619 146.227 119.463C146.117 119.303 146.041 119.088 145.998 118.818C145.963 118.627 145.945 118.24 145.945 117.658V114.945H145.189V113.633H145.945V112.396L147.598 111.435V113.633H148.723Z" fill="black"/>
<path d="M197.398 128.889C197.398 127.736 197.719 126.883 198.359 126.328C198.895 125.867 199.547 125.637 200.316 125.637C201.172 125.637 201.871 125.918 202.414 126.48C202.957 127.039 203.229 127.812 203.229 128.801C203.229 129.602 203.107 130.232 202.865 130.693C202.627 131.15 202.277 131.506 201.816 131.76C201.359 132.014 200.859 132.141 200.316 132.141C199.445 132.141 198.74 131.861 198.201 131.303C197.666 130.744 197.398 129.939 197.398 128.889ZM198.482 128.889C198.482 129.686 198.656 130.283 199.004 130.682C199.352 131.076 199.789 131.273 200.316 131.273C200.84 131.273 201.275 131.074 201.623 130.676C201.971 130.277 202.145 129.67 202.145 128.854C202.145 128.084 201.969 127.502 201.617 127.107C201.27 126.709 200.836 126.51 200.316 126.51C199.789 126.51 199.352 126.707 199.004 127.102C198.656 127.496 198.482 128.092 198.482 128.889ZM208.15 132H207.096V125.279C206.842 125.521 206.508 125.764 206.094 126.006C205.684 126.248 205.314 126.43 204.986 126.551V125.531C205.576 125.254 206.092 124.918 206.533 124.523C206.975 124.129 207.287 123.746 207.471 123.375H208.15V132Z" fill="black"/>
<line x1="443" y1="134" x2="466" y2="134" stroke="black" stroke-width="2"/>
<line x1="348" y1="120" x2="378" y2="120" stroke="black" stroke-width="2"/>
<line x1="348" y1="149" x2="378" y2="149" stroke="black" stroke-width="2"/>
<path d="M357.852 113.232C357.461 113.564 357.084 113.799 356.721 113.936C356.361 114.072 355.975 114.141 355.561 114.141C354.877 114.141 354.352 113.975 353.984 113.643C353.617 113.307 353.434 112.879 353.434 112.359C353.434 112.055 353.502 111.777 353.639 111.527C353.779 111.273 353.961 111.07 354.184 110.918C354.41 110.766 354.664 110.65 354.945 110.572C355.152 110.518 355.465 110.465 355.883 110.414C356.734 110.312 357.361 110.191 357.764 110.051C357.768 109.906 357.77 109.814 357.77 109.775C357.77 109.346 357.67 109.043 357.471 108.867C357.201 108.629 356.801 108.51 356.27 108.51C355.773 108.51 355.406 108.598 355.168 108.773C354.934 108.945 354.76 109.252 354.646 109.693L353.615 109.553C353.709 109.111 353.863 108.756 354.078 108.486C354.293 108.213 354.604 108.004 355.01 107.859C355.416 107.711 355.887 107.637 356.422 107.637C356.953 107.637 357.385 107.699 357.717 107.824C358.049 107.949 358.293 108.107 358.449 108.299C358.605 108.486 358.715 108.725 358.777 109.014C358.812 109.193 358.83 109.518 358.83 109.986V111.393C358.83 112.373 358.852 112.994 358.895 113.256C358.941 113.514 359.031 113.762 359.164 114H358.062C357.953 113.781 357.883 113.525 357.852 113.232ZM357.764 110.877C357.381 111.033 356.807 111.166 356.041 111.275C355.607 111.338 355.301 111.408 355.121 111.486C354.941 111.564 354.803 111.68 354.705 111.832C354.607 111.98 354.559 112.146 354.559 112.33C354.559 112.611 354.664 112.846 354.875 113.033C355.09 113.221 355.402 113.314 355.812 113.314C356.219 113.314 356.58 113.227 356.896 113.051C357.213 112.871 357.445 112.627 357.594 112.318C357.707 112.08 357.764 111.729 357.764 111.264V110.877Z" fill="black"/>
<path d="M354.764 143H353.785V134.41H354.84V137.475C355.285 136.916 355.854 136.637 356.545 136.637C356.928 136.637 357.289 136.715 357.629 136.871C357.973 137.023 358.254 137.24 358.473 137.521C358.695 137.799 358.869 138.135 358.994 138.529C359.119 138.924 359.182 139.346 359.182 139.795C359.182 140.861 358.918 141.686 358.391 142.268C357.863 142.85 357.23 143.141 356.492 143.141C355.758 143.141 355.182 142.834 354.764 142.221V143ZM354.752 139.842C354.752 140.588 354.854 141.127 355.057 141.459C355.389 142.002 355.838 142.273 356.404 142.273C356.865 142.273 357.264 142.074 357.6 141.676C357.936 141.273 358.104 140.676 358.104 139.883C358.104 139.07 357.941 138.471 357.617 138.084C357.297 137.697 356.908 137.504 356.451 137.504C355.99 137.504 355.592 137.705 355.256 138.107C354.92 138.506 354.752 139.084 354.752 139.842Z" fill="black"/>
<path d="M447.398 125.889C447.398 124.736 447.719 123.883 448.359 123.328C448.895 122.867 449.547 122.637 450.316 122.637C451.172 122.637 451.871 122.918 452.414 123.48C452.957 124.039 453.229 124.812 453.229 125.801C453.229 126.602 453.107 127.232 452.865 127.693C452.627 128.15 452.277 128.506 451.816 128.76C451.359 129.014 450.859 129.141 450.316 129.141C449.445 129.141 448.74 128.861 448.201 128.303C447.666 127.744 447.398 126.939 447.398 125.889ZM448.482 125.889C448.482 126.686 448.656 127.283 449.004 127.682C449.352 128.076 449.789 128.273 450.316 128.273C450.84 128.273 451.275 128.074 451.623 127.676C451.971 127.277 452.145 126.67 452.145 125.854C452.145 125.084 451.969 124.502 451.617 124.107C451.27 123.709 450.836 123.51 450.316 123.51C449.789 123.51 449.352 123.707 449.004 124.102C448.656 124.496 448.482 125.092 448.482 125.889ZM458.549 129V128.086C458.064 128.789 457.406 129.141 456.574 129.141C456.207 129.141 455.863 129.07 455.543 128.93C455.227 128.789 454.99 128.613 454.834 128.402C454.682 128.188 454.574 127.926 454.512 127.617C454.469 127.41 454.447 127.082 454.447 126.633V122.777H455.502V126.229C455.502 126.779 455.523 127.15 455.566 127.342C455.633 127.619 455.773 127.838 455.988 127.998C456.203 128.154 456.469 128.232 456.785 128.232C457.102 128.232 457.398 128.152 457.676 127.992C457.953 127.828 458.148 127.607 458.262 127.33C458.379 127.049 458.438 126.643 458.438 126.111V122.777H459.492V129H458.549ZM463.453 128.057L463.605 128.988C463.309 129.051 463.043 129.082 462.809 129.082C462.426 129.082 462.129 129.021 461.918 128.9C461.707 128.779 461.559 128.621 461.473 128.426C461.387 128.227 461.344 127.811 461.344 127.178V123.598H460.57V122.777H461.344V121.236L462.393 120.604V122.777H463.453V123.598H462.393V127.236C462.393 127.537 462.41 127.73 462.445 127.816C462.484 127.902 462.545 127.971 462.627 128.021C462.713 128.072 462.834 128.098 462.99 128.098C463.107 128.098 463.262 128.084 463.453 128.057Z" fill="black"/>
<mask id="path-26-inside-2_92_844" fill="white">
<path fill-rule="evenodd" clip-rule="evenodd" d="M371.602 160.86C376.884 153.601 380 144.664 380 135C380 124.399 376.25 114.673 370.005 107.076C398.183 108.032 424.094 117.921 444.996 134C424.489 149.775 399.161 159.591 371.602 160.86Z"/>
</mask>
<path fill-rule="evenodd" clip-rule="evenodd" d="M371.602 160.86C376.884 153.601 380 144.664 380 135C380 124.399 376.25 114.673 370.005 107.076C398.183 108.032 424.094 117.921 444.996 134C424.489 149.775 399.161 159.591 371.602 160.86Z" fill="#D9D9D9"/>
<path d="M371.602 160.86L369.985 159.683L367.536 163.049L371.694 162.858L371.602 160.86ZM370.005 107.076L370.073 105.077L365.65 104.927L368.46 108.346L370.005 107.076ZM444.996 134L446.216 135.585L448.277 134L446.216 132.415L444.996 134ZM373.22 162.037C378.742 154.447 382 145.101 382 135H378C378 144.227 375.026 152.754 369.985 159.683L373.22 162.037ZM382 135C382 123.918 378.079 113.747 371.55 105.806L368.46 108.346C374.422 115.598 378 124.879 378 135H382ZM369.938 109.075C397.683 110.017 423.194 119.753 443.777 135.585L446.216 132.415C424.993 116.09 398.682 106.048 370.073 105.077L369.938 109.075ZM443.777 132.415C423.584 147.948 398.647 157.613 371.51 158.862L371.694 162.858C399.676 161.57 425.395 151.601 446.216 135.585L443.777 132.415Z" fill="black" mask="url(#path-26-inside-2_92_844)"/>
<path d="M392.521 134.758C392.521 133.883 392.652 133.148 392.914 132.555C393.109 132.117 393.375 131.725 393.711 131.377C394.051 131.029 394.422 130.771 394.824 130.604C395.359 130.377 395.977 130.264 396.676 130.264C397.941 130.264 398.953 130.656 399.711 131.441C400.473 132.227 400.854 133.318 400.854 134.717C400.854 136.104 400.477 137.189 399.723 137.975C398.969 138.756 397.961 139.146 396.699 139.146C395.422 139.146 394.406 138.758 393.652 137.98C392.898 137.199 392.521 136.125 392.521 134.758ZM394.309 134.699C394.309 135.672 394.533 136.41 394.982 136.914C395.432 137.414 396.002 137.664 396.693 137.664C397.385 137.664 397.951 137.416 398.393 136.92C398.838 136.42 399.061 135.672 399.061 134.676C399.061 133.691 398.844 132.957 398.41 132.473C397.98 131.988 397.408 131.746 396.693 131.746C395.979 131.746 395.402 131.992 394.965 132.484C394.527 132.973 394.309 133.711 394.309 134.699ZM403.777 139H402.131V132.777H403.66V133.662C403.922 133.244 404.156 132.969 404.363 132.836C404.574 132.703 404.812 132.637 405.078 132.637C405.453 132.637 405.814 132.74 406.162 132.947L405.652 134.383C405.375 134.203 405.117 134.113 404.879 134.113C404.648 134.113 404.453 134.178 404.293 134.307C404.133 134.432 404.006 134.66 403.912 134.992C403.822 135.324 403.777 136.02 403.777 137.078V139Z" fill="black"/>
<mask id="path-29-inside-3_92_844" fill="white">
<path fill-rule="evenodd" clip-rule="evenodd" d="M301 174H249V224H301C314.807 224 326 212.807 326 199C326 185.193 314.807 174 301 174Z"/>
</mask>
<path fill-rule="evenodd" clip-rule="evenodd" d="M301 174H249V224H301C314.807 224 326 212.807 326 199C326 185.193 314.807 174 301 174Z" fill="#D9D9D9"/>
<path d="M249 174V172H247V174H249ZM249 224H247V226H249V224ZM249 176H301V172H249V176ZM251 224V174H247V224H251ZM301 222H249V226H301V222ZM324 199C324 211.703 313.703 222 301 222V226C315.912 226 328 213.912 328 199H324ZM301 176C313.703 176 324 186.297 324 199H328C328 184.088 315.912 172 301 172V176Z" fill="black" mask="url(#path-29-inside-3_92_844)"/>
<line x1="227" y1="184" x2="249" y2="184" stroke="black" stroke-width="2"/>
<line x1="227" y1="214" x2="249" y2="214" stroke="black" stroke-width="2"/>
<line x1="326" y1="199" x2="348" y2="199" stroke="black" stroke-width="2"/>
<path d="M236.852 177.232C236.461 177.564 236.084 177.799 235.721 177.936C235.361 178.072 234.975 178.141 234.561 178.141C233.877 178.141 233.352 177.975 232.984 177.643C232.617 177.307 232.434 176.879 232.434 176.359C232.434 176.055 232.502 175.777 232.639 175.527C232.779 175.273 232.961 175.07 233.184 174.918C233.41 174.766 233.664 174.65 233.945 174.572C234.152 174.518 234.465 174.465 234.883 174.414C235.734 174.312 236.361 174.191 236.764 174.051C236.768 173.906 236.77 173.814 236.77 173.775C236.77 173.346 236.67 173.043 236.471 172.867C236.201 172.629 235.801 172.51 235.27 172.51C234.773 172.51 234.406 172.598 234.168 172.773C233.934 172.945 233.76 173.252 233.646 173.693L232.615 173.553C232.709 173.111 232.863 172.756 233.078 172.486C233.293 172.213 233.604 172.004 234.01 171.859C234.416 171.711 234.887 171.637 235.422 171.637C235.953 171.637 236.385 171.699 236.717 171.824C237.049 171.949 237.293 172.107 237.449 172.299C237.605 172.486 237.715 172.725 237.777 173.014C237.812 173.193 237.83 173.518 237.83 173.986V175.393C237.83 176.373 237.852 176.994 237.895 177.256C237.941 177.514 238.031 177.762 238.164 178H237.062C236.953 177.781 236.883 177.525 236.852 177.232ZM236.764 174.877C236.381 175.033 235.807 175.166 235.041 175.275C234.607 175.338 234.301 175.408 234.121 175.486C233.941 175.564 233.803 175.68 233.705 175.832C233.607 175.98 233.559 176.146 233.559 176.33C233.559 176.611 233.664 176.846 233.875 177.033C234.09 177.221 234.402 177.314 234.812 177.314C235.219 177.314 235.58 177.227 235.896 177.051C236.213 176.871 236.445 176.627 236.594 176.318C236.707 176.08 236.764 175.729 236.764 175.264V174.877Z" fill="black"/>
<path d="M280.619 204H278.732L277.982 202.049H274.549L273.84 204H272L275.346 195.41H277.18L280.619 204ZM277.426 200.602L276.242 197.414L275.082 200.602H277.426ZM287.193 204H285.547V200.824C285.547 200.152 285.512 199.719 285.441 199.523C285.371 199.324 285.256 199.17 285.096 199.061C284.939 198.951 284.75 198.896 284.527 198.896C284.242 198.896 283.986 198.975 283.76 199.131C283.533 199.287 283.377 199.494 283.291 199.752C283.209 200.01 283.168 200.486 283.168 201.182V204H281.521V197.777H283.051V198.691C283.594 197.988 284.277 197.637 285.102 197.637C285.465 197.637 285.797 197.703 286.098 197.836C286.398 197.965 286.625 198.131 286.777 198.334C286.934 198.537 287.041 198.768 287.1 199.025C287.162 199.283 287.193 199.652 287.193 200.133V204ZM294.576 204H293.047V203.086C292.793 203.441 292.492 203.707 292.145 203.883C291.801 204.055 291.453 204.141 291.102 204.141C290.387 204.141 289.773 203.854 289.262 203.279C288.754 202.701 288.5 201.896 288.5 200.865C288.5 199.811 288.748 199.01 289.244 198.463C289.74 197.912 290.367 197.637 291.125 197.637C291.82 197.637 292.422 197.926 292.93 198.504V195.41H294.576V204ZM290.182 200.754C290.182 201.418 290.273 201.898 290.457 202.195C290.723 202.625 291.094 202.84 291.57 202.84C291.949 202.84 292.271 202.68 292.537 202.359C292.803 202.035 292.936 201.553 292.936 200.912C292.936 200.197 292.807 199.684 292.549 199.371C292.291 199.055 291.961 198.896 291.559 198.896C291.168 198.896 290.84 199.053 290.574 199.365C290.312 199.674 290.182 200.137 290.182 200.754Z" fill="black"/>
<path d="M233.764 210H232.785V201.41H233.84V204.475C234.285 203.916 234.854 203.637 235.545 203.637C235.928 203.637 236.289 203.715 236.629 203.871C236.973 204.023 237.254 204.24 237.473 204.521C237.695 204.799 237.869 205.135 237.994 205.529C238.119 205.924 238.182 206.346 238.182 206.795C238.182 207.861 237.918 208.686 237.391 209.268C236.863 209.85 236.23 210.141 235.492 210.141C234.758 210.141 234.182 209.834 233.764 209.221V210ZM233.752 206.842C233.752 207.588 233.854 208.127 234.057 208.459C234.389 209.002 234.838 209.273 235.404 209.273C235.865 209.273 236.264 209.074 236.6 208.676C236.936 208.273 237.104 207.676 237.104 206.883C237.104 206.07 236.941 205.471 236.617 205.084C236.297 204.697 235.908 204.504 235.451 204.504C234.99 204.504 234.592 204.705 234.256 205.107C233.92 205.506 233.752 206.084 233.752 206.842Z" fill="black"/>
<path d="M330.398 190.889C330.398 189.736 330.719 188.883 331.359 188.328C331.895 187.867 332.547 187.637 333.316 187.637C334.172 187.637 334.871 187.918 335.414 188.48C335.957 189.039 336.229 189.812 336.229 190.801C336.229 191.602 336.107 192.232 335.865 192.693C335.627 193.15 335.277 193.506 334.816 193.76C334.359 194.014 333.859 194.141 333.316 194.141C332.445 194.141 331.74 193.861 331.201 193.303C330.666 192.744 330.398 191.939 330.398 190.889ZM331.482 190.889C331.482 191.686 331.656 192.283 332.004 192.682C332.352 193.076 332.789 193.273 333.316 193.273C333.84 193.273 334.275 193.074 334.623 192.676C334.971 192.277 335.145 191.67 335.145 190.854C335.145 190.084 334.969 189.502 334.617 189.107C334.27 188.709 333.836 188.51 333.316 188.51C332.789 188.51 332.352 188.707 332.004 189.102C331.656 189.496 331.482 190.092 331.482 190.889ZM341.549 194V193.086C341.064 193.789 340.406 194.141 339.574 194.141C339.207 194.141 338.863 194.07 338.543 193.93C338.227 193.789 337.99 193.613 337.834 193.402C337.682 193.188 337.574 192.926 337.512 192.617C337.469 192.41 337.447 192.082 337.447 191.633V187.777H338.502V191.229C338.502 191.779 338.523 192.15 338.566 192.342C338.633 192.619 338.773 192.838 338.988 192.998C339.203 193.154 339.469 193.232 339.785 193.232C340.102 193.232 340.398 193.152 340.676 192.992C340.953 192.828 341.148 192.607 341.262 192.33C341.379 192.049 341.438 191.643 341.438 191.111V187.777H342.492V194H341.549ZM346.453 193.057L346.605 193.988C346.309 194.051 346.043 194.082 345.809 194.082C345.426 194.082 345.129 194.021 344.918 193.9C344.707 193.779 344.559 193.621 344.473 193.426C344.387 193.227 344.344 192.811 344.344 192.178V188.598H343.57V187.777H344.344V186.236L345.393 185.604V187.777H346.453V188.598H345.393V192.236C345.393 192.537 345.41 192.73 345.445 192.816C345.484 192.902 345.545 192.971 345.627 193.021C345.713 193.072 345.834 193.098 345.99 193.098C346.107 193.098 346.262 193.084 346.453 193.057Z" fill="black"/>
<path d="M328.398 208.889C328.398 207.736 328.719 206.883 329.359 206.328C329.895 205.867 330.547 205.637 331.316 205.637C332.172 205.637 332.871 205.918 333.414 206.48C333.957 207.039 334.229 207.812 334.229 208.801C334.229 209.602 334.107 210.232 333.865 210.693C333.627 211.15 333.277 211.506 332.816 211.76C332.359 212.014 331.859 212.141 331.316 212.141C330.445 212.141 329.74 211.861 329.201 211.303C328.666 210.744 328.398 209.939 328.398 208.889ZM329.482 208.889C329.482 209.686 329.656 210.283 330.004 210.682C330.352 211.076 330.789 211.273 331.316 211.273C331.84 211.273 332.275 211.074 332.623 210.676C332.971 210.277 333.145 209.67 333.145 208.854C333.145 208.084 332.969 207.502 332.617 207.107C332.27 206.709 331.836 206.51 331.316 206.51C330.789 206.51 330.352 206.707 330.004 207.102C329.656 207.496 329.482 208.092 329.482 208.889ZM335.184 209.732L336.238 209.592C336.359 210.189 336.564 210.621 336.854 210.887C337.146 211.148 337.502 211.279 337.92 211.279C338.416 211.279 338.834 211.107 339.174 210.764C339.518 210.42 339.689 209.994 339.689 209.486C339.689 209.002 339.531 208.604 339.215 208.291C338.898 207.975 338.496 207.816 338.008 207.816C337.809 207.816 337.561 207.855 337.264 207.934L337.381 207.008C337.451 207.016 337.508 207.02 337.551 207.02C338 207.02 338.404 206.902 338.764 206.668C339.123 206.434 339.303 206.072 339.303 205.584C339.303 205.197 339.172 204.877 338.91 204.623C338.648 204.369 338.311 204.242 337.896 204.242C337.486 204.242 337.145 204.371 336.871 204.629C336.598 204.887 336.422 205.273 336.344 205.789L335.289 205.602C335.418 204.895 335.711 204.348 336.168 203.961C336.625 203.57 337.193 203.375 337.873 203.375C338.342 203.375 338.773 203.477 339.168 203.68C339.562 203.879 339.863 204.152 340.07 204.5C340.281 204.848 340.387 205.217 340.387 205.607C340.387 205.979 340.287 206.316 340.088 206.621C339.889 206.926 339.594 207.168 339.203 207.348C339.711 207.465 340.105 207.709 340.387 208.08C340.668 208.447 340.809 208.908 340.809 209.463C340.809 210.213 340.535 210.85 339.988 211.373C339.441 211.893 338.75 212.152 337.914 212.152C337.16 212.152 336.533 211.928 336.033 211.479C335.537 211.029 335.254 210.447 335.184 209.732Z" fill="black"/>
<path d="M472.398 124.889C472.398 123.736 472.719 122.883 473.359 122.328C473.895 121.867 474.547 121.637 475.316 121.637C476.172 121.637 476.871 121.918 477.414 122.48C477.957 123.039 478.229 123.812 478.229 124.801C478.229 125.602 478.107 126.232 477.865 126.693C477.627 127.15 477.277 127.506 476.816 127.76C476.359 128.014 475.859 128.141 475.316 128.141C474.445 128.141 473.74 127.861 473.201 127.303C472.666 126.744 472.398 125.939 472.398 124.889ZM473.482 124.889C473.482 125.686 473.656 126.283 474.004 126.682C474.352 127.076 474.789 127.273 475.316 127.273C475.84 127.273 476.275 127.074 476.623 126.676C476.971 126.277 477.145 125.67 477.145 124.854C477.145 124.084 476.969 123.502 476.617 123.107C476.27 122.709 475.836 122.51 475.316 122.51C474.789 122.51 474.352 122.707 474.004 123.102C473.656 123.496 473.482 124.092 473.482 124.889ZM483.549 128V127.086C483.064 127.789 482.406 128.141 481.574 128.141C481.207 128.141 480.863 128.07 480.543 127.93C480.227 127.789 479.99 127.613 479.834 127.402C479.682 127.188 479.574 126.926 479.512 126.617C479.469 126.41 479.447 126.082 479.447 125.633V121.777H480.502V125.229C480.502 125.779 480.523 126.15 480.566 126.342C480.633 126.619 480.773 126.838 480.988 126.998C481.203 127.154 481.469 127.232 481.785 127.232C482.102 127.232 482.398 127.152 482.676 126.992C482.953 126.828 483.148 126.607 483.262 126.33C483.379 126.049 483.438 125.643 483.438 125.111V121.777H484.492V128H483.549ZM488.453 127.057L488.605 127.988C488.309 128.051 488.043 128.082 487.809 128.082C487.426 128.082 487.129 128.021 486.918 127.9C486.707 127.779 486.559 127.621 486.473 127.426C486.387 127.227 486.344 126.811 486.344 126.178V122.598H485.57V121.777H486.344V120.236L487.393 119.604V121.777H488.453V122.598H487.393V126.236C487.393 126.537 487.41 126.73 487.445 126.816C487.484 126.902 487.545 126.971 487.627 127.021C487.713 127.072 487.834 127.098 487.99 127.098C488.107 127.098 488.262 127.084 488.453 127.057Z" fill="black"/>
<path d="M10.8516 36.2324C10.4609 36.5645 10.084 36.7988 9.7207 36.9355C9.36133 37.0723 8.97461 37.1406 8.56055 37.1406C7.87695 37.1406 7.35156 36.9746 6.98438 36.6426C6.61719 36.3066 6.43359 35.8789 6.43359 35.3594C6.43359 35.0547 6.50195 34.7773 6.63867 34.5273C6.7793 34.2734 6.96094 34.0703 7.18359 33.918C7.41016 33.7656 7.66406 33.6504 7.94531 33.5723C8.15234 33.5176 8.46484 33.4648 8.88281 33.4141C9.73438 33.3125 10.3613 33.1914 10.7637 33.0508C10.7676 32.9062 10.7695 32.8145 10.7695 32.7754C10.7695 32.3457 10.6699 32.043 10.4707 31.8672C10.2012 31.6289 9.80078 31.5098 9.26953 31.5098C8.77344 31.5098 8.40625 31.5977 8.16797 31.7734C7.93359 31.9453 7.75977 32.252 7.64648 32.6934L6.61523 32.5527C6.70898 32.1113 6.86328 31.7559 7.07812 31.4863C7.29297 31.2129 7.60352 31.0039 8.00977 30.8594C8.41602 30.7109 8.88672 30.6367 9.42188 30.6367C9.95312 30.6367 10.3848 30.6992 10.7168 30.8242C11.0488 30.9492 11.293 31.1074 11.4492 31.2988C11.6055 31.4863 11.7148 31.7246 11.7773 32.0137C11.8125 32.1934 11.8301 32.5176 11.8301 32.9863V34.3926C11.8301 35.373 11.8516 35.9941 11.8945 36.2559C11.9414 36.5137 12.0312 36.7617 12.1641 37H11.0625C10.9531 36.7812 10.8828 36.5254 10.8516 36.2324ZM10.7637 33.877C10.3809 34.0332 9.80664 34.166 9.04102 34.2754C8.60742 34.3379 8.30078 34.4082 8.12109 34.4863C7.94141 34.5645 7.80273 34.6797 7.70508 34.832C7.60742 34.9805 7.55859 35.1465 7.55859 35.3301C7.55859 35.6113 7.66406 35.8457 7.875 36.0332C8.08984 36.2207 8.40234 36.3145 8.8125 36.3145C9.21875 36.3145 9.58008 36.2266 9.89648 36.0508C10.2129 35.8711 10.4453 35.627 10.5938 35.3184C10.707 35.0801 10.7637 34.7285 10.7637 34.2637V33.877Z" fill="black"/>
<path d="M7.76367 75H6.78516V66.4102H7.83984V69.4746C8.28516 68.916 8.85352 68.6367 9.54492 68.6367C9.92773 68.6367 10.2891 68.7148 10.6289 68.8711C10.9727 69.0234 11.2539 69.2402 11.4727 69.5215C11.6953 69.7988 11.8691 70.1348 11.9941 70.5293C12.1191 70.9238 12.1816 71.3457 12.1816 71.7949C12.1816 72.8613 11.918 73.6855 11.3906 74.2676C10.8633 74.8496 10.2305 75.1406 9.49219 75.1406C8.75781 75.1406 8.18164 74.834 7.76367 74.2207V75ZM7.75195 71.8418C7.75195 72.5879 7.85352 73.127 8.05664 73.459C8.38867 74.002 8.83789 74.2734 9.4043 74.2734C9.86523 74.2734 10.2637 74.0742 10.5996 73.6758C10.9355 73.2734 11.1035 72.6758 11.1035 71.8828C11.1035 71.0703 10.9414 70.4707 10.6172 70.084C10.2969 69.6973 9.9082 69.5039 9.45117 69.5039C8.99023 69.5039 8.5918 69.7051 8.25586 70.1074C7.91992 70.5059 7.75195 71.084 7.75195 71.8418Z" fill="black"/>
<path d="M3.36914 106.143L4.41211 105.979C4.4707 106.396 4.63281 106.717 4.89844 106.939C5.16797 107.162 5.54297 107.273 6.02344 107.273C6.50781 107.273 6.86719 107.176 7.10156 106.98C7.33594 106.781 7.45312 106.549 7.45312 106.283C7.45312 106.045 7.34961 105.857 7.14258 105.721C6.99805 105.627 6.63867 105.508 6.06445 105.363C5.29102 105.168 4.75391 105 4.45312 104.859C4.15625 104.715 3.92969 104.518 3.77344 104.268C3.62109 104.014 3.54492 103.734 3.54492 103.43C3.54492 103.152 3.60742 102.896 3.73242 102.662C3.86133 102.424 4.03516 102.227 4.25391 102.07C4.41797 101.949 4.64062 101.848 4.92188 101.766C5.20703 101.68 5.51172 101.637 5.83594 101.637C6.32422 101.637 6.75195 101.707 7.11914 101.848C7.49023 101.988 7.76367 102.18 7.93945 102.422C8.11523 102.66 8.23633 102.98 8.30273 103.383L7.27148 103.523C7.22461 103.203 7.08789 102.953 6.86133 102.773C6.63867 102.594 6.32227 102.504 5.91211 102.504C5.42773 102.504 5.08203 102.584 4.875 102.744C4.66797 102.904 4.56445 103.092 4.56445 103.307C4.56445 103.443 4.60742 103.566 4.69336 103.676C4.7793 103.789 4.91406 103.883 5.09766 103.957C5.20312 103.996 5.51367 104.086 6.0293 104.227C6.77539 104.426 7.29492 104.59 7.58789 104.719C7.88477 104.844 8.11719 105.027 8.28516 105.27C8.45312 105.512 8.53711 105.812 8.53711 106.172C8.53711 106.523 8.43359 106.855 8.22656 107.168C8.02344 107.477 7.72852 107.717 7.3418 107.889C6.95508 108.057 6.51758 108.141 6.0293 108.141C5.2207 108.141 4.60352 107.973 4.17773 107.637C3.75586 107.301 3.48633 106.803 3.36914 106.143ZM14.0508 105.996L15.1406 106.131C14.9688 106.768 14.6504 107.262 14.1855 107.613C13.7207 107.965 13.127 108.141 12.4043 108.141C11.4941 108.141 10.7715 107.861 10.2363 107.303C9.70508 106.74 9.43945 105.953 9.43945 104.941C9.43945 103.895 9.70898 103.082 10.248 102.504C10.7871 101.926 11.4863 101.637 12.3457 101.637C13.1777 101.637 13.8574 101.92 14.3848 102.486C14.9121 103.053 15.1758 103.85 15.1758 104.877C15.1758 104.939 15.1738 105.033 15.1699 105.158H10.5293C10.5684 105.842 10.7617 106.365 11.1094 106.729C11.457 107.092 11.8906 107.273 12.4102 107.273C12.7969 107.273 13.127 107.172 13.4004 106.969C13.6738 106.766 13.8906 106.441 14.0508 105.996ZM10.5879 104.291H14.0625C14.0156 103.768 13.8828 103.375 13.6641 103.113C13.3281 102.707 12.8926 102.504 12.3574 102.504C11.873 102.504 11.4648 102.666 11.1328 102.99C10.8047 103.314 10.623 103.748 10.5879 104.291ZM16.4473 108V99.4102H17.502V108H16.4473Z" fill="black"/>
<line x1="-8.74228e-08" y1="43" x2="227" y2="43" stroke="#FF6B00" stroke-width="2"/>
<line x1="-8.74228e-08" y1="116" x2="79" y2="116" stroke="#FF6B00" stroke-width="2"/>
<line x1="-8.74228e-08" y1="82" x2="56" y2="82" stroke="#FF6B00" stroke-width="2"/>
<line x1="466" y1="134" x2="491" y2="134" stroke="#FF6B00" stroke-width="2"/>
<line x1="54" y1="184" x2="227" y2="184" stroke="#FF6B00" stroke-width="2"/>
<line x1="37" y1="214" x2="227" y2="214" stroke="#FF6B00" stroke-width="2"/>
<line x1="226" y1="117" x2="226" y2="72" stroke="#FF6B00" stroke-width="2"/>
<line x1="347" y1="121" x2="347" y2="57" stroke="#FF6B00" stroke-width="2"/>
<line x1="349" y1="200" x2="349" y2="148" stroke="#FF6B00" stroke-width="2"/>
<line x1="55" y1="183" x2="55" y2="83" stroke="#FF6B00" stroke-width="2" stroke-dasharray="4 4"/>
<line x1="36" y1="215" x2="36" y2="117" stroke="#FF6B00" stroke-width="2"/>
<circle cx="36" cy="116" r="5" fill="#FF6B00"/>
<rect x="22.5" y="21.5" width="443" height="211" stroke="black" stroke-dasharray="2 2"/>
</svg>
