<svg width="142" height="104" viewBox="0 0 142 104" fill="none" xmlns="http://www.w3.org/2000/svg">
<path d="M36 27.7128L26 21.9393V33.4863L36 27.7128ZM0 28.7128H27V26.7128H0V28.7128Z" fill="black"/>
<path d="M36 70L26 64.2265V75.7735L36 70ZM0 71H27V69H0V71Z" fill="black"/>
<path d="M9.85156 20.9452C9.46094 21.2773 9.08398 21.5116 8.7207 21.6484C8.36133 21.7851 7.97461 21.8534 7.56055 21.8534C6.87695 21.8534 6.35156 21.6874 5.98438 21.3554C5.61719 21.0195 5.43359 20.5917 5.43359 20.0722C5.43359 19.7675 5.50195 19.4902 5.63867 19.2402C5.7793 18.9862 5.96094 18.7831 6.18359 18.6308C6.41016 18.4784 6.66406 18.3632 6.94531 18.2851C7.15234 18.2304 7.46484 18.1777 7.88281 18.1269C8.73438 18.0253 9.36133 17.9042 9.76367 17.7636C9.76758 17.6191 9.76953 17.5273 9.76953 17.4882C9.76953 17.0585 9.66992 16.7558 9.4707 16.58C9.20117 16.3417 8.80078 16.2226 8.26953 16.2226C7.77344 16.2226 7.40625 16.3105 7.16797 16.4862C6.93359 16.6581 6.75977 16.9648 6.64648 17.4062L5.61523 17.2655C5.70898 16.8241 5.86328 16.4687 6.07812 16.1991C6.29297 15.9257 6.60352 15.7167 7.00977 15.5722C7.41602 15.4237 7.88672 15.3495 8.42188 15.3495C8.95312 15.3495 9.38477 15.412 9.7168 15.537C10.0488 15.662 10.293 15.8202 10.4492 16.0116C10.6055 16.1991 10.7148 16.4374 10.7773 16.7265C10.8125 16.9062 10.8301 17.2304 10.8301 17.6991V19.1054C10.8301 20.0859 10.8516 20.707 10.8945 20.9687C10.9414 21.2265 11.0312 21.4745 11.1641 21.7128H10.0625C9.95312 21.4941 9.88281 21.2382 9.85156 20.9452ZM9.76367 18.5898C9.38086 18.746 8.80664 18.8788 8.04102 18.9882C7.60742 19.0507 7.30078 19.121 7.12109 19.1991C6.94141 19.2773 6.80273 19.3925 6.70508 19.5448C6.60742 19.6933 6.55859 19.8593 6.55859 20.0429C6.55859 20.3241 6.66406 20.5585 6.875 20.746C7.08984 20.9335 7.40234 21.0273 7.8125 21.0273C8.21875 21.0273 8.58008 20.9394 8.89648 20.7636C9.21289 20.5839 9.44531 20.3398 9.59375 20.0312C9.70703 19.7929 9.76367 19.4413 9.76367 18.9765V18.5898Z" fill="black"/>
<path d="M74 68L68.2265 78L79.7735 78L74 68ZM75 104L75 77L73 77L73 104L75 104Z" fill="black"/>
<path d="M80.3691 84.1426L81.4121 83.9785C81.4707 84.3965 81.6328 84.7168 81.8984 84.9395C82.168 85.1621 82.543 85.2734 83.0234 85.2734C83.5078 85.2734 83.8672 85.1758 84.1016 84.9805C84.3359 84.7812 84.4531 84.5488 84.4531 84.2832C84.4531 84.0449 84.3496 83.8574 84.1426 83.7207C83.998 83.627 83.6387 83.5078 83.0645 83.3633C82.291 83.168 81.7539 83 81.4531 82.8594C81.1562 82.7148 80.9297 82.5176 80.7734 82.2676C80.6211 82.0137 80.5449 81.7344 80.5449 81.4297C80.5449 81.1523 80.6074 80.8965 80.7324 80.6621C80.8613 80.4238 81.0352 80.2266 81.2539 80.0703C81.418 79.9492 81.6406 79.8477 81.9219 79.7656C82.207 79.6797 82.5117 79.6367 82.8359 79.6367C83.3242 79.6367 83.752 79.707 84.1191 79.8477C84.4902 79.9883 84.7637 80.1797 84.9395 80.4219C85.1152 80.6602 85.2363 80.9805 85.3027 81.3828L84.2715 81.5234C84.2246 81.2031 84.0879 80.9531 83.8613 80.7734C83.6387 80.5938 83.3223 80.5039 82.9121 80.5039C82.4277 80.5039 82.082 80.584 81.875 80.7441C81.668 80.9043 81.5645 81.0918 81.5645 81.3066C81.5645 81.4434 81.6074 81.5664 81.6934 81.6758C81.7793 81.7891 81.9141 81.8828 82.0977 81.957C82.2031 81.9961 82.5137 82.0859 83.0293 82.2266C83.7754 82.4258 84.2949 82.5898 84.5879 82.7188C84.8848 82.8438 85.1172 83.0273 85.2852 83.2695C85.4531 83.5117 85.5371 83.8125 85.5371 84.1719C85.5371 84.5234 85.4336 84.8555 85.2266 85.168C85.0234 85.4766 84.7285 85.7168 84.3418 85.8887C83.9551 86.0566 83.5176 86.1406 83.0293 86.1406C82.2207 86.1406 81.6035 85.9727 81.1777 85.6367C80.7559 85.3008 80.4863 84.8027 80.3691 84.1426ZM91.0508 83.9961L92.1406 84.1309C91.9688 84.7676 91.6504 85.2617 91.1855 85.6133C90.7207 85.9648 90.127 86.1406 89.4043 86.1406C88.4941 86.1406 87.7715 85.8613 87.2363 85.3027C86.7051 84.7402 86.4395 83.9531 86.4395 82.9414C86.4395 81.8945 86.709 81.082 87.248 80.5039C87.7871 79.9258 88.4863 79.6367 89.3457 79.6367C90.1777 79.6367 90.8574 79.9199 91.3848 80.4863C91.9121 81.0527 92.1758 81.8496 92.1758 82.877C92.1758 82.9395 92.1738 83.0332 92.1699 83.1582H87.5293C87.5684 83.8418 87.7617 84.3652 88.1094 84.7285C88.457 85.0918 88.8906 85.2734 89.4102 85.2734C89.7969 85.2734 90.127 85.1719 90.4004 84.9688C90.6738 84.7656 90.8906 84.4414 91.0508 83.9961ZM87.5879 82.291H91.0625C91.0156 81.7676 90.8828 81.375 90.6641 81.1133C90.3281 80.707 89.8926 80.5039 89.3574 80.5039C88.873 80.5039 88.4648 80.666 88.1328 80.9902C87.8047 81.3145 87.623 81.748 87.5879 82.291ZM93.4473 86V77.4102H94.502V86H93.4473Z" fill="black"/>
<path d="M6.76367 64H5.78516V55.4102H6.83984V58.4746C7.28516 57.916 7.85352 57.6367 8.54492 57.6367C8.92773 57.6367 9.28906 57.7148 9.62891 57.8711C9.97266 58.0234 10.2539 58.2402 10.4727 58.5215C10.6953 58.7988 10.8691 59.1348 10.9941 59.5293C11.1191 59.9238 11.1816 60.3457 11.1816 60.7949C11.1816 61.8613 10.918 62.6855 10.3906 63.2676C9.86328 63.8496 9.23047 64.1406 8.49219 64.1406C7.75781 64.1406 7.18164 63.834 6.76367 63.2207V64ZM6.75195 60.8418C6.75195 61.5879 6.85352 62.1269 7.05664 62.459C7.38867 63.0019 7.83789 63.2734 8.4043 63.2734C8.86523 63.2734 9.26367 63.0742 9.59961 62.6758C9.93555 62.2734 10.1035 61.6758 10.1035 60.8828C10.1035 60.0703 9.94141 59.4707 9.61719 59.084C9.29688 58.6973 8.9082 58.5039 8.45117 58.5039C7.99023 58.5039 7.5918 58.7051 7.25586 59.1074C6.91992 59.5059 6.75195 60.084 6.75195 60.8418Z" fill="black"/>
<path d="M142 49L132 43.2265L132 54.7735L142 49ZM104 50L133 50L133 48L104 48L104 50Z" fill="black"/>
<path d="M108.398 40.6015C108.398 39.4491 108.719 38.5956 109.359 38.0409C109.895 37.58 110.547 37.3495 111.316 37.3495C112.172 37.3495 112.871 37.6308 113.414 38.1933C113.957 38.7519 114.229 39.5253 114.229 40.5136C114.229 41.3144 114.107 41.9452 113.865 42.4062C113.627 42.8632 113.277 43.2187 112.816 43.4726C112.359 43.7265 111.859 43.8534 111.316 43.8534C110.445 43.8534 109.74 43.5741 109.201 43.0155C108.666 42.457 108.398 41.6523 108.398 40.6015ZM109.482 40.6015C109.482 41.3984 109.656 41.996 110.004 42.3945C110.352 42.789 110.789 42.9862 111.316 42.9862C111.84 42.9862 112.275 42.787 112.623 42.3886C112.971 41.9902 113.145 41.3827 113.145 40.5663C113.145 39.7968 112.969 39.2148 112.617 38.8202C112.27 38.4218 111.836 38.2226 111.316 38.2226C110.789 38.2226 110.352 38.4198 110.004 38.8144C109.656 39.2089 109.482 39.8046 109.482 40.6015ZM119.549 43.7128V42.7987C119.064 43.5019 118.406 43.8534 117.574 43.8534C117.207 43.8534 116.863 43.7831 116.543 43.6425C116.227 43.5019 115.99 43.3261 115.834 43.1152C115.682 42.9003 115.574 42.6386 115.512 42.33C115.469 42.123 115.447 41.7948 115.447 41.3456V37.4902H116.502V40.9413C116.502 41.4921 116.523 41.8632 116.566 42.0546C116.633 42.332 116.773 42.5507 116.988 42.7109C117.203 42.8671 117.469 42.9452 117.785 42.9452C118.102 42.9452 118.398 42.8652 118.676 42.705C118.953 42.5409 119.148 42.3202 119.262 42.0429C119.379 41.7616 119.438 41.3554 119.438 40.8241V37.4902H120.492V43.7128H119.549ZM124.453 42.7695L124.605 43.7011C124.309 43.7636 124.043 43.7948 123.809 43.7948C123.426 43.7948 123.129 43.7343 122.918 43.6132C122.707 43.4921 122.559 43.3339 122.473 43.1386C122.387 42.9394 122.344 42.5234 122.344 41.8905V38.3105H121.57V37.4902H122.344V35.9491L123.393 35.3163V37.4902H124.453V38.3105H123.393V41.9491C123.393 42.2499 123.41 42.4433 123.445 42.5292C123.484 42.6152 123.545 42.6835 123.627 42.7343C123.713 42.7851 123.834 42.8105 123.99 42.8105C124.107 42.8105 124.262 42.7968 124.453 42.7695Z" fill="black"/>
<path d="M37 8.87564L106 48.7128L37 88.55L37 8.87564Z" fill="#D9D9D9" stroke="black" stroke-width="2"/>
<path d="M48.8906 53V44.4102H50.6016L52.6348 50.4922C52.8223 51.0586 52.959 51.4824 53.0449 51.7637C53.1426 51.4512 53.2949 50.9922 53.502 50.3867L55.5586 44.4102H57.0879V53H55.9922V45.8105L53.4961 53H52.4707L49.9863 45.6875V53H48.8906ZM62.8652 53V52.0859C62.3809 52.7891 61.7227 53.1406 60.8906 53.1406C60.5234 53.1406 60.1797 53.0703 59.8594 52.9297C59.543 52.7891 59.3066 52.6133 59.1504 52.4023C58.998 52.1875 58.8906 51.9258 58.8281 51.6172C58.7852 51.4102 58.7637 51.082 58.7637 50.6328V46.7773H59.8184V50.2285C59.8184 50.7793 59.8398 51.1504 59.8828 51.3418C59.9492 51.6191 60.0898 51.8379 60.3047 51.998C60.5195 52.1543 60.7852 52.2324 61.1016 52.2324C61.418 52.2324 61.7148 52.1523 61.9922 51.9922C62.2695 51.8281 62.4648 51.6074 62.5781 51.3301C62.6953 51.0488 62.7539 50.6426 62.7539 50.1113V46.7773H63.8086V53H62.8652ZM64.7637 53L67.0371 49.7656L64.9336 46.7773H66.252L67.207 48.2363C67.3867 48.5137 67.5312 48.7461 67.6406 48.9336C67.8125 48.6758 67.9707 48.4473 68.1152 48.248L69.1641 46.7773H70.4238L68.2734 49.707L70.5879 53H69.293L68.0156 51.0664L67.6758 50.5449L66.041 53H64.7637Z" fill="black"/>
</svg>
