<svg width="142" height="104" viewBox="0 0 142 104" fill="none" xmlns="http://www.w3.org/2000/svg">
<path d="M36 27L26 21.2265V32.7735L36 27ZM0 28H27V26H0V28Z" fill="black"/>
<path d="M36 69.2872L26 63.5137V75.0607L36 69.2872ZM0 70.2872H27V68.2872H0V70.2872Z" fill="black"/>
<path d="M9.85156 20.2324C9.46094 20.5645 9.08398 20.7988 8.7207 20.9355C8.36133 21.0723 7.97461 21.1406 7.56055 21.1406C6.87695 21.1406 6.35156 20.9746 5.98438 20.6426C5.61719 20.3066 5.43359 19.8789 5.43359 19.3594C5.43359 19.0547 5.50195 18.7773 5.63867 18.5273C5.7793 18.2734 5.96094 18.0703 6.18359 17.918C6.41016 17.7656 6.66406 17.6504 6.94531 17.5723C7.15234 17.5176 7.46484 17.4648 7.88281 17.4141C8.73438 17.3125 9.36133 17.1914 9.76367 17.0508C9.76758 16.9062 9.76953 16.8145 9.76953 16.7754C9.76953 16.3457 9.66992 16.043 9.4707 15.8672C9.20117 15.6289 8.80078 15.5098 8.26953 15.5098C7.77344 15.5098 7.40625 15.5977 7.16797 15.7734C6.93359 15.9453 6.75977 16.252 6.64648 16.6934L5.61523 16.5527C5.70898 16.1113 5.86328 15.7559 6.07812 15.4863C6.29297 15.2129 6.60352 15.0039 7.00977 14.8594C7.41602 14.7109 7.88672 14.6367 8.42188 14.6367C8.95312 14.6367 9.38477 14.6992 9.7168 14.8242C10.0488 14.9492 10.293 15.1074 10.4492 15.2988C10.6055 15.4863 10.7148 15.7246 10.7773 16.0137C10.8125 16.1934 10.8301 16.5176 10.8301 16.9863V18.3926C10.8301 19.373 10.8516 19.9941 10.8945 20.2559C10.9414 20.5137 11.0312 20.7617 11.1641 21H10.0625C9.95312 20.7812 9.88281 20.5254 9.85156 20.2324ZM9.76367 17.877C9.38086 18.0332 8.80664 18.166 8.04102 18.2754C7.60742 18.3379 7.30078 18.4082 7.12109 18.4863C6.94141 18.5645 6.80273 18.6797 6.70508 18.832C6.60742 18.9805 6.55859 19.1465 6.55859 19.3301C6.55859 19.6113 6.66406 19.8457 6.875 20.0332C7.08984 20.2207 7.40234 20.3145 7.8125 20.3145C8.21875 20.3145 8.58008 20.2266 8.89648 20.0508C9.21289 19.8711 9.44531 19.627 9.59375 19.3184C9.70703 19.0801 9.76367 18.7285 9.76367 18.2637V17.877Z" fill="black"/>
<path d="M74 67.2872L68.2265 77.2872L79.7735 77.2872L74 67.2872ZM75 103.287L75 76.2872L73 76.2872L73 103.287L75 103.287Z" fill="black"/>
<path d="M80.3691 83.4298L81.4121 83.2657C81.4707 83.6837 81.6328 84.004 81.8984 84.2267C82.168 84.4493 82.543 84.5606 83.0234 84.5606C83.5078 84.5606 83.8672 84.463 84.1016 84.2677C84.3359 84.0685 84.4531 83.836 84.4531 83.5704C84.4531 83.3321 84.3496 83.1446 84.1426 83.0079C83.998 82.9142 83.6387 82.795 83.0645 82.6505C82.291 82.4552 81.7539 82.2872 81.4531 82.1466C81.1562 82.002 80.9297 81.8048 80.7734 81.5548C80.6211 81.3009 80.5449 81.0216 80.5449 80.7169C80.5449 80.4395 80.6074 80.1837 80.7324 79.9493C80.8613 79.711 81.0352 79.5138 81.2539 79.3575C81.418 79.2364 81.6406 79.1349 81.9219 79.0528C82.207 78.9669 82.5117 78.9239 82.8359 78.9239C83.3242 78.9239 83.752 78.9942 84.1191 79.1349C84.4902 79.2755 84.7637 79.4669 84.9395 79.7091C85.1152 79.9474 85.2363 80.2677 85.3027 80.67L84.2715 80.8106C84.2246 80.4903 84.0879 80.2403 83.8613 80.0606C83.6387 79.881 83.3223 79.7911 82.9121 79.7911C82.4277 79.7911 82.082 79.8712 81.875 80.0313C81.668 80.1915 81.5645 80.379 81.5645 80.5938C81.5645 80.7306 81.6074 80.8536 81.6934 80.963C81.7793 81.0763 81.9141 81.17 82.0977 81.2442C82.2031 81.2833 82.5137 81.3731 83.0293 81.5138C83.7754 81.713 84.2949 81.877 84.5879 82.006C84.8848 82.131 85.1172 82.3145 85.2852 82.5567C85.4531 82.7989 85.5371 83.0997 85.5371 83.4591C85.5371 83.8106 85.4336 84.1427 85.2266 84.4552C85.0234 84.7638 84.7285 85.004 84.3418 85.1759C83.9551 85.3438 83.5176 85.4278 83.0293 85.4278C82.2207 85.4278 81.6035 85.2599 81.1777 84.9239C80.7559 84.588 80.4863 84.0899 80.3691 83.4298ZM91.0508 83.2833L92.1406 83.4181C91.9688 84.0548 91.6504 84.5489 91.1855 84.9005C90.7207 85.252 90.127 85.4278 89.4043 85.4278C88.4941 85.4278 87.7715 85.1485 87.2363 84.5899C86.7051 84.0274 86.4395 83.2403 86.4395 82.2286C86.4395 81.1817 86.709 80.3692 87.248 79.7911C87.7871 79.213 88.4863 78.9239 89.3457 78.9239C90.1777 78.9239 90.8574 79.2071 91.3848 79.7735C91.9121 80.3399 92.1758 81.1368 92.1758 82.1642C92.1758 82.2267 92.1738 82.3204 92.1699 82.4454H87.5293C87.5684 83.129 87.7617 83.6524 88.1094 84.0157C88.457 84.379 88.8906 84.5606 89.4102 84.5606C89.7969 84.5606 90.127 84.4591 90.4004 84.256C90.6738 84.0528 90.8906 83.7286 91.0508 83.2833ZM87.5879 81.5782H91.0625C91.0156 81.0548 90.8828 80.6622 90.6641 80.4005C90.3281 79.9942 89.8926 79.7911 89.3574 79.7911C88.873 79.7911 88.4648 79.9532 88.1328 80.2774C87.8047 80.6017 87.623 81.0352 87.5879 81.5782ZM93.4473 85.2872V76.6974H94.502V85.2872H93.4473Z" fill="black"/>
<path d="M6.76367 63.2872H5.78516V54.6973H6.83984V57.7618C7.28516 57.2032 7.85352 56.9239 8.54492 56.9239C8.92773 56.9239 9.28906 57.002 9.62891 57.1583C9.97266 57.3106 10.2539 57.5274 10.4727 57.8087C10.6953 58.086 10.8691 58.422 10.9941 58.8165C11.1191 59.211 11.1816 59.6329 11.1816 60.0821C11.1816 61.1485 10.918 61.9727 10.3906 62.5548C9.86328 63.1368 9.23047 63.4278 8.49219 63.4278C7.75781 63.4278 7.18164 63.1212 6.76367 62.5079V63.2872ZM6.75195 60.129C6.75195 60.8751 6.85352 61.4141 7.05664 61.7462C7.38867 62.2891 7.83789 62.5606 8.4043 62.5606C8.86523 62.5606 9.26367 62.3614 9.59961 61.963C9.93555 61.5606 10.1035 60.963 10.1035 60.17C10.1035 59.3575 9.94141 58.7579 9.61719 58.3712C9.29688 57.9845 8.9082 57.7911 8.45117 57.7911C7.99023 57.7911 7.5918 57.9923 7.25586 58.3946C6.91992 58.793 6.75195 59.3712 6.75195 60.129Z" fill="black"/>
<path d="M142 48.2872L132 42.5137L132 54.0607L142 48.2872ZM104 49.2872L133 49.2872L133 47.2872L104 47.2872L104 49.2872Z" fill="black"/>
<path d="M108.398 39.8887C108.398 38.7363 108.719 37.8828 109.359 37.3281C109.895 36.8672 110.547 36.6367 111.316 36.6367C112.172 36.6367 112.871 36.918 113.414 37.4805C113.957 38.0391 114.229 38.8125 114.229 39.8008C114.229 40.6016 114.107 41.2324 113.865 41.6934C113.627 42.1504 113.277 42.5059 112.816 42.7598C112.359 43.0137 111.859 43.1406 111.316 43.1406C110.445 43.1406 109.74 42.8613 109.201 42.3027C108.666 41.7441 108.398 40.9395 108.398 39.8887ZM109.482 39.8887C109.482 40.6855 109.656 41.2832 110.004 41.6816C110.352 42.0762 110.789 42.2734 111.316 42.2734C111.84 42.2734 112.275 42.0742 112.623 41.6758C112.971 41.2773 113.145 40.6699 113.145 39.8535C113.145 39.084 112.969 38.502 112.617 38.1074C112.27 37.709 111.836 37.5098 111.316 37.5098C110.789 37.5098 110.352 37.707 110.004 38.1016C109.656 38.4961 109.482 39.0918 109.482 39.8887ZM119.549 43V42.0859C119.064 42.7891 118.406 43.1406 117.574 43.1406C117.207 43.1406 116.863 43.0703 116.543 42.9297C116.227 42.7891 115.99 42.6133 115.834 42.4023C115.682 42.1875 115.574 41.9258 115.512 41.6172C115.469 41.4102 115.447 41.082 115.447 40.6328V36.7773H116.502V40.2285C116.502 40.7793 116.523 41.1504 116.566 41.3418C116.633 41.6191 116.773 41.8379 116.988 41.998C117.203 42.1543 117.469 42.2324 117.785 42.2324C118.102 42.2324 118.398 42.1523 118.676 41.9922C118.953 41.8281 119.148 41.6074 119.262 41.3301C119.379 41.0488 119.438 40.6426 119.438 40.1113V36.7773H120.492V43H119.549ZM124.453 42.0566L124.605 42.9883C124.309 43.0508 124.043 43.082 123.809 43.082C123.426 43.082 123.129 43.0215 122.918 42.9004C122.707 42.7793 122.559 42.6211 122.473 42.4258C122.387 42.2266 122.344 41.8105 122.344 41.1777V37.5977H121.57V36.7773H122.344V35.2363L123.393 34.6035V36.7773H124.453V37.5977H123.393V41.2363C123.393 41.5371 123.41 41.7305 123.445 41.8164C123.484 41.9023 123.545 41.9707 123.627 42.0215C123.713 42.0723 123.834 42.0977 123.99 42.0977C124.107 42.0977 124.262 42.084 124.453 42.0566Z" fill="black"/>
<path d="M37 8.16283L106 48L37 87.8372L37 8.16283Z" stroke="black" stroke-width="2"/>
</svg>
