<svg width="180" height="104" viewBox="0 0 180 104" fill="none" xmlns="http://www.w3.org/2000/svg">
<path d="M50 27L40 21.2265V32.7735L50 27ZM0 28H41V26H0V28Z" fill="black"/>
<path d="M50 69L40 63.2265V74.7735L50 69ZM0 70H41V68H0V70Z" fill="black"/>
<path d="M7.85156 20.2324C7.46094 20.5645 7.08398 20.7988 6.7207 20.9355C6.36133 21.0723 5.97461 21.1406 5.56055 21.1406C4.87695 21.1406 4.35156 20.9746 3.98438 20.6426C3.61719 20.3066 3.43359 19.8789 3.43359 19.3594C3.43359 19.0547 3.50195 18.7773 3.63867 18.5273C3.7793 18.2734 3.96094 18.0703 4.18359 17.918C4.41016 17.7656 4.66406 17.6504 4.94531 17.5723C5.15234 17.5176 5.46484 17.4648 5.88281 17.4141C6.73438 17.3125 7.36133 17.1914 7.76367 17.0508C7.76758 16.9062 7.76953 16.8145 7.76953 16.7754C7.76953 16.3457 7.66992 16.043 7.4707 15.8672C7.20117 15.6289 6.80078 15.5098 6.26953 15.5098C5.77344 15.5098 5.40625 15.5977 5.16797 15.7734C4.93359 15.9453 4.75977 16.252 4.64648 16.6934L3.61523 16.5527C3.70898 16.1113 3.86328 15.7559 4.07812 15.4863C4.29297 15.2129 4.60352 15.0039 5.00977 14.8594C5.41602 14.7109 5.88672 14.6367 6.42188 14.6367C6.95312 14.6367 7.38477 14.6992 7.7168 14.8242C8.04883 14.9492 8.29297 15.1074 8.44922 15.2988C8.60547 15.4863 8.71484 15.7246 8.77734 16.0137C8.8125 16.1934 8.83008 16.5176 8.83008 16.9863V18.3926C8.83008 19.373 8.85156 19.9941 8.89453 20.2559C8.94141 20.5137 9.03125 20.7617 9.16406 21H8.0625C7.95312 20.7812 7.88281 20.5254 7.85156 20.2324ZM7.76367 17.877C7.38086 18.0332 6.80664 18.166 6.04102 18.2754C5.60742 18.3379 5.30078 18.4082 5.12109 18.4863C4.94141 18.5645 4.80273 18.6797 4.70508 18.832C4.60742 18.9805 4.55859 19.1465 4.55859 19.3301C4.55859 19.6113 4.66406 19.8457 4.875 20.0332C5.08984 20.2207 5.40234 20.3145 5.8125 20.3145C6.21875 20.3145 6.58008 20.2266 6.89648 20.0508C7.21289 19.8711 7.44531 19.627 7.59375 19.3184C7.70703 19.0801 7.76367 18.7285 7.76367 18.2637V17.877Z" fill="black"/>
<path d="M88 67.2872L82.2265 77.2872L93.7735 77.2872L88 67.2872ZM89 103.287L89 76.2872L87 76.2872L87 103.287L89 103.287Z" fill="black"/>
<path d="M94.3691 83.4298L95.4121 83.2657C95.4707 83.6837 95.6328 84.004 95.8984 84.2267C96.168 84.4493 96.543 84.5607 97.0234 84.5607C97.5078 84.5607 97.8672 84.463 98.1016 84.2677C98.3359 84.0685 98.4531 83.8361 98.4531 83.5704C98.4531 83.3322 98.3496 83.1447 98.1426 83.0079C97.998 82.9142 97.6387 82.795 97.0645 82.6505C96.291 82.4552 95.7539 82.2872 95.4531 82.1466C95.1562 82.0021 94.9297 81.8048 94.7734 81.5548C94.6211 81.3009 94.5449 81.0216 94.5449 80.7169C94.5449 80.4396 94.6074 80.1837 94.7324 79.9493C94.8613 79.7111 95.0352 79.5138 95.2539 79.3575C95.418 79.2365 95.6406 79.1349 95.9219 79.0529C96.207 78.9669 96.5117 78.924 96.8359 78.924C97.3242 78.924 97.752 78.9943 98.1191 79.1349C98.4902 79.2755 98.7637 79.4669 98.9395 79.7091C99.1152 79.9474 99.2363 80.2677 99.3027 80.67L98.2715 80.8107C98.2246 80.4904 98.0879 80.2404 97.8613 80.0607C97.6387 79.881 97.3223 79.7911 96.9121 79.7911C96.4277 79.7911 96.082 79.8712 95.875 80.0314C95.668 80.1915 95.5645 80.379 95.5645 80.5939C95.5645 80.7306 95.6074 80.8536 95.6934 80.963C95.7793 81.0763 95.9141 81.17 96.0977 81.2443C96.2031 81.2833 96.5137 81.3732 97.0293 81.5138C97.7754 81.713 98.2949 81.8771 98.5879 82.006C98.8848 82.131 99.1172 82.3146 99.2852 82.5568C99.4531 82.799 99.5371 83.0997 99.5371 83.4591C99.5371 83.8107 99.4336 84.1427 99.2266 84.4552C99.0234 84.7638 98.7285 85.004 98.3418 85.1759C97.9551 85.3439 97.5176 85.4279 97.0293 85.4279C96.2207 85.4279 95.6035 85.2599 95.1777 84.924C94.7559 84.588 94.4863 84.09 94.3691 83.4298ZM105.051 83.2833L106.141 83.4181C105.969 84.0548 105.65 84.549 105.186 84.9005C104.721 85.2521 104.127 85.4279 103.404 85.4279C102.494 85.4279 101.771 85.1486 101.236 84.59C100.705 84.0275 100.439 83.2404 100.439 82.2286C100.439 81.1818 100.709 80.3693 101.248 79.7911C101.787 79.213 102.486 78.924 103.346 78.924C104.178 78.924 104.857 79.2072 105.385 79.7736C105.912 80.34 106.176 81.1368 106.176 82.1642C106.176 82.2267 106.174 82.3204 106.17 82.4454H101.529C101.568 83.129 101.762 83.6525 102.109 84.0157C102.457 84.379 102.891 84.5607 103.41 84.5607C103.797 84.5607 104.127 84.4591 104.4 84.256C104.674 84.0529 104.891 83.7286 105.051 83.2833ZM101.588 81.5782H105.062C105.016 81.0548 104.883 80.6622 104.664 80.4005C104.328 79.9943 103.893 79.7911 103.357 79.7911C102.873 79.7911 102.465 79.9532 102.133 80.2775C101.805 80.6017 101.623 81.0353 101.588 81.5782ZM107.447 85.2872V76.6974H108.502V85.2872H107.447Z" fill="black"/>
<path d="M4.76367 63.2872H3.78516V54.6974H4.83984V57.7618C5.28516 57.2032 5.85352 56.924 6.54492 56.924C6.92773 56.924 7.28906 57.0021 7.62891 57.1583C7.97266 57.3107 8.25391 57.5275 8.47266 57.8087C8.69531 58.0861 8.86914 58.422 8.99414 58.8165C9.11914 59.2111 9.18164 59.6329 9.18164 60.0822C9.18164 61.1486 8.91797 61.9728 8.39062 62.5548C7.86328 63.1368 7.23047 63.4279 6.49219 63.4279C5.75781 63.4279 5.18164 63.1212 4.76367 62.5079V63.2872ZM4.75195 60.129C4.75195 60.8751 4.85352 61.4142 5.05664 61.7462C5.38867 62.2892 5.83789 62.5607 6.4043 62.5607C6.86523 62.5607 7.26367 62.3615 7.59961 61.963C7.93555 61.5607 8.10352 60.963 8.10352 60.17C8.10352 59.3575 7.94141 58.7579 7.61719 58.3712C7.29688 57.9845 6.9082 57.7911 6.45117 57.7911C5.99023 57.7911 5.5918 57.9923 5.25586 58.3947C4.91992 58.7931 4.75195 59.3712 4.75195 60.129Z" fill="black"/>
<path d="M180 48L170 42.2265V53.7735L180 48ZM118 49H171V47H118V49Z" fill="black"/>
<path d="M147.398 39.8887C147.398 38.7363 147.719 37.8828 148.359 37.3281C148.895 36.8672 149.547 36.6367 150.316 36.6367C151.172 36.6367 151.871 36.918 152.414 37.4805C152.957 38.0391 153.229 38.8125 153.229 39.8008C153.229 40.6016 153.107 41.2324 152.865 41.6934C152.627 42.1504 152.277 42.5059 151.816 42.7598C151.359 43.0137 150.859 43.1406 150.316 43.1406C149.445 43.1406 148.74 42.8613 148.201 42.3027C147.666 41.7441 147.398 40.9395 147.398 39.8887ZM148.482 39.8887C148.482 40.6855 148.656 41.2832 149.004 41.6816C149.352 42.0762 149.789 42.2734 150.316 42.2734C150.84 42.2734 151.275 42.0742 151.623 41.6758C151.971 41.2773 152.145 40.6699 152.145 39.8535C152.145 39.084 151.969 38.502 151.617 38.1074C151.27 37.709 150.836 37.5098 150.316 37.5098C149.789 37.5098 149.352 37.707 149.004 38.1016C148.656 38.4961 148.482 39.0918 148.482 39.8887ZM158.549 43V42.0859C158.064 42.7891 157.406 43.1406 156.574 43.1406C156.207 43.1406 155.863 43.0703 155.543 42.9297C155.227 42.7891 154.99 42.6133 154.834 42.4023C154.682 42.1875 154.574 41.9258 154.512 41.6172C154.469 41.4102 154.447 41.082 154.447 40.6328V36.7773H155.502V40.2285C155.502 40.7793 155.523 41.1504 155.566 41.3418C155.633 41.6191 155.773 41.8379 155.988 41.998C156.203 42.1543 156.469 42.2324 156.785 42.2324C157.102 42.2324 157.398 42.1523 157.676 41.9922C157.953 41.8281 158.148 41.6074 158.262 41.3301C158.379 41.0488 158.438 40.6426 158.438 40.1113V36.7773H159.492V43H158.549ZM163.453 42.0566L163.605 42.9883C163.309 43.0508 163.043 43.082 162.809 43.082C162.426 43.082 162.129 43.0215 161.918 42.9004C161.707 42.7793 161.559 42.6211 161.473 42.4258C161.387 42.2266 161.344 41.8105 161.344 41.1777V37.5977H160.57V36.7773H161.344V35.2363L162.393 34.6035V36.7773H163.453V37.5977H162.393V41.2363C162.393 41.5371 162.41 41.7305 162.445 41.8164C162.484 41.9023 162.545 41.9707 162.627 42.0215C162.713 42.0723 162.834 42.0977 162.99 42.0977C163.107 42.0977 163.262 42.084 163.453 42.0566Z" fill="black"/>
<path d="M51 8.16283L120 48L51 87.8372L51 8.16283Z" fill="#D9D9D9" stroke="black" stroke-width="2"/>
<path d="M62.8906 52.2872V43.6974H64.6016L66.6348 49.7794C66.8223 50.3458 66.959 50.7697 67.0449 51.0509C67.1426 50.7384 67.2949 50.2794 67.502 49.674L69.5586 43.6974H71.0879V52.2872H69.9922V45.0978L67.4961 52.2872H66.4707L63.9863 44.9747V52.2872H62.8906ZM76.8652 52.2872V51.3732C76.3809 52.0763 75.7227 52.4279 74.8906 52.4279C74.5234 52.4279 74.1797 52.3575 73.8594 52.2169C73.543 52.0763 73.3066 51.9005 73.1504 51.6896C72.998 51.4747 72.8906 51.213 72.8281 50.9044C72.7852 50.6974 72.7637 50.3693 72.7637 49.92V46.0646H73.8184V49.5157C73.8184 50.0665 73.8398 50.4376 73.8828 50.629C73.9492 50.9064 74.0898 51.1251 74.3047 51.2853C74.5195 51.4415 74.7852 51.5197 75.1016 51.5197C75.418 51.5197 75.7148 51.4396 75.9922 51.2794C76.2695 51.1154 76.4648 50.8947 76.5781 50.6173C76.6953 50.3361 76.7539 49.9298 76.7539 49.3986V46.0646H77.8086V52.2872H76.8652ZM78.7637 52.2872L81.0371 49.0529L78.9336 46.0646H80.252L81.207 47.5236C81.3867 47.8009 81.5312 48.0333 81.6406 48.2208C81.8125 47.963 81.9707 47.7345 82.1152 47.5353L83.1641 46.0646H84.4238L82.2734 48.9943L84.5879 52.2872H83.293L82.0156 50.3536L81.6758 49.8322L80.041 52.2872H78.7637Z" fill="black"/>
<line x1="36.3536" y1="17.3536" x2="18.3536" y2="35.3536" stroke="black"/>
<line x1="35.3536" y1="59.3536" x2="17.3536" y2="77.3536" stroke="black"/>
<path d="M19.4707 46H18.416V39.2793C18.1621 39.5215 17.8281 39.7637 17.4141 40.0059C17.0039 40.248 16.6348 40.4297 16.3066 40.5508V39.5312C16.8965 39.2539 17.4121 38.918 17.8535 38.5234C18.2949 38.1289 18.6074 37.7461 18.791 37.375H19.4707V46ZM27.6504 39.5137L26.6016 39.5957C26.5078 39.1816 26.375 38.8809 26.2031 38.6934C25.918 38.3926 25.5664 38.2422 25.1484 38.2422C24.8125 38.2422 24.5176 38.3359 24.2637 38.5234C23.9316 38.7656 23.6699 39.1191 23.4785 39.584C23.2871 40.0488 23.1875 40.7109 23.1797 41.5703C23.4336 41.1836 23.7441 40.8965 24.1113 40.709C24.4785 40.5215 24.8633 40.4277 25.2656 40.4277C25.9688 40.4277 26.5664 40.6875 27.0586 41.207C27.5547 41.7227 27.8027 42.3906 27.8027 43.2109C27.8027 43.75 27.6855 44.252 27.4512 44.7168C27.2207 45.1777 26.9023 45.5312 26.4961 45.7773C26.0898 46.0234 25.6289 46.1465 25.1133 46.1465C24.2344 46.1465 23.5176 45.8242 22.9629 45.1797C22.4082 44.5312 22.1309 43.4648 22.1309 41.9805C22.1309 40.3203 22.4375 39.1133 23.0508 38.3594C23.5859 37.7031 24.3066 37.375 25.2129 37.375C25.8887 37.375 26.4414 37.5645 26.8711 37.9434C27.3047 38.3223 27.5645 38.8457 27.6504 39.5137ZM23.3438 43.2168C23.3438 43.5801 23.4199 43.9277 23.5723 44.2598C23.7285 44.5918 23.9453 44.8457 24.2227 45.0215C24.5 45.1934 24.791 45.2793 25.0957 45.2793C25.541 45.2793 25.9238 45.0996 26.2441 44.7402C26.5645 44.3809 26.7246 43.8926 26.7246 43.2754C26.7246 42.6816 26.5664 42.2148 26.25 41.875C25.9336 41.5312 25.5352 41.3594 25.0547 41.3594C24.5781 41.3594 24.1738 41.5312 23.8418 41.875C23.5098 42.2148 23.3438 42.6621 23.3438 43.2168Z" fill="black"/>
<path d="M18.4707 88H17.416V81.2793C17.1621 81.5215 16.8281 81.7637 16.4141 82.0059C16.0039 82.248 15.6348 82.4297 15.3066 82.5508V81.5312C15.8965 81.2539 16.4121 80.918 16.8535 80.5234C17.2949 80.1289 17.6074 79.7461 17.791 79.375H18.4707V88ZM26.6504 81.5137L25.6016 81.5957C25.5078 81.1816 25.375 80.8809 25.2031 80.6934C24.918 80.3926 24.5664 80.2422 24.1484 80.2422C23.8125 80.2422 23.5176 80.3359 23.2637 80.5234C22.9316 80.7656 22.6699 81.1191 22.4785 81.584C22.2871 82.0488 22.1875 82.7109 22.1797 83.5703C22.4336 83.1836 22.7441 82.8965 23.1113 82.709C23.4785 82.5215 23.8633 82.4277 24.2656 82.4277C24.9688 82.4277 25.5664 82.6875 26.0586 83.207C26.5547 83.7227 26.8027 84.3906 26.8027 85.2109C26.8027 85.75 26.6855 86.252 26.4512 86.7168C26.2207 87.1777 25.9023 87.5312 25.4961 87.7773C25.0898 88.0234 24.6289 88.1465 24.1133 88.1465C23.2344 88.1465 22.5176 87.8242 21.9629 87.1797C21.4082 86.5312 21.1309 85.4648 21.1309 83.9805C21.1309 82.3203 21.4375 81.1133 22.0508 80.3594C22.5859 79.7031 23.3066 79.375 24.2129 79.375C24.8887 79.375 25.4414 79.5645 25.8711 79.9434C26.3047 80.3223 26.5645 80.8457 26.6504 81.5137ZM22.3438 85.2168C22.3438 85.5801 22.4199 85.9277 22.5723 86.2598C22.7285 86.5918 22.9453 86.8457 23.2227 87.0215C23.5 87.1934 23.791 87.2793 24.0957 87.2793C24.541 87.2793 24.9238 87.0996 25.2441 86.7402C25.5645 86.3809 25.7246 85.8926 25.7246 85.2754C25.7246 84.6816 25.5664 84.2148 25.25 83.875C24.9336 83.5312 24.5352 83.3594 24.0547 83.3594C23.5781 83.3594 23.1738 83.5312 22.8418 83.875C22.5098 84.2148 22.3438 84.6621 22.3438 85.2168Z" fill="black"/>
<line x1="143.354" y1="39.3536" x2="125.354" y2="57.3536" stroke="black"/>
<path d="M126.471 68H125.416V61.2793C125.162 61.5215 124.828 61.7637 124.414 62.0059C124.004 62.248 123.635 62.4297 123.307 62.5508V61.5312C123.896 61.2539 124.412 60.918 124.854 60.5234C125.295 60.1289 125.607 59.7461 125.791 59.375H126.471V68ZM134.65 61.5137L133.602 61.5957C133.508 61.1816 133.375 60.8809 133.203 60.6934C132.918 60.3926 132.566 60.2422 132.148 60.2422C131.812 60.2422 131.518 60.3359 131.264 60.5234C130.932 60.7656 130.67 61.1191 130.479 61.584C130.287 62.0488 130.188 62.7109 130.18 63.5703C130.434 63.1836 130.744 62.8965 131.111 62.709C131.479 62.5215 131.863 62.4277 132.266 62.4277C132.969 62.4277 133.566 62.6875 134.059 63.207C134.555 63.7227 134.803 64.3906 134.803 65.2109C134.803 65.75 134.686 66.252 134.451 66.7168C134.221 67.1777 133.902 67.5312 133.496 67.7773C133.09 68.0234 132.629 68.1465 132.113 68.1465C131.234 68.1465 130.518 67.8242 129.963 67.1797C129.408 66.5312 129.131 65.4648 129.131 63.9805C129.131 62.3203 129.438 61.1133 130.051 60.3594C130.586 59.7031 131.307 59.375 132.213 59.375C132.889 59.375 133.441 59.5645 133.871 59.9434C134.305 60.3223 134.564 60.8457 134.65 61.5137ZM130.344 65.2168C130.344 65.5801 130.42 65.9277 130.572 66.2598C130.729 66.5918 130.945 66.8457 131.223 67.0215C131.5 67.1934 131.791 67.2793 132.096 67.2793C132.541 67.2793 132.924 67.0996 133.244 66.7402C133.564 66.3809 133.725 65.8926 133.725 65.2754C133.725 64.6816 133.566 64.2148 133.25 63.875C132.934 63.5312 132.535 63.3594 132.055 63.3594C131.578 63.3594 131.174 63.5312 130.842 63.875C130.51 64.2148 130.344 64.6621 130.344 65.2168Z" fill="black"/>
</svg>
