<svg width="605" height="283" viewBox="0 0 605 283" fill="none" xmlns="http://www.w3.org/2000/svg">
<path d="M4.85156 40.2324C4.46094 40.5645 4.08398 40.7988 3.7207 40.9355C3.36133 41.0723 2.97461 41.1406 2.56055 41.1406C1.87695 41.1406 1.35156 40.9746 0.984375 40.6426C0.617188 40.3066 0.433594 39.8789 0.433594 39.3594C0.433594 39.0547 0.501953 38.7773 0.638672 38.5273C0.779297 38.2734 0.960938 38.0703 1.18359 37.918C1.41016 37.7656 1.66406 37.6504 1.94531 37.5723C2.15234 37.5176 2.46484 37.4648 2.88281 37.4141C3.73438 37.3125 4.36133 37.1914 4.76367 37.0508C4.76758 36.9062 4.76953 36.8145 4.76953 36.7754C4.76953 36.3457 4.66992 36.043 4.4707 35.8672C4.20117 35.6289 3.80078 35.5098 3.26953 35.5098C2.77344 35.5098 2.40625 35.5977 2.16797 35.7734C1.93359 35.9453 1.75977 36.252 1.64648 36.6934L0.615234 36.5527C0.708984 36.1113 0.863281 35.7559 1.07812 35.4863C1.29297 35.2129 1.60352 35.0039 2.00977 34.8594C2.41602 34.7109 2.88672 34.6367 3.42188 34.6367C3.95312 34.6367 4.38477 34.6992 4.7168 34.8242C5.04883 34.9492 5.29297 35.1074 5.44922 35.2988C5.60547 35.4863 5.71484 35.7246 5.77734 36.0137C5.8125 36.1934 5.83008 36.5176 5.83008 36.9863V38.3926C5.83008 39.373 5.85156 39.9941 5.89453 40.2559C5.94141 40.5137 6.03125 40.7617 6.16406 41H5.0625C4.95312 40.7812 4.88281 40.5254 4.85156 40.2324ZM4.76367 37.877C4.38086 38.0332 3.80664 38.166 3.04102 38.2754C2.60742 38.3379 2.30078 38.4082 2.12109 38.4863C1.94141 38.5645 1.80273 38.6797 1.70508 38.832C1.60742 38.9805 1.55859 39.1465 1.55859 39.3301C1.55859 39.6113 1.66406 39.8457 1.875 40.0332C2.08984 40.2207 2.40234 40.3145 2.8125 40.3145C3.21875 40.3145 3.58008 40.2266 3.89648 40.0508C4.21289 39.8711 4.44531 39.627 4.59375 39.3184C4.70703 39.0801 4.76367 38.7285 4.76367 38.2637V37.877Z" fill="black"/>
<path d="M4.85156 122.721L5.88867 122.855C5.77539 123.57 5.48438 124.131 5.01562 124.537C4.55078 124.939 3.97852 125.141 3.29883 125.141C2.44727 125.141 1.76172 124.863 1.24219 124.309C0.726562 123.75 0.46875 122.951 0.46875 121.912C0.46875 121.24 0.580078 120.652 0.802734 120.148C1.02539 119.645 1.36328 119.268 1.81641 119.018C2.27344 118.764 2.76953 118.637 3.30469 118.637C3.98047 118.637 4.5332 118.809 4.96289 119.152C5.39258 119.492 5.66797 119.977 5.78906 120.605L4.76367 120.764C4.66602 120.346 4.49219 120.031 4.24219 119.82C3.99609 119.609 3.69727 119.504 3.3457 119.504C2.81445 119.504 2.38281 119.695 2.05078 120.078C1.71875 120.457 1.55273 121.059 1.55273 121.883C1.55273 122.719 1.71289 123.326 2.0332 123.705C2.35352 124.084 2.77148 124.273 3.28711 124.273C3.70117 124.273 4.04688 124.146 4.32422 123.893C4.60156 123.639 4.77734 123.248 4.85156 122.721Z" fill="black"/>
<path d="M1.76367 83H0.785156V74.4102H1.83984V77.4746C2.28516 76.916 2.85352 76.6367 3.54492 76.6367C3.92773 76.6367 4.28906 76.7148 4.62891 76.8711C4.97266 77.0234 5.25391 77.2402 5.47266 77.5215C5.69531 77.7988 5.86914 78.1348 5.99414 78.5293C6.11914 78.9238 6.18164 79.3457 6.18164 79.7949C6.18164 80.8613 5.91797 81.6855 5.39062 82.2676C4.86328 82.8496 4.23047 83.1406 3.49219 83.1406C2.75781 83.1406 2.18164 82.834 1.76367 82.2207V83ZM1.75195 79.8418C1.75195 80.5879 1.85352 81.127 2.05664 81.459C2.38867 82.002 2.83789 82.2734 3.4043 82.2734C3.86523 82.2734 4.26367 82.0742 4.59961 81.6758C4.93555 81.2734 5.10352 80.6758 5.10352 79.8828C5.10352 79.0703 4.94141 78.4707 4.61719 78.084C4.29688 77.6973 3.9082 77.5039 3.45117 77.5039C2.99023 77.5039 2.5918 77.7051 2.25586 78.1074C1.91992 78.5059 1.75195 79.084 1.75195 79.8418Z" fill="black"/>
<path d="M4.82812 167V166.215C4.43359 166.832 3.85352 167.141 3.08789 167.141C2.5918 167.141 2.13477 167.004 1.7168 166.73C1.30273 166.457 0.980469 166.076 0.75 165.588C0.523438 165.096 0.410156 164.531 0.410156 163.895C0.410156 163.273 0.513672 162.711 0.720703 162.207C0.927734 161.699 1.23828 161.311 1.65234 161.041C2.06641 160.771 2.5293 160.637 3.04102 160.637C3.41602 160.637 3.75 160.717 4.04297 160.877C4.33594 161.033 4.57422 161.238 4.75781 161.492V158.41H5.80664V167H4.82812ZM1.49414 163.895C1.49414 164.691 1.66211 165.287 1.99805 165.682C2.33398 166.076 2.73047 166.273 3.1875 166.273C3.64844 166.273 4.03906 166.086 4.35938 165.711C4.68359 165.332 4.8457 164.756 4.8457 163.982C4.8457 163.131 4.68164 162.506 4.35352 162.107C4.02539 161.709 3.62109 161.51 3.14062 161.51C2.67188 161.51 2.2793 161.701 1.96289 162.084C1.65039 162.467 1.49414 163.07 1.49414 163.895Z" fill="black"/>
<path d="M0.369141 221.143L1.41211 220.979C1.4707 221.396 1.63281 221.717 1.89844 221.939C2.16797 222.162 2.54297 222.273 3.02344 222.273C3.50781 222.273 3.86719 222.176 4.10156 221.98C4.33594 221.781 4.45312 221.549 4.45312 221.283C4.45312 221.045 4.34961 220.857 4.14258 220.721C3.99805 220.627 3.63867 220.508 3.06445 220.363C2.29102 220.168 1.75391 220 1.45312 219.859C1.15625 219.715 0.929688 219.518 0.773438 219.268C0.621094 219.014 0.544922 218.734 0.544922 218.43C0.544922 218.152 0.607422 217.896 0.732422 217.662C0.861328 217.424 1.03516 217.227 1.25391 217.07C1.41797 216.949 1.64062 216.848 1.92188 216.766C2.20703 216.68 2.51172 216.637 2.83594 216.637C3.32422 216.637 3.75195 216.707 4.11914 216.848C4.49023 216.988 4.76367 217.18 4.93945 217.422C5.11523 217.66 5.23633 217.98 5.30273 218.383L4.27148 218.523C4.22461 218.203 4.08789 217.953 3.86133 217.773C3.63867 217.594 3.32227 217.504 2.91211 217.504C2.42773 217.504 2.08203 217.584 1.875 217.744C1.66797 217.904 1.56445 218.092 1.56445 218.307C1.56445 218.443 1.60742 218.566 1.69336 218.676C1.7793 218.789 1.91406 218.883 2.09766 218.957C2.20312 218.996 2.51367 219.086 3.0293 219.227C3.77539 219.426 4.29492 219.59 4.58789 219.719C4.88477 219.844 5.11719 220.027 5.28516 220.27C5.45312 220.512 5.53711 220.812 5.53711 221.172C5.53711 221.523 5.43359 221.855 5.22656 222.168C5.02344 222.477 4.72852 222.717 4.3418 222.889C3.95508 223.057 3.51758 223.141 3.0293 223.141C2.2207 223.141 1.60352 222.973 1.17773 222.637C0.755859 222.301 0.486328 221.803 0.369141 221.143ZM11.0508 220.996L12.1406 221.131C11.9688 221.768 11.6504 222.262 11.1855 222.613C10.7207 222.965 10.127 223.141 9.4043 223.141C8.49414 223.141 7.77148 222.861 7.23633 222.303C6.70508 221.74 6.43945 220.953 6.43945 219.941C6.43945 218.895 6.70898 218.082 7.24805 217.504C7.78711 216.926 8.48633 216.637 9.3457 216.637C10.1777 216.637 10.8574 216.92 11.3848 217.486C11.9121 218.053 12.1758 218.85 12.1758 219.877C12.1758 219.939 12.1738 220.033 12.1699 220.158H7.5293C7.56836 220.842 7.76172 221.365 8.10938 221.729C8.45703 222.092 8.89062 222.273 9.41016 222.273C9.79688 222.273 10.127 222.172 10.4004 221.969C10.6738 221.766 10.8906 221.441 11.0508 220.996ZM7.58789 219.291H11.0625C11.0156 218.768 10.8828 218.375 10.6641 218.113C10.3281 217.707 9.89258 217.504 9.35742 217.504C8.87305 217.504 8.46484 217.666 8.13281 217.99C7.80469 218.314 7.62305 218.748 7.58789 219.291ZM13.4473 223V214.41H14.502V223H13.4473ZM16.166 225.385V214.41H18.4922V215.283H17.2207V224.512H18.4922V225.385H16.166ZM19.1895 218.764C19.1895 217.748 19.293 216.932 19.5 216.314C19.7109 215.693 20.0215 215.215 20.4316 214.879C20.8457 214.543 21.3652 214.375 21.9902 214.375C22.4512 214.375 22.8555 214.469 23.2031 214.656C23.5508 214.84 23.8379 215.107 24.0645 215.459C24.291 215.807 24.4688 216.232 24.5977 216.736C24.7266 217.236 24.791 217.912 24.791 218.764C24.791 219.771 24.6875 220.586 24.4805 221.207C24.2734 221.824 23.9629 222.303 23.5488 222.643C23.1387 222.979 22.6191 223.146 21.9902 223.146C21.1621 223.146 20.5117 222.85 20.0391 222.256C19.4727 221.541 19.1895 220.377 19.1895 218.764ZM20.2734 218.764C20.2734 220.174 20.4375 221.113 20.7656 221.582C21.0977 222.047 21.5059 222.279 21.9902 222.279C22.4746 222.279 22.8809 222.045 23.209 221.576C23.541 221.107 23.707 220.17 23.707 218.764C23.707 217.35 23.541 216.41 23.209 215.945C22.8809 215.48 22.4707 215.248 21.9785 215.248C21.4941 215.248 21.1074 215.453 20.8184 215.863C20.4551 216.387 20.2734 217.354 20.2734 218.764ZM27.9258 225.385H25.5996V224.512H26.8711V215.283H25.5996V214.41H27.9258V225.385Z" fill="black"/>
<path d="M0.369141 253.143L1.41211 252.979C1.4707 253.396 1.63281 253.717 1.89844 253.939C2.16797 254.162 2.54297 254.273 3.02344 254.273C3.50781 254.273 3.86719 254.176 4.10156 253.98C4.33594 253.781 4.45312 253.549 4.45312 253.283C4.45312 253.045 4.34961 252.857 4.14258 252.721C3.99805 252.627 3.63867 252.508 3.06445 252.363C2.29102 252.168 1.75391 252 1.45312 251.859C1.15625 251.715 0.929688 251.518 0.773438 251.268C0.621094 251.014 0.544922 250.734 0.544922 250.43C0.544922 250.152 0.607422 249.896 0.732422 249.662C0.861328 249.424 1.03516 249.227 1.25391 249.07C1.41797 248.949 1.64062 248.848 1.92188 248.766C2.20703 248.68 2.51172 248.637 2.83594 248.637C3.32422 248.637 3.75195 248.707 4.11914 248.848C4.49023 248.988 4.76367 249.18 4.93945 249.422C5.11523 249.66 5.23633 249.98 5.30273 250.383L4.27148 250.523C4.22461 250.203 4.08789 249.953 3.86133 249.773C3.63867 249.594 3.32227 249.504 2.91211 249.504C2.42773 249.504 2.08203 249.584 1.875 249.744C1.66797 249.904 1.56445 250.092 1.56445 250.307C1.56445 250.443 1.60742 250.566 1.69336 250.676C1.7793 250.789 1.91406 250.883 2.09766 250.957C2.20312 250.996 2.51367 251.086 3.0293 251.227C3.77539 251.426 4.29492 251.59 4.58789 251.719C4.88477 251.844 5.11719 252.027 5.28516 252.27C5.45312 252.512 5.53711 252.812 5.53711 253.172C5.53711 253.523 5.43359 253.855 5.22656 254.168C5.02344 254.477 4.72852 254.717 4.3418 254.889C3.95508 255.057 3.51758 255.141 3.0293 255.141C2.2207 255.141 1.60352 254.973 1.17773 254.637C0.755859 254.301 0.486328 253.803 0.369141 253.143ZM11.0508 252.996L12.1406 253.131C11.9688 253.768 11.6504 254.262 11.1855 254.613C10.7207 254.965 10.127 255.141 9.4043 255.141C8.49414 255.141 7.77148 254.861 7.23633 254.303C6.70508 253.74 6.43945 252.953 6.43945 251.941C6.43945 250.895 6.70898 250.082 7.24805 249.504C7.78711 248.926 8.48633 248.637 9.3457 248.637C10.1777 248.637 10.8574 248.92 11.3848 249.486C11.9121 250.053 12.1758 250.85 12.1758 251.877C12.1758 251.939 12.1738 252.033 12.1699 252.158H7.5293C7.56836 252.842 7.76172 253.365 8.10938 253.729C8.45703 254.092 8.89062 254.273 9.41016 254.273C9.79688 254.273 10.127 254.172 10.4004 253.969C10.6738 253.766 10.8906 253.441 11.0508 252.996ZM7.58789 251.291H11.0625C11.0156 250.768 10.8828 250.375 10.6641 250.113C10.3281 249.707 9.89258 249.504 9.35742 249.504C8.87305 249.504 8.46484 249.666 8.13281 249.99C7.80469 250.314 7.62305 250.748 7.58789 251.291ZM13.4473 255V246.41H14.502V255H13.4473ZM16.166 257.385V246.41H18.4922V247.283H17.2207V256.512H18.4922V257.385H16.166ZM23.1621 255H22.1074V248.279C21.8535 248.521 21.5195 248.764 21.1055 249.006C20.6953 249.248 20.3262 249.43 19.998 249.551V248.531C20.5879 248.254 21.1035 247.918 21.5449 247.523C21.9863 247.129 22.2988 246.746 22.4824 246.375H23.1621V255ZM27.9258 257.385H25.5996V256.512H26.8711V247.283H25.5996V246.41H27.9258V257.385Z" fill="black"/>
<line x1="8.74228e-08" y1="49" x2="46" y2="49" stroke="#FF6B00" stroke-width="2"/>
<line x1="8.74228e-08" y1="133" x2="177" y2="133" stroke="#FF6B00" stroke-width="2"/>
<line x1="226" y1="70" x2="356" y2="70" stroke="#FF6B00" stroke-width="2"/>
<line x1="8.74228e-08" y1="91" x2="46" y2="91" stroke="#FF6B00" stroke-width="2"/>
<line x1="8.74228e-08" y1="175" x2="177" y2="175" stroke="#FF6B00" stroke-width="2"/>
<line x1="8.74228e-08" y1="231" x2="265" y2="231" stroke="#00FF00" stroke-width="2"/>
<line x1="134" y1="125" x2="134" y2="232" stroke="#00FF00" stroke-width="2" stroke-dasharray="4 4"/>
<line x1="264" y1="209" x2="264" y2="232" stroke="#00FF00" stroke-width="2"/>
<line x1="444" y1="188" x2="444" y2="263" stroke="#00FF00" stroke-width="2"/>
<line x1="355" y1="70" x2="355" y2="113" stroke="#FF6B00" stroke-width="2"/>
<line x1="8.74228e-08" y1="263" x2="445" y2="263" stroke="#00FF00" stroke-width="2"/>
<path d="M96 49L86 43.2265V54.7735L96 49ZM46 50H87V48H46V50Z" fill="black"/>
<path d="M96 91L86 85.2265V96.7735L96 91ZM46 92H87V90H46V92Z" fill="black"/>
<path d="M53.8516 42.2324C53.4609 42.5645 53.084 42.7988 52.7207 42.9355C52.3613 43.0723 51.9746 43.1406 51.5605 43.1406C50.877 43.1406 50.3516 42.9746 49.9844 42.6426C49.6172 42.3066 49.4336 41.8789 49.4336 41.3594C49.4336 41.0547 49.502 40.7773 49.6387 40.5273C49.7793 40.2734 49.9609 40.0703 50.1836 39.918C50.4102 39.7656 50.6641 39.6504 50.9453 39.5723C51.1523 39.5176 51.4648 39.4648 51.8828 39.4141C52.7344 39.3125 53.3613 39.1914 53.7637 39.0508C53.7676 38.9062 53.7695 38.8145 53.7695 38.7754C53.7695 38.3457 53.6699 38.043 53.4707 37.8672C53.2012 37.6289 52.8008 37.5098 52.2695 37.5098C51.7734 37.5098 51.4062 37.5977 51.168 37.7734C50.9336 37.9453 50.7598 38.252 50.6465 38.6934L49.6152 38.5527C49.709 38.1113 49.8633 37.7559 50.0781 37.4863C50.293 37.2129 50.6035 37.0039 51.0098 36.8594C51.416 36.7109 51.8867 36.6367 52.4219 36.6367C52.9531 36.6367 53.3848 36.6992 53.7168 36.8242C54.0488 36.9492 54.293 37.1074 54.4492 37.2988C54.6055 37.4863 54.7148 37.7246 54.7773 38.0137C54.8125 38.1934 54.8301 38.5176 54.8301 38.9863V40.3926C54.8301 41.373 54.8516 41.9941 54.8945 42.2559C54.9414 42.5137 55.0312 42.7617 55.1641 43H54.0625C53.9531 42.7812 53.8828 42.5254 53.8516 42.2324ZM53.7637 39.877C53.3809 40.0332 52.8066 40.166 52.041 40.2754C51.6074 40.3379 51.3008 40.4082 51.1211 40.4863C50.9414 40.5645 50.8027 40.6797 50.7051 40.832C50.6074 40.9805 50.5586 41.1465 50.5586 41.3301C50.5586 41.6113 50.6641 41.8457 50.875 42.0332C51.0898 42.2207 51.4023 42.3145 51.8125 42.3145C52.2188 42.3145 52.5801 42.2266 52.8965 42.0508C53.2129 41.8711 53.4453 41.627 53.5938 41.3184C53.707 41.0801 53.7637 40.7285 53.7637 40.2637V39.877Z" fill="black"/>
<path d="M134 89.2872L128.226 99.2872L139.774 99.2872L134 89.2872ZM135 125.287L135 98.2872L133 98.2872L133 125.287L135 125.287Z" fill="black"/>
<path d="M140.369 105.43L141.412 105.266C141.471 105.684 141.633 106.004 141.898 106.227C142.168 106.449 142.543 106.561 143.023 106.561C143.508 106.561 143.867 106.463 144.102 106.268C144.336 106.068 144.453 105.836 144.453 105.57C144.453 105.332 144.35 105.145 144.143 105.008C143.998 104.914 143.639 104.795 143.064 104.651C142.291 104.455 141.754 104.287 141.453 104.147C141.156 104.002 140.93 103.805 140.773 103.555C140.621 103.301 140.545 103.022 140.545 102.717C140.545 102.44 140.607 102.184 140.732 101.949C140.861 101.711 141.035 101.514 141.254 101.358C141.418 101.236 141.641 101.135 141.922 101.053C142.207 100.967 142.512 100.924 142.836 100.924C143.324 100.924 143.752 100.994 144.119 101.135C144.49 101.276 144.764 101.467 144.939 101.709C145.115 101.947 145.236 102.268 145.303 102.67L144.271 102.811C144.225 102.49 144.088 102.24 143.861 102.061C143.639 101.881 143.322 101.791 142.912 101.791C142.428 101.791 142.082 101.871 141.875 102.031C141.668 102.192 141.564 102.379 141.564 102.594C141.564 102.731 141.607 102.854 141.693 102.963C141.779 103.076 141.914 103.17 142.098 103.244C142.203 103.283 142.514 103.373 143.029 103.514C143.775 103.713 144.295 103.877 144.588 104.006C144.885 104.131 145.117 104.315 145.285 104.557C145.453 104.799 145.537 105.1 145.537 105.459C145.537 105.811 145.434 106.143 145.227 106.455C145.023 106.764 144.729 107.004 144.342 107.176C143.955 107.344 143.518 107.428 143.029 107.428C142.221 107.428 141.604 107.26 141.178 106.924C140.756 106.588 140.486 106.09 140.369 105.43ZM151.051 105.283L152.141 105.418C151.969 106.055 151.65 106.549 151.186 106.901C150.721 107.252 150.127 107.428 149.404 107.428C148.494 107.428 147.771 107.149 147.236 106.59C146.705 106.027 146.439 105.24 146.439 104.229C146.439 103.182 146.709 102.369 147.248 101.791C147.787 101.213 148.486 100.924 149.346 100.924C150.178 100.924 150.857 101.207 151.385 101.774C151.912 102.34 152.176 103.137 152.176 104.164C152.176 104.227 152.174 104.32 152.17 104.445H147.529C147.568 105.129 147.762 105.652 148.109 106.016C148.457 106.379 148.891 106.561 149.41 106.561C149.797 106.561 150.127 106.459 150.4 106.256C150.674 106.053 150.891 105.729 151.051 105.283ZM147.588 103.578H151.062C151.016 103.055 150.883 102.662 150.664 102.401C150.328 101.994 149.893 101.791 149.357 101.791C148.873 101.791 148.465 101.953 148.133 102.277C147.805 102.602 147.623 103.035 147.588 103.578ZM153.447 107.287V98.6974H154.502V107.287H153.447Z" fill="black"/>
<path d="M50.7637 85.2872H49.7852V76.6974H50.8398V79.7618C51.2852 79.2032 51.8535 78.924 52.5449 78.924C52.9277 78.924 53.2891 79.0021 53.6289 79.1583C53.9727 79.3107 54.2539 79.5275 54.4727 79.8087C54.6953 80.0861 54.8691 80.422 54.9941 80.8165C55.1191 81.2111 55.1816 81.6329 55.1816 82.0822C55.1816 83.1486 54.918 83.9728 54.3906 84.5548C53.8633 85.1368 53.2305 85.4279 52.4922 85.4279C51.7578 85.4279 51.1816 85.1212 50.7637 84.5079V85.2872ZM50.752 82.129C50.752 82.8751 50.8535 83.4142 51.0566 83.7462C51.3887 84.2892 51.8379 84.5607 52.4043 84.5607C52.8652 84.5607 53.2637 84.3615 53.5996 83.963C53.9355 83.5607 54.1035 82.963 54.1035 82.17C54.1035 81.3575 53.9414 80.7579 53.6172 80.3712C53.2969 79.9845 52.9082 79.7911 52.4512 79.7911C51.9902 79.7911 51.5918 79.9923 51.2559 80.3947C50.9199 80.7931 50.752 81.3712 50.752 82.129Z" fill="black"/>
<path d="M226 70L216 64.2265V75.7735L226 70ZM164 71H217V69H164V71Z" fill="black"/>
<path d="M193.398 61.8887C193.398 60.7363 193.719 59.8828 194.359 59.3281C194.895 58.8672 195.547 58.6367 196.316 58.6367C197.172 58.6367 197.871 58.918 198.414 59.4805C198.957 60.0391 199.229 60.8125 199.229 61.8008C199.229 62.6016 199.107 63.2324 198.865 63.6934C198.627 64.1504 198.277 64.5059 197.816 64.7598C197.359 65.0137 196.859 65.1406 196.316 65.1406C195.445 65.1406 194.74 64.8613 194.201 64.3027C193.666 63.7441 193.398 62.9395 193.398 61.8887ZM194.482 61.8887C194.482 62.6855 194.656 63.2832 195.004 63.6816C195.352 64.0762 195.789 64.2734 196.316 64.2734C196.84 64.2734 197.275 64.0742 197.623 63.6758C197.971 63.2773 198.145 62.6699 198.145 61.8535C198.145 61.084 197.969 60.502 197.617 60.1074C197.27 59.709 196.836 59.5098 196.316 59.5098C195.789 59.5098 195.352 59.707 195.004 60.1016C194.656 60.4961 194.482 61.0918 194.482 61.8887ZM204.549 65V64.0859C204.064 64.7891 203.406 65.1406 202.574 65.1406C202.207 65.1406 201.863 65.0703 201.543 64.9297C201.227 64.7891 200.99 64.6133 200.834 64.4023C200.682 64.1875 200.574 63.9258 200.512 63.6172C200.469 63.4102 200.447 63.082 200.447 62.6328V58.7773H201.502V62.2285C201.502 62.7793 201.523 63.1504 201.566 63.3418C201.633 63.6191 201.773 63.8379 201.988 63.998C202.203 64.1543 202.469 64.2324 202.785 64.2324C203.102 64.2324 203.398 64.1523 203.676 63.9922C203.953 63.8281 204.148 63.6074 204.262 63.3301C204.379 63.0488 204.438 62.6426 204.438 62.1113V58.7773H205.492V65H204.549ZM209.453 64.0566L209.605 64.9883C209.309 65.0508 209.043 65.082 208.809 65.082C208.426 65.082 208.129 65.0215 207.918 64.9004C207.707 64.7793 207.559 64.6211 207.473 64.4258C207.387 64.2266 207.344 63.8105 207.344 63.1777V59.5977H206.57V58.7773H207.344V57.2363L208.393 56.6035V58.7773H209.453V59.5977H208.393V63.2363C208.393 63.5371 208.41 63.7305 208.445 63.8164C208.484 63.9023 208.545 63.9707 208.627 64.0215C208.713 64.0723 208.834 64.0977 208.99 64.0977C209.107 64.0977 209.262 64.084 209.453 64.0566Z" fill="black"/>
<path d="M192.398 81.8887C192.398 80.7363 192.719 79.8828 193.359 79.3281C193.895 78.8672 194.547 78.6367 195.316 78.6367C196.172 78.6367 196.871 78.918 197.414 79.4805C197.957 80.0391 198.229 80.8125 198.229 81.8008C198.229 82.6016 198.107 83.2324 197.865 83.6934C197.627 84.1504 197.277 84.5059 196.816 84.7598C196.359 85.0137 195.859 85.1406 195.316 85.1406C194.445 85.1406 193.74 84.8613 193.201 84.3027C192.666 83.7441 192.398 82.9395 192.398 81.8887ZM193.482 81.8887C193.482 82.6855 193.656 83.2832 194.004 83.6816C194.352 84.0762 194.789 84.2734 195.316 84.2734C195.84 84.2734 196.275 84.0742 196.623 83.6758C196.971 83.2773 197.145 82.6699 197.145 81.8535C197.145 81.084 196.969 80.502 196.617 80.1074C196.27 79.709 195.836 79.5098 195.316 79.5098C194.789 79.5098 194.352 79.707 194.004 80.1016C193.656 80.4961 193.482 81.0918 193.482 81.8887ZM203.15 85H202.096V78.2793C201.842 78.5215 201.508 78.7637 201.094 79.0059C200.684 79.248 200.314 79.4297 199.986 79.5508V78.5312C200.576 78.2539 201.092 77.918 201.533 77.5234C201.975 77.1289 202.287 76.7461 202.471 76.375H203.15V85Z" fill="black"/>
<path d="M97 30.1628L166 70L97 109.837L97 30.1628Z" fill="#D9D9D9" stroke="black" stroke-width="2"/>
<path d="M108.891 74.2872V65.6974H110.602L112.635 71.7794C112.822 72.3458 112.959 72.7697 113.045 73.0509C113.143 72.7384 113.295 72.2794 113.502 71.674L115.559 65.6974H117.088V74.2872H115.992V67.0978L113.496 74.2872H112.471L109.986 66.9747V74.2872H108.891ZM122.865 74.2872V73.3732C122.381 74.0763 121.723 74.4279 120.891 74.4279C120.523 74.4279 120.18 74.3575 119.859 74.2169C119.543 74.0763 119.307 73.9005 119.15 73.6896C118.998 73.4747 118.891 73.213 118.828 72.9044C118.785 72.6974 118.764 72.3693 118.764 71.92V68.0646H119.818V71.5157C119.818 72.0665 119.84 72.4376 119.883 72.629C119.949 72.9064 120.09 73.1251 120.305 73.2853C120.52 73.4415 120.785 73.5197 121.102 73.5197C121.418 73.5197 121.715 73.4396 121.992 73.2794C122.27 73.1154 122.465 72.8947 122.578 72.6173C122.695 72.3361 122.754 71.9298 122.754 71.3986V68.0646H123.809V74.2872H122.865ZM124.764 74.2872L127.037 71.0529L124.934 68.0646H126.252L127.207 69.5236C127.387 69.8009 127.531 70.0333 127.641 70.2208C127.812 69.963 127.971 69.7345 128.115 69.5353L129.164 68.0646H130.424L128.273 70.9943L130.588 74.2872H129.293L128.016 72.3536L127.676 71.8322L126.041 74.2872H124.764Z" fill="black"/>
<line x1="82.3536" y1="39.3536" x2="64.3536" y2="57.3536" stroke="black"/>
<line x1="81.3536" y1="81.3536" x2="63.3536" y2="99.3536" stroke="black"/>
<path d="M65.4707 68H64.416V61.2793C64.1621 61.5215 63.8281 61.7637 63.4141 62.0059C63.0039 62.248 62.6348 62.4297 62.3066 62.5508V61.5312C62.8965 61.2539 63.4121 60.918 63.8535 60.5234C64.2949 60.1289 64.6074 59.7461 64.791 59.375H65.4707V68ZM73.6504 61.5137L72.6016 61.5957C72.5078 61.1816 72.375 60.8809 72.2031 60.6934C71.918 60.3926 71.5664 60.2422 71.1484 60.2422C70.8125 60.2422 70.5176 60.3359 70.2637 60.5234C69.9316 60.7656 69.6699 61.1191 69.4785 61.584C69.2871 62.0488 69.1875 62.7109 69.1797 63.5703C69.4336 63.1836 69.7441 62.8965 70.1113 62.709C70.4785 62.5215 70.8633 62.4277 71.2656 62.4277C71.9688 62.4277 72.5664 62.6875 73.0586 63.207C73.5547 63.7227 73.8027 64.3906 73.8027 65.2109C73.8027 65.75 73.6855 66.252 73.4512 66.7168C73.2207 67.1777 72.9023 67.5312 72.4961 67.7773C72.0898 68.0234 71.6289 68.1465 71.1133 68.1465C70.2344 68.1465 69.5176 67.8242 68.9629 67.1797C68.4082 66.5312 68.1309 65.4648 68.1309 63.9805C68.1309 62.3203 68.4375 61.1133 69.0508 60.3594C69.5859 59.7031 70.3066 59.375 71.2129 59.375C71.8887 59.375 72.4414 59.5645 72.8711 59.9434C73.3047 60.3223 73.5645 60.8457 73.6504 61.5137ZM69.3438 65.2168C69.3438 65.5801 69.4199 65.9277 69.5723 66.2598C69.7285 66.5918 69.9453 66.8457 70.2227 67.0215C70.5 67.1934 70.791 67.2793 71.0957 67.2793C71.541 67.2793 71.9238 67.0996 72.2441 66.7402C72.5645 66.3809 72.7246 65.8926 72.7246 65.2754C72.7246 64.6816 72.5664 64.2148 72.25 63.875C71.9336 63.5312 71.5352 63.3594 71.0547 63.3594C70.5781 63.3594 70.1738 63.5312 69.8418 63.875C69.5098 64.2148 69.3438 64.6621 69.3438 65.2168Z" fill="black"/>
<path d="M64.4707 110H63.416V103.279C63.1621 103.521 62.8281 103.764 62.4141 104.006C62.0039 104.248 61.6348 104.43 61.3066 104.551V103.531C61.8965 103.254 62.4121 102.918 62.8535 102.523C63.2949 102.129 63.6074 101.746 63.791 101.375H64.4707V110ZM72.6504 103.514L71.6016 103.596C71.5078 103.182 71.375 102.881 71.2031 102.693C70.918 102.393 70.5664 102.242 70.1484 102.242C69.8125 102.242 69.5176 102.336 69.2637 102.523C68.9316 102.766 68.6699 103.119 68.4785 103.584C68.2871 104.049 68.1875 104.711 68.1797 105.57C68.4336 105.184 68.7441 104.896 69.1113 104.709C69.4785 104.521 69.8633 104.428 70.2656 104.428C70.9688 104.428 71.5664 104.688 72.0586 105.207C72.5547 105.723 72.8027 106.391 72.8027 107.211C72.8027 107.75 72.6855 108.252 72.4512 108.717C72.2207 109.178 71.9023 109.531 71.4961 109.777C71.0898 110.023 70.6289 110.146 70.1133 110.146C69.2344 110.146 68.5176 109.824 67.9629 109.18C67.4082 108.531 67.1309 107.465 67.1309 105.98C67.1309 104.32 67.4375 103.113 68.0508 102.359C68.5859 101.703 69.3066 101.375 70.2129 101.375C70.8887 101.375 71.4414 101.564 71.8711 101.943C72.3047 102.322 72.5645 102.846 72.6504 103.514ZM68.3438 107.217C68.3438 107.58 68.4199 107.928 68.5723 108.26C68.7285 108.592 68.9453 108.846 69.2227 109.021C69.5 109.193 69.791 109.279 70.0957 109.279C70.541 109.279 70.9238 109.1 71.2441 108.74C71.5645 108.381 71.7246 107.893 71.7246 107.275C71.7246 106.682 71.5664 106.215 71.25 105.875C70.9336 105.531 70.5352 105.359 70.0547 105.359C69.5781 105.359 69.1738 105.531 68.8418 105.875C68.5098 106.215 68.3438 106.662 68.3438 107.217Z" fill="black"/>
<line x1="189.354" y1="61.3536" x2="171.354" y2="79.3536" stroke="black"/>
<path d="M172.471 90H171.416V83.2793C171.162 83.5215 170.828 83.7637 170.414 84.0059C170.004 84.248 169.635 84.4297 169.307 84.5508V83.5312C169.896 83.2539 170.412 82.918 170.854 82.5234C171.295 82.1289 171.607 81.7461 171.791 81.375H172.471V90ZM180.65 83.5137L179.602 83.5957C179.508 83.1816 179.375 82.8809 179.203 82.6934C178.918 82.3926 178.566 82.2422 178.148 82.2422C177.812 82.2422 177.518 82.3359 177.264 82.5234C176.932 82.7656 176.67 83.1191 176.479 83.584C176.287 84.0488 176.188 84.7109 176.18 85.5703C176.434 85.1836 176.744 84.8965 177.111 84.709C177.479 84.5215 177.863 84.4277 178.266 84.4277C178.969 84.4277 179.566 84.6875 180.059 85.207C180.555 85.7227 180.803 86.3906 180.803 87.2109C180.803 87.75 180.686 88.252 180.451 88.7168C180.221 89.1777 179.902 89.5312 179.496 89.7773C179.09 90.0234 178.629 90.1465 178.113 90.1465C177.234 90.1465 176.518 89.8242 175.963 89.1797C175.408 88.5312 175.131 87.4648 175.131 85.9805C175.131 84.3203 175.438 83.1133 176.051 82.3594C176.586 81.7031 177.307 81.375 178.213 81.375C178.889 81.375 179.441 81.5645 179.871 81.9434C180.305 82.3223 180.564 82.8457 180.65 83.5137ZM176.344 87.2168C176.344 87.5801 176.42 87.9277 176.572 88.2598C176.729 88.5918 176.945 88.8457 177.223 89.0215C177.5 89.1934 177.791 89.2793 178.096 89.2793C178.541 89.2793 178.924 89.0996 179.244 88.7402C179.564 88.3809 179.725 87.8926 179.725 87.2754C179.725 86.6816 179.566 86.2148 179.25 85.875C178.934 85.5312 178.535 85.3594 178.055 85.3594C177.578 85.3594 177.174 85.5312 176.842 85.875C176.51 86.2148 176.344 86.6621 176.344 87.2168Z" fill="black"/>
<path d="M41.8906 11V2.41016H43.6016L45.6348 8.49219C45.8223 9.05859 45.959 9.48242 46.0449 9.76367C46.1426 9.45117 46.2949 8.99219 46.502 8.38672L48.5586 2.41016H50.0879V11H48.9922V3.81055L46.4961 11H45.4707L42.9863 3.6875V11H41.8906ZM55.8652 11V10.0859C55.3809 10.7891 54.7227 11.1406 53.8906 11.1406C53.5234 11.1406 53.1797 11.0703 52.8594 10.9297C52.543 10.7891 52.3066 10.6133 52.1504 10.4023C51.998 10.1875 51.8906 9.92578 51.8281 9.61719C51.7852 9.41016 51.7637 9.08203 51.7637 8.63281V4.77734H52.8184V8.22852C52.8184 8.7793 52.8398 9.15039 52.8828 9.3418C52.9492 9.61914 53.0898 9.83789 53.3047 9.99805C53.5195 10.1543 53.7852 10.2324 54.1016 10.2324C54.418 10.2324 54.7148 10.1523 54.9922 9.99219C55.2695 9.82812 55.4648 9.60742 55.5781 9.33008C55.6953 9.04883 55.7539 8.64258 55.7539 8.11133V4.77734H56.8086V11H55.8652ZM57.7637 11L60.0371 7.76562L57.9336 4.77734H59.252L60.207 6.23633C60.3867 6.51367 60.5312 6.74609 60.6406 6.93359C60.8125 6.67578 60.9707 6.44727 61.1152 6.24805L62.1641 4.77734H63.4238L61.2734 7.70703L63.5879 11H62.293L61.0156 9.06641L60.6758 8.54492L59.041 11H57.7637ZM67.5547 11V8.94336H63.8281V7.97656L67.748 2.41016H68.6094V7.97656H69.7695V8.94336H68.6094V11H67.5547ZM67.5547 7.97656V4.10352L64.8652 7.97656H67.5547ZM72.7812 11L70.502 2.41016H71.668L72.9746 8.04102C73.1152 8.63086 73.2363 9.2168 73.3379 9.79883C73.5566 8.88086 73.6855 8.35156 73.7246 8.21094L75.3594 2.41016H76.7305L77.9609 6.75781C78.2695 7.83594 78.4922 8.84961 78.6289 9.79883C78.7383 9.25586 78.8809 8.63281 79.0566 7.92969L80.4043 2.41016H81.5469L79.1914 11H78.0957L76.2852 4.45508C76.1328 3.9082 76.043 3.57227 76.0156 3.44727C75.9258 3.8418 75.8418 4.17773 75.7637 4.45508L73.9414 11H72.7812ZM86.0938 10.2324C85.7031 10.5645 85.3262 10.7988 84.9629 10.9355C84.6035 11.0723 84.2168 11.1406 83.8027 11.1406C83.1191 11.1406 82.5938 10.9746 82.2266 10.6426C81.8594 10.3066 81.6758 9.87891 81.6758 9.35938C81.6758 9.05469 81.7441 8.77734 81.8809 8.52734C82.0215 8.27344 82.2031 8.07031 82.4258 7.91797C82.6523 7.76562 82.9062 7.65039 83.1875 7.57227C83.3945 7.51758 83.707 7.46484 84.125 7.41406C84.9766 7.3125 85.6035 7.19141 86.0059 7.05078C86.0098 6.90625 86.0117 6.81445 86.0117 6.77539C86.0117 6.3457 85.9121 6.04297 85.7129 5.86719C85.4434 5.62891 85.043 5.50977 84.5117 5.50977C84.0156 5.50977 83.6484 5.59766 83.4102 5.77344C83.1758 5.94531 83.002 6.25195 82.8887 6.69336L81.8574 6.55273C81.9512 6.11133 82.1055 5.75586 82.3203 5.48633C82.5352 5.21289 82.8457 5.00391 83.252 4.85938C83.6582 4.71094 84.1289 4.63672 84.6641 4.63672C85.1953 4.63672 85.627 4.69922 85.959 4.82422C86.291 4.94922 86.5352 5.10742 86.6914 5.29883C86.8477 5.48633 86.957 5.72461 87.0195 6.01367C87.0547 6.19336 87.0723 6.51758 87.0723 6.98633V8.39258C87.0723 9.37305 87.0938 9.99414 87.1367 10.2559C87.1836 10.5137 87.2734 10.7617 87.4062 11H86.3047C86.1953 10.7812 86.125 10.5254 86.0938 10.2324ZM86.0059 7.87695C85.623 8.0332 85.0488 8.16602 84.2832 8.27539C83.8496 8.33789 83.543 8.4082 83.3633 8.48633C83.1836 8.56445 83.0449 8.67969 82.9473 8.83203C82.8496 8.98047 82.8008 9.14648 82.8008 9.33008C82.8008 9.61133 82.9062 9.8457 83.1172 10.0332C83.332 10.2207 83.6445 10.3145 84.0547 10.3145C84.4609 10.3145 84.8223 10.2266 85.1387 10.0508C85.4551 9.87109 85.6875 9.62695 85.8359 9.31836C85.9492 9.08008 86.0059 8.72852 86.0059 8.26367V7.87695ZM88.666 13.3965L88.5488 12.4062C88.7793 12.4688 88.9805 12.5 89.1523 12.5C89.3867 12.5 89.5742 12.4609 89.7148 12.3828C89.8555 12.3047 89.9707 12.1953 90.0605 12.0547C90.127 11.9492 90.2344 11.6875 90.3828 11.2695C90.4023 11.2109 90.4336 11.125 90.4766 11.0117L88.1152 4.77734H89.252L90.5469 8.38086C90.7148 8.83789 90.8652 9.31836 90.998 9.82227C91.1191 9.33789 91.2637 8.86523 91.4316 8.4043L92.7617 4.77734H93.8164L91.4492 11.1055C91.1953 11.7891 90.998 12.2598 90.8574 12.5176C90.6699 12.8652 90.4551 13.1191 90.2129 13.2793C89.9707 13.4434 89.6816 13.5254 89.3457 13.5254C89.1426 13.5254 88.916 13.4824 88.666 13.3965ZM98.3926 11H97.3379V4.2793C97.084 4.52148 96.75 4.76367 96.3359 5.00586C95.9258 5.24805 95.5566 5.42969 95.2285 5.55078V4.53125C95.8184 4.25391 96.334 3.91797 96.7754 3.52344C97.2168 3.12891 97.5293 2.74609 97.7129 2.375H98.3926V11ZM106.572 4.51367L105.523 4.5957C105.43 4.18164 105.297 3.88086 105.125 3.69336C104.84 3.39258 104.488 3.24219 104.07 3.24219C103.734 3.24219 103.439 3.33594 103.186 3.52344C102.854 3.76562 102.592 4.11914 102.4 4.58398C102.209 5.04883 102.109 5.71094 102.102 6.57031C102.355 6.18359 102.666 5.89648 103.033 5.70898C103.4 5.52148 103.785 5.42773 104.188 5.42773C104.891 5.42773 105.488 5.6875 105.98 6.20703C106.477 6.72266 106.725 7.39062 106.725 8.21094C106.725 8.75 106.607 9.25195 106.373 9.7168C106.143 10.1777 105.824 10.5312 105.418 10.7773C105.012 11.0234 104.551 11.1465 104.035 11.1465C103.156 11.1465 102.439 10.8242 101.885 10.1797C101.33 9.53125 101.053 8.46484 101.053 6.98047C101.053 5.32031 101.359 4.11328 101.973 3.35938C102.508 2.70312 103.229 2.375 104.135 2.375C104.811 2.375 105.363 2.56445 105.793 2.94336C106.227 3.32227 106.486 3.8457 106.572 4.51367ZM102.266 8.2168C102.266 8.58008 102.342 8.92773 102.494 9.25977C102.65 9.5918 102.867 9.8457 103.145 10.0215C103.422 10.1934 103.713 10.2793 104.018 10.2793C104.463 10.2793 104.846 10.0996 105.166 9.74023C105.486 9.38086 105.646 8.89258 105.646 8.27539C105.646 7.68164 105.488 7.21484 105.172 6.875C104.855 6.53125 104.457 6.35938 103.977 6.35938C103.5 6.35938 103.096 6.53125 102.764 6.875C102.432 7.21484 102.266 7.66211 102.266 8.2168Z" fill="black"/>
<path d="M406 112L396 106.226V117.774L406 112ZM356 113H397V111H356V113Z" fill="black"/>
<path d="M406 154L396 148.226V159.774L406 154ZM356 155H397V153H356V155Z" fill="black"/>
<path d="M363.852 105.232C363.461 105.564 363.084 105.799 362.721 105.936C362.361 106.072 361.975 106.141 361.561 106.141C360.877 106.141 360.352 105.975 359.984 105.643C359.617 105.307 359.434 104.879 359.434 104.359C359.434 104.055 359.502 103.777 359.639 103.527C359.779 103.273 359.961 103.07 360.184 102.918C360.41 102.766 360.664 102.65 360.945 102.572C361.152 102.518 361.465 102.465 361.883 102.414C362.734 102.312 363.361 102.191 363.764 102.051C363.768 101.906 363.77 101.814 363.77 101.775C363.77 101.346 363.67 101.043 363.471 100.867C363.201 100.629 362.801 100.51 362.27 100.51C361.773 100.51 361.406 100.598 361.168 100.773C360.934 100.945 360.76 101.252 360.646 101.693L359.615 101.553C359.709 101.111 359.863 100.756 360.078 100.486C360.293 100.213 360.604 100.004 361.01 99.8594C361.416 99.7109 361.887 99.6367 362.422 99.6367C362.953 99.6367 363.385 99.6992 363.717 99.8242C364.049 99.9492 364.293 100.107 364.449 100.299C364.605 100.486 364.715 100.725 364.777 101.014C364.812 101.193 364.83 101.518 364.83 101.986V103.393C364.83 104.373 364.852 104.994 364.895 105.256C364.941 105.514 365.031 105.762 365.164 106H364.062C363.953 105.781 363.883 105.525 363.852 105.232ZM363.764 102.877C363.381 103.033 362.807 103.166 362.041 103.275C361.607 103.338 361.301 103.408 361.121 103.486C360.941 103.564 360.803 103.68 360.705 103.832C360.607 103.98 360.559 104.146 360.559 104.33C360.559 104.611 360.664 104.846 360.875 105.033C361.09 105.221 361.402 105.314 361.812 105.314C362.219 105.314 362.58 105.227 362.896 105.051C363.213 104.871 363.445 104.627 363.594 104.318C363.707 104.08 363.764 103.729 363.764 103.264V102.877Z" fill="black"/>
<path d="M444 152.287L438.226 162.287L449.774 162.287L444 152.287ZM445 188.287L445 161.287L443 161.287L443 188.287L445 188.287Z" fill="black"/>
<path d="M450.369 168.43L451.412 168.266C451.471 168.684 451.633 169.004 451.898 169.227C452.168 169.449 452.543 169.561 453.023 169.561C453.508 169.561 453.867 169.463 454.102 169.268C454.336 169.068 454.453 168.836 454.453 168.57C454.453 168.332 454.35 168.145 454.143 168.008C453.998 167.914 453.639 167.795 453.064 167.651C452.291 167.455 451.754 167.287 451.453 167.147C451.156 167.002 450.93 166.805 450.773 166.555C450.621 166.301 450.545 166.022 450.545 165.717C450.545 165.44 450.607 165.184 450.732 164.949C450.861 164.711 451.035 164.514 451.254 164.358C451.418 164.236 451.641 164.135 451.922 164.053C452.207 163.967 452.512 163.924 452.836 163.924C453.324 163.924 453.752 163.994 454.119 164.135C454.49 164.276 454.764 164.467 454.939 164.709C455.115 164.947 455.236 165.268 455.303 165.67L454.271 165.811C454.225 165.49 454.088 165.24 453.861 165.061C453.639 164.881 453.322 164.791 452.912 164.791C452.428 164.791 452.082 164.871 451.875 165.031C451.668 165.192 451.564 165.379 451.564 165.594C451.564 165.731 451.607 165.854 451.693 165.963C451.779 166.076 451.914 166.17 452.098 166.244C452.203 166.283 452.514 166.373 453.029 166.514C453.775 166.713 454.295 166.877 454.588 167.006C454.885 167.131 455.117 167.315 455.285 167.557C455.453 167.799 455.537 168.1 455.537 168.459C455.537 168.811 455.434 169.143 455.227 169.455C455.023 169.764 454.729 170.004 454.342 170.176C453.955 170.344 453.518 170.428 453.029 170.428C452.221 170.428 451.604 170.26 451.178 169.924C450.756 169.588 450.486 169.09 450.369 168.43ZM461.051 168.283L462.141 168.418C461.969 169.055 461.65 169.549 461.186 169.901C460.721 170.252 460.127 170.428 459.404 170.428C458.494 170.428 457.771 170.149 457.236 169.59C456.705 169.027 456.439 168.24 456.439 167.229C456.439 166.182 456.709 165.369 457.248 164.791C457.787 164.213 458.486 163.924 459.346 163.924C460.178 163.924 460.857 164.207 461.385 164.774C461.912 165.34 462.176 166.137 462.176 167.164C462.176 167.227 462.174 167.32 462.17 167.445H457.529C457.568 168.129 457.762 168.652 458.109 169.016C458.457 169.379 458.891 169.561 459.41 169.561C459.797 169.561 460.127 169.459 460.4 169.256C460.674 169.053 460.891 168.729 461.051 168.283ZM457.588 166.578H461.062C461.016 166.055 460.883 165.662 460.664 165.401C460.328 164.994 459.893 164.791 459.357 164.791C458.873 164.791 458.465 164.953 458.133 165.277C457.805 165.602 457.623 166.035 457.588 166.578ZM463.447 170.287V161.697H464.502V170.287H463.447Z" fill="black"/>
<path d="M360.764 148.287H359.785V139.697H360.84V142.762C361.285 142.203 361.854 141.924 362.545 141.924C362.928 141.924 363.289 142.002 363.629 142.158C363.973 142.311 364.254 142.527 364.473 142.809C364.695 143.086 364.869 143.422 364.994 143.817C365.119 144.211 365.182 144.633 365.182 145.082C365.182 146.149 364.918 146.973 364.391 147.555C363.863 148.137 363.23 148.428 362.492 148.428C361.758 148.428 361.182 148.121 360.764 147.508V148.287ZM360.752 145.129C360.752 145.875 360.854 146.414 361.057 146.746C361.389 147.289 361.838 147.561 362.404 147.561C362.865 147.561 363.264 147.361 363.6 146.963C363.936 146.561 364.104 145.963 364.104 145.17C364.104 144.358 363.941 143.758 363.617 143.371C363.297 142.984 362.908 142.791 362.451 142.791C361.99 142.791 361.592 142.992 361.256 143.395C360.92 143.793 360.752 144.371 360.752 145.129Z" fill="black"/>
<path d="M536 133L526 127.226V138.774L536 133ZM474 134H527V132H474V134Z" fill="black"/>
<path d="M503.398 124.889C503.398 123.736 503.719 122.883 504.359 122.328C504.895 121.867 505.547 121.637 506.316 121.637C507.172 121.637 507.871 121.918 508.414 122.48C508.957 123.039 509.229 123.812 509.229 124.801C509.229 125.602 509.107 126.232 508.865 126.693C508.627 127.15 508.277 127.506 507.816 127.76C507.359 128.014 506.859 128.141 506.316 128.141C505.445 128.141 504.74 127.861 504.201 127.303C503.666 126.744 503.398 125.939 503.398 124.889ZM504.482 124.889C504.482 125.686 504.656 126.283 505.004 126.682C505.352 127.076 505.789 127.273 506.316 127.273C506.84 127.273 507.275 127.074 507.623 126.676C507.971 126.277 508.145 125.67 508.145 124.854C508.145 124.084 507.969 123.502 507.617 123.107C507.27 122.709 506.836 122.51 506.316 122.51C505.789 122.51 505.352 122.707 505.004 123.102C504.656 123.496 504.482 124.092 504.482 124.889ZM514.549 128V127.086C514.064 127.789 513.406 128.141 512.574 128.141C512.207 128.141 511.863 128.07 511.543 127.93C511.227 127.789 510.99 127.613 510.834 127.402C510.682 127.188 510.574 126.926 510.512 126.617C510.469 126.41 510.447 126.082 510.447 125.633V121.777H511.502V125.229C511.502 125.779 511.523 126.15 511.566 126.342C511.633 126.619 511.773 126.838 511.988 126.998C512.203 127.154 512.469 127.232 512.785 127.232C513.102 127.232 513.398 127.152 513.676 126.992C513.953 126.828 514.148 126.607 514.262 126.33C514.379 126.049 514.438 125.643 514.438 125.111V121.777H515.492V128H514.549ZM519.453 127.057L519.605 127.988C519.309 128.051 519.043 128.082 518.809 128.082C518.426 128.082 518.129 128.021 517.918 127.9C517.707 127.779 517.559 127.621 517.473 127.426C517.387 127.227 517.344 126.811 517.344 126.178V122.598H516.57V121.777H517.344V120.236L518.393 119.604V121.777H519.453V122.598H518.393V126.236C518.393 126.537 518.41 126.73 518.445 126.816C518.484 126.902 518.545 126.971 518.627 127.021C518.713 127.072 518.834 127.098 518.99 127.098C519.107 127.098 519.262 127.084 519.453 127.057Z" fill="black"/>
<path d="M407 93.1628L476 133L407 172.837L407 93.1628Z" fill="#D9D9D9" stroke="black" stroke-width="2"/>
<path d="M418.891 137.287V128.697H420.602L422.635 134.779C422.822 135.346 422.959 135.77 423.045 136.051C423.143 135.738 423.295 135.279 423.502 134.674L425.559 128.697H427.088V137.287H425.992V130.098L423.496 137.287H422.471L419.986 129.975V137.287H418.891ZM432.865 137.287V136.373C432.381 137.076 431.723 137.428 430.891 137.428C430.523 137.428 430.18 137.358 429.859 137.217C429.543 137.076 429.307 136.901 429.15 136.69C428.998 136.475 428.891 136.213 428.828 135.904C428.785 135.697 428.764 135.369 428.764 134.92V131.065H429.818V134.516C429.818 135.067 429.84 135.438 429.883 135.629C429.949 135.906 430.09 136.125 430.305 136.285C430.52 136.442 430.785 136.52 431.102 136.52C431.418 136.52 431.715 136.44 431.992 136.279C432.27 136.115 432.465 135.895 432.578 135.617C432.695 135.336 432.754 134.93 432.754 134.399V131.065H433.809V137.287H432.865ZM434.764 137.287L437.037 134.053L434.934 131.065H436.252L437.207 132.524C437.387 132.801 437.531 133.033 437.641 133.221C437.812 132.963 437.971 132.734 438.115 132.535L439.164 131.065H440.424L438.273 133.994L440.588 137.287H439.293L438.016 135.354L437.676 134.832L436.041 137.287H434.764Z" fill="black"/>
<line x1="392.354" y1="102.354" x2="374.354" y2="120.354" stroke="black"/>
<line x1="391.354" y1="144.354" x2="373.354" y2="162.354" stroke="black"/>
<path d="M375.471 131H374.416V124.279C374.162 124.521 373.828 124.764 373.414 125.006C373.004 125.248 372.635 125.43 372.307 125.551V124.531C372.896 124.254 373.412 123.918 373.854 123.523C374.295 123.129 374.607 122.746 374.791 122.375H375.471V131ZM383.65 124.514L382.602 124.596C382.508 124.182 382.375 123.881 382.203 123.693C381.918 123.393 381.566 123.242 381.148 123.242C380.812 123.242 380.518 123.336 380.264 123.523C379.932 123.766 379.67 124.119 379.479 124.584C379.287 125.049 379.188 125.711 379.18 126.57C379.434 126.184 379.744 125.896 380.111 125.709C380.479 125.521 380.863 125.428 381.266 125.428C381.969 125.428 382.566 125.688 383.059 126.207C383.555 126.723 383.803 127.391 383.803 128.211C383.803 128.75 383.686 129.252 383.451 129.717C383.221 130.178 382.902 130.531 382.496 130.777C382.09 131.023 381.629 131.146 381.113 131.146C380.234 131.146 379.518 130.824 378.963 130.18C378.408 129.531 378.131 128.465 378.131 126.98C378.131 125.32 378.438 124.113 379.051 123.359C379.586 122.703 380.307 122.375 381.213 122.375C381.889 122.375 382.441 122.564 382.871 122.943C383.305 123.322 383.564 123.846 383.65 124.514ZM379.344 128.217C379.344 128.58 379.42 128.928 379.572 129.26C379.729 129.592 379.945 129.846 380.223 130.021C380.5 130.193 380.791 130.279 381.096 130.279C381.541 130.279 381.924 130.1 382.244 129.74C382.564 129.381 382.725 128.893 382.725 128.275C382.725 127.682 382.566 127.215 382.25 126.875C381.934 126.531 381.535 126.359 381.055 126.359C380.578 126.359 380.174 126.531 379.842 126.875C379.51 127.215 379.344 127.662 379.344 128.217Z" fill="black"/>
<path d="M374.471 173H373.416V166.279C373.162 166.521 372.828 166.764 372.414 167.006C372.004 167.248 371.635 167.43 371.307 167.551V166.531C371.896 166.254 372.412 165.918 372.854 165.523C373.295 165.129 373.607 164.746 373.791 164.375H374.471V173ZM382.65 166.514L381.602 166.596C381.508 166.182 381.375 165.881 381.203 165.693C380.918 165.393 380.566 165.242 380.148 165.242C379.812 165.242 379.518 165.336 379.264 165.523C378.932 165.766 378.67 166.119 378.479 166.584C378.287 167.049 378.188 167.711 378.18 168.57C378.434 168.184 378.744 167.896 379.111 167.709C379.479 167.521 379.863 167.428 380.266 167.428C380.969 167.428 381.566 167.688 382.059 168.207C382.555 168.723 382.803 169.391 382.803 170.211C382.803 170.75 382.686 171.252 382.451 171.717C382.221 172.178 381.902 172.531 381.496 172.777C381.09 173.023 380.629 173.146 380.113 173.146C379.234 173.146 378.518 172.824 377.963 172.18C377.408 171.531 377.131 170.465 377.131 168.98C377.131 167.32 377.438 166.113 378.051 165.359C378.586 164.703 379.307 164.375 380.213 164.375C380.889 164.375 381.441 164.564 381.871 164.943C382.305 165.322 382.564 165.846 382.65 166.514ZM378.344 170.217C378.344 170.58 378.42 170.928 378.572 171.26C378.729 171.592 378.945 171.846 379.223 172.021C379.5 172.193 379.791 172.279 380.096 172.279C380.541 172.279 380.924 172.1 381.244 171.74C381.564 171.381 381.725 170.893 381.725 170.275C381.725 169.682 381.566 169.215 381.25 168.875C380.934 168.531 380.535 168.359 380.055 168.359C379.578 168.359 379.174 168.531 378.842 168.875C378.51 169.215 378.344 169.662 378.344 170.217Z" fill="black"/>
<line x1="499.354" y1="124.354" x2="481.354" y2="142.354" stroke="black"/>
<path d="M482.471 153H481.416V146.279C481.162 146.521 480.828 146.764 480.414 147.006C480.004 147.248 479.635 147.43 479.307 147.551V146.531C479.896 146.254 480.412 145.918 480.854 145.523C481.295 145.129 481.607 144.746 481.791 144.375H482.471V153ZM490.65 146.514L489.602 146.596C489.508 146.182 489.375 145.881 489.203 145.693C488.918 145.393 488.566 145.242 488.148 145.242C487.812 145.242 487.518 145.336 487.264 145.523C486.932 145.766 486.67 146.119 486.479 146.584C486.287 147.049 486.188 147.711 486.18 148.57C486.434 148.184 486.744 147.896 487.111 147.709C487.479 147.521 487.863 147.428 488.266 147.428C488.969 147.428 489.566 147.688 490.059 148.207C490.555 148.723 490.803 149.391 490.803 150.211C490.803 150.75 490.686 151.252 490.451 151.717C490.221 152.178 489.902 152.531 489.496 152.777C489.09 153.023 488.629 153.146 488.113 153.146C487.234 153.146 486.518 152.824 485.963 152.18C485.408 151.531 485.131 150.465 485.131 148.98C485.131 147.32 485.438 146.113 486.051 145.359C486.586 144.703 487.307 144.375 488.213 144.375C488.889 144.375 489.441 144.564 489.871 144.943C490.305 145.322 490.564 145.846 490.65 146.514ZM486.344 150.217C486.344 150.58 486.42 150.928 486.572 151.26C486.729 151.592 486.945 151.846 487.223 152.021C487.5 152.193 487.791 152.279 488.096 152.279C488.541 152.279 488.924 152.1 489.244 151.74C489.564 151.381 489.725 150.893 489.725 150.275C489.725 149.682 489.566 149.215 489.25 148.875C488.934 148.531 488.535 148.359 488.055 148.359C487.578 148.359 487.174 148.531 486.842 148.875C486.51 149.215 486.344 149.662 486.344 150.217Z" fill="black"/>
<path d="M226 133L216 127.226V138.774L226 133ZM176 134H217V132H176V134Z" fill="black"/>
<path d="M226 175L216 169.226V180.774L226 175ZM176 176H217V174H176V176Z" fill="black"/>
<path d="M183.852 126.232C183.461 126.564 183.084 126.799 182.721 126.936C182.361 127.072 181.975 127.141 181.561 127.141C180.877 127.141 180.352 126.975 179.984 126.643C179.617 126.307 179.434 125.879 179.434 125.359C179.434 125.055 179.502 124.777 179.639 124.527C179.779 124.273 179.961 124.07 180.184 123.918C180.41 123.766 180.664 123.65 180.945 123.572C181.152 123.518 181.465 123.465 181.883 123.414C182.734 123.312 183.361 123.191 183.764 123.051C183.768 122.906 183.77 122.814 183.77 122.775C183.77 122.346 183.67 122.043 183.471 121.867C183.201 121.629 182.801 121.51 182.27 121.51C181.773 121.51 181.406 121.598 181.168 121.773C180.934 121.945 180.76 122.252 180.646 122.693L179.615 122.553C179.709 122.111 179.863 121.756 180.078 121.486C180.293 121.213 180.604 121.004 181.01 120.859C181.416 120.711 181.887 120.637 182.422 120.637C182.953 120.637 183.385 120.699 183.717 120.824C184.049 120.949 184.293 121.107 184.449 121.299C184.605 121.486 184.715 121.725 184.777 122.014C184.812 122.193 184.83 122.518 184.83 122.986V124.393C184.83 125.373 184.852 125.994 184.895 126.256C184.941 126.514 185.031 126.762 185.164 127H184.062C183.953 126.781 183.883 126.525 183.852 126.232ZM183.764 123.877C183.381 124.033 182.807 124.166 182.041 124.275C181.607 124.338 181.301 124.408 181.121 124.486C180.941 124.564 180.803 124.68 180.705 124.832C180.607 124.98 180.559 125.146 180.559 125.33C180.559 125.611 180.664 125.846 180.875 126.033C181.09 126.221 181.402 126.314 181.812 126.314C182.219 126.314 182.58 126.227 182.896 126.051C183.213 125.871 183.445 125.627 183.594 125.318C183.707 125.08 183.764 124.729 183.764 124.264V123.877Z" fill="black"/>
<path d="M264 173.287L258.226 183.287L269.774 183.287L264 173.287ZM265 209.287L265 182.287L263 182.287L263 209.287L265 209.287Z" fill="black"/>
<path d="M270.369 189.43L271.412 189.266C271.471 189.684 271.633 190.004 271.898 190.227C272.168 190.449 272.543 190.561 273.023 190.561C273.508 190.561 273.867 190.463 274.102 190.268C274.336 190.068 274.453 189.836 274.453 189.57C274.453 189.332 274.35 189.145 274.143 189.008C273.998 188.914 273.639 188.795 273.064 188.651C272.291 188.455 271.754 188.287 271.453 188.147C271.156 188.002 270.93 187.805 270.773 187.555C270.621 187.301 270.545 187.022 270.545 186.717C270.545 186.44 270.607 186.184 270.732 185.949C270.861 185.711 271.035 185.514 271.254 185.358C271.418 185.236 271.641 185.135 271.922 185.053C272.207 184.967 272.512 184.924 272.836 184.924C273.324 184.924 273.752 184.994 274.119 185.135C274.49 185.276 274.764 185.467 274.939 185.709C275.115 185.947 275.236 186.268 275.303 186.67L274.271 186.811C274.225 186.49 274.088 186.24 273.861 186.061C273.639 185.881 273.322 185.791 272.912 185.791C272.428 185.791 272.082 185.871 271.875 186.031C271.668 186.192 271.564 186.379 271.564 186.594C271.564 186.731 271.607 186.854 271.693 186.963C271.779 187.076 271.914 187.17 272.098 187.244C272.203 187.283 272.514 187.373 273.029 187.514C273.775 187.713 274.295 187.877 274.588 188.006C274.885 188.131 275.117 188.315 275.285 188.557C275.453 188.799 275.537 189.1 275.537 189.459C275.537 189.811 275.434 190.143 275.227 190.455C275.023 190.764 274.729 191.004 274.342 191.176C273.955 191.344 273.518 191.428 273.029 191.428C272.221 191.428 271.604 191.26 271.178 190.924C270.756 190.588 270.486 190.09 270.369 189.43ZM281.051 189.283L282.141 189.418C281.969 190.055 281.65 190.549 281.186 190.901C280.721 191.252 280.127 191.428 279.404 191.428C278.494 191.428 277.771 191.149 277.236 190.59C276.705 190.027 276.439 189.24 276.439 188.229C276.439 187.182 276.709 186.369 277.248 185.791C277.787 185.213 278.486 184.924 279.346 184.924C280.178 184.924 280.857 185.207 281.385 185.774C281.912 186.34 282.176 187.137 282.176 188.164C282.176 188.227 282.174 188.32 282.17 188.445H277.529C277.568 189.129 277.762 189.652 278.109 190.016C278.457 190.379 278.891 190.561 279.41 190.561C279.797 190.561 280.127 190.459 280.4 190.256C280.674 190.053 280.891 189.729 281.051 189.283ZM277.588 187.578H281.062C281.016 187.055 280.883 186.662 280.664 186.401C280.328 185.994 279.893 185.791 279.357 185.791C278.873 185.791 278.465 185.953 278.133 186.277C277.805 186.602 277.623 187.035 277.588 187.578ZM283.447 191.287V182.697H284.502V191.287H283.447Z" fill="black"/>
<path d="M180.764 169.287H179.785V160.697H180.84V163.762C181.285 163.203 181.854 162.924 182.545 162.924C182.928 162.924 183.289 163.002 183.629 163.158C183.973 163.311 184.254 163.527 184.473 163.809C184.695 164.086 184.869 164.422 184.994 164.817C185.119 165.211 185.182 165.633 185.182 166.082C185.182 167.149 184.918 167.973 184.391 168.555C183.863 169.137 183.23 169.428 182.492 169.428C181.758 169.428 181.182 169.121 180.764 168.508V169.287ZM180.752 166.129C180.752 166.875 180.854 167.414 181.057 167.746C181.389 168.289 181.838 168.561 182.404 168.561C182.865 168.561 183.264 168.361 183.6 167.963C183.936 167.561 184.104 166.963 184.104 166.17C184.104 165.358 183.941 164.758 183.617 164.371C183.297 163.984 182.908 163.791 182.451 163.791C181.99 163.791 181.592 163.992 181.256 164.395C180.92 164.793 180.752 165.371 180.752 166.129Z" fill="black"/>
<path d="M356 154L346 148.226V159.774L356 154ZM294 155H347V153H294V155Z" fill="black"/>
<path d="M323.398 145.889C323.398 144.736 323.719 143.883 324.359 143.328C324.895 142.867 325.547 142.637 326.316 142.637C327.172 142.637 327.871 142.918 328.414 143.48C328.957 144.039 329.229 144.812 329.229 145.801C329.229 146.602 329.107 147.232 328.865 147.693C328.627 148.15 328.277 148.506 327.816 148.76C327.359 149.014 326.859 149.141 326.316 149.141C325.445 149.141 324.74 148.861 324.201 148.303C323.666 147.744 323.398 146.939 323.398 145.889ZM324.482 145.889C324.482 146.686 324.656 147.283 325.004 147.682C325.352 148.076 325.789 148.273 326.316 148.273C326.84 148.273 327.275 148.074 327.623 147.676C327.971 147.277 328.145 146.67 328.145 145.854C328.145 145.084 327.969 144.502 327.617 144.107C327.27 143.709 326.836 143.51 326.316 143.51C325.789 143.51 325.352 143.707 325.004 144.102C324.656 144.496 324.482 145.092 324.482 145.889ZM334.549 149V148.086C334.064 148.789 333.406 149.141 332.574 149.141C332.207 149.141 331.863 149.07 331.543 148.93C331.227 148.789 330.99 148.613 330.834 148.402C330.682 148.188 330.574 147.926 330.512 147.617C330.469 147.41 330.447 147.082 330.447 146.633V142.777H331.502V146.229C331.502 146.779 331.523 147.15 331.566 147.342C331.633 147.619 331.773 147.838 331.988 147.998C332.203 148.154 332.469 148.232 332.785 148.232C333.102 148.232 333.398 148.152 333.676 147.992C333.953 147.828 334.148 147.607 334.262 147.33C334.379 147.049 334.438 146.643 334.438 146.111V142.777H335.492V149H334.549ZM339.453 148.057L339.605 148.988C339.309 149.051 339.043 149.082 338.809 149.082C338.426 149.082 338.129 149.021 337.918 148.9C337.707 148.779 337.559 148.621 337.473 148.426C337.387 148.227 337.344 147.811 337.344 147.178V143.598H336.57V142.777H337.344V141.236L338.393 140.604V142.777H339.453V143.598H338.393V147.236C338.393 147.537 338.41 147.73 338.445 147.816C338.484 147.902 338.545 147.971 338.627 148.021C338.713 148.072 338.834 148.098 338.99 148.098C339.107 148.098 339.262 148.084 339.453 148.057Z" fill="black"/>
<path d="M322.398 165.889C322.398 164.736 322.719 163.883 323.359 163.328C323.895 162.867 324.547 162.637 325.316 162.637C326.172 162.637 326.871 162.918 327.414 163.48C327.957 164.039 328.229 164.812 328.229 165.801C328.229 166.602 328.107 167.232 327.865 167.693C327.627 168.15 327.277 168.506 326.816 168.76C326.359 169.014 325.859 169.141 325.316 169.141C324.445 169.141 323.74 168.861 323.201 168.303C322.666 167.744 322.398 166.939 322.398 165.889ZM323.482 165.889C323.482 166.686 323.656 167.283 324.004 167.682C324.352 168.076 324.789 168.273 325.316 168.273C325.84 168.273 326.275 168.074 326.623 167.676C326.971 167.277 327.145 166.67 327.145 165.854C327.145 165.084 326.969 164.502 326.617 164.107C326.27 163.709 325.836 163.51 325.316 163.51C324.789 163.51 324.352 163.707 324.004 164.102C323.656 164.496 323.482 165.092 323.482 165.889ZM334.721 167.986V169H329.043C329.035 168.746 329.076 168.502 329.166 168.268C329.311 167.881 329.541 167.5 329.857 167.125C330.178 166.75 330.639 166.316 331.24 165.824C332.174 165.059 332.805 164.453 333.133 164.008C333.461 163.559 333.625 163.135 333.625 162.736C333.625 162.318 333.475 161.967 333.174 161.682C332.877 161.393 332.488 161.248 332.008 161.248C331.5 161.248 331.094 161.4 330.789 161.705C330.484 162.01 330.33 162.432 330.326 162.971L329.242 162.859C329.316 162.051 329.596 161.436 330.08 161.014C330.564 160.588 331.215 160.375 332.031 160.375C332.855 160.375 333.508 160.604 333.988 161.061C334.469 161.518 334.709 162.084 334.709 162.76C334.709 163.104 334.639 163.441 334.498 163.773C334.357 164.105 334.123 164.455 333.795 164.822C333.471 165.189 332.93 165.693 332.172 166.334C331.539 166.865 331.133 167.227 330.953 167.418C330.773 167.605 330.625 167.795 330.508 167.986H334.721Z" fill="black"/>
<path d="M227 114.163L296 154L227 193.837L227 114.163Z" fill="#D9D9D9" stroke="black" stroke-width="2"/>
<path d="M238.891 158.287V149.697H240.602L242.635 155.779C242.822 156.346 242.959 156.77 243.045 157.051C243.143 156.738 243.295 156.279 243.502 155.674L245.559 149.697H247.088V158.287H245.992V151.098L243.496 158.287H242.471L239.986 150.975V158.287H238.891ZM252.865 158.287V157.373C252.381 158.076 251.723 158.428 250.891 158.428C250.523 158.428 250.18 158.358 249.859 158.217C249.543 158.076 249.307 157.901 249.15 157.69C248.998 157.475 248.891 157.213 248.828 156.904C248.785 156.697 248.764 156.369 248.764 155.92V152.065H249.818V155.516C249.818 156.067 249.84 156.438 249.883 156.629C249.949 156.906 250.09 157.125 250.305 157.285C250.52 157.442 250.785 157.52 251.102 157.52C251.418 157.52 251.715 157.44 251.992 157.279C252.27 157.115 252.465 156.895 252.578 156.617C252.695 156.336 252.754 155.93 252.754 155.399V152.065H253.809V158.287H252.865ZM254.764 158.287L257.037 155.053L254.934 152.065H256.252L257.207 153.524C257.387 153.801 257.531 154.033 257.641 154.221C257.812 153.963 257.971 153.734 258.115 153.535L259.164 152.065H260.424L258.273 154.994L260.588 158.287H259.293L258.016 156.354L257.676 155.832L256.041 158.287H254.764Z" fill="black"/>
<line x1="212.354" y1="123.354" x2="194.354" y2="141.354" stroke="black"/>
<line x1="211.354" y1="165.354" x2="193.354" y2="183.354" stroke="black"/>
<path d="M195.471 152H194.416V145.279C194.162 145.521 193.828 145.764 193.414 146.006C193.004 146.248 192.635 146.43 192.307 146.551V145.531C192.896 145.254 193.412 144.918 193.854 144.523C194.295 144.129 194.607 143.746 194.791 143.375H195.471V152ZM203.65 145.514L202.602 145.596C202.508 145.182 202.375 144.881 202.203 144.693C201.918 144.393 201.566 144.242 201.148 144.242C200.812 144.242 200.518 144.336 200.264 144.523C199.932 144.766 199.67 145.119 199.479 145.584C199.287 146.049 199.188 146.711 199.18 147.57C199.434 147.184 199.744 146.896 200.111 146.709C200.479 146.521 200.863 146.428 201.266 146.428C201.969 146.428 202.566 146.688 203.059 147.207C203.555 147.723 203.803 148.391 203.803 149.211C203.803 149.75 203.686 150.252 203.451 150.717C203.221 151.178 202.902 151.531 202.496 151.777C202.09 152.023 201.629 152.146 201.113 152.146C200.234 152.146 199.518 151.824 198.963 151.18C198.408 150.531 198.131 149.465 198.131 147.98C198.131 146.32 198.438 145.113 199.051 144.359C199.586 143.703 200.307 143.375 201.213 143.375C201.889 143.375 202.441 143.564 202.871 143.943C203.305 144.322 203.564 144.846 203.65 145.514ZM199.344 149.217C199.344 149.58 199.42 149.928 199.572 150.26C199.729 150.592 199.945 150.846 200.223 151.021C200.5 151.193 200.791 151.279 201.096 151.279C201.541 151.279 201.924 151.1 202.244 150.74C202.564 150.381 202.725 149.893 202.725 149.275C202.725 148.682 202.566 148.215 202.25 147.875C201.934 147.531 201.535 147.359 201.055 147.359C200.578 147.359 200.174 147.531 199.842 147.875C199.51 148.215 199.344 148.662 199.344 149.217Z" fill="black"/>
<path d="M194.471 194H193.416V187.279C193.162 187.521 192.828 187.764 192.414 188.006C192.004 188.248 191.635 188.43 191.307 188.551V187.531C191.896 187.254 192.412 186.918 192.854 186.523C193.295 186.129 193.607 185.746 193.791 185.375H194.471V194ZM202.65 187.514L201.602 187.596C201.508 187.182 201.375 186.881 201.203 186.693C200.918 186.393 200.566 186.242 200.148 186.242C199.812 186.242 199.518 186.336 199.264 186.523C198.932 186.766 198.67 187.119 198.479 187.584C198.287 188.049 198.188 188.711 198.18 189.57C198.434 189.184 198.744 188.896 199.111 188.709C199.479 188.521 199.863 188.428 200.266 188.428C200.969 188.428 201.566 188.688 202.059 189.207C202.555 189.723 202.803 190.391 202.803 191.211C202.803 191.75 202.686 192.252 202.451 192.717C202.221 193.178 201.902 193.531 201.496 193.777C201.09 194.023 200.629 194.146 200.113 194.146C199.234 194.146 198.518 193.824 197.963 193.18C197.408 192.531 197.131 191.465 197.131 189.98C197.131 188.32 197.438 187.113 198.051 186.359C198.586 185.703 199.307 185.375 200.213 185.375C200.889 185.375 201.441 185.564 201.871 185.943C202.305 186.322 202.564 186.846 202.65 187.514ZM198.344 191.217C198.344 191.58 198.42 191.928 198.572 192.26C198.729 192.592 198.945 192.846 199.223 193.021C199.5 193.193 199.791 193.279 200.096 193.279C200.541 193.279 200.924 193.1 201.244 192.74C201.564 192.381 201.725 191.893 201.725 191.275C201.725 190.682 201.566 190.215 201.25 189.875C200.934 189.531 200.535 189.359 200.055 189.359C199.578 189.359 199.174 189.531 198.842 189.875C198.51 190.215 198.344 190.662 198.344 191.217Z" fill="black"/>
<line x1="319.354" y1="145.354" x2="301.354" y2="163.354" stroke="black"/>
<path d="M302.471 174H301.416V167.279C301.162 167.521 300.828 167.764 300.414 168.006C300.004 168.248 299.635 168.43 299.307 168.551V167.531C299.896 167.254 300.412 166.918 300.854 166.523C301.295 166.129 301.607 165.746 301.791 165.375H302.471V174ZM310.65 167.514L309.602 167.596C309.508 167.182 309.375 166.881 309.203 166.693C308.918 166.393 308.566 166.242 308.148 166.242C307.812 166.242 307.518 166.336 307.264 166.523C306.932 166.766 306.67 167.119 306.479 167.584C306.287 168.049 306.188 168.711 306.18 169.57C306.434 169.184 306.744 168.896 307.111 168.709C307.479 168.521 307.863 168.428 308.266 168.428C308.969 168.428 309.566 168.688 310.059 169.207C310.555 169.723 310.803 170.391 310.803 171.211C310.803 171.75 310.686 172.252 310.451 172.717C310.221 173.178 309.902 173.531 309.496 173.777C309.09 174.023 308.629 174.146 308.113 174.146C307.234 174.146 306.518 173.824 305.963 173.18C305.408 172.531 305.131 171.465 305.131 169.98C305.131 168.32 305.438 167.113 306.051 166.359C306.586 165.703 307.307 165.375 308.213 165.375C308.889 165.375 309.441 165.564 309.871 165.943C310.305 166.322 310.564 166.846 310.65 167.514ZM306.344 171.217C306.344 171.58 306.42 171.928 306.572 172.26C306.729 172.592 306.945 172.846 307.223 173.021C307.5 173.193 307.791 173.279 308.096 173.279C308.541 173.279 308.924 173.1 309.244 172.74C309.564 172.381 309.725 171.893 309.725 171.275C309.725 170.682 309.566 170.215 309.25 169.875C308.934 169.531 308.535 169.359 308.055 169.359C307.578 169.359 307.174 169.531 306.842 169.875C306.51 170.215 306.344 170.662 306.344 171.217Z" fill="black"/>
<line x1="31.3536" y1="39.3536" x2="13.3536" y2="57.3536" stroke="#FF6B00"/>
<line x1="31.3536" y1="123.354" x2="13.3536" y2="141.354" stroke="#FF6B00"/>
<line x1="31.3536" y1="81.3536" x2="13.3536" y2="99.3536" stroke="#FF6B00"/>
<line x1="31.3536" y1="165.354" x2="13.3536" y2="183.354" stroke="#FF6B00"/>
<path d="M14.4707 68H13.416V61.2793C13.1621 61.5215 12.8281 61.7637 12.4141 62.0059C12.0039 62.248 11.6348 62.4297 11.3066 62.5508V61.5312C11.8965 61.2539 12.4121 60.918 12.8535 60.5234C13.2949 60.1289 13.6074 59.7461 13.791 59.375H14.4707V68ZM22.6504 61.5137L21.6016 61.5957C21.5078 61.1816 21.375 60.8809 21.2031 60.6934C20.918 60.3926 20.5664 60.2422 20.1484 60.2422C19.8125 60.2422 19.5176 60.3359 19.2637 60.5234C18.9316 60.7656 18.6699 61.1191 18.4785 61.584C18.2871 62.0488 18.1875 62.7109 18.1797 63.5703C18.4336 63.1836 18.7441 62.8965 19.1113 62.709C19.4785 62.5215 19.8633 62.4277 20.2656 62.4277C20.9688 62.4277 21.5664 62.6875 22.0586 63.207C22.5547 63.7227 22.8027 64.3906 22.8027 65.2109C22.8027 65.75 22.6855 66.252 22.4512 66.7168C22.2207 67.1777 21.9023 67.5312 21.4961 67.7773C21.0898 68.0234 20.6289 68.1465 20.1133 68.1465C19.2344 68.1465 18.5176 67.8242 17.9629 67.1797C17.4082 66.5312 17.1309 65.4648 17.1309 63.9805C17.1309 62.3203 17.4375 61.1133 18.0508 60.3594C18.5859 59.7031 19.3066 59.375 20.2129 59.375C20.8887 59.375 21.4414 59.5645 21.8711 59.9434C22.3047 60.3223 22.5645 60.8457 22.6504 61.5137ZM18.3438 65.2168C18.3438 65.5801 18.4199 65.9277 18.5723 66.2598C18.7285 66.5918 18.9453 66.8457 19.2227 67.0215C19.5 67.1934 19.791 67.2793 20.0957 67.2793C20.541 67.2793 20.9238 67.0996 21.2441 66.7402C21.5645 66.3809 21.7246 65.8926 21.7246 65.2754C21.7246 64.6816 21.5664 64.2148 21.25 63.875C20.9336 63.5312 20.5352 63.3594 20.0547 63.3594C19.5781 63.3594 19.1738 63.5312 18.8418 63.875C18.5098 64.2148 18.3438 64.6621 18.3438 65.2168Z" fill="#FF6B00"/>
<path d="M14.4707 152H13.416V145.279C13.1621 145.521 12.8281 145.764 12.4141 146.006C12.0039 146.248 11.6348 146.43 11.3066 146.551V145.531C11.8965 145.254 12.4121 144.918 12.8535 144.523C13.2949 144.129 13.6074 143.746 13.791 143.375H14.4707V152ZM22.6504 145.514L21.6016 145.596C21.5078 145.182 21.375 144.881 21.2031 144.693C20.918 144.393 20.5664 144.242 20.1484 144.242C19.8125 144.242 19.5176 144.336 19.2637 144.523C18.9316 144.766 18.6699 145.119 18.4785 145.584C18.2871 146.049 18.1875 146.711 18.1797 147.57C18.4336 147.184 18.7441 146.896 19.1113 146.709C19.4785 146.521 19.8633 146.428 20.2656 146.428C20.9688 146.428 21.5664 146.688 22.0586 147.207C22.5547 147.723 22.8027 148.391 22.8027 149.211C22.8027 149.75 22.6855 150.252 22.4512 150.717C22.2207 151.178 21.9023 151.531 21.4961 151.777C21.0898 152.023 20.6289 152.146 20.1133 152.146C19.2344 152.146 18.5176 151.824 17.9629 151.18C17.4082 150.531 17.1309 149.465 17.1309 147.98C17.1309 146.32 17.4375 145.113 18.0508 144.359C18.5859 143.703 19.3066 143.375 20.2129 143.375C20.8887 143.375 21.4414 143.564 21.8711 143.943C22.3047 144.322 22.5645 144.846 22.6504 145.514ZM18.3438 149.217C18.3438 149.58 18.4199 149.928 18.5723 150.26C18.7285 150.592 18.9453 150.846 19.2227 151.021C19.5 151.193 19.791 151.279 20.0957 151.279C20.541 151.279 20.9238 151.1 21.2441 150.74C21.5645 150.381 21.7246 149.893 21.7246 149.275C21.7246 148.682 21.5664 148.215 21.25 147.875C20.9336 147.531 20.5352 147.359 20.0547 147.359C19.5781 147.359 19.1738 147.531 18.8418 147.875C18.5098 148.215 18.3438 148.662 18.3438 149.217Z" fill="#FF6B00"/>
<path d="M14.4707 110H13.416V103.279C13.1621 103.521 12.8281 103.764 12.4141 104.006C12.0039 104.248 11.6348 104.43 11.3066 104.551V103.531C11.8965 103.254 12.4121 102.918 12.8535 102.523C13.2949 102.129 13.6074 101.746 13.791 101.375H14.4707V110ZM22.6504 103.514L21.6016 103.596C21.5078 103.182 21.375 102.881 21.2031 102.693C20.918 102.393 20.5664 102.242 20.1484 102.242C19.8125 102.242 19.5176 102.336 19.2637 102.523C18.9316 102.766 18.6699 103.119 18.4785 103.584C18.2871 104.049 18.1875 104.711 18.1797 105.57C18.4336 105.184 18.7441 104.896 19.1113 104.709C19.4785 104.521 19.8633 104.428 20.2656 104.428C20.9688 104.428 21.5664 104.688 22.0586 105.207C22.5547 105.723 22.8027 106.391 22.8027 107.211C22.8027 107.75 22.6855 108.252 22.4512 108.717C22.2207 109.178 21.9023 109.531 21.4961 109.777C21.0898 110.023 20.6289 110.146 20.1133 110.146C19.2344 110.146 18.5176 109.824 17.9629 109.18C17.4082 108.531 17.1309 107.465 17.1309 105.98C17.1309 104.32 17.4375 103.113 18.0508 102.359C18.5859 101.703 19.3066 101.375 20.2129 101.375C20.8887 101.375 21.4414 101.564 21.8711 101.943C22.3047 102.322 22.5645 102.846 22.6504 103.514ZM18.3438 107.217C18.3438 107.58 18.4199 107.928 18.5723 108.26C18.7285 108.592 18.9453 108.846 19.2227 109.021C19.5 109.193 19.791 109.279 20.0957 109.279C20.541 109.279 20.9238 109.1 21.2441 108.74C21.5645 108.381 21.7246 107.893 21.7246 107.275C21.7246 106.682 21.5664 106.215 21.25 105.875C20.9336 105.531 20.5352 105.359 20.0547 105.359C19.5781 105.359 19.1738 105.531 18.8418 105.875C18.5098 106.215 18.3438 106.662 18.3438 107.217Z" fill="#FF6B00"/>
<path d="M14.4707 194H13.416V187.279C13.1621 187.521 12.8281 187.764 12.4141 188.006C12.0039 188.248 11.6348 188.43 11.3066 188.551V187.531C11.8965 187.254 12.4121 186.918 12.8535 186.523C13.2949 186.129 13.6074 185.746 13.791 185.375H14.4707V194ZM22.6504 187.514L21.6016 187.596C21.5078 187.182 21.375 186.881 21.2031 186.693C20.918 186.393 20.5664 186.242 20.1484 186.242C19.8125 186.242 19.5176 186.336 19.2637 186.523C18.9316 186.766 18.6699 187.119 18.4785 187.584C18.2871 188.049 18.1875 188.711 18.1797 189.57C18.4336 189.184 18.7441 188.896 19.1113 188.709C19.4785 188.521 19.8633 188.428 20.2656 188.428C20.9688 188.428 21.5664 188.688 22.0586 189.207C22.5547 189.723 22.8027 190.391 22.8027 191.211C22.8027 191.75 22.6855 192.252 22.4512 192.717C22.2207 193.178 21.9023 193.531 21.4961 193.777C21.0898 194.023 20.6289 194.146 20.1133 194.146C19.2344 194.146 18.5176 193.824 17.9629 193.18C17.4082 192.531 17.1309 191.465 17.1309 189.98C17.1309 188.32 17.4375 187.113 18.0508 186.359C18.5859 185.703 19.3066 185.375 20.2129 185.375C20.8887 185.375 21.4414 185.564 21.8711 185.943C22.3047 186.322 22.5645 186.846 22.6504 187.514ZM18.3438 191.217C18.3438 191.58 18.4199 191.928 18.5723 192.26C18.7285 192.592 18.9453 192.846 19.2227 193.021C19.5 193.193 19.791 193.279 20.0957 193.279C20.541 193.279 20.9238 193.1 21.2441 192.74C21.5645 192.381 21.7246 191.893 21.7246 191.275C21.7246 190.682 21.5664 190.215 21.25 189.875C20.9336 189.531 20.5352 189.359 20.0547 189.359C19.5781 189.359 19.1738 189.531 18.8418 189.875C18.5098 190.215 18.3438 190.662 18.3438 191.217Z" fill="#FF6B00"/>
<circle cx="134" cy="232" r="5" fill="#00FF00"/>
<path d="M575.398 121.889C575.398 120.736 575.719 119.883 576.359 119.328C576.895 118.867 577.547 118.637 578.316 118.637C579.172 118.637 579.871 118.918 580.414 119.48C580.957 120.039 581.229 120.812 581.229 121.801C581.229 122.602 581.107 123.232 580.865 123.693C580.627 124.15 580.277 124.506 579.816 124.76C579.359 125.014 578.859 125.141 578.316 125.141C577.445 125.141 576.74 124.861 576.201 124.303C575.666 123.744 575.398 122.939 575.398 121.889ZM576.482 121.889C576.482 122.686 576.656 123.283 577.004 123.682C577.352 124.076 577.789 124.273 578.316 124.273C578.84 124.273 579.275 124.074 579.623 123.676C579.971 123.277 580.145 122.67 580.145 121.854C580.145 121.084 579.969 120.502 579.617 120.107C579.27 119.709 578.836 119.51 578.316 119.51C577.789 119.51 577.352 119.707 577.004 120.102C576.656 120.496 576.482 121.092 576.482 121.889ZM586.549 125V124.086C586.064 124.789 585.406 125.141 584.574 125.141C584.207 125.141 583.863 125.07 583.543 124.93C583.227 124.789 582.99 124.613 582.834 124.402C582.682 124.188 582.574 123.926 582.512 123.617C582.469 123.41 582.447 123.082 582.447 122.633V118.777H583.502V122.229C583.502 122.779 583.523 123.15 583.566 123.342C583.633 123.619 583.773 123.838 583.988 123.998C584.203 124.154 584.469 124.232 584.785 124.232C585.102 124.232 585.398 124.152 585.676 123.992C585.953 123.828 586.148 123.607 586.262 123.33C586.379 123.049 586.438 122.643 586.438 122.111V118.777H587.492V125H586.549ZM591.453 124.057L591.605 124.988C591.309 125.051 591.043 125.082 590.809 125.082C590.426 125.082 590.129 125.021 589.918 124.9C589.707 124.779 589.559 124.621 589.473 124.426C589.387 124.227 589.344 123.811 589.344 123.178V119.598H588.57V118.777H589.344V117.236L590.393 116.604V118.777H591.453V119.598H590.393V123.236C590.393 123.537 590.41 123.73 590.445 123.816C590.484 123.902 590.545 123.971 590.627 124.021C590.713 124.072 590.834 124.098 590.99 124.098C591.107 124.098 591.262 124.084 591.453 124.057Z" fill="black"/>
<line x1="536" y1="133" x2="593" y2="133" stroke="#FF6B00" stroke-width="2"/>
<line x1="567.354" y1="123.354" x2="549.354" y2="141.354" stroke="#FF6B00"/>
<path d="M550.471 152H549.416V145.279C549.162 145.521 548.828 145.764 548.414 146.006C548.004 146.248 547.635 146.43 547.307 146.551V145.531C547.896 145.254 548.412 144.918 548.854 144.523C549.295 144.129 549.607 143.746 549.791 143.375H550.471V152ZM558.65 145.514L557.602 145.596C557.508 145.182 557.375 144.881 557.203 144.693C556.918 144.393 556.566 144.242 556.148 144.242C555.812 144.242 555.518 144.336 555.264 144.523C554.932 144.766 554.67 145.119 554.479 145.584C554.287 146.049 554.188 146.711 554.18 147.57C554.434 147.184 554.744 146.896 555.111 146.709C555.479 146.521 555.863 146.428 556.266 146.428C556.969 146.428 557.566 146.688 558.059 147.207C558.555 147.723 558.803 148.391 558.803 149.211C558.803 149.75 558.686 150.252 558.451 150.717C558.221 151.178 557.902 151.531 557.496 151.777C557.09 152.023 556.629 152.146 556.113 152.146C555.234 152.146 554.518 151.824 553.963 151.18C553.408 150.531 553.131 149.465 553.131 147.98C553.131 146.32 553.438 145.113 554.051 144.359C554.586 143.703 555.307 143.375 556.213 143.375C556.889 143.375 557.441 143.564 557.871 143.943C558.305 144.322 558.564 144.846 558.65 145.514ZM554.344 149.217C554.344 149.58 554.42 149.928 554.572 150.26C554.729 150.592 554.945 150.846 555.223 151.021C555.5 151.193 555.791 151.279 556.096 151.279C556.541 151.279 556.924 151.1 557.244 150.74C557.564 150.381 557.725 149.893 557.725 149.275C557.725 148.682 557.566 148.215 557.25 147.875C556.934 147.531 556.535 147.359 556.055 147.359C555.578 147.359 555.174 147.531 554.842 147.875C554.51 148.215 554.344 148.662 554.344 149.217Z" fill="#FF6B00"/>
<rect x="39.5" y="22.5" width="501" height="260" stroke="black" stroke-dasharray="2 2"/>
</svg>
