<svg width="228" height="141" viewBox="0 0 228 141" fill="none" xmlns="http://www.w3.org/2000/svg">
<path d="M61 23L51 17.2265L51 28.7735L61 23ZM-8.74228e-08 24L52 24L52 22L8.74228e-08 22L-8.74228e-08 24Z" fill="black"/>
<path d="M228 63L218 57.2265L218 68.7735L228 63ZM167 64L219 64L219 62L167 62L167 64Z" fill="black"/>
<path d="M61 77L51 71.2265L51 82.7735L61 77ZM-8.74228e-08 78L52 78L52 76L8.74228e-08 76L-8.74228e-08 78Z" fill="black"/>
<path d="M61 51L51 45.2265L51 56.7735L61 51ZM-8.74228e-08 52L52 52L52 50L8.74228e-08 50L-8.74228e-08 52Z" fill="black"/>
<path d="M61 105L51 99.2265L51 110.774L61 105ZM-8.74228e-08 106L52 106L52 104L8.74228e-08 104L-8.74228e-08 106Z" fill="black"/>
<path d="M7.85156 16.2324C7.46094 16.5645 7.08398 16.7988 6.7207 16.9355C6.36133 17.0723 5.97461 17.1406 5.56055 17.1406C4.87695 17.1406 4.35156 16.9746 3.98438 16.6426C3.61719 16.3066 3.43359 15.8789 3.43359 15.3594C3.43359 15.0547 3.50195 14.7773 3.63867 14.5273C3.7793 14.2734 3.96094 14.0703 4.18359 13.918C4.41016 13.7656 4.66406 13.6504 4.94531 13.5723C5.15234 13.5176 5.46484 13.4648 5.88281 13.4141C6.73438 13.3125 7.36133 13.1914 7.76367 13.0508C7.76758 12.9062 7.76953 12.8145 7.76953 12.7754C7.76953 12.3457 7.66992 12.043 7.4707 11.8672C7.20117 11.6289 6.80078 11.5098 6.26953 11.5098C5.77344 11.5098 5.40625 11.5977 5.16797 11.7734C4.93359 11.9453 4.75977 12.252 4.64648 12.6934L3.61523 12.5527C3.70898 12.1113 3.86328 11.7559 4.07812 11.4863C4.29297 11.2129 4.60352 11.0039 5.00977 10.8594C5.41602 10.7109 5.88672 10.6367 6.42188 10.6367C6.95312 10.6367 7.38477 10.6992 7.7168 10.8242C8.04883 10.9492 8.29297 11.1074 8.44922 11.2988C8.60547 11.4863 8.71484 11.7246 8.77734 12.0137C8.8125 12.1934 8.83008 12.5176 8.83008 12.9863V14.3926C8.83008 15.373 8.85156 15.9941 8.89453 16.2559C8.94141 16.5137 9.03125 16.7617 9.16406 17H8.0625C7.95312 16.7812 7.88281 16.5254 7.85156 16.2324ZM7.76367 13.877C7.38086 14.0332 6.80664 14.166 6.04102 14.2754C5.60742 14.3379 5.30078 14.4082 5.12109 14.4863C4.94141 14.5645 4.80273 14.6797 4.70508 14.832C4.60742 14.9805 4.55859 15.1465 4.55859 15.3301C4.55859 15.6113 4.66406 15.8457 4.875 16.0332C5.08984 16.2207 5.40234 16.3145 5.8125 16.3145C6.21875 16.3145 6.58008 16.2266 6.89648 16.0508C7.21289 15.8711 7.44531 15.627 7.59375 15.3184C7.70703 15.0801 7.76367 14.7285 7.76367 14.2637V13.877Z" fill="black"/>
<path d="M195.398 52.8887C195.398 51.7363 195.719 50.8828 196.359 50.3281C196.895 49.8672 197.547 49.6367 198.316 49.6367C199.172 49.6367 199.871 49.918 200.414 50.4805C200.957 51.0391 201.229 51.8125 201.229 52.8008C201.229 53.6016 201.107 54.2324 200.865 54.6934C200.627 55.1504 200.277 55.5059 199.816 55.7598C199.359 56.0137 198.859 56.1406 198.316 56.1406C197.445 56.1406 196.74 55.8613 196.201 55.3027C195.666 54.7441 195.398 53.9395 195.398 52.8887ZM196.482 52.8887C196.482 53.6855 196.656 54.2832 197.004 54.6816C197.352 55.0762 197.789 55.2734 198.316 55.2734C198.84 55.2734 199.275 55.0742 199.623 54.6758C199.971 54.2773 200.145 53.6699 200.145 52.8535C200.145 52.084 199.969 51.502 199.617 51.1074C199.27 50.709 198.836 50.5098 198.316 50.5098C197.789 50.5098 197.352 50.707 197.004 51.1016C196.656 51.4961 196.482 52.0918 196.482 52.8887ZM206.549 56V55.0859C206.064 55.7891 205.406 56.1406 204.574 56.1406C204.207 56.1406 203.863 56.0703 203.543 55.9297C203.227 55.7891 202.99 55.6133 202.834 55.4023C202.682 55.1875 202.574 54.9258 202.512 54.6172C202.469 54.4102 202.447 54.082 202.447 53.6328V49.7773H203.502V53.2285C203.502 53.7793 203.523 54.1504 203.566 54.3418C203.633 54.6191 203.773 54.8379 203.988 54.998C204.203 55.1543 204.469 55.2324 204.785 55.2324C205.102 55.2324 205.398 55.1523 205.676 54.9922C205.953 54.8281 206.148 54.6074 206.262 54.3301C206.379 54.0488 206.438 53.6426 206.438 53.1113V49.7773H207.492V56H206.549ZM211.453 55.0566L211.605 55.9883C211.309 56.0508 211.043 56.082 210.809 56.082C210.426 56.082 210.129 56.0215 209.918 55.9004C209.707 55.7793 209.559 55.6211 209.473 55.4258C209.387 55.2266 209.344 54.8105 209.344 54.1777V50.5977H208.57V49.7773H209.344V48.2363L210.393 47.6035V49.7773H211.453V50.5977H210.393V54.2363C210.393 54.5371 210.41 54.7305 210.445 54.8164C210.484 54.9023 210.545 54.9707 210.627 55.0215C210.713 55.0723 210.834 55.0977 210.99 55.0977C211.107 55.0977 211.262 55.084 211.453 55.0566Z" fill="black"/>
<path d="M7.85156 68.7207L8.88867 68.8555C8.77539 69.5703 8.48438 70.1309 8.01562 70.5371C7.55078 70.9395 6.97852 71.1406 6.29883 71.1406C5.44727 71.1406 4.76172 70.8633 4.24219 70.3086C3.72656 69.75 3.46875 68.9512 3.46875 67.9121C3.46875 67.2402 3.58008 66.6523 3.80273 66.1484C4.02539 65.6445 4.36328 65.2676 4.81641 65.0176C5.27344 64.7637 5.76953 64.6367 6.30469 64.6367C6.98047 64.6367 7.5332 64.8086 7.96289 65.1523C8.39258 65.4922 8.66797 65.9766 8.78906 66.6055L7.76367 66.7637C7.66602 66.3457 7.49219 66.0312 7.24219 65.8203C6.99609 65.6094 6.69727 65.5039 6.3457 65.5039C5.81445 65.5039 5.38281 65.6953 5.05078 66.0781C4.71875 66.457 4.55273 67.0586 4.55273 67.8828C4.55273 68.7188 4.71289 69.3262 5.0332 69.7051C5.35352 70.084 5.77148 70.2734 6.28711 70.2734C6.70117 70.2734 7.04688 70.1465 7.32422 69.8926C7.60156 69.6387 7.77734 69.248 7.85156 68.7207Z" fill="black"/>
<path d="M4.76367 45.2872H3.78516V36.6973H4.83984V39.7618C5.28516 39.2032 5.85352 38.9239 6.54492 38.9239C6.92773 38.9239 7.28906 39.002 7.62891 39.1583C7.97266 39.3106 8.25391 39.5274 8.47266 39.8087C8.69531 40.086 8.86914 40.4219 8.99414 40.8165C9.11914 41.211 9.18164 41.6329 9.18164 42.0821C9.18164 43.1485 8.91797 43.9727 8.39062 44.5547C7.86328 45.1368 7.23047 45.4278 6.49219 45.4278C5.75781 45.4278 5.18164 45.1212 4.76367 44.5079V45.2872ZM4.75195 42.129C4.75195 42.8751 4.85352 43.4141 5.05664 43.7462C5.38867 44.2891 5.83789 44.5606 6.4043 44.5606C6.86523 44.5606 7.26367 44.3614 7.59961 43.963C7.93555 43.5606 8.10352 42.963 8.10352 42.17C8.10352 41.3575 7.94141 40.7579 7.61719 40.3712C7.29688 39.9844 6.9082 39.7911 6.45117 39.7911C5.99023 39.7911 5.5918 39.9922 5.25586 40.3946C4.91992 40.793 4.75195 41.3712 4.75195 42.129Z" fill="black"/>
<path d="M7.82812 99.2872V98.502C7.43359 99.1192 6.85352 99.4278 6.08789 99.4278C5.5918 99.4278 5.13477 99.2911 4.7168 99.0176C4.30273 98.7442 3.98047 98.3633 3.75 97.8751C3.52344 97.3829 3.41016 96.8184 3.41016 96.1817C3.41016 95.5606 3.51367 94.9981 3.7207 94.4942C3.92773 93.9864 4.23828 93.5977 4.65234 93.3282C5.06641 93.0587 5.5293 92.9239 6.04102 92.9239C6.41602 92.9239 6.75 93.004 7.04297 93.1641C7.33594 93.3204 7.57422 93.5255 7.75781 93.7794V90.6973H8.80664V99.2872H7.82812ZM4.49414 96.1817C4.49414 96.9786 4.66211 97.5743 4.99805 97.9688C5.33398 98.3633 5.73047 98.5606 6.1875 98.5606C6.64844 98.5606 7.03906 98.3731 7.35938 97.9981C7.68359 97.6192 7.8457 97.043 7.8457 96.2696C7.8457 95.418 7.68164 94.793 7.35352 94.3946C7.02539 93.9962 6.62109 93.7969 6.14062 93.7969C5.67188 93.7969 5.2793 93.9883 4.96289 94.3712C4.65039 94.754 4.49414 95.3575 4.49414 96.1817Z" fill="black"/>
<path d="M62.5 3.24424L166 63L62.5 122.756L62.5 3.24424Z" fill="#D9D9D9" stroke="black" stroke-width="3"/>
<path d="M72.8906 67V58.4102H74.6016L76.6348 64.4922C76.8223 65.0586 76.959 65.4824 77.0449 65.7637C77.1426 65.4512 77.2949 64.9922 77.502 64.3867L79.5586 58.4102H81.0879V67H79.9922V59.8105L77.4961 67H76.4707L73.9863 59.6875V67H72.8906ZM86.8652 67V66.0859C86.3809 66.7891 85.7227 67.1406 84.8906 67.1406C84.5234 67.1406 84.1797 67.0703 83.8594 66.9297C83.543 66.7891 83.3066 66.6133 83.1504 66.4023C82.998 66.1875 82.8906 65.9258 82.8281 65.6172C82.7852 65.4102 82.7637 65.082 82.7637 64.6328V60.7773H83.8184V64.2285C83.8184 64.7793 83.8398 65.1504 83.8828 65.3418C83.9492 65.6191 84.0898 65.8379 84.3047 65.998C84.5195 66.1543 84.7852 66.2324 85.1016 66.2324C85.418 66.2324 85.7148 66.1523 85.9922 65.9922C86.2695 65.8281 86.4648 65.6074 86.5781 65.3301C86.6953 65.0488 86.7539 64.6426 86.7539 64.1113V60.7773H87.8086V67H86.8652ZM88.7637 67L91.0371 63.7656L88.9336 60.7773H90.252L91.207 62.2363C91.3867 62.5137 91.5312 62.7461 91.6406 62.9336C91.8125 62.6758 91.9707 62.4473 92.1152 62.248L93.1641 60.7773H94.4238L92.2734 63.707L94.5879 67H93.293L92.0156 65.0664L91.6758 64.5449L90.041 67H88.7637ZM98.5547 67V64.9434H94.8281V63.9766L98.748 58.4102H99.6094V63.9766H100.77V64.9434H99.6094V67H98.5547ZM98.5547 63.9766V60.1035L95.8652 63.9766H98.5547ZM103.781 67L101.502 58.4102H102.668L103.975 64.041C104.115 64.6309 104.236 65.2168 104.338 65.7988C104.557 64.8809 104.686 64.3516 104.725 64.2109L106.359 58.4102H107.73L108.961 62.7578C109.27 63.8359 109.492 64.8496 109.629 65.7988C109.738 65.2559 109.881 64.6328 110.057 63.9297L111.404 58.4102H112.547L110.191 67H109.096L107.285 60.4551C107.133 59.9082 107.043 59.5723 107.016 59.4473C106.926 59.8418 106.842 60.1777 106.764 60.4551L104.941 67H103.781ZM117.094 66.2324C116.703 66.5645 116.326 66.7988 115.963 66.9355C115.604 67.0723 115.217 67.1406 114.803 67.1406C114.119 67.1406 113.594 66.9746 113.227 66.6426C112.859 66.3066 112.676 65.8789 112.676 65.3594C112.676 65.0547 112.744 64.7773 112.881 64.5273C113.021 64.2734 113.203 64.0703 113.426 63.918C113.652 63.7656 113.906 63.6504 114.188 63.5723C114.395 63.5176 114.707 63.4648 115.125 63.4141C115.977 63.3125 116.604 63.1914 117.006 63.0508C117.01 62.9062 117.012 62.8145 117.012 62.7754C117.012 62.3457 116.912 62.043 116.713 61.8672C116.443 61.6289 116.043 61.5098 115.512 61.5098C115.016 61.5098 114.648 61.5977 114.41 61.7734C114.176 61.9453 114.002 62.252 113.889 62.6934L112.857 62.5527C112.951 62.1113 113.105 61.7559 113.32 61.4863C113.535 61.2129 113.846 61.0039 114.252 60.8594C114.658 60.7109 115.129 60.6367 115.664 60.6367C116.195 60.6367 116.627 60.6992 116.959 60.8242C117.291 60.9492 117.535 61.1074 117.691 61.2988C117.848 61.4863 117.957 61.7246 118.02 62.0137C118.055 62.1934 118.072 62.5176 118.072 62.9863V64.3926C118.072 65.373 118.094 65.9941 118.137 66.2559C118.184 66.5137 118.273 66.7617 118.406 67H117.305C117.195 66.7812 117.125 66.5254 117.094 66.2324ZM117.006 63.877C116.623 64.0332 116.049 64.166 115.283 64.2754C114.85 64.3379 114.543 64.4082 114.363 64.4863C114.184 64.5645 114.045 64.6797 113.947 64.832C113.85 64.9805 113.801 65.1465 113.801 65.3301C113.801 65.6113 113.906 65.8457 114.117 66.0332C114.332 66.2207 114.645 66.3145 115.055 66.3145C115.461 66.3145 115.822 66.2266 116.139 66.0508C116.455 65.8711 116.688 65.627 116.836 65.3184C116.949 65.0801 117.006 64.7285 117.006 64.2637V63.877ZM119.666 69.3965L119.549 68.4062C119.779 68.4688 119.98 68.5 120.152 68.5C120.387 68.5 120.574 68.4609 120.715 68.3828C120.855 68.3047 120.971 68.1953 121.061 68.0547C121.127 67.9492 121.234 67.6875 121.383 67.2695C121.402 67.2109 121.434 67.125 121.477 67.0117L119.115 60.7773H120.252L121.547 64.3809C121.715 64.8379 121.865 65.3184 121.998 65.8223C122.119 65.3379 122.264 64.8652 122.432 64.4043L123.762 60.7773H124.816L122.449 67.1055C122.195 67.7891 121.998 68.2598 121.857 68.5176C121.67 68.8652 121.455 69.1191 121.213 69.2793C120.971 69.4434 120.682 69.5254 120.346 69.5254C120.143 69.5254 119.916 69.4824 119.666 69.3965ZM129.393 67H128.338V60.2793C128.084 60.5215 127.75 60.7637 127.336 61.0059C126.926 61.248 126.557 61.4297 126.229 61.5508V60.5312C126.818 60.2539 127.334 59.918 127.775 59.5234C128.217 59.1289 128.529 58.7461 128.713 58.375H129.393V67ZM137.572 60.5137L136.523 60.5957C136.43 60.1816 136.297 59.8809 136.125 59.6934C135.84 59.3926 135.488 59.2422 135.07 59.2422C134.734 59.2422 134.439 59.3359 134.186 59.5234C133.854 59.7656 133.592 60.1191 133.4 60.584C133.209 61.0488 133.109 61.7109 133.102 62.5703C133.355 62.1836 133.666 61.8965 134.033 61.709C134.4 61.5215 134.785 61.4277 135.188 61.4277C135.891 61.4277 136.488 61.6875 136.98 62.207C137.477 62.7227 137.725 63.3906 137.725 64.2109C137.725 64.75 137.607 65.252 137.373 65.7168C137.143 66.1777 136.824 66.5312 136.418 66.7773C136.012 67.0234 135.551 67.1465 135.035 67.1465C134.156 67.1465 133.439 66.8242 132.885 66.1797C132.33 65.5312 132.053 64.4648 132.053 62.9805C132.053 61.3203 132.359 60.1133 132.973 59.3594C133.508 58.7031 134.229 58.375 135.135 58.375C135.811 58.375 136.363 58.5645 136.793 58.9434C137.227 59.3223 137.486 59.8457 137.572 60.5137ZM133.266 64.2168C133.266 64.5801 133.342 64.9277 133.494 65.2598C133.65 65.5918 133.867 65.8457 134.145 66.0215C134.422 66.1934 134.713 66.2793 135.018 66.2793C135.463 66.2793 135.846 66.0996 136.166 65.7402C136.486 65.3809 136.646 64.8926 136.646 64.2754C136.646 63.6816 136.488 63.2148 136.172 62.875C135.855 62.5312 135.457 62.3594 134.977 62.3594C134.5 62.3594 134.096 62.5312 133.764 62.875C133.432 63.2148 133.266 63.6621 133.266 64.2168Z" fill="black"/>
<path d="M118 92L112.226 102L123.774 102L118 92ZM119 140L119 101L117 101L117 140L119 140Z" fill="black"/>
<path d="M98.3691 136.143L99.4121 135.979C99.4707 136.396 99.6328 136.717 99.8984 136.939C100.168 137.162 100.543 137.273 101.023 137.273C101.508 137.273 101.867 137.176 102.102 136.98C102.336 136.781 102.453 136.549 102.453 136.283C102.453 136.045 102.35 135.857 102.143 135.721C101.998 135.627 101.639 135.508 101.064 135.363C100.291 135.168 99.7539 135 99.4531 134.859C99.1562 134.715 98.9297 134.518 98.7734 134.268C98.6211 134.014 98.5449 133.734 98.5449 133.43C98.5449 133.152 98.6074 132.896 98.7324 132.662C98.8613 132.424 99.0352 132.227 99.2539 132.07C99.418 131.949 99.6406 131.848 99.9219 131.766C100.207 131.68 100.512 131.637 100.836 131.637C101.324 131.637 101.752 131.707 102.119 131.848C102.49 131.988 102.764 132.18 102.939 132.422C103.115 132.66 103.236 132.98 103.303 133.383L102.271 133.523C102.225 133.203 102.088 132.953 101.861 132.773C101.639 132.594 101.322 132.504 100.912 132.504C100.428 132.504 100.082 132.584 99.875 132.744C99.668 132.904 99.5645 133.092 99.5645 133.307C99.5645 133.443 99.6074 133.566 99.6934 133.676C99.7793 133.789 99.9141 133.883 100.098 133.957C100.203 133.996 100.514 134.086 101.029 134.227C101.775 134.426 102.295 134.59 102.588 134.719C102.885 134.844 103.117 135.027 103.285 135.27C103.453 135.512 103.537 135.812 103.537 136.172C103.537 136.523 103.434 136.855 103.227 137.168C103.023 137.477 102.729 137.717 102.342 137.889C101.955 138.057 101.518 138.141 101.029 138.141C100.221 138.141 99.6035 137.973 99.1777 137.637C98.7559 137.301 98.4863 136.803 98.3691 136.143ZM109.051 135.996L110.141 136.131C109.969 136.768 109.65 137.262 109.186 137.613C108.721 137.965 108.127 138.141 107.404 138.141C106.494 138.141 105.771 137.861 105.236 137.303C104.705 136.74 104.439 135.953 104.439 134.941C104.439 133.895 104.709 133.082 105.248 132.504C105.787 131.926 106.486 131.637 107.346 131.637C108.178 131.637 108.857 131.92 109.385 132.486C109.912 133.053 110.176 133.85 110.176 134.877C110.176 134.939 110.174 135.033 110.17 135.158H105.529C105.568 135.842 105.762 136.365 106.109 136.729C106.457 137.092 106.891 137.273 107.41 137.273C107.797 137.273 108.127 137.172 108.4 136.969C108.674 136.766 108.891 136.441 109.051 135.996ZM105.588 134.291H109.062C109.016 133.768 108.883 133.375 108.664 133.113C108.328 132.707 107.893 132.504 107.357 132.504C106.873 132.504 106.465 132.666 106.133 132.99C105.805 133.314 105.623 133.748 105.588 134.291ZM111.447 138V129.41H112.502V138H111.447Z" fill="black"/>
<line x1="45.3536" y1="13.3536" x2="27.3536" y2="31.3536" stroke="black"/>
<line x1="190.354" y1="54.3536" x2="172.354" y2="72.3536" stroke="black"/>
<line x1="42.3536" y1="41.3536" x2="24.3536" y2="59.3536" stroke="black"/>
<line x1="43.3536" y1="67.3536" x2="25.3536" y2="85.3536" stroke="black"/>
<line x1="41.3536" y1="96.3536" x2="23.3536" y2="114.354" stroke="black"/>
<line x1="127.354" y1="104.354" x2="109.354" y2="122.354" stroke="black"/>
<path d="M28.4707 42H27.416V35.2793C27.1621 35.5215 26.8281 35.7637 26.4141 36.0059C26.0039 36.248 25.6348 36.4297 25.3066 36.5508V35.5312C25.8965 35.2539 26.4121 34.918 26.8535 34.5234C27.2949 34.1289 27.6074 33.7461 27.791 33.375H28.4707V42ZM36.6504 35.5137L35.6016 35.5957C35.5078 35.1816 35.375 34.8809 35.2031 34.6934C34.918 34.3926 34.5664 34.2422 34.1484 34.2422C33.8125 34.2422 33.5176 34.3359 33.2637 34.5234C32.9316 34.7656 32.6699 35.1191 32.4785 35.584C32.2871 36.0488 32.1875 36.7109 32.1797 37.5703C32.4336 37.1836 32.7441 36.8965 33.1113 36.709C33.4785 36.5215 33.8633 36.4277 34.2656 36.4277C34.9688 36.4277 35.5664 36.6875 36.0586 37.207C36.5547 37.7227 36.8027 38.3906 36.8027 39.2109C36.8027 39.75 36.6855 40.252 36.4512 40.7168C36.2207 41.1777 35.9023 41.5312 35.4961 41.7773C35.0898 42.0234 34.6289 42.1465 34.1133 42.1465C33.2344 42.1465 32.5176 41.8242 31.9629 41.1797C31.4082 40.5312 31.1309 39.4648 31.1309 37.9805C31.1309 36.3203 31.4375 35.1133 32.0508 34.3594C32.5859 33.7031 33.3066 33.375 34.2129 33.375C34.8887 33.375 35.4414 33.5645 35.8711 33.9434C36.3047 34.3223 36.5645 34.8457 36.6504 35.5137ZM32.3438 39.2168C32.3438 39.5801 32.4199 39.9277 32.5723 40.2598C32.7285 40.5918 32.9453 40.8457 33.2227 41.0215C33.5 41.1934 33.791 41.2793 34.0957 41.2793C34.541 41.2793 34.9238 41.0996 35.2441 40.7402C35.5645 40.3809 35.7246 39.8926 35.7246 39.2754C35.7246 38.6816 35.5664 38.2148 35.25 37.875C34.9336 37.5312 34.5352 37.3594 34.0547 37.3594C33.5781 37.3594 33.1738 37.5312 32.8418 37.875C32.5098 38.2148 32.3438 38.6621 32.3438 39.2168Z" fill="black"/>
<path d="M173.471 83H172.416V76.2793C172.162 76.5215 171.828 76.7637 171.414 77.0059C171.004 77.248 170.635 77.4297 170.307 77.5508V76.5312C170.896 76.2539 171.412 75.918 171.854 75.5234C172.295 75.1289 172.607 74.7461 172.791 74.375H173.471V83ZM181.65 76.5137L180.602 76.5957C180.508 76.1816 180.375 75.8809 180.203 75.6934C179.918 75.3926 179.566 75.2422 179.148 75.2422C178.812 75.2422 178.518 75.3359 178.264 75.5234C177.932 75.7656 177.67 76.1191 177.479 76.584C177.287 77.0488 177.188 77.7109 177.18 78.5703C177.434 78.1836 177.744 77.8965 178.111 77.709C178.479 77.5215 178.863 77.4277 179.266 77.4277C179.969 77.4277 180.566 77.6875 181.059 78.207C181.555 78.7227 181.803 79.3906 181.803 80.2109C181.803 80.75 181.686 81.252 181.451 81.7168C181.221 82.1777 180.902 82.5312 180.496 82.7773C180.09 83.0234 179.629 83.1465 179.113 83.1465C178.234 83.1465 177.518 82.8242 176.963 82.1797C176.408 81.5312 176.131 80.4648 176.131 78.9805C176.131 77.3203 176.438 76.1133 177.051 75.3594C177.586 74.7031 178.307 74.375 179.213 74.375C179.889 74.375 180.441 74.5645 180.871 74.9434C181.305 75.3223 181.564 75.8457 181.65 76.5137ZM177.344 80.2168C177.344 80.5801 177.42 80.9277 177.572 81.2598C177.729 81.5918 177.945 81.8457 178.223 82.0215C178.5 82.1934 178.791 82.2793 179.096 82.2793C179.541 82.2793 179.924 82.0996 180.244 81.7402C180.564 81.3809 180.725 80.8926 180.725 80.2754C180.725 79.6816 180.566 79.2148 180.25 78.875C179.934 78.5312 179.535 78.3594 179.055 78.3594C178.578 78.3594 178.174 78.5312 177.842 78.875C177.51 79.2148 177.344 79.6621 177.344 80.2168Z" fill="black"/>
<path d="M25.4707 70H24.416V63.2793C24.1621 63.5215 23.8281 63.7637 23.4141 64.0059C23.0039 64.248 22.6348 64.4297 22.3066 64.5508V63.5312C22.8965 63.2539 23.4121 62.918 23.8535 62.5234C24.2949 62.1289 24.6074 61.7461 24.791 61.375H25.4707V70ZM33.6504 63.5137L32.6016 63.5957C32.5078 63.1816 32.375 62.8809 32.2031 62.6934C31.918 62.3926 31.5664 62.2422 31.1484 62.2422C30.8125 62.2422 30.5176 62.3359 30.2637 62.5234C29.9316 62.7656 29.6699 63.1191 29.4785 63.584C29.2871 64.0488 29.1875 64.7109 29.1797 65.5703C29.4336 65.1836 29.7441 64.8965 30.1113 64.709C30.4785 64.5215 30.8633 64.4277 31.2656 64.4277C31.9688 64.4277 32.5664 64.6875 33.0586 65.207C33.5547 65.7227 33.8027 66.3906 33.8027 67.2109C33.8027 67.75 33.6855 68.252 33.4512 68.7168C33.2207 69.1777 32.9023 69.5312 32.4961 69.7773C32.0898 70.0234 31.6289 70.1465 31.1133 70.1465C30.2344 70.1465 29.5176 69.8242 28.9629 69.1797C28.4082 68.5312 28.1309 67.4648 28.1309 65.9805C28.1309 64.3203 28.4375 63.1133 29.0508 62.3594C29.5859 61.7031 30.3066 61.375 31.2129 61.375C31.8887 61.375 32.4414 61.5645 32.8711 61.9434C33.3047 62.3223 33.5645 62.8457 33.6504 63.5137ZM29.3438 67.2168C29.3438 67.5801 29.4199 67.9277 29.5723 68.2598C29.7285 68.5918 29.9453 68.8457 30.2227 69.0215C30.5 69.1934 30.791 69.2793 31.0957 69.2793C31.541 69.2793 31.9238 69.0996 32.2441 68.7402C32.5645 68.3809 32.7246 67.8926 32.7246 67.2754C32.7246 66.6816 32.5664 66.2148 32.25 65.875C31.9336 65.5312 31.5352 65.3594 31.0547 65.3594C30.5781 65.3594 30.1738 65.5312 29.8418 65.875C29.5098 66.2148 29.3438 66.6621 29.3438 67.2168Z" fill="black"/>
<path d="M26.4707 96H25.416V89.2793C25.1621 89.5215 24.8281 89.7637 24.4141 90.0059C24.0039 90.248 23.6348 90.4297 23.3066 90.5508V89.5312C23.8965 89.2539 24.4121 88.918 24.8535 88.5234C25.2949 88.1289 25.6074 87.7461 25.791 87.375H26.4707V96ZM34.6504 89.5137L33.6016 89.5957C33.5078 89.1816 33.375 88.8809 33.2031 88.6934C32.918 88.3926 32.5664 88.2422 32.1484 88.2422C31.8125 88.2422 31.5176 88.3359 31.2637 88.5234C30.9316 88.7656 30.6699 89.1191 30.4785 89.584C30.2871 90.0488 30.1875 90.7109 30.1797 91.5703C30.4336 91.1836 30.7441 90.8965 31.1113 90.709C31.4785 90.5215 31.8633 90.4277 32.2656 90.4277C32.9688 90.4277 33.5664 90.6875 34.0586 91.207C34.5547 91.7227 34.8027 92.3906 34.8027 93.2109C34.8027 93.75 34.6855 94.252 34.4512 94.7168C34.2207 95.1777 33.9023 95.5312 33.4961 95.7773C33.0898 96.0234 32.6289 96.1465 32.1133 96.1465C31.2344 96.1465 30.5176 95.8242 29.9629 95.1797C29.4082 94.5312 29.1309 93.4648 29.1309 91.9805C29.1309 90.3203 29.4375 89.1133 30.0508 88.3594C30.5859 87.7031 31.3066 87.375 32.2129 87.375C32.8887 87.375 33.4414 87.5645 33.8711 87.9434C34.3047 88.3223 34.5645 88.8457 34.6504 89.5137ZM30.3438 93.2168C30.3438 93.5801 30.4199 93.9277 30.5723 94.2598C30.7285 94.5918 30.9453 94.8457 31.2227 95.0215C31.5 95.1934 31.791 95.2793 32.0957 95.2793C32.541 95.2793 32.9238 95.0996 33.2441 94.7402C33.5645 94.3809 33.7246 93.8926 33.7246 93.2754C33.7246 92.6816 33.5664 92.2148 33.25 91.875C32.9336 91.5312 32.5352 91.3594 32.0547 91.3594C31.5781 91.3594 31.1738 91.5312 30.8418 91.875C30.5098 92.2148 30.3438 92.6621 30.3438 93.2168Z" fill="black"/>
<path d="M24.4707 125H23.416V118.279C23.1621 118.521 22.8281 118.764 22.4141 119.006C22.0039 119.248 21.6348 119.43 21.3066 119.551V118.531C21.8965 118.254 22.4121 117.918 22.8535 117.523C23.2949 117.129 23.6074 116.746 23.791 116.375H24.4707V125ZM32.6504 118.514L31.6016 118.596C31.5078 118.182 31.375 117.881 31.2031 117.693C30.918 117.393 30.5664 117.242 30.1484 117.242C29.8125 117.242 29.5176 117.336 29.2637 117.523C28.9316 117.766 28.6699 118.119 28.4785 118.584C28.2871 119.049 28.1875 119.711 28.1797 120.57C28.4336 120.184 28.7441 119.896 29.1113 119.709C29.4785 119.521 29.8633 119.428 30.2656 119.428C30.9688 119.428 31.5664 119.688 32.0586 120.207C32.5547 120.723 32.8027 121.391 32.8027 122.211C32.8027 122.75 32.6855 123.252 32.4512 123.717C32.2207 124.178 31.9023 124.531 31.4961 124.777C31.0898 125.023 30.6289 125.146 30.1133 125.146C29.2344 125.146 28.5176 124.824 27.9629 124.18C27.4082 123.531 27.1309 122.465 27.1309 120.98C27.1309 119.32 27.4375 118.113 28.0508 117.359C28.5859 116.703 29.3066 116.375 30.2129 116.375C30.8887 116.375 31.4414 116.564 31.8711 116.943C32.3047 117.322 32.5645 117.846 32.6504 118.514ZM28.3438 122.217C28.3438 122.58 28.4199 122.928 28.5723 123.26C28.7285 123.592 28.9453 123.846 29.2227 124.021C29.5 124.193 29.791 124.279 30.0957 124.279C30.541 124.279 30.9238 124.1 31.2441 123.74C31.5645 123.381 31.7246 122.893 31.7246 122.275C31.7246 121.682 31.5664 121.215 31.25 120.875C30.9336 120.531 30.5352 120.359 30.0547 120.359C29.5781 120.359 29.1738 120.531 28.8418 120.875C28.5098 121.215 28.3438 121.662 28.3438 122.217Z" fill="black"/>
<path d="M131.041 119.986V121H125.363C125.355 120.746 125.396 120.502 125.486 120.268C125.631 119.881 125.861 119.5 126.178 119.125C126.498 118.75 126.959 118.316 127.561 117.824C128.494 117.059 129.125 116.453 129.453 116.008C129.781 115.559 129.945 115.135 129.945 114.736C129.945 114.318 129.795 113.967 129.494 113.682C129.197 113.393 128.809 113.248 128.328 113.248C127.82 113.248 127.414 113.4 127.109 113.705C126.805 114.01 126.65 114.432 126.646 114.971L125.562 114.859C125.637 114.051 125.916 113.436 126.4 113.014C126.885 112.588 127.535 112.375 128.352 112.375C129.176 112.375 129.828 112.604 130.309 113.061C130.789 113.518 131.029 114.084 131.029 114.76C131.029 115.104 130.959 115.441 130.818 115.773C130.678 116.105 130.443 116.455 130.115 116.822C129.791 117.189 129.25 117.693 128.492 118.334C127.859 118.865 127.453 119.227 127.273 119.418C127.094 119.605 126.945 119.795 126.828 119.986H131.041Z" fill="black"/>
</svg>
