<svg width="336" height="252" viewBox="0 0 336 252" fill="none" xmlns="http://www.w3.org/2000/svg">
<path d="M61 33L51 27.2265L51 38.7735L61 33ZM-8.74228e-08 34L52 34L52 32L8.74228e-08 32L-8.74228e-08 34Z" fill="black"/>
<path d="M61 147L51 141.227L51 152.774L61 147ZM-8.74228e-08 148L52 148L52 146L8.74228e-08 146L-8.74228e-08 148Z" fill="black"/>
<path d="M336 125L326 119.227L326 130.774L336 125ZM275 126L327 126L327 124L275 124L275 126Z" fill="black"/>
<path d="M61 87L51 81.2265L51 92.7735L61 87ZM-8.74228e-08 88L52 88L52 86L8.74228e-08 86L-8.74228e-08 88Z" fill="black"/>
<path d="M61 201L51 195.227L51 206.774L61 201ZM-8.74228e-08 202L52 202L52 200L8.74228e-08 200L-8.74228e-08 202Z" fill="black"/>
<path d="M61 61L51 55.2265L51 66.7735L61 61ZM-8.74228e-08 62L52 62L52 60L8.74228e-08 60L-8.74228e-08 62Z" fill="black"/>
<path d="M61 175L51 169.227L51 180.774L61 175ZM-8.74228e-08 176L52 176L52 174L8.74228e-08 174L-8.74228e-08 176Z" fill="black"/>
<path d="M61 115L51 109.227L51 120.774L61 115ZM-8.74228e-08 116L52 116L52 114L8.74228e-08 114L-8.74228e-08 116Z" fill="black"/>
<path d="M61 229L51 223.227L51 234.774L61 229ZM-8.74228e-08 230L52 230L52 228L8.74228e-08 228L-8.74228e-08 230Z" fill="black"/>
<path d="M7.85156 26.2324C7.46094 26.5645 7.08398 26.7988 6.7207 26.9355C6.36133 27.0723 5.97461 27.1406 5.56055 27.1406C4.87695 27.1406 4.35156 26.9746 3.98438 26.6426C3.61719 26.3066 3.43359 25.8789 3.43359 25.3594C3.43359 25.0547 3.50195 24.7773 3.63867 24.5273C3.7793 24.2734 3.96094 24.0703 4.18359 23.918C4.41016 23.7656 4.66406 23.6504 4.94531 23.5723C5.15234 23.5176 5.46484 23.4648 5.88281 23.4141C6.73438 23.3125 7.36133 23.1914 7.76367 23.0508C7.76758 22.9062 7.76953 22.8145 7.76953 22.7754C7.76953 22.3457 7.66992 22.043 7.4707 21.8672C7.20117 21.6289 6.80078 21.5098 6.26953 21.5098C5.77344 21.5098 5.40625 21.5977 5.16797 21.7734C4.93359 21.9453 4.75977 22.252 4.64648 22.6934L3.61523 22.5527C3.70898 22.1113 3.86328 21.7559 4.07812 21.4863C4.29297 21.2129 4.60352 21.0039 5.00977 20.8594C5.41602 20.7109 5.88672 20.6367 6.42188 20.6367C6.95312 20.6367 7.38477 20.6992 7.7168 20.8242C8.04883 20.9492 8.29297 21.1074 8.44922 21.2988C8.60547 21.4863 8.71484 21.7246 8.77734 22.0137C8.8125 22.1934 8.83008 22.5176 8.83008 22.9863V24.3926C8.83008 25.373 8.85156 25.9941 8.89453 26.2559C8.94141 26.5137 9.03125 26.7617 9.16406 27H8.0625C7.95312 26.7812 7.88281 26.5254 7.85156 26.2324ZM7.76367 23.877C7.38086 24.0332 6.80664 24.166 6.04102 24.2754C5.60742 24.3379 5.30078 24.4082 5.12109 24.4863C4.94141 24.5645 4.80273 24.6797 4.70508 24.832C4.60742 24.9805 4.55859 25.1465 4.55859 25.3301C4.55859 25.6113 4.66406 25.8457 4.875 26.0332C5.08984 26.2207 5.40234 26.3145 5.8125 26.3145C6.21875 26.3145 6.58008 26.2266 6.89648 26.0508C7.21289 25.8711 7.44531 25.627 7.59375 25.3184C7.70703 25.0801 7.76367 24.7285 7.76367 24.2637V23.877Z" fill="black"/>
<path d="M8.05078 138.996L9.14062 139.131C8.96875 139.768 8.65039 140.262 8.18555 140.613C7.7207 140.965 7.12695 141.141 6.4043 141.141C5.49414 141.141 4.77148 140.861 4.23633 140.303C3.70508 139.74 3.43945 138.953 3.43945 137.941C3.43945 136.895 3.70898 136.082 4.24805 135.504C4.78711 134.926 5.48633 134.637 6.3457 134.637C7.17773 134.637 7.85742 134.92 8.38477 135.486C8.91211 136.053 9.17578 136.85 9.17578 137.877C9.17578 137.939 9.17383 138.033 9.16992 138.158H4.5293C4.56836 138.842 4.76172 139.365 5.10938 139.729C5.45703 140.092 5.89062 140.273 6.41016 140.273C6.79688 140.273 7.12695 140.172 7.40039 139.969C7.67383 139.766 7.89062 139.441 8.05078 138.996ZM4.58789 137.291H8.0625C8.01562 136.768 7.88281 136.375 7.66406 136.113C7.32812 135.707 6.89258 135.504 6.35742 135.504C5.87305 135.504 5.46484 135.666 5.13281 135.99C4.80469 136.314 4.62305 136.748 4.58789 137.291Z" fill="black"/>
<path d="M303.398 114.889C303.398 113.736 303.719 112.883 304.359 112.328C304.895 111.867 305.547 111.637 306.316 111.637C307.172 111.637 307.871 111.918 308.414 112.48C308.957 113.039 309.229 113.812 309.229 114.801C309.229 115.602 309.107 116.232 308.865 116.693C308.627 117.15 308.277 117.506 307.816 117.76C307.359 118.014 306.859 118.141 306.316 118.141C305.445 118.141 304.74 117.861 304.201 117.303C303.666 116.744 303.398 115.939 303.398 114.889ZM304.482 114.889C304.482 115.686 304.656 116.283 305.004 116.682C305.352 117.076 305.789 117.273 306.316 117.273C306.84 117.273 307.275 117.074 307.623 116.676C307.971 116.277 308.145 115.67 308.145 114.854C308.145 114.084 307.969 113.502 307.617 113.107C307.27 112.709 306.836 112.51 306.316 112.51C305.789 112.51 305.352 112.707 305.004 113.102C304.656 113.496 304.482 114.092 304.482 114.889ZM314.549 118V117.086C314.064 117.789 313.406 118.141 312.574 118.141C312.207 118.141 311.863 118.07 311.543 117.93C311.227 117.789 310.99 117.613 310.834 117.402C310.682 117.188 310.574 116.926 310.512 116.617C310.469 116.41 310.447 116.082 310.447 115.633V111.777H311.502V115.229C311.502 115.779 311.523 116.15 311.566 116.342C311.633 116.619 311.773 116.838 311.988 116.998C312.203 117.154 312.469 117.232 312.785 117.232C313.102 117.232 313.398 117.152 313.676 116.992C313.953 116.828 314.148 116.607 314.262 116.33C314.379 116.049 314.438 115.643 314.438 115.111V111.777H315.492V118H314.549ZM319.453 117.057L319.605 117.988C319.309 118.051 319.043 118.082 318.809 118.082C318.426 118.082 318.129 118.021 317.918 117.9C317.707 117.779 317.559 117.621 317.473 117.426C317.387 117.227 317.344 116.811 317.344 116.178V112.598H316.57V111.777H317.344V110.236L318.393 109.604V111.777H319.453V112.598H318.393V116.236C318.393 116.537 318.41 116.73 318.445 116.816C318.484 116.902 318.545 116.971 318.627 117.021C318.713 117.072 318.834 117.098 318.99 117.098C319.107 117.098 319.262 117.084 319.453 117.057Z" fill="black"/>
<path d="M7.85156 78.7207L8.88867 78.8555C8.77539 79.5703 8.48438 80.1309 8.01562 80.5371C7.55078 80.9395 6.97852 81.1406 6.29883 81.1406C5.44727 81.1406 4.76172 80.8633 4.24219 80.3086C3.72656 79.75 3.46875 78.9512 3.46875 77.9121C3.46875 77.2402 3.58008 76.6523 3.80273 76.1484C4.02539 75.6445 4.36328 75.2676 4.81641 75.0176C5.27344 74.7637 5.76953 74.6367 6.30469 74.6367C6.98047 74.6367 7.5332 74.8086 7.96289 75.1523C8.39258 75.4922 8.66797 75.9766 8.78906 76.6055L7.76367 76.7637C7.66602 76.3457 7.49219 76.0312 7.24219 75.8203C6.99609 75.6094 6.69727 75.5039 6.3457 75.5039C5.81445 75.5039 5.38281 75.6953 5.05078 76.0781C4.71875 76.457 4.55273 77.0586 4.55273 77.8828C4.55273 78.7188 4.71289 79.3262 5.0332 79.7051C5.35352 80.084 5.77148 80.2734 6.28711 80.2734C6.70117 80.2734 7.04688 80.1465 7.32422 79.8926C7.60156 79.6387 7.77734 79.248 7.85156 78.7207Z" fill="black"/>
<path d="M3.59766 195.516L4.62305 195.668C4.66602 195.984 4.78516 196.215 4.98047 196.359C5.24219 196.555 5.59961 196.652 6.05273 196.652C6.54102 196.652 6.91797 196.555 7.18359 196.359C7.44922 196.164 7.62891 195.891 7.72266 195.539C7.77734 195.324 7.80273 194.873 7.79883 194.186C7.33789 194.729 6.76367 195 6.07617 195C5.2207 195 4.55859 194.691 4.08984 194.074C3.62109 193.457 3.38672 192.717 3.38672 191.854C3.38672 191.26 3.49414 190.713 3.70898 190.213C3.92383 189.709 4.23438 189.32 4.64062 189.047C5.05078 188.773 5.53125 188.637 6.08203 188.637C6.81641 188.637 7.42188 188.934 7.89844 189.527V188.777H8.87109V194.156C8.87109 195.125 8.77148 195.811 8.57227 196.213C8.37695 196.619 8.06445 196.939 7.63477 197.174C7.20898 197.408 6.68359 197.525 6.05859 197.525C5.31641 197.525 4.7168 197.357 4.25977 197.021C3.80273 196.689 3.58203 196.188 3.59766 195.516ZM4.4707 191.777C4.4707 192.594 4.63281 193.189 4.95703 193.564C5.28125 193.939 5.6875 194.127 6.17578 194.127C6.66016 194.127 7.06641 193.941 7.39453 193.57C7.72266 193.195 7.88672 192.609 7.88672 191.812C7.88672 191.051 7.7168 190.477 7.37695 190.09C7.04102 189.703 6.63477 189.51 6.1582 189.51C5.68945 189.51 5.29102 189.701 4.96289 190.084C4.63477 190.463 4.4707 191.027 4.4707 191.777Z" fill="black"/>
<path d="M4.76367 55.2872H3.78516V46.6973H4.83984V49.7618C5.28516 49.2032 5.85352 48.9239 6.54492 48.9239C6.92773 48.9239 7.28906 49.002 7.62891 49.1583C7.97266 49.3106 8.25391 49.5274 8.47266 49.8087C8.69531 50.086 8.86914 50.4219 8.99414 50.8165C9.11914 51.211 9.18164 51.6329 9.18164 52.0821C9.18164 53.1485 8.91797 53.9727 8.39062 54.5547C7.86328 55.1368 7.23047 55.4278 6.49219 55.4278C5.75781 55.4278 5.18164 55.1212 4.76367 54.5079V55.2872ZM4.75195 52.129C4.75195 52.8751 4.85352 53.4141 5.05664 53.7462C5.38867 54.2891 5.83789 54.5606 6.4043 54.5606C6.86523 54.5606 7.26367 54.3614 7.59961 53.963C7.93555 53.5606 8.10352 52.963 8.10352 52.17C8.10352 51.3575 7.94141 50.7579 7.61719 50.3712C7.29688 49.9844 6.9082 49.7911 6.45117 49.7911C5.99023 49.7911 5.5918 49.9922 5.25586 50.3946C4.91992 50.793 4.75195 51.3712 4.75195 52.129Z" fill="black"/>
<path d="M4.04297 169.287V163.885H3.11133V163.065H4.04297V162.402C4.04297 161.984 4.08008 161.674 4.1543 161.471C4.25586 161.197 4.43359 160.977 4.6875 160.809C4.94531 160.637 5.30469 160.551 5.76562 160.551C6.0625 160.551 6.39062 160.586 6.75 160.656L6.5918 161.576C6.37305 161.537 6.16602 161.518 5.9707 161.518C5.65039 161.518 5.42383 161.586 5.29102 161.723C5.1582 161.859 5.0918 162.115 5.0918 162.49V163.065H6.30469V163.885H5.0918V169.287H4.04297Z" fill="black"/>
<path d="M7.82812 109.287V108.502C7.43359 109.119 6.85352 109.428 6.08789 109.428C5.5918 109.428 5.13477 109.291 4.7168 109.018C4.30273 108.744 3.98047 108.363 3.75 107.875C3.52344 107.383 3.41016 106.818 3.41016 106.182C3.41016 105.561 3.51367 104.998 3.7207 104.494C3.92773 103.986 4.23828 103.598 4.65234 103.328C5.06641 103.059 5.5293 102.924 6.04102 102.924C6.41602 102.924 6.75 103.004 7.04297 103.164C7.33594 103.32 7.57422 103.525 7.75781 103.779V100.697H8.80664V109.287H7.82812ZM4.49414 106.182C4.49414 106.979 4.66211 107.574 4.99805 107.969C5.33398 108.363 5.73047 108.561 6.1875 108.561C6.64844 108.561 7.03906 108.373 7.35938 107.998C7.68359 107.619 7.8457 107.043 7.8457 106.27C7.8457 105.418 7.68164 104.793 7.35352 104.395C7.02539 103.996 6.62109 103.797 6.14062 103.797C5.67188 103.797 5.2793 103.988 4.96289 104.371C4.65039 104.754 4.49414 105.357 4.49414 106.182Z" fill="black"/>
<path d="M3.79102 223.287V214.697H4.8457V217.779C5.33789 217.209 5.95898 216.924 6.70898 216.924C7.16992 216.924 7.57031 217.016 7.91016 217.199C8.25 217.379 8.49219 217.629 8.63672 217.949C8.78516 218.27 8.85938 218.734 8.85938 219.344V223.287H7.80469V219.344C7.80469 218.816 7.68945 218.434 7.45898 218.195C7.23242 217.953 6.91016 217.832 6.49219 217.832C6.17969 217.832 5.88477 217.914 5.60742 218.078C5.33398 218.238 5.13867 218.457 5.02148 218.734C4.9043 219.012 4.8457 219.395 4.8457 219.883V223.287H3.79102Z" fill="black"/>
<path d="M62.5 2.89041L274 125L62.5 247.11L62.5 2.89041Z" fill="#D9D9D9" stroke="black" stroke-width="3"/>
<path d="M96.8906 132V123.41H98.6016L100.635 129.492C100.822 130.059 100.959 130.482 101.045 130.764C101.143 130.451 101.295 129.992 101.502 129.387L103.559 123.41H105.088V132H103.992V124.811L101.496 132H100.471L97.9863 124.688V132H96.8906ZM110.865 132V131.086C110.381 131.789 109.723 132.141 108.891 132.141C108.523 132.141 108.18 132.07 107.859 131.93C107.543 131.789 107.307 131.613 107.15 131.402C106.998 131.188 106.891 130.926 106.828 130.617C106.785 130.41 106.764 130.082 106.764 129.633V125.777H107.818V129.229C107.818 129.779 107.84 130.15 107.883 130.342C107.949 130.619 108.09 130.838 108.305 130.998C108.52 131.154 108.785 131.232 109.102 131.232C109.418 131.232 109.715 131.152 109.992 130.992C110.27 130.828 110.465 130.607 110.578 130.33C110.695 130.049 110.754 129.643 110.754 129.111V125.777H111.809V132H110.865ZM112.764 132L115.037 128.766L112.934 125.777H114.252L115.207 127.236C115.387 127.514 115.531 127.746 115.641 127.934C115.812 127.676 115.971 127.447 116.115 127.248L117.164 125.777H118.424L116.273 128.707L118.588 132H117.293L116.016 130.066L115.676 129.545L114.041 132H112.764ZM120.797 127.342C120.359 127.182 120.035 126.953 119.824 126.656C119.613 126.359 119.508 126.004 119.508 125.59C119.508 124.965 119.732 124.439 120.182 124.014C120.631 123.588 121.229 123.375 121.975 123.375C122.725 123.375 123.328 123.594 123.785 124.031C124.242 124.465 124.471 124.994 124.471 125.619C124.471 126.018 124.365 126.365 124.154 126.662C123.947 126.955 123.631 127.182 123.205 127.342C123.732 127.514 124.133 127.791 124.406 128.174C124.684 128.557 124.822 129.014 124.822 129.545C124.822 130.279 124.562 130.896 124.043 131.396C123.523 131.896 122.84 132.146 121.992 132.146C121.145 132.146 120.461 131.896 119.941 131.396C119.422 130.893 119.162 130.266 119.162 129.516C119.162 128.957 119.303 128.49 119.584 128.115C119.869 127.736 120.273 127.479 120.797 127.342ZM120.586 125.555C120.586 125.961 120.717 126.293 120.979 126.551C121.24 126.809 121.58 126.938 121.998 126.938C122.404 126.938 122.736 126.811 122.994 126.557C123.256 126.299 123.387 125.984 123.387 125.613C123.387 125.227 123.252 124.902 122.982 124.641C122.717 124.375 122.385 124.242 121.986 124.242C121.584 124.242 121.25 124.371 120.984 124.629C120.719 124.887 120.586 125.195 120.586 125.555ZM120.246 129.521C120.246 129.822 120.316 130.113 120.457 130.395C120.602 130.676 120.814 130.895 121.096 131.051C121.377 131.203 121.68 131.279 122.004 131.279C122.508 131.279 122.924 131.117 123.252 130.793C123.58 130.469 123.744 130.057 123.744 129.557C123.744 129.049 123.574 128.629 123.234 128.297C122.898 127.965 122.477 127.799 121.969 127.799C121.473 127.799 121.061 127.963 120.732 128.291C120.408 128.619 120.246 129.029 120.246 129.521ZM127.781 132L125.502 123.41H126.668L127.975 129.041C128.115 129.631 128.236 130.217 128.338 130.799C128.557 129.881 128.686 129.352 128.725 129.211L130.359 123.41H131.73L132.961 127.758C133.27 128.836 133.492 129.85 133.629 130.799C133.738 130.256 133.881 129.633 134.057 128.93L135.404 123.41H136.547L134.191 132H133.096L131.285 125.455C131.133 124.908 131.043 124.572 131.016 124.447C130.926 124.842 130.842 125.178 130.764 125.455L128.941 132H127.781ZM141.094 131.232C140.703 131.564 140.326 131.799 139.963 131.936C139.604 132.072 139.217 132.141 138.803 132.141C138.119 132.141 137.594 131.975 137.227 131.643C136.859 131.307 136.676 130.879 136.676 130.359C136.676 130.055 136.744 129.777 136.881 129.527C137.021 129.273 137.203 129.07 137.426 128.918C137.652 128.766 137.906 128.65 138.188 128.572C138.395 128.518 138.707 128.465 139.125 128.414C139.977 128.312 140.604 128.191 141.006 128.051C141.01 127.906 141.012 127.814 141.012 127.775C141.012 127.346 140.912 127.043 140.713 126.867C140.443 126.629 140.043 126.51 139.512 126.51C139.016 126.51 138.648 126.598 138.41 126.773C138.176 126.945 138.002 127.252 137.889 127.693L136.857 127.553C136.951 127.111 137.105 126.756 137.32 126.486C137.535 126.213 137.846 126.004 138.252 125.859C138.658 125.711 139.129 125.637 139.664 125.637C140.195 125.637 140.627 125.699 140.959 125.824C141.291 125.949 141.535 126.107 141.691 126.299C141.848 126.486 141.957 126.725 142.02 127.014C142.055 127.193 142.072 127.518 142.072 127.986V129.393C142.072 130.373 142.094 130.994 142.137 131.256C142.184 131.514 142.273 131.762 142.406 132H141.305C141.195 131.781 141.125 131.525 141.094 131.232ZM141.006 128.877C140.623 129.033 140.049 129.166 139.283 129.275C138.85 129.338 138.543 129.408 138.363 129.486C138.184 129.564 138.045 129.68 137.947 129.832C137.85 129.98 137.801 130.146 137.801 130.33C137.801 130.611 137.906 130.846 138.117 131.033C138.332 131.221 138.645 131.314 139.055 131.314C139.461 131.314 139.822 131.227 140.139 131.051C140.455 130.871 140.688 130.627 140.836 130.318C140.949 130.08 141.006 129.729 141.006 129.264V128.877ZM143.666 134.396L143.549 133.406C143.779 133.469 143.98 133.5 144.152 133.5C144.387 133.5 144.574 133.461 144.715 133.383C144.855 133.305 144.971 133.195 145.061 133.055C145.127 132.949 145.234 132.688 145.383 132.27C145.402 132.211 145.434 132.125 145.477 132.012L143.115 125.777H144.252L145.547 129.381C145.715 129.838 145.865 130.318 145.998 130.822C146.119 130.338 146.264 129.865 146.432 129.404L147.762 125.777H148.816L146.449 132.105C146.195 132.789 145.998 133.26 145.857 133.518C145.67 133.865 145.455 134.119 145.213 134.279C144.971 134.443 144.682 134.525 144.346 134.525C144.143 134.525 143.916 134.482 143.666 134.396ZM153.393 132H152.338V125.279C152.084 125.521 151.75 125.764 151.336 126.006C150.926 126.248 150.557 126.43 150.229 126.551V125.531C150.818 125.254 151.334 124.918 151.775 124.523C152.217 124.129 152.529 123.746 152.713 123.375H153.393V132ZM161.572 125.514L160.523 125.596C160.43 125.182 160.297 124.881 160.125 124.693C159.84 124.393 159.488 124.242 159.07 124.242C158.734 124.242 158.439 124.336 158.186 124.523C157.854 124.766 157.592 125.119 157.4 125.584C157.209 126.049 157.109 126.711 157.102 127.57C157.355 127.184 157.666 126.896 158.033 126.709C158.4 126.521 158.785 126.428 159.188 126.428C159.891 126.428 160.488 126.688 160.98 127.207C161.477 127.723 161.725 128.391 161.725 129.211C161.725 129.75 161.607 130.252 161.373 130.717C161.143 131.178 160.824 131.531 160.418 131.777C160.012 132.023 159.551 132.146 159.035 132.146C158.156 132.146 157.439 131.824 156.885 131.18C156.33 130.531 156.053 129.465 156.053 127.98C156.053 126.32 156.359 125.113 156.973 124.359C157.508 123.703 158.229 123.375 159.135 123.375C159.811 123.375 160.363 123.564 160.793 123.943C161.227 124.322 161.486 124.846 161.572 125.514ZM157.266 129.217C157.266 129.58 157.342 129.928 157.494 130.26C157.65 130.592 157.867 130.846 158.145 131.021C158.422 131.193 158.713 131.279 159.018 131.279C159.463 131.279 159.846 131.1 160.166 130.74C160.486 130.381 160.646 129.893 160.646 129.275C160.646 128.682 160.488 128.215 160.172 127.875C159.855 127.531 159.457 127.359 158.977 127.359C158.5 127.359 158.096 127.531 157.764 127.875C157.432 128.215 157.266 128.662 157.266 129.217Z" fill="black"/>
<path d="M170 187L164.226 197L175.774 197L170 187ZM171 235L171 196L169 196L169 235L171 235Z" fill="black"/>
<path d="M150.369 231.143L151.412 230.979C151.471 231.396 151.633 231.717 151.898 231.939C152.168 232.162 152.543 232.273 153.023 232.273C153.508 232.273 153.867 232.176 154.102 231.98C154.336 231.781 154.453 231.549 154.453 231.283C154.453 231.045 154.35 230.857 154.143 230.721C153.998 230.627 153.639 230.508 153.064 230.363C152.291 230.168 151.754 230 151.453 229.859C151.156 229.715 150.93 229.518 150.773 229.268C150.621 229.014 150.545 228.734 150.545 228.43C150.545 228.152 150.607 227.896 150.732 227.662C150.861 227.424 151.035 227.227 151.254 227.07C151.418 226.949 151.641 226.848 151.922 226.766C152.207 226.68 152.512 226.637 152.836 226.637C153.324 226.637 153.752 226.707 154.119 226.848C154.49 226.988 154.764 227.18 154.939 227.422C155.115 227.66 155.236 227.98 155.303 228.383L154.271 228.523C154.225 228.203 154.088 227.953 153.861 227.773C153.639 227.594 153.322 227.504 152.912 227.504C152.428 227.504 152.082 227.584 151.875 227.744C151.668 227.904 151.564 228.092 151.564 228.307C151.564 228.443 151.607 228.566 151.693 228.676C151.779 228.789 151.914 228.883 152.098 228.957C152.203 228.996 152.514 229.086 153.029 229.227C153.775 229.426 154.295 229.59 154.588 229.719C154.885 229.844 155.117 230.027 155.285 230.27C155.453 230.512 155.537 230.812 155.537 231.172C155.537 231.523 155.434 231.855 155.227 232.168C155.023 232.477 154.729 232.717 154.342 232.889C153.955 233.057 153.518 233.141 153.029 233.141C152.221 233.141 151.604 232.973 151.178 232.637C150.756 232.301 150.486 231.803 150.369 231.143ZM161.051 230.996L162.141 231.131C161.969 231.768 161.65 232.262 161.186 232.613C160.721 232.965 160.127 233.141 159.404 233.141C158.494 233.141 157.771 232.861 157.236 232.303C156.705 231.74 156.439 230.953 156.439 229.941C156.439 228.895 156.709 228.082 157.248 227.504C157.787 226.926 158.486 226.637 159.346 226.637C160.178 226.637 160.857 226.92 161.385 227.486C161.912 228.053 162.176 228.85 162.176 229.877C162.176 229.939 162.174 230.033 162.17 230.158H157.529C157.568 230.842 157.762 231.365 158.109 231.729C158.457 232.092 158.891 232.273 159.41 232.273C159.797 232.273 160.127 232.172 160.4 231.969C160.674 231.766 160.891 231.441 161.051 230.996ZM157.588 229.291H161.062C161.016 228.768 160.883 228.375 160.664 228.113C160.328 227.707 159.893 227.504 159.357 227.504C158.873 227.504 158.465 227.666 158.133 227.99C157.805 228.314 157.623 228.748 157.588 229.291ZM163.447 233V224.41H164.502V233H163.447Z" fill="black"/>
<line x1="45.3536" y1="23.3536" x2="27.3536" y2="41.3536" stroke="black"/>
<line x1="45.3536" y1="137.354" x2="27.3536" y2="155.354" stroke="black"/>
<line x1="298.354" y1="116.354" x2="280.354" y2="134.354" stroke="black"/>
<line x1="42.3536" y1="51.3536" x2="24.3536" y2="69.3536" stroke="black"/>
<line x1="42.3536" y1="165.354" x2="24.3536" y2="183.354" stroke="black"/>
<line x1="43.3536" y1="77.3536" x2="25.3536" y2="95.3536" stroke="black"/>
<line x1="43.3536" y1="191.354" x2="25.3536" y2="209.354" stroke="black"/>
<line x1="41.3536" y1="106.354" x2="23.3536" y2="124.354" stroke="black"/>
<line x1="41.3536" y1="220.354" x2="23.3536" y2="238.354" stroke="black"/>
<line x1="179.354" y1="199.354" x2="161.354" y2="217.354" stroke="black"/>
<path d="M28.4707 52H27.416V45.2793C27.1621 45.5215 26.8281 45.7637 26.4141 46.0059C26.0039 46.248 25.6348 46.4297 25.3066 46.5508V45.5312C25.8965 45.2539 26.4121 44.918 26.8535 44.5234C27.2949 44.1289 27.6074 43.7461 27.791 43.375H28.4707V52ZM36.6504 45.5137L35.6016 45.5957C35.5078 45.1816 35.375 44.8809 35.2031 44.6934C34.918 44.3926 34.5664 44.2422 34.1484 44.2422C33.8125 44.2422 33.5176 44.3359 33.2637 44.5234C32.9316 44.7656 32.6699 45.1191 32.4785 45.584C32.2871 46.0488 32.1875 46.7109 32.1797 47.5703C32.4336 47.1836 32.7441 46.8965 33.1113 46.709C33.4785 46.5215 33.8633 46.4277 34.2656 46.4277C34.9688 46.4277 35.5664 46.6875 36.0586 47.207C36.5547 47.7227 36.8027 48.3906 36.8027 49.2109C36.8027 49.75 36.6855 50.252 36.4512 50.7168C36.2207 51.1777 35.9023 51.5312 35.4961 51.7773C35.0898 52.0234 34.6289 52.1465 34.1133 52.1465C33.2344 52.1465 32.5176 51.8242 31.9629 51.1797C31.4082 50.5312 31.1309 49.4648 31.1309 47.9805C31.1309 46.3203 31.4375 45.1133 32.0508 44.3594C32.5859 43.7031 33.3066 43.375 34.2129 43.375C34.8887 43.375 35.4414 43.5645 35.8711 43.9434C36.3047 44.3223 36.5645 44.8457 36.6504 45.5137ZM32.3438 49.2168C32.3438 49.5801 32.4199 49.9277 32.5723 50.2598C32.7285 50.5918 32.9453 50.8457 33.2227 51.0215C33.5 51.1934 33.791 51.2793 34.0957 51.2793C34.541 51.2793 34.9238 51.0996 35.2441 50.7402C35.5645 50.3809 35.7246 49.8926 35.7246 49.2754C35.7246 48.6816 35.5664 48.2148 35.25 47.875C34.9336 47.5312 34.5352 47.3594 34.0547 47.3594C33.5781 47.3594 33.1738 47.5312 32.8418 47.875C32.5098 48.2148 32.3438 48.6621 32.3438 49.2168Z" fill="black"/>
<path d="M28.4707 166H27.416V159.279C27.1621 159.521 26.8281 159.764 26.4141 160.006C26.0039 160.248 25.6348 160.43 25.3066 160.551V159.531C25.8965 159.254 26.4121 158.918 26.8535 158.523C27.2949 158.129 27.6074 157.746 27.791 157.375H28.4707V166ZM36.6504 159.514L35.6016 159.596C35.5078 159.182 35.375 158.881 35.2031 158.693C34.918 158.393 34.5664 158.242 34.1484 158.242C33.8125 158.242 33.5176 158.336 33.2637 158.523C32.9316 158.766 32.6699 159.119 32.4785 159.584C32.2871 160.049 32.1875 160.711 32.1797 161.57C32.4336 161.184 32.7441 160.896 33.1113 160.709C33.4785 160.521 33.8633 160.428 34.2656 160.428C34.9688 160.428 35.5664 160.688 36.0586 161.207C36.5547 161.723 36.8027 162.391 36.8027 163.211C36.8027 163.75 36.6855 164.252 36.4512 164.717C36.2207 165.178 35.9023 165.531 35.4961 165.777C35.0898 166.023 34.6289 166.146 34.1133 166.146C33.2344 166.146 32.5176 165.824 31.9629 165.18C31.4082 164.531 31.1309 163.465 31.1309 161.98C31.1309 160.32 31.4375 159.113 32.0508 158.359C32.5859 157.703 33.3066 157.375 34.2129 157.375C34.8887 157.375 35.4414 157.564 35.8711 157.943C36.3047 158.322 36.5645 158.846 36.6504 159.514ZM32.3438 163.217C32.3438 163.58 32.4199 163.928 32.5723 164.26C32.7285 164.592 32.9453 164.846 33.2227 165.021C33.5 165.193 33.791 165.279 34.0957 165.279C34.541 165.279 34.9238 165.1 35.2441 164.74C35.5645 164.381 35.7246 163.893 35.7246 163.275C35.7246 162.682 35.5664 162.215 35.25 161.875C34.9336 161.531 34.5352 161.359 34.0547 161.359C33.5781 161.359 33.1738 161.531 32.8418 161.875C32.5098 162.215 32.3438 162.662 32.3438 163.217Z" fill="black"/>
<path d="M281.471 145H280.416V138.279C280.162 138.521 279.828 138.764 279.414 139.006C279.004 139.248 278.635 139.43 278.307 139.551V138.531C278.896 138.254 279.412 137.918 279.854 137.523C280.295 137.129 280.607 136.746 280.791 136.375H281.471V145ZM289.65 138.514L288.602 138.596C288.508 138.182 288.375 137.881 288.203 137.693C287.918 137.393 287.566 137.242 287.148 137.242C286.812 137.242 286.518 137.336 286.264 137.523C285.932 137.766 285.67 138.119 285.479 138.584C285.287 139.049 285.188 139.711 285.18 140.57C285.434 140.184 285.744 139.896 286.111 139.709C286.479 139.521 286.863 139.428 287.266 139.428C287.969 139.428 288.566 139.688 289.059 140.207C289.555 140.723 289.803 141.391 289.803 142.211C289.803 142.75 289.686 143.252 289.451 143.717C289.221 144.178 288.902 144.531 288.496 144.777C288.09 145.023 287.629 145.146 287.113 145.146C286.234 145.146 285.518 144.824 284.963 144.18C284.408 143.531 284.131 142.465 284.131 140.98C284.131 139.32 284.438 138.113 285.051 137.359C285.586 136.703 286.307 136.375 287.213 136.375C287.889 136.375 288.441 136.564 288.871 136.943C289.305 137.322 289.564 137.846 289.65 138.514ZM285.344 142.217C285.344 142.58 285.42 142.928 285.572 143.26C285.729 143.592 285.945 143.846 286.223 144.021C286.5 144.193 286.791 144.279 287.096 144.279C287.541 144.279 287.924 144.1 288.244 143.74C288.564 143.381 288.725 142.893 288.725 142.275C288.725 141.682 288.566 141.215 288.25 140.875C287.934 140.531 287.535 140.359 287.055 140.359C286.578 140.359 286.174 140.531 285.842 140.875C285.51 141.215 285.344 141.662 285.344 142.217Z" fill="black"/>
<path d="M25.4707 80H24.416V73.2793C24.1621 73.5215 23.8281 73.7637 23.4141 74.0059C23.0039 74.248 22.6348 74.4297 22.3066 74.5508V73.5312C22.8965 73.2539 23.4121 72.918 23.8535 72.5234C24.2949 72.1289 24.6074 71.7461 24.791 71.375H25.4707V80ZM33.6504 73.5137L32.6016 73.5957C32.5078 73.1816 32.375 72.8809 32.2031 72.6934C31.918 72.3926 31.5664 72.2422 31.1484 72.2422C30.8125 72.2422 30.5176 72.3359 30.2637 72.5234C29.9316 72.7656 29.6699 73.1191 29.4785 73.584C29.2871 74.0488 29.1875 74.7109 29.1797 75.5703C29.4336 75.1836 29.7441 74.8965 30.1113 74.709C30.4785 74.5215 30.8633 74.4277 31.2656 74.4277C31.9688 74.4277 32.5664 74.6875 33.0586 75.207C33.5547 75.7227 33.8027 76.3906 33.8027 77.2109C33.8027 77.75 33.6855 78.252 33.4512 78.7168C33.2207 79.1777 32.9023 79.5312 32.4961 79.7773C32.0898 80.0234 31.6289 80.1465 31.1133 80.1465C30.2344 80.1465 29.5176 79.8242 28.9629 79.1797C28.4082 78.5312 28.1309 77.4648 28.1309 75.9805C28.1309 74.3203 28.4375 73.1133 29.0508 72.3594C29.5859 71.7031 30.3066 71.375 31.2129 71.375C31.8887 71.375 32.4414 71.5645 32.8711 71.9434C33.3047 72.3223 33.5645 72.8457 33.6504 73.5137ZM29.3438 77.2168C29.3438 77.5801 29.4199 77.9277 29.5723 78.2598C29.7285 78.5918 29.9453 78.8457 30.2227 79.0215C30.5 79.1934 30.791 79.2793 31.0957 79.2793C31.541 79.2793 31.9238 79.0996 32.2441 78.7402C32.5645 78.3809 32.7246 77.8926 32.7246 77.2754C32.7246 76.6816 32.5664 76.2148 32.25 75.875C31.9336 75.5312 31.5352 75.3594 31.0547 75.3594C30.5781 75.3594 30.1738 75.5312 29.8418 75.875C29.5098 76.2148 29.3438 76.6621 29.3438 77.2168Z" fill="black"/>
<path d="M25.4707 194H24.416V187.279C24.1621 187.521 23.8281 187.764 23.4141 188.006C23.0039 188.248 22.6348 188.43 22.3066 188.551V187.531C22.8965 187.254 23.4121 186.918 23.8535 186.523C24.2949 186.129 24.6074 185.746 24.791 185.375H25.4707V194ZM33.6504 187.514L32.6016 187.596C32.5078 187.182 32.375 186.881 32.2031 186.693C31.918 186.393 31.5664 186.242 31.1484 186.242C30.8125 186.242 30.5176 186.336 30.2637 186.523C29.9316 186.766 29.6699 187.119 29.4785 187.584C29.2871 188.049 29.1875 188.711 29.1797 189.57C29.4336 189.184 29.7441 188.896 30.1113 188.709C30.4785 188.521 30.8633 188.428 31.2656 188.428C31.9688 188.428 32.5664 188.688 33.0586 189.207C33.5547 189.723 33.8027 190.391 33.8027 191.211C33.8027 191.75 33.6855 192.252 33.4512 192.717C33.2207 193.178 32.9023 193.531 32.4961 193.777C32.0898 194.023 31.6289 194.146 31.1133 194.146C30.2344 194.146 29.5176 193.824 28.9629 193.18C28.4082 192.531 28.1309 191.465 28.1309 189.98C28.1309 188.32 28.4375 187.113 29.0508 186.359C29.5859 185.703 30.3066 185.375 31.2129 185.375C31.8887 185.375 32.4414 185.564 32.8711 185.943C33.3047 186.322 33.5645 186.846 33.6504 187.514ZM29.3438 191.217C29.3438 191.58 29.4199 191.928 29.5723 192.26C29.7285 192.592 29.9453 192.846 30.2227 193.021C30.5 193.193 30.791 193.279 31.0957 193.279C31.541 193.279 31.9238 193.1 32.2441 192.74C32.5645 192.381 32.7246 191.893 32.7246 191.275C32.7246 190.682 32.5664 190.215 32.25 189.875C31.9336 189.531 31.5352 189.359 31.0547 189.359C30.5781 189.359 30.1738 189.531 29.8418 189.875C29.5098 190.215 29.3438 190.662 29.3438 191.217Z" fill="black"/>
<path d="M26.4707 106H25.416V99.2793C25.1621 99.5215 24.8281 99.7637 24.4141 100.006C24.0039 100.248 23.6348 100.43 23.3066 100.551V99.5312C23.8965 99.2539 24.4121 98.918 24.8535 98.5234C25.2949 98.1289 25.6074 97.7461 25.791 97.375H26.4707V106ZM34.6504 99.5137L33.6016 99.5957C33.5078 99.1816 33.375 98.8809 33.2031 98.6934C32.918 98.3926 32.5664 98.2422 32.1484 98.2422C31.8125 98.2422 31.5176 98.3359 31.2637 98.5234C30.9316 98.7656 30.6699 99.1191 30.4785 99.584C30.2871 100.049 30.1875 100.711 30.1797 101.57C30.4336 101.184 30.7441 100.896 31.1113 100.709C31.4785 100.521 31.8633 100.428 32.2656 100.428C32.9688 100.428 33.5664 100.688 34.0586 101.207C34.5547 101.723 34.8027 102.391 34.8027 103.211C34.8027 103.75 34.6855 104.252 34.4512 104.717C34.2207 105.178 33.9023 105.531 33.4961 105.777C33.0898 106.023 32.6289 106.146 32.1133 106.146C31.2344 106.146 30.5176 105.824 29.9629 105.18C29.4082 104.531 29.1309 103.465 29.1309 101.98C29.1309 100.32 29.4375 99.1133 30.0508 98.3594C30.5859 97.7031 31.3066 97.375 32.2129 97.375C32.8887 97.375 33.4414 97.5645 33.8711 97.9434C34.3047 98.3223 34.5645 98.8457 34.6504 99.5137ZM30.3438 103.217C30.3438 103.58 30.4199 103.928 30.5723 104.26C30.7285 104.592 30.9453 104.846 31.2227 105.021C31.5 105.193 31.791 105.279 32.0957 105.279C32.541 105.279 32.9238 105.1 33.2441 104.74C33.5645 104.381 33.7246 103.893 33.7246 103.275C33.7246 102.682 33.5664 102.215 33.25 101.875C32.9336 101.531 32.5352 101.359 32.0547 101.359C31.5781 101.359 31.1738 101.531 30.8418 101.875C30.5098 102.215 30.3438 102.662 30.3438 103.217Z" fill="black"/>
<path d="M26.4707 220H25.416V213.279C25.1621 213.521 24.8281 213.764 24.4141 214.006C24.0039 214.248 23.6348 214.43 23.3066 214.551V213.531C23.8965 213.254 24.4121 212.918 24.8535 212.523C25.2949 212.129 25.6074 211.746 25.791 211.375H26.4707V220ZM34.6504 213.514L33.6016 213.596C33.5078 213.182 33.375 212.881 33.2031 212.693C32.918 212.393 32.5664 212.242 32.1484 212.242C31.8125 212.242 31.5176 212.336 31.2637 212.523C30.9316 212.766 30.6699 213.119 30.4785 213.584C30.2871 214.049 30.1875 214.711 30.1797 215.57C30.4336 215.184 30.7441 214.896 31.1113 214.709C31.4785 214.521 31.8633 214.428 32.2656 214.428C32.9688 214.428 33.5664 214.688 34.0586 215.207C34.5547 215.723 34.8027 216.391 34.8027 217.211C34.8027 217.75 34.6855 218.252 34.4512 218.717C34.2207 219.178 33.9023 219.531 33.4961 219.777C33.0898 220.023 32.6289 220.146 32.1133 220.146C31.2344 220.146 30.5176 219.824 29.9629 219.18C29.4082 218.531 29.1309 217.465 29.1309 215.98C29.1309 214.32 29.4375 213.113 30.0508 212.359C30.5859 211.703 31.3066 211.375 32.2129 211.375C32.8887 211.375 33.4414 211.564 33.8711 211.943C34.3047 212.322 34.5645 212.846 34.6504 213.514ZM30.3438 217.217C30.3438 217.58 30.4199 217.928 30.5723 218.26C30.7285 218.592 30.9453 218.846 31.2227 219.021C31.5 219.193 31.791 219.279 32.0957 219.279C32.541 219.279 32.9238 219.1 33.2441 218.74C33.5645 218.381 33.7246 217.893 33.7246 217.275C33.7246 216.682 33.5664 216.215 33.25 215.875C32.9336 215.531 32.5352 215.359 32.0547 215.359C31.5781 215.359 31.1738 215.531 30.8418 215.875C30.5098 216.215 30.3438 216.662 30.3438 217.217Z" fill="black"/>
<path d="M24.4707 135H23.416V128.279C23.1621 128.521 22.8281 128.764 22.4141 129.006C22.0039 129.248 21.6348 129.43 21.3066 129.551V128.531C21.8965 128.254 22.4121 127.918 22.8535 127.523C23.2949 127.129 23.6074 126.746 23.791 126.375H24.4707V135ZM32.6504 128.514L31.6016 128.596C31.5078 128.182 31.375 127.881 31.2031 127.693C30.918 127.393 30.5664 127.242 30.1484 127.242C29.8125 127.242 29.5176 127.336 29.2637 127.523C28.9316 127.766 28.6699 128.119 28.4785 128.584C28.2871 129.049 28.1875 129.711 28.1797 130.57C28.4336 130.184 28.7441 129.896 29.1113 129.709C29.4785 129.521 29.8633 129.428 30.2656 129.428C30.9688 129.428 31.5664 129.688 32.0586 130.207C32.5547 130.723 32.8027 131.391 32.8027 132.211C32.8027 132.75 32.6855 133.252 32.4512 133.717C32.2207 134.178 31.9023 134.531 31.4961 134.777C31.0898 135.023 30.6289 135.146 30.1133 135.146C29.2344 135.146 28.5176 134.824 27.9629 134.18C27.4082 133.531 27.1309 132.465 27.1309 130.98C27.1309 129.32 27.4375 128.113 28.0508 127.359C28.5859 126.703 29.3066 126.375 30.2129 126.375C30.8887 126.375 31.4414 126.564 31.8711 126.943C32.3047 127.322 32.5645 127.846 32.6504 128.514ZM28.3438 132.217C28.3438 132.58 28.4199 132.928 28.5723 133.26C28.7285 133.592 28.9453 133.846 29.2227 134.021C29.5 134.193 29.791 134.279 30.0957 134.279C30.541 134.279 30.9238 134.1 31.2441 133.74C31.5645 133.381 31.7246 132.893 31.7246 132.275C31.7246 131.682 31.5664 131.215 31.25 130.875C30.9336 130.531 30.5352 130.359 30.0547 130.359C29.5781 130.359 29.1738 130.531 28.8418 130.875C28.5098 131.215 28.3438 131.662 28.3438 132.217Z" fill="black"/>
<path d="M24.4707 249H23.416V242.279C23.1621 242.521 22.8281 242.764 22.4141 243.006C22.0039 243.248 21.6348 243.43 21.3066 243.551V242.531C21.8965 242.254 22.4121 241.918 22.8535 241.523C23.2949 241.129 23.6074 240.746 23.791 240.375H24.4707V249ZM32.6504 242.514L31.6016 242.596C31.5078 242.182 31.375 241.881 31.2031 241.693C30.918 241.393 30.5664 241.242 30.1484 241.242C29.8125 241.242 29.5176 241.336 29.2637 241.523C28.9316 241.766 28.6699 242.119 28.4785 242.584C28.2871 243.049 28.1875 243.711 28.1797 244.57C28.4336 244.184 28.7441 243.896 29.1113 243.709C29.4785 243.521 29.8633 243.428 30.2656 243.428C30.9688 243.428 31.5664 243.688 32.0586 244.207C32.5547 244.723 32.8027 245.391 32.8027 246.211C32.8027 246.75 32.6855 247.252 32.4512 247.717C32.2207 248.178 31.9023 248.531 31.4961 248.777C31.0898 249.023 30.6289 249.146 30.1133 249.146C29.2344 249.146 28.5176 248.824 27.9629 248.18C27.4082 247.531 27.1309 246.465 27.1309 244.98C27.1309 243.32 27.4375 242.113 28.0508 241.359C28.5859 240.703 29.3066 240.375 30.2129 240.375C30.8887 240.375 31.4414 240.564 31.8711 240.943C32.3047 241.322 32.5645 241.846 32.6504 242.514ZM28.3438 246.217C28.3438 246.58 28.4199 246.928 28.5723 247.26C28.7285 247.592 28.9453 247.846 29.2227 248.021C29.5 248.193 29.791 248.279 30.0957 248.279C30.541 248.279 30.9238 248.1 31.2441 247.74C31.5645 247.381 31.7246 246.893 31.7246 246.275C31.7246 245.682 31.5664 245.215 31.25 244.875C30.9336 244.531 30.5352 244.359 30.0547 244.359C29.5781 244.359 29.1738 244.531 28.8418 244.875C28.5098 245.215 28.3438 245.662 28.3438 246.217Z" fill="black"/>
<path d="M177.504 213.732L178.559 213.592C178.68 214.189 178.885 214.621 179.174 214.887C179.467 215.148 179.822 215.279 180.24 215.279C180.736 215.279 181.154 215.107 181.494 214.764C181.838 214.42 182.01 213.994 182.01 213.486C182.01 213.002 181.852 212.604 181.535 212.291C181.219 211.975 180.816 211.816 180.328 211.816C180.129 211.816 179.881 211.855 179.584 211.934L179.701 211.008C179.771 211.016 179.828 211.02 179.871 211.02C180.32 211.02 180.725 210.902 181.084 210.668C181.443 210.434 181.623 210.072 181.623 209.584C181.623 209.197 181.492 208.877 181.23 208.623C180.969 208.369 180.631 208.242 180.217 208.242C179.807 208.242 179.465 208.371 179.191 208.629C178.918 208.887 178.742 209.273 178.664 209.789L177.609 209.602C177.738 208.895 178.031 208.348 178.488 207.961C178.945 207.57 179.514 207.375 180.193 207.375C180.662 207.375 181.094 207.477 181.488 207.68C181.883 207.879 182.184 208.152 182.391 208.5C182.602 208.848 182.707 209.217 182.707 209.607C182.707 209.979 182.607 210.316 182.408 210.621C182.209 210.926 181.914 211.168 181.523 211.348C182.031 211.465 182.426 211.709 182.707 212.08C182.988 212.447 183.129 212.908 183.129 213.463C183.129 214.213 182.855 214.85 182.309 215.373C181.762 215.893 181.07 216.152 180.234 216.152C179.48 216.152 178.854 215.928 178.354 215.479C177.857 215.029 177.574 214.447 177.504 213.732Z" fill="black"/>
</svg>
