<svg width="129" height="57" viewBox="0 0 129 57" fill="none" xmlns="http://www.w3.org/2000/svg">
<mask id="path-1-inside-1_2_274" fill="white">
<path fill-rule="evenodd" clip-rule="evenodd" d="M74 7H22V57H74C87.8071 57 99 45.8071 99 32C99 18.1929 87.8071 7 74 7Z"/>
</mask>
<path d="M22 7V5H20V7H22ZM22 57H20V59H22V57ZM22 9H74V5H22V9ZM24 57V7H20V57H24ZM74 55H22V59H74V55ZM97 32C97 44.7025 86.7026 55 74 55V59C88.9117 59 101 46.9117 101 32H97ZM74 9C86.7026 9 97 19.2975 97 32H101C101 17.0883 88.9117 5 74 5V9Z" fill="black" mask="url(#path-1-inside-1_2_274)"/>
<line y1="17" x2="22" y2="17" stroke="black" stroke-width="2"/>
<line y1="47" x2="22" y2="47" stroke="black" stroke-width="2"/>
<line x1="108" y1="32" x2="129" y2="32" stroke="black" stroke-width="2"/>
<path d="M9.85156 10.2324C9.46094 10.5645 9.08398 10.7988 8.7207 10.9355C8.36133 11.0723 7.97461 11.1406 7.56055 11.1406C6.87695 11.1406 6.35156 10.9746 5.98438 10.6426C5.61719 10.3066 5.43359 9.87891 5.43359 9.35938C5.43359 9.05469 5.50195 8.77734 5.63867 8.52734C5.7793 8.27344 5.96094 8.07031 6.18359 7.91797C6.41016 7.76562 6.66406 7.65039 6.94531 7.57227C7.15234 7.51758 7.46484 7.46484 7.88281 7.41406C8.73438 7.3125 9.36133 7.19141 9.76367 7.05078C9.76758 6.90625 9.76953 6.81445 9.76953 6.77539C9.76953 6.3457 9.66992 6.04297 9.4707 5.86719C9.20117 5.62891 8.80078 5.50977 8.26953 5.50977C7.77344 5.50977 7.40625 5.59766 7.16797 5.77344C6.93359 5.94531 6.75977 6.25195 6.64648 6.69336L5.61523 6.55273C5.70898 6.11133 5.86328 5.75586 6.07812 5.48633C6.29297 5.21289 6.60352 5.00391 7.00977 4.85938C7.41602 4.71094 7.88672 4.63672 8.42188 4.63672C8.95312 4.63672 9.38477 4.69922 9.7168 4.82422C10.0488 4.94922 10.293 5.10742 10.4492 5.29883C10.6055 5.48633 10.7148 5.72461 10.7773 6.01367C10.8125 6.19336 10.8301 6.51758 10.8301 6.98633V8.39258C10.8301 9.37305 10.8516 9.99414 10.8945 10.2559C10.9414 10.5137 11.0312 10.7617 11.1641 11H10.0625C9.95312 10.7812 9.88281 10.5254 9.85156 10.2324ZM9.76367 7.87695C9.38086 8.0332 8.80664 8.16602 8.04102 8.27539C7.60742 8.33789 7.30078 8.4082 7.12109 8.48633C6.94141 8.56445 6.80273 8.67969 6.70508 8.83203C6.60742 8.98047 6.55859 9.14648 6.55859 9.33008C6.55859 9.61133 6.66406 9.8457 6.875 10.0332C7.08984 10.2207 7.40234 10.3145 7.8125 10.3145C8.21875 10.3145 8.58008 10.2266 8.89648 10.0508C9.21289 9.87109 9.44531 9.62695 9.59375 9.31836C9.70703 9.08008 9.76367 8.72852 9.76367 8.26367V7.87695Z" fill="black"/>
<path d="M6.76367 43H5.78516V34.4102H6.83984V37.4746C7.28516 36.916 7.85352 36.6367 8.54492 36.6367C8.92773 36.6367 9.28906 36.7148 9.62891 36.8711C9.97266 37.0234 10.2539 37.2402 10.4727 37.5215C10.6953 37.7988 10.8691 38.1348 10.9941 38.5293C11.1191 38.9238 11.1816 39.3457 11.1816 39.7949C11.1816 40.8613 10.918 41.6855 10.3906 42.2676C9.86328 42.8496 9.23047 43.1406 8.49219 43.1406C7.75781 43.1406 7.18164 42.834 6.76367 42.2207V43ZM6.75195 39.8418C6.75195 40.5879 6.85352 41.127 7.05664 41.459C7.38867 42.002 7.83789 42.2734 8.4043 42.2734C8.86523 42.2734 9.26367 42.0742 9.59961 41.6758C9.93555 41.2734 10.1035 40.6758 10.1035 39.8828C10.1035 39.0703 9.94141 38.4707 9.61719 38.084C9.29688 37.6973 8.9082 37.5039 8.45117 37.5039C7.99023 37.5039 7.5918 37.7051 7.25586 38.1074C6.91992 38.5059 6.75195 39.084 6.75195 39.8418Z" fill="black"/>
<path d="M112.398 23.8887C112.398 22.7363 112.719 21.8828 113.359 21.3281C113.895 20.8672 114.547 20.6367 115.316 20.6367C116.172 20.6367 116.871 20.918 117.414 21.4805C117.957 22.0391 118.229 22.8125 118.229 23.8008C118.229 24.6016 118.107 25.2324 117.865 25.6934C117.627 26.1504 117.277 26.5059 116.816 26.7598C116.359 27.0137 115.859 27.1406 115.316 27.1406C114.445 27.1406 113.74 26.8613 113.201 26.3027C112.666 25.7441 112.398 24.9395 112.398 23.8887ZM113.482 23.8887C113.482 24.6855 113.656 25.2832 114.004 25.6816C114.352 26.0762 114.789 26.2734 115.316 26.2734C115.84 26.2734 116.275 26.0742 116.623 25.6758C116.971 25.2773 117.145 24.6699 117.145 23.8535C117.145 23.084 116.969 22.502 116.617 22.1074C116.27 21.709 115.836 21.5098 115.316 21.5098C114.789 21.5098 114.352 21.707 114.004 22.1016C113.656 22.4961 113.482 23.0918 113.482 23.8887ZM123.549 27V26.0859C123.064 26.7891 122.406 27.1406 121.574 27.1406C121.207 27.1406 120.863 27.0703 120.543 26.9297C120.227 26.7891 119.99 26.6133 119.834 26.4023C119.682 26.1875 119.574 25.9258 119.512 25.6172C119.469 25.4102 119.447 25.082 119.447 24.6328V20.7773H120.502V24.2285C120.502 24.7793 120.523 25.1504 120.566 25.3418C120.633 25.6191 120.773 25.8379 120.988 25.998C121.203 26.1543 121.469 26.2324 121.785 26.2324C122.102 26.2324 122.398 26.1523 122.676 25.9922C122.953 25.8281 123.148 25.6074 123.262 25.3301C123.379 25.0488 123.438 24.6426 123.438 24.1113V20.7773H124.492V27H123.549ZM128.453 26.0566L128.605 26.9883C128.309 27.0508 128.043 27.082 127.809 27.082C127.426 27.082 127.129 27.0215 126.918 26.9004C126.707 26.7793 126.559 26.6211 126.473 26.4258C126.387 26.2266 126.344 25.8105 126.344 25.1777V21.5977H125.57V20.7773H126.344V19.2363L127.393 18.6035V20.7773H128.453V21.5977H127.393V25.2363C127.393 25.5371 127.41 25.7305 127.445 25.8164C127.484 25.9023 127.545 25.9707 127.627 26.0215C127.713 26.0723 127.834 26.0977 127.99 26.0977C128.107 26.0977 128.262 26.084 128.453 26.0566Z" fill="black"/>
<circle cx="104" cy="32" r="5" stroke="black" stroke-width="2"/>
</svg>
