<svg width="205" height="89" viewBox="0 0 205 89" fill="none" xmlns="http://www.w3.org/2000/svg">
<mask id="path-1-inside-1_5_402" fill="white">
<path fill-rule="evenodd" clip-rule="evenodd" d="M120 29H68V79H120C133.807 79 145 67.8071 145 54C145 40.1929 133.807 29 120 29Z"/>
</mask>
<path fill-rule="evenodd" clip-rule="evenodd" d="M120 29H68V79H120C133.807 79 145 67.8071 145 54C145 40.1929 133.807 29 120 29Z" fill="#D9D9D9"/>
<path d="M68 29V27H66V29H68ZM68 79H66V81H68V79ZM68 31H120V27H68V31ZM70 79V29H66V79H70ZM120 77H68V81H120V77ZM143 54C143 66.7025 132.703 77 120 77V81C134.912 81 147 68.9117 147 54H143ZM120 31C132.703 31 143 41.2975 143 54H147C147 39.0883 134.912 27 120 27V31Z" fill="black" mask="url(#path-1-inside-1_5_402)"/>
<line x1="46" y1="39" x2="68" y2="39" stroke="black" stroke-width="2"/>
<line x1="46" y1="69" x2="68" y2="69" stroke="black" stroke-width="2"/>
<path d="M154 54L179 54" stroke="black" stroke-width="2"/>
<path d="M55.8516 32.2324C55.4609 32.5645 55.084 32.7988 54.7207 32.9355C54.3613 33.0723 53.9746 33.1406 53.5605 33.1406C52.877 33.1406 52.3516 32.9746 51.9844 32.6426C51.6172 32.3066 51.4336 31.8789 51.4336 31.3594C51.4336 31.0547 51.502 30.7773 51.6387 30.5273C51.7793 30.2734 51.9609 30.0703 52.1836 29.918C52.4102 29.7656 52.6641 29.6504 52.9453 29.5723C53.1523 29.5176 53.4648 29.4648 53.8828 29.4141C54.7344 29.3125 55.3613 29.1914 55.7637 29.0508C55.7676 28.9062 55.7695 28.8145 55.7695 28.7754C55.7695 28.3457 55.6699 28.043 55.4707 27.8672C55.2012 27.6289 54.8008 27.5098 54.2695 27.5098C53.7734 27.5098 53.4062 27.5977 53.168 27.7734C52.9336 27.9453 52.7598 28.252 52.6465 28.6934L51.6152 28.5527C51.709 28.1113 51.8633 27.7559 52.0781 27.4863C52.293 27.2129 52.6035 27.0039 53.0098 26.8594C53.416 26.7109 53.8867 26.6367 54.4219 26.6367C54.9531 26.6367 55.3848 26.6992 55.7168 26.8242C56.0488 26.9492 56.293 27.1074 56.4492 27.2988C56.6055 27.4863 56.7148 27.7246 56.7773 28.0137C56.8125 28.1934 56.8301 28.5176 56.8301 28.9863V30.3926C56.8301 31.373 56.8516 31.9941 56.8945 32.2559C56.9414 32.5137 57.0312 32.7617 57.1641 33H56.0625C55.9531 32.7812 55.8828 32.5254 55.8516 32.2324ZM55.7637 29.877C55.3809 30.0332 54.8066 30.166 54.041 30.2754C53.6074 30.3379 53.3008 30.4082 53.1211 30.4863C52.9414 30.5645 52.8027 30.6797 52.7051 30.832C52.6074 30.9805 52.5586 31.1465 52.5586 31.3301C52.5586 31.6113 52.6641 31.8457 52.875 32.0332C53.0898 32.2207 53.4023 32.3145 53.8125 32.3145C54.2188 32.3145 54.5801 32.2266 54.8965 32.0508C55.2129 31.8711 55.4453 31.627 55.5938 31.3184C55.707 31.0801 55.7637 30.7285 55.7637 30.2637V29.877Z" fill="black"/>
<path d="M87.8906 58V49.4102H89.5781L93.0938 55.1465V49.4102H94.7051V58H92.9648L89.502 52.3984V58H87.8906ZM97.7637 53.6758L96.2695 53.4062C96.4375 52.8047 96.7266 52.3594 97.1367 52.0703C97.5469 51.7812 98.1562 51.6367 98.9648 51.6367C99.6992 51.6367 100.246 51.7246 100.605 51.9004C100.965 52.0723 101.217 52.293 101.361 52.5625C101.51 52.8281 101.584 53.3184 101.584 54.0332L101.566 55.9551C101.566 56.502 101.592 56.9062 101.643 57.168C101.697 57.4258 101.797 57.7031 101.941 58H100.312C100.27 57.8906 100.217 57.7285 100.154 57.5137C100.127 57.416 100.107 57.3516 100.096 57.3203C99.8145 57.5938 99.5137 57.7988 99.1934 57.9355C98.873 58.0723 98.5312 58.1406 98.168 58.1406C97.5273 58.1406 97.0215 57.9668 96.6504 57.6191C96.2832 57.2715 96.0996 56.832 96.0996 56.3008C96.0996 55.9492 96.1836 55.6367 96.3516 55.3633C96.5195 55.0859 96.7539 54.875 97.0547 54.7305C97.3594 54.582 97.7969 54.4531 98.3672 54.3438C99.1367 54.1992 99.6699 54.0645 99.9668 53.9395V53.7754C99.9668 53.459 99.8887 53.2344 99.7324 53.1016C99.5762 52.9648 99.2812 52.8965 98.8477 52.8965C98.5547 52.8965 98.3262 52.9551 98.1621 53.0723C97.998 53.1855 97.8652 53.3867 97.7637 53.6758ZM99.9668 55.0117C99.7559 55.082 99.4219 55.166 98.9648 55.2637C98.5078 55.3613 98.209 55.457 98.0684 55.5508C97.8535 55.7031 97.7461 55.8965 97.7461 56.1309C97.7461 56.3613 97.832 56.5605 98.0039 56.7285C98.1758 56.8965 98.3945 56.9805 98.6602 56.9805C98.957 56.9805 99.2402 56.8828 99.5098 56.6875C99.709 56.5391 99.8398 56.3574 99.9023 56.1426C99.9453 56.002 99.9668 55.7344 99.9668 55.3398V55.0117ZM108.873 58H107.227V54.8242C107.227 54.1523 107.191 53.7188 107.121 53.5234C107.051 53.3242 106.936 53.1699 106.775 53.0605C106.619 52.9512 106.43 52.8965 106.207 52.8965C105.922 52.8965 105.666 52.9746 105.439 53.1309C105.213 53.2871 105.057 53.4941 104.971 53.752C104.889 54.0098 104.848 54.4863 104.848 55.1816V58H103.201V51.7773H104.73V52.6914C105.273 51.9883 105.957 51.6367 106.781 51.6367C107.145 51.6367 107.477 51.7031 107.777 51.8359C108.078 51.9648 108.305 52.1309 108.457 52.334C108.613 52.5371 108.721 52.7676 108.779 53.0254C108.842 53.2832 108.873 53.6523 108.873 54.1328V58ZM116.256 58H114.727V57.0859C114.473 57.4414 114.172 57.707 113.824 57.8828C113.48 58.0547 113.133 58.1406 112.781 58.1406C112.066 58.1406 111.453 57.8535 110.941 57.2793C110.434 56.7012 110.18 55.8965 110.18 54.8652C110.18 53.8105 110.428 53.0098 110.924 52.4629C111.42 51.9121 112.047 51.6367 112.805 51.6367C113.5 51.6367 114.102 51.9258 114.609 52.5039V49.4102H116.256V58ZM111.861 54.7539C111.861 55.418 111.953 55.8984 112.137 56.1953C112.402 56.625 112.773 56.8398 113.25 56.8398C113.629 56.8398 113.951 56.6797 114.217 56.3594C114.482 56.0352 114.615 55.5527 114.615 54.9121C114.615 54.1973 114.486 53.6836 114.229 53.3711C113.971 53.0547 113.641 52.8965 113.238 52.8965C112.848 52.8965 112.52 53.0527 112.254 53.3652C111.992 53.6738 111.861 54.1367 111.861 54.7539Z" fill="black"/>
<path d="M52.7637 65H51.7852V56.4102H52.8398V59.4746C53.2852 58.916 53.8535 58.6367 54.5449 58.6367C54.9277 58.6367 55.2891 58.7148 55.6289 58.8711C55.9727 59.0234 56.2539 59.2402 56.4727 59.5215C56.6953 59.7988 56.8691 60.1348 56.9941 60.5293C57.1191 60.9238 57.1816 61.3457 57.1816 61.7949C57.1816 62.8613 56.918 63.6855 56.3906 64.2676C55.8633 64.8496 55.2305 65.1406 54.4922 65.1406C53.7578 65.1406 53.1816 64.834 52.7637 64.2207V65ZM52.752 61.8418C52.752 62.5879 52.8535 63.127 53.0566 63.459C53.3887 64.002 53.8379 64.2734 54.4043 64.2734C54.8652 64.2734 55.2637 64.0742 55.5996 63.6758C55.9355 63.2734 56.1035 62.6758 56.1035 61.8828C56.1035 61.0703 55.9414 60.4707 55.6172 60.084C55.2969 59.6973 54.9082 59.5039 54.4512 59.5039C53.9902 59.5039 53.5918 59.7051 53.2559 60.1074C52.9199 60.5059 52.752 61.084 52.752 61.8418Z" fill="black"/>
<path d="M158.398 45.8887C158.398 44.7363 158.719 43.8828 159.359 43.3281C159.895 42.8672 160.547 42.6367 161.316 42.6367C162.172 42.6367 162.871 42.918 163.414 43.4805C163.957 44.0391 164.229 44.8125 164.229 45.8008C164.229 46.6016 164.107 47.2324 163.865 47.6934C163.627 48.1504 163.277 48.5059 162.816 48.7598C162.359 49.0137 161.859 49.1406 161.316 49.1406C160.445 49.1406 159.74 48.8613 159.201 48.3027C158.666 47.7441 158.398 46.9395 158.398 45.8887ZM159.482 45.8887C159.482 46.6855 159.656 47.2832 160.004 47.6816C160.352 48.0762 160.789 48.2734 161.316 48.2734C161.84 48.2734 162.275 48.0742 162.623 47.6758C162.971 47.2773 163.145 46.6699 163.145 45.8535C163.145 45.084 162.969 44.502 162.617 44.1074C162.27 43.709 161.836 43.5098 161.316 43.5098C160.789 43.5098 160.352 43.707 160.004 44.1016C159.656 44.4961 159.482 45.0918 159.482 45.8887ZM169.549 49V48.0859C169.064 48.7891 168.406 49.1406 167.574 49.1406C167.207 49.1406 166.863 49.0703 166.543 48.9297C166.227 48.7891 165.99 48.6133 165.834 48.4023C165.682 48.1875 165.574 47.9258 165.512 47.6172C165.469 47.4102 165.447 47.082 165.447 46.6328V42.7773H166.502V46.2285C166.502 46.7793 166.523 47.1504 166.566 47.3418C166.633 47.6191 166.773 47.8379 166.988 47.998C167.203 48.1543 167.469 48.2324 167.785 48.2324C168.102 48.2324 168.398 48.1523 168.676 47.9922C168.953 47.8281 169.148 47.6074 169.262 47.3301C169.379 47.0488 169.438 46.6426 169.438 46.1113V42.7773H170.492V49H169.549ZM174.453 48.0566L174.605 48.9883C174.309 49.0508 174.043 49.082 173.809 49.082C173.426 49.082 173.129 49.0215 172.918 48.9004C172.707 48.7793 172.559 48.6211 172.473 48.4258C172.387 48.2266 172.344 47.8105 172.344 47.1777V43.5977H171.57V42.7773H172.344V41.2363L173.393 40.6035V42.7773H174.453V43.5977H173.393V47.2363C173.393 47.5371 173.41 47.7305 173.445 47.8164C173.484 47.9023 173.545 47.9707 173.627 48.0215C173.713 48.0723 173.834 48.0977 173.99 48.0977C174.107 48.0977 174.262 48.084 174.453 48.0566Z" fill="black"/>
<circle cx="150" cy="54" r="5" fill="#D9D9D9" stroke="black" stroke-width="2"/>
<path d="M10.7969 39.623V38.4102H11.8516V39.623H10.7969ZM10.7969 47V40.7773H11.8516V47H10.7969ZM13.4629 47V40.7773H14.4121V41.6621C14.8691 40.9785 15.5293 40.6367 16.3926 40.6367C16.7676 40.6367 17.1113 40.7051 17.4238 40.8418C17.7402 40.9746 17.9766 41.1504 18.1328 41.3691C18.2891 41.5879 18.3984 41.8477 18.4609 42.1484C18.5 42.3438 18.5195 42.6855 18.5195 43.1738V47H17.4648V43.2148C17.4648 42.7852 17.4238 42.4648 17.3418 42.2539C17.2598 42.0391 17.1133 41.8691 16.9023 41.7441C16.6953 41.6152 16.4512 41.5508 16.1699 41.5508C15.7207 41.5508 15.332 41.6934 15.0039 41.9785C14.6797 42.2637 14.5176 42.8047 14.5176 43.6016V47H13.4629Z" fill="black"/>
<path d="M181.398 43.8887C181.398 42.7363 181.719 41.8828 182.359 41.3281C182.895 40.8672 183.547 40.6367 184.316 40.6367C185.172 40.6367 185.871 40.918 186.414 41.4805C186.957 42.0391 187.229 42.8125 187.229 43.8008C187.229 44.6016 187.107 45.2324 186.865 45.6934C186.627 46.1504 186.277 46.5059 185.816 46.7598C185.359 47.0137 184.859 47.1406 184.316 47.1406C183.445 47.1406 182.74 46.8613 182.201 46.3027C181.666 45.7441 181.398 44.9395 181.398 43.8887ZM182.482 43.8887C182.482 44.6855 182.656 45.2832 183.004 45.6816C183.352 46.0762 183.789 46.2734 184.316 46.2734C184.84 46.2734 185.275 46.0742 185.623 45.6758C185.971 45.2773 186.145 44.6699 186.145 43.8535C186.145 43.084 185.969 42.502 185.617 42.1074C185.27 41.709 184.836 41.5098 184.316 41.5098C183.789 41.5098 183.352 41.707 183.004 42.1016C182.656 42.4961 182.482 43.0918 182.482 43.8887ZM192.549 47V46.0859C192.064 46.7891 191.406 47.1406 190.574 47.1406C190.207 47.1406 189.863 47.0703 189.543 46.9297C189.227 46.7891 188.99 46.6133 188.834 46.4023C188.682 46.1875 188.574 45.9258 188.512 45.6172C188.469 45.4102 188.447 45.082 188.447 44.6328V40.7773H189.502V44.2285C189.502 44.7793 189.523 45.1504 189.566 45.3418C189.633 45.6191 189.773 45.8379 189.988 45.998C190.203 46.1543 190.469 46.2324 190.785 46.2324C191.102 46.2324 191.398 46.1523 191.676 45.9922C191.953 45.8281 192.148 45.6074 192.262 45.3301C192.379 45.0488 192.438 44.6426 192.438 44.1113V40.7773H193.492V47H192.549ZM197.453 46.0566L197.605 46.9883C197.309 47.0508 197.043 47.082 196.809 47.082C196.426 47.082 196.129 47.0215 195.918 46.9004C195.707 46.7793 195.559 46.6211 195.473 46.4258C195.387 46.2266 195.344 45.8105 195.344 45.1777V41.5977H194.57V40.7773H195.344V39.2363L196.393 38.6035V40.7773H197.453V41.5977H196.393V45.2363C196.393 45.5371 196.41 45.7305 196.445 45.8164C196.484 45.9023 196.545 45.9707 196.627 46.0215C196.713 46.0723 196.834 46.0977 196.99 46.0977C197.107 46.0977 197.262 46.084 197.453 46.0566Z" fill="black"/>
<rect x="29.5" y="15.5" width="147" height="73" stroke="black" stroke-dasharray="2 2"/>
<circle cx="41" cy="54" r="5" fill="#FF6B00"/>
<line x1="41" y1="69" x2="41" y2="39" stroke="#FF6B00" stroke-width="2"/>
<line x1="40" y1="39" x2="47" y2="39" stroke="#FF6B00" stroke-width="2"/>
<line x1="-8.74228e-08" y1="54" x2="38" y2="54" stroke="#FF6B00" stroke-width="2"/>
<line x1="167" y1="54" x2="205" y2="54" stroke="#FF6B00" stroke-width="2"/>
<line x1="40" y1="69" x2="46" y2="69" stroke="#FF6B00" stroke-width="2"/>
<path d="M31.8906 11V2.41016H33.5781L37.0938 8.14648V2.41016H38.7051V11H36.9648L33.502 5.39844V11H31.8906ZM40.1934 6.75781C40.1934 5.88281 40.3242 5.14844 40.5859 4.55469C40.7812 4.11719 41.0469 3.72461 41.3828 3.37695C41.7227 3.0293 42.0938 2.77148 42.4961 2.60352C43.0312 2.37695 43.6484 2.26367 44.3477 2.26367C45.6133 2.26367 46.625 2.65625 47.3828 3.44141C48.1445 4.22656 48.5254 5.31836 48.5254 6.7168C48.5254 8.10352 48.1484 9.18945 47.3945 9.97461C46.6406 10.7559 45.6328 11.1465 44.3711 11.1465C43.0938 11.1465 42.0781 10.7578 41.3242 9.98047C40.5703 9.19922 40.1934 8.125 40.1934 6.75781ZM41.9805 6.69922C41.9805 7.67188 42.2051 8.41016 42.6543 8.91406C43.1035 9.41406 43.6738 9.66406 44.3652 9.66406C45.0566 9.66406 45.623 9.41602 46.0645 8.91992C46.5098 8.41992 46.7324 7.67188 46.7324 6.67578C46.7324 5.69141 46.5156 4.95703 46.082 4.47266C45.6523 3.98828 45.0801 3.74609 44.3652 3.74609C43.6504 3.74609 43.0742 3.99219 42.6367 4.48438C42.1992 4.97266 41.9805 5.71094 41.9805 6.69922ZM51.8184 11V3.86328H49.2695V2.41016H56.0957V3.86328H53.5527V11H51.8184Z" fill="black"/>
</svg>
