<svg width="146" height="67" viewBox="0 0 146 67" fill="none" xmlns="http://www.w3.org/2000/svg">
<line x1="106" y1="32.8" x2="146" y2="32.8" stroke="black" stroke-width="2.4"/>
<path d="M7.79688 17.623V16.4102H8.85156V17.623H7.79688ZM7.79688 25V18.7773H8.85156V25H7.79688ZM10.4629 25V18.7773H11.4121V19.6621C11.8691 18.9785 12.5293 18.6367 13.3926 18.6367C13.7676 18.6367 14.1113 18.7051 14.4238 18.8418C14.7402 18.9746 14.9766 19.1504 15.1328 19.3691C15.2891 19.5879 15.3984 19.8477 15.4609 20.1484C15.5 20.3438 15.5195 20.6855 15.5195 21.1738V25H14.4648V21.2148C14.4648 20.7852 14.4238 20.4648 14.3418 20.2539C14.2598 20.0391 14.1133 19.8691 13.9023 19.7441C13.6953 19.6152 13.4512 19.5508 13.1699 19.5508C12.7207 19.5508 12.332 19.6934 12.0039 19.9785C11.6797 20.2637 11.5176 20.8047 11.5176 21.6016V25H10.4629Z" fill="black"/>
<line y1="32.8" x2="47" y2="32.8" stroke="black" stroke-width="2.4"/>
<path d="M127.398 19.8887C127.398 18.7363 127.719 17.8828 128.359 17.3281C128.895 16.8672 129.547 16.6367 130.316 16.6367C131.172 16.6367 131.871 16.918 132.414 17.4805C132.957 18.0391 133.229 18.8125 133.229 19.8008C133.229 20.6016 133.107 21.2324 132.865 21.6934C132.627 22.1504 132.277 22.5059 131.816 22.7598C131.359 23.0137 130.859 23.1406 130.316 23.1406C129.445 23.1406 128.74 22.8613 128.201 22.3027C127.666 21.7441 127.398 20.9395 127.398 19.8887ZM128.482 19.8887C128.482 20.6855 128.656 21.2832 129.004 21.6816C129.352 22.0762 129.789 22.2734 130.316 22.2734C130.84 22.2734 131.275 22.0742 131.623 21.6758C131.971 21.2773 132.145 20.6699 132.145 19.8535C132.145 19.084 131.969 18.502 131.617 18.1074C131.27 17.709 130.836 17.5098 130.316 17.5098C129.789 17.5098 129.352 17.707 129.004 18.1016C128.656 18.4961 128.482 19.0918 128.482 19.8887ZM138.549 23V22.0859C138.064 22.7891 137.406 23.1406 136.574 23.1406C136.207 23.1406 135.863 23.0703 135.543 22.9297C135.227 22.7891 134.99 22.6133 134.834 22.4023C134.682 22.1875 134.574 21.9258 134.512 21.6172C134.469 21.4102 134.447 21.082 134.447 20.6328V16.7773H135.502V20.2285C135.502 20.7793 135.523 21.1504 135.566 21.3418C135.633 21.6191 135.773 21.8379 135.988 21.998C136.203 22.1543 136.469 22.2324 136.785 22.2324C137.102 22.2324 137.398 22.1523 137.676 21.9922C137.953 21.8281 138.148 21.6074 138.262 21.3301C138.379 21.0488 138.438 20.6426 138.438 20.1113V16.7773H139.492V23H138.549ZM143.453 22.0566L143.605 22.9883C143.309 23.0508 143.043 23.082 142.809 23.082C142.426 23.082 142.129 23.0215 141.918 22.9004C141.707 22.7793 141.559 22.6211 141.473 22.4258C141.387 22.2266 141.344 21.8105 141.344 21.1777V17.5977H140.57V16.7773H141.344V15.2363L142.393 14.6035V16.7773H143.453V17.5977H142.393V21.2363C142.393 21.5371 142.41 21.7305 142.445 21.8164C142.484 21.9023 142.545 21.9707 142.627 22.0215C142.713 22.0723 142.834 22.0977 142.99 22.0977C143.107 22.0977 143.262 22.084 143.453 22.0566Z" fill="black"/>
<path d="M47.4 2.07846L101.4 33.2554L47.4 64.4323L47.4 2.07846Z" fill="#D9D9D9" stroke="black" stroke-width="2.4"/>
<circle cx="108.4" cy="33.2554" r="6" fill="#D9D9D9" stroke="black" stroke-width="2.4"/>
<path d="M50.8906 36.8554V28.2655H52.5781L56.0938 34.0019V28.2655H57.7051V36.8554H55.9648L52.502 31.2538V36.8554H50.8906ZM59.1523 33.6562C59.1523 33.1093 59.2871 32.58 59.5566 32.0683C59.8262 31.5565 60.207 31.1659 60.6992 30.8964C61.1953 30.6269 61.748 30.4921 62.3574 30.4921C63.2988 30.4921 64.0703 30.7987 64.6719 31.412C65.2734 32.0214 65.5742 32.7929 65.5742 33.7265C65.5742 34.6679 65.2695 35.4491 64.6602 36.0702C64.0547 36.6874 63.291 36.996 62.3691 36.996C61.7988 36.996 61.2539 36.8671 60.7344 36.6093C60.2188 36.3515 59.8262 35.9745 59.5566 35.4784C59.2871 34.9784 59.1523 34.371 59.1523 33.6562ZM60.8398 33.744C60.8398 34.3612 60.9863 34.8339 61.2793 35.162C61.5723 35.4901 61.9336 35.6542 62.3633 35.6542C62.793 35.6542 63.1523 35.4901 63.4414 35.162C63.7344 34.8339 63.8809 34.3573 63.8809 33.7323C63.8809 33.123 63.7344 32.6542 63.4414 32.3261C63.1523 31.998 62.793 31.8339 62.3633 31.8339C61.9336 31.8339 61.5723 31.998 61.2793 32.3261C60.9863 32.6542 60.8398 33.1269 60.8398 33.744ZM69.7227 30.6327V31.9452H68.5977V34.453C68.5977 34.9608 68.6074 35.2577 68.627 35.3437C68.6504 35.4257 68.6992 35.494 68.7734 35.5487C68.8516 35.6034 68.9453 35.6308 69.0547 35.6308C69.207 35.6308 69.4277 35.578 69.7168 35.4726L69.8574 36.7499C69.4746 36.914 69.041 36.996 68.5566 36.996C68.2598 36.996 67.9922 36.9472 67.7539 36.8495C67.5156 36.748 67.3398 36.619 67.2266 36.4628C67.1172 36.3026 67.041 36.0878 66.998 35.8183C66.9629 35.6269 66.9453 35.2401 66.9453 34.6581V31.9452H66.1895V30.6327H66.9453V29.3964L68.5977 28.4355V30.6327H69.7227Z" fill="black"/>
</svg>
