<svg width="115" height="56" viewBox="0 0 115 56" fill="none" xmlns="http://www.w3.org/2000/svg">
<line y1="27" x2="36" y2="27" stroke="black" stroke-width="2"/>
<path d="M5.79688 13.623V12.4102H6.85156V13.623H5.79688ZM5.79688 21V14.7773H6.85156V21H5.79688ZM8.46289 21V14.7773H9.41211V15.6621C9.86914 14.9785 10.5293 14.6367 11.3926 14.6367C11.7676 14.6367 12.1113 14.7051 12.4238 14.8418C12.7402 14.9746 12.9766 15.1504 13.1328 15.3691C13.2891 15.5879 13.3984 15.8477 13.4609 16.1484C13.5 16.3438 13.5195 16.6855 13.5195 17.1738V21H12.4648V17.2148C12.4648 16.7852 12.4238 16.4648 12.3418 16.2539C12.2598 16.0391 12.1133 15.8691 11.9023 15.7441C11.6953 15.6152 11.4512 15.5508 11.1699 15.5508C10.7207 15.5508 10.332 15.6934 10.0039 15.9785C9.67969 16.2637 9.51758 16.8047 9.51758 17.6016V21H8.46289Z" fill="black"/>
<line x1="93" y1="28" x2="113" y2="28" stroke="black" stroke-width="2"/>
<path d="M98.3984 19.8887C98.3984 18.7363 98.7188 17.8828 99.3594 17.3281C99.8945 16.8672 100.547 16.6367 101.316 16.6367C102.172 16.6367 102.871 16.918 103.414 17.4805C103.957 18.0391 104.229 18.8125 104.229 19.8008C104.229 20.6016 104.107 21.2324 103.865 21.6934C103.627 22.1504 103.277 22.5059 102.816 22.7598C102.359 23.0137 101.859 23.1406 101.316 23.1406C100.445 23.1406 99.7402 22.8613 99.2012 22.3027C98.666 21.7441 98.3984 20.9395 98.3984 19.8887ZM99.4824 19.8887C99.4824 20.6855 99.6562 21.2832 100.004 21.6816C100.352 22.0762 100.789 22.2734 101.316 22.2734C101.84 22.2734 102.275 22.0742 102.623 21.6758C102.971 21.2773 103.145 20.6699 103.145 19.8535C103.145 19.084 102.969 18.502 102.617 18.1074C102.27 17.709 101.836 17.5098 101.316 17.5098C100.789 17.5098 100.352 17.707 100.004 18.1016C99.6562 18.4961 99.4824 19.0918 99.4824 19.8887ZM109.549 23V22.0859C109.064 22.7891 108.406 23.1406 107.574 23.1406C107.207 23.1406 106.863 23.0703 106.543 22.9297C106.227 22.7891 105.99 22.6133 105.834 22.4023C105.682 22.1875 105.574 21.9258 105.512 21.6172C105.469 21.4102 105.447 21.082 105.447 20.6328V16.7773H106.502V20.2285C106.502 20.7793 106.523 21.1504 106.566 21.3418C106.633 21.6191 106.773 21.8379 106.988 21.998C107.203 22.1543 107.469 22.2324 107.785 22.2324C108.102 22.2324 108.398 22.1523 108.676 21.9922C108.953 21.8281 109.148 21.6074 109.262 21.3301C109.379 21.0488 109.438 20.6426 109.438 20.1113V16.7773H110.492V23H109.549ZM114.453 22.0566L114.605 22.9883C114.309 23.0508 114.043 23.082 113.809 23.082C113.426 23.082 113.129 23.0215 112.918 22.9004C112.707 22.7793 112.559 22.6211 112.473 22.4258C112.387 22.2266 112.344 21.8105 112.344 21.1777V17.5977H111.57V16.7773H112.344V15.2363L113.393 14.6035V16.7773H114.453V17.5977H113.393V21.2363C113.393 21.5371 113.41 21.7305 113.445 21.8164C113.484 21.9023 113.545 21.9707 113.627 22.0215C113.713 22.0723 113.834 22.0977 113.99 22.0977C114.107 22.0977 114.262 22.084 114.453 22.0566Z" fill="black"/>
<path d="M37 2.01924L82 28L37 53.9808L37 2.01924Z" stroke="black" stroke-width="2"/>
<circle cx="89" cy="28" r="5" stroke="black" stroke-width="2"/>
</svg>
