<svg width="164" height="67" viewBox="0 0 164 67" fill="none" xmlns="http://www.w3.org/2000/svg">
<line x1="106" y1="32.8" x2="164" y2="32.8" stroke="black" stroke-width="2.4"/>
<path d="M7.79688 17.623V16.4102H8.85156V17.623H7.79688ZM7.79688 25V18.7773H8.85156V25H7.79688ZM10.4629 25V18.7773H11.4121V19.6621C11.8691 18.9785 12.5293 18.6367 13.3926 18.6367C13.7676 18.6367 14.1113 18.7051 14.4238 18.8418C14.7402 18.9746 14.9766 19.1504 15.1328 19.3691C15.2891 19.5879 15.3984 19.8477 15.4609 20.1484C15.5 20.3438 15.5195 20.6855 15.5195 21.1738V25H14.4648V21.2148C14.4648 20.7852 14.4238 20.4648 14.3418 20.2539C14.2598 20.0391 14.1133 19.8691 13.9023 19.7441C13.6953 19.6152 13.4512 19.5508 13.1699 19.5508C12.7207 19.5508 12.332 19.6934 12.0039 19.9785C11.6797 20.2637 11.5176 20.8047 11.5176 21.6016V25H10.4629Z" fill="black"/>
<line y1="32.8" x2="47" y2="32.8" stroke="black" stroke-width="2.4"/>
<path d="M141.398 19.8887C141.398 18.7363 141.719 17.8828 142.359 17.3281C142.895 16.8672 143.547 16.6367 144.316 16.6367C145.172 16.6367 145.871 16.918 146.414 17.4805C146.957 18.0391 147.229 18.8125 147.229 19.8008C147.229 20.6016 147.107 21.2324 146.865 21.6934C146.627 22.1504 146.277 22.5059 145.816 22.7598C145.359 23.0137 144.859 23.1406 144.316 23.1406C143.445 23.1406 142.74 22.8613 142.201 22.3027C141.666 21.7441 141.398 20.9395 141.398 19.8887ZM142.482 19.8887C142.482 20.6855 142.656 21.2832 143.004 21.6816C143.352 22.0762 143.789 22.2734 144.316 22.2734C144.84 22.2734 145.275 22.0742 145.623 21.6758C145.971 21.2773 146.145 20.6699 146.145 19.8535C146.145 19.084 145.969 18.502 145.617 18.1074C145.27 17.709 144.836 17.5098 144.316 17.5098C143.789 17.5098 143.352 17.707 143.004 18.1016C142.656 18.4961 142.482 19.0918 142.482 19.8887ZM152.549 23V22.0859C152.064 22.7891 151.406 23.1406 150.574 23.1406C150.207 23.1406 149.863 23.0703 149.543 22.9297C149.227 22.7891 148.99 22.6133 148.834 22.4023C148.682 22.1875 148.574 21.9258 148.512 21.6172C148.469 21.4102 148.447 21.082 148.447 20.6328V16.7773H149.502V20.2285C149.502 20.7793 149.523 21.1504 149.566 21.3418C149.633 21.6191 149.773 21.8379 149.988 21.998C150.203 22.1543 150.469 22.2324 150.785 22.2324C151.102 22.2324 151.398 22.1523 151.676 21.9922C151.953 21.8281 152.148 21.6074 152.262 21.3301C152.379 21.0488 152.438 20.6426 152.438 20.1113V16.7773H153.492V23H152.549ZM157.453 22.0566L157.605 22.9883C157.309 23.0508 157.043 23.082 156.809 23.082C156.426 23.082 156.129 23.0215 155.918 22.9004C155.707 22.7793 155.559 22.6211 155.473 22.4258C155.387 22.2266 155.344 21.8105 155.344 21.1777V17.5977H154.57V16.7773H155.344V15.2363L156.393 14.6035V16.7773H157.453V17.5977H156.393V21.2363C156.393 21.5371 156.41 21.7305 156.445 21.8164C156.484 21.9023 156.545 21.9707 156.627 22.0215C156.713 22.0723 156.834 22.0977 156.99 22.0977C157.107 22.0977 157.262 22.084 157.453 22.0566Z" fill="black"/>
<path d="M47.4 2.07846L101.4 33.2554L47.4 64.4323L47.4 2.07846Z" fill="#D9D9D9" stroke="black" stroke-width="2.4"/>
<circle cx="108.4" cy="33.2554" r="6" fill="#D9D9D9" stroke="black" stroke-width="2.4"/>
<path d="M50.8906 36.8554V28.2655H52.5781L56.0938 34.0019V28.2655H57.7051V36.8554H55.9648L52.502 31.2538V36.8554H50.8906ZM59.1523 33.6562C59.1523 33.1093 59.2871 32.58 59.5566 32.0683C59.8262 31.5565 60.207 31.1659 60.6992 30.8964C61.1953 30.6269 61.748 30.4921 62.3574 30.4921C63.2988 30.4921 64.0703 30.7987 64.6719 31.412C65.2734 32.0214 65.5742 32.7929 65.5742 33.7265C65.5742 34.6679 65.2695 35.4491 64.6602 36.0702C64.0547 36.6874 63.291 36.996 62.3691 36.996C61.7988 36.996 61.2539 36.8671 60.7344 36.6093C60.2188 36.3515 59.8262 35.9745 59.5566 35.4784C59.2871 34.9784 59.1523 34.371 59.1523 33.6562ZM60.8398 33.744C60.8398 34.3612 60.9863 34.8339 61.2793 35.162C61.5723 35.4901 61.9336 35.6542 62.3633 35.6542C62.793 35.6542 63.1523 35.4901 63.4414 35.162C63.7344 34.8339 63.8809 34.3573 63.8809 33.7323C63.8809 33.123 63.7344 32.6542 63.4414 32.3261C63.1523 31.998 62.793 31.8339 62.3633 31.8339C61.9336 31.8339 61.5723 31.998 61.2793 32.3261C60.9863 32.6542 60.8398 33.1269 60.8398 33.744ZM69.7227 30.6327V31.9452H68.5977V34.453C68.5977 34.9608 68.6074 35.2577 68.627 35.3437C68.6504 35.4257 68.6992 35.494 68.7734 35.5487C68.8516 35.6034 68.9453 35.6308 69.0547 35.6308C69.207 35.6308 69.4277 35.578 69.7168 35.4726L69.8574 36.7499C69.4746 36.914 69.041 36.996 68.5566 36.996C68.2598 36.996 67.9922 36.9472 67.7539 36.8495C67.5156 36.748 67.3398 36.619 67.2266 36.4628C67.1172 36.3026 67.041 36.0878 66.998 35.8183C66.9629 35.6269 66.9453 35.2401 66.9453 34.6581V31.9452H66.1895V30.6327H66.9453V29.3964L68.5977 28.4355V30.6327H69.7227ZM74.7266 36.8554H73.0801V30.6503C72.4785 31.2128 71.7695 31.6288 70.9531 31.8983V30.4042C71.3828 30.2636 71.8496 29.998 72.3535 29.6073C72.8574 29.2128 73.2031 28.7538 73.3906 28.2304H74.7266V36.8554ZM82.7715 30.369L81.1777 30.5448C81.1387 30.2167 81.0371 29.9745 80.873 29.8183C80.709 29.662 80.4961 29.5839 80.2344 29.5839C79.8867 29.5839 79.5918 29.7401 79.3496 30.0526C79.1113 30.3651 78.9609 31.0155 78.8984 32.0038C79.3086 31.5194 79.8184 31.2773 80.4277 31.2773C81.1152 31.2773 81.7031 31.539 82.1914 32.0624C82.6836 32.5858 82.9297 33.2616 82.9297 34.0898C82.9297 34.9687 82.6719 35.6737 82.1562 36.205C81.6406 36.7362 80.9785 37.0019 80.1699 37.0019C79.3027 37.0019 78.5898 36.6659 78.0312 35.994C77.4727 35.3183 77.1934 34.2128 77.1934 32.6776C77.1934 31.1034 77.4844 29.9687 78.0664 29.2733C78.6484 28.578 79.4043 28.2304 80.334 28.2304C80.9863 28.2304 81.5254 28.414 81.9512 28.7812C82.3809 29.1444 82.6543 29.6737 82.7715 30.369ZM79.0391 33.9608C79.0391 34.496 79.1621 34.9101 79.4082 35.203C79.6543 35.4921 79.9355 35.6366 80.252 35.6366C80.5566 35.6366 80.8105 35.5175 81.0137 35.2792C81.2168 35.0409 81.3184 34.6503 81.3184 34.1073C81.3184 33.5487 81.209 33.1405 80.9902 32.8827C80.7715 32.621 80.498 32.4901 80.1699 32.4901C79.8535 32.4901 79.5859 32.6151 79.3672 32.8651C79.1484 33.1112 79.0391 33.4765 79.0391 33.9608Z" fill="black"/>
<line x1="41.3536" y1="23.3536" x2="23.3536" y2="41.3536" stroke="black"/>
<line x1="139.354" y1="24.3536" x2="121.354" y2="42.3536" stroke="black"/>
<path d="M24.4707 52H23.416V45.2793C23.1621 45.5215 22.8281 45.7637 22.4141 46.0059C22.0039 46.248 21.6348 46.4297 21.3066 46.5508V45.5312C21.8965 45.2539 22.4121 44.918 22.8535 44.5234C23.2949 44.1289 23.6074 43.7461 23.791 43.375H24.4707V52ZM32.6504 45.5137L31.6016 45.5957C31.5078 45.1816 31.375 44.8809 31.2031 44.6934C30.918 44.3926 30.5664 44.2422 30.1484 44.2422C29.8125 44.2422 29.5176 44.3359 29.2637 44.5234C28.9316 44.7656 28.6699 45.1191 28.4785 45.584C28.2871 46.0488 28.1875 46.7109 28.1797 47.5703C28.4336 47.1836 28.7441 46.8965 29.1113 46.709C29.4785 46.5215 29.8633 46.4277 30.2656 46.4277C30.9688 46.4277 31.5664 46.6875 32.0586 47.207C32.5547 47.7227 32.8027 48.3906 32.8027 49.2109C32.8027 49.75 32.6855 50.252 32.4512 50.7168C32.2207 51.1777 31.9023 51.5312 31.4961 51.7773C31.0898 52.0234 30.6289 52.1465 30.1133 52.1465C29.2344 52.1465 28.5176 51.8242 27.9629 51.1797C27.4082 50.5312 27.1309 49.4648 27.1309 47.9805C27.1309 46.3203 27.4375 45.1133 28.0508 44.3594C28.5859 43.7031 29.3066 43.375 30.2129 43.375C30.8887 43.375 31.4414 43.5645 31.8711 43.9434C32.3047 44.3223 32.5645 44.8457 32.6504 45.5137ZM28.3438 49.2168C28.3438 49.5801 28.4199 49.9277 28.5723 50.2598C28.7285 50.5918 28.9453 50.8457 29.2227 51.0215C29.5 51.1934 29.791 51.2793 30.0957 51.2793C30.541 51.2793 30.9238 51.0996 31.2441 50.7402C31.5645 50.3809 31.7246 49.8926 31.7246 49.2754C31.7246 48.6816 31.5664 48.2148 31.25 47.875C30.9336 47.5312 30.5352 47.3594 30.0547 47.3594C29.5781 47.3594 29.1738 47.5312 28.8418 47.875C28.5098 48.2148 28.3438 48.6621 28.3438 49.2168Z" fill="black"/>
<path d="M122.471 53H121.416V46.2793C121.162 46.5215 120.828 46.7637 120.414 47.0059C120.004 47.248 119.635 47.4297 119.307 47.5508V46.5312C119.896 46.2539 120.412 45.918 120.854 45.5234C121.295 45.1289 121.607 44.7461 121.791 44.375H122.471V53ZM130.65 46.5137L129.602 46.5957C129.508 46.1816 129.375 45.8809 129.203 45.6934C128.918 45.3926 128.566 45.2422 128.148 45.2422C127.812 45.2422 127.518 45.3359 127.264 45.5234C126.932 45.7656 126.67 46.1191 126.479 46.584C126.287 47.0488 126.188 47.7109 126.18 48.5703C126.434 48.1836 126.744 47.8965 127.111 47.709C127.479 47.5215 127.863 47.4277 128.266 47.4277C128.969 47.4277 129.566 47.6875 130.059 48.207C130.555 48.7227 130.803 49.3906 130.803 50.2109C130.803 50.75 130.686 51.252 130.451 51.7168C130.221 52.1777 129.902 52.5312 129.496 52.7773C129.09 53.0234 128.629 53.1465 128.113 53.1465C127.234 53.1465 126.518 52.8242 125.963 52.1797C125.408 51.5312 125.131 50.4648 125.131 48.9805C125.131 47.3203 125.438 46.1133 126.051 45.3594C126.586 44.7031 127.307 44.375 128.213 44.375C128.889 44.375 129.441 44.5645 129.871 44.9434C130.305 45.3223 130.564 45.8457 130.65 46.5137ZM126.344 50.2168C126.344 50.5801 126.42 50.9277 126.572 51.2598C126.729 51.5918 126.945 51.8457 127.223 52.0215C127.5 52.1934 127.791 52.2793 128.096 52.2793C128.541 52.2793 128.924 52.0996 129.244 51.7402C129.564 51.3809 129.725 50.8926 129.725 50.2754C129.725 49.6816 129.566 49.2148 129.25 48.875C128.934 48.5312 128.535 48.3594 128.055 48.3594C127.578 48.3594 127.174 48.5312 126.842 48.875C126.51 49.2148 126.344 49.6621 126.344 50.2168Z" fill="black"/>
</svg>
