<svg width="146" height="67" viewBox="0 0 146 67" fill="none" xmlns="http://www.w3.org/2000/svg">
<line x1="114" y1="32.8" x2="146" y2="32.8" stroke="black" stroke-width="2.4"/>
<path d="M7.79688 17.623V16.4102H8.85156V17.623H7.79688ZM7.79688 25V18.7773H8.85156V25H7.79688ZM10.4629 25V18.7773H11.4121V19.6621C11.8691 18.9785 12.5293 18.6367 13.3926 18.6367C13.7676 18.6367 14.1113 18.7051 14.4238 18.8418C14.7402 18.9746 14.9766 19.1504 15.1328 19.3691C15.2891 19.5879 15.3984 19.8477 15.4609 20.1484C15.5 20.3438 15.5195 20.6855 15.5195 21.1738V25H14.4648V21.2148C14.4648 20.7852 14.4238 20.4648 14.3418 20.2539C14.2598 20.0391 14.1133 19.8691 13.9023 19.7441C13.6953 19.6152 13.4512 19.5508 13.1699 19.5508C12.7207 19.5508 12.332 19.6934 12.0039 19.9785C11.6797 20.2637 11.5176 20.8047 11.5176 21.6016V25H10.4629Z" fill="black"/>
<line y1="32.8" x2="47" y2="32.8" stroke="black" stroke-width="2.4"/>
<path d="M127.398 19.8887C127.398 18.7363 127.719 17.8828 128.359 17.3281C128.895 16.8672 129.547 16.6367 130.316 16.6367C131.172 16.6367 131.871 16.918 132.414 17.4805C132.957 18.0391 133.229 18.8125 133.229 19.8008C133.229 20.6016 133.107 21.2324 132.865 21.6934C132.627 22.1504 132.277 22.5059 131.816 22.7598C131.359 23.0137 130.859 23.1406 130.316 23.1406C129.445 23.1406 128.74 22.8613 128.201 22.3027C127.666 21.7441 127.398 20.9395 127.398 19.8887ZM128.482 19.8887C128.482 20.6855 128.656 21.2832 129.004 21.6816C129.352 22.0762 129.789 22.2734 130.316 22.2734C130.84 22.2734 131.275 22.0742 131.623 21.6758C131.971 21.2773 132.145 20.6699 132.145 19.8535C132.145 19.084 131.969 18.502 131.617 18.1074C131.27 17.709 130.836 17.5098 130.316 17.5098C129.789 17.5098 129.352 17.707 129.004 18.1016C128.656 18.4961 128.482 19.0918 128.482 19.8887ZM138.549 23V22.0859C138.064 22.7891 137.406 23.1406 136.574 23.1406C136.207 23.1406 135.863 23.0703 135.543 22.9297C135.227 22.7891 134.99 22.6133 134.834 22.4023C134.682 22.1875 134.574 21.9258 134.512 21.6172C134.469 21.4102 134.447 21.082 134.447 20.6328V16.7773H135.502V20.2285C135.502 20.7793 135.523 21.1504 135.566 21.3418C135.633 21.6191 135.773 21.8379 135.988 21.998C136.203 22.1543 136.469 22.2324 136.785 22.2324C137.102 22.2324 137.398 22.1523 137.676 21.9922C137.953 21.8281 138.148 21.6074 138.262 21.3301C138.379 21.0488 138.438 20.6426 138.438 20.1113V16.7773H139.492V23H138.549ZM143.453 22.0566L143.605 22.9883C143.309 23.0508 143.043 23.082 142.809 23.082C142.426 23.082 142.129 23.0215 141.918 22.9004C141.707 22.7793 141.559 22.6211 141.473 22.4258C141.387 22.2266 141.344 21.8105 141.344 21.1777V17.5977H140.57V16.7773H141.344V15.2363L142.393 14.6035V16.7773H143.453V17.5977H142.393V21.2363C142.393 21.5371 142.41 21.7305 142.445 21.8164C142.484 21.9023 142.545 21.9707 142.627 22.0215C142.713 22.0723 142.834 22.0977 142.99 22.0977C143.107 22.0977 143.262 22.084 143.453 22.0566Z" fill="black"/>
<path d="M47.4001 2.07846L101.4 33.2554L47.4 64.4323L47.4001 2.07846Z" stroke="black" stroke-width="2.4"/>
<circle cx="108.4" cy="33.2554" r="6" stroke="black" stroke-width="2.4"/>
<path d="M50.8906 36.8554V28.2655H52.5781L56.0938 34.0019V28.2655H57.7051V36.8554H55.9648L52.502 31.2538V36.8554H50.8906ZM59.1934 32.6132C59.1934 31.7382 59.3242 31.0038 59.5859 30.4101C59.7812 29.9726 60.0469 29.58 60.3828 29.2323C60.7227 28.8847 61.0938 28.6269 61.4961 28.4589C62.0312 28.2323 62.6484 28.119 63.3477 28.119C64.6133 28.119 65.625 28.5116 66.3828 29.2968C67.1445 30.0819 67.5254 31.1737 67.5254 32.5722C67.5254 33.9589 67.1484 35.0448 66.3945 35.83C65.6406 36.6112 64.6328 37.0019 63.3711 37.0019C62.0938 37.0019 61.0781 36.6132 60.3242 35.8358C59.5703 35.0546 59.1934 33.9804 59.1934 32.6132ZM60.9805 32.5546C60.9805 33.5273 61.2051 34.2655 61.6543 34.7694C62.1035 35.2694 62.6738 35.5194 63.3652 35.5194C64.0566 35.5194 64.623 35.2714 65.0645 34.7753C65.5098 34.2753 65.7324 33.5273 65.7324 32.5312C65.7324 31.5468 65.5156 30.8124 65.082 30.328C64.6523 29.8437 64.0801 29.6015 63.3652 29.6015C62.6504 29.6015 62.0742 29.8476 61.6367 30.3398C61.1992 30.828 60.9805 31.5663 60.9805 32.5546ZM70.8184 36.8554V29.7187H68.2695V28.2655H75.0957V29.7187H72.5527V36.8554H70.8184ZM80.0703 36.8554H78.4238V30.6503C77.8223 31.2128 77.1133 31.6288 76.2969 31.8983V30.4042C76.7266 30.2636 77.1934 29.998 77.6973 29.6073C78.2012 29.2128 78.5469 28.7538 78.7344 28.2304H80.0703V36.8554ZM88.1152 30.369L86.5215 30.5448C86.4824 30.2167 86.3809 29.9745 86.2168 29.8183C86.0527 29.662 85.8398 29.5839 85.5781 29.5839C85.2305 29.5839 84.9355 29.7401 84.6934 30.0526C84.4551 30.3651 84.3047 31.0155 84.2422 32.0038C84.6523 31.5194 85.1621 31.2773 85.7715 31.2773C86.459 31.2773 87.0469 31.539 87.5352 32.0624C88.0273 32.5858 88.2734 33.2616 88.2734 34.0898C88.2734 34.9687 88.0156 35.6737 87.5 36.205C86.9844 36.7362 86.3223 37.0019 85.5137 37.0019C84.6465 37.0019 83.9336 36.6659 83.375 35.994C82.8164 35.3183 82.5371 34.2128 82.5371 32.6776C82.5371 31.1034 82.8281 29.9687 83.4102 29.2733C83.9922 28.578 84.748 28.2304 85.6777 28.2304C86.3301 28.2304 86.8691 28.414 87.2949 28.7812C87.7246 29.1444 87.998 29.6737 88.1152 30.369ZM84.3828 33.9608C84.3828 34.496 84.5059 34.9101 84.752 35.203C84.998 35.4921 85.2793 35.6366 85.5957 35.6366C85.9004 35.6366 86.1543 35.5175 86.3574 35.2792C86.5605 35.0409 86.6621 34.6503 86.6621 34.1073C86.6621 33.5487 86.5527 33.1405 86.334 32.8827C86.1152 32.621 85.8418 32.4901 85.5137 32.4901C85.1973 32.4901 84.9297 32.6151 84.7109 32.8651C84.4922 33.1112 84.3828 33.4765 84.3828 33.9608Z" fill="black"/>
<line x1="41.3536" y1="23.3536" x2="23.3536" y2="41.3536" stroke="black"/>
<line x1="133.354" y1="24.3536" x2="115.354" y2="42.3536" stroke="black"/>
<path d="M23.4707 52H22.416V45.2793C22.1621 45.5215 21.8281 45.7637 21.4141 46.0059C21.0039 46.248 20.6348 46.4297 20.3066 46.5508V45.5312C20.8965 45.2539 21.4121 44.918 21.8535 44.5234C22.2949 44.1289 22.6074 43.7461 22.791 43.375H23.4707V52ZM31.6504 45.5137L30.6016 45.5957C30.5078 45.1816 30.375 44.8809 30.2031 44.6934C29.918 44.3926 29.5664 44.2422 29.1484 44.2422C28.8125 44.2422 28.5176 44.3359 28.2637 44.5234C27.9316 44.7656 27.6699 45.1191 27.4785 45.584C27.2871 46.0488 27.1875 46.7109 27.1797 47.5703C27.4336 47.1836 27.7441 46.8965 28.1113 46.709C28.4785 46.5215 28.8633 46.4277 29.2656 46.4277C29.9688 46.4277 30.5664 46.6875 31.0586 47.207C31.5547 47.7227 31.8027 48.3906 31.8027 49.2109C31.8027 49.75 31.6855 50.252 31.4512 50.7168C31.2207 51.1777 30.9023 51.5312 30.4961 51.7773C30.0898 52.0234 29.6289 52.1465 29.1133 52.1465C28.2344 52.1465 27.5176 51.8242 26.9629 51.1797C26.4082 50.5312 26.1309 49.4648 26.1309 47.9805C26.1309 46.3203 26.4375 45.1133 27.0508 44.3594C27.5859 43.7031 28.3066 43.375 29.2129 43.375C29.8887 43.375 30.4414 43.5645 30.8711 43.9434C31.3047 44.3223 31.5645 44.8457 31.6504 45.5137ZM27.3438 49.2168C27.3438 49.5801 27.4199 49.9277 27.5723 50.2598C27.7285 50.5918 27.9453 50.8457 28.2227 51.0215C28.5 51.1934 28.791 51.2793 29.0957 51.2793C29.541 51.2793 29.9238 51.0996 30.2441 50.7402C30.5645 50.3809 30.7246 49.8926 30.7246 49.2754C30.7246 48.6816 30.5664 48.2148 30.25 47.875C29.9336 47.5312 29.5352 47.3594 29.0547 47.3594C28.5781 47.3594 28.1738 47.5312 27.8418 47.875C27.5098 48.2148 27.3438 48.6621 27.3438 49.2168Z" fill="black"/>
<path d="M115.471 53H114.416V46.2793C114.162 46.5215 113.828 46.7637 113.414 47.0059C113.004 47.248 112.635 47.4297 112.307 47.5508V46.5312C112.896 46.2539 113.412 45.918 113.854 45.5234C114.295 45.1289 114.607 44.7461 114.791 44.375H115.471V53ZM123.65 46.5137L122.602 46.5957C122.508 46.1816 122.375 45.8809 122.203 45.6934C121.918 45.3926 121.566 45.2422 121.148 45.2422C120.812 45.2422 120.518 45.3359 120.264 45.5234C119.932 45.7656 119.67 46.1191 119.479 46.584C119.287 47.0488 119.188 47.7109 119.18 48.5703C119.434 48.1836 119.744 47.8965 120.111 47.709C120.479 47.5215 120.863 47.4277 121.266 47.4277C121.969 47.4277 122.566 47.6875 123.059 48.207C123.555 48.7227 123.803 49.3906 123.803 50.2109C123.803 50.75 123.686 51.252 123.451 51.7168C123.221 52.1777 122.902 52.5312 122.496 52.7773C122.09 53.0234 121.629 53.1465 121.113 53.1465C120.234 53.1465 119.518 52.8242 118.963 52.1797C118.408 51.5312 118.131 50.4648 118.131 48.9805C118.131 47.3203 118.438 46.1133 119.051 45.3594C119.586 44.7031 120.307 44.375 121.213 44.375C121.889 44.375 122.441 44.5645 122.871 44.9434C123.305 45.3223 123.564 45.8457 123.65 46.5137ZM119.344 50.2168C119.344 50.5801 119.42 50.9277 119.572 51.2598C119.729 51.5918 119.945 51.8457 120.223 52.0215C120.5 52.1934 120.791 52.2793 121.096 52.2793C121.541 52.2793 121.924 52.0996 122.244 51.7402C122.564 51.3809 122.725 50.8926 122.725 50.2754C122.725 49.6816 122.566 49.2148 122.25 48.875C121.934 48.5312 121.535 48.3594 121.055 48.3594C120.578 48.3594 120.174 48.5312 119.842 48.875C119.51 49.2148 119.344 49.6621 119.344 50.2168Z" fill="black"/>
</svg>
