<svg width="490" height="211" viewBox="0 0 490 211" fill="none" xmlns="http://www.w3.org/2000/svg">
<line x1="184" y1="98" x2="184" y2="67" stroke="#FF6B00" stroke-width="2"/>
<line x1="184" y1="164" x2="184" y2="126" stroke="#FF6B00" stroke-width="2"/>
<path d="M32.5215 6.75781C32.5215 5.88281 32.6523 5.14844 32.9141 4.55469C33.1094 4.11719 33.375 3.72461 33.7109 3.37695C34.0508 3.0293 34.4219 2.77148 34.8242 2.60352C35.3594 2.37695 35.9766 2.26367 36.6758 2.26367C37.9414 2.26367 38.9531 2.65625 39.7109 3.44141C40.4727 4.22656 40.8535 5.31836 40.8535 6.7168C40.8535 8.10352 40.4766 9.18945 39.7227 9.97461C38.9688 10.7559 37.9609 11.1465 36.6992 11.1465C35.4219 11.1465 34.4062 10.7578 33.6523 9.98047C32.8984 9.19922 32.5215 8.125 32.5215 6.75781ZM34.3086 6.69922C34.3086 7.67188 34.5332 8.41016 34.9824 8.91406C35.4316 9.41406 36.002 9.66406 36.6934 9.66406C37.3848 9.66406 37.9512 9.41602 38.3926 8.91992C38.8379 8.41992 39.0605 7.67188 39.0605 6.67578C39.0605 5.69141 38.8438 4.95703 38.4102 4.47266C37.9805 3.98828 37.4082 3.74609 36.6934 3.74609C35.9785 3.74609 35.4023 3.99219 34.9648 4.48438C34.5273 4.97266 34.3086 5.71094 34.3086 6.69922ZM43.7773 11H42.1309V4.77734H43.6602V5.66211C43.9219 5.24414 44.1562 4.96875 44.3633 4.83594C44.5742 4.70312 44.8125 4.63672 45.0781 4.63672C45.4531 4.63672 45.8145 4.74023 46.1621 4.94727L45.6523 6.38281C45.375 6.20312 45.1172 6.11328 44.8789 6.11328C44.6484 6.11328 44.4531 6.17773 44.293 6.30664C44.1328 6.43164 44.0059 6.66016 43.9121 6.99219C43.8223 7.32422 43.7773 8.01953 43.7773 9.07812V11Z" fill="black"/>
<path d="M466.398 101.889C466.398 100.736 466.719 99.8828 467.359 99.3281C467.895 98.8672 468.547 98.6367 469.316 98.6367C470.172 98.6367 470.871 98.918 471.414 99.4805C471.957 100.039 472.229 100.812 472.229 101.801C472.229 102.602 472.107 103.232 471.865 103.693C471.627 104.15 471.277 104.506 470.816 104.76C470.359 105.014 469.859 105.141 469.316 105.141C468.445 105.141 467.74 104.861 467.201 104.303C466.666 103.744 466.398 102.939 466.398 101.889ZM467.482 101.889C467.482 102.686 467.656 103.283 468.004 103.682C468.352 104.076 468.789 104.273 469.316 104.273C469.84 104.273 470.275 104.074 470.623 103.676C470.971 103.277 471.145 102.67 471.145 101.854C471.145 101.084 470.969 100.502 470.617 100.107C470.27 99.709 469.836 99.5098 469.316 99.5098C468.789 99.5098 468.352 99.707 468.004 100.102C467.656 100.496 467.482 101.092 467.482 101.889ZM477.549 105V104.086C477.064 104.789 476.406 105.141 475.574 105.141C475.207 105.141 474.863 105.07 474.543 104.93C474.227 104.789 473.99 104.613 473.834 104.402C473.682 104.188 473.574 103.926 473.512 103.617C473.469 103.41 473.447 103.082 473.447 102.633V98.7773H474.502V102.229C474.502 102.779 474.523 103.15 474.566 103.342C474.633 103.619 474.773 103.838 474.988 103.998C475.203 104.154 475.469 104.232 475.785 104.232C476.102 104.232 476.398 104.152 476.676 103.992C476.953 103.828 477.148 103.607 477.262 103.33C477.379 103.049 477.438 102.643 477.438 102.111V98.7773H478.492V105H477.549ZM482.453 104.057L482.605 104.988C482.309 105.051 482.043 105.082 481.809 105.082C481.426 105.082 481.129 105.021 480.918 104.9C480.707 104.779 480.559 104.621 480.473 104.426C480.387 104.227 480.344 103.811 480.344 103.178V99.5977H479.57V98.7773H480.344V97.2363L481.393 96.6035V98.7773H482.453V99.5977H481.393V103.236C481.393 103.537 481.41 103.73 481.445 103.816C481.484 103.902 481.545 103.971 481.627 104.021C481.713 104.072 481.834 104.098 481.99 104.098C482.107 104.098 482.262 104.084 482.453 104.057Z" fill="black"/>
<line x1="452" y1="112" x2="490" y2="112" stroke="#FF6B00" stroke-width="2"/>
<mask id="path-6-inside-1_80_1359" fill="white">
<path fill-rule="evenodd" clip-rule="evenodd" d="M259 87H207V137H259C272.807 137 284 125.807 284 112C284 98.1929 272.807 87 259 87Z"/>
</mask>
<path fill-rule="evenodd" clip-rule="evenodd" d="M259 87H207V137H259C272.807 137 284 125.807 284 112C284 98.1929 272.807 87 259 87Z" fill="#D9D9D9"/>
<path d="M207 87V85H205V87H207ZM207 137H205V139H207V137ZM207 89H259V85H207V89ZM209 137V87H205V137H209ZM259 135H207V139H259V135ZM282 112C282 124.703 271.703 135 259 135V139C273.912 139 286 126.912 286 112H282ZM259 89C271.703 89 282 99.2975 282 112H286C286 97.0883 273.912 85 259 85V89Z" fill="black" mask="url(#path-6-inside-1_80_1359)"/>
<line x1="185" y1="97" x2="207" y2="97" stroke="black" stroke-width="2"/>
<line x1="185" y1="127" x2="207" y2="127" stroke="black" stroke-width="2"/>
<line x1="284" y1="112" x2="306" y2="112" stroke="black" stroke-width="2"/>
<path d="M194.852 90.2324C194.461 90.5645 194.084 90.7988 193.721 90.9355C193.361 91.0723 192.975 91.1406 192.561 91.1406C191.877 91.1406 191.352 90.9746 190.984 90.6426C190.617 90.3066 190.434 89.8789 190.434 89.3594C190.434 89.0547 190.502 88.7773 190.639 88.5273C190.779 88.2734 190.961 88.0703 191.184 87.918C191.41 87.7656 191.664 87.6504 191.945 87.5723C192.152 87.5176 192.465 87.4648 192.883 87.4141C193.734 87.3125 194.361 87.1914 194.764 87.0508C194.768 86.9062 194.77 86.8145 194.77 86.7754C194.77 86.3457 194.67 86.043 194.471 85.8672C194.201 85.6289 193.801 85.5098 193.27 85.5098C192.773 85.5098 192.406 85.5977 192.168 85.7734C191.934 85.9453 191.76 86.252 191.646 86.6934L190.615 86.5527C190.709 86.1113 190.863 85.7559 191.078 85.4863C191.293 85.2129 191.604 85.0039 192.01 84.8594C192.416 84.7109 192.887 84.6367 193.422 84.6367C193.953 84.6367 194.385 84.6992 194.717 84.8242C195.049 84.9492 195.293 85.1074 195.449 85.2988C195.605 85.4863 195.715 85.7246 195.777 86.0137C195.812 86.1934 195.83 86.5176 195.83 86.9863V88.3926C195.83 89.373 195.852 89.9941 195.895 90.2559C195.941 90.5137 196.031 90.7617 196.164 91H195.062C194.953 90.7812 194.883 90.5254 194.852 90.2324ZM194.764 87.877C194.381 88.0332 193.807 88.166 193.041 88.2754C192.607 88.3379 192.301 88.4082 192.121 88.4863C191.941 88.5645 191.803 88.6797 191.705 88.832C191.607 88.9805 191.559 89.1465 191.559 89.3301C191.559 89.6113 191.664 89.8457 191.875 90.0332C192.09 90.2207 192.402 90.3145 192.812 90.3145C193.219 90.3145 193.58 90.2266 193.896 90.0508C194.213 89.8711 194.445 89.627 194.594 89.3184C194.707 89.0801 194.764 88.7285 194.764 88.2637V87.877Z" fill="black"/>
<path d="M238.619 117H236.732L235.982 115.049H232.549L231.84 117H230L233.346 108.41H235.18L238.619 117ZM235.426 113.602L234.242 110.414L233.082 113.602H235.426ZM245.193 117H243.547V113.824C243.547 113.152 243.512 112.719 243.441 112.523C243.371 112.324 243.256 112.17 243.096 112.061C242.939 111.951 242.75 111.896 242.527 111.896C242.242 111.896 241.986 111.975 241.76 112.131C241.533 112.287 241.377 112.494 241.291 112.752C241.209 113.01 241.168 113.486 241.168 114.182V117H239.521V110.777H241.051V111.691C241.594 110.988 242.277 110.637 243.102 110.637C243.465 110.637 243.797 110.703 244.098 110.836C244.398 110.965 244.625 111.131 244.777 111.334C244.934 111.537 245.041 111.768 245.1 112.025C245.162 112.283 245.193 112.652 245.193 113.133V117ZM252.576 117H251.047V116.086C250.793 116.441 250.492 116.707 250.145 116.883C249.801 117.055 249.453 117.141 249.102 117.141C248.387 117.141 247.773 116.854 247.262 116.279C246.754 115.701 246.5 114.896 246.5 113.865C246.5 112.811 246.748 112.01 247.244 111.463C247.74 110.912 248.367 110.637 249.125 110.637C249.82 110.637 250.422 110.926 250.93 111.504V108.41H252.576V117ZM248.182 113.754C248.182 114.418 248.273 114.898 248.457 115.195C248.723 115.625 249.094 115.84 249.57 115.84C249.949 115.84 250.271 115.68 250.537 115.359C250.803 115.035 250.936 114.553 250.936 113.912C250.936 113.197 250.807 112.684 250.549 112.371C250.291 112.055 249.961 111.896 249.559 111.896C249.168 111.896 248.84 112.053 248.574 112.365C248.312 112.674 248.182 113.137 248.182 113.754Z" fill="black"/>
<path d="M191.764 123H190.785V114.41H191.84V117.475C192.285 116.916 192.854 116.637 193.545 116.637C193.928 116.637 194.289 116.715 194.629 116.871C194.973 117.023 195.254 117.24 195.473 117.521C195.695 117.799 195.869 118.135 195.994 118.529C196.119 118.924 196.182 119.346 196.182 119.795C196.182 120.861 195.918 121.686 195.391 122.268C194.863 122.85 194.23 123.141 193.492 123.141C192.758 123.141 192.182 122.834 191.764 122.221V123ZM191.752 119.842C191.752 120.588 191.854 121.127 192.057 121.459C192.389 122.002 192.838 122.273 193.404 122.273C193.865 122.273 194.264 122.074 194.6 121.676C194.936 121.273 195.104 120.676 195.104 119.883C195.104 119.07 194.941 118.471 194.617 118.084C194.297 117.697 193.908 117.504 193.451 117.504C192.99 117.504 192.592 117.705 192.256 118.107C191.92 118.506 191.752 119.084 191.752 119.842Z" fill="black"/>
<path d="M288.398 103.889C288.398 102.736 288.719 101.883 289.359 101.328C289.895 100.867 290.547 100.637 291.316 100.637C292.172 100.637 292.871 100.918 293.414 101.48C293.957 102.039 294.229 102.812 294.229 103.801C294.229 104.602 294.107 105.232 293.865 105.693C293.627 106.15 293.277 106.506 292.816 106.76C292.359 107.014 291.859 107.141 291.316 107.141C290.445 107.141 289.74 106.861 289.201 106.303C288.666 105.744 288.398 104.939 288.398 103.889ZM289.482 103.889C289.482 104.686 289.656 105.283 290.004 105.682C290.352 106.076 290.789 106.273 291.316 106.273C291.84 106.273 292.275 106.074 292.623 105.676C292.971 105.277 293.145 104.67 293.145 103.854C293.145 103.084 292.969 102.502 292.617 102.107C292.27 101.709 291.836 101.51 291.316 101.51C290.789 101.51 290.352 101.707 290.004 102.102C289.656 102.496 289.482 103.092 289.482 103.889ZM299.549 107V106.086C299.064 106.789 298.406 107.141 297.574 107.141C297.207 107.141 296.863 107.07 296.543 106.93C296.227 106.789 295.99 106.613 295.834 106.402C295.682 106.188 295.574 105.926 295.512 105.617C295.469 105.41 295.447 105.082 295.447 104.633V100.777H296.502V104.229C296.502 104.779 296.523 105.15 296.566 105.342C296.633 105.619 296.773 105.838 296.988 105.998C297.203 106.154 297.469 106.232 297.785 106.232C298.102 106.232 298.398 106.152 298.676 105.992C298.953 105.828 299.148 105.607 299.262 105.33C299.379 105.049 299.438 104.643 299.438 104.111V100.777H300.492V107H299.549ZM304.453 106.057L304.605 106.988C304.309 107.051 304.043 107.082 303.809 107.082C303.426 107.082 303.129 107.021 302.918 106.9C302.707 106.779 302.559 106.621 302.473 106.426C302.387 106.227 302.344 105.811 302.344 105.178V101.598H301.57V100.777H302.344V99.2363L303.393 98.6035V100.777H304.453V101.598H303.393V105.236C303.393 105.537 303.41 105.73 303.445 105.816C303.484 105.902 303.545 105.971 303.627 106.021C303.713 106.072 303.834 106.098 303.99 106.098C304.107 106.098 304.262 106.084 304.453 106.057Z" fill="black"/>
<line x1="144" y1="66.8" x2="184" y2="66.8" stroke="black" stroke-width="2.4"/>
<path d="M45.7969 51.623V50.4102H46.8516V51.623H45.7969ZM45.7969 59V52.7773H46.8516V59H45.7969ZM48.4629 59V52.7773H49.4121V53.6621C49.8691 52.9785 50.5293 52.6367 51.3926 52.6367C51.7676 52.6367 52.1113 52.7051 52.4238 52.8418C52.7402 52.9746 52.9766 53.1504 53.1328 53.3691C53.2891 53.5879 53.3984 53.8477 53.4609 54.1484C53.5 54.3438 53.5195 54.6855 53.5195 55.1738V59H52.4648V55.2148C52.4648 54.7852 52.4238 54.4648 52.3418 54.2539C52.2598 54.0391 52.1133 53.8691 51.9023 53.7441C51.6953 53.6152 51.4512 53.5508 51.1699 53.5508C50.7207 53.5508 50.332 53.6934 50.0039 53.9785C49.6797 54.2637 49.5176 54.8047 49.5176 55.6016V59H48.4629Z" fill="black"/>
<line x1="38" y1="66.8" x2="85" y2="66.8" stroke="black" stroke-width="2.4"/>
<path d="M165.398 53.8887C165.398 52.7363 165.719 51.8828 166.359 51.3281C166.895 50.8672 167.547 50.6367 168.316 50.6367C169.172 50.6367 169.871 50.918 170.414 51.4805C170.957 52.0391 171.229 52.8125 171.229 53.8008C171.229 54.6016 171.107 55.2324 170.865 55.6934C170.627 56.1504 170.277 56.5059 169.816 56.7598C169.359 57.0137 168.859 57.1406 168.316 57.1406C167.445 57.1406 166.74 56.8613 166.201 56.3027C165.666 55.7441 165.398 54.9395 165.398 53.8887ZM166.482 53.8887C166.482 54.6855 166.656 55.2832 167.004 55.6816C167.352 56.0762 167.789 56.2734 168.316 56.2734C168.84 56.2734 169.275 56.0742 169.623 55.6758C169.971 55.2773 170.145 54.6699 170.145 53.8535C170.145 53.084 169.969 52.502 169.617 52.1074C169.27 51.709 168.836 51.5098 168.316 51.5098C167.789 51.5098 167.352 51.707 167.004 52.1016C166.656 52.4961 166.482 53.0918 166.482 53.8887ZM176.549 57V56.0859C176.064 56.7891 175.406 57.1406 174.574 57.1406C174.207 57.1406 173.863 57.0703 173.543 56.9297C173.227 56.7891 172.99 56.6133 172.834 56.4023C172.682 56.1875 172.574 55.9258 172.512 55.6172C172.469 55.4102 172.447 55.082 172.447 54.6328V50.7773H173.502V54.2285C173.502 54.7793 173.523 55.1504 173.566 55.3418C173.633 55.6191 173.773 55.8379 173.988 55.998C174.203 56.1543 174.469 56.2324 174.785 56.2324C175.102 56.2324 175.398 56.1523 175.676 55.9922C175.953 55.8281 176.148 55.6074 176.262 55.3301C176.379 55.0488 176.438 54.6426 176.438 54.1113V50.7773H177.492V57H176.549ZM181.453 56.0566L181.605 56.9883C181.309 57.0508 181.043 57.082 180.809 57.082C180.426 57.082 180.129 57.0215 179.918 56.9004C179.707 56.7793 179.559 56.6211 179.473 56.4258C179.387 56.2266 179.344 55.8105 179.344 55.1777V51.5977H178.57V50.7773H179.344V49.2363L180.393 48.6035V50.7773H181.453V51.5977H180.393V55.2363C180.393 55.5371 180.41 55.7305 180.445 55.8164C180.484 55.9023 180.545 55.9707 180.627 56.0215C180.713 56.0723 180.834 56.0977 180.99 56.0977C181.107 56.0977 181.262 56.084 181.453 56.0566Z" fill="black"/>
<path d="M85.4001 36.0785L139.4 67.2554L85.4 98.4323L85.4001 36.0785Z" fill="#D9D9D9" stroke="black" stroke-width="2.4"/>
<circle cx="146.4" cy="67.2554" r="6" fill="#D9D9D9" stroke="black" stroke-width="2.4"/>
<path d="M88.8906 70.8554V62.2655H90.5781L94.0938 68.0019V62.2655H95.7051V70.8554H93.9648L90.502 65.2538V70.8554H88.8906ZM97.1523 67.6562C97.1523 67.1093 97.2871 66.58 97.5566 66.0683C97.8262 65.5565 98.207 65.1659 98.6992 64.8964C99.1953 64.6269 99.748 64.4921 100.357 64.4921C101.299 64.4921 102.07 64.7987 102.672 65.412C103.273 66.0214 103.574 66.7929 103.574 67.7265C103.574 68.6679 103.27 69.4491 102.66 70.0702C102.055 70.6874 101.291 70.996 100.369 70.996C99.7988 70.996 99.2539 70.8671 98.7344 70.6093C98.2188 70.3515 97.8262 69.9745 97.5566 69.4784C97.2871 68.9784 97.1523 68.371 97.1523 67.6562ZM98.8398 67.744C98.8398 68.3612 98.9863 68.8339 99.2793 69.162C99.5723 69.4901 99.9336 69.6542 100.363 69.6542C100.793 69.6542 101.152 69.4901 101.441 69.162C101.734 68.8339 101.881 68.3573 101.881 67.7323C101.881 67.123 101.734 66.6542 101.441 66.3261C101.152 65.998 100.793 65.8339 100.363 65.8339C99.9336 65.8339 99.5723 65.998 99.2793 66.3261C98.9863 66.6542 98.8398 67.1269 98.8398 67.744ZM107.723 64.6327V65.9452H106.598V68.453C106.598 68.9608 106.607 69.2577 106.627 69.3437C106.65 69.4257 106.699 69.494 106.773 69.5487C106.852 69.6034 106.945 69.6308 107.055 69.6308C107.207 69.6308 107.428 69.578 107.717 69.4726L107.857 70.7499C107.475 70.914 107.041 70.996 106.557 70.996C106.26 70.996 105.992 70.9472 105.754 70.8495C105.516 70.748 105.34 70.619 105.227 70.4628C105.117 70.3026 105.041 70.0878 104.998 69.8183C104.963 69.6269 104.945 69.2401 104.945 68.6581V65.9452H104.189V64.6327H104.945V63.3964L106.598 62.4355V64.6327H107.723Z" fill="black"/>
<path d="M159.398 80.8887C159.398 79.7363 159.719 78.8828 160.359 78.3281C160.895 77.8672 161.547 77.6367 162.316 77.6367C163.172 77.6367 163.871 77.918 164.414 78.4805C164.957 79.0391 165.229 79.8125 165.229 80.8008C165.229 81.6016 165.107 82.2324 164.865 82.6934C164.627 83.1504 164.277 83.5059 163.816 83.7598C163.359 84.0137 162.859 84.1406 162.316 84.1406C161.445 84.1406 160.74 83.8613 160.201 83.3027C159.666 82.7441 159.398 81.9395 159.398 80.8887ZM160.482 80.8887C160.482 81.6855 160.656 82.2832 161.004 82.6816C161.352 83.0762 161.789 83.2734 162.316 83.2734C162.84 83.2734 163.275 83.0742 163.623 82.6758C163.971 82.2773 164.145 81.6699 164.145 80.8535C164.145 80.084 163.969 79.502 163.617 79.1074C163.27 78.709 162.836 78.5098 162.316 78.5098C161.789 78.5098 161.352 78.707 161.004 79.1016C160.656 79.4961 160.482 80.0918 160.482 80.8887ZM170.15 84H169.096V77.2793C168.842 77.5215 168.508 77.7637 168.094 78.0059C167.684 78.248 167.314 78.4297 166.986 78.5508V77.5312C167.576 77.2539 168.092 76.918 168.533 76.5234C168.975 76.1289 169.287 75.7461 169.471 75.375H170.15V84Z" fill="black"/>
<path d="M161.398 177.889C161.398 176.736 161.719 175.883 162.359 175.328C162.895 174.867 163.547 174.637 164.316 174.637C165.172 174.637 165.871 174.918 166.414 175.48C166.957 176.039 167.229 176.812 167.229 177.801C167.229 178.602 167.107 179.232 166.865 179.693C166.627 180.15 166.277 180.506 165.816 180.76C165.359 181.014 164.859 181.141 164.316 181.141C163.445 181.141 162.74 180.861 162.201 180.303C161.666 179.744 161.398 178.939 161.398 177.889ZM162.482 177.889C162.482 178.686 162.656 179.283 163.004 179.682C163.352 180.076 163.789 180.273 164.316 180.273C164.84 180.273 165.275 180.074 165.623 179.676C165.971 179.277 166.145 178.67 166.145 177.854C166.145 177.084 165.969 176.502 165.617 176.107C165.27 175.709 164.836 175.51 164.316 175.51C163.789 175.51 163.352 175.707 163.004 176.102C162.656 176.496 162.482 177.092 162.482 177.889ZM173.721 179.986V181H168.043C168.035 180.746 168.076 180.502 168.166 180.268C168.311 179.881 168.541 179.5 168.857 179.125C169.178 178.75 169.639 178.316 170.24 177.824C171.174 177.059 171.805 176.453 172.133 176.008C172.461 175.559 172.625 175.135 172.625 174.736C172.625 174.318 172.475 173.967 172.174 173.682C171.877 173.393 171.488 173.248 171.008 173.248C170.5 173.248 170.094 173.4 169.789 173.705C169.484 174.01 169.33 174.432 169.326 174.971L168.242 174.859C168.316 174.051 168.596 173.436 169.08 173.014C169.564 172.588 170.215 172.375 171.031 172.375C171.855 172.375 172.508 172.604 172.988 173.061C173.469 173.518 173.709 174.084 173.709 174.76C173.709 175.104 173.639 175.441 173.498 175.773C173.357 176.105 173.123 176.455 172.795 176.822C172.471 177.189 171.93 177.693 171.172 178.334C170.539 178.865 170.133 179.227 169.953 179.418C169.773 179.605 169.625 179.795 169.508 179.986H173.721Z" fill="black"/>
<path d="M290.398 122.889C290.398 121.736 290.719 120.883 291.359 120.328C291.895 119.867 292.547 119.637 293.316 119.637C294.172 119.637 294.871 119.918 295.414 120.48C295.957 121.039 296.229 121.812 296.229 122.801C296.229 123.602 296.107 124.232 295.865 124.693C295.627 125.15 295.277 125.506 294.816 125.76C294.359 126.014 293.859 126.141 293.316 126.141C292.445 126.141 291.74 125.861 291.201 125.303C290.666 124.744 290.398 123.939 290.398 122.889ZM291.482 122.889C291.482 123.686 291.656 124.283 292.004 124.682C292.352 125.076 292.789 125.273 293.316 125.273C293.84 125.273 294.275 125.074 294.623 124.676C294.971 124.277 295.145 123.67 295.145 122.854C295.145 122.084 294.969 121.502 294.617 121.107C294.27 120.709 293.836 120.51 293.316 120.51C292.789 120.51 292.352 120.707 292.004 121.102C291.656 121.496 291.482 122.092 291.482 122.889ZM297.184 123.732L298.238 123.592C298.359 124.189 298.564 124.621 298.854 124.887C299.146 125.148 299.502 125.279 299.92 125.279C300.416 125.279 300.834 125.107 301.174 124.764C301.518 124.42 301.689 123.994 301.689 123.486C301.689 123.002 301.531 122.604 301.215 122.291C300.898 121.975 300.496 121.816 300.008 121.816C299.809 121.816 299.561 121.855 299.264 121.934L299.381 121.008C299.451 121.016 299.508 121.02 299.551 121.02C300 121.02 300.404 120.902 300.764 120.668C301.123 120.434 301.303 120.072 301.303 119.584C301.303 119.197 301.172 118.877 300.91 118.623C300.648 118.369 300.311 118.242 299.896 118.242C299.486 118.242 299.145 118.371 298.871 118.629C298.598 118.887 298.422 119.273 298.344 119.789L297.289 119.602C297.418 118.895 297.711 118.348 298.168 117.961C298.625 117.57 299.193 117.375 299.873 117.375C300.342 117.375 300.773 117.477 301.168 117.68C301.562 117.879 301.863 118.152 302.07 118.5C302.281 118.848 302.387 119.217 302.387 119.607C302.387 119.979 302.287 120.316 302.088 120.621C301.889 120.926 301.594 121.168 301.203 121.348C301.711 121.465 302.105 121.709 302.387 122.08C302.668 122.447 302.809 122.908 302.809 123.463C302.809 124.213 302.535 124.85 301.988 125.373C301.441 125.893 300.75 126.152 299.914 126.152C299.16 126.152 298.533 125.928 298.033 125.479C297.537 125.029 297.254 124.447 297.184 123.732Z" fill="black"/>
<line x1="144" y1="163.8" x2="184" y2="163.8" stroke="black" stroke-width="2.4"/>
<path d="M45.7969 148.623V147.41H46.8516V148.623H45.7969ZM45.7969 156V149.777H46.8516V156H45.7969ZM48.4629 156V149.777H49.4121V150.662C49.8691 149.979 50.5293 149.637 51.3926 149.637C51.7676 149.637 52.1113 149.705 52.4238 149.842C52.7402 149.975 52.9766 150.15 53.1328 150.369C53.2891 150.588 53.3984 150.848 53.4609 151.148C53.5 151.344 53.5195 151.686 53.5195 152.174V156H52.4648V152.215C52.4648 151.785 52.4238 151.465 52.3418 151.254C52.2598 151.039 52.1133 150.869 51.9023 150.744C51.6953 150.615 51.4512 150.551 51.1699 150.551C50.7207 150.551 50.332 150.693 50.0039 150.979C49.6797 151.264 49.5176 151.805 49.5176 152.602V156H48.4629Z" fill="black"/>
<line x1="38" y1="163.8" x2="85" y2="163.8" stroke="black" stroke-width="2.4"/>
<path d="M165.398 150.889C165.398 149.736 165.719 148.883 166.359 148.328C166.895 147.867 167.547 147.637 168.316 147.637C169.172 147.637 169.871 147.918 170.414 148.48C170.957 149.039 171.229 149.812 171.229 150.801C171.229 151.602 171.107 152.232 170.865 152.693C170.627 153.15 170.277 153.506 169.816 153.76C169.359 154.014 168.859 154.141 168.316 154.141C167.445 154.141 166.74 153.861 166.201 153.303C165.666 152.744 165.398 151.939 165.398 150.889ZM166.482 150.889C166.482 151.686 166.656 152.283 167.004 152.682C167.352 153.076 167.789 153.273 168.316 153.273C168.84 153.273 169.275 153.074 169.623 152.676C169.971 152.277 170.145 151.67 170.145 150.854C170.145 150.084 169.969 149.502 169.617 149.107C169.27 148.709 168.836 148.51 168.316 148.51C167.789 148.51 167.352 148.707 167.004 149.102C166.656 149.496 166.482 150.092 166.482 150.889ZM176.549 154V153.086C176.064 153.789 175.406 154.141 174.574 154.141C174.207 154.141 173.863 154.07 173.543 153.93C173.227 153.789 172.99 153.613 172.834 153.402C172.682 153.188 172.574 152.926 172.512 152.617C172.469 152.41 172.447 152.082 172.447 151.633V147.777H173.502V151.229C173.502 151.779 173.523 152.15 173.566 152.342C173.633 152.619 173.773 152.838 173.988 152.998C174.203 153.154 174.469 153.232 174.785 153.232C175.102 153.232 175.398 153.152 175.676 152.992C175.953 152.828 176.148 152.607 176.262 152.33C176.379 152.049 176.438 151.643 176.438 151.111V147.777H177.492V154H176.549ZM181.453 153.057L181.605 153.988C181.309 154.051 181.043 154.082 180.809 154.082C180.426 154.082 180.129 154.021 179.918 153.9C179.707 153.779 179.559 153.621 179.473 153.426C179.387 153.227 179.344 152.811 179.344 152.178V148.598H178.57V147.777H179.344V146.236L180.393 145.604V147.777H181.453V148.598H180.393V152.236C180.393 152.537 180.41 152.73 180.445 152.816C180.484 152.902 180.545 152.971 180.627 153.021C180.713 153.072 180.834 153.098 180.99 153.098C181.107 153.098 181.262 153.084 181.453 153.057Z" fill="black"/>
<path d="M85.4001 133.078L139.4 164.255L85.4 195.432L85.4001 133.078Z" fill="#D9D9D9" stroke="black" stroke-width="2.4"/>
<circle cx="146.4" cy="164.255" r="6" fill="#D9D9D9" stroke="black" stroke-width="2.4"/>
<path d="M88.8906 167.855V159.266H90.5781L94.0938 165.002V159.266H95.7051V167.855H93.9648L90.502 162.254V167.855H88.8906ZM97.1523 164.656C97.1523 164.109 97.2871 163.58 97.5566 163.068C97.8262 162.557 98.207 162.166 98.6992 161.896C99.1953 161.627 99.748 161.492 100.357 161.492C101.299 161.492 102.07 161.799 102.672 162.412C103.273 163.021 103.574 163.793 103.574 164.726C103.574 165.668 103.27 166.449 102.66 167.07C102.055 167.687 101.291 167.996 100.369 167.996C99.7988 167.996 99.2539 167.867 98.7344 167.609C98.2188 167.351 97.8262 166.975 97.5566 166.478C97.2871 165.978 97.1523 165.371 97.1523 164.656ZM98.8398 164.744C98.8398 165.361 98.9863 165.834 99.2793 166.162C99.5723 166.49 99.9336 166.654 100.363 166.654C100.793 166.654 101.152 166.49 101.441 166.162C101.734 165.834 101.881 165.357 101.881 164.732C101.881 164.123 101.734 163.654 101.441 163.326C101.152 162.998 100.793 162.834 100.363 162.834C99.9336 162.834 99.5723 162.998 99.2793 163.326C98.9863 163.654 98.8398 164.127 98.8398 164.744ZM107.723 161.633V162.945H106.598V165.453C106.598 165.961 106.607 166.258 106.627 166.344C106.65 166.426 106.699 166.494 106.773 166.549C106.852 166.603 106.945 166.631 107.055 166.631C107.207 166.631 107.428 166.578 107.717 166.473L107.857 167.75C107.475 167.914 107.041 167.996 106.557 167.996C106.26 167.996 105.992 167.947 105.754 167.85C105.516 167.748 105.34 167.619 105.227 167.463C105.117 167.303 105.041 167.088 104.998 166.818C104.963 166.627 104.945 166.24 104.945 165.658V162.945H104.189V161.633H104.945V160.396L106.598 159.435V161.633H107.723Z" fill="black"/>
<line x1="412" y1="111.8" x2="452" y2="111.8" stroke="black" stroke-width="2.4"/>
<path d="M313.797 96.623V95.4102H314.852V96.623H313.797ZM313.797 104V97.7773H314.852V104H313.797ZM316.463 104V97.7773H317.412V98.6621C317.869 97.9785 318.529 97.6367 319.393 97.6367C319.768 97.6367 320.111 97.7051 320.424 97.8418C320.74 97.9746 320.977 98.1504 321.133 98.3691C321.289 98.5879 321.398 98.8477 321.461 99.1484C321.5 99.3438 321.52 99.6855 321.52 100.174V104H320.465V100.215C320.465 99.7852 320.424 99.4648 320.342 99.2539C320.26 99.0391 320.113 98.8691 319.902 98.7441C319.695 98.6152 319.451 98.5508 319.17 98.5508C318.721 98.5508 318.332 98.6934 318.004 98.9785C317.68 99.2637 317.518 99.8047 317.518 100.602V104H316.463Z" fill="black"/>
<line x1="306" y1="111.8" x2="353" y2="111.8" stroke="black" stroke-width="2.4"/>
<path d="M433.398 98.8887C433.398 97.7363 433.719 96.8828 434.359 96.3281C434.895 95.8672 435.547 95.6367 436.316 95.6367C437.172 95.6367 437.871 95.918 438.414 96.4805C438.957 97.0391 439.229 97.8125 439.229 98.8008C439.229 99.6016 439.107 100.232 438.865 100.693C438.627 101.15 438.277 101.506 437.816 101.76C437.359 102.014 436.859 102.141 436.316 102.141C435.445 102.141 434.74 101.861 434.201 101.303C433.666 100.744 433.398 99.9395 433.398 98.8887ZM434.482 98.8887C434.482 99.6855 434.656 100.283 435.004 100.682C435.352 101.076 435.789 101.273 436.316 101.273C436.84 101.273 437.275 101.074 437.623 100.676C437.971 100.277 438.145 99.6699 438.145 98.8535C438.145 98.084 437.969 97.502 437.617 97.1074C437.27 96.709 436.836 96.5098 436.316 96.5098C435.789 96.5098 435.352 96.707 435.004 97.1016C434.656 97.4961 434.482 98.0918 434.482 98.8887ZM444.549 102V101.086C444.064 101.789 443.406 102.141 442.574 102.141C442.207 102.141 441.863 102.07 441.543 101.93C441.227 101.789 440.99 101.613 440.834 101.402C440.682 101.188 440.574 100.926 440.512 100.617C440.469 100.41 440.447 100.082 440.447 99.6328V95.7773H441.502V99.2285C441.502 99.7793 441.523 100.15 441.566 100.342C441.633 100.619 441.773 100.838 441.988 100.998C442.203 101.154 442.469 101.232 442.785 101.232C443.102 101.232 443.398 101.152 443.676 100.992C443.953 100.828 444.148 100.607 444.262 100.33C444.379 100.049 444.438 99.6426 444.438 99.1113V95.7773H445.492V102H444.549ZM449.453 101.057L449.605 101.988C449.309 102.051 449.043 102.082 448.809 102.082C448.426 102.082 448.129 102.021 447.918 101.9C447.707 101.779 447.559 101.621 447.473 101.426C447.387 101.227 447.344 100.811 447.344 100.178V96.5977H446.57V95.7773H447.344V94.2363L448.393 93.6035V95.7773H449.453V96.5977H448.393V100.236C448.393 100.537 448.41 100.73 448.445 100.816C448.484 100.902 448.545 100.971 448.627 101.021C448.713 101.072 448.834 101.098 448.99 101.098C449.107 101.098 449.262 101.084 449.453 101.057Z" fill="black"/>
<path d="M353.4 81.0785L407.4 112.255L353.4 143.432L353.4 81.0785Z" fill="#D9D9D9" stroke="black" stroke-width="2.4"/>
<circle cx="414.4" cy="112.255" r="6" fill="#D9D9D9" stroke="black" stroke-width="2.4"/>
<path d="M356.891 115.855V107.266H358.578L362.094 113.002V107.266H363.705V115.855H361.965L358.502 110.254V115.855H356.891ZM365.152 112.656C365.152 112.109 365.287 111.58 365.557 111.068C365.826 110.557 366.207 110.166 366.699 109.896C367.195 109.627 367.748 109.492 368.357 109.492C369.299 109.492 370.07 109.799 370.672 110.412C371.273 111.021 371.574 111.793 371.574 112.726C371.574 113.668 371.27 114.449 370.66 115.07C370.055 115.687 369.291 115.996 368.369 115.996C367.799 115.996 367.254 115.867 366.734 115.609C366.219 115.351 365.826 114.975 365.557 114.478C365.287 113.978 365.152 113.371 365.152 112.656ZM366.84 112.744C366.84 113.361 366.986 113.834 367.279 114.162C367.572 114.49 367.934 114.654 368.363 114.654C368.793 114.654 369.152 114.49 369.441 114.162C369.734 113.834 369.881 113.357 369.881 112.732C369.881 112.123 369.734 111.654 369.441 111.326C369.152 110.998 368.793 110.834 368.363 110.834C367.934 110.834 367.572 110.998 367.279 111.326C366.986 111.654 366.84 112.127 366.84 112.744ZM375.723 109.633V110.945H374.598V113.453C374.598 113.961 374.607 114.258 374.627 114.344C374.65 114.426 374.699 114.494 374.773 114.549C374.852 114.603 374.945 114.631 375.055 114.631C375.207 114.631 375.428 114.578 375.717 114.473L375.857 115.75C375.475 115.914 375.041 115.996 374.557 115.996C374.26 115.996 373.992 115.947 373.754 115.85C373.516 115.748 373.34 115.619 373.227 115.463C373.117 115.303 373.041 115.088 372.998 114.818C372.963 114.627 372.945 114.24 372.945 113.658V110.945H372.189V109.633H372.945V108.396L374.598 107.435V109.633H375.723Z" fill="black"/>
<rect x="28.5" y="23.5" width="430" height="187" stroke="black" stroke-dasharray="2 2"/>
<path d="M14.8516 59.2324C14.4609 59.5645 14.084 59.7988 13.7207 59.9355C13.3613 60.0723 12.9746 60.1406 12.5605 60.1406C11.877 60.1406 11.3516 59.9746 10.9844 59.6426C10.6172 59.3066 10.4336 58.8789 10.4336 58.3594C10.4336 58.0547 10.502 57.7773 10.6387 57.5273C10.7793 57.2734 10.9609 57.0703 11.1836 56.918C11.4102 56.7656 11.6641 56.6504 11.9453 56.5723C12.1523 56.5176 12.4648 56.4648 12.8828 56.4141C13.7344 56.3125 14.3613 56.1914 14.7637 56.0508C14.7676 55.9062 14.7695 55.8145 14.7695 55.7754C14.7695 55.3457 14.6699 55.043 14.4707 54.8672C14.2012 54.6289 13.8008 54.5098 13.2695 54.5098C12.7734 54.5098 12.4062 54.5977 12.168 54.7734C11.9336 54.9453 11.7598 55.252 11.6465 55.6934L10.6152 55.5527C10.709 55.1113 10.8633 54.7559 11.0781 54.4863C11.293 54.2129 11.6035 54.0039 12.0098 53.8594C12.416 53.7109 12.8867 53.6367 13.4219 53.6367C13.9531 53.6367 14.3848 53.6992 14.7168 53.8242C15.0488 53.9492 15.293 54.1074 15.4492 54.2988C15.6055 54.4863 15.7148 54.7246 15.7773 55.0137C15.8125 55.1934 15.8301 55.5176 15.8301 55.9863V57.3926C15.8301 58.373 15.8516 58.9941 15.8945 59.2559C15.9414 59.5137 16.0312 59.7617 16.1641 60H15.0625C14.9531 59.7812 14.8828 59.5254 14.8516 59.2324ZM14.7637 56.877C14.3809 57.0332 13.8066 57.166 13.041 57.2754C12.6074 57.3379 12.3008 57.4082 12.1211 57.4863C11.9414 57.5645 11.8027 57.6797 11.7051 57.832C11.6074 57.9805 11.5586 58.1465 11.5586 58.3301C11.5586 58.6113 11.6641 58.8457 11.875 59.0332C12.0898 59.2207 12.4023 59.3145 12.8125 59.3145C13.2188 59.3145 13.5801 59.2266 13.8965 59.0508C14.2129 58.8711 14.4453 58.627 14.5938 58.3184C14.707 58.0801 14.7637 57.7285 14.7637 57.2637V56.877Z" fill="black"/>
<path d="M11.7637 157H10.7852V148.41H11.8398V151.475C12.2852 150.916 12.8535 150.637 13.5449 150.637C13.9277 150.637 14.2891 150.715 14.6289 150.871C14.9727 151.023 15.2539 151.24 15.4727 151.521C15.6953 151.799 15.8691 152.135 15.9941 152.529C16.1191 152.924 16.1816 153.346 16.1816 153.795C16.1816 154.861 15.918 155.686 15.3906 156.268C14.8633 156.85 14.2305 157.141 13.4922 157.141C12.7578 157.141 12.1816 156.834 11.7637 156.221V157ZM11.752 153.842C11.752 154.588 11.8535 155.127 12.0566 155.459C12.3887 156.002 12.8379 156.273 13.4043 156.273C13.8652 156.273 14.2637 156.074 14.5996 155.676C14.9355 155.273 15.1035 154.676 15.1035 153.883C15.1035 153.07 14.9414 152.471 14.6172 152.084C14.2969 151.697 13.9082 151.504 13.4512 151.504C12.9902 151.504 12.5918 151.705 12.2559 152.107C11.9199 152.506 11.752 153.084 11.752 153.842Z" fill="black"/>
<line x1="-8.74228e-08" y1="67" x2="38" y2="67" stroke="#FF6B00" stroke-width="2"/>
<line x1="-8.74228e-08" y1="164" x2="38" y2="164" stroke="#FF6B00" stroke-width="2"/>
</svg>
