<svg width="118" height="58" viewBox="0 0 118 58" fill="none" xmlns="http://www.w3.org/2000/svg">
<line x1="95" y1="31" x2="118" y2="31" stroke="black" stroke-width="2"/>
<line y1="17" x2="30" y2="17" stroke="black" stroke-width="2"/>
<line y1="46" x2="30" y2="46" stroke="black" stroke-width="2"/>
<path d="M9.85156 10.2324C9.46094 10.5645 9.08398 10.7988 8.7207 10.9355C8.36133 11.0723 7.97461 11.1406 7.56055 11.1406C6.87695 11.1406 6.35156 10.9746 5.98438 10.6426C5.61719 10.3066 5.43359 9.87891 5.43359 9.35938C5.43359 9.05469 5.50195 8.77734 5.63867 8.52734C5.7793 8.27344 5.96094 8.07031 6.18359 7.91797C6.41016 7.76562 6.66406 7.65039 6.94531 7.57227C7.15234 7.51758 7.46484 7.46484 7.88281 7.41406C8.73438 7.3125 9.36133 7.19141 9.76367 7.05078C9.76758 6.90625 9.76953 6.81445 9.76953 6.77539C9.76953 6.3457 9.66992 6.04297 9.4707 5.86719C9.20117 5.62891 8.80078 5.50977 8.26953 5.50977C7.77344 5.50977 7.40625 5.59766 7.16797 5.77344C6.93359 5.94531 6.75977 6.25195 6.64648 6.69336L5.61523 6.55273C5.70898 6.11133 5.86328 5.75586 6.07812 5.48633C6.29297 5.21289 6.60352 5.00391 7.00977 4.85938C7.41602 4.71094 7.88672 4.63672 8.42188 4.63672C8.95312 4.63672 9.38477 4.69922 9.7168 4.82422C10.0488 4.94922 10.293 5.10742 10.4492 5.29883C10.6055 5.48633 10.7148 5.72461 10.7773 6.01367C10.8125 6.19336 10.8301 6.51758 10.8301 6.98633V8.39258C10.8301 9.37305 10.8516 9.99414 10.8945 10.2559C10.9414 10.5137 11.0312 10.7617 11.1641 11H10.0625C9.95312 10.7812 9.88281 10.5254 9.85156 10.2324ZM9.76367 7.87695C9.38086 8.0332 8.80664 8.16602 8.04102 8.27539C7.60742 8.33789 7.30078 8.4082 7.12109 8.48633C6.94141 8.56445 6.80273 8.67969 6.70508 8.83203C6.60742 8.98047 6.55859 9.14648 6.55859 9.33008C6.55859 9.61133 6.66406 9.8457 6.875 10.0332C7.08984 10.2207 7.40234 10.3145 7.8125 10.3145C8.21875 10.3145 8.58008 10.2266 8.89648 10.0508C9.21289 9.87109 9.44531 9.62695 9.59375 9.31836C9.70703 9.08008 9.76367 8.72852 9.76367 8.26367V7.87695Z" fill="black"/>
<path d="M6.76367 40H5.78516V31.4102H6.83984V34.4746C7.28516 33.916 7.85352 33.6367 8.54492 33.6367C8.92773 33.6367 9.28906 33.7148 9.62891 33.8711C9.97266 34.0234 10.2539 34.2402 10.4727 34.5215C10.6953 34.7988 10.8691 35.1348 10.9941 35.5293C11.1191 35.9238 11.1816 36.3457 11.1816 36.7949C11.1816 37.8613 10.918 38.6855 10.3906 39.2676C9.86328 39.8496 9.23047 40.1406 8.49219 40.1406C7.75781 40.1406 7.18164 39.834 6.76367 39.2207V40ZM6.75195 36.8418C6.75195 37.5879 6.85352 38.127 7.05664 38.459C7.38867 39.002 7.83789 39.2734 8.4043 39.2734C8.86523 39.2734 9.26367 39.0742 9.59961 38.6758C9.93555 38.2734 10.1035 37.6758 10.1035 36.8828C10.1035 36.0703 9.94141 35.4707 9.61719 35.084C9.29688 34.6973 8.9082 34.5039 8.45117 34.5039C7.99023 34.5039 7.5918 34.7051 7.25586 35.1074C6.91992 35.5059 6.75195 36.084 6.75195 36.8418Z" fill="black"/>
<path d="M99.3984 22.8887C99.3984 21.7363 99.7188 20.8828 100.359 20.3281C100.895 19.8672 101.547 19.6367 102.316 19.6367C103.172 19.6367 103.871 19.918 104.414 20.4805C104.957 21.0391 105.229 21.8125 105.229 22.8008C105.229 23.6016 105.107 24.2324 104.865 24.6934C104.627 25.1504 104.277 25.5059 103.816 25.7598C103.359 26.0137 102.859 26.1406 102.316 26.1406C101.445 26.1406 100.74 25.8613 100.201 25.3027C99.666 24.7441 99.3984 23.9395 99.3984 22.8887ZM100.482 22.8887C100.482 23.6855 100.656 24.2832 101.004 24.6816C101.352 25.0762 101.789 25.2734 102.316 25.2734C102.84 25.2734 103.275 25.0742 103.623 24.6758C103.971 24.2773 104.145 23.6699 104.145 22.8535C104.145 22.084 103.969 21.502 103.617 21.1074C103.27 20.709 102.836 20.5098 102.316 20.5098C101.789 20.5098 101.352 20.707 101.004 21.1016C100.656 21.4961 100.482 22.0918 100.482 22.8887ZM110.549 26V25.0859C110.064 25.7891 109.406 26.1406 108.574 26.1406C108.207 26.1406 107.863 26.0703 107.543 25.9297C107.227 25.7891 106.99 25.6133 106.834 25.4023C106.682 25.1875 106.574 24.9258 106.512 24.6172C106.469 24.4102 106.447 24.082 106.447 23.6328V19.7773H107.502V23.2285C107.502 23.7793 107.523 24.1504 107.566 24.3418C107.633 24.6191 107.773 24.8379 107.988 24.998C108.203 25.1543 108.469 25.2324 108.785 25.2324C109.102 25.2324 109.398 25.1523 109.676 24.9922C109.953 24.8281 110.148 24.6074 110.262 24.3301C110.379 24.0488 110.438 23.6426 110.438 23.1113V19.7773H111.492V26H110.549ZM115.453 25.0566L115.605 25.9883C115.309 26.0508 115.043 26.082 114.809 26.082C114.426 26.082 114.129 26.0215 113.918 25.9004C113.707 25.7793 113.559 25.6211 113.473 25.4258C113.387 25.2266 113.344 24.8105 113.344 24.1777V20.5977H112.57V19.7773H113.344V18.2363L114.393 17.6035V19.7773H115.453V20.5977H114.393V24.2363C114.393 24.5371 114.41 24.7305 114.445 24.8164C114.484 24.9023 114.545 24.9707 114.627 25.0215C114.713 25.0723 114.834 25.0977 114.99 25.0977C115.107 25.0977 115.262 25.084 115.453 25.0566Z" fill="black"/>
<mask id="path-7-inside-1_27_1151" fill="white">
<path fill-rule="evenodd" clip-rule="evenodd" d="M23.6026 57.8598C28.8843 50.6007 32 41.6642 32 32C32 21.3985 28.2507 11.6727 22.0056 4.07632C50.1828 5.03234 76.094 14.9211 96.9966 31C76.4895 46.7746 51.1615 56.5912 23.6026 57.8598Z"/>
</mask>
<path fill-rule="evenodd" clip-rule="evenodd" d="M23.6026 57.8598C28.8843 50.6007 32 41.6642 32 32C32 21.3985 28.2507 11.6727 22.0056 4.07632C50.1828 5.03234 76.094 14.9211 96.9966 31C76.4895 46.7746 51.1615 56.5912 23.6026 57.8598Z" fill="#D9D9D9"/>
<path d="M23.6026 57.8598L21.9854 56.6831L19.5363 60.0491L23.6946 59.8577L23.6026 57.8598ZM22.0056 4.07632L22.0734 2.07747L17.6499 1.92739L20.4607 5.34643L22.0056 4.07632ZM96.9966 31L98.216 32.5853L100.277 31L98.216 29.4148L96.9966 31ZM25.2198 59.0365C30.7419 51.447 34 42.101 34 32H30C30 41.2274 27.0267 49.7545 21.9854 56.6831L25.2198 59.0365ZM34 32C34 20.9184 30.079 10.7473 23.5506 2.80622L20.4607 5.34643C26.4223 12.5981 30 21.8786 30 32H34ZM21.9378 6.07517C49.6834 7.01655 75.1946 16.7525 95.7772 32.5853L98.216 29.4148C76.9934 13.0897 50.6822 3.04814 22.0734 2.07747L21.9378 6.07517ZM95.7772 29.4148C75.5839 44.948 50.6469 54.6128 23.5106 55.862L23.6946 59.8577C51.6762 58.5697 77.3951 48.6013 98.216 32.5853L95.7772 29.4148Z" fill="black" mask="url(#path-7-inside-1_27_1151)"/>
<path d="M44.5215 31.7578C44.5215 30.8828 44.6523 30.1484 44.9141 29.5547C45.1094 29.1172 45.375 28.7246 45.7109 28.377C46.0508 28.0293 46.4219 27.7715 46.8242 27.6035C47.3594 27.377 47.9766 27.2637 48.6758 27.2637C49.9414 27.2637 50.9531 27.6562 51.7109 28.4414C52.4727 29.2266 52.8535 30.3184 52.8535 31.7168C52.8535 33.1035 52.4766 34.1895 51.7227 34.9746C50.9688 35.7559 49.9609 36.1465 48.6992 36.1465C47.4219 36.1465 46.4062 35.7578 45.6523 34.9805C44.8984 34.1992 44.5215 33.125 44.5215 31.7578ZM46.3086 31.6992C46.3086 32.6719 46.5332 33.4102 46.9824 33.9141C47.4316 34.4141 48.002 34.6641 48.6934 34.6641C49.3848 34.6641 49.9512 34.416 50.3926 33.9199C50.8379 33.4199 51.0605 32.6719 51.0605 31.6758C51.0605 30.6914 50.8438 29.957 50.4102 29.4727C49.9805 28.9883 49.4082 28.7461 48.6934 28.7461C47.9785 28.7461 47.4023 28.9922 46.9648 29.4844C46.5273 29.9727 46.3086 30.7109 46.3086 31.6992ZM55.7773 36H54.1309V29.7773H55.6602V30.6621C55.9219 30.2441 56.1562 29.9688 56.3633 29.8359C56.5742 29.7031 56.8125 29.6367 57.0781 29.6367C57.4531 29.6367 57.8145 29.7402 58.1621 29.9473L57.6523 31.3828C57.375 31.2031 57.1172 31.1133 56.8789 31.1133C56.6484 31.1133 56.4531 31.1777 56.293 31.3066C56.1328 31.4316 56.0059 31.6602 55.9121 31.9922C55.8223 32.3242 55.7773 33.0195 55.7773 34.0781V36Z" fill="black"/>
</svg>
