<svg width="155" height="66" viewBox="0 0 155 66" fill="none" xmlns="http://www.w3.org/2000/svg">
<line x1="111.977" y1="31.0003" x2="154.977" y2="30.0003" stroke="black" stroke-width="2"/>
<line y1="17" x2="47" y2="17" stroke="black" stroke-width="2"/>
<line y1="46" x2="47" y2="46" stroke="black" stroke-width="2"/>
<path d="M7.85156 13.2324C7.46094 13.5645 7.08398 13.7988 6.7207 13.9355C6.36133 14.0723 5.97461 14.1406 5.56055 14.1406C4.87695 14.1406 4.35156 13.9746 3.98438 13.6426C3.61719 13.3066 3.43359 12.8789 3.43359 12.3594C3.43359 12.0547 3.50195 11.7773 3.63867 11.5273C3.7793 11.2734 3.96094 11.0703 4.18359 10.918C4.41016 10.7656 4.66406 10.6504 4.94531 10.5723C5.15234 10.5176 5.46484 10.4648 5.88281 10.4141C6.73438 10.3125 7.36133 10.1914 7.76367 10.0508C7.76758 9.90625 7.76953 9.81445 7.76953 9.77539C7.76953 9.3457 7.66992 9.04297 7.4707 8.86719C7.20117 8.62891 6.80078 8.50977 6.26953 8.50977C5.77344 8.50977 5.40625 8.59766 5.16797 8.77344C4.93359 8.94531 4.75977 9.25195 4.64648 9.69336L3.61523 9.55273C3.70898 9.11133 3.86328 8.75586 4.07812 8.48633C4.29297 8.21289 4.60352 8.00391 5.00977 7.85938C5.41602 7.71094 5.88672 7.63672 6.42188 7.63672C6.95312 7.63672 7.38477 7.69922 7.7168 7.82422C8.04883 7.94922 8.29297 8.10742 8.44922 8.29883C8.60547 8.48633 8.71484 8.72461 8.77734 9.01367C8.8125 9.19336 8.83008 9.51758 8.83008 9.98633V11.3926C8.83008 12.373 8.85156 12.9941 8.89453 13.2559C8.94141 13.5137 9.03125 13.7617 9.16406 14H8.0625C7.95312 13.7812 7.88281 13.5254 7.85156 13.2324ZM7.76367 10.877C7.38086 11.0332 6.80664 11.166 6.04102 11.2754C5.60742 11.3379 5.30078 11.4082 5.12109 11.4863C4.94141 11.5645 4.80273 11.6797 4.70508 11.832C4.60742 11.9805 4.55859 12.1465 4.55859 12.3301C4.55859 12.6113 4.66406 12.8457 4.875 13.0332C5.08984 13.2207 5.40234 13.3145 5.8125 13.3145C6.21875 13.3145 6.58008 13.2266 6.89648 13.0508C7.21289 12.8711 7.44531 12.627 7.59375 12.3184C7.70703 12.0801 7.76367 11.7285 7.76367 11.2637V10.877Z" fill="black"/>
<path d="M4.76367 43H3.78516V34.4102H4.83984V37.4746C5.28516 36.916 5.85352 36.6367 6.54492 36.6367C6.92773 36.6367 7.28906 36.7148 7.62891 36.8711C7.97266 37.0234 8.25391 37.2402 8.47266 37.5215C8.69531 37.7988 8.86914 38.1348 8.99414 38.5293C9.11914 38.9238 9.18164 39.3457 9.18164 39.7949C9.18164 40.8613 8.91797 41.6855 8.39062 42.2676C7.86328 42.8496 7.23047 43.1406 6.49219 43.1406C5.75781 43.1406 5.18164 42.834 4.76367 42.2207V43ZM4.75195 39.8418C4.75195 40.5879 4.85352 41.127 5.05664 41.459C5.38867 42.002 5.83789 42.2734 6.4043 42.2734C6.86523 42.2734 7.26367 42.0742 7.59961 41.6758C7.93555 41.2734 8.10352 40.6758 8.10352 39.8828C8.10352 39.0703 7.94141 38.4707 7.61719 38.084C7.29688 37.6973 6.9082 37.5039 6.45117 37.5039C5.99023 37.5039 5.5918 37.7051 5.25586 38.1074C4.91992 38.5059 4.75195 39.084 4.75195 39.8418Z" fill="black"/>
<path d="M138.398 22.8887C138.398 21.7363 138.719 20.8828 139.359 20.3281C139.895 19.8672 140.547 19.6367 141.316 19.6367C142.172 19.6367 142.871 19.918 143.414 20.4805C143.957 21.0391 144.229 21.8125 144.229 22.8008C144.229 23.6016 144.107 24.2324 143.865 24.6934C143.627 25.1504 143.277 25.5059 142.816 25.7598C142.359 26.0137 141.859 26.1406 141.316 26.1406C140.445 26.1406 139.74 25.8613 139.201 25.3027C138.666 24.7441 138.398 23.9395 138.398 22.8887ZM139.482 22.8887C139.482 23.6855 139.656 24.2832 140.004 24.6816C140.352 25.0762 140.789 25.2734 141.316 25.2734C141.84 25.2734 142.275 25.0742 142.623 24.6758C142.971 24.2773 143.145 23.6699 143.145 22.8535C143.145 22.084 142.969 21.502 142.617 21.1074C142.27 20.709 141.836 20.5098 141.316 20.5098C140.789 20.5098 140.352 20.707 140.004 21.1016C139.656 21.4961 139.482 22.0918 139.482 22.8887ZM149.549 26V25.0859C149.064 25.7891 148.406 26.1406 147.574 26.1406C147.207 26.1406 146.863 26.0703 146.543 25.9297C146.227 25.7891 145.99 25.6133 145.834 25.4023C145.682 25.1875 145.574 24.9258 145.512 24.6172C145.469 24.4102 145.447 24.082 145.447 23.6328V19.7773H146.502V23.2285C146.502 23.7793 146.523 24.1504 146.566 24.3418C146.633 24.6191 146.773 24.8379 146.988 24.998C147.203 25.1543 147.469 25.2324 147.785 25.2324C148.102 25.2324 148.398 25.1523 148.676 24.9922C148.953 24.8281 149.148 24.6074 149.262 24.3301C149.379 24.0488 149.438 23.6426 149.438 23.1113V19.7773H150.492V26H149.549ZM154.453 25.0566L154.605 25.9883C154.309 26.0508 154.043 26.082 153.809 26.082C153.426 26.082 153.129 26.0215 152.918 25.9004C152.707 25.7793 152.559 25.6211 152.473 25.4258C152.387 25.2266 152.344 24.8105 152.344 24.1777V20.5977H151.57V19.7773H152.344V18.2363L153.393 17.6035V19.7773H154.453V20.5977H153.393V24.2363C153.393 24.5371 153.41 24.7305 153.445 24.8164C153.484 24.9023 153.545 24.9707 153.627 25.0215C153.713 25.0723 153.834 25.0977 153.99 25.0977C154.107 25.0977 154.262 25.084 154.453 25.0566Z" fill="black"/>
<mask id="path-7-inside-1_101_2041" fill="white">
<path fill-rule="evenodd" clip-rule="evenodd" d="M40.6026 57.8598C45.8843 50.6007 49 41.6642 49 32C49 21.3985 45.2507 11.6727 39.0056 4.07629C67.1828 5.03231 93.094 14.9211 113.997 31C93.4895 46.7746 68.1615 56.5912 40.6026 57.8598Z"/>
</mask>
<path fill-rule="evenodd" clip-rule="evenodd" d="M40.6026 57.8598C45.8843 50.6007 49 41.6642 49 32C49 21.3985 45.2507 11.6727 39.0056 4.07629C67.1828 5.03231 93.094 14.9211 113.997 31C93.4895 46.7746 68.1615 56.5912 40.6026 57.8598Z" fill="#D9D9D9"/>
<path d="M40.6026 57.8598L38.9854 56.6831L36.5363 60.0491L40.6946 59.8577L40.6026 57.8598ZM39.0056 4.07629L39.0734 2.07744L34.6499 1.92736L37.4607 5.3464L39.0056 4.07629ZM113.997 31L115.216 32.5852L117.277 31L115.216 29.4147L113.997 31ZM42.2198 59.0365C47.7419 51.447 51 42.101 51 32H47C47 41.2274 44.0267 49.7544 38.9854 56.6831L42.2198 59.0365ZM51 32C51 20.9184 47.079 10.7473 40.5506 2.80619L37.4607 5.3464C43.4224 12.5981 47 21.8786 47 32H51ZM38.9378 6.07514C66.6834 7.01651 92.1946 16.7525 112.777 32.5852L115.216 29.4147C93.9934 13.0897 67.6822 3.0481 39.0734 2.07744L38.9378 6.07514ZM112.777 29.4147C92.5839 44.9479 67.6469 54.6128 40.5106 55.8619L40.6946 59.8577C68.6762 58.5696 94.3951 48.6013 115.216 32.5852L112.777 29.4147Z" fill="black" mask="url(#path-7-inside-1_101_2041)"/>
<path d="M61.5215 31.7578C61.5215 30.8828 61.6523 30.1484 61.9141 29.5547C62.1094 29.1172 62.375 28.7246 62.7109 28.377C63.0508 28.0293 63.4219 27.7715 63.8242 27.6035C64.3594 27.377 64.9766 27.2637 65.6758 27.2637C66.9414 27.2637 67.9531 27.6562 68.7109 28.4414C69.4727 29.2266 69.8535 30.3184 69.8535 31.7168C69.8535 33.1035 69.4766 34.1895 68.7227 34.9746C67.9688 35.7559 66.9609 36.1465 65.6992 36.1465C64.4219 36.1465 63.4062 35.7578 62.6523 34.9805C61.8984 34.1992 61.5215 33.125 61.5215 31.7578ZM63.3086 31.6992C63.3086 32.6719 63.5332 33.4102 63.9824 33.9141C64.4316 34.4141 65.002 34.6641 65.6934 34.6641C66.3848 34.6641 66.9512 34.416 67.3926 33.9199C67.8379 33.4199 68.0605 32.6719 68.0605 31.6758C68.0605 30.6914 67.8438 29.957 67.4102 29.4727C66.9805 28.9883 66.4082 28.7461 65.6934 28.7461C64.9785 28.7461 64.4023 28.9922 63.9648 29.4844C63.5273 29.9727 63.3086 30.7109 63.3086 31.6992ZM72.7773 36H71.1309V29.7773H72.6602V30.6621C72.9219 30.2441 73.1562 29.9688 73.3633 29.8359C73.5742 29.7031 73.8125 29.6367 74.0781 29.6367C74.4531 29.6367 74.8145 29.7402 75.1621 29.9473L74.6523 31.3828C74.375 31.2031 74.1172 31.1133 73.8789 31.1133C73.6484 31.1133 73.4531 31.1777 73.293 31.3066C73.1328 31.4316 73.0059 31.6602 72.9121 31.9922C72.8223 32.3242 72.7773 33.0195 72.7773 34.0781V36Z" fill="black"/>
<line x1="133.354" y1="22.3536" x2="115.354" y2="40.3536" stroke="black"/>
<path d="M116.471 51H115.416V44.2793C115.162 44.5215 114.828 44.7637 114.414 45.0059C114.004 45.248 113.635 45.4297 113.307 45.5508V44.5312C113.896 44.2539 114.412 43.918 114.854 43.5234C115.295 43.1289 115.607 42.7461 115.791 42.375H116.471V51ZM124.65 44.5137L123.602 44.5957C123.508 44.1816 123.375 43.8809 123.203 43.6934C122.918 43.3926 122.566 43.2422 122.148 43.2422C121.812 43.2422 121.518 43.3359 121.264 43.5234C120.932 43.7656 120.67 44.1191 120.479 44.584C120.287 45.0488 120.188 45.7109 120.18 46.5703C120.434 46.1836 120.744 45.8965 121.111 45.709C121.479 45.5215 121.863 45.4277 122.266 45.4277C122.969 45.4277 123.566 45.6875 124.059 46.207C124.555 46.7227 124.803 47.3906 124.803 48.2109C124.803 48.75 124.686 49.252 124.451 49.7168C124.221 50.1777 123.902 50.5312 123.496 50.7773C123.09 51.0234 122.629 51.1465 122.113 51.1465C121.234 51.1465 120.518 50.8242 119.963 50.1797C119.408 49.5312 119.131 48.4648 119.131 46.9805C119.131 45.3203 119.438 44.1133 120.051 43.3594C120.586 42.7031 121.307 42.375 122.213 42.375C122.889 42.375 123.441 42.5645 123.871 42.9434C124.305 43.3223 124.564 43.8457 124.65 44.5137ZM120.344 48.2168C120.344 48.5801 120.42 48.9277 120.572 49.2598C120.729 49.5918 120.945 49.8457 121.223 50.0215C121.5 50.1934 121.791 50.2793 122.096 50.2793C122.541 50.2793 122.924 50.0996 123.244 49.7402C123.564 49.3809 123.725 48.8926 123.725 48.2754C123.725 47.6816 123.566 47.2148 123.25 46.875C122.934 46.5312 122.535 46.3594 122.055 46.3594C121.578 46.3594 121.174 46.5312 120.842 46.875C120.51 47.2148 120.344 47.6621 120.344 48.2168Z" fill="black"/>
<line x1="35.3536" y1="7.35355" x2="17.3536" y2="25.3536" stroke="black"/>
<line x1="36.3536" y1="36.3536" x2="18.3536" y2="54.3536" stroke="black"/>
<path d="M18.4707 36H17.416V29.2793C17.1621 29.5215 16.8281 29.7637 16.4141 30.0059C16.0039 30.248 15.6348 30.4297 15.3066 30.5508V29.5312C15.8965 29.2539 16.4121 28.918 16.8535 28.5234C17.2949 28.1289 17.6074 27.7461 17.791 27.375H18.4707V36ZM26.6504 29.5137L25.6016 29.5957C25.5078 29.1816 25.375 28.8809 25.2031 28.6934C24.918 28.3926 24.5664 28.2422 24.1484 28.2422C23.8125 28.2422 23.5176 28.3359 23.2637 28.5234C22.9316 28.7656 22.6699 29.1191 22.4785 29.584C22.2871 30.0488 22.1875 30.7109 22.1797 31.5703C22.4336 31.1836 22.7441 30.8965 23.1113 30.709C23.4785 30.5215 23.8633 30.4277 24.2656 30.4277C24.9688 30.4277 25.5664 30.6875 26.0586 31.207C26.5547 31.7227 26.8027 32.3906 26.8027 33.2109C26.8027 33.75 26.6855 34.252 26.4512 34.7168C26.2207 35.1777 25.9023 35.5312 25.4961 35.7773C25.0898 36.0234 24.6289 36.1465 24.1133 36.1465C23.2344 36.1465 22.5176 35.8242 21.9629 35.1797C21.4082 34.5312 21.1309 33.4648 21.1309 31.9805C21.1309 30.3203 21.4375 29.1133 22.0508 28.3594C22.5859 27.7031 23.3066 27.375 24.2129 27.375C24.8887 27.375 25.4414 27.5645 25.8711 27.9434C26.3047 28.3223 26.5645 28.8457 26.6504 29.5137ZM22.3438 33.2168C22.3438 33.5801 22.4199 33.9277 22.5723 34.2598C22.7285 34.5918 22.9453 34.8457 23.2227 35.0215C23.5 35.1934 23.791 35.2793 24.0957 35.2793C24.541 35.2793 24.9238 35.0996 25.2441 34.7402C25.5645 34.3809 25.7246 33.8926 25.7246 33.2754C25.7246 32.6816 25.5664 32.2148 25.25 31.875C24.9336 31.5312 24.5352 31.3594 24.0547 31.3594C23.5781 31.3594 23.1738 31.5312 22.8418 31.875C22.5098 32.2148 22.3438 32.6621 22.3438 33.2168Z" fill="black"/>
<path d="M19.4707 65H18.416V58.2793C18.1621 58.5215 17.8281 58.7637 17.4141 59.0059C17.0039 59.248 16.6348 59.4297 16.3066 59.5508V58.5312C16.8965 58.2539 17.4121 57.918 17.8535 57.5234C18.2949 57.1289 18.6074 56.7461 18.791 56.375H19.4707V65ZM27.6504 58.5137L26.6016 58.5957C26.5078 58.1816 26.375 57.8809 26.2031 57.6934C25.918 57.3926 25.5664 57.2422 25.1484 57.2422C24.8125 57.2422 24.5176 57.3359 24.2637 57.5234C23.9316 57.7656 23.6699 58.1191 23.4785 58.584C23.2871 59.0488 23.1875 59.7109 23.1797 60.5703C23.4336 60.1836 23.7441 59.8965 24.1113 59.709C24.4785 59.5215 24.8633 59.4277 25.2656 59.4277C25.9688 59.4277 26.5664 59.6875 27.0586 60.207C27.5547 60.7227 27.8027 61.3906 27.8027 62.2109C27.8027 62.75 27.6855 63.252 27.4512 63.7168C27.2207 64.1777 26.9023 64.5312 26.4961 64.7773C26.0898 65.0234 25.6289 65.1465 25.1133 65.1465C24.2344 65.1465 23.5176 64.8242 22.9629 64.1797C22.4082 63.5312 22.1309 62.4648 22.1309 60.9805C22.1309 59.3203 22.4375 58.1133 23.0508 57.3594C23.5859 56.7031 24.3066 56.375 25.2129 56.375C25.8887 56.375 26.4414 56.5645 26.8711 56.9434C27.3047 57.3223 27.5645 57.8457 27.6504 58.5137ZM23.3438 62.2168C23.3438 62.5801 23.4199 62.9277 23.5723 63.2598C23.7285 63.5918 23.9453 63.8457 24.2227 64.0215C24.5 64.1934 24.791 64.2793 25.0957 64.2793C25.541 64.2793 25.9238 64.0996 26.2441 63.7402C26.5645 63.3809 26.7246 62.8926 26.7246 62.2754C26.7246 61.6816 26.5664 61.2148 26.25 60.875C25.9336 60.5312 25.5352 60.3594 25.0547 60.3594C24.5781 60.3594 24.1738 60.5312 23.8418 60.875C23.5098 61.2148 23.3438 61.6621 23.3438 62.2168Z" fill="black"/>
</svg>
