<svg width="135" height="58" viewBox="0 0 135 58" fill="none" xmlns="http://www.w3.org/2000/svg">
<line x1="112" y1="31" x2="135" y2="31" stroke="black" stroke-width="2"/>
<line y1="32" x2="51" y2="32" stroke="black" stroke-width="2"/>
<path d="M3.79688 21.623V20.4102H4.85156V21.623H3.79688ZM3.79688 29V22.7773H4.85156V29H3.79688ZM6.46289 29V22.7773H7.41211V23.6621C7.86914 22.9785 8.5293 22.6367 9.39258 22.6367C9.76758 22.6367 10.1113 22.7051 10.4238 22.8418C10.7402 22.9746 10.9766 23.1504 11.1328 23.3691C11.2891 23.5879 11.3984 23.8477 11.4609 24.1484C11.5 24.3438 11.5195 24.6855 11.5195 25.1738V29H10.4648V25.2148C10.4648 24.7852 10.4238 24.4648 10.3418 24.2539C10.2598 24.0391 10.1133 23.8691 9.90234 23.7441C9.69531 23.6152 9.45117 23.5508 9.16992 23.5508C8.7207 23.5508 8.33203 23.6934 8.00391 23.9785C7.67969 24.2637 7.51758 24.8047 7.51758 25.6016V29H6.46289Z" fill="black"/>
<path d="M116.398 22.8887C116.398 21.7363 116.719 20.8828 117.359 20.3281C117.895 19.8672 118.547 19.6367 119.316 19.6367C120.172 19.6367 120.871 19.918 121.414 20.4805C121.957 21.0391 122.229 21.8125 122.229 22.8008C122.229 23.6016 122.107 24.2324 121.865 24.6934C121.627 25.1504 121.277 25.5059 120.816 25.7598C120.359 26.0137 119.859 26.1406 119.316 26.1406C118.445 26.1406 117.74 25.8613 117.201 25.3027C116.666 24.7441 116.398 23.9395 116.398 22.8887ZM117.482 22.8887C117.482 23.6855 117.656 24.2832 118.004 24.6816C118.352 25.0762 118.789 25.2734 119.316 25.2734C119.84 25.2734 120.275 25.0742 120.623 24.6758C120.971 24.2773 121.145 23.6699 121.145 22.8535C121.145 22.084 120.969 21.502 120.617 21.1074C120.27 20.709 119.836 20.5098 119.316 20.5098C118.789 20.5098 118.352 20.707 118.004 21.1016C117.656 21.4961 117.482 22.0918 117.482 22.8887ZM127.549 26V25.0859C127.064 25.7891 126.406 26.1406 125.574 26.1406C125.207 26.1406 124.863 26.0703 124.543 25.9297C124.227 25.7891 123.99 25.6133 123.834 25.4023C123.682 25.1875 123.574 24.9258 123.512 24.6172C123.469 24.4102 123.447 24.082 123.447 23.6328V19.7773H124.502V23.2285C124.502 23.7793 124.523 24.1504 124.566 24.3418C124.633 24.6191 124.773 24.8379 124.988 24.998C125.203 25.1543 125.469 25.2324 125.785 25.2324C126.102 25.2324 126.398 25.1523 126.676 24.9922C126.953 24.8281 127.148 24.6074 127.262 24.3301C127.379 24.0488 127.438 23.6426 127.438 23.1113V19.7773H128.492V26H127.549ZM132.453 25.0566L132.605 25.9883C132.309 26.0508 132.043 26.082 131.809 26.082C131.426 26.082 131.129 26.0215 130.918 25.9004C130.707 25.7793 130.559 25.6211 130.473 25.4258C130.387 25.2266 130.344 24.8105 130.344 24.1777V20.5977H129.57V19.7773H130.344V18.2363L131.393 17.6035V19.7773H132.453V20.5977H131.393V24.2363C131.393 24.5371 131.41 24.7305 131.445 24.8164C131.484 24.9023 131.545 24.9707 131.627 25.0215C131.713 25.0723 131.834 25.0977 131.99 25.0977C132.107 25.0977 132.262 25.084 132.453 25.0566Z" fill="black"/>
<mask id="path-5-inside-1_113_3281" fill="white">
<path fill-rule="evenodd" clip-rule="evenodd" d="M40.6023 57.8598C45.8841 50.6007 48.9998 41.6642 48.9998 32C48.9998 21.3985 45.2504 11.6727 39.0054 4.07632C67.1825 5.03234 93.0938 14.9211 113.996 31C93.4893 46.7746 68.1613 56.5912 40.6023 57.8598Z"/>
</mask>
<path fill-rule="evenodd" clip-rule="evenodd" d="M40.6023 57.8598C45.8841 50.6007 48.9998 41.6642 48.9998 32C48.9998 21.3985 45.2504 11.6727 39.0054 4.07632C67.1825 5.03234 93.0938 14.9211 113.996 31C93.4893 46.7746 68.1613 56.5912 40.6023 57.8598Z" fill="#D9D9D9"/>
<path d="M40.6023 57.8598L38.9851 56.6831L36.536 60.0491L40.6943 59.8577L40.6023 57.8598ZM39.0054 4.07632L39.0732 2.07747L34.6496 1.92739L37.4604 5.34643L39.0054 4.07632ZM113.996 31L115.216 32.5853L117.277 31L115.216 29.4148L113.996 31ZM42.2196 59.0365C47.7417 51.447 50.9998 42.101 50.9998 32H46.9998C46.9998 41.2274 44.0264 49.7545 38.9851 56.6831L42.2196 59.0365ZM50.9998 32C50.9998 20.9184 47.0787 10.7473 40.5503 2.80622L37.4604 5.34643C43.4221 12.5981 46.9998 21.8786 46.9998 32H50.9998ZM38.9376 6.07517C66.6831 7.01655 92.1943 16.7525 112.777 32.5853L115.216 29.4148C93.9932 13.0897 67.682 3.04814 39.0732 2.07747L38.9376 6.07517ZM112.777 29.4148C92.5837 44.948 67.6466 54.6128 40.5104 55.862L40.6943 59.8577C68.6759 58.5697 94.3949 48.6013 115.216 32.5853L112.777 29.4148Z" fill="black" mask="url(#path-5-inside-1_113_3281)"/>
<path d="M52.5215 31.7578C52.5215 30.8828 52.6523 30.1484 52.9141 29.5547C53.1094 29.1172 53.375 28.7246 53.7109 28.377C54.0508 28.0293 54.4219 27.7715 54.8242 27.6035C55.3594 27.377 55.9766 27.2637 56.6758 27.2637C57.9414 27.2637 58.9531 27.6562 59.7109 28.4414C60.4727 29.2266 60.8535 30.3184 60.8535 31.7168C60.8535 33.1035 60.4766 34.1895 59.7227 34.9746C58.9688 35.7559 57.9609 36.1465 56.6992 36.1465C55.4219 36.1465 54.4062 35.7578 53.6523 34.9805C52.8984 34.1992 52.5215 33.125 52.5215 31.7578ZM54.3086 31.6992C54.3086 32.6719 54.5332 33.4102 54.9824 33.9141C55.4316 34.4141 56.002 34.6641 56.6934 34.6641C57.3848 34.6641 57.9512 34.416 58.3926 33.9199C58.8379 33.4199 59.0605 32.6719 59.0605 31.6758C59.0605 30.6914 58.8438 29.957 58.4102 29.4727C57.9805 28.9883 57.4082 28.7461 56.6934 28.7461C55.9785 28.7461 55.4023 28.9922 54.9648 29.4844C54.5273 29.9727 54.3086 30.7109 54.3086 31.6992ZM63.7773 36H62.1309V29.7773H63.6602V30.6621C63.9219 30.2441 64.1562 29.9688 64.3633 29.8359C64.5742 29.7031 64.8125 29.6367 65.0781 29.6367C65.4531 29.6367 65.8145 29.7402 66.1621 29.9473L65.6523 31.3828C65.375 31.2031 65.1172 31.1133 64.8789 31.1133C64.6484 31.1133 64.4531 31.1777 64.293 31.3066C64.1328 31.4316 64.0059 31.6602 63.9121 31.9922C63.8223 32.3242 63.7773 33.0195 63.7773 34.0781V36ZM67.9375 31.3652C67.5117 31.1855 67.2012 30.9395 67.0059 30.627C66.8145 30.3105 66.7188 29.9648 66.7188 29.5898C66.7188 28.9492 66.9414 28.4199 67.3867 28.002C67.8359 27.584 68.4727 27.375 69.2969 27.375C70.1133 27.375 70.7461 27.584 71.1953 28.002C71.6484 28.4199 71.875 28.9492 71.875 29.5898C71.875 29.9883 71.7715 30.3438 71.5645 30.6562C71.3574 30.9648 71.0664 31.2012 70.6914 31.3652C71.168 31.5566 71.5293 31.8359 71.7754 32.2031C72.0254 32.5703 72.1504 32.9941 72.1504 33.4746C72.1504 34.2676 71.8965 34.9121 71.3887 35.4082C70.8848 35.9043 70.2129 36.1523 69.373 36.1523C68.5918 36.1523 67.9414 35.9473 67.4219 35.5371C66.8086 35.0527 66.502 34.3887 66.502 33.5449C66.502 33.0801 66.6172 32.6543 66.8477 32.2676C67.0781 31.877 67.4414 31.5762 67.9375 31.3652ZM68.2773 29.707C68.2773 30.0352 68.3691 30.291 68.5527 30.4746C68.7402 30.6582 68.9883 30.75 69.2969 30.75C69.6094 30.75 69.8594 30.6582 70.0469 30.4746C70.2344 30.2871 70.3281 30.0293 70.3281 29.7012C70.3281 29.3926 70.2344 29.1465 70.0469 28.9629C69.8633 28.7754 69.6191 28.6816 69.3145 28.6816C68.998 28.6816 68.7461 28.7754 68.5586 28.9629C68.3711 29.1504 68.2773 29.3984 68.2773 29.707ZM68.125 33.3867C68.125 33.8398 68.2402 34.1934 68.4707 34.4473C68.7051 34.7012 68.9961 34.8281 69.3438 34.8281C69.6836 34.8281 69.9648 34.707 70.1875 34.4648C70.4102 34.2188 70.5215 33.8652 70.5215 33.4043C70.5215 33.002 70.4082 32.6797 70.1816 32.4375C69.9551 32.1914 69.668 32.0684 69.3203 32.0684C68.918 32.0684 68.6172 32.207 68.418 32.4844C68.2227 32.7617 68.125 33.0625 68.125 33.3867ZM74.7871 36L72.7363 27.4102H74.5117L75.8066 33.3105L77.377 27.4102H79.4395L80.9453 33.4102L82.2637 27.4102H84.0098L81.9238 36H80.084L78.373 29.5781L76.668 36H74.7871ZM85.6738 31.6758L84.1797 31.4062C84.3477 30.8047 84.6367 30.3594 85.0469 30.0703C85.457 29.7812 86.0664 29.6367 86.875 29.6367C87.6094 29.6367 88.1562 29.7246 88.5156 29.9004C88.875 30.0723 89.127 30.293 89.2715 30.5625C89.4199 30.8281 89.4941 31.3184 89.4941 32.0332L89.4766 33.9551C89.4766 34.502 89.502 34.9062 89.5527 35.168C89.6074 35.4258 89.707 35.7031 89.8516 36H88.2227C88.1797 35.8906 88.127 35.7285 88.0645 35.5137C88.0371 35.416 88.0176 35.3516 88.0059 35.3203C87.7246 35.5938 87.4238 35.7988 87.1035 35.9355C86.7832 36.0723 86.4414 36.1406 86.0781 36.1406C85.4375 36.1406 84.9316 35.9668 84.5605 35.6191C84.1934 35.2715 84.0098 34.832 84.0098 34.3008C84.0098 33.9492 84.0938 33.6367 84.2617 33.3633C84.4297 33.0859 84.6641 32.875 84.9648 32.7305C85.2695 32.582 85.707 32.4531 86.2773 32.3438C87.0469 32.1992 87.5801 32.0645 87.877 31.9395V31.7754C87.877 31.459 87.7988 31.2344 87.6426 31.1016C87.4863 30.9648 87.1914 30.8965 86.7578 30.8965C86.4648 30.8965 86.2363 30.9551 86.0723 31.0723C85.9082 31.1855 85.7754 31.3867 85.6738 31.6758ZM87.877 33.0117C87.666 33.082 87.332 33.166 86.875 33.2637C86.418 33.3613 86.1191 33.457 85.9785 33.5508C85.7637 33.7031 85.6562 33.8965 85.6562 34.1309C85.6562 34.3613 85.7422 34.5605 85.9141 34.7285C86.0859 34.8965 86.3047 34.9805 86.5703 34.9805C86.8672 34.9805 87.1504 34.8828 87.4199 34.6875C87.6191 34.5391 87.75 34.3574 87.8125 34.1426C87.8555 34.002 87.877 33.7344 87.877 33.3398V33.0117ZM90.3438 29.7773H92.0957L93.584 34.1953L95.0371 29.7773H96.7422L94.5449 35.7656L94.1523 36.8496C94.0078 37.2129 93.8691 37.4902 93.7363 37.6816C93.6074 37.873 93.457 38.0273 93.2852 38.1445C93.1172 38.2656 92.9082 38.3594 92.6582 38.4258C92.4121 38.4922 92.1328 38.5254 91.8203 38.5254C91.5039 38.5254 91.1934 38.4922 90.8887 38.4258L90.7422 37.1367C91 37.1875 91.2324 37.2129 91.4395 37.2129C91.8223 37.2129 92.1055 37.0996 92.2891 36.873C92.4727 36.6504 92.6133 36.3652 92.7109 36.0176L90.3438 29.7773Z" fill="black"/>
<line x1="35.3536" y1="22.3536" x2="17.3536" y2="40.3536" stroke="black"/>
<path d="M16.1211 46.3418C15.6836 46.1816 15.3594 45.9531 15.1484 45.6562C14.9375 45.3594 14.832 45.0039 14.832 44.5898C14.832 43.9648 15.0566 43.4395 15.5059 43.0137C15.9551 42.5879 16.5527 42.375 17.2988 42.375C18.0488 42.375 18.6523 42.5938 19.1094 43.0312C19.5664 43.4648 19.7949 43.9941 19.7949 44.6191C19.7949 45.0176 19.6895 45.3652 19.4785 45.6621C19.2715 45.9551 18.9551 46.1816 18.5293 46.3418C19.0566 46.5137 19.457 46.791 19.7305 47.1738C20.0078 47.5566 20.1465 48.0137 20.1465 48.5449C20.1465 49.2793 19.8867 49.8965 19.3672 50.3965C18.8477 50.8965 18.1641 51.1465 17.3164 51.1465C16.4688 51.1465 15.7852 50.8965 15.2656 50.3965C14.7461 49.8926 14.4863 49.2656 14.4863 48.5156C14.4863 47.957 14.627 47.4902 14.9082 47.1152C15.1934 46.7363 15.5977 46.4785 16.1211 46.3418ZM15.9102 44.5547C15.9102 44.9609 16.041 45.293 16.3027 45.5508C16.5645 45.8086 16.9043 45.9375 17.3223 45.9375C17.7285 45.9375 18.0605 45.8105 18.3184 45.5566C18.5801 45.2988 18.7109 44.9844 18.7109 44.6133C18.7109 44.2266 18.5762 43.9023 18.3066 43.6406C18.041 43.375 17.709 43.2422 17.3105 43.2422C16.9082 43.2422 16.5742 43.3711 16.3086 43.6289C16.043 43.8867 15.9102 44.1953 15.9102 44.5547ZM15.5703 48.5215C15.5703 48.8223 15.6406 49.1133 15.7812 49.3945C15.9258 49.6758 16.1387 49.8945 16.4199 50.0508C16.7012 50.2031 17.0039 50.2793 17.3281 50.2793C17.832 50.2793 18.248 50.1172 18.5762 49.793C18.9043 49.4688 19.0684 49.0566 19.0684 48.5566C19.0684 48.0488 18.8984 47.6289 18.5586 47.2969C18.2227 46.9648 17.8008 46.7988 17.293 46.7988C16.7969 46.7988 16.3848 46.9629 16.0566 47.291C15.7324 47.6191 15.5703 48.0293 15.5703 48.5215Z" fill="black"/>
</svg>
