<svg width="1086" height="455" viewBox="0 0 1086 455" fill="none" xmlns="http://www.w3.org/2000/svg">
<line x1="303" y1="72" x2="326" y2="72" stroke="black" stroke-width="2"/>
<line x1="208" y1="58" x2="238" y2="58" stroke="black" stroke-width="2"/>
<line x1="208" y1="87" x2="238" y2="87" stroke="black" stroke-width="2"/>
<path d="M217.852 51.2324C217.461 51.5645 217.084 51.7988 216.721 51.9355C216.361 52.0723 215.975 52.1406 215.561 52.1406C214.877 52.1406 214.352 51.9746 213.984 51.6426C213.617 51.3066 213.434 50.8789 213.434 50.3594C213.434 50.0547 213.502 49.7773 213.639 49.5273C213.779 49.2734 213.961 49.0703 214.184 48.918C214.41 48.7656 214.664 48.6504 214.945 48.5723C215.152 48.5176 215.465 48.4648 215.883 48.4141C216.734 48.3125 217.361 48.1914 217.764 48.0508C217.768 47.9062 217.77 47.8145 217.77 47.7754C217.77 47.3457 217.67 47.043 217.471 46.8672C217.201 46.6289 216.801 46.5098 216.27 46.5098C215.773 46.5098 215.406 46.5977 215.168 46.7734C214.934 46.9453 214.76 47.252 214.646 47.6934L213.615 47.5527C213.709 47.1113 213.863 46.7559 214.078 46.4863C214.293 46.2129 214.604 46.0039 215.01 45.8594C215.416 45.7109 215.887 45.6367 216.422 45.6367C216.953 45.6367 217.385 45.6992 217.717 45.8242C218.049 45.9492 218.293 46.1074 218.449 46.2988C218.605 46.4863 218.715 46.7246 218.777 47.0137C218.812 47.1934 218.83 47.5176 218.83 47.9863V49.3926C218.83 50.373 218.852 50.9941 218.895 51.2559C218.941 51.5137 219.031 51.7617 219.164 52H218.062C217.953 51.7812 217.883 51.5254 217.852 51.2324ZM217.764 48.877C217.381 49.0332 216.807 49.166 216.041 49.2754C215.607 49.3379 215.301 49.4082 215.121 49.4863C214.941 49.5645 214.803 49.6797 214.705 49.832C214.607 49.9805 214.559 50.1465 214.559 50.3301C214.559 50.6113 214.664 50.8457 214.875 51.0332C215.09 51.2207 215.402 51.3145 215.812 51.3145C216.219 51.3145 216.58 51.2266 216.896 51.0508C217.213 50.8711 217.445 50.627 217.594 50.3184C217.707 50.0801 217.764 49.7285 217.764 49.2637V48.877Z" fill="black"/>
<path d="M214.764 81H213.785V72.4102H214.84V75.4746C215.285 74.916 215.854 74.6367 216.545 74.6367C216.928 74.6367 217.289 74.7148 217.629 74.8711C217.973 75.0234 218.254 75.2402 218.473 75.5215C218.695 75.7988 218.869 76.1348 218.994 76.5293C219.119 76.9238 219.182 77.3457 219.182 77.7949C219.182 78.8613 218.918 79.6855 218.391 80.2676C217.863 80.8496 217.23 81.1406 216.492 81.1406C215.758 81.1406 215.182 80.834 214.764 80.2207V81ZM214.752 77.8418C214.752 78.5879 214.854 79.127 215.057 79.459C215.389 80.002 215.838 80.2734 216.404 80.2734C216.865 80.2734 217.264 80.0742 217.6 79.6758C217.936 79.2734 218.104 78.6758 218.104 77.8828C218.104 77.0703 217.941 76.4707 217.617 76.084C217.297 75.6973 216.908 75.5039 216.451 75.5039C215.99 75.5039 215.592 75.7051 215.256 76.1074C214.92 76.5059 214.752 77.084 214.752 77.8418Z" fill="black"/>
<path d="M307.398 63.8887C307.398 62.7363 307.719 61.8828 308.359 61.3281C308.895 60.8672 309.547 60.6367 310.316 60.6367C311.172 60.6367 311.871 60.918 312.414 61.4805C312.957 62.0391 313.229 62.8125 313.229 63.8008C313.229 64.6016 313.107 65.2324 312.865 65.6934C312.627 66.1504 312.277 66.5059 311.816 66.7598C311.359 67.0137 310.859 67.1406 310.316 67.1406C309.445 67.1406 308.74 66.8613 308.201 66.3027C307.666 65.7441 307.398 64.9395 307.398 63.8887ZM308.482 63.8887C308.482 64.6855 308.656 65.2832 309.004 65.6816C309.352 66.0762 309.789 66.2734 310.316 66.2734C310.84 66.2734 311.275 66.0742 311.623 65.6758C311.971 65.2773 312.145 64.6699 312.145 63.8535C312.145 63.084 311.969 62.502 311.617 62.1074C311.27 61.709 310.836 61.5098 310.316 61.5098C309.789 61.5098 309.352 61.707 309.004 62.1016C308.656 62.4961 308.482 63.0918 308.482 63.8887ZM318.549 67V66.0859C318.064 66.7891 317.406 67.1406 316.574 67.1406C316.207 67.1406 315.863 67.0703 315.543 66.9297C315.227 66.7891 314.99 66.6133 314.834 66.4023C314.682 66.1875 314.574 65.9258 314.512 65.6172C314.469 65.4102 314.447 65.082 314.447 64.6328V60.7773H315.502V64.2285C315.502 64.7793 315.523 65.1504 315.566 65.3418C315.633 65.6191 315.773 65.8379 315.988 65.998C316.203 66.1543 316.469 66.2324 316.785 66.2324C317.102 66.2324 317.398 66.1523 317.676 65.9922C317.953 65.8281 318.148 65.6074 318.262 65.3301C318.379 65.0488 318.438 64.6426 318.438 64.1113V60.7773H319.492V67H318.549ZM323.453 66.0566L323.605 66.9883C323.309 67.0508 323.043 67.082 322.809 67.082C322.426 67.082 322.129 67.0215 321.918 66.9004C321.707 66.7793 321.559 66.6211 321.473 66.4258C321.387 66.2266 321.344 65.8105 321.344 65.1777V61.5977H320.57V60.7773H321.344V59.2363L322.393 58.6035V60.7773H323.453V61.5977H322.393V65.2363C322.393 65.5371 322.41 65.7305 322.445 65.8164C322.484 65.9023 322.545 65.9707 322.627 66.0215C322.713 66.0723 322.834 66.0977 322.99 66.0977C323.107 66.0977 323.262 66.084 323.453 66.0566Z" fill="black"/>
<mask id="path-7-inside-1_113_3279" fill="white">
<path fill-rule="evenodd" clip-rule="evenodd" d="M231.602 98.8598C236.884 91.6007 240 82.6642 240 73C240 62.3985 236.25 52.6727 230.005 45.0763C258.183 46.0323 284.094 55.9211 304.996 72C284.489 87.7746 259.161 97.5912 231.602 98.8598Z"/>
</mask>
<path fill-rule="evenodd" clip-rule="evenodd" d="M231.602 98.8598C236.884 91.6007 240 82.6642 240 73C240 62.3985 236.25 52.6727 230.005 45.0763C258.183 46.0323 284.094 55.9211 304.996 72C284.489 87.7746 259.161 97.5912 231.602 98.8598Z" fill="#D9D9D9"/>
<path d="M231.602 98.8598L229.985 97.6831L227.536 101.049L231.694 100.858L231.602 98.8598ZM230.005 45.0763L230.073 43.0775L225.65 42.9274L228.46 46.3464L230.005 45.0763ZM304.996 72L306.216 73.5853L308.277 72L306.216 70.4148L304.996 72ZM233.22 100.037C238.742 92.447 242 83.101 242 73H238C238 82.2274 235.026 90.7545 229.985 97.6831L233.22 100.037ZM242 73C242 61.9184 238.079 51.7473 231.55 43.8062L228.46 46.3464C234.422 53.5981 238 62.8786 238 73H242ZM229.938 47.0752C257.683 48.0165 283.194 57.7525 303.777 73.5853L306.216 70.4148C284.993 54.0897 258.682 44.0481 230.073 43.0775L229.938 47.0752ZM303.777 70.4148C283.584 85.948 258.647 95.6128 231.51 96.862L231.694 100.858C259.676 99.5697 285.395 89.6013 306.216 73.5853L303.777 70.4148Z" fill="black" mask="url(#path-7-inside-1_113_3279)"/>
<path d="M252.521 72.7578C252.521 71.8828 252.652 71.1484 252.914 70.5547C253.109 70.1172 253.375 69.7246 253.711 69.377C254.051 69.0293 254.422 68.7715 254.824 68.6035C255.359 68.377 255.977 68.2637 256.676 68.2637C257.941 68.2637 258.953 68.6562 259.711 69.4414C260.473 70.2266 260.854 71.3184 260.854 72.7168C260.854 74.1035 260.477 75.1895 259.723 75.9746C258.969 76.7559 257.961 77.1465 256.699 77.1465C255.422 77.1465 254.406 76.7578 253.652 75.9805C252.898 75.1992 252.521 74.125 252.521 72.7578ZM254.309 72.6992C254.309 73.6719 254.533 74.4102 254.982 74.9141C255.432 75.4141 256.002 75.6641 256.693 75.6641C257.385 75.6641 257.951 75.416 258.393 74.9199C258.838 74.4199 259.061 73.6719 259.061 72.6758C259.061 71.6914 258.844 70.957 258.41 70.4727C257.98 69.9883 257.408 69.7461 256.693 69.7461C255.979 69.7461 255.402 69.9922 254.965 70.4844C254.527 70.9727 254.309 71.7109 254.309 72.6992ZM263.777 77H262.131V70.7773H263.66V71.6621C263.922 71.2441 264.156 70.9688 264.363 70.8359C264.574 70.7031 264.812 70.6367 265.078 70.6367C265.453 70.6367 265.814 70.7402 266.162 70.9473L265.652 72.3828C265.375 72.2031 265.117 72.1133 264.879 72.1133C264.648 72.1133 264.453 72.1777 264.293 72.3066C264.133 72.4316 264.006 72.6602 263.912 72.9922C263.822 73.3242 263.777 74.0195 263.777 75.0781V77Z" fill="black"/>
<path d="M300.398 82.8887C300.398 81.7363 300.719 80.8828 301.359 80.3281C301.895 79.8672 302.547 79.6367 303.316 79.6367C304.172 79.6367 304.871 79.918 305.414 80.4805C305.957 81.0391 306.229 81.8125 306.229 82.8008C306.229 83.6016 306.107 84.2324 305.865 84.6934C305.627 85.1504 305.277 85.5059 304.816 85.7598C304.359 86.0137 303.859 86.1406 303.316 86.1406C302.445 86.1406 301.74 85.8613 301.201 85.3027C300.666 84.7441 300.398 83.9395 300.398 82.8887ZM301.482 82.8887C301.482 83.6855 301.656 84.2832 302.004 84.6816C302.352 85.0762 302.789 85.2734 303.316 85.2734C303.84 85.2734 304.275 85.0742 304.623 84.6758C304.971 84.2773 305.145 83.6699 305.145 82.8535C305.145 82.084 304.969 81.502 304.617 81.1074C304.27 80.709 303.836 80.5098 303.316 80.5098C302.789 80.5098 302.352 80.707 302.004 81.1016C301.656 81.4961 301.482 82.0918 301.482 82.8887ZM311.15 86H310.096V79.2793C309.842 79.5215 309.508 79.7637 309.094 80.0059C308.684 80.248 308.314 80.4297 307.986 80.5508V79.5312C308.576 79.2539 309.092 78.918 309.533 78.5234C309.975 78.1289 310.287 77.7461 310.471 77.375H311.15V86Z" fill="black"/>
<path d="M0.796875 42.623V41.4102H1.85156V42.623H0.796875ZM0.796875 50V43.7773H1.85156V50H0.796875ZM3.46289 50V43.7773H4.41211V44.6621C4.86914 43.9785 5.5293 43.6367 6.39258 43.6367C6.76758 43.6367 7.11133 43.7051 7.42383 43.8418C7.74023 43.9746 7.97656 44.1504 8.13281 44.3691C8.28906 44.5879 8.39844 44.8477 8.46094 45.1484C8.5 45.3438 8.51953 45.6855 8.51953 46.1738V50H7.46484V46.2148C7.46484 45.7852 7.42383 45.4648 7.3418 45.2539C7.25977 45.0391 7.11328 44.8691 6.90234 44.7441C6.69531 44.6152 6.45117 44.5508 6.16992 44.5508C5.7207 44.5508 5.33203 44.6934 5.00391 44.9785C4.67969 45.2637 4.51758 45.8047 4.51758 46.6016V50H3.46289ZM10.166 52.3848V41.4102H12.4922V42.2832H11.2207V51.5117H12.4922V52.3848H10.166ZM13.2598 42.5352V41.5215H18.8203V42.3418C18.2734 42.9238 17.7305 43.6973 17.1914 44.6621C16.6562 45.627 16.2422 46.6191 15.9492 47.6387C15.7383 48.3574 15.6035 49.1445 15.5449 50H14.4609C14.4727 49.3242 14.6055 48.5078 14.8594 47.5508C15.1133 46.5938 15.4766 45.6719 15.9492 44.7852C16.4258 43.8945 16.9316 43.1445 17.4668 42.5352H13.2598ZM21.9258 52.3848H19.5996V51.5117H20.8711V42.2832H19.5996V41.4102H21.9258V52.3848Z" fill="black"/>
<path d="M0.796875 67.623V66.4102H1.85156V67.623H0.796875ZM0.796875 75V68.7773H1.85156V75H0.796875ZM3.46289 75V68.7773H4.41211V69.6621C4.86914 68.9785 5.5293 68.6367 6.39258 68.6367C6.76758 68.6367 7.11133 68.7051 7.42383 68.8418C7.74023 68.9746 7.97656 69.1504 8.13281 69.3691C8.28906 69.5879 8.39844 69.8477 8.46094 70.1484C8.5 70.3438 8.51953 70.6855 8.51953 71.1738V75H7.46484V71.2148C7.46484 70.7852 7.42383 70.4648 7.3418 70.2539C7.25977 70.0391 7.11328 69.8691 6.90234 69.7441C6.69531 69.6152 6.45117 69.5508 6.16992 69.5508C5.7207 69.5508 5.33203 69.6934 5.00391 69.9785C4.67969 70.2637 4.51758 70.8047 4.51758 71.6016V75H3.46289ZM10.166 77.3848V66.4102H12.4922V67.2832H11.2207V76.5117H12.4922V77.3848H10.166ZM18.6621 68.5137L17.6133 68.5957C17.5195 68.1816 17.3867 67.8809 17.2148 67.6934C16.9297 67.3926 16.5781 67.2422 16.1602 67.2422C15.8242 67.2422 15.5293 67.3359 15.2754 67.5234C14.9434 67.7656 14.6816 68.1191 14.4902 68.584C14.2988 69.0488 14.1992 69.7109 14.1914 70.5703C14.4453 70.1836 14.7559 69.8965 15.123 69.709C15.4902 69.5215 15.875 69.4277 16.2773 69.4277C16.9805 69.4277 17.5781 69.6875 18.0703 70.207C18.5664 70.7227 18.8145 71.3906 18.8145 72.2109C18.8145 72.75 18.6973 73.252 18.4629 73.7168C18.2324 74.1777 17.9141 74.5312 17.5078 74.7773C17.1016 75.0234 16.6406 75.1465 16.125 75.1465C15.2461 75.1465 14.5293 74.8242 13.9746 74.1797C13.4199 73.5312 13.1426 72.4648 13.1426 70.9805C13.1426 69.3203 13.4492 68.1133 14.0625 67.3594C14.5977 66.7031 15.3184 66.375 16.2246 66.375C16.9004 66.375 17.4531 66.5645 17.8828 66.9434C18.3164 67.3223 18.5762 67.8457 18.6621 68.5137ZM14.3555 72.2168C14.3555 72.5801 14.4316 72.9277 14.584 73.2598C14.7402 73.5918 14.957 73.8457 15.2344 74.0215C15.5117 74.1934 15.8027 74.2793 16.1074 74.2793C16.5527 74.2793 16.9355 74.0996 17.2559 73.7402C17.5762 73.3809 17.7363 72.8926 17.7363 72.2754C17.7363 71.6816 17.5781 71.2148 17.2617 70.875C16.9453 70.5312 16.5469 70.3594 16.0664 70.3594C15.5898 70.3594 15.1855 70.5312 14.8535 70.875C14.5215 71.2148 14.3555 71.6621 14.3555 72.2168ZM21.9258 77.3848H19.5996V76.5117H20.8711V67.2832H19.5996V66.4102H21.9258V77.3848Z" fill="black"/>
<path d="M0.796875 92.623V91.4102H1.85156V92.623H0.796875ZM0.796875 100V93.7773H1.85156V100H0.796875ZM3.46289 100V93.7773H4.41211V94.6621C4.86914 93.9785 5.5293 93.6367 6.39258 93.6367C6.76758 93.6367 7.11133 93.7051 7.42383 93.8418C7.74023 93.9746 7.97656 94.1504 8.13281 94.3691C8.28906 94.5879 8.39844 94.8477 8.46094 95.1484C8.5 95.3438 8.51953 95.6855 8.51953 96.1738V100H7.46484V96.2148C7.46484 95.7852 7.42383 95.4648 7.3418 95.2539C7.25977 95.0391 7.11328 94.8691 6.90234 94.7441C6.69531 94.6152 6.45117 94.5508 6.16992 94.5508C5.7207 94.5508 5.33203 94.6934 5.00391 94.9785C4.67969 95.2637 4.51758 95.8047 4.51758 96.6016V100H3.46289ZM10.166 102.385V91.4102H12.4922V92.2832H11.2207V101.512H12.4922V102.385H10.166ZM13.1895 97.75L14.2969 97.6562C14.3789 98.1953 14.5684 98.6016 14.8652 98.875C15.166 99.1445 15.5273 99.2793 15.9492 99.2793C16.457 99.2793 16.8867 99.0879 17.2383 98.7051C17.5898 98.3223 17.7656 97.8145 17.7656 97.1816C17.7656 96.5801 17.5957 96.1055 17.2559 95.7578C16.9199 95.4102 16.4785 95.2363 15.9316 95.2363C15.5918 95.2363 15.2852 95.3145 15.0117 95.4707C14.7383 95.623 14.5234 95.8223 14.3672 96.0684L13.377 95.9395L14.209 91.5273H18.4805V92.5352H15.0527L14.5898 94.8438C15.1055 94.4844 15.6465 94.3047 16.2129 94.3047C16.9629 94.3047 17.5957 94.5645 18.1113 95.084C18.627 95.6035 18.8848 96.2715 18.8848 97.0879C18.8848 97.8652 18.6582 98.5371 18.2051 99.1035C17.6543 99.7988 16.9023 100.146 15.9492 100.146C15.168 100.146 14.5293 99.9277 14.0332 99.4902C13.541 99.0527 13.2598 98.4727 13.1895 97.75ZM21.9258 102.385H19.5996V101.512H20.8711V92.2832H19.5996V91.4102H21.9258V102.385Z" fill="black"/>
<path d="M0.796875 117.623V116.41H1.85156V117.623H0.796875ZM0.796875 125V118.777H1.85156V125H0.796875ZM3.46289 125V118.777H4.41211V119.662C4.86914 118.979 5.5293 118.637 6.39258 118.637C6.76758 118.637 7.11133 118.705 7.42383 118.842C7.74023 118.975 7.97656 119.15 8.13281 119.369C8.28906 119.588 8.39844 119.848 8.46094 120.148C8.5 120.344 8.51953 120.686 8.51953 121.174V125H7.46484V121.215C7.46484 120.785 7.42383 120.465 7.3418 120.254C7.25977 120.039 7.11328 119.869 6.90234 119.744C6.69531 119.615 6.45117 119.551 6.16992 119.551C5.7207 119.551 5.33203 119.693 5.00391 119.979C4.67969 120.264 4.51758 120.805 4.51758 121.602V125H3.46289ZM10.166 127.385V116.41H12.4922V117.283H11.2207V126.512H12.4922V127.385H10.166ZM16.5703 125V122.943H12.8438V121.977L16.7637 116.41H17.625V121.977H18.7852V122.943H17.625V125H16.5703ZM16.5703 121.977V118.104L13.8809 121.977H16.5703ZM21.9258 127.385H19.5996V126.512H20.8711V117.283H19.5996V116.41H21.9258V127.385Z" fill="black"/>
<path d="M0.796875 142.623V141.41H1.85156V142.623H0.796875ZM0.796875 150V143.777H1.85156V150H0.796875ZM3.46289 150V143.777H4.41211V144.662C4.86914 143.979 5.5293 143.637 6.39258 143.637C6.76758 143.637 7.11133 143.705 7.42383 143.842C7.74023 143.975 7.97656 144.15 8.13281 144.369C8.28906 144.588 8.39844 144.848 8.46094 145.148C8.5 145.344 8.51953 145.686 8.51953 146.174V150H7.46484V146.215C7.46484 145.785 7.42383 145.465 7.3418 145.254C7.25977 145.039 7.11328 144.869 6.90234 144.744C6.69531 144.615 6.45117 144.551 6.16992 144.551C5.7207 144.551 5.33203 144.693 5.00391 144.979C4.67969 145.264 4.51758 145.805 4.51758 146.602V150H3.46289ZM10.166 152.385V141.41H12.4922V142.283H11.2207V151.512H12.4922V152.385H10.166ZM13.1953 147.732L14.25 147.592C14.3711 148.189 14.5762 148.621 14.8652 148.887C15.1582 149.148 15.5137 149.279 15.9316 149.279C16.4277 149.279 16.8457 149.107 17.1855 148.764C17.5293 148.42 17.7012 147.994 17.7012 147.486C17.7012 147.002 17.543 146.604 17.2266 146.291C16.9102 145.975 16.5078 145.816 16.0195 145.816C15.8203 145.816 15.5723 145.855 15.2754 145.934L15.3926 145.008C15.4629 145.016 15.5195 145.02 15.5625 145.02C16.0117 145.02 16.416 144.902 16.7754 144.668C17.1348 144.434 17.3145 144.072 17.3145 143.584C17.3145 143.197 17.1836 142.877 16.9219 142.623C16.6602 142.369 16.3223 142.242 15.9082 142.242C15.498 142.242 15.1562 142.371 14.8828 142.629C14.6094 142.887 14.4336 143.273 14.3555 143.789L13.3008 143.602C13.4297 142.895 13.7227 142.348 14.1797 141.961C14.6367 141.57 15.2051 141.375 15.8848 141.375C16.3535 141.375 16.7852 141.477 17.1797 141.68C17.5742 141.879 17.875 142.152 18.082 142.5C18.293 142.848 18.3984 143.217 18.3984 143.607C18.3984 143.979 18.2988 144.316 18.0996 144.621C17.9004 144.926 17.6055 145.168 17.2148 145.348C17.7227 145.465 18.1172 145.709 18.3984 146.08C18.6797 146.447 18.8203 146.908 18.8203 147.463C18.8203 148.213 18.5469 148.85 18 149.373C17.4531 149.893 16.7617 150.152 15.9258 150.152C15.1719 150.152 14.5449 149.928 14.0449 149.479C13.5488 149.029 13.2656 148.447 13.1953 147.732ZM21.9258 152.385H19.5996V151.512H20.8711V142.283H19.5996V141.41H21.9258V152.385Z" fill="black"/>
<path d="M0.796875 167.623V166.41H1.85156V167.623H0.796875ZM0.796875 175V168.777H1.85156V175H0.796875ZM3.46289 175V168.777H4.41211V169.662C4.86914 168.979 5.5293 168.637 6.39258 168.637C6.76758 168.637 7.11133 168.705 7.42383 168.842C7.74023 168.975 7.97656 169.15 8.13281 169.369C8.28906 169.588 8.39844 169.848 8.46094 170.148C8.5 170.344 8.51953 170.686 8.51953 171.174V175H7.46484V171.215C7.46484 170.785 7.42383 170.465 7.3418 170.254C7.25977 170.039 7.11328 169.869 6.90234 169.744C6.69531 169.615 6.45117 169.551 6.16992 169.551C5.7207 169.551 5.33203 169.693 5.00391 169.979C4.67969 170.264 4.51758 170.805 4.51758 171.602V175H3.46289ZM10.166 177.385V166.41H12.4922V167.283H11.2207V176.512H12.4922V177.385H10.166ZM18.7324 173.986V175H13.0547C13.0469 174.746 13.0879 174.502 13.1777 174.268C13.3223 173.881 13.5527 173.5 13.8691 173.125C14.1895 172.75 14.6504 172.316 15.252 171.824C16.1855 171.059 16.8164 170.453 17.1445 170.008C17.4727 169.559 17.6367 169.135 17.6367 168.736C17.6367 168.318 17.4863 167.967 17.1855 167.682C16.8887 167.393 16.5 167.248 16.0195 167.248C15.5117 167.248 15.1055 167.4 14.8008 167.705C14.4961 168.01 14.3418 168.432 14.3379 168.971L13.2539 168.859C13.3281 168.051 13.6074 167.436 14.0918 167.014C14.5762 166.588 15.2266 166.375 16.043 166.375C16.8672 166.375 17.5195 166.604 18 167.061C18.4805 167.518 18.7207 168.084 18.7207 168.76C18.7207 169.104 18.6504 169.441 18.5098 169.773C18.3691 170.105 18.1348 170.455 17.8066 170.822C17.4824 171.189 16.9414 171.693 16.1836 172.334C15.5508 172.865 15.1445 173.227 14.9648 173.418C14.7852 173.605 14.6367 173.795 14.5195 173.986H18.7324ZM21.9258 177.385H19.5996V176.512H20.8711V167.283H19.5996V166.41H21.9258V177.385Z" fill="black"/>
<path d="M0.796875 192.623V191.41H1.85156V192.623H0.796875ZM0.796875 200V193.777H1.85156V200H0.796875ZM3.46289 200V193.777H4.41211V194.662C4.86914 193.979 5.5293 193.637 6.39258 193.637C6.76758 193.637 7.11133 193.705 7.42383 193.842C7.74023 193.975 7.97656 194.15 8.13281 194.369C8.28906 194.588 8.39844 194.848 8.46094 195.148C8.5 195.344 8.51953 195.686 8.51953 196.174V200H7.46484V196.215C7.46484 195.785 7.42383 195.465 7.3418 195.254C7.25977 195.039 7.11328 194.869 6.90234 194.744C6.69531 194.615 6.45117 194.551 6.16992 194.551C5.7207 194.551 5.33203 194.693 5.00391 194.979C4.67969 195.264 4.51758 195.805 4.51758 196.602V200H3.46289ZM10.166 202.385V191.41H12.4922V192.283H11.2207V201.512H12.4922V202.385H10.166ZM17.1621 200H16.1074V193.279C15.8535 193.521 15.5195 193.764 15.1055 194.006C14.6953 194.248 14.3262 194.43 13.998 194.551V193.531C14.5879 193.254 15.1035 192.918 15.5449 192.523C15.9863 192.129 16.2988 191.746 16.4824 191.375H17.1621V200ZM21.9258 202.385H19.5996V201.512H20.8711V192.283H19.5996V191.41H21.9258V202.385Z" fill="black"/>
<path d="M0.796875 217.623V216.41H1.85156V217.623H0.796875ZM0.796875 225V218.777H1.85156V225H0.796875ZM3.46289 225V218.777H4.41211V219.662C4.86914 218.979 5.5293 218.637 6.39258 218.637C6.76758 218.637 7.11133 218.705 7.42383 218.842C7.74023 218.975 7.97656 219.15 8.13281 219.369C8.28906 219.588 8.39844 219.848 8.46094 220.148C8.5 220.344 8.51953 220.686 8.51953 221.174V225H7.46484V221.215C7.46484 220.785 7.42383 220.465 7.3418 220.254C7.25977 220.039 7.11328 219.869 6.90234 219.744C6.69531 219.615 6.45117 219.551 6.16992 219.551C5.7207 219.551 5.33203 219.693 5.00391 219.979C4.67969 220.264 4.51758 220.805 4.51758 221.602V225H3.46289ZM10.166 227.385V216.41H12.4922V217.283H11.2207V226.512H12.4922V227.385H10.166ZM13.1895 220.764C13.1895 219.748 13.293 218.932 13.5 218.314C13.7109 217.693 14.0215 217.215 14.4316 216.879C14.8457 216.543 15.3652 216.375 15.9902 216.375C16.4512 216.375 16.8555 216.469 17.2031 216.656C17.5508 216.84 17.8379 217.107 18.0645 217.459C18.291 217.807 18.4688 218.232 18.5977 218.736C18.7266 219.236 18.791 219.912 18.791 220.764C18.791 221.771 18.6875 222.586 18.4805 223.207C18.2734 223.824 17.9629 224.303 17.5488 224.643C17.1387 224.979 16.6191 225.146 15.9902 225.146C15.1621 225.146 14.5117 224.85 14.0391 224.256C13.4727 223.541 13.1895 222.377 13.1895 220.764ZM14.2734 220.764C14.2734 222.174 14.4375 223.113 14.7656 223.582C15.0977 224.047 15.5059 224.279 15.9902 224.279C16.4746 224.279 16.8809 224.045 17.209 223.576C17.541 223.107 17.707 222.17 17.707 220.764C17.707 219.35 17.541 218.41 17.209 217.945C16.8809 217.48 16.4707 217.248 15.9785 217.248C15.4941 217.248 15.1074 217.453 14.8184 217.863C14.4551 218.387 14.2734 219.354 14.2734 220.764ZM21.9258 227.385H19.5996V226.512H20.8711V217.283H19.5996V216.41H21.9258V227.385Z" fill="black"/>
<line x1="325" y1="71" x2="325" y2="114" stroke="#FF6B00" stroke-width="2"/>
<line x1="443" y1="126" x2="443" y2="169" stroke="#FF6B00" stroke-width="2"/>
<line x1="563" y1="181" x2="563" y2="224" stroke="#FF6B00" stroke-width="2"/>
<line x1="681" y1="238" x2="681" y2="281" stroke="#FF6B00" stroke-width="2"/>
<line x1="799" y1="295" x2="799" y2="338" stroke="#FF6B00" stroke-width="2"/>
<line x1="917" y1="352" x2="917" y2="395" stroke="#FF6B00" stroke-width="2"/>
<line x1="207" y1="84" x2="207" y2="88" stroke="#FF6B00" stroke-width="2"/>
<line x1="309" y1="107" x2="309" y2="143" stroke="#FF6B00" stroke-width="2"/>
<line x1="295" y1="132" x2="295" y2="198" stroke="#FF6B00" stroke-width="2"/>
<line x1="279" y1="157" x2="279" y2="255" stroke="#FF6B00" stroke-width="2"/>
<line x1="261" y1="182" x2="261" y2="312" stroke="#FF6B00" stroke-width="2"/>
<line x1="241" y1="207" x2="241" y2="369" stroke="#FF6B00" stroke-width="2"/>
<line x1="217" y1="234" x2="217" y2="425" stroke="#FF6B00" stroke-width="2"/>
<line x1="8.74228e-08" y1="58" x2="208" y2="58" stroke="#FF6B00" stroke-width="2"/>
<line x1="-9.57822e-08" y1="83" x2="208" y2="83" stroke="#FF6B00" stroke-width="2"/>
<line x1="-9.57822e-08" y1="108" x2="308" y2="108" stroke="#FF6B00" stroke-width="2"/>
<line x1="-9.57822e-08" y1="133" x2="294" y2="133" stroke="#FF6B00" stroke-width="2"/>
<line x1="-9.57822e-08" y1="158" x2="278" y2="158" stroke="#FF6B00" stroke-width="2"/>
<line x1="-9.57822e-08" y1="183" x2="260" y2="183" stroke="#FF6B00" stroke-width="2"/>
<line x1="-9.57822e-08" y1="208" x2="240" y2="208" stroke="#FF6B00" stroke-width="2"/>
<line x1="1" y1="235" x2="216" y2="235" stroke="#FF6B00" stroke-width="2"/>
<path d="M1049.4 400.889C1049.4 399.736 1049.72 398.883 1050.36 398.328C1050.89 397.867 1051.55 397.637 1052.32 397.637C1053.17 397.637 1053.87 397.918 1054.41 398.48C1054.96 399.039 1055.23 399.812 1055.23 400.801C1055.23 401.602 1055.11 402.232 1054.87 402.693C1054.63 403.15 1054.28 403.506 1053.82 403.76C1053.36 404.014 1052.86 404.141 1052.32 404.141C1051.45 404.141 1050.74 403.861 1050.2 403.303C1049.67 402.744 1049.4 401.939 1049.4 400.889ZM1050.48 400.889C1050.48 401.686 1050.66 402.283 1051 402.682C1051.35 403.076 1051.79 403.273 1052.32 403.273C1052.84 403.273 1053.28 403.074 1053.62 402.676C1053.97 402.277 1054.14 401.67 1054.14 400.854C1054.14 400.084 1053.97 399.502 1053.62 399.107C1053.27 398.709 1052.84 398.51 1052.32 398.51C1051.79 398.51 1051.35 398.707 1051 399.102C1050.66 399.496 1050.48 400.092 1050.48 400.889ZM1060.55 404V403.086C1060.06 403.789 1059.41 404.141 1058.57 404.141C1058.21 404.141 1057.86 404.07 1057.54 403.93C1057.23 403.789 1056.99 403.613 1056.83 403.402C1056.68 403.188 1056.57 402.926 1056.51 402.617C1056.47 402.41 1056.45 402.082 1056.45 401.633V397.777H1057.5V401.229C1057.5 401.779 1057.52 402.15 1057.57 402.342C1057.63 402.619 1057.77 402.838 1057.99 402.998C1058.2 403.154 1058.47 403.232 1058.79 403.232C1059.1 403.232 1059.4 403.152 1059.68 402.992C1059.95 402.828 1060.15 402.607 1060.26 402.33C1060.38 402.049 1060.44 401.643 1060.44 401.111V397.777H1061.49V404H1060.55ZM1065.45 403.057L1065.61 403.988C1065.31 404.051 1065.04 404.082 1064.81 404.082C1064.43 404.082 1064.13 404.021 1063.92 403.9C1063.71 403.779 1063.56 403.621 1063.47 403.426C1063.39 403.227 1063.34 402.811 1063.34 402.178V398.598H1062.57V397.777H1063.34V396.236L1064.39 395.604V397.777H1065.45V398.598H1064.39V402.236C1064.39 402.537 1064.41 402.73 1064.45 402.816C1064.48 402.902 1064.54 402.971 1064.63 403.021C1064.71 403.072 1064.83 403.098 1064.99 403.098C1065.11 403.098 1065.26 403.084 1065.45 403.057Z" fill="black"/>
<line x1="308" y1="142" x2="326" y2="142" stroke="#FF6B00" stroke-width="2"/>
<line x1="294" y1="197" x2="444" y2="197" stroke="#FF6B00" stroke-width="2"/>
<line x1="278" y1="254" x2="562" y2="254" stroke="#FF6B00" stroke-width="2"/>
<line x1="260" y1="311" x2="680" y2="311" stroke="#FF6B00" stroke-width="2"/>
<line x1="240" y1="368" x2="798" y2="368" stroke="#FF6B00" stroke-width="2"/>
<line x1="216" y1="425" x2="916" y2="425" stroke="#FF6B00" stroke-width="2"/>
<line x1="1034" y1="410" x2="1076" y2="410" stroke="#FF6B00" stroke-width="2"/>
<line x1="421" y1="127" x2="444" y2="127" stroke="black" stroke-width="2"/>
<line x1="326" y1="113" x2="356" y2="113" stroke="black" stroke-width="2"/>
<line x1="326" y1="142" x2="356" y2="142" stroke="black" stroke-width="2"/>
<path d="M335.852 106.232C335.461 106.564 335.084 106.799 334.721 106.936C334.361 107.072 333.975 107.141 333.561 107.141C332.877 107.141 332.352 106.975 331.984 106.643C331.617 106.307 331.434 105.879 331.434 105.359C331.434 105.055 331.502 104.777 331.639 104.527C331.779 104.273 331.961 104.07 332.184 103.918C332.41 103.766 332.664 103.65 332.945 103.572C333.152 103.518 333.465 103.465 333.883 103.414C334.734 103.312 335.361 103.191 335.764 103.051C335.768 102.906 335.77 102.814 335.77 102.775C335.77 102.346 335.67 102.043 335.471 101.867C335.201 101.629 334.801 101.51 334.27 101.51C333.773 101.51 333.406 101.598 333.168 101.773C332.934 101.945 332.76 102.252 332.646 102.693L331.615 102.553C331.709 102.111 331.863 101.756 332.078 101.486C332.293 101.213 332.604 101.004 333.01 100.859C333.416 100.711 333.887 100.637 334.422 100.637C334.953 100.637 335.385 100.699 335.717 100.824C336.049 100.949 336.293 101.107 336.449 101.299C336.605 101.486 336.715 101.725 336.777 102.014C336.812 102.193 336.83 102.518 336.83 102.986V104.393C336.83 105.373 336.852 105.994 336.895 106.256C336.941 106.514 337.031 106.762 337.164 107H336.062C335.953 106.781 335.883 106.525 335.852 106.232ZM335.764 103.877C335.381 104.033 334.807 104.166 334.041 104.275C333.607 104.338 333.301 104.408 333.121 104.486C332.941 104.564 332.803 104.68 332.705 104.832C332.607 104.98 332.559 105.146 332.559 105.33C332.559 105.611 332.664 105.846 332.875 106.033C333.09 106.221 333.402 106.314 333.812 106.314C334.219 106.314 334.58 106.227 334.896 106.051C335.213 105.871 335.445 105.627 335.594 105.318C335.707 105.08 335.764 104.729 335.764 104.264V103.877Z" fill="black"/>
<path d="M332.764 136H331.785V127.41H332.84V130.475C333.285 129.916 333.854 129.637 334.545 129.637C334.928 129.637 335.289 129.715 335.629 129.871C335.973 130.023 336.254 130.24 336.473 130.521C336.695 130.799 336.869 131.135 336.994 131.529C337.119 131.924 337.182 132.346 337.182 132.795C337.182 133.861 336.918 134.686 336.391 135.268C335.863 135.85 335.23 136.141 334.492 136.141C333.758 136.141 333.182 135.834 332.764 135.221V136ZM332.752 132.842C332.752 133.588 332.854 134.127 333.057 134.459C333.389 135.002 333.838 135.273 334.404 135.273C334.865 135.273 335.264 135.074 335.6 134.676C335.936 134.273 336.104 133.676 336.104 132.883C336.104 132.07 335.941 131.471 335.617 131.084C335.297 130.697 334.908 130.504 334.451 130.504C333.99 130.504 333.592 130.705 333.256 131.107C332.92 131.506 332.752 132.084 332.752 132.842Z" fill="black"/>
<path d="M425.398 118.889C425.398 117.736 425.719 116.883 426.359 116.328C426.895 115.867 427.547 115.637 428.316 115.637C429.172 115.637 429.871 115.918 430.414 116.48C430.957 117.039 431.229 117.812 431.229 118.801C431.229 119.602 431.107 120.232 430.865 120.693C430.627 121.15 430.277 121.506 429.816 121.76C429.359 122.014 428.859 122.141 428.316 122.141C427.445 122.141 426.74 121.861 426.201 121.303C425.666 120.744 425.398 119.939 425.398 118.889ZM426.482 118.889C426.482 119.686 426.656 120.283 427.004 120.682C427.352 121.076 427.789 121.273 428.316 121.273C428.84 121.273 429.275 121.074 429.623 120.676C429.971 120.277 430.145 119.67 430.145 118.854C430.145 118.084 429.969 117.502 429.617 117.107C429.27 116.709 428.836 116.51 428.316 116.51C427.789 116.51 427.352 116.707 427.004 117.102C426.656 117.496 426.482 118.092 426.482 118.889ZM436.549 122V121.086C436.064 121.789 435.406 122.141 434.574 122.141C434.207 122.141 433.863 122.07 433.543 121.93C433.227 121.789 432.99 121.613 432.834 121.402C432.682 121.188 432.574 120.926 432.512 120.617C432.469 120.41 432.447 120.082 432.447 119.633V115.777H433.502V119.229C433.502 119.779 433.523 120.15 433.566 120.342C433.633 120.619 433.773 120.838 433.988 120.998C434.203 121.154 434.469 121.232 434.785 121.232C435.102 121.232 435.398 121.152 435.676 120.992C435.953 120.828 436.148 120.607 436.262 120.33C436.379 120.049 436.438 119.643 436.438 119.111V115.777H437.492V122H436.549ZM441.453 121.057L441.605 121.988C441.309 122.051 441.043 122.082 440.809 122.082C440.426 122.082 440.129 122.021 439.918 121.9C439.707 121.779 439.559 121.621 439.473 121.426C439.387 121.227 439.344 120.811 439.344 120.178V116.598H438.57V115.777H439.344V114.236L440.393 113.604V115.777H441.453V116.598H440.393V120.236C440.393 120.537 440.41 120.73 440.445 120.816C440.484 120.902 440.545 120.971 440.627 121.021C440.713 121.072 440.834 121.098 440.99 121.098C441.107 121.098 441.262 121.084 441.453 121.057Z" fill="black"/>
<mask id="path-54-inside-2_113_3279" fill="white">
<path fill-rule="evenodd" clip-rule="evenodd" d="M349.602 153.86C354.884 146.601 358 137.664 358 128C358 117.399 354.25 107.673 348.005 100.076C376.183 101.032 402.094 110.921 422.996 127C402.489 142.775 377.161 152.591 349.602 153.86Z"/>
</mask>
<path fill-rule="evenodd" clip-rule="evenodd" d="M349.602 153.86C354.884 146.601 358 137.664 358 128C358 117.399 354.25 107.673 348.005 100.076C376.183 101.032 402.094 110.921 422.996 127C402.489 142.775 377.161 152.591 349.602 153.86Z" fill="#D9D9D9"/>
<path d="M349.602 153.86L347.985 152.683L345.536 156.049L349.694 155.858L349.602 153.86ZM348.005 100.076L348.073 98.0775L343.65 97.9274L346.46 101.346L348.005 100.076ZM422.996 127L424.216 128.585L426.277 127L424.216 125.415L422.996 127ZM351.22 155.037C356.742 147.447 360 138.101 360 128H356C356 137.227 353.026 145.754 347.985 152.683L351.22 155.037ZM360 128C360 116.918 356.079 106.747 349.55 98.8062L346.46 101.346C352.422 108.598 356 117.879 356 128H360ZM347.938 102.075C375.683 103.017 401.194 112.753 421.777 128.585L424.216 125.415C402.993 109.09 376.682 99.0481 348.073 98.0775L347.938 102.075ZM421.777 125.415C401.584 140.948 376.647 150.613 349.51 151.862L349.694 155.858C377.676 154.57 403.395 144.601 424.216 128.585L421.777 125.415Z" fill="black" mask="url(#path-54-inside-2_113_3279)"/>
<path d="M370.521 127.758C370.521 126.883 370.652 126.148 370.914 125.555C371.109 125.117 371.375 124.725 371.711 124.377C372.051 124.029 372.422 123.771 372.824 123.604C373.359 123.377 373.977 123.264 374.676 123.264C375.941 123.264 376.953 123.656 377.711 124.441C378.473 125.227 378.854 126.318 378.854 127.717C378.854 129.104 378.477 130.189 377.723 130.975C376.969 131.756 375.961 132.146 374.699 132.146C373.422 132.146 372.406 131.758 371.652 130.98C370.898 130.199 370.521 129.125 370.521 127.758ZM372.309 127.699C372.309 128.672 372.533 129.41 372.982 129.914C373.432 130.414 374.002 130.664 374.693 130.664C375.385 130.664 375.951 130.416 376.393 129.92C376.838 129.42 377.061 128.672 377.061 127.676C377.061 126.691 376.844 125.957 376.41 125.473C375.98 124.988 375.408 124.746 374.693 124.746C373.979 124.746 373.402 124.992 372.965 125.484C372.527 125.973 372.309 126.711 372.309 127.699ZM381.777 132H380.131V125.777H381.66V126.662C381.922 126.244 382.156 125.969 382.363 125.836C382.574 125.703 382.812 125.637 383.078 125.637C383.453 125.637 383.814 125.74 384.162 125.947L383.652 127.383C383.375 127.203 383.117 127.113 382.879 127.113C382.648 127.113 382.453 127.178 382.293 127.307C382.133 127.432 382.006 127.66 381.912 127.992C381.822 128.324 381.777 129.02 381.777 130.078V132Z" fill="black"/>
<path d="M420.398 139.889C420.398 138.736 420.719 137.883 421.359 137.328C421.895 136.867 422.547 136.637 423.316 136.637C424.172 136.637 424.871 136.918 425.414 137.48C425.957 138.039 426.229 138.812 426.229 139.801C426.229 140.602 426.107 141.232 425.865 141.693C425.627 142.15 425.277 142.506 424.816 142.76C424.359 143.014 423.859 143.141 423.316 143.141C422.445 143.141 421.74 142.861 421.201 142.303C420.666 141.744 420.398 140.939 420.398 139.889ZM421.482 139.889C421.482 140.686 421.656 141.283 422.004 141.682C422.352 142.076 422.789 142.273 423.316 142.273C423.84 142.273 424.275 142.074 424.623 141.676C424.971 141.277 425.145 140.67 425.145 139.854C425.145 139.084 424.969 138.502 424.617 138.107C424.27 137.709 423.836 137.51 423.316 137.51C422.789 137.51 422.352 137.707 422.004 138.102C421.656 138.496 421.482 139.092 421.482 139.889ZM432.721 141.986V143H427.043C427.035 142.746 427.076 142.502 427.166 142.268C427.311 141.881 427.541 141.5 427.857 141.125C428.178 140.75 428.639 140.316 429.24 139.824C430.174 139.059 430.805 138.453 431.133 138.008C431.461 137.559 431.625 137.135 431.625 136.736C431.625 136.318 431.475 135.967 431.174 135.682C430.877 135.393 430.488 135.248 430.008 135.248C429.5 135.248 429.094 135.4 428.789 135.705C428.484 136.01 428.33 136.432 428.326 136.971L427.242 136.859C427.316 136.051 427.596 135.436 428.08 135.014C428.564 134.588 429.215 134.375 430.031 134.375C430.855 134.375 431.508 134.604 431.988 135.061C432.469 135.518 432.709 136.084 432.709 136.76C432.709 137.104 432.639 137.441 432.498 137.773C432.357 138.105 432.123 138.455 431.795 138.822C431.471 139.189 430.93 139.693 430.172 140.334C429.539 140.865 429.133 141.227 428.953 141.418C428.773 141.605 428.625 141.795 428.508 141.986H432.721Z" fill="black"/>
<line x1="539" y1="182" x2="562" y2="182" stroke="black" stroke-width="2"/>
<line x1="444" y1="168" x2="474" y2="168" stroke="black" stroke-width="2"/>
<line x1="444" y1="197" x2="474" y2="197" stroke="black" stroke-width="2"/>
<path d="M453.852 161.232C453.461 161.564 453.084 161.799 452.721 161.936C452.361 162.072 451.975 162.141 451.561 162.141C450.877 162.141 450.352 161.975 449.984 161.643C449.617 161.307 449.434 160.879 449.434 160.359C449.434 160.055 449.502 159.777 449.639 159.527C449.779 159.273 449.961 159.07 450.184 158.918C450.41 158.766 450.664 158.65 450.945 158.572C451.152 158.518 451.465 158.465 451.883 158.414C452.734 158.312 453.361 158.191 453.764 158.051C453.768 157.906 453.77 157.814 453.77 157.775C453.77 157.346 453.67 157.043 453.471 156.867C453.201 156.629 452.801 156.51 452.27 156.51C451.773 156.51 451.406 156.598 451.168 156.773C450.934 156.945 450.76 157.252 450.646 157.693L449.615 157.553C449.709 157.111 449.863 156.756 450.078 156.486C450.293 156.213 450.604 156.004 451.01 155.859C451.416 155.711 451.887 155.637 452.422 155.637C452.953 155.637 453.385 155.699 453.717 155.824C454.049 155.949 454.293 156.107 454.449 156.299C454.605 156.486 454.715 156.725 454.777 157.014C454.812 157.193 454.83 157.518 454.83 157.986V159.393C454.83 160.373 454.852 160.994 454.895 161.256C454.941 161.514 455.031 161.762 455.164 162H454.062C453.953 161.781 453.883 161.525 453.852 161.232ZM453.764 158.877C453.381 159.033 452.807 159.166 452.041 159.275C451.607 159.338 451.301 159.408 451.121 159.486C450.941 159.564 450.803 159.68 450.705 159.832C450.607 159.98 450.559 160.146 450.559 160.33C450.559 160.611 450.664 160.846 450.875 161.033C451.09 161.221 451.402 161.314 451.812 161.314C452.219 161.314 452.58 161.227 452.896 161.051C453.213 160.871 453.445 160.627 453.594 160.318C453.707 160.08 453.764 159.729 453.764 159.264V158.877Z" fill="black"/>
<path d="M450.764 191H449.785V182.41H450.84V185.475C451.285 184.916 451.854 184.637 452.545 184.637C452.928 184.637 453.289 184.715 453.629 184.871C453.973 185.023 454.254 185.24 454.473 185.521C454.695 185.799 454.869 186.135 454.994 186.529C455.119 186.924 455.182 187.346 455.182 187.795C455.182 188.861 454.918 189.686 454.391 190.268C453.863 190.85 453.23 191.141 452.492 191.141C451.758 191.141 451.182 190.834 450.764 190.221V191ZM450.752 187.842C450.752 188.588 450.854 189.127 451.057 189.459C451.389 190.002 451.838 190.273 452.404 190.273C452.865 190.273 453.264 190.074 453.6 189.676C453.936 189.273 454.104 188.676 454.104 187.883C454.104 187.07 453.941 186.471 453.617 186.084C453.297 185.697 452.908 185.504 452.451 185.504C451.99 185.504 451.592 185.705 451.256 186.107C450.92 186.506 450.752 187.084 450.752 187.842Z" fill="black"/>
<path d="M543.398 173.889C543.398 172.736 543.719 171.883 544.359 171.328C544.895 170.867 545.547 170.637 546.316 170.637C547.172 170.637 547.871 170.918 548.414 171.48C548.957 172.039 549.229 172.812 549.229 173.801C549.229 174.602 549.107 175.232 548.865 175.693C548.627 176.15 548.277 176.506 547.816 176.76C547.359 177.014 546.859 177.141 546.316 177.141C545.445 177.141 544.74 176.861 544.201 176.303C543.666 175.744 543.398 174.939 543.398 173.889ZM544.482 173.889C544.482 174.686 544.656 175.283 545.004 175.682C545.352 176.076 545.789 176.273 546.316 176.273C546.84 176.273 547.275 176.074 547.623 175.676C547.971 175.277 548.145 174.67 548.145 173.854C548.145 173.084 547.969 172.502 547.617 172.107C547.27 171.709 546.836 171.51 546.316 171.51C545.789 171.51 545.352 171.707 545.004 172.102C544.656 172.496 544.482 173.092 544.482 173.889ZM554.549 177V176.086C554.064 176.789 553.406 177.141 552.574 177.141C552.207 177.141 551.863 177.07 551.543 176.93C551.227 176.789 550.99 176.613 550.834 176.402C550.682 176.188 550.574 175.926 550.512 175.617C550.469 175.41 550.447 175.082 550.447 174.633V170.777H551.502V174.229C551.502 174.779 551.523 175.15 551.566 175.342C551.633 175.619 551.773 175.838 551.988 175.998C552.203 176.154 552.469 176.232 552.785 176.232C553.102 176.232 553.398 176.152 553.676 175.992C553.953 175.828 554.148 175.607 554.262 175.33C554.379 175.049 554.438 174.643 554.438 174.111V170.777H555.492V177H554.549ZM559.453 176.057L559.605 176.988C559.309 177.051 559.043 177.082 558.809 177.082C558.426 177.082 558.129 177.021 557.918 176.9C557.707 176.779 557.559 176.621 557.473 176.426C557.387 176.227 557.344 175.811 557.344 175.178V171.598H556.57V170.777H557.344V169.236L558.393 168.604V170.777H559.453V171.598H558.393V175.236C558.393 175.537 558.41 175.73 558.445 175.816C558.484 175.902 558.545 175.971 558.627 176.021C558.713 176.072 558.834 176.098 558.99 176.098C559.107 176.098 559.262 176.084 559.453 176.057Z" fill="black"/>
<mask id="path-64-inside-3_113_3279" fill="white">
<path fill-rule="evenodd" clip-rule="evenodd" d="M467.602 208.86C472.884 201.601 476 192.664 476 183C476 172.399 472.25 162.673 466.005 155.076C494.183 156.032 520.094 165.921 540.996 182C520.489 197.775 495.161 207.591 467.602 208.86Z"/>
</mask>
<path fill-rule="evenodd" clip-rule="evenodd" d="M467.602 208.86C472.884 201.601 476 192.664 476 183C476 172.399 472.25 162.673 466.005 155.076C494.183 156.032 520.094 165.921 540.996 182C520.489 197.775 495.161 207.591 467.602 208.86Z" fill="#D9D9D9"/>
<path d="M467.602 208.86L465.985 207.683L463.536 211.049L467.694 210.858L467.602 208.86ZM466.005 155.076L466.073 153.077L461.65 152.927L464.46 156.346L466.005 155.076ZM540.996 182L542.216 183.585L544.277 182L542.216 180.415L540.996 182ZM469.22 210.037C474.742 202.447 478 193.101 478 183H474C474 192.227 471.026 200.754 465.985 207.683L469.22 210.037ZM478 183C478 171.918 474.079 161.747 467.55 153.806L464.46 156.346C470.422 163.598 474 172.879 474 183H478ZM465.938 157.075C493.683 158.017 519.194 167.753 539.777 183.585L542.216 180.415C520.993 164.09 494.682 154.048 466.073 153.077L465.938 157.075ZM539.777 180.415C519.584 195.948 494.647 205.613 467.51 206.862L467.694 210.858C495.676 209.57 521.395 199.601 542.216 183.585L539.777 180.415Z" fill="black" mask="url(#path-64-inside-3_113_3279)"/>
<path d="M488.521 182.758C488.521 181.883 488.652 181.148 488.914 180.555C489.109 180.117 489.375 179.725 489.711 179.377C490.051 179.029 490.422 178.771 490.824 178.604C491.359 178.377 491.977 178.264 492.676 178.264C493.941 178.264 494.953 178.656 495.711 179.441C496.473 180.227 496.854 181.318 496.854 182.717C496.854 184.104 496.477 185.189 495.723 185.975C494.969 186.756 493.961 187.146 492.699 187.146C491.422 187.146 490.406 186.758 489.652 185.98C488.898 185.199 488.521 184.125 488.521 182.758ZM490.309 182.699C490.309 183.672 490.533 184.41 490.982 184.914C491.432 185.414 492.002 185.664 492.693 185.664C493.385 185.664 493.951 185.416 494.393 184.92C494.838 184.42 495.061 183.672 495.061 182.676C495.061 181.691 494.844 180.957 494.41 180.473C493.98 179.988 493.408 179.746 492.693 179.746C491.979 179.746 491.402 179.992 490.965 180.484C490.527 180.973 490.309 181.711 490.309 182.699ZM499.777 187H498.131V180.777H499.66V181.662C499.922 181.244 500.156 180.969 500.363 180.836C500.574 180.703 500.812 180.637 501.078 180.637C501.453 180.637 501.814 180.74 502.162 180.947L501.652 182.383C501.375 182.203 501.117 182.113 500.879 182.113C500.648 182.113 500.453 182.178 500.293 182.307C500.133 182.432 500.006 182.66 499.912 182.992C499.822 183.324 499.777 184.02 499.777 185.078V187Z" fill="black"/>
<path d="M538.398 194.889C538.398 193.736 538.719 192.883 539.359 192.328C539.895 191.867 540.547 191.637 541.316 191.637C542.172 191.637 542.871 191.918 543.414 192.48C543.957 193.039 544.229 193.812 544.229 194.801C544.229 195.602 544.107 196.232 543.865 196.693C543.627 197.15 543.277 197.506 542.816 197.76C542.359 198.014 541.859 198.141 541.316 198.141C540.445 198.141 539.74 197.861 539.201 197.303C538.666 196.744 538.398 195.939 538.398 194.889ZM539.482 194.889C539.482 195.686 539.656 196.283 540.004 196.682C540.352 197.076 540.789 197.273 541.316 197.273C541.84 197.273 542.275 197.074 542.623 196.676C542.971 196.277 543.145 195.67 543.145 194.854C543.145 194.084 542.969 193.502 542.617 193.107C542.27 192.709 541.836 192.51 541.316 192.51C540.789 192.51 540.352 192.707 540.004 193.102C539.656 193.496 539.482 194.092 539.482 194.889ZM545.184 195.732L546.238 195.592C546.359 196.189 546.564 196.621 546.854 196.887C547.146 197.148 547.502 197.279 547.92 197.279C548.416 197.279 548.834 197.107 549.174 196.764C549.518 196.42 549.689 195.994 549.689 195.486C549.689 195.002 549.531 194.604 549.215 194.291C548.898 193.975 548.496 193.816 548.008 193.816C547.809 193.816 547.561 193.855 547.264 193.934L547.381 193.008C547.451 193.016 547.508 193.02 547.551 193.02C548 193.02 548.404 192.902 548.764 192.668C549.123 192.434 549.303 192.072 549.303 191.584C549.303 191.197 549.172 190.877 548.91 190.623C548.648 190.369 548.311 190.242 547.896 190.242C547.486 190.242 547.145 190.371 546.871 190.629C546.598 190.887 546.422 191.273 546.344 191.789L545.289 191.602C545.418 190.895 545.711 190.348 546.168 189.961C546.625 189.57 547.193 189.375 547.873 189.375C548.342 189.375 548.773 189.477 549.168 189.68C549.562 189.879 549.863 190.152 550.07 190.5C550.281 190.848 550.387 191.217 550.387 191.607C550.387 191.979 550.287 192.316 550.088 192.621C549.889 192.926 549.594 193.168 549.203 193.348C549.711 193.465 550.105 193.709 550.387 194.08C550.668 194.447 550.809 194.908 550.809 195.463C550.809 196.213 550.535 196.85 549.988 197.373C549.441 197.893 548.75 198.152 547.914 198.152C547.16 198.152 546.533 197.928 546.033 197.479C545.537 197.029 545.254 196.447 545.184 195.732Z" fill="black"/>
<line x1="657" y1="239" x2="680" y2="239" stroke="black" stroke-width="2"/>
<line x1="562" y1="225" x2="592" y2="225" stroke="black" stroke-width="2"/>
<line x1="562" y1="254" x2="592" y2="254" stroke="black" stroke-width="2"/>
<path d="M571.852 218.232C571.461 218.564 571.084 218.799 570.721 218.936C570.361 219.072 569.975 219.141 569.561 219.141C568.877 219.141 568.352 218.975 567.984 218.643C567.617 218.307 567.434 217.879 567.434 217.359C567.434 217.055 567.502 216.777 567.639 216.527C567.779 216.273 567.961 216.07 568.184 215.918C568.41 215.766 568.664 215.65 568.945 215.572C569.152 215.518 569.465 215.465 569.883 215.414C570.734 215.312 571.361 215.191 571.764 215.051C571.768 214.906 571.77 214.814 571.77 214.775C571.77 214.346 571.67 214.043 571.471 213.867C571.201 213.629 570.801 213.51 570.27 213.51C569.773 213.51 569.406 213.598 569.168 213.773C568.934 213.945 568.76 214.252 568.646 214.693L567.615 214.553C567.709 214.111 567.863 213.756 568.078 213.486C568.293 213.213 568.604 213.004 569.01 212.859C569.416 212.711 569.887 212.637 570.422 212.637C570.953 212.637 571.385 212.699 571.717 212.824C572.049 212.949 572.293 213.107 572.449 213.299C572.605 213.486 572.715 213.725 572.777 214.014C572.812 214.193 572.83 214.518 572.83 214.986V216.393C572.83 217.373 572.852 217.994 572.895 218.256C572.941 218.514 573.031 218.762 573.164 219H572.062C571.953 218.781 571.883 218.525 571.852 218.232ZM571.764 215.877C571.381 216.033 570.807 216.166 570.041 216.275C569.607 216.338 569.301 216.408 569.121 216.486C568.941 216.564 568.803 216.68 568.705 216.832C568.607 216.98 568.559 217.146 568.559 217.33C568.559 217.611 568.664 217.846 568.875 218.033C569.09 218.221 569.402 218.314 569.812 218.314C570.219 218.314 570.58 218.227 570.896 218.051C571.213 217.871 571.445 217.627 571.594 217.318C571.707 217.08 571.764 216.729 571.764 216.264V215.877Z" fill="black"/>
<path d="M568.764 248H567.785V239.41H568.84V242.475C569.285 241.916 569.854 241.637 570.545 241.637C570.928 241.637 571.289 241.715 571.629 241.871C571.973 242.023 572.254 242.24 572.473 242.521C572.695 242.799 572.869 243.135 572.994 243.529C573.119 243.924 573.182 244.346 573.182 244.795C573.182 245.861 572.918 246.686 572.391 247.268C571.863 247.85 571.23 248.141 570.492 248.141C569.758 248.141 569.182 247.834 568.764 247.221V248ZM568.752 244.842C568.752 245.588 568.854 246.127 569.057 246.459C569.389 247.002 569.838 247.273 570.404 247.273C570.865 247.273 571.264 247.074 571.6 246.676C571.936 246.273 572.104 245.676 572.104 244.883C572.104 244.07 571.941 243.471 571.617 243.084C571.297 242.697 570.908 242.504 570.451 242.504C569.99 242.504 569.592 242.705 569.256 243.107C568.92 243.506 568.752 244.084 568.752 244.842Z" fill="black"/>
<path d="M661.398 230.889C661.398 229.736 661.719 228.883 662.359 228.328C662.895 227.867 663.547 227.637 664.316 227.637C665.172 227.637 665.871 227.918 666.414 228.48C666.957 229.039 667.229 229.812 667.229 230.801C667.229 231.602 667.107 232.232 666.865 232.693C666.627 233.15 666.277 233.506 665.816 233.76C665.359 234.014 664.859 234.141 664.316 234.141C663.445 234.141 662.74 233.861 662.201 233.303C661.666 232.744 661.398 231.939 661.398 230.889ZM662.482 230.889C662.482 231.686 662.656 232.283 663.004 232.682C663.352 233.076 663.789 233.273 664.316 233.273C664.84 233.273 665.275 233.074 665.623 232.676C665.971 232.277 666.145 231.67 666.145 230.854C666.145 230.084 665.969 229.502 665.617 229.107C665.27 228.709 664.836 228.51 664.316 228.51C663.789 228.51 663.352 228.707 663.004 229.102C662.656 229.496 662.482 230.092 662.482 230.889ZM672.549 234V233.086C672.064 233.789 671.406 234.141 670.574 234.141C670.207 234.141 669.863 234.07 669.543 233.93C669.227 233.789 668.99 233.613 668.834 233.402C668.682 233.188 668.574 232.926 668.512 232.617C668.469 232.41 668.447 232.082 668.447 231.633V227.777H669.502V231.229C669.502 231.779 669.523 232.15 669.566 232.342C669.633 232.619 669.773 232.838 669.988 232.998C670.203 233.154 670.469 233.232 670.785 233.232C671.102 233.232 671.398 233.152 671.676 232.992C671.953 232.828 672.148 232.607 672.262 232.33C672.379 232.049 672.438 231.643 672.438 231.111V227.777H673.492V234H672.549ZM677.453 233.057L677.605 233.988C677.309 234.051 677.043 234.082 676.809 234.082C676.426 234.082 676.129 234.021 675.918 233.9C675.707 233.779 675.559 233.621 675.473 233.426C675.387 233.227 675.344 232.811 675.344 232.178V228.598H674.57V227.777H675.344V226.236L676.393 225.604V227.777H677.453V228.598H676.393V232.236C676.393 232.537 676.41 232.73 676.445 232.816C676.484 232.902 676.545 232.971 676.627 233.021C676.713 233.072 676.834 233.098 676.99 233.098C677.107 233.098 677.262 233.084 677.453 233.057Z" fill="black"/>
<mask id="path-74-inside-4_113_3279" fill="white">
<path fill-rule="evenodd" clip-rule="evenodd" d="M585.602 265.86C590.884 258.601 594 249.664 594 240C594 229.399 590.25 219.673 584.005 212.076C612.183 213.032 638.094 222.921 658.996 239C638.489 254.775 613.161 264.591 585.602 265.86Z"/>
</mask>
<path fill-rule="evenodd" clip-rule="evenodd" d="M585.602 265.86C590.884 258.601 594 249.664 594 240C594 229.399 590.25 219.673 584.005 212.076C612.183 213.032 638.094 222.921 658.996 239C638.489 254.775 613.161 264.591 585.602 265.86Z" fill="#D9D9D9"/>
<path d="M585.602 265.86L583.985 264.683L581.536 268.049L585.694 267.858L585.602 265.86ZM584.005 212.076L584.073 210.077L579.65 209.927L582.46 213.346L584.005 212.076ZM658.996 239L660.216 240.585L662.277 239L660.216 237.415L658.996 239ZM587.22 267.037C592.742 259.447 596 250.101 596 240H592C592 249.227 589.026 257.754 583.985 264.683L587.22 267.037ZM596 240C596 228.918 592.079 218.747 585.55 210.806L582.46 213.346C588.422 220.598 592 229.879 592 240H596ZM583.938 214.075C611.683 215.017 637.194 224.753 657.777 240.585L660.216 237.415C638.993 221.09 612.682 211.048 584.073 210.077L583.938 214.075ZM657.777 237.415C637.584 252.948 612.647 262.613 585.51 263.862L585.694 267.858C613.676 266.57 639.395 256.601 660.216 240.585L657.777 237.415Z" fill="black" mask="url(#path-74-inside-4_113_3279)"/>
<path d="M606.521 239.758C606.521 238.883 606.652 238.148 606.914 237.555C607.109 237.117 607.375 236.725 607.711 236.377C608.051 236.029 608.422 235.771 608.824 235.604C609.359 235.377 609.977 235.264 610.676 235.264C611.941 235.264 612.953 235.656 613.711 236.441C614.473 237.227 614.854 238.318 614.854 239.717C614.854 241.104 614.477 242.189 613.723 242.975C612.969 243.756 611.961 244.146 610.699 244.146C609.422 244.146 608.406 243.758 607.652 242.98C606.898 242.199 606.521 241.125 606.521 239.758ZM608.309 239.699C608.309 240.672 608.533 241.41 608.982 241.914C609.432 242.414 610.002 242.664 610.693 242.664C611.385 242.664 611.951 242.416 612.393 241.92C612.838 241.42 613.061 240.672 613.061 239.676C613.061 238.691 612.844 237.957 612.41 237.473C611.98 236.988 611.408 236.746 610.693 236.746C609.979 236.746 609.402 236.992 608.965 237.484C608.527 237.973 608.309 238.711 608.309 239.699ZM617.777 244H616.131V237.777H617.66V238.662C617.922 238.244 618.156 237.969 618.363 237.836C618.574 237.703 618.812 237.637 619.078 237.637C619.453 237.637 619.814 237.74 620.162 237.947L619.652 239.383C619.375 239.203 619.117 239.113 618.879 239.113C618.648 239.113 618.453 239.178 618.293 239.307C618.133 239.432 618.006 239.66 617.912 239.992C617.822 240.324 617.777 241.02 617.777 242.078V244Z" fill="black"/>
<path d="M656.398 251.889C656.398 250.736 656.719 249.883 657.359 249.328C657.895 248.867 658.547 248.637 659.316 248.637C660.172 248.637 660.871 248.918 661.414 249.48C661.957 250.039 662.229 250.812 662.229 251.801C662.229 252.602 662.107 253.232 661.865 253.693C661.627 254.15 661.277 254.506 660.816 254.76C660.359 255.014 659.859 255.141 659.316 255.141C658.445 255.141 657.74 254.861 657.201 254.303C656.666 253.744 656.398 252.939 656.398 251.889ZM657.482 251.889C657.482 252.686 657.656 253.283 658.004 253.682C658.352 254.076 658.789 254.273 659.316 254.273C659.84 254.273 660.275 254.074 660.623 253.676C660.971 253.277 661.145 252.67 661.145 251.854C661.145 251.084 660.969 250.502 660.617 250.107C660.27 249.709 659.836 249.51 659.316 249.51C658.789 249.51 658.352 249.707 658.004 250.102C657.656 250.496 657.482 251.092 657.482 251.889ZM666.559 255V252.943H662.832V251.977L666.752 246.41H667.613V251.977H668.773V252.943H667.613V255H666.559ZM666.559 251.977V248.104L663.869 251.977H666.559Z" fill="black"/>
<line x1="775" y1="296" x2="798" y2="296" stroke="black" stroke-width="2"/>
<line x1="680" y1="282" x2="710" y2="282" stroke="black" stroke-width="2"/>
<line x1="680" y1="311" x2="710" y2="311" stroke="black" stroke-width="2"/>
<path d="M689.852 275.232C689.461 275.564 689.084 275.799 688.721 275.936C688.361 276.072 687.975 276.141 687.561 276.141C686.877 276.141 686.352 275.975 685.984 275.643C685.617 275.307 685.434 274.879 685.434 274.359C685.434 274.055 685.502 273.777 685.639 273.527C685.779 273.273 685.961 273.07 686.184 272.918C686.41 272.766 686.664 272.65 686.945 272.572C687.152 272.518 687.465 272.465 687.883 272.414C688.734 272.312 689.361 272.191 689.764 272.051C689.768 271.906 689.77 271.814 689.77 271.775C689.77 271.346 689.67 271.043 689.471 270.867C689.201 270.629 688.801 270.51 688.27 270.51C687.773 270.51 687.406 270.598 687.168 270.773C686.934 270.945 686.76 271.252 686.646 271.693L685.615 271.553C685.709 271.111 685.863 270.756 686.078 270.486C686.293 270.213 686.604 270.004 687.01 269.859C687.416 269.711 687.887 269.637 688.422 269.637C688.953 269.637 689.385 269.699 689.717 269.824C690.049 269.949 690.293 270.107 690.449 270.299C690.605 270.486 690.715 270.725 690.777 271.014C690.812 271.193 690.83 271.518 690.83 271.986V273.393C690.83 274.373 690.852 274.994 690.895 275.256C690.941 275.514 691.031 275.762 691.164 276H690.062C689.953 275.781 689.883 275.525 689.852 275.232ZM689.764 272.877C689.381 273.033 688.807 273.166 688.041 273.275C687.607 273.338 687.301 273.408 687.121 273.486C686.941 273.564 686.803 273.68 686.705 273.832C686.607 273.98 686.559 274.146 686.559 274.33C686.559 274.611 686.664 274.846 686.875 275.033C687.09 275.221 687.402 275.314 687.812 275.314C688.219 275.314 688.58 275.227 688.896 275.051C689.213 274.871 689.445 274.627 689.594 274.318C689.707 274.08 689.764 273.729 689.764 273.264V272.877Z" fill="black"/>
<path d="M686.764 305H685.785V296.41H686.84V299.475C687.285 298.916 687.854 298.637 688.545 298.637C688.928 298.637 689.289 298.715 689.629 298.871C689.973 299.023 690.254 299.24 690.473 299.521C690.695 299.799 690.869 300.135 690.994 300.529C691.119 300.924 691.182 301.346 691.182 301.795C691.182 302.861 690.918 303.686 690.391 304.268C689.863 304.85 689.23 305.141 688.492 305.141C687.758 305.141 687.182 304.834 686.764 304.221V305ZM686.752 301.842C686.752 302.588 686.854 303.127 687.057 303.459C687.389 304.002 687.838 304.273 688.404 304.273C688.865 304.273 689.264 304.074 689.6 303.676C689.936 303.273 690.104 302.676 690.104 301.883C690.104 301.07 689.941 300.471 689.617 300.084C689.297 299.697 688.908 299.504 688.451 299.504C687.99 299.504 687.592 299.705 687.256 300.107C686.92 300.506 686.752 301.084 686.752 301.842Z" fill="black"/>
<path d="M779.398 287.889C779.398 286.736 779.719 285.883 780.359 285.328C780.895 284.867 781.547 284.637 782.316 284.637C783.172 284.637 783.871 284.918 784.414 285.48C784.957 286.039 785.229 286.812 785.229 287.801C785.229 288.602 785.107 289.232 784.865 289.693C784.627 290.15 784.277 290.506 783.816 290.76C783.359 291.014 782.859 291.141 782.316 291.141C781.445 291.141 780.74 290.861 780.201 290.303C779.666 289.744 779.398 288.939 779.398 287.889ZM780.482 287.889C780.482 288.686 780.656 289.283 781.004 289.682C781.352 290.076 781.789 290.273 782.316 290.273C782.84 290.273 783.275 290.074 783.623 289.676C783.971 289.277 784.145 288.67 784.145 287.854C784.145 287.084 783.969 286.502 783.617 286.107C783.27 285.709 782.836 285.51 782.316 285.51C781.789 285.51 781.352 285.707 781.004 286.102C780.656 286.496 780.482 287.092 780.482 287.889ZM790.549 291V290.086C790.064 290.789 789.406 291.141 788.574 291.141C788.207 291.141 787.863 291.07 787.543 290.93C787.227 290.789 786.99 290.613 786.834 290.402C786.682 290.188 786.574 289.926 786.512 289.617C786.469 289.41 786.447 289.082 786.447 288.633V284.777H787.502V288.229C787.502 288.779 787.523 289.15 787.566 289.342C787.633 289.619 787.773 289.838 787.988 289.998C788.203 290.154 788.469 290.232 788.785 290.232C789.102 290.232 789.398 290.152 789.676 289.992C789.953 289.828 790.148 289.607 790.262 289.33C790.379 289.049 790.438 288.643 790.438 288.111V284.777H791.492V291H790.549ZM795.453 290.057L795.605 290.988C795.309 291.051 795.043 291.082 794.809 291.082C794.426 291.082 794.129 291.021 793.918 290.9C793.707 290.779 793.559 290.621 793.473 290.426C793.387 290.227 793.344 289.811 793.344 289.178V285.598H792.57V284.777H793.344V283.236L794.393 282.604V284.777H795.453V285.598H794.393V289.236C794.393 289.537 794.41 289.73 794.445 289.816C794.484 289.902 794.545 289.971 794.627 290.021C794.713 290.072 794.834 290.098 794.99 290.098C795.107 290.098 795.262 290.084 795.453 290.057Z" fill="black"/>
<mask id="path-84-inside-5_113_3279" fill="white">
<path fill-rule="evenodd" clip-rule="evenodd" d="M703.602 322.86C708.884 315.601 712 306.664 712 297C712 286.399 708.25 276.673 702.005 269.076C730.183 270.032 756.094 279.921 776.996 296C756.489 311.775 731.161 321.591 703.602 322.86Z"/>
</mask>
<path fill-rule="evenodd" clip-rule="evenodd" d="M703.602 322.86C708.884 315.601 712 306.664 712 297C712 286.399 708.25 276.673 702.005 269.076C730.183 270.032 756.094 279.921 776.996 296C756.489 311.775 731.161 321.591 703.602 322.86Z" fill="#D9D9D9"/>
<path d="M703.602 322.86L701.985 321.683L699.536 325.049L703.694 324.858L703.602 322.86ZM702.005 269.076L702.073 267.077L697.65 266.927L700.46 270.346L702.005 269.076ZM776.996 296L778.216 297.585L780.277 296L778.216 294.415L776.996 296ZM705.22 324.037C710.742 316.447 714 307.101 714 297H710C710 306.227 707.026 314.754 701.985 321.683L705.22 324.037ZM714 297C714 285.918 710.079 275.747 703.55 267.806L700.46 270.346C706.422 277.598 710 286.879 710 297H714ZM701.938 271.075C729.683 272.017 755.194 281.753 775.777 297.585L778.216 294.415C756.993 278.09 730.682 268.048 702.073 267.077L701.938 271.075ZM775.777 294.415C755.584 309.948 730.647 319.613 703.51 320.862L703.694 324.858C731.676 323.57 757.395 313.601 778.216 297.585L775.777 294.415Z" fill="black" mask="url(#path-84-inside-5_113_3279)"/>
<path d="M724.521 296.758C724.521 295.883 724.652 295.148 724.914 294.555C725.109 294.117 725.375 293.725 725.711 293.377C726.051 293.029 726.422 292.771 726.824 292.604C727.359 292.377 727.977 292.264 728.676 292.264C729.941 292.264 730.953 292.656 731.711 293.441C732.473 294.227 732.854 295.318 732.854 296.717C732.854 298.104 732.477 299.189 731.723 299.975C730.969 300.756 729.961 301.146 728.699 301.146C727.422 301.146 726.406 300.758 725.652 299.98C724.898 299.199 724.521 298.125 724.521 296.758ZM726.309 296.699C726.309 297.672 726.533 298.41 726.982 298.914C727.432 299.414 728.002 299.664 728.693 299.664C729.385 299.664 729.951 299.416 730.393 298.92C730.838 298.42 731.061 297.672 731.061 296.676C731.061 295.691 730.844 294.957 730.41 294.473C729.98 293.988 729.408 293.746 728.693 293.746C727.979 293.746 727.402 293.992 726.965 294.484C726.527 294.973 726.309 295.711 726.309 296.699ZM735.777 301H734.131V294.777H735.66V295.662C735.922 295.244 736.156 294.969 736.363 294.836C736.574 294.703 736.812 294.637 737.078 294.637C737.453 294.637 737.814 294.74 738.162 294.947L737.652 296.383C737.375 296.203 737.117 296.113 736.879 296.113C736.648 296.113 736.453 296.178 736.293 296.307C736.133 296.432 736.006 296.66 735.912 296.992C735.822 297.324 735.777 298.02 735.777 299.078V301Z" fill="black"/>
<path d="M774.398 308.889C774.398 307.736 774.719 306.883 775.359 306.328C775.895 305.867 776.547 305.637 777.316 305.637C778.172 305.637 778.871 305.918 779.414 306.48C779.957 307.039 780.229 307.812 780.229 308.801C780.229 309.602 780.107 310.232 779.865 310.693C779.627 311.15 779.277 311.506 778.816 311.76C778.359 312.014 777.859 312.141 777.316 312.141C776.445 312.141 775.74 311.861 775.201 311.303C774.666 310.744 774.398 309.939 774.398 308.889ZM775.482 308.889C775.482 309.686 775.656 310.283 776.004 310.682C776.352 311.076 776.789 311.273 777.316 311.273C777.84 311.273 778.275 311.074 778.623 310.676C778.971 310.277 779.145 309.67 779.145 308.854C779.145 308.084 778.969 307.502 778.617 307.107C778.27 306.709 777.836 306.51 777.316 306.51C776.789 306.51 776.352 306.707 776.004 307.102C775.656 307.496 775.482 308.092 775.482 308.889ZM781.178 309.75L782.285 309.656C782.367 310.195 782.557 310.602 782.854 310.875C783.154 311.145 783.516 311.279 783.938 311.279C784.445 311.279 784.875 311.088 785.227 310.705C785.578 310.322 785.754 309.814 785.754 309.182C785.754 308.58 785.584 308.105 785.244 307.758C784.908 307.41 784.467 307.236 783.92 307.236C783.58 307.236 783.273 307.314 783 307.471C782.727 307.623 782.512 307.822 782.355 308.068L781.365 307.939L782.197 303.527H786.469V304.535H783.041L782.578 306.844C783.094 306.484 783.635 306.305 784.201 306.305C784.951 306.305 785.584 306.564 786.1 307.084C786.615 307.604 786.873 308.271 786.873 309.088C786.873 309.865 786.646 310.537 786.193 311.104C785.643 311.799 784.891 312.146 783.938 312.146C783.156 312.146 782.518 311.928 782.021 311.49C781.529 311.053 781.248 310.473 781.178 309.75Z" fill="black"/>
<line x1="893" y1="353" x2="916" y2="353" stroke="black" stroke-width="2"/>
<line x1="798" y1="339" x2="828" y2="339" stroke="black" stroke-width="2"/>
<line x1="798" y1="368" x2="828" y2="368" stroke="black" stroke-width="2"/>
<path d="M807.852 332.232C807.461 332.564 807.084 332.799 806.721 332.936C806.361 333.072 805.975 333.141 805.561 333.141C804.877 333.141 804.352 332.975 803.984 332.643C803.617 332.307 803.434 331.879 803.434 331.359C803.434 331.055 803.502 330.777 803.639 330.527C803.779 330.273 803.961 330.07 804.184 329.918C804.41 329.766 804.664 329.65 804.945 329.572C805.152 329.518 805.465 329.465 805.883 329.414C806.734 329.312 807.361 329.191 807.764 329.051C807.768 328.906 807.77 328.814 807.77 328.775C807.77 328.346 807.67 328.043 807.471 327.867C807.201 327.629 806.801 327.51 806.27 327.51C805.773 327.51 805.406 327.598 805.168 327.773C804.934 327.945 804.76 328.252 804.646 328.693L803.615 328.553C803.709 328.111 803.863 327.756 804.078 327.486C804.293 327.213 804.604 327.004 805.01 326.859C805.416 326.711 805.887 326.637 806.422 326.637C806.953 326.637 807.385 326.699 807.717 326.824C808.049 326.949 808.293 327.107 808.449 327.299C808.605 327.486 808.715 327.725 808.777 328.014C808.812 328.193 808.83 328.518 808.83 328.986V330.393C808.83 331.373 808.852 331.994 808.895 332.256C808.941 332.514 809.031 332.762 809.164 333H808.062C807.953 332.781 807.883 332.525 807.852 332.232ZM807.764 329.877C807.381 330.033 806.807 330.166 806.041 330.275C805.607 330.338 805.301 330.408 805.121 330.486C804.941 330.564 804.803 330.68 804.705 330.832C804.607 330.98 804.559 331.146 804.559 331.33C804.559 331.611 804.664 331.846 804.875 332.033C805.09 332.221 805.402 332.314 805.812 332.314C806.219 332.314 806.58 332.227 806.896 332.051C807.213 331.871 807.445 331.627 807.594 331.318C807.707 331.08 807.764 330.729 807.764 330.264V329.877Z" fill="black"/>
<path d="M804.764 362H803.785V353.41H804.84V356.475C805.285 355.916 805.854 355.637 806.545 355.637C806.928 355.637 807.289 355.715 807.629 355.871C807.973 356.023 808.254 356.24 808.473 356.521C808.695 356.799 808.869 357.135 808.994 357.529C809.119 357.924 809.182 358.346 809.182 358.795C809.182 359.861 808.918 360.686 808.391 361.268C807.863 361.85 807.23 362.141 806.492 362.141C805.758 362.141 805.182 361.834 804.764 361.221V362ZM804.752 358.842C804.752 359.588 804.854 360.127 805.057 360.459C805.389 361.002 805.838 361.273 806.404 361.273C806.865 361.273 807.264 361.074 807.6 360.676C807.936 360.273 808.104 359.676 808.104 358.883C808.104 358.07 807.941 357.471 807.617 357.084C807.297 356.697 806.908 356.504 806.451 356.504C805.99 356.504 805.592 356.705 805.256 357.107C804.92 357.506 804.752 358.084 804.752 358.842Z" fill="black"/>
<path d="M897.398 344.889C897.398 343.736 897.719 342.883 898.359 342.328C898.895 341.867 899.547 341.637 900.316 341.637C901.172 341.637 901.871 341.918 902.414 342.48C902.957 343.039 903.229 343.812 903.229 344.801C903.229 345.602 903.107 346.232 902.865 346.693C902.627 347.15 902.277 347.506 901.816 347.76C901.359 348.014 900.859 348.141 900.316 348.141C899.445 348.141 898.74 347.861 898.201 347.303C897.666 346.744 897.398 345.939 897.398 344.889ZM898.482 344.889C898.482 345.686 898.656 346.283 899.004 346.682C899.352 347.076 899.789 347.273 900.316 347.273C900.84 347.273 901.275 347.074 901.623 346.676C901.971 346.277 902.145 345.67 902.145 344.854C902.145 344.084 901.969 343.502 901.617 343.107C901.27 342.709 900.836 342.51 900.316 342.51C899.789 342.51 899.352 342.707 899.004 343.102C898.656 343.496 898.482 344.092 898.482 344.889ZM908.549 348V347.086C908.064 347.789 907.406 348.141 906.574 348.141C906.207 348.141 905.863 348.07 905.543 347.93C905.227 347.789 904.99 347.613 904.834 347.402C904.682 347.188 904.574 346.926 904.512 346.617C904.469 346.41 904.447 346.082 904.447 345.633V341.777H905.502V345.229C905.502 345.779 905.523 346.15 905.566 346.342C905.633 346.619 905.773 346.838 905.988 346.998C906.203 347.154 906.469 347.232 906.785 347.232C907.102 347.232 907.398 347.152 907.676 346.992C907.953 346.828 908.148 346.607 908.262 346.33C908.379 346.049 908.438 345.643 908.438 345.111V341.777H909.492V348H908.549ZM913.453 347.057L913.605 347.988C913.309 348.051 913.043 348.082 912.809 348.082C912.426 348.082 912.129 348.021 911.918 347.9C911.707 347.779 911.559 347.621 911.473 347.426C911.387 347.227 911.344 346.811 911.344 346.178V342.598H910.57V341.777H911.344V340.236L912.393 339.604V341.777H913.453V342.598H912.393V346.236C912.393 346.537 912.41 346.73 912.445 346.816C912.484 346.902 912.545 346.971 912.627 347.021C912.713 347.072 912.834 347.098 912.99 347.098C913.107 347.098 913.262 347.084 913.453 347.057Z" fill="black"/>
<mask id="path-94-inside-6_113_3279" fill="white">
<path fill-rule="evenodd" clip-rule="evenodd" d="M821.602 379.86C826.884 372.601 830 363.664 830 354C830 343.399 826.25 333.673 820.005 326.076C848.183 327.032 874.094 336.921 894.996 353C874.489 368.775 849.161 378.591 821.602 379.86Z"/>
</mask>
<path fill-rule="evenodd" clip-rule="evenodd" d="M821.602 379.86C826.884 372.601 830 363.664 830 354C830 343.399 826.25 333.673 820.005 326.076C848.183 327.032 874.094 336.921 894.996 353C874.489 368.775 849.161 378.591 821.602 379.86Z" fill="#D9D9D9"/>
<path d="M821.602 379.86L819.985 378.683L817.536 382.049L821.694 381.858L821.602 379.86ZM820.005 326.076L820.073 324.077L815.65 323.927L818.46 327.346L820.005 326.076ZM894.996 353L896.216 354.585L898.277 353L896.216 351.415L894.996 353ZM823.22 381.037C828.742 373.447 832 364.101 832 354H828C828 363.227 825.026 371.754 819.985 378.683L823.22 381.037ZM832 354C832 342.918 828.079 332.747 821.55 324.806L818.46 327.346C824.422 334.598 828 343.879 828 354H832ZM819.938 328.075C847.683 329.017 873.194 338.753 893.777 354.585L896.216 351.415C874.993 335.09 848.682 325.048 820.073 324.077L819.938 328.075ZM893.777 351.415C873.584 366.948 848.647 376.613 821.51 377.862L821.694 381.858C849.676 380.57 875.395 370.601 896.216 354.585L893.777 351.415Z" fill="black" mask="url(#path-94-inside-6_113_3279)"/>
<path d="M842.521 353.758C842.521 352.883 842.652 352.148 842.914 351.555C843.109 351.117 843.375 350.725 843.711 350.377C844.051 350.029 844.422 349.771 844.824 349.604C845.359 349.377 845.977 349.264 846.676 349.264C847.941 349.264 848.953 349.656 849.711 350.441C850.473 351.227 850.854 352.318 850.854 353.717C850.854 355.104 850.477 356.189 849.723 356.975C848.969 357.756 847.961 358.146 846.699 358.146C845.422 358.146 844.406 357.758 843.652 356.98C842.898 356.199 842.521 355.125 842.521 353.758ZM844.309 353.699C844.309 354.672 844.533 355.41 844.982 355.914C845.432 356.414 846.002 356.664 846.693 356.664C847.385 356.664 847.951 356.416 848.393 355.92C848.838 355.42 849.061 354.672 849.061 353.676C849.061 352.691 848.844 351.957 848.41 351.473C847.98 350.988 847.408 350.746 846.693 350.746C845.979 350.746 845.402 350.992 844.965 351.484C844.527 351.973 844.309 352.711 844.309 353.699ZM853.777 358H852.131V351.777H853.66V352.662C853.922 352.244 854.156 351.969 854.363 351.836C854.574 351.703 854.812 351.637 855.078 351.637C855.453 351.637 855.814 351.74 856.162 351.947L855.652 353.383C855.375 353.203 855.117 353.113 854.879 353.113C854.648 353.113 854.453 353.178 854.293 353.307C854.133 353.432 854.006 353.66 853.912 353.992C853.822 354.324 853.777 355.02 853.777 356.078V358Z" fill="black"/>
<path d="M893.398 365.889C893.398 364.736 893.719 363.883 894.359 363.328C894.895 362.867 895.547 362.637 896.316 362.637C897.172 362.637 897.871 362.918 898.414 363.48C898.957 364.039 899.229 364.812 899.229 365.801C899.229 366.602 899.107 367.232 898.865 367.693C898.627 368.15 898.277 368.506 897.816 368.76C897.359 369.014 896.859 369.141 896.316 369.141C895.445 369.141 894.74 368.861 894.201 368.303C893.666 367.744 893.398 366.939 893.398 365.889ZM894.482 365.889C894.482 366.686 894.656 367.283 895.004 367.682C895.352 368.076 895.789 368.273 896.316 368.273C896.84 368.273 897.275 368.074 897.623 367.676C897.971 367.277 898.145 366.67 898.145 365.854C898.145 365.084 897.969 364.502 897.617 364.107C897.27 363.709 896.836 363.51 896.316 363.51C895.789 363.51 895.352 363.707 895.004 364.102C894.656 364.496 894.482 365.092 894.482 365.889ZM905.65 362.514L904.602 362.596C904.508 362.182 904.375 361.881 904.203 361.693C903.918 361.393 903.566 361.242 903.148 361.242C902.812 361.242 902.518 361.336 902.264 361.523C901.932 361.766 901.67 362.119 901.479 362.584C901.287 363.049 901.188 363.711 901.18 364.57C901.434 364.184 901.744 363.896 902.111 363.709C902.479 363.521 902.863 363.428 903.266 363.428C903.969 363.428 904.566 363.688 905.059 364.207C905.555 364.723 905.803 365.391 905.803 366.211C905.803 366.75 905.686 367.252 905.451 367.717C905.221 368.178 904.902 368.531 904.496 368.777C904.09 369.023 903.629 369.146 903.113 369.146C902.234 369.146 901.518 368.824 900.963 368.18C900.408 367.531 900.131 366.465 900.131 364.98C900.131 363.32 900.438 362.113 901.051 361.359C901.586 360.703 902.307 360.375 903.213 360.375C903.889 360.375 904.441 360.564 904.871 360.943C905.305 361.322 905.564 361.846 905.65 362.514ZM901.344 366.217C901.344 366.58 901.42 366.928 901.572 367.26C901.729 367.592 901.945 367.846 902.223 368.021C902.5 368.193 902.791 368.279 903.096 368.279C903.541 368.279 903.924 368.1 904.244 367.74C904.564 367.381 904.725 366.893 904.725 366.275C904.725 365.682 904.566 365.215 904.25 364.875C903.934 364.531 903.535 364.359 903.055 364.359C902.578 364.359 902.174 364.531 901.842 364.875C901.51 365.215 901.344 365.662 901.344 366.217Z" fill="black"/>
<line x1="1011" y1="410" x2="1034" y2="410" stroke="black" stroke-width="2"/>
<line x1="916" y1="396" x2="946" y2="396" stroke="black" stroke-width="2"/>
<line x1="916" y1="425" x2="946" y2="425" stroke="black" stroke-width="2"/>
<path d="M925.852 389.232C925.461 389.564 925.084 389.799 924.721 389.936C924.361 390.072 923.975 390.141 923.561 390.141C922.877 390.141 922.352 389.975 921.984 389.643C921.617 389.307 921.434 388.879 921.434 388.359C921.434 388.055 921.502 387.777 921.639 387.527C921.779 387.273 921.961 387.07 922.184 386.918C922.41 386.766 922.664 386.65 922.945 386.572C923.152 386.518 923.465 386.465 923.883 386.414C924.734 386.312 925.361 386.191 925.764 386.051C925.768 385.906 925.77 385.814 925.77 385.775C925.77 385.346 925.67 385.043 925.471 384.867C925.201 384.629 924.801 384.51 924.27 384.51C923.773 384.51 923.406 384.598 923.168 384.773C922.934 384.945 922.76 385.252 922.646 385.693L921.615 385.553C921.709 385.111 921.863 384.756 922.078 384.486C922.293 384.213 922.604 384.004 923.01 383.859C923.416 383.711 923.887 383.637 924.422 383.637C924.953 383.637 925.385 383.699 925.717 383.824C926.049 383.949 926.293 384.107 926.449 384.299C926.605 384.486 926.715 384.725 926.777 385.014C926.812 385.193 926.83 385.518 926.83 385.986V387.393C926.83 388.373 926.852 388.994 926.895 389.256C926.941 389.514 927.031 389.762 927.164 390H926.062C925.953 389.781 925.883 389.525 925.852 389.232ZM925.764 386.877C925.381 387.033 924.807 387.166 924.041 387.275C923.607 387.338 923.301 387.408 923.121 387.486C922.941 387.564 922.803 387.68 922.705 387.832C922.607 387.98 922.559 388.146 922.559 388.33C922.559 388.611 922.664 388.846 922.875 389.033C923.09 389.221 923.402 389.314 923.812 389.314C924.219 389.314 924.58 389.227 924.896 389.051C925.213 388.871 925.445 388.627 925.594 388.318C925.707 388.08 925.764 387.729 925.764 387.264V386.877Z" fill="black"/>
<path d="M922.764 419H921.785V410.41H922.84V413.475C923.285 412.916 923.854 412.637 924.545 412.637C924.928 412.637 925.289 412.715 925.629 412.871C925.973 413.023 926.254 413.24 926.473 413.521C926.695 413.799 926.869 414.135 926.994 414.529C927.119 414.924 927.182 415.346 927.182 415.795C927.182 416.861 926.918 417.686 926.391 418.268C925.863 418.85 925.23 419.141 924.492 419.141C923.758 419.141 923.182 418.834 922.764 418.221V419ZM922.752 415.842C922.752 416.588 922.854 417.127 923.057 417.459C923.389 418.002 923.838 418.273 924.404 418.273C924.865 418.273 925.264 418.074 925.6 417.676C925.936 417.273 926.104 416.676 926.104 415.883C926.104 415.07 925.941 414.471 925.617 414.084C925.297 413.697 924.908 413.504 924.451 413.504C923.99 413.504 923.592 413.705 923.256 414.107C922.92 414.506 922.752 415.084 922.752 415.842Z" fill="black"/>
<path d="M1015.4 401.889C1015.4 400.736 1015.72 399.883 1016.36 399.328C1016.89 398.867 1017.55 398.637 1018.32 398.637C1019.17 398.637 1019.87 398.918 1020.41 399.48C1020.96 400.039 1021.23 400.812 1021.23 401.801C1021.23 402.602 1021.11 403.232 1020.87 403.693C1020.63 404.15 1020.28 404.506 1019.82 404.76C1019.36 405.014 1018.86 405.141 1018.32 405.141C1017.45 405.141 1016.74 404.861 1016.2 404.303C1015.67 403.744 1015.4 402.939 1015.4 401.889ZM1016.48 401.889C1016.48 402.686 1016.66 403.283 1017 403.682C1017.35 404.076 1017.79 404.273 1018.32 404.273C1018.84 404.273 1019.28 404.074 1019.62 403.676C1019.97 403.277 1020.14 402.67 1020.14 401.854C1020.14 401.084 1019.97 400.502 1019.62 400.107C1019.27 399.709 1018.84 399.51 1018.32 399.51C1017.79 399.51 1017.35 399.707 1017 400.102C1016.66 400.496 1016.48 401.092 1016.48 401.889ZM1026.55 405V404.086C1026.06 404.789 1025.41 405.141 1024.57 405.141C1024.21 405.141 1023.86 405.07 1023.54 404.93C1023.23 404.789 1022.99 404.613 1022.83 404.402C1022.68 404.188 1022.57 403.926 1022.51 403.617C1022.47 403.41 1022.45 403.082 1022.45 402.633V398.777H1023.5V402.229C1023.5 402.779 1023.52 403.15 1023.57 403.342C1023.63 403.619 1023.77 403.838 1023.99 403.998C1024.2 404.154 1024.47 404.232 1024.79 404.232C1025.1 404.232 1025.4 404.152 1025.68 403.992C1025.95 403.828 1026.15 403.607 1026.26 403.33C1026.38 403.049 1026.44 402.643 1026.44 402.111V398.777H1027.49V405H1026.55ZM1031.45 404.057L1031.61 404.988C1031.31 405.051 1031.04 405.082 1030.81 405.082C1030.43 405.082 1030.13 405.021 1029.92 404.9C1029.71 404.779 1029.56 404.621 1029.47 404.426C1029.39 404.227 1029.34 403.811 1029.34 403.178V399.598H1028.57V398.777H1029.34V397.236L1030.39 396.604V398.777H1031.45V399.598H1030.39V403.236C1030.39 403.537 1030.41 403.73 1030.45 403.816C1030.48 403.902 1030.54 403.971 1030.63 404.021C1030.71 404.072 1030.83 404.098 1030.99 404.098C1031.11 404.098 1031.26 404.084 1031.45 404.057Z" fill="black"/>
<mask id="path-104-inside-7_113_3279" fill="white">
<path fill-rule="evenodd" clip-rule="evenodd" d="M939.602 436.86C944.884 429.601 948 420.664 948 411C948 400.399 944.25 390.673 938.005 383.076C966.183 384.032 992.094 393.921 1013 410C992.489 425.775 967.161 435.591 939.602 436.86Z"/>
</mask>
<path fill-rule="evenodd" clip-rule="evenodd" d="M939.602 436.86C944.884 429.601 948 420.664 948 411C948 400.399 944.25 390.673 938.005 383.076C966.183 384.032 992.094 393.921 1013 410C992.489 425.775 967.161 435.591 939.602 436.86Z" fill="#D9D9D9"/>
<path d="M939.602 436.86L937.985 435.683L935.536 439.049L939.694 438.858L939.602 436.86ZM938.005 383.076L938.073 381.077L933.65 380.927L936.46 384.346L938.005 383.076ZM1013 410L1014.22 411.585L1016.28 410L1014.22 408.415L1013 410ZM941.22 438.037C946.742 430.447 950 421.101 950 411H946C946 420.227 943.026 428.754 937.985 435.683L941.22 438.037ZM950 411C950 399.918 946.079 389.747 939.55 381.806L936.46 384.346C942.422 391.598 946 400.879 946 411H950ZM937.938 385.075C965.683 386.017 991.194 395.753 1011.78 411.585L1014.22 408.415C992.993 392.09 966.682 382.048 938.073 381.077L937.938 385.075ZM1011.78 408.415C991.584 423.948 966.647 433.613 939.51 434.862L939.694 438.858C967.676 437.57 993.395 427.601 1014.22 411.585L1011.78 408.415Z" fill="black" mask="url(#path-104-inside-7_113_3279)"/>
<path d="M960.521 410.758C960.521 409.883 960.652 409.148 960.914 408.555C961.109 408.117 961.375 407.725 961.711 407.377C962.051 407.029 962.422 406.771 962.824 406.604C963.359 406.377 963.977 406.264 964.676 406.264C965.941 406.264 966.953 406.656 967.711 407.441C968.473 408.227 968.854 409.318 968.854 410.717C968.854 412.104 968.477 413.189 967.723 413.975C966.969 414.756 965.961 415.146 964.699 415.146C963.422 415.146 962.406 414.758 961.652 413.98C960.898 413.199 960.521 412.125 960.521 410.758ZM962.309 410.699C962.309 411.672 962.533 412.41 962.982 412.914C963.432 413.414 964.002 413.664 964.693 413.664C965.385 413.664 965.951 413.416 966.393 412.92C966.838 412.42 967.061 411.672 967.061 410.676C967.061 409.691 966.844 408.957 966.41 408.473C965.98 407.988 965.408 407.746 964.693 407.746C963.979 407.746 963.402 407.992 962.965 408.484C962.527 408.973 962.309 409.711 962.309 410.699ZM971.777 415H970.131V408.777H971.66V409.662C971.922 409.244 972.156 408.969 972.363 408.836C972.574 408.703 972.812 408.637 973.078 408.637C973.453 408.637 973.814 408.74 974.162 408.947L973.652 410.383C973.375 410.203 973.117 410.113 972.879 410.113C972.648 410.113 972.453 410.178 972.293 410.307C972.133 410.432 972.006 410.66 971.912 410.992C971.822 411.324 971.777 412.02 971.777 413.078V415Z" fill="black"/>
<rect x="40.5" y="21.5" width="1002" height="433" stroke="black" stroke-dasharray="2 2"/>
<path d="M40.5215 6.75781C40.5215 5.88281 40.6523 5.14844 40.9141 4.55469C41.1094 4.11719 41.375 3.72461 41.7109 3.37695C42.0508 3.0293 42.4219 2.77148 42.8242 2.60352C43.3594 2.37695 43.9766 2.26367 44.6758 2.26367C45.9414 2.26367 46.9531 2.65625 47.7109 3.44141C48.4727 4.22656 48.8535 5.31836 48.8535 6.7168C48.8535 8.10352 48.4766 9.18945 47.7227 9.97461C46.9688 10.7559 45.9609 11.1465 44.6992 11.1465C43.4219 11.1465 42.4062 10.7578 41.6523 9.98047C40.8984 9.19922 40.5215 8.125 40.5215 6.75781ZM42.3086 6.69922C42.3086 7.67188 42.5332 8.41016 42.9824 8.91406C43.4316 9.41406 44.002 9.66406 44.6934 9.66406C45.3848 9.66406 45.9512 9.41602 46.3926 8.91992C46.8379 8.41992 47.0605 7.67188 47.0605 6.67578C47.0605 5.69141 46.8438 4.95703 46.4102 4.47266C45.9805 3.98828 45.4082 3.74609 44.6934 3.74609C43.9785 3.74609 43.4023 3.99219 42.9648 4.48438C42.5273 4.97266 42.3086 5.71094 42.3086 6.69922ZM51.7773 11H50.1309V4.77734H51.6602V5.66211C51.9219 5.24414 52.1562 4.96875 52.3633 4.83594C52.5742 4.70312 52.8125 4.63672 53.0781 4.63672C53.4531 4.63672 53.8145 4.74023 54.1621 4.94727L53.6523 6.38281C53.375 6.20312 53.1172 6.11328 52.8789 6.11328C52.6484 6.11328 52.4531 6.17773 52.293 6.30664C52.1328 6.43164 52.0059 6.66016 51.9121 6.99219C51.8223 7.32422 51.7773 8.01953 51.7773 9.07812V11ZM55.9375 6.36523C55.5117 6.18555 55.2012 5.93945 55.0059 5.62695C54.8145 5.31055 54.7188 4.96484 54.7188 4.58984C54.7188 3.94922 54.9414 3.41992 55.3867 3.00195C55.8359 2.58398 56.4727 2.375 57.2969 2.375C58.1133 2.375 58.7461 2.58398 59.1953 3.00195C59.6484 3.41992 59.875 3.94922 59.875 4.58984C59.875 4.98828 59.7715 5.34375 59.5645 5.65625C59.3574 5.96484 59.0664 6.20117 58.6914 6.36523C59.168 6.55664 59.5293 6.83594 59.7754 7.20312C60.0254 7.57031 60.1504 7.99414 60.1504 8.47461C60.1504 9.26758 59.8965 9.91211 59.3887 10.4082C58.8848 10.9043 58.2129 11.1523 57.373 11.1523C56.5918 11.1523 55.9414 10.9473 55.4219 10.5371C54.8086 10.0527 54.502 9.38867 54.502 8.54492C54.502 8.08008 54.6172 7.6543 54.8477 7.26758C55.0781 6.87695 55.4414 6.57617 55.9375 6.36523ZM56.2773 4.70703C56.2773 5.03516 56.3691 5.29102 56.5527 5.47461C56.7402 5.6582 56.9883 5.75 57.2969 5.75C57.6094 5.75 57.8594 5.6582 58.0469 5.47461C58.2344 5.28711 58.3281 5.0293 58.3281 4.70117C58.3281 4.39258 58.2344 4.14648 58.0469 3.96289C57.8633 3.77539 57.6191 3.68164 57.3145 3.68164C56.998 3.68164 56.7461 3.77539 56.5586 3.96289C56.3711 4.15039 56.2773 4.39844 56.2773 4.70703ZM56.125 8.38672C56.125 8.83984 56.2402 9.19336 56.4707 9.44727C56.7051 9.70117 56.9961 9.82812 57.3438 9.82812C57.6836 9.82812 57.9648 9.70703 58.1875 9.46484C58.4102 9.21875 58.5215 8.86523 58.5215 8.4043C58.5215 8.00195 58.4082 7.67969 58.1816 7.4375C57.9551 7.19141 57.668 7.06836 57.3203 7.06836C56.918 7.06836 56.6172 7.20703 56.418 7.48438C56.2227 7.76172 56.125 8.0625 56.125 8.38672ZM62.7871 11L60.7363 2.41016H62.5117L63.8066 8.31055L65.377 2.41016H67.4395L68.9453 8.41016L70.2637 2.41016H72.0098L69.9238 11H68.084L66.373 4.57812L64.668 11H62.7871ZM73.6738 6.67578L72.1797 6.40625C72.3477 5.80469 72.6367 5.35938 73.0469 5.07031C73.457 4.78125 74.0664 4.63672 74.875 4.63672C75.6094 4.63672 76.1562 4.72461 76.5156 4.90039C76.875 5.07227 77.127 5.29297 77.2715 5.5625C77.4199 5.82812 77.4941 6.31836 77.4941 7.0332L77.4766 8.95508C77.4766 9.50195 77.502 9.90625 77.5527 10.168C77.6074 10.4258 77.707 10.7031 77.8516 11H76.2227C76.1797 10.8906 76.127 10.7285 76.0645 10.5137C76.0371 10.416 76.0176 10.3516 76.0059 10.3203C75.7246 10.5938 75.4238 10.7988 75.1035 10.9355C74.7832 11.0723 74.4414 11.1406 74.0781 11.1406C73.4375 11.1406 72.9316 10.9668 72.5605 10.6191C72.1934 10.2715 72.0098 9.83203 72.0098 9.30078C72.0098 8.94922 72.0938 8.63672 72.2617 8.36328C72.4297 8.08594 72.6641 7.875 72.9648 7.73047C73.2695 7.58203 73.707 7.45312 74.2773 7.34375C75.0469 7.19922 75.5801 7.06445 75.877 6.93945V6.77539C75.877 6.45898 75.7988 6.23438 75.6426 6.10156C75.4863 5.96484 75.1914 5.89648 74.7578 5.89648C74.4648 5.89648 74.2363 5.95508 74.0723 6.07227C73.9082 6.18555 73.7754 6.38672 73.6738 6.67578ZM75.877 8.01172C75.666 8.08203 75.332 8.16602 74.875 8.26367C74.418 8.36133 74.1191 8.45703 73.9785 8.55078C73.7637 8.70312 73.6562 8.89648 73.6562 9.13086C73.6562 9.36133 73.7422 9.56055 73.9141 9.72852C74.0859 9.89648 74.3047 9.98047 74.5703 9.98047C74.8672 9.98047 75.1504 9.88281 75.4199 9.6875C75.6191 9.53906 75.75 9.35742 75.8125 9.14258C75.8555 9.00195 75.877 8.73438 75.877 8.33984V8.01172ZM78.3438 4.77734H80.0957L81.584 9.19531L83.0371 4.77734H84.7422L82.5449 10.7656L82.1523 11.8496C82.0078 12.2129 81.8691 12.4902 81.7363 12.6816C81.6074 12.873 81.457 13.0273 81.2852 13.1445C81.1172 13.2656 80.9082 13.3594 80.6582 13.4258C80.4121 13.4922 80.1328 13.5254 79.8203 13.5254C79.5039 13.5254 79.1934 13.4922 78.8887 13.4258L78.7422 12.1367C79 12.1875 79.2324 12.2129 79.4395 12.2129C79.8223 12.2129 80.1055 12.0996 80.2891 11.873C80.4727 11.6504 80.6133 11.3652 80.7109 11.0176L78.3438 4.77734Z" fill="black"/>
</svg>
