<svg width="320" height="152" viewBox="0 0 320 152" fill="none" xmlns="http://www.w3.org/2000/svg">
<mask id="path-1-inside-1_62_557" fill="white">
<path fill-rule="evenodd" clip-rule="evenodd" d="M112 20H60V70H112C125.807 70 137 58.8071 137 45C137 31.1929 125.807 20 112 20Z"/>
</mask>
<path d="M60 20V18H58V20H60ZM60 70H58V72H60V70ZM60 22H112V18H60V22ZM62 70V20H58V70H62ZM112 68H60V72H112V68ZM135 45C135 57.7025 124.703 68 112 68V72C126.912 72 139 59.9117 139 45H135ZM112 22C124.703 22 135 32.2975 135 45H139C139 30.0883 126.912 18 112 18V22Z" fill="black" mask="url(#path-1-inside-1_62_557)"/>
<line x1="38" y1="30" x2="60" y2="30" stroke="black" stroke-width="2"/>
<line x1="38" y1="60" x2="60" y2="60" stroke="black" stroke-width="2"/>
<line x1="137" y1="45" x2="159" y2="45" stroke="black" stroke-width="2"/>
<path d="M47.8516 23.2324C47.4609 23.5645 47.084 23.7988 46.7207 23.9355C46.3613 24.0723 45.9746 24.1406 45.5605 24.1406C44.877 24.1406 44.3516 23.9746 43.9844 23.6426C43.6172 23.3066 43.4336 22.8789 43.4336 22.3594C43.4336 22.0547 43.502 21.7773 43.6387 21.5273C43.7793 21.2734 43.9609 21.0703 44.1836 20.918C44.4102 20.7656 44.6641 20.6504 44.9453 20.5723C45.1523 20.5176 45.4648 20.4648 45.8828 20.4141C46.7344 20.3125 47.3613 20.1914 47.7637 20.0508C47.7676 19.9062 47.7695 19.8145 47.7695 19.7754C47.7695 19.3457 47.6699 19.043 47.4707 18.8672C47.2012 18.6289 46.8008 18.5098 46.2695 18.5098C45.7734 18.5098 45.4062 18.5977 45.168 18.7734C44.9336 18.9453 44.7598 19.252 44.6465 19.6934L43.6152 19.5527C43.709 19.1113 43.8633 18.7559 44.0781 18.4863C44.293 18.2129 44.6035 18.0039 45.0098 17.8594C45.416 17.7109 45.8867 17.6367 46.4219 17.6367C46.9531 17.6367 47.3848 17.6992 47.7168 17.8242C48.0488 17.9492 48.293 18.1074 48.4492 18.2988C48.6055 18.4863 48.7148 18.7246 48.7773 19.0137C48.8125 19.1934 48.8301 19.5176 48.8301 19.9863V21.3926C48.8301 22.373 48.8516 22.9941 48.8945 23.2559C48.9414 23.5137 49.0312 23.7617 49.1641 24H48.0625C47.9531 23.7812 47.8828 23.5254 47.8516 23.2324ZM47.7637 20.877C47.3809 21.0332 46.8066 21.166 46.041 21.2754C45.6074 21.3379 45.3008 21.4082 45.1211 21.4863C44.9414 21.5645 44.8027 21.6797 44.7051 21.832C44.6074 21.9805 44.5586 22.1465 44.5586 22.3301C44.5586 22.6113 44.6641 22.8457 44.875 23.0332C45.0898 23.2207 45.4023 23.3145 45.8125 23.3145C46.2188 23.3145 46.5801 23.2266 46.8965 23.0508C47.2129 22.8711 47.4453 22.627 47.5938 22.3184C47.707 22.0801 47.7637 21.7285 47.7637 21.2637V20.877Z" fill="black"/>
<path d="M44.7637 56H43.7852V47.4102H44.8398V50.4746C45.2852 49.916 45.8535 49.6367 46.5449 49.6367C46.9277 49.6367 47.2891 49.7148 47.6289 49.8711C47.9727 50.0234 48.2539 50.2402 48.4727 50.5215C48.6953 50.7988 48.8691 51.1348 48.9941 51.5293C49.1191 51.9238 49.1816 52.3457 49.1816 52.7949C49.1816 53.8613 48.918 54.6855 48.3906 55.2676C47.8633 55.8496 47.2305 56.1406 46.4922 56.1406C45.7578 56.1406 45.1816 55.834 44.7637 55.2207V56ZM44.752 52.8418C44.752 53.5879 44.8535 54.127 45.0566 54.459C45.3887 55.002 45.8379 55.2734 46.4043 55.2734C46.8652 55.2734 47.2637 55.0742 47.5996 54.6758C47.9355 54.2734 48.1035 53.6758 48.1035 52.8828C48.1035 52.0703 47.9414 51.4707 47.6172 51.084C47.2969 50.6973 46.9082 50.5039 46.4512 50.5039C45.9902 50.5039 45.5918 50.7051 45.2559 51.1074C44.9199 51.5059 44.752 52.084 44.752 52.8418Z" fill="black"/>
<path d="M144.398 36.8887C144.398 35.7363 144.719 34.8828 145.359 34.3281C145.895 33.8672 146.547 33.6367 147.316 33.6367C148.172 33.6367 148.871 33.918 149.414 34.4805C149.957 35.0391 150.229 35.8125 150.229 36.8008C150.229 37.6016 150.107 38.2324 149.865 38.6934C149.627 39.1504 149.277 39.5059 148.816 39.7598C148.359 40.0137 147.859 40.1406 147.316 40.1406C146.445 40.1406 145.74 39.8613 145.201 39.3027C144.666 38.7441 144.398 37.9395 144.398 36.8887ZM145.482 36.8887C145.482 37.6855 145.656 38.2832 146.004 38.6816C146.352 39.0762 146.789 39.2734 147.316 39.2734C147.84 39.2734 148.275 39.0742 148.623 38.6758C148.971 38.2773 149.145 37.6699 149.145 36.8535C149.145 36.084 148.969 35.502 148.617 35.1074C148.27 34.709 147.836 34.5098 147.316 34.5098C146.789 34.5098 146.352 34.707 146.004 35.1016C145.656 35.4961 145.482 36.0918 145.482 36.8887ZM155.549 40V39.0859C155.064 39.7891 154.406 40.1406 153.574 40.1406C153.207 40.1406 152.863 40.0703 152.543 39.9297C152.227 39.7891 151.99 39.6133 151.834 39.4023C151.682 39.1875 151.574 38.9258 151.512 38.6172C151.469 38.4102 151.447 38.082 151.447 37.6328V33.7773H152.502V37.2285C152.502 37.7793 152.523 38.1504 152.566 38.3418C152.633 38.6191 152.773 38.8379 152.988 38.998C153.203 39.1543 153.469 39.2324 153.785 39.2324C154.102 39.2324 154.398 39.1523 154.676 38.9922C154.953 38.8281 155.148 38.6074 155.262 38.3301C155.379 38.0488 155.438 37.6426 155.438 37.1113V33.7773H156.492V40H155.549ZM160.453 39.0566L160.605 39.9883C160.309 40.0508 160.043 40.082 159.809 40.082C159.426 40.082 159.129 40.0215 158.918 39.9004C158.707 39.7793 158.559 39.6211 158.473 39.4258C158.387 39.2266 158.344 38.8105 158.344 38.1777V34.5977H157.57V33.7773H158.344V32.2363L159.393 31.6035V33.7773H160.453V34.5977H159.393V38.2363C159.393 38.5371 159.41 38.7305 159.445 38.8164C159.484 38.9023 159.545 38.9707 159.627 39.0215C159.713 39.0723 159.834 39.0977 159.99 39.0977C160.107 39.0977 160.262 39.084 160.453 39.0566Z" fill="black"/>
<path d="M6.85156 23.2324C6.46094 23.5645 6.08398 23.7988 5.7207 23.9355C5.36133 24.0723 4.97461 24.1406 4.56055 24.1406C3.87695 24.1406 3.35156 23.9746 2.98438 23.6426C2.61719 23.3066 2.43359 22.8789 2.43359 22.3594C2.43359 22.0547 2.50195 21.7773 2.63867 21.5273C2.7793 21.2734 2.96094 21.0703 3.18359 20.918C3.41016 20.7656 3.66406 20.6504 3.94531 20.5723C4.15234 20.5176 4.46484 20.4648 4.88281 20.4141C5.73438 20.3125 6.36133 20.1914 6.76367 20.0508C6.76758 19.9062 6.76953 19.8145 6.76953 19.7754C6.76953 19.3457 6.66992 19.043 6.4707 18.8672C6.20117 18.6289 5.80078 18.5098 5.26953 18.5098C4.77344 18.5098 4.40625 18.5977 4.16797 18.7734C3.93359 18.9453 3.75977 19.252 3.64648 19.6934L2.61523 19.5527C2.70898 19.1113 2.86328 18.7559 3.07812 18.4863C3.29297 18.2129 3.60352 18.0039 4.00977 17.8594C4.41602 17.7109 4.88672 17.6367 5.42188 17.6367C5.95312 17.6367 6.38477 17.6992 6.7168 17.8242C7.04883 17.9492 7.29297 18.1074 7.44922 18.2988C7.60547 18.4863 7.71484 18.7246 7.77734 19.0137C7.8125 19.1934 7.83008 19.5176 7.83008 19.9863V21.3926C7.83008 22.373 7.85156 22.9941 7.89453 23.2559C7.94141 23.5137 8.03125 23.7617 8.16406 24H7.0625C6.95312 23.7812 6.88281 23.5254 6.85156 23.2324ZM6.76367 20.877C6.38086 21.0332 5.80664 21.166 5.04102 21.2754C4.60742 21.3379 4.30078 21.4082 4.12109 21.4863C3.94141 21.5645 3.80273 21.6797 3.70508 21.832C3.60742 21.9805 3.55859 22.1465 3.55859 22.3301C3.55859 22.6113 3.66406 22.8457 3.875 23.0332C4.08984 23.2207 4.40234 23.3145 4.8125 23.3145C5.21875 23.3145 5.58008 23.2266 5.89648 23.0508C6.21289 22.8711 6.44531 22.627 6.59375 22.3184C6.70703 22.0801 6.76367 21.7285 6.76367 21.2637V20.877Z" fill="black"/>
<path d="M3.76367 55H2.78516V46.4102H3.83984V49.4746C4.28516 48.916 4.85352 48.6367 5.54492 48.6367C5.92773 48.6367 6.28906 48.7148 6.62891 48.8711C6.97266 49.0234 7.25391 49.2402 7.47266 49.5215C7.69531 49.7988 7.86914 50.1348 7.99414 50.5293C8.11914 50.9238 8.18164 51.3457 8.18164 51.7949C8.18164 52.8613 7.91797 53.6855 7.39062 54.2676C6.86328 54.8496 6.23047 55.1406 5.49219 55.1406C4.75781 55.1406 4.18164 54.834 3.76367 54.2207V55ZM3.75195 51.8418C3.75195 52.5879 3.85352 53.127 4.05664 53.459C4.38867 54.002 4.83789 54.2734 5.4043 54.2734C5.86523 54.2734 6.26367 54.0742 6.59961 53.6758C6.93555 53.2734 7.10352 52.6758 7.10352 51.8828C7.10352 51.0703 6.94141 50.4707 6.61719 50.084C6.29688 49.6973 5.9082 49.5039 5.45117 49.5039C4.99023 49.5039 4.5918 49.7051 4.25586 50.1074C3.91992 50.5059 3.75195 51.084 3.75195 51.8418Z" fill="black"/>
<path d="M6.85156 104.721L7.88867 104.855C7.77539 105.57 7.48438 106.131 7.01562 106.537C6.55078 106.939 5.97852 107.141 5.29883 107.141C4.44727 107.141 3.76172 106.863 3.24219 106.309C2.72656 105.75 2.46875 104.951 2.46875 103.912C2.46875 103.24 2.58008 102.652 2.80273 102.148C3.02539 101.645 3.36328 101.268 3.81641 101.018C4.27344 100.764 4.76953 100.637 5.30469 100.637C5.98047 100.637 6.5332 100.809 6.96289 101.152C7.39258 101.492 7.66797 101.977 7.78906 102.605L6.76367 102.764C6.66602 102.346 6.49219 102.031 6.24219 101.82C5.99609 101.609 5.69727 101.504 5.3457 101.504C4.81445 101.504 4.38281 101.695 4.05078 102.078C3.71875 102.457 3.55273 103.059 3.55273 103.883C3.55273 104.719 3.71289 105.326 4.0332 105.705C4.35352 106.084 4.77148 106.273 5.28711 106.273C5.70117 106.273 6.04688 106.146 6.32422 105.893C6.60156 105.639 6.77734 105.248 6.85156 104.721Z" fill="black"/>
<path d="M302.398 86.8887C302.398 85.7363 302.719 84.8828 303.359 84.3281C303.895 83.8672 304.547 83.6367 305.316 83.6367C306.172 83.6367 306.871 83.918 307.414 84.4805C307.957 85.0391 308.229 85.8125 308.229 86.8008C308.229 87.6016 308.107 88.2324 307.865 88.6934C307.627 89.1504 307.277 89.5059 306.816 89.7598C306.359 90.0137 305.859 90.1406 305.316 90.1406C304.445 90.1406 303.74 89.8613 303.201 89.3027C302.666 88.7441 302.398 87.9395 302.398 86.8887ZM303.482 86.8887C303.482 87.6855 303.656 88.2832 304.004 88.6816C304.352 89.0762 304.789 89.2734 305.316 89.2734C305.84 89.2734 306.275 89.0742 306.623 88.6758C306.971 88.2773 307.145 87.6699 307.145 86.8535C307.145 86.084 306.969 85.502 306.617 85.1074C306.27 84.709 305.836 84.5098 305.316 84.5098C304.789 84.5098 304.352 84.707 304.004 85.1016C303.656 85.4961 303.482 86.0918 303.482 86.8887ZM313.549 90V89.0859C313.064 89.7891 312.406 90.1406 311.574 90.1406C311.207 90.1406 310.863 90.0703 310.543 89.9297C310.227 89.7891 309.99 89.6133 309.834 89.4023C309.682 89.1875 309.574 88.9258 309.512 88.6172C309.469 88.4102 309.447 88.082 309.447 87.6328V83.7773H310.502V87.2285C310.502 87.7793 310.523 88.1504 310.566 88.3418C310.633 88.6191 310.773 88.8379 310.988 88.998C311.203 89.1543 311.469 89.2324 311.785 89.2324C312.102 89.2324 312.398 89.1523 312.676 88.9922C312.953 88.8281 313.148 88.6074 313.262 88.3301C313.379 88.0488 313.438 87.6426 313.438 87.1113V83.7773H314.492V90H313.549ZM318.453 89.0566L318.605 89.9883C318.309 90.0508 318.043 90.082 317.809 90.082C317.426 90.082 317.129 90.0215 316.918 89.9004C316.707 89.7793 316.559 89.6211 316.473 89.4258C316.387 89.2266 316.344 88.8105 316.344 88.1777V84.5977H315.57V83.7773H316.344V82.2363L317.393 81.6035V83.7773H318.453V84.5977H317.393V88.2363C317.393 88.5371 317.41 88.7305 317.445 88.8164C317.484 88.9023 317.545 88.9707 317.627 89.0215C317.713 89.0723 317.834 89.0977 317.99 89.0977C318.107 89.0977 318.262 89.084 318.453 89.0566Z" fill="black"/>
<mask id="path-13-inside-2_62_557" fill="white">
<path fill-rule="evenodd" clip-rule="evenodd" d="M235 71H183V121H235C248.807 121 260 109.807 260 96C260 82.1929 248.807 71 235 71Z"/>
</mask>
<path d="M183 71V69H181V71H183ZM183 121H181V123H183V121ZM183 73H235V69H183V73ZM185 121V71H181V121H185ZM235 119H183V123H235V119ZM258 96C258 108.703 247.703 119 235 119V123C249.912 123 262 110.912 262 96H258ZM235 73C247.703 73 258 83.2975 258 96H262C262 81.0883 249.912 69 235 69V73Z" fill="black" mask="url(#path-13-inside-2_62_557)"/>
<line x1="161" y1="81" x2="183" y2="81" stroke="black" stroke-width="2"/>
<line x1="161" y1="111" x2="183" y2="111" stroke="black" stroke-width="2"/>
<line x1="260" y1="96" x2="282" y2="96" stroke="black" stroke-width="2"/>
<path d="M170.852 74.2324C170.461 74.5645 170.084 74.7988 169.721 74.9355C169.361 75.0723 168.975 75.1406 168.561 75.1406C167.877 75.1406 167.352 74.9746 166.984 74.6426C166.617 74.3066 166.434 73.8789 166.434 73.3594C166.434 73.0547 166.502 72.7773 166.639 72.5273C166.779 72.2734 166.961 72.0703 167.184 71.918C167.41 71.7656 167.664 71.6504 167.945 71.5723C168.152 71.5176 168.465 71.4648 168.883 71.4141C169.734 71.3125 170.361 71.1914 170.764 71.0508C170.768 70.9062 170.77 70.8145 170.77 70.7754C170.77 70.3457 170.67 70.043 170.471 69.8672C170.201 69.6289 169.801 69.5098 169.27 69.5098C168.773 69.5098 168.406 69.5977 168.168 69.7734C167.934 69.9453 167.76 70.252 167.646 70.6934L166.615 70.5527C166.709 70.1113 166.863 69.7559 167.078 69.4863C167.293 69.2129 167.604 69.0039 168.01 68.8594C168.416 68.7109 168.887 68.6367 169.422 68.6367C169.953 68.6367 170.385 68.6992 170.717 68.8242C171.049 68.9492 171.293 69.1074 171.449 69.2988C171.605 69.4863 171.715 69.7246 171.777 70.0137C171.812 70.1934 171.83 70.5176 171.83 70.9863V72.3926C171.83 73.373 171.852 73.9941 171.895 74.2559C171.941 74.5137 172.031 74.7617 172.164 75H171.062C170.953 74.7812 170.883 74.5254 170.852 74.2324ZM170.764 71.877C170.381 72.0332 169.807 72.166 169.041 72.2754C168.607 72.3379 168.301 72.4082 168.121 72.4863C167.941 72.5645 167.803 72.6797 167.705 72.832C167.607 72.9805 167.559 73.1465 167.559 73.3301C167.559 73.6113 167.664 73.8457 167.875 74.0332C168.09 74.2207 168.402 74.3145 168.812 74.3145C169.219 74.3145 169.58 74.2266 169.896 74.0508C170.213 73.8711 170.445 73.627 170.594 73.3184C170.707 73.0801 170.764 72.7285 170.764 72.2637V71.877Z" fill="black"/>
<path d="M167.764 107H166.785V98.4102H167.84V101.475C168.285 100.916 168.854 100.637 169.545 100.637C169.928 100.637 170.289 100.715 170.629 100.871C170.973 101.023 171.254 101.24 171.473 101.521C171.695 101.799 171.869 102.135 171.994 102.529C172.119 102.924 172.182 103.346 172.182 103.795C172.182 104.861 171.918 105.686 171.391 106.268C170.863 106.85 170.23 107.141 169.492 107.141C168.758 107.141 168.182 106.834 167.764 106.221V107ZM167.752 103.842C167.752 104.588 167.854 105.127 168.057 105.459C168.389 106.002 168.838 106.273 169.404 106.273C169.865 106.273 170.264 106.074 170.6 105.676C170.936 105.273 171.104 104.676 171.104 103.883C171.104 103.07 170.941 102.471 170.617 102.084C170.297 101.697 169.908 101.504 169.451 101.504C168.99 101.504 168.592 101.705 168.256 102.107C167.92 102.506 167.752 103.084 167.752 103.842Z" fill="black"/>
<path d="M267.398 87.8887C267.398 86.7363 267.719 85.8828 268.359 85.3281C268.895 84.8672 269.547 84.6367 270.316 84.6367C271.172 84.6367 271.871 84.918 272.414 85.4805C272.957 86.0391 273.229 86.8125 273.229 87.8008C273.229 88.6016 273.107 89.2324 272.865 89.6934C272.627 90.1504 272.277 90.5059 271.816 90.7598C271.359 91.0137 270.859 91.1406 270.316 91.1406C269.445 91.1406 268.74 90.8613 268.201 90.3027C267.666 89.7441 267.398 88.9395 267.398 87.8887ZM268.482 87.8887C268.482 88.6855 268.656 89.2832 269.004 89.6816C269.352 90.0762 269.789 90.2734 270.316 90.2734C270.84 90.2734 271.275 90.0742 271.623 89.6758C271.971 89.2773 272.145 88.6699 272.145 87.8535C272.145 87.084 271.969 86.502 271.617 86.1074C271.27 85.709 270.836 85.5098 270.316 85.5098C269.789 85.5098 269.352 85.707 269.004 86.1016C268.656 86.4961 268.482 87.0918 268.482 87.8887ZM278.549 91V90.0859C278.064 90.7891 277.406 91.1406 276.574 91.1406C276.207 91.1406 275.863 91.0703 275.543 90.9297C275.227 90.7891 274.99 90.6133 274.834 90.4023C274.682 90.1875 274.574 89.9258 274.512 89.6172C274.469 89.4102 274.447 89.082 274.447 88.6328V84.7773H275.502V88.2285C275.502 88.7793 275.523 89.1504 275.566 89.3418C275.633 89.6191 275.773 89.8379 275.988 89.998C276.203 90.1543 276.469 90.2324 276.785 90.2324C277.102 90.2324 277.398 90.1523 277.676 89.9922C277.953 89.8281 278.148 89.6074 278.262 89.3301C278.379 89.0488 278.438 88.6426 278.438 88.1113V84.7773H279.492V91H278.549ZM283.453 90.0566L283.605 90.9883C283.309 91.0508 283.043 91.082 282.809 91.082C282.426 91.082 282.129 91.0215 281.918 90.9004C281.707 90.7793 281.559 90.6211 281.473 90.4258C281.387 90.2266 281.344 89.8105 281.344 89.1777V85.5977H280.57V84.7773H281.344V83.2363L282.393 82.6035V84.7773H283.453V85.5977H282.393V89.2363C282.393 89.5371 282.41 89.7305 282.445 89.8164C282.484 89.9023 282.545 89.9707 282.627 90.0215C282.713 90.0723 282.834 90.0977 282.99 90.0977C283.107 90.0977 283.262 90.084 283.453 90.0566Z" fill="black"/>
<line x1="160" y1="44" x2="160" y2="82" stroke="#FF6B00" stroke-width="2"/>
<line x1="-8.74228e-08" y1="30" x2="38" y2="30" stroke="#FF6B00" stroke-width="2"/>
<line x1="282" y1="96" x2="320" y2="96" stroke="#FF6B00" stroke-width="2"/>
<line x1="-8.74228e-08" y1="60" x2="38" y2="60" stroke="#FF6B00" stroke-width="2"/>
<line x1="-8.74228e-08" y1="111" x2="161" y2="111" stroke="#FF6B00" stroke-width="2"/>
<rect x="19.5" y="0.5" width="274" height="151" stroke="black" stroke-dasharray="2 2"/>
</svg>
