<svg width="527" height="226" viewBox="0 0 527 226" fill="none" xmlns="http://www.w3.org/2000/svg">
<line x1="8.74228e-08" y1="34" x2="209" y2="34" stroke="#FF6B00" stroke-width="2"/>
<line x1="1" y1="198" x2="210" y2="198" stroke="#FF6B00" stroke-width="2"/>
<line x1="31" y1="98" x2="48" y2="98" stroke="#FF6B00" stroke-width="2"/>
<line x1="484" y1="120" x2="527" y2="120" stroke="#FF6B00" stroke-width="2"/>
<line x1="32" y1="162" x2="49" y2="162" stroke="#FF6B00" stroke-width="2"/>
<line x1="32" y1="35" x2="32" y2="99" stroke="#FF6B00" stroke-width="2"/>
<line x1="33" y1="163" x2="33" y2="199" stroke="#FF6B00" stroke-width="2"/>
<line x1="461" y1="120" x2="484" y2="120" stroke="black" stroke-width="2"/>
<line x1="366" y1="106" x2="396" y2="106" stroke="black" stroke-width="2"/>
<line x1="366" y1="135" x2="396" y2="135" stroke="black" stroke-width="2"/>
<path d="M375.852 99.2324C375.461 99.5645 375.084 99.7988 374.721 99.9355C374.361 100.072 373.975 100.141 373.561 100.141C372.877 100.141 372.352 99.9746 371.984 99.6426C371.617 99.3066 371.434 98.8789 371.434 98.3594C371.434 98.0547 371.502 97.7773 371.639 97.5273C371.779 97.2734 371.961 97.0703 372.184 96.918C372.41 96.7656 372.664 96.6504 372.945 96.5723C373.152 96.5176 373.465 96.4648 373.883 96.4141C374.734 96.3125 375.361 96.1914 375.764 96.0508C375.768 95.9062 375.77 95.8145 375.77 95.7754C375.77 95.3457 375.67 95.043 375.471 94.8672C375.201 94.6289 374.801 94.5098 374.27 94.5098C373.773 94.5098 373.406 94.5977 373.168 94.7734C372.934 94.9453 372.76 95.252 372.646 95.6934L371.615 95.5527C371.709 95.1113 371.863 94.7559 372.078 94.4863C372.293 94.2129 372.604 94.0039 373.01 93.8594C373.416 93.7109 373.887 93.6367 374.422 93.6367C374.953 93.6367 375.385 93.6992 375.717 93.8242C376.049 93.9492 376.293 94.1074 376.449 94.2988C376.605 94.4863 376.715 94.7246 376.777 95.0137C376.812 95.1934 376.83 95.5176 376.83 95.9863V97.3926C376.83 98.373 376.852 98.9941 376.895 99.2559C376.941 99.5137 377.031 99.7617 377.164 100H376.062C375.953 99.7812 375.883 99.5254 375.852 99.2324ZM375.764 96.877C375.381 97.0332 374.807 97.166 374.041 97.2754C373.607 97.3379 373.301 97.4082 373.121 97.4863C372.941 97.5645 372.803 97.6797 372.705 97.832C372.607 97.9805 372.559 98.1465 372.559 98.3301C372.559 98.6113 372.664 98.8457 372.875 99.0332C373.09 99.2207 373.402 99.3145 373.812 99.3145C374.219 99.3145 374.58 99.2266 374.896 99.0508C375.213 98.8711 375.445 98.627 375.594 98.3184C375.707 98.0801 375.764 97.7285 375.764 97.2637V96.877Z" fill="black"/>
<path d="M372.764 129H371.785V120.41H372.84V123.475C373.285 122.916 373.854 122.637 374.545 122.637C374.928 122.637 375.289 122.715 375.629 122.871C375.973 123.023 376.254 123.24 376.473 123.521C376.695 123.799 376.869 124.135 376.994 124.529C377.119 124.924 377.182 125.346 377.182 125.795C377.182 126.861 376.918 127.686 376.391 128.268C375.863 128.85 375.23 129.141 374.492 129.141C373.758 129.141 373.182 128.834 372.764 128.221V129ZM372.752 125.842C372.752 126.588 372.854 127.127 373.057 127.459C373.389 128.002 373.838 128.273 374.404 128.273C374.865 128.273 375.264 128.074 375.6 127.676C375.936 127.273 376.104 126.676 376.104 125.883C376.104 125.07 375.941 124.471 375.617 124.084C375.297 123.697 374.908 123.504 374.451 123.504C373.99 123.504 373.592 123.705 373.256 124.107C372.92 124.506 372.752 125.084 372.752 125.842Z" fill="black"/>
<path d="M469.398 111.889C469.398 110.736 469.719 109.883 470.359 109.328C470.895 108.867 471.547 108.637 472.316 108.637C473.172 108.637 473.871 108.918 474.414 109.48C474.957 110.039 475.229 110.812 475.229 111.801C475.229 112.602 475.107 113.232 474.865 113.693C474.627 114.15 474.277 114.506 473.816 114.76C473.359 115.014 472.859 115.141 472.316 115.141C471.445 115.141 470.74 114.861 470.201 114.303C469.666 113.744 469.398 112.939 469.398 111.889ZM470.482 111.889C470.482 112.686 470.656 113.283 471.004 113.682C471.352 114.076 471.789 114.273 472.316 114.273C472.84 114.273 473.275 114.074 473.623 113.676C473.971 113.277 474.145 112.67 474.145 111.854C474.145 111.084 473.969 110.502 473.617 110.107C473.27 109.709 472.836 109.51 472.316 109.51C471.789 109.51 471.352 109.707 471.004 110.102C470.656 110.496 470.482 111.092 470.482 111.889ZM480.549 115V114.086C480.064 114.789 479.406 115.141 478.574 115.141C478.207 115.141 477.863 115.07 477.543 114.93C477.227 114.789 476.99 114.613 476.834 114.402C476.682 114.188 476.574 113.926 476.512 113.617C476.469 113.41 476.447 113.082 476.447 112.633V108.777H477.502V112.229C477.502 112.779 477.523 113.15 477.566 113.342C477.633 113.619 477.773 113.838 477.988 113.998C478.203 114.154 478.469 114.232 478.785 114.232C479.102 114.232 479.398 114.152 479.676 113.992C479.953 113.828 480.148 113.607 480.262 113.33C480.379 113.049 480.438 112.643 480.438 112.111V108.777H481.492V115H480.549ZM485.453 114.057L485.605 114.988C485.309 115.051 485.043 115.082 484.809 115.082C484.426 115.082 484.129 115.021 483.918 114.9C483.707 114.779 483.559 114.621 483.473 114.426C483.387 114.227 483.344 113.811 483.344 113.178V109.598H482.57V108.777H483.344V107.236L484.393 106.604V108.777H485.453V109.598H484.393V113.236C484.393 113.537 484.41 113.73 484.445 113.816C484.484 113.902 484.545 113.971 484.627 114.021C484.713 114.072 484.834 114.098 484.99 114.098C485.107 114.098 485.262 114.084 485.453 114.057Z" fill="black"/>
<mask id="path-14-inside-1_65_633" fill="white">
<path fill-rule="evenodd" clip-rule="evenodd" d="M389.603 146.86C394.884 139.601 398 130.664 398 121C398 110.398 394.251 100.673 388.006 93.0763C416.183 94.0323 442.094 103.921 462.997 120C442.49 135.775 417.162 145.591 389.603 146.86Z"/>
</mask>
<path d="M389.603 146.86L387.985 145.683L385.536 149.049L389.695 148.858L389.603 146.86ZM388.006 93.0763L388.073 91.0774L383.65 90.9274L386.461 94.3464L388.006 93.0763ZM462.997 120L464.216 121.585L466.277 120L464.216 118.415L462.997 120ZM391.22 148.036C396.742 140.447 400 131.101 400 121H396C396 130.227 393.027 138.754 387.985 145.683L391.22 148.036ZM400 121C400 109.918 396.079 99.7473 389.551 91.8062L386.461 94.3464C392.422 101.598 396 110.879 396 121H400ZM387.938 95.0751C415.683 96.0165 441.195 105.753 461.777 121.585L464.216 118.415C442.993 102.09 416.682 92.0481 388.073 91.0774L387.938 95.0751ZM461.777 118.415C441.584 133.948 416.647 143.613 389.511 144.862L389.695 148.858C417.676 147.57 443.395 137.601 464.216 121.585L461.777 118.415Z" fill="black" mask="url(#path-14-inside-1_65_633)"/>
<mask id="path-16-inside-2_65_633" fill="white">
<path fill-rule="evenodd" clip-rule="evenodd" d="M283 24H231V74H283C296.807 74 308 62.8071 308 49C308 35.1929 296.807 24 283 24Z"/>
</mask>
<path d="M231 24V22H229V24H231ZM231 74H229V76H231V74ZM231 26H283V22H231V26ZM233 74V24H229V74H233ZM283 72H231V76H283V72ZM306 49C306 61.7025 295.703 72 283 72V76C297.912 76 310 63.9117 310 49H306ZM283 26C295.703 26 306 36.2975 306 49H310C310 34.0883 297.912 22 283 22V26Z" fill="black" mask="url(#path-16-inside-2_65_633)"/>
<line x1="209" y1="34" x2="231" y2="34" stroke="black" stroke-width="2"/>
<line x1="209" y1="64" x2="231" y2="64" stroke="black" stroke-width="2"/>
<line x1="308" y1="49" x2="330" y2="49" stroke="black" stroke-width="2"/>
<path d="M218.852 27.2324C218.461 27.5645 218.084 27.7988 217.721 27.9355C217.361 28.0723 216.975 28.1406 216.561 28.1406C215.877 28.1406 215.352 27.9746 214.984 27.6426C214.617 27.3066 214.434 26.8789 214.434 26.3594C214.434 26.0547 214.502 25.7773 214.639 25.5273C214.779 25.2734 214.961 25.0703 215.184 24.918C215.41 24.7656 215.664 24.6504 215.945 24.5723C216.152 24.5176 216.465 24.4648 216.883 24.4141C217.734 24.3125 218.361 24.1914 218.764 24.0508C218.768 23.9062 218.77 23.8145 218.77 23.7754C218.77 23.3457 218.67 23.043 218.471 22.8672C218.201 22.6289 217.801 22.5098 217.27 22.5098C216.773 22.5098 216.406 22.5977 216.168 22.7734C215.934 22.9453 215.76 23.252 215.646 23.6934L214.615 23.5527C214.709 23.1113 214.863 22.7559 215.078 22.4863C215.293 22.2129 215.604 22.0039 216.01 21.8594C216.416 21.7109 216.887 21.6367 217.422 21.6367C217.953 21.6367 218.385 21.6992 218.717 21.8242C219.049 21.9492 219.293 22.1074 219.449 22.2988C219.605 22.4863 219.715 22.7246 219.777 23.0137C219.812 23.1934 219.83 23.5176 219.83 23.9863V25.3926C219.83 26.373 219.852 26.9941 219.895 27.2559C219.941 27.5137 220.031 27.7617 220.164 28H219.062C218.953 27.7812 218.883 27.5254 218.852 27.2324ZM218.764 24.877C218.381 25.0332 217.807 25.166 217.041 25.2754C216.607 25.3379 216.301 25.4082 216.121 25.4863C215.941 25.5645 215.803 25.6797 215.705 25.832C215.607 25.9805 215.559 26.1465 215.559 26.3301C215.559 26.6113 215.664 26.8457 215.875 27.0332C216.09 27.2207 216.402 27.3145 216.812 27.3145C217.219 27.3145 217.58 27.2266 217.896 27.0508C218.213 26.8711 218.445 26.627 218.594 26.3184C218.707 26.0801 218.764 25.7285 218.764 25.2637V24.877Z" fill="black"/>
<path d="M215.764 60H214.785V51.4102H215.84V54.4746C216.285 53.916 216.854 53.6367 217.545 53.6367C217.928 53.6367 218.289 53.7148 218.629 53.8711C218.973 54.0234 219.254 54.2402 219.473 54.5215C219.695 54.7988 219.869 55.1348 219.994 55.5293C220.119 55.9238 220.182 56.3457 220.182 56.7949C220.182 57.8613 219.918 58.6855 219.391 59.2676C218.863 59.8496 218.23 60.1406 217.492 60.1406C216.758 60.1406 216.182 59.834 215.764 59.2207V60ZM215.752 56.8418C215.752 57.5879 215.854 58.127 216.057 58.459C216.389 59.002 216.838 59.2734 217.404 59.2734C217.865 59.2734 218.264 59.0742 218.6 58.6758C218.936 58.2734 219.104 57.6758 219.104 56.8828C219.104 56.0703 218.941 55.4707 218.617 55.084C218.297 54.6973 217.908 54.5039 217.451 54.5039C216.99 54.5039 216.592 54.7051 216.256 55.1074C215.92 55.5059 215.752 56.084 215.752 56.8418Z" fill="black"/>
<path d="M315.398 40.8887C315.398 39.7363 315.719 38.8828 316.359 38.3281C316.895 37.8672 317.547 37.6367 318.316 37.6367C319.172 37.6367 319.871 37.918 320.414 38.4805C320.957 39.0391 321.229 39.8125 321.229 40.8008C321.229 41.6016 321.107 42.2324 320.865 42.6934C320.627 43.1504 320.277 43.5059 319.816 43.7598C319.359 44.0137 318.859 44.1406 318.316 44.1406C317.445 44.1406 316.74 43.8613 316.201 43.3027C315.666 42.7441 315.398 41.9395 315.398 40.8887ZM316.482 40.8887C316.482 41.6855 316.656 42.2832 317.004 42.6816C317.352 43.0762 317.789 43.2734 318.316 43.2734C318.84 43.2734 319.275 43.0742 319.623 42.6758C319.971 42.2773 320.145 41.6699 320.145 40.8535C320.145 40.084 319.969 39.502 319.617 39.1074C319.27 38.709 318.836 38.5098 318.316 38.5098C317.789 38.5098 317.352 38.707 317.004 39.1016C316.656 39.4961 316.482 40.0918 316.482 40.8887ZM326.549 44V43.0859C326.064 43.7891 325.406 44.1406 324.574 44.1406C324.207 44.1406 323.863 44.0703 323.543 43.9297C323.227 43.7891 322.99 43.6133 322.834 43.4023C322.682 43.1875 322.574 42.9258 322.512 42.6172C322.469 42.4102 322.447 42.082 322.447 41.6328V37.7773H323.502V41.2285C323.502 41.7793 323.523 42.1504 323.566 42.3418C323.633 42.6191 323.773 42.8379 323.988 42.998C324.203 43.1543 324.469 43.2324 324.785 43.2324C325.102 43.2324 325.398 43.1523 325.676 42.9922C325.953 42.8281 326.148 42.6074 326.262 42.3301C326.379 42.0488 326.438 41.6426 326.438 41.1113V37.7773H327.492V44H326.549ZM331.453 43.0566L331.605 43.9883C331.309 44.0508 331.043 44.082 330.809 44.082C330.426 44.082 330.129 44.0215 329.918 43.9004C329.707 43.7793 329.559 43.6211 329.473 43.4258C329.387 43.2266 329.344 42.8105 329.344 42.1777V38.5977H328.57V37.7773H329.344V36.2363L330.393 35.6035V37.7773H331.453V38.5977H330.393V42.2363C330.393 42.5371 330.41 42.7305 330.445 42.8164C330.484 42.9023 330.545 42.9707 330.627 43.0215C330.713 43.0723 330.834 43.0977 330.99 43.0977C331.107 43.0977 331.262 43.084 331.453 43.0566Z" fill="black"/>
<mask id="path-24-inside-3_65_633" fill="white">
<path fill-rule="evenodd" clip-rule="evenodd" d="M284 158H232V208H284C297.807 208 309 196.807 309 183C309 169.193 297.807 158 284 158Z"/>
</mask>
<path d="M232 158V156H230V158H232ZM232 208H230V210H232V208ZM232 160H284V156H232V160ZM234 208V158H230V208H234ZM284 206H232V210H284V206ZM307 183C307 195.703 296.703 206 284 206V210C298.912 210 311 197.912 311 183H307ZM284 160C296.703 160 307 170.297 307 183H311C311 168.088 298.912 156 284 156V160Z" fill="black" mask="url(#path-24-inside-3_65_633)"/>
<line x1="210" y1="168" x2="232" y2="168" stroke="black" stroke-width="2"/>
<line x1="210" y1="198" x2="232" y2="198" stroke="black" stroke-width="2"/>
<line x1="309" y1="183" x2="331" y2="183" stroke="black" stroke-width="2"/>
<path d="M219.852 161.232C219.461 161.564 219.084 161.799 218.721 161.936C218.361 162.072 217.975 162.141 217.561 162.141C216.877 162.141 216.352 161.975 215.984 161.643C215.617 161.307 215.434 160.879 215.434 160.359C215.434 160.055 215.502 159.777 215.639 159.527C215.779 159.273 215.961 159.07 216.184 158.918C216.41 158.766 216.664 158.65 216.945 158.572C217.152 158.518 217.465 158.465 217.883 158.414C218.734 158.312 219.361 158.191 219.764 158.051C219.768 157.906 219.77 157.814 219.77 157.775C219.77 157.346 219.67 157.043 219.471 156.867C219.201 156.629 218.801 156.51 218.27 156.51C217.773 156.51 217.406 156.598 217.168 156.773C216.934 156.945 216.76 157.252 216.646 157.693L215.615 157.553C215.709 157.111 215.863 156.756 216.078 156.486C216.293 156.213 216.604 156.004 217.01 155.859C217.416 155.711 217.887 155.637 218.422 155.637C218.953 155.637 219.385 155.699 219.717 155.824C220.049 155.949 220.293 156.107 220.449 156.299C220.605 156.486 220.715 156.725 220.777 157.014C220.812 157.193 220.83 157.518 220.83 157.986V159.393C220.83 160.373 220.852 160.994 220.895 161.256C220.941 161.514 221.031 161.762 221.164 162H220.062C219.953 161.781 219.883 161.525 219.852 161.232ZM219.764 158.877C219.381 159.033 218.807 159.166 218.041 159.275C217.607 159.338 217.301 159.408 217.121 159.486C216.941 159.564 216.803 159.68 216.705 159.832C216.607 159.98 216.559 160.146 216.559 160.33C216.559 160.611 216.664 160.846 216.875 161.033C217.09 161.221 217.402 161.314 217.812 161.314C218.219 161.314 218.58 161.227 218.896 161.051C219.213 160.871 219.445 160.627 219.594 160.318C219.707 160.08 219.764 159.729 219.764 159.264V158.877Z" fill="black"/>
<path d="M216.764 194H215.785V185.41H216.84V188.475C217.285 187.916 217.854 187.637 218.545 187.637C218.928 187.637 219.289 187.715 219.629 187.871C219.973 188.023 220.254 188.24 220.473 188.521C220.695 188.799 220.869 189.135 220.994 189.529C221.119 189.924 221.182 190.346 221.182 190.795C221.182 191.861 220.918 192.686 220.391 193.268C219.863 193.85 219.23 194.141 218.492 194.141C217.758 194.141 217.182 193.834 216.764 193.221V194ZM216.752 190.842C216.752 191.588 216.854 192.127 217.057 192.459C217.389 193.002 217.838 193.273 218.404 193.273C218.865 193.273 219.264 193.074 219.6 192.676C219.936 192.273 220.104 191.676 220.104 190.883C220.104 190.07 219.941 189.471 219.617 189.084C219.297 188.697 218.908 188.504 218.451 188.504C217.99 188.504 217.592 188.705 217.256 189.107C216.92 189.506 216.752 190.084 216.752 190.842Z" fill="black"/>
<path d="M316.398 174.889C316.398 173.736 316.719 172.883 317.359 172.328C317.895 171.867 318.547 171.637 319.316 171.637C320.172 171.637 320.871 171.918 321.414 172.48C321.957 173.039 322.229 173.812 322.229 174.801C322.229 175.602 322.107 176.232 321.865 176.693C321.627 177.15 321.277 177.506 320.816 177.76C320.359 178.014 319.859 178.141 319.316 178.141C318.445 178.141 317.74 177.861 317.201 177.303C316.666 176.744 316.398 175.939 316.398 174.889ZM317.482 174.889C317.482 175.686 317.656 176.283 318.004 176.682C318.352 177.076 318.789 177.273 319.316 177.273C319.84 177.273 320.275 177.074 320.623 176.676C320.971 176.277 321.145 175.67 321.145 174.854C321.145 174.084 320.969 173.502 320.617 173.107C320.27 172.709 319.836 172.51 319.316 172.51C318.789 172.51 318.352 172.707 318.004 173.102C317.656 173.496 317.482 174.092 317.482 174.889ZM327.549 178V177.086C327.064 177.789 326.406 178.141 325.574 178.141C325.207 178.141 324.863 178.07 324.543 177.93C324.227 177.789 323.99 177.613 323.834 177.402C323.682 177.188 323.574 176.926 323.512 176.617C323.469 176.41 323.447 176.082 323.447 175.633V171.777H324.502V175.229C324.502 175.779 324.523 176.15 324.566 176.342C324.633 176.619 324.773 176.838 324.988 176.998C325.203 177.154 325.469 177.232 325.785 177.232C326.102 177.232 326.398 177.152 326.676 176.992C326.953 176.828 327.148 176.607 327.262 176.33C327.379 176.049 327.438 175.643 327.438 175.111V171.777H328.492V178H327.549ZM332.453 177.057L332.605 177.988C332.309 178.051 332.043 178.082 331.809 178.082C331.426 178.082 331.129 178.021 330.918 177.9C330.707 177.779 330.559 177.621 330.473 177.426C330.387 177.227 330.344 176.811 330.344 176.178V172.598H329.57V171.777H330.344V170.236L331.393 169.604V171.777H332.453V172.598H331.393V176.236C331.393 176.537 331.41 176.73 331.445 176.816C331.484 176.902 331.545 176.971 331.627 177.021C331.713 177.072 331.834 177.098 331.99 177.098C332.107 177.098 332.262 177.084 332.453 177.057Z" fill="black"/>
<line x1="329.839" y1="48.4555" x2="366.839" y2="105.456" stroke="#FF6B00" stroke-width="2" stroke-dasharray="4 4"/>
<line x1="330.202" y1="183.397" x2="367.202" y2="134.397" stroke="#FF6B00" stroke-width="2" stroke-dasharray="4 4"/>
<path d="M325.852 74.2324C325.461 74.5645 325.084 74.7988 324.721 74.9355C324.361 75.0723 323.975 75.1406 323.561 75.1406C322.877 75.1406 322.352 74.9746 321.984 74.6426C321.617 74.3066 321.434 73.8789 321.434 73.3594C321.434 73.0547 321.502 72.7773 321.639 72.5273C321.779 72.2734 321.961 72.0703 322.184 71.918C322.41 71.7656 322.664 71.6504 322.945 71.5723C323.152 71.5176 323.465 71.4648 323.883 71.4141C324.734 71.3125 325.361 71.1914 325.764 71.0508C325.768 70.9062 325.77 70.8145 325.77 70.7754C325.77 70.3457 325.67 70.043 325.471 69.8672C325.201 69.6289 324.801 69.5098 324.27 69.5098C323.773 69.5098 323.406 69.5977 323.168 69.7734C322.934 69.9453 322.76 70.252 322.646 70.6934L321.615 70.5527C321.709 70.1113 321.863 69.7559 322.078 69.4863C322.293 69.2129 322.604 69.0039 323.01 68.8594C323.416 68.7109 323.887 68.6367 324.422 68.6367C324.953 68.6367 325.385 68.6992 325.717 68.8242C326.049 68.9492 326.293 69.1074 326.449 69.2988C326.605 69.4863 326.715 69.7246 326.777 70.0137C326.812 70.1934 326.83 70.5176 326.83 70.9863V72.3926C326.83 73.373 326.852 73.9941 326.895 74.2559C326.941 74.5137 327.031 74.7617 327.164 75H326.062C325.953 74.7812 325.883 74.5254 325.852 74.2324ZM325.764 71.877C325.381 72.0332 324.807 72.166 324.041 72.2754C323.607 72.3379 323.301 72.4082 323.121 72.4863C322.941 72.5645 322.803 72.6797 322.705 72.832C322.607 72.9805 322.559 73.1465 322.559 73.3301C322.559 73.6113 322.664 73.8457 322.875 74.0332C323.09 74.2207 323.402 74.3145 323.812 74.3145C324.219 74.3145 324.58 74.2266 324.896 74.0508C325.213 73.8711 325.445 73.627 325.594 73.3184C325.707 73.0801 325.764 72.7285 325.764 72.2637V71.877ZM327.662 75L330.961 66.4102H332.186L335.701 75H334.406L333.404 72.3984H329.812L328.869 75H327.662ZM330.141 71.4727H333.053L332.156 69.0938C331.883 68.3711 331.68 67.7773 331.547 67.3125C331.438 67.8633 331.283 68.4102 331.084 68.9531L330.141 71.4727ZM336.475 75V68.7773H337.424V69.6621C337.881 68.9785 338.541 68.6367 339.404 68.6367C339.779 68.6367 340.123 68.7051 340.436 68.8418C340.752 68.9746 340.988 69.1504 341.145 69.3691C341.301 69.5879 341.41 69.8477 341.473 70.1484C341.512 70.3438 341.531 70.6855 341.531 71.1738V75H340.477V71.2148C340.477 70.7852 340.436 70.4648 340.354 70.2539C340.271 70.0391 340.125 69.8691 339.914 69.7441C339.707 69.6152 339.463 69.5508 339.182 69.5508C338.732 69.5508 338.344 69.6934 338.016 69.9785C337.691 70.2637 337.529 70.8047 337.529 71.6016V75H336.475ZM347.191 75V74.2148C346.797 74.832 346.217 75.1406 345.451 75.1406C344.955 75.1406 344.498 75.0039 344.08 74.7305C343.666 74.457 343.344 74.0762 343.113 73.5879C342.887 73.0957 342.773 72.5312 342.773 71.8945C342.773 71.2734 342.877 70.7109 343.084 70.207C343.291 69.6992 343.602 69.3105 344.016 69.041C344.43 68.7715 344.893 68.6367 345.404 68.6367C345.779 68.6367 346.113 68.7168 346.406 68.877C346.699 69.0332 346.938 69.2383 347.121 69.4922V66.4102H348.17V75H347.191ZM343.857 71.8945C343.857 72.6914 344.025 73.2871 344.361 73.6816C344.697 74.0762 345.094 74.2734 345.551 74.2734C346.012 74.2734 346.402 74.0859 346.723 73.7109C347.047 73.332 347.209 72.7559 347.209 71.9824C347.209 71.1309 347.045 70.5059 346.717 70.1074C346.389 69.709 345.984 69.5098 345.504 69.5098C345.035 69.5098 344.643 69.7012 344.326 70.084C344.014 70.4668 343.857 71.0703 343.857 71.8945ZM349.957 75V66.4102H351.123L355.635 73.1543V66.4102H356.725V75H355.559L351.047 68.25V75H349.957ZM358.113 71.8887C358.113 70.7363 358.434 69.8828 359.074 69.3281C359.609 68.8672 360.262 68.6367 361.031 68.6367C361.887 68.6367 362.586 68.918 363.129 69.4805C363.672 70.0391 363.943 70.8125 363.943 71.8008C363.943 72.6016 363.822 73.2324 363.58 73.6934C363.342 74.1504 362.992 74.5059 362.531 74.7598C362.074 75.0137 361.574 75.1406 361.031 75.1406C360.16 75.1406 359.455 74.8613 358.916 74.3027C358.381 73.7441 358.113 72.9395 358.113 71.8887ZM359.197 71.8887C359.197 72.6855 359.371 73.2832 359.719 73.6816C360.066 74.0762 360.504 74.2734 361.031 74.2734C361.555 74.2734 361.99 74.0742 362.338 73.6758C362.686 73.2773 362.859 72.6699 362.859 71.8535C362.859 71.084 362.684 70.502 362.332 70.1074C361.984 69.709 361.551 69.5098 361.031 69.5098C360.504 69.5098 360.066 69.707 359.719 70.1016C359.371 70.4961 359.197 71.0918 359.197 71.8887ZM367.488 74.0566L367.641 74.9883C367.344 75.0508 367.078 75.082 366.844 75.082C366.461 75.082 366.164 75.0215 365.953 74.9004C365.742 74.7793 365.594 74.6211 365.508 74.4258C365.422 74.2266 365.379 73.8105 365.379 73.1777V69.5977H364.605V68.7773H365.379V67.2363L366.428 66.6035V68.7773H367.488V69.5977H366.428V73.2363C366.428 73.5371 366.445 73.7305 366.48 73.8164C366.52 73.9023 366.58 73.9707 366.662 74.0215C366.748 74.0723 366.869 74.0977 367.025 74.0977C367.143 74.0977 367.297 74.084 367.488 74.0566ZM369.498 75H368.52V66.4102H369.574V69.4746C370.02 68.916 370.588 68.6367 371.279 68.6367C371.662 68.6367 372.023 68.7148 372.363 68.8711C372.707 69.0234 372.988 69.2402 373.207 69.5215C373.43 69.7988 373.604 70.1348 373.729 70.5293C373.854 70.9238 373.916 71.3457 373.916 71.7949C373.916 72.8613 373.652 73.6855 373.125 74.2676C372.598 74.8496 371.965 75.1406 371.227 75.1406C370.492 75.1406 369.916 74.834 369.498 74.2207V75ZM369.486 71.8418C369.486 72.5879 369.588 73.127 369.791 73.459C370.123 74.002 370.572 74.2734 371.139 74.2734C371.6 74.2734 371.998 74.0742 372.334 73.6758C372.67 73.2734 372.838 72.6758 372.838 71.8828C372.838 71.0703 372.676 70.4707 372.352 70.084C372.031 69.6973 371.643 69.5039 371.186 69.5039C370.725 69.5039 370.326 69.7051 369.99 70.1074C369.654 70.5059 369.486 71.084 369.486 71.8418Z" fill="black"/>
<path d="M329.791 163V156.777H330.74V157.662C331.197 156.979 331.857 156.637 332.721 156.637C333.096 156.637 333.439 156.705 333.752 156.842C334.068 156.975 334.305 157.15 334.461 157.369C334.617 157.588 334.727 157.848 334.789 158.148C334.828 158.344 334.848 158.686 334.848 159.174V163H333.793V159.215C333.793 158.785 333.752 158.465 333.67 158.254C333.588 158.039 333.441 157.869 333.23 157.744C333.023 157.615 332.779 157.551 332.498 157.551C332.049 157.551 331.66 157.693 331.332 157.979C331.008 158.264 330.846 158.805 330.846 159.602V163H329.791ZM336.078 159.889C336.078 158.736 336.398 157.883 337.039 157.328C337.574 156.867 338.227 156.637 338.996 156.637C339.852 156.637 340.551 156.918 341.094 157.48C341.637 158.039 341.908 158.812 341.908 159.801C341.908 160.602 341.787 161.232 341.545 161.693C341.307 162.15 340.957 162.506 340.496 162.76C340.039 163.014 339.539 163.141 338.996 163.141C338.125 163.141 337.42 162.861 336.881 162.303C336.346 161.744 336.078 160.939 336.078 159.889ZM337.162 159.889C337.162 160.686 337.336 161.283 337.684 161.682C338.031 162.076 338.469 162.273 338.996 162.273C339.52 162.273 339.955 162.074 340.303 161.676C340.65 161.277 340.824 160.67 340.824 159.854C340.824 159.084 340.648 158.502 340.297 158.107C339.949 157.709 339.516 157.51 338.996 157.51C338.469 157.51 338.031 157.707 337.684 158.102C337.336 158.496 337.162 159.092 337.162 159.889ZM345.453 162.057L345.605 162.988C345.309 163.051 345.043 163.082 344.809 163.082C344.426 163.082 344.129 163.021 343.918 162.9C343.707 162.779 343.559 162.621 343.473 162.426C343.387 162.227 343.344 161.811 343.344 161.178V157.598H342.57V156.777H343.344V155.236L344.393 154.604V156.777H345.453V157.598H344.393V161.236C344.393 161.537 344.41 161.73 344.445 161.816C344.484 161.902 344.545 161.971 344.627 162.021C344.713 162.072 344.834 162.098 344.99 162.098C345.107 162.098 345.262 162.084 345.453 162.057ZM350.551 162.232C350.16 162.564 349.783 162.799 349.42 162.936C349.061 163.072 348.674 163.141 348.26 163.141C347.576 163.141 347.051 162.975 346.684 162.643C346.316 162.307 346.133 161.879 346.133 161.359C346.133 161.055 346.201 160.777 346.338 160.527C346.479 160.273 346.66 160.07 346.883 159.918C347.109 159.766 347.363 159.65 347.645 159.572C347.852 159.518 348.164 159.465 348.582 159.414C349.434 159.312 350.061 159.191 350.463 159.051C350.467 158.906 350.469 158.814 350.469 158.775C350.469 158.346 350.369 158.043 350.17 157.867C349.9 157.629 349.5 157.51 348.969 157.51C348.473 157.51 348.105 157.598 347.867 157.773C347.633 157.945 347.459 158.252 347.346 158.693L346.314 158.553C346.408 158.111 346.562 157.756 346.777 157.486C346.992 157.213 347.303 157.004 347.709 156.859C348.115 156.711 348.586 156.637 349.121 156.637C349.652 156.637 350.084 156.699 350.416 156.824C350.748 156.949 350.992 157.107 351.148 157.299C351.305 157.486 351.414 157.725 351.477 158.014C351.512 158.193 351.529 158.518 351.529 158.986V160.393C351.529 161.373 351.551 161.994 351.594 162.256C351.641 162.514 351.73 162.762 351.863 163H350.762C350.652 162.781 350.582 162.525 350.551 162.232ZM350.463 159.877C350.08 160.033 349.506 160.166 348.74 160.275C348.307 160.338 348 160.408 347.82 160.486C347.641 160.564 347.502 160.68 347.404 160.832C347.307 160.98 347.258 161.146 347.258 161.33C347.258 161.611 347.363 161.846 347.574 162.033C347.789 162.221 348.102 162.314 348.512 162.314C348.918 162.314 349.279 162.227 349.596 162.051C349.912 161.871 350.145 161.627 350.293 161.318C350.406 161.08 350.463 160.729 350.463 160.264V159.877ZM352.361 163L355.66 154.41H356.885L360.4 163H359.105L358.104 160.398H354.512L353.568 163H352.361ZM354.84 159.473H357.752L356.855 157.094C356.582 156.371 356.379 155.777 356.246 155.312C356.137 155.863 355.982 156.41 355.783 156.953L354.84 159.473ZM361.174 163V156.777H362.123V157.662C362.58 156.979 363.24 156.637 364.104 156.637C364.479 156.637 364.822 156.705 365.135 156.842C365.451 156.975 365.688 157.15 365.844 157.369C366 157.588 366.109 157.848 366.172 158.148C366.211 158.344 366.23 158.686 366.23 159.174V163H365.176V159.215C365.176 158.785 365.135 158.465 365.053 158.254C364.971 158.039 364.824 157.869 364.613 157.744C364.406 157.615 364.162 157.551 363.881 157.551C363.432 157.551 363.043 157.693 362.715 157.979C362.391 158.264 362.229 158.805 362.229 159.602V163H361.174ZM371.891 163V162.215C371.496 162.832 370.916 163.141 370.15 163.141C369.654 163.141 369.197 163.004 368.779 162.73C368.365 162.457 368.043 162.076 367.812 161.588C367.586 161.096 367.473 160.531 367.473 159.895C367.473 159.273 367.576 158.711 367.783 158.207C367.99 157.699 368.301 157.311 368.715 157.041C369.129 156.771 369.592 156.637 370.104 156.637C370.479 156.637 370.812 156.717 371.105 156.877C371.398 157.033 371.637 157.238 371.82 157.492V154.41H372.869V163H371.891ZM368.557 159.895C368.557 160.691 368.725 161.287 369.061 161.682C369.396 162.076 369.793 162.273 370.25 162.273C370.711 162.273 371.102 162.086 371.422 161.711C371.746 161.332 371.908 160.756 371.908 159.982C371.908 159.131 371.744 158.506 371.416 158.107C371.088 157.709 370.684 157.51 370.203 157.51C369.734 157.51 369.342 157.701 369.025 158.084C368.713 158.467 368.557 159.07 368.557 159.895ZM375.506 163H374.527V154.41H375.582V157.475C376.027 156.916 376.596 156.637 377.287 156.637C377.67 156.637 378.031 156.715 378.371 156.871C378.715 157.023 378.996 157.24 379.215 157.521C379.438 157.799 379.611 158.135 379.736 158.529C379.861 158.924 379.924 159.346 379.924 159.795C379.924 160.861 379.66 161.686 379.133 162.268C378.605 162.85 377.973 163.141 377.234 163.141C376.5 163.141 375.924 162.834 375.506 162.221V163ZM375.494 159.842C375.494 160.588 375.596 161.127 375.799 161.459C376.131 162.002 376.58 162.273 377.146 162.273C377.607 162.273 378.006 162.074 378.342 161.676C378.678 161.273 378.846 160.676 378.846 159.883C378.846 159.07 378.684 158.471 378.359 158.084C378.039 157.697 377.65 157.504 377.193 157.504C376.732 157.504 376.334 157.705 375.998 158.107C375.662 158.506 375.494 159.084 375.494 159.842Z" fill="black"/>
<path d="M505.48 109.801C505.48 109.254 505.615 108.725 505.885 108.213C506.154 107.701 506.535 107.311 507.027 107.041C507.523 106.771 508.076 106.637 508.686 106.637C509.627 106.637 510.398 106.943 511 107.557C511.602 108.166 511.902 108.938 511.902 109.871C511.902 110.812 511.598 111.594 510.988 112.215C510.383 112.832 509.619 113.141 508.697 113.141C508.127 113.141 507.582 113.012 507.062 112.754C506.547 112.496 506.154 112.119 505.885 111.623C505.615 111.123 505.48 110.516 505.48 109.801ZM507.168 109.889C507.168 110.506 507.314 110.979 507.607 111.307C507.9 111.635 508.262 111.799 508.691 111.799C509.121 111.799 509.48 111.635 509.77 111.307C510.062 110.979 510.209 110.502 510.209 109.877C510.209 109.268 510.062 108.799 509.77 108.471C509.48 108.143 509.121 107.979 508.691 107.979C508.262 107.979 507.9 108.143 507.607 108.471C507.314 108.799 507.168 109.271 507.168 109.889ZM517.293 113V112.068C517.066 112.4 516.768 112.662 516.396 112.854C516.029 113.045 515.641 113.141 515.23 113.141C514.812 113.141 514.438 113.049 514.105 112.865C513.773 112.682 513.533 112.424 513.385 112.092C513.236 111.76 513.162 111.301 513.162 110.715V106.777H514.809V109.637C514.809 110.512 514.838 111.049 514.896 111.248C514.959 111.443 515.07 111.6 515.23 111.717C515.391 111.83 515.594 111.887 515.84 111.887C516.121 111.887 516.373 111.811 516.596 111.658C516.818 111.502 516.971 111.311 517.053 111.084C517.135 110.854 517.176 110.293 517.176 109.402V106.777H518.822V113H517.293ZM523.387 106.777V108.09H522.262V110.598C522.262 111.105 522.271 111.402 522.291 111.488C522.314 111.57 522.363 111.639 522.438 111.693C522.516 111.748 522.609 111.775 522.719 111.775C522.871 111.775 523.092 111.723 523.381 111.617L523.521 112.895C523.139 113.059 522.705 113.141 522.221 113.141C521.924 113.141 521.656 113.092 521.418 112.994C521.18 112.893 521.004 112.764 520.891 112.607C520.781 112.447 520.705 112.232 520.662 111.963C520.627 111.771 520.609 111.385 520.609 110.803V108.09H519.854V106.777H520.609V105.541L522.262 104.58V106.777H523.387Z" fill="black"/>
<path d="M411.521 118.758C411.521 117.883 411.652 117.148 411.914 116.555C412.109 116.117 412.375 115.725 412.711 115.377C413.051 115.029 413.422 114.771 413.824 114.604C414.359 114.377 414.977 114.264 415.676 114.264C416.941 114.264 417.953 114.656 418.711 115.441C419.473 116.227 419.854 117.318 419.854 118.717C419.854 120.104 419.477 121.189 418.723 121.975C417.969 122.756 416.961 123.146 415.699 123.146C414.422 123.146 413.406 122.758 412.652 121.98C411.898 121.199 411.521 120.125 411.521 118.758ZM413.309 118.699C413.309 119.672 413.533 120.41 413.982 120.914C414.432 121.414 415.002 121.664 415.693 121.664C416.385 121.664 416.951 121.416 417.393 120.92C417.838 120.42 418.061 119.672 418.061 118.676C418.061 117.691 417.844 116.957 417.41 116.473C416.98 115.988 416.408 115.746 415.693 115.746C414.979 115.746 414.402 115.992 413.965 116.484C413.527 116.973 413.309 117.711 413.309 118.699ZM421.219 123V114.41H424.869C425.787 114.41 426.453 114.488 426.867 114.645C427.285 114.797 427.619 115.07 427.869 115.465C428.119 115.859 428.244 116.311 428.244 116.818C428.244 117.463 428.055 117.996 427.676 118.418C427.297 118.836 426.73 119.1 425.977 119.209C426.352 119.428 426.66 119.668 426.902 119.93C427.148 120.191 427.479 120.656 427.893 121.324L428.941 123H426.867L425.613 121.131C425.168 120.463 424.863 120.043 424.699 119.871C424.535 119.695 424.361 119.576 424.178 119.514C423.994 119.447 423.703 119.414 423.305 119.414H422.953V123H421.219ZM422.953 118.043H424.236C425.068 118.043 425.588 118.008 425.795 117.938C426.002 117.867 426.164 117.746 426.281 117.574C426.398 117.402 426.457 117.188 426.457 116.93C426.457 116.641 426.379 116.408 426.223 116.232C426.07 116.053 425.854 115.939 425.572 115.893C425.432 115.873 425.01 115.863 424.307 115.863H422.953V118.043Z" fill="#FF0000"/>
<line x1="48" y1="97.7128" x2="84" y2="97.7128" stroke="black" stroke-width="2"/>
<path d="M53.7969 84.3359V83.123H54.8516V84.3359H53.7969ZM53.7969 91.7128V85.4902H54.8516V91.7128H53.7969ZM56.4629 91.7128V85.4902H57.4121V86.3749C57.8691 85.6913 58.5293 85.3495 59.3926 85.3495C59.7676 85.3495 60.1113 85.4179 60.4238 85.5546C60.7402 85.6874 60.9766 85.8632 61.1328 86.082C61.2891 86.3007 61.3984 86.5605 61.4609 86.8613C61.5 87.0566 61.5195 87.3984 61.5195 87.8867V91.7128H60.4648V87.9277C60.4648 87.498 60.4238 87.1777 60.3418 86.9667C60.2598 86.7519 60.1133 86.582 59.9023 86.457C59.6953 86.3281 59.4512 86.2636 59.1699 86.2636C58.7207 86.2636 58.332 86.4062 58.0039 86.6913C57.6797 86.9765 57.5176 87.5175 57.5176 88.3144V91.7128H56.4629Z" fill="black"/>
<line x1="133" y1="98.7128" x2="154" y2="98.7128" stroke="black" stroke-width="2"/>
<path d="M139.398 90.6015C139.398 89.4492 139.719 88.5956 140.359 88.041C140.895 87.58 141.547 87.3495 142.316 87.3495C143.172 87.3495 143.871 87.6308 144.414 88.1933C144.957 88.7519 145.229 89.5253 145.229 90.5136C145.229 91.3144 145.107 91.9453 144.865 92.4062C144.627 92.8632 144.277 93.2187 143.816 93.4726C143.359 93.7265 142.859 93.8535 142.316 93.8535C141.445 93.8535 140.74 93.5742 140.201 93.0156C139.666 92.457 139.398 91.6523 139.398 90.6015ZM140.482 90.6015C140.482 91.3984 140.656 91.996 141.004 92.3945C141.352 92.789 141.789 92.9863 142.316 92.9863C142.84 92.9863 143.275 92.787 143.623 92.3886C143.971 91.9902 144.145 91.3828 144.145 90.5663C144.145 89.7968 143.969 89.2148 143.617 88.8203C143.27 88.4218 142.836 88.2226 142.316 88.2226C141.789 88.2226 141.352 88.4199 141.004 88.8144C140.656 89.2089 140.482 89.8046 140.482 90.6015ZM150.549 93.7128V92.7988C150.064 93.5019 149.406 93.8535 148.574 93.8535C148.207 93.8535 147.863 93.7831 147.543 93.6425C147.227 93.5019 146.99 93.3261 146.834 93.1152C146.682 92.9003 146.574 92.6386 146.512 92.33C146.469 92.123 146.447 91.7949 146.447 91.3456V87.4902H147.502V90.9413C147.502 91.4921 147.523 91.8632 147.566 92.0546C147.633 92.332 147.773 92.5507 147.988 92.7109C148.203 92.8671 148.469 92.9453 148.785 92.9453C149.102 92.9453 149.398 92.8652 149.676 92.705C149.953 92.541 150.148 92.3203 150.262 92.0429C150.379 91.7617 150.438 91.3554 150.438 90.8242V87.4902H151.492V93.7128H150.549ZM155.453 92.7695L155.605 93.7011C155.309 93.7636 155.043 93.7949 154.809 93.7949C154.426 93.7949 154.129 93.7343 153.918 93.6132C153.707 93.4921 153.559 93.3339 153.473 93.1386C153.387 92.9394 153.344 92.5234 153.344 91.8906V88.3105H152.57V87.4902H153.344V85.9492L154.393 85.3163V87.4902H155.453V88.3105H154.393V91.9492C154.393 92.2499 154.41 92.4433 154.445 92.5292C154.484 92.6152 154.545 92.6835 154.627 92.7343C154.713 92.7851 154.834 92.8105 154.99 92.8105C155.107 92.8105 155.262 92.7968 155.453 92.7695Z" fill="black"/>
<circle cx="128" cy="98.7128" r="5" stroke="black" stroke-width="2"/>
<mask id="path-43-inside-4_65_633" fill="white">
<path fill-rule="evenodd" clip-rule="evenodd" d="M125.376 102.537C124.517 101.499 124 100.166 124 98.7128C124 97.2595 124.517 95.9269 125.376 94.8887L84 71L84 126.426L125.376 102.537Z"/>
</mask>
<path d="M125.376 102.537L126.376 104.269L128.427 103.085L126.917 101.261L125.376 102.537ZM125.376 94.8887L126.917 96.1642L128.427 94.3405L126.376 93.1566L125.376 94.8887ZM84 71L85 69.2679L82 67.5359L82 71L84 71ZM84 126.426L82 126.426L82 129.89L85 128.158L84 126.426ZM126.917 101.261C126.343 100.569 126 99.6834 126 98.7128H122C122 100.649 122.69 102.429 123.836 103.812L126.917 101.261ZM126 98.7128C126 97.7422 126.343 96.857 126.917 96.1642L123.836 93.6131C122.69 94.9968 122 96.7769 122 98.7128H126ZM83 72.7321L124.376 96.6207L126.376 93.1566L85 69.2679L83 72.7321ZM86 126.426L86 71L82 71L82 126.426L86 126.426ZM124.376 100.805L83 124.694L85 128.158L126.376 104.269L124.376 100.805Z" fill="black" mask="url(#path-43-inside-4_65_633)"/>
<line x1="153.775" y1="98.3686" x2="210.775" y2="168.369" stroke="#FF6B00" stroke-width="2" stroke-dasharray="4 4"/>
<path d="M182.914 96V87.4102H184.08L188.592 94.1543V87.4102H189.682V96H188.516L184.004 89.25V96H182.914ZM191.07 92.8887C191.07 91.7363 191.391 90.8828 192.031 90.3281C192.566 89.8672 193.219 89.6367 193.988 89.6367C194.844 89.6367 195.543 89.918 196.086 90.4805C196.629 91.0391 196.9 91.8125 196.9 92.8008C196.9 93.6016 196.779 94.2324 196.537 94.6934C196.299 95.1504 195.949 95.5059 195.488 95.7598C195.031 96.0137 194.531 96.1406 193.988 96.1406C193.117 96.1406 192.412 95.8613 191.873 95.3027C191.338 94.7441 191.07 93.9395 191.07 92.8887ZM192.154 92.8887C192.154 93.6855 192.328 94.2832 192.676 94.6816C193.023 95.0762 193.461 95.2734 193.988 95.2734C194.512 95.2734 194.947 95.0742 195.295 94.6758C195.643 94.2773 195.816 93.6699 195.816 92.8535C195.816 92.084 195.641 91.502 195.289 91.1074C194.941 90.709 194.508 90.5098 193.988 90.5098C193.461 90.5098 193.023 90.707 192.676 91.1016C192.328 91.4961 192.154 92.0918 192.154 92.8887ZM200.445 95.0566L200.598 95.9883C200.301 96.0508 200.035 96.082 199.801 96.082C199.418 96.082 199.121 96.0215 198.91 95.9004C198.699 95.7793 198.551 95.6211 198.465 95.4258C198.379 95.2266 198.336 94.8105 198.336 94.1777V90.5977H197.562V89.7773H198.336V88.2363L199.385 87.6035V89.7773H200.445V90.5977H199.385V94.2363C199.385 94.5371 199.402 94.7305 199.438 94.8164C199.477 94.9023 199.537 94.9707 199.619 95.0215C199.705 95.0723 199.826 95.0977 199.982 95.0977C200.1 95.0977 200.254 95.084 200.445 95.0566ZM202.455 96H201.477V87.4102H202.531V90.4746C202.977 89.916 203.545 89.6367 204.236 89.6367C204.619 89.6367 204.98 89.7148 205.32 89.8711C205.664 90.0234 205.945 90.2402 206.164 90.5215C206.387 90.7988 206.561 91.1348 206.686 91.5293C206.811 91.9238 206.873 92.3457 206.873 92.7949C206.873 93.8613 206.609 94.6855 206.082 95.2676C205.555 95.8496 204.922 96.1406 204.184 96.1406C203.449 96.1406 202.873 95.834 202.455 95.2207V96ZM202.443 92.8418C202.443 93.5879 202.545 94.127 202.748 94.459C203.08 95.002 203.529 95.2734 204.096 95.2734C204.557 95.2734 204.955 95.0742 205.291 94.6758C205.627 94.2734 205.795 93.6758 205.795 92.8828C205.795 92.0703 205.633 91.4707 205.309 91.084C204.988 90.6973 204.6 90.5039 204.143 90.5039C203.682 90.5039 203.283 90.7051 202.947 91.1074C202.611 91.5059 202.443 92.084 202.443 92.8418Z" fill="black"/>
<path d="M6.0918 23.6758L4.59766 23.4062C4.76562 22.8047 5.05469 22.3594 5.46484 22.0703C5.875 21.7812 6.48438 21.6367 7.29297 21.6367C8.02734 21.6367 8.57422 21.7246 8.93359 21.9004C9.29297 22.0723 9.54492 22.293 9.68945 22.5625C9.83789 22.8281 9.91211 23.3184 9.91211 24.0332L9.89453 25.9551C9.89453 26.502 9.91992 26.9062 9.9707 27.168C10.0254 27.4258 10.125 27.7031 10.2695 28H8.64062C8.59766 27.8906 8.54492 27.7285 8.48242 27.5137C8.45508 27.416 8.43555 27.3516 8.42383 27.3203C8.14258 27.5938 7.8418 27.7988 7.52148 27.9355C7.20117 28.0723 6.85938 28.1406 6.49609 28.1406C5.85547 28.1406 5.34961 27.9668 4.97852 27.6191C4.61133 27.2715 4.42773 26.832 4.42773 26.3008C4.42773 25.9492 4.51172 25.6367 4.67969 25.3633C4.84766 25.0859 5.08203 24.875 5.38281 24.7305C5.6875 24.582 6.125 24.4531 6.69531 24.3438C7.46484 24.1992 7.99805 24.0645 8.29492 23.9395V23.7754C8.29492 23.459 8.2168 23.2344 8.06055 23.1016C7.9043 22.9648 7.60938 22.8965 7.17578 22.8965C6.88281 22.8965 6.6543 22.9551 6.49023 23.0723C6.32617 23.1855 6.19336 23.3867 6.0918 23.6758ZM8.29492 25.0117C8.08398 25.082 7.75 25.166 7.29297 25.2637C6.83594 25.3613 6.53711 25.457 6.39648 25.5508C6.18164 25.7031 6.07422 25.8965 6.07422 26.1309C6.07422 26.3613 6.16016 26.5605 6.33203 26.7285C6.50391 26.8965 6.72266 26.9805 6.98828 26.9805C7.28516 26.9805 7.56836 26.8828 7.83789 26.6875C8.03711 26.5391 8.16797 26.3574 8.23047 26.1426C8.27344 26.002 8.29492 25.7344 8.29492 25.3398V25.0117Z" fill="black"/>
<path d="M4.79102 191V182.41H6.4375V185.504C6.94531 184.926 7.54688 184.637 8.24219 184.637C9 184.637 9.62695 184.912 10.123 185.463C10.6191 186.01 10.8672 186.797 10.8672 187.824C10.8672 188.887 10.6133 189.705 10.1055 190.279C9.60156 190.854 8.98828 191.141 8.26562 191.141C7.91016 191.141 7.55859 191.053 7.21094 190.877C6.86719 190.697 6.57031 190.434 6.32031 190.086V191H4.79102ZM6.42578 187.754C6.42578 188.398 6.52734 188.875 6.73047 189.184C7.01562 189.621 7.39453 189.84 7.86719 189.84C8.23047 189.84 8.53906 189.686 8.79297 189.377C9.05078 189.064 9.17969 188.574 9.17969 187.906C9.17969 187.195 9.05078 186.684 8.79297 186.371C8.53516 186.055 8.20508 185.896 7.80273 185.896C7.4082 185.896 7.08008 186.051 6.81836 186.359C6.55664 186.664 6.42578 187.129 6.42578 187.754Z" fill="black"/>
<circle cx="32" cy="35" r="5" fill="#FF6B00"/>
<circle cx="33" cy="199" r="5" fill="#FF6B00"/>
<line x1="48" y1="161.713" x2="84" y2="161.713" stroke="black" stroke-width="2"/>
<path d="M53.7969 148.336V147.123H54.8516V148.336H53.7969ZM53.7969 155.713V149.49H54.8516V155.713H53.7969ZM56.4629 155.713V149.49H57.4121V150.375C57.8691 149.691 58.5293 149.35 59.3926 149.35C59.7676 149.35 60.1113 149.418 60.4238 149.555C60.7402 149.687 60.9766 149.863 61.1328 150.082C61.2891 150.301 61.3984 150.56 61.4609 150.861C61.5 151.057 61.5195 151.398 61.5195 151.887V155.713H60.4648V151.928C60.4648 151.498 60.4238 151.178 60.3418 150.967C60.2598 150.752 60.1133 150.582 59.9023 150.457C59.6953 150.328 59.4512 150.264 59.1699 150.264C58.7207 150.264 58.332 150.406 58.0039 150.691C57.6797 150.977 57.5176 151.518 57.5176 152.314V155.713H56.4629Z" fill="black"/>
<line x1="133" y1="162.713" x2="154" y2="162.713" stroke="black" stroke-width="2"/>
<path d="M139.398 154.602C139.398 153.449 139.719 152.596 140.359 152.041C140.895 151.58 141.547 151.35 142.316 151.35C143.172 151.35 143.871 151.631 144.414 152.193C144.957 152.752 145.229 153.525 145.229 154.514C145.229 155.314 145.107 155.945 144.865 156.406C144.627 156.863 144.277 157.219 143.816 157.473C143.359 157.727 142.859 157.853 142.316 157.853C141.445 157.853 140.74 157.574 140.201 157.016C139.666 156.457 139.398 155.652 139.398 154.602ZM140.482 154.602C140.482 155.398 140.656 155.996 141.004 156.394C141.352 156.789 141.789 156.986 142.316 156.986C142.84 156.986 143.275 156.787 143.623 156.389C143.971 155.99 144.145 155.383 144.145 154.566C144.145 153.797 143.969 153.215 143.617 152.82C143.27 152.422 142.836 152.223 142.316 152.223C141.789 152.223 141.352 152.42 141.004 152.814C140.656 153.209 140.482 153.805 140.482 154.602ZM150.549 157.713V156.799C150.064 157.502 149.406 157.853 148.574 157.853C148.207 157.853 147.863 157.783 147.543 157.643C147.227 157.502 146.99 157.326 146.834 157.115C146.682 156.9 146.574 156.639 146.512 156.33C146.469 156.123 146.447 155.795 146.447 155.346V151.49H147.502V154.941C147.502 155.492 147.523 155.863 147.566 156.055C147.633 156.332 147.773 156.551 147.988 156.711C148.203 156.867 148.469 156.945 148.785 156.945C149.102 156.945 149.398 156.865 149.676 156.705C149.953 156.541 150.148 156.32 150.262 156.043C150.379 155.762 150.438 155.355 150.438 154.824V151.49H151.492V157.713H150.549ZM155.453 156.769L155.605 157.701C155.309 157.764 155.043 157.795 154.809 157.795C154.426 157.795 154.129 157.734 153.918 157.613C153.707 157.492 153.559 157.334 153.473 157.139C153.387 156.939 153.344 156.523 153.344 155.891V152.31H152.57V151.49H153.344V149.949L154.393 149.316V151.49H155.453V152.31H154.393V155.949C154.393 156.25 154.41 156.443 154.445 156.529C154.484 156.615 154.545 156.684 154.627 156.734C154.713 156.785 154.834 156.81 154.99 156.81C155.107 156.81 155.262 156.797 155.453 156.769Z" fill="black"/>
<circle cx="128" cy="162.713" r="5" stroke="black" stroke-width="2"/>
<mask id="path-56-inside-5_65_633" fill="white">
<path fill-rule="evenodd" clip-rule="evenodd" d="M125.376 166.537C124.517 165.499 124 164.166 124 162.713C124 161.26 124.517 159.927 125.376 158.889L84 135L84 190.426L125.376 166.537Z"/>
</mask>
<path d="M125.376 166.537L126.376 168.269L128.427 167.085L126.917 165.261L125.376 166.537ZM125.376 158.889L126.917 160.164L128.427 158.34L126.376 157.157L125.376 158.889ZM84 135L85 133.268L82 131.536L82 135L84 135ZM84 190.426L82 190.426L82 193.89L85 192.158L84 190.426ZM126.917 165.261C126.343 164.569 126 163.683 126 162.713H122C122 164.649 122.69 166.429 123.836 167.812L126.917 165.261ZM126 162.713C126 161.742 126.343 160.857 126.917 160.164L123.836 157.613C122.69 158.997 122 160.777 122 162.713H126ZM83 136.732L124.376 160.621L126.376 157.157L85 133.268L83 136.732ZM86 190.426L86 135L82 135L82 190.426L86 190.426ZM124.376 164.805L83 188.694L85 192.158L126.376 168.269L124.376 164.805Z" fill="black" mask="url(#path-56-inside-5_65_633)"/>
<line x1="153.13" y1="162.508" x2="209.13" y2="63.5076" stroke="#FF6B00" stroke-width="2" stroke-dasharray="4 4"/>
<path d="M179.914 152V143.41H181.08L185.592 150.154V143.41H186.682V152H185.516L181.004 145.25V152H179.914ZM188.07 148.889C188.07 147.736 188.391 146.883 189.031 146.328C189.566 145.867 190.219 145.637 190.988 145.637C191.844 145.637 192.543 145.918 193.086 146.48C193.629 147.039 193.9 147.812 193.9 148.801C193.9 149.602 193.779 150.232 193.537 150.693C193.299 151.15 192.949 151.506 192.488 151.76C192.031 152.014 191.531 152.141 190.988 152.141C190.117 152.141 189.412 151.861 188.873 151.303C188.338 150.744 188.07 149.939 188.07 148.889ZM189.154 148.889C189.154 149.686 189.328 150.283 189.676 150.682C190.023 151.076 190.461 151.273 190.988 151.273C191.512 151.273 191.947 151.074 192.295 150.676C192.643 150.277 192.816 149.67 192.816 148.854C192.816 148.084 192.641 147.502 192.289 147.107C191.941 146.709 191.508 146.51 190.988 146.51C190.461 146.51 190.023 146.707 189.676 147.102C189.328 147.496 189.154 148.092 189.154 148.889ZM197.445 151.057L197.598 151.988C197.301 152.051 197.035 152.082 196.801 152.082C196.418 152.082 196.121 152.021 195.91 151.9C195.699 151.779 195.551 151.621 195.465 151.426C195.379 151.227 195.336 150.811 195.336 150.178V146.598H194.562V145.777H195.336V144.236L196.385 143.604V145.777H197.445V146.598H196.385V150.236C196.385 150.537 196.402 150.73 196.438 150.816C196.477 150.902 196.537 150.971 196.619 151.021C196.705 151.072 196.826 151.098 196.982 151.098C197.1 151.098 197.254 151.084 197.445 151.057ZM202.543 151.232C202.152 151.564 201.775 151.799 201.412 151.936C201.053 152.072 200.666 152.141 200.252 152.141C199.568 152.141 199.043 151.975 198.676 151.643C198.309 151.307 198.125 150.879 198.125 150.359C198.125 150.055 198.193 149.777 198.33 149.527C198.471 149.273 198.652 149.07 198.875 148.918C199.102 148.766 199.355 148.65 199.637 148.572C199.844 148.518 200.156 148.465 200.574 148.414C201.426 148.312 202.053 148.191 202.455 148.051C202.459 147.906 202.461 147.814 202.461 147.775C202.461 147.346 202.361 147.043 202.162 146.867C201.893 146.629 201.492 146.51 200.961 146.51C200.465 146.51 200.098 146.598 199.859 146.773C199.625 146.945 199.451 147.252 199.338 147.693L198.307 147.553C198.4 147.111 198.555 146.756 198.77 146.486C198.984 146.213 199.295 146.004 199.701 145.859C200.107 145.711 200.578 145.637 201.113 145.637C201.645 145.637 202.076 145.699 202.408 145.824C202.74 145.949 202.984 146.107 203.141 146.299C203.297 146.486 203.406 146.725 203.469 147.014C203.504 147.193 203.521 147.518 203.521 147.986V149.393C203.521 150.373 203.543 150.994 203.586 151.256C203.633 151.514 203.723 151.762 203.855 152H202.754C202.645 151.781 202.574 151.525 202.543 151.232ZM202.455 148.877C202.072 149.033 201.498 149.166 200.732 149.275C200.299 149.338 199.992 149.408 199.812 149.486C199.633 149.564 199.494 149.68 199.396 149.832C199.299 149.98 199.25 150.146 199.25 150.33C199.25 150.611 199.355 150.846 199.566 151.033C199.781 151.221 200.094 151.314 200.504 151.314C200.91 151.314 201.271 151.227 201.588 151.051C201.904 150.871 202.137 150.627 202.285 150.318C202.398 150.08 202.455 149.729 202.455 149.264V148.877Z" fill="black"/>
<rect x="21.5" y="0.5" width="469" height="225" stroke="black" stroke-dasharray="2 2"/>
</svg>
