<svg width="432" height="384" viewBox="0 0 432 384" fill="none" xmlns="http://www.w3.org/2000/svg">
<mask id="path-1-inside-1_71_779" fill="white">
<path fill-rule="evenodd" clip-rule="evenodd" d="M232 47H180V97H232C245.807 97 257 85.8071 257 72C257 58.1929 245.807 47 232 47Z"/>
</mask>
<path d="M180 47V45H178V47H180ZM180 97H178V99H180V97ZM180 49H232V45H180V49ZM182 97V47H178V97H182ZM232 95H180V99H232V95ZM255 72C255 84.7025 244.703 95 232 95V99C246.912 99 259 86.9117 259 72H255ZM232 49C244.703 49 255 59.2975 255 72H259C259 57.0883 246.912 45 232 45V49Z" fill="black" mask="url(#path-1-inside-1_71_779)"/>
<line x1="158" y1="57" x2="180" y2="57" stroke="black" stroke-width="2"/>
<line x1="158" y1="87" x2="180" y2="87" stroke="black" stroke-width="2"/>
<line x1="257" y1="72" x2="279" y2="72" stroke="black" stroke-width="2"/>
<path d="M167.852 50.2324C167.461 50.5645 167.084 50.7988 166.721 50.9355C166.361 51.0723 165.975 51.1406 165.561 51.1406C164.877 51.1406 164.352 50.9746 163.984 50.6426C163.617 50.3066 163.434 49.8789 163.434 49.3594C163.434 49.0547 163.502 48.7773 163.639 48.5273C163.779 48.2734 163.961 48.0703 164.184 47.918C164.41 47.7656 164.664 47.6504 164.945 47.5723C165.152 47.5176 165.465 47.4648 165.883 47.4141C166.734 47.3125 167.361 47.1914 167.764 47.0508C167.768 46.9062 167.77 46.8145 167.77 46.7754C167.77 46.3457 167.67 46.043 167.471 45.8672C167.201 45.6289 166.801 45.5098 166.27 45.5098C165.773 45.5098 165.406 45.5977 165.168 45.7734C164.934 45.9453 164.76 46.252 164.646 46.6934L163.615 46.5527C163.709 46.1113 163.863 45.7559 164.078 45.4863C164.293 45.2129 164.604 45.0039 165.01 44.8594C165.416 44.7109 165.887 44.6367 166.422 44.6367C166.953 44.6367 167.385 44.6992 167.717 44.8242C168.049 44.9492 168.293 45.1074 168.449 45.2988C168.605 45.4863 168.715 45.7246 168.777 46.0137C168.812 46.1934 168.83 46.5176 168.83 46.9863V48.3926C168.83 49.373 168.852 49.9941 168.895 50.2559C168.941 50.5137 169.031 50.7617 169.164 51H168.062C167.953 50.7812 167.883 50.5254 167.852 50.2324ZM167.764 47.877C167.381 48.0332 166.807 48.166 166.041 48.2754C165.607 48.3379 165.301 48.4082 165.121 48.4863C164.941 48.5645 164.803 48.6797 164.705 48.832C164.607 48.9805 164.559 49.1465 164.559 49.3301C164.559 49.6113 164.664 49.8457 164.875 50.0332C165.09 50.2207 165.402 50.3145 165.812 50.3145C166.219 50.3145 166.58 50.2266 166.896 50.0508C167.213 49.8711 167.445 49.627 167.594 49.3184C167.707 49.0801 167.764 48.7285 167.764 48.2637V47.877Z" fill="black"/>
<path d="M164.764 83H163.785V74.4102H164.84V77.4746C165.285 76.916 165.854 76.6367 166.545 76.6367C166.928 76.6367 167.289 76.7148 167.629 76.8711C167.973 77.0234 168.254 77.2402 168.473 77.5215C168.695 77.7988 168.869 78.1348 168.994 78.5293C169.119 78.9238 169.182 79.3457 169.182 79.7949C169.182 80.8613 168.918 81.6855 168.391 82.2676C167.863 82.8496 167.23 83.1406 166.492 83.1406C165.758 83.1406 165.182 82.834 164.764 82.2207V83ZM164.752 79.8418C164.752 80.5879 164.854 81.127 165.057 81.459C165.389 82.002 165.838 82.2734 166.404 82.2734C166.865 82.2734 167.264 82.0742 167.6 81.6758C167.936 81.2734 168.104 80.6758 168.104 79.8828C168.104 79.0703 167.941 78.4707 167.617 78.084C167.297 77.6973 166.908 77.5039 166.451 77.5039C165.99 77.5039 165.592 77.7051 165.256 78.1074C164.92 78.5059 164.752 79.084 164.752 79.8418Z" fill="black"/>
<path d="M264.398 63.8887C264.398 62.7363 264.719 61.8828 265.359 61.3281C265.895 60.8672 266.547 60.6367 267.316 60.6367C268.172 60.6367 268.871 60.918 269.414 61.4805C269.957 62.0391 270.229 62.8125 270.229 63.8008C270.229 64.6016 270.107 65.2324 269.865 65.6934C269.627 66.1504 269.277 66.5059 268.816 66.7598C268.359 67.0137 267.859 67.1406 267.316 67.1406C266.445 67.1406 265.74 66.8613 265.201 66.3027C264.666 65.7441 264.398 64.9395 264.398 63.8887ZM265.482 63.8887C265.482 64.6855 265.656 65.2832 266.004 65.6816C266.352 66.0762 266.789 66.2734 267.316 66.2734C267.84 66.2734 268.275 66.0742 268.623 65.6758C268.971 65.2773 269.145 64.6699 269.145 63.8535C269.145 63.084 268.969 62.502 268.617 62.1074C268.27 61.709 267.836 61.5098 267.316 61.5098C266.789 61.5098 266.352 61.707 266.004 62.1016C265.656 62.4961 265.482 63.0918 265.482 63.8887ZM275.549 67V66.0859C275.064 66.7891 274.406 67.1406 273.574 67.1406C273.207 67.1406 272.863 67.0703 272.543 66.9297C272.227 66.7891 271.99 66.6133 271.834 66.4023C271.682 66.1875 271.574 65.9258 271.512 65.6172C271.469 65.4102 271.447 65.082 271.447 64.6328V60.7773H272.502V64.2285C272.502 64.7793 272.523 65.1504 272.566 65.3418C272.633 65.6191 272.773 65.8379 272.988 65.998C273.203 66.1543 273.469 66.2324 273.785 66.2324C274.102 66.2324 274.398 66.1523 274.676 65.9922C274.953 65.8281 275.148 65.6074 275.262 65.3301C275.379 65.0488 275.438 64.6426 275.438 64.1113V60.7773H276.492V67H275.549ZM280.453 66.0566L280.605 66.9883C280.309 67.0508 280.043 67.082 279.809 67.082C279.426 67.082 279.129 67.0215 278.918 66.9004C278.707 66.7793 278.559 66.6211 278.473 66.4258C278.387 66.2266 278.344 65.8105 278.344 65.1777V61.5977H277.57V60.7773H278.344V59.2363L279.393 58.6035V60.7773H280.453V61.5977H279.393V65.2363C279.393 65.5371 279.41 65.7305 279.445 65.8164C279.484 65.9023 279.545 65.9707 279.627 66.0215C279.713 66.0723 279.834 66.0977 279.99 66.0977C280.107 66.0977 280.262 66.084 280.453 66.0566Z" fill="black"/>
<path d="M45.8516 48.7207L46.8887 48.8555C46.7754 49.5703 46.4844 50.1309 46.0156 50.5371C45.5508 50.9395 44.9785 51.1406 44.2988 51.1406C43.4473 51.1406 42.7617 50.8633 42.2422 50.3086C41.7266 49.75 41.4688 48.9512 41.4688 47.9121C41.4688 47.2402 41.5801 46.6523 41.8027 46.1484C42.0254 45.6445 42.3633 45.2676 42.8164 45.0176C43.2734 44.7637 43.7695 44.6367 44.3047 44.6367C44.9805 44.6367 45.5332 44.8086 45.9629 45.1523C46.3926 45.4922 46.668 45.9766 46.7891 46.6055L45.7637 46.7637C45.666 46.3457 45.4922 46.0312 45.2422 45.8203C44.9961 45.6094 44.6973 45.5039 44.3457 45.5039C43.8145 45.5039 43.3828 45.6953 43.0508 46.0781C42.7188 46.457 42.5527 47.0586 42.5527 47.8828C42.5527 48.7188 42.7129 49.3262 43.0332 49.7051C43.3535 50.084 43.7715 50.2734 44.2871 50.2734C44.7012 50.2734 45.0469 50.1465 45.3242 49.8926C45.6016 49.6387 45.7773 49.248 45.8516 48.7207Z" fill="black"/>
<path d="M195.232 189.148C195.564 189.539 195.799 189.916 195.936 190.279C196.072 190.639 196.141 191.025 196.141 191.439C196.141 192.123 195.975 192.648 195.643 193.016C195.307 193.383 194.879 193.566 194.359 193.566C194.055 193.566 193.777 193.498 193.527 193.361C193.273 193.221 193.07 193.039 192.918 192.816C192.766 192.59 192.65 192.336 192.572 192.055C192.518 191.848 192.465 191.535 192.414 191.117C192.312 190.266 192.191 189.639 192.051 189.236C191.906 189.232 191.814 189.23 191.775 189.23C191.346 189.23 191.043 189.33 190.867 189.529C190.629 189.799 190.51 190.199 190.51 190.73C190.51 191.227 190.598 191.594 190.773 191.832C190.945 192.066 191.252 192.24 191.693 192.354L191.553 193.385C191.111 193.291 190.756 193.137 190.486 192.922C190.213 192.707 190.004 192.396 189.859 191.99C189.711 191.584 189.637 191.113 189.637 190.578C189.637 190.047 189.699 189.615 189.824 189.283C189.949 188.951 190.107 188.707 190.299 188.551C190.486 188.395 190.725 188.285 191.014 188.223C191.193 188.187 191.518 188.17 191.986 188.17L193.393 188.17C194.373 188.17 194.994 188.148 195.256 188.105C195.514 188.059 195.762 187.969 196 187.836L196 188.937C195.781 189.047 195.525 189.117 195.232 189.148ZM192.877 189.236C193.033 189.619 193.166 190.193 193.275 190.959C193.338 191.393 193.408 191.699 193.486 191.879C193.564 192.059 193.68 192.197 193.832 192.295C193.98 192.393 194.146 192.441 194.33 192.441C194.611 192.441 194.846 192.336 195.033 192.125C195.221 191.91 195.314 191.598 195.314 191.187C195.314 190.781 195.227 190.42 195.051 190.104C194.871 189.787 194.627 189.555 194.318 189.406C194.08 189.293 193.729 189.236 193.264 189.236L192.877 189.236ZM190.949 180.98L190.949 186.652L189.965 186.652L189.965 180.98L190.949 180.98ZM193.557 180.98L193.557 186.652L192.572 186.652L192.572 180.98L193.557 180.98ZM195.057 177.219L195.988 177.066C196.051 177.363 196.082 177.629 196.082 177.863C196.082 178.246 196.021 178.543 195.9 178.754C195.779 178.965 195.621 179.113 195.426 179.199C195.227 179.285 194.811 179.328 194.178 179.328L190.598 179.328L190.598 180.102L189.777 180.102L189.777 179.328L188.236 179.328L187.604 178.279L189.777 178.279L189.777 177.219L190.598 177.219L190.598 178.279L194.236 178.279C194.537 178.279 194.73 178.262 194.816 178.227C194.902 178.187 194.971 178.127 195.021 178.045C195.072 177.959 195.098 177.838 195.098 177.682C195.098 177.564 195.084 177.41 195.057 177.219ZM196 176.193L189.777 176.193L189.777 175.244L190.721 175.244C190.279 175.002 189.988 174.779 189.848 174.576C189.707 174.369 189.637 174.143 189.637 173.896C189.637 173.541 189.75 173.18 189.977 172.812L190.955 173.176C190.803 173.434 190.727 173.691 190.727 173.949C190.727 174.18 190.797 174.387 190.937 174.57C191.074 174.754 191.266 174.885 191.512 174.963C191.887 175.08 192.297 175.139 192.742 175.139L196 175.139L196 176.193ZM196 168.107L195.086 168.107C195.789 168.592 196.141 169.25 196.141 170.082C196.141 170.449 196.07 170.793 195.93 171.113C195.789 171.43 195.613 171.666 195.402 171.822C195.187 171.975 194.926 172.082 194.617 172.145C194.41 172.187 194.082 172.209 193.633 172.209L189.777 172.209L189.777 171.154L193.229 171.154C193.779 171.154 194.15 171.133 194.342 171.09C194.619 171.023 194.838 170.883 194.998 170.668C195.154 170.453 195.232 170.187 195.232 169.871C195.232 169.555 195.152 169.258 194.992 168.98C194.828 168.703 194.607 168.508 194.33 168.395C194.049 168.277 193.643 168.219 193.111 168.219L189.777 168.219L189.777 167.164L196 167.164L196 168.107ZM193.996 161.246L194.131 160.156C194.768 160.328 195.262 160.646 195.613 161.111C195.965 161.576 196.141 162.17 196.141 162.893C196.141 163.803 195.861 164.525 195.303 165.061C194.74 165.592 193.953 165.857 192.941 165.857C191.895 165.857 191.082 165.588 190.504 165.049C189.926 164.51 189.637 163.811 189.637 162.951C189.637 162.119 189.92 161.439 190.486 160.912C191.053 160.385 191.85 160.121 192.877 160.121C192.939 160.121 193.033 160.123 193.158 160.127L193.158 164.768C193.842 164.729 194.365 164.535 194.729 164.187C195.092 163.84 195.273 163.406 195.273 162.887C195.273 162.5 195.172 162.17 194.969 161.896C194.766 161.623 194.441 161.406 193.996 161.246ZM192.291 164.709L192.291 161.234C191.768 161.281 191.375 161.414 191.113 161.633C190.707 161.969 190.504 162.404 190.504 162.939C190.504 163.424 190.666 163.832 190.99 164.164C191.314 164.492 191.748 164.674 192.291 164.709Z" fill="black"/>
<path d="M199 310.236L199 311.215L190.41 311.215L190.41 310.16L193.475 310.16C192.916 309.715 192.637 309.146 192.637 308.455C192.637 308.072 192.715 307.711 192.871 307.371C193.023 307.027 193.24 306.746 193.521 306.527C193.799 306.305 194.135 306.131 194.529 306.006C194.924 305.881 195.346 305.818 195.795 305.818C196.861 305.818 197.686 306.082 198.268 306.609C198.85 307.137 199.141 307.77 199.141 308.508C199.141 309.242 198.834 309.818 198.221 310.236L199 310.236ZM195.842 310.248C196.588 310.248 197.127 310.146 197.459 309.943C198.002 309.611 198.273 309.162 198.273 308.596C198.273 308.135 198.074 307.736 197.676 307.4C197.273 307.064 196.676 306.896 195.883 306.896C195.07 306.896 194.471 307.059 194.084 307.383C193.697 307.703 193.504 308.092 193.504 308.549C193.504 309.01 193.705 309.408 194.107 309.744C194.506 310.08 195.084 310.248 195.842 310.248ZM193.949 298.98L193.949 304.652L192.965 304.652L192.965 298.98L193.949 298.98ZM196.557 298.98L196.557 304.652L195.572 304.652L195.572 298.98L196.557 298.98ZM199 297.27L193.598 297.27L193.598 298.201L192.777 298.201L192.777 297.27L192.115 297.27C191.697 297.27 191.387 297.232 191.184 297.158C190.91 297.057 190.689 296.879 190.521 296.625C190.35 296.367 190.264 296.008 190.264 295.547C190.264 295.25 190.299 294.922 190.369 294.562L191.289 294.721C191.25 294.939 191.23 295.146 191.23 295.342C191.23 295.662 191.299 295.889 191.436 296.021C191.572 296.154 191.828 296.221 192.203 296.221L192.777 296.221L192.777 295.008L193.598 295.008L193.598 296.221L199 296.221L199 297.27ZM198.232 290.121C198.564 290.512 198.799 290.889 198.936 291.252C199.072 291.611 199.141 291.998 199.141 292.412C199.141 293.096 198.975 293.621 198.643 293.988C198.307 294.355 197.879 294.539 197.359 294.539C197.055 294.539 196.777 294.471 196.527 294.334C196.273 294.193 196.07 294.012 195.918 293.789C195.766 293.562 195.65 293.309 195.572 293.027C195.518 292.82 195.465 292.508 195.414 292.09C195.312 291.238 195.191 290.611 195.051 290.209C194.906 290.205 194.814 290.203 194.775 290.203C194.346 290.203 194.043 290.303 193.867 290.502C193.629 290.771 193.51 291.172 193.51 291.703C193.51 292.199 193.598 292.566 193.773 292.805C193.945 293.039 194.252 293.213 194.693 293.326L194.553 294.357C194.111 294.264 193.756 294.109 193.486 293.895C193.213 293.68 193.004 293.369 192.859 292.963C192.711 292.557 192.637 292.086 192.637 291.551C192.637 291.02 192.699 290.588 192.824 290.256C192.949 289.924 193.107 289.68 193.299 289.523C193.486 289.367 193.725 289.258 194.014 289.195C194.193 289.16 194.518 289.143 194.986 289.143L196.393 289.143C197.373 289.143 197.994 289.121 198.256 289.078C198.514 289.031 198.762 288.941 199 288.809L199 289.91C198.781 290.02 198.525 290.09 198.232 290.121ZM195.877 290.209C196.033 290.592 196.166 291.166 196.275 291.932C196.338 292.365 196.408 292.672 196.486 292.852C196.564 293.031 196.68 293.17 196.832 293.268C196.98 293.365 197.146 293.414 197.33 293.414C197.611 293.414 197.846 293.309 198.033 293.098C198.221 292.883 198.314 292.57 198.314 292.16C198.314 291.754 198.227 291.393 198.051 291.076C197.871 290.76 197.627 290.527 197.318 290.379C197.08 290.266 196.729 290.209 196.264 290.209L195.877 290.209ZM199 287.525L190.41 287.525L190.41 286.471L199 286.471L199 287.525ZM197.143 285.252L196.979 284.209C197.396 284.15 197.717 283.988 197.939 283.723C198.162 283.453 198.273 283.078 198.273 282.598C198.273 282.113 198.176 281.754 197.98 281.52C197.781 281.285 197.549 281.168 197.283 281.168C197.045 281.168 196.857 281.271 196.721 281.479C196.627 281.623 196.508 281.982 196.363 282.557C196.168 283.33 196 283.867 195.859 284.168C195.715 284.465 195.518 284.691 195.268 284.848C195.014 285 194.734 285.076 194.43 285.076C194.152 285.076 193.896 285.014 193.662 284.889C193.424 284.76 193.227 284.586 193.07 284.367C192.949 284.203 192.848 283.98 192.766 283.699C192.68 283.414 192.637 283.109 192.637 282.785C192.637 282.297 192.707 281.869 192.848 281.502C192.988 281.131 193.18 280.857 193.422 280.682C193.66 280.506 193.98 280.385 194.383 280.318L194.523 281.35C194.203 281.396 193.953 281.533 193.773 281.76C193.594 281.982 193.504 282.299 193.504 282.709C193.504 283.193 193.584 283.539 193.744 283.746C193.904 283.953 194.092 284.057 194.307 284.057C194.443 284.057 194.566 284.014 194.676 283.928C194.789 283.842 194.883 283.707 194.957 283.523C194.996 283.418 195.086 283.107 195.227 282.592C195.426 281.846 195.59 281.326 195.719 281.033C195.844 280.736 196.027 280.504 196.27 280.336C196.512 280.168 196.812 280.084 197.172 280.084C197.523 280.084 197.855 280.187 198.168 280.395C198.477 280.598 198.717 280.893 198.889 281.279C199.057 281.666 199.141 282.104 199.141 282.592C199.141 283.4 198.973 284.018 198.637 284.443C198.301 284.865 197.803 285.135 197.143 285.252ZM196.996 274.57L197.131 273.48C197.768 273.652 198.262 273.971 198.613 274.436C198.965 274.9 199.141 275.494 199.141 276.217C199.141 277.127 198.861 277.85 198.303 278.385C197.74 278.916 196.953 279.182 195.941 279.182C194.895 279.182 194.082 278.912 193.504 278.373C192.926 277.834 192.637 277.135 192.637 276.275C192.637 275.443 192.92 274.764 193.486 274.236C194.053 273.709 194.85 273.445 195.877 273.445C195.939 273.445 196.033 273.447 196.158 273.451L196.158 278.092C196.842 278.053 197.365 277.859 197.729 277.512C198.092 277.164 198.273 276.73 198.273 276.211C198.273 275.824 198.172 275.494 197.969 275.221C197.766 274.947 197.441 274.73 196.996 274.57ZM195.291 278.033L195.291 274.559C194.768 274.605 194.375 274.738 194.113 274.957C193.707 275.293 193.504 275.729 193.504 276.264C193.504 276.748 193.666 277.156 193.99 277.488C194.314 277.816 194.748 277.998 195.291 278.033Z" fill="black"/>
<path d="M386.398 61.8887C386.398 60.7363 386.719 59.8828 387.359 59.3281C387.895 58.8672 388.547 58.6367 389.316 58.6367C390.172 58.6367 390.871 58.918 391.414 59.4805C391.957 60.0391 392.229 60.8125 392.229 61.8008C392.229 62.6016 392.107 63.2324 391.865 63.6934C391.627 64.1504 391.277 64.5059 390.816 64.7598C390.359 65.0137 389.859 65.1406 389.316 65.1406C388.445 65.1406 387.74 64.8613 387.201 64.3027C386.666 63.7441 386.398 62.9395 386.398 61.8887ZM387.482 61.8887C387.482 62.6855 387.656 63.2832 388.004 63.6816C388.352 64.0762 388.789 64.2734 389.316 64.2734C389.84 64.2734 390.275 64.0742 390.623 63.6758C390.971 63.2773 391.145 62.6699 391.145 61.8535C391.145 61.084 390.969 60.502 390.617 60.1074C390.27 59.709 389.836 59.5098 389.316 59.5098C388.789 59.5098 388.352 59.707 388.004 60.1016C387.656 60.4961 387.482 61.0918 387.482 61.8887ZM397.549 65V64.0859C397.064 64.7891 396.406 65.1406 395.574 65.1406C395.207 65.1406 394.863 65.0703 394.543 64.9297C394.227 64.7891 393.99 64.6133 393.834 64.4023C393.682 64.1875 393.574 63.9258 393.512 63.6172C393.469 63.4102 393.447 63.082 393.447 62.6328V58.7773H394.502V62.2285C394.502 62.7793 394.523 63.1504 394.566 63.3418C394.633 63.6191 394.773 63.8379 394.988 63.998C395.203 64.1543 395.469 64.2324 395.785 64.2324C396.102 64.2324 396.398 64.1523 396.676 63.9922C396.953 63.8281 397.148 63.6074 397.262 63.3301C397.379 63.0488 397.438 62.6426 397.438 62.1113V58.7773H398.492V65H397.549ZM402.453 64.0566L402.605 64.9883C402.309 65.0508 402.043 65.082 401.809 65.082C401.426 65.082 401.129 65.0215 400.918 64.9004C400.707 64.7793 400.559 64.6211 400.473 64.4258C400.387 64.2266 400.344 63.8105 400.344 63.1777V59.5977H399.57V58.7773H400.344V57.2363L401.393 56.6035V58.7773H402.453V59.5977H401.393V63.2363C401.393 63.5371 401.41 63.7305 401.445 63.8164C401.484 63.9023 401.545 63.9707 401.627 64.0215C401.713 64.0723 401.834 64.0977 401.99 64.0977C402.107 64.0977 402.262 64.084 402.453 64.0566Z" fill="black"/>
<path d="M388.398 179.889C388.398 178.736 388.719 177.883 389.359 177.328C389.895 176.867 390.547 176.637 391.316 176.637C392.172 176.637 392.871 176.918 393.414 177.48C393.957 178.039 394.229 178.812 394.229 179.801C394.229 180.602 394.107 181.232 393.865 181.693C393.627 182.15 393.277 182.506 392.816 182.76C392.359 183.014 391.859 183.141 391.316 183.141C390.445 183.141 389.74 182.861 389.201 182.303C388.666 181.744 388.398 180.939 388.398 179.889ZM389.482 179.889C389.482 180.686 389.656 181.283 390.004 181.682C390.352 182.076 390.789 182.273 391.316 182.273C391.84 182.273 392.275 182.074 392.623 181.676C392.971 181.277 393.145 180.67 393.145 179.854C393.145 179.084 392.969 178.502 392.617 178.107C392.27 177.709 391.836 177.51 391.316 177.51C390.789 177.51 390.352 177.707 390.004 178.102C389.656 178.496 389.482 179.092 389.482 179.889ZM399.549 183V182.086C399.064 182.789 398.406 183.141 397.574 183.141C397.207 183.141 396.863 183.07 396.543 182.93C396.227 182.789 395.99 182.613 395.834 182.402C395.682 182.188 395.574 181.926 395.512 181.617C395.469 181.41 395.447 181.082 395.447 180.633V176.777H396.502V180.229C396.502 180.779 396.523 181.15 396.566 181.342C396.633 181.619 396.773 181.838 396.988 181.998C397.203 182.154 397.469 182.232 397.785 182.232C398.102 182.232 398.398 182.152 398.676 181.992C398.953 181.828 399.148 181.607 399.262 181.33C399.379 181.049 399.438 180.643 399.438 180.111V176.777H400.492V183H399.549ZM404.453 182.057L404.605 182.988C404.309 183.051 404.043 183.082 403.809 183.082C403.426 183.082 403.129 183.021 402.918 182.9C402.707 182.779 402.559 182.621 402.473 182.426C402.387 182.227 402.344 181.811 402.344 181.178V177.598H401.57V176.777H402.344V175.236L403.393 174.604V176.777H404.453V177.598H403.393V181.236C403.393 181.537 403.41 181.73 403.445 181.816C403.484 181.902 403.545 181.971 403.627 182.021C403.713 182.072 403.834 182.098 403.99 182.098C404.107 182.098 404.262 182.084 404.453 182.057ZM410.74 181.986V183H405.062C405.055 182.746 405.096 182.502 405.186 182.268C405.33 181.881 405.561 181.5 405.877 181.125C406.197 180.75 406.658 180.316 407.26 179.824C408.193 179.059 408.824 178.453 409.152 178.008C409.48 177.559 409.645 177.135 409.645 176.736C409.645 176.318 409.494 175.967 409.193 175.682C408.896 175.393 408.508 175.248 408.027 175.248C407.52 175.248 407.113 175.4 406.809 175.705C406.504 176.01 406.35 176.432 406.346 176.971L405.262 176.859C405.336 176.051 405.615 175.436 406.1 175.014C406.584 174.588 407.234 174.375 408.051 174.375C408.875 174.375 409.527 174.604 410.008 175.061C410.488 175.518 410.729 176.084 410.729 176.76C410.729 177.104 410.658 177.441 410.518 177.773C410.377 178.105 410.143 178.455 409.814 178.822C409.49 179.189 408.949 179.693 408.191 180.334C407.559 180.865 407.152 181.227 406.973 181.418C406.793 181.605 406.645 181.795 406.527 181.986H410.74ZM412.193 185.385V174.41H414.52V175.283H413.248V184.512H414.52V185.385H412.193ZM419.189 183H418.135V176.279C417.881 176.521 417.547 176.764 417.133 177.006C416.723 177.248 416.354 177.43 416.025 177.551V176.531C416.615 176.254 417.131 175.918 417.572 175.523C418.014 175.129 418.326 174.746 418.51 174.375H419.189V183ZM427.369 176.514L426.32 176.596C426.227 176.182 426.094 175.881 425.922 175.693C425.637 175.393 425.285 175.242 424.867 175.242C424.531 175.242 424.236 175.336 423.982 175.523C423.65 175.766 423.389 176.119 423.197 176.584C423.006 177.049 422.906 177.711 422.898 178.57C423.152 178.184 423.463 177.896 423.83 177.709C424.197 177.521 424.582 177.428 424.984 177.428C425.688 177.428 426.285 177.688 426.777 178.207C427.273 178.723 427.521 179.391 427.521 180.211C427.521 180.75 427.404 181.252 427.17 181.717C426.939 182.178 426.621 182.531 426.215 182.777C425.809 183.023 425.348 183.146 424.832 183.146C423.953 183.146 423.236 182.824 422.682 182.18C422.127 181.531 421.85 180.465 421.85 178.98C421.85 177.32 422.156 176.113 422.77 175.359C423.305 174.703 424.025 174.375 424.932 174.375C425.607 174.375 426.16 174.564 426.59 174.943C427.023 175.322 427.283 175.846 427.369 176.514ZM423.062 180.217C423.062 180.58 423.139 180.928 423.291 181.26C423.447 181.592 423.664 181.846 423.941 182.021C424.219 182.193 424.51 182.279 424.814 182.279C425.26 182.279 425.643 182.1 425.963 181.74C426.283 181.381 426.443 180.893 426.443 180.275C426.443 179.682 426.285 179.215 425.969 178.875C425.652 178.531 425.254 178.359 424.773 178.359C424.297 178.359 423.893 178.531 423.561 178.875C423.229 179.215 423.062 179.662 423.062 180.217ZM430.633 185.385H428.307V184.512H429.578V175.283H428.307V174.41H430.633V185.385Z" fill="black"/>
<path d="M0.878906 124V115.41H4.10156C4.75781 115.41 5.2832 115.498 5.67773 115.674C6.07617 115.846 6.38672 116.113 6.60938 116.477C6.83594 116.836 6.94922 117.213 6.94922 117.607C6.94922 117.975 6.84961 118.32 6.65039 118.645C6.45117 118.969 6.15039 119.23 5.74805 119.43C6.26758 119.582 6.66602 119.842 6.94336 120.209C7.22461 120.576 7.36523 121.01 7.36523 121.51C7.36523 121.912 7.2793 122.287 7.10742 122.635C6.93945 122.979 6.73047 123.244 6.48047 123.432C6.23047 123.619 5.91602 123.762 5.53711 123.859C5.16211 123.953 4.70117 124 4.1543 124H0.878906ZM2.01562 119.02H3.87305C4.37695 119.02 4.73828 118.986 4.95703 118.92C5.24609 118.834 5.46289 118.691 5.60742 118.492C5.75586 118.293 5.83008 118.043 5.83008 117.742C5.83008 117.457 5.76172 117.207 5.625 116.992C5.48828 116.773 5.29297 116.625 5.03906 116.547C4.78516 116.465 4.34961 116.424 3.73242 116.424H2.01562V119.02ZM2.01562 122.986H4.1543C4.52148 122.986 4.7793 122.973 4.92773 122.945C5.18945 122.898 5.4082 122.82 5.58398 122.711C5.75977 122.602 5.9043 122.443 6.01758 122.236C6.13086 122.025 6.1875 121.783 6.1875 121.51C6.1875 121.189 6.10547 120.912 5.94141 120.678C5.77734 120.439 5.54883 120.273 5.25586 120.18C4.9668 120.082 4.54883 120.033 4.00195 120.033H2.01562V122.986ZM12.873 124V123.086C12.3887 123.789 11.7305 124.141 10.8984 124.141C10.5312 124.141 10.1875 124.07 9.86719 123.93C9.55078 123.789 9.31445 123.613 9.1582 123.402C9.00586 123.188 8.89844 122.926 8.83594 122.617C8.79297 122.41 8.77148 122.082 8.77148 121.633V117.777H9.82617V121.229C9.82617 121.779 9.84766 122.15 9.89062 122.342C9.95703 122.619 10.0977 122.838 10.3125 122.998C10.5273 123.154 10.793 123.232 11.1094 123.232C11.4258 123.232 11.7227 123.152 12 122.992C12.2773 122.828 12.4727 122.607 12.5859 122.33C12.7031 122.049 12.7617 121.643 12.7617 121.111V117.777H13.8164V124H12.873ZM15.0527 122.143L16.0957 121.979C16.1543 122.396 16.3164 122.717 16.582 122.939C16.8516 123.162 17.2266 123.273 17.707 123.273C18.1914 123.273 18.5508 123.176 18.7852 122.98C19.0195 122.781 19.1367 122.549 19.1367 122.283C19.1367 122.045 19.0332 121.857 18.8262 121.721C18.6816 121.627 18.3223 121.508 17.748 121.363C16.9746 121.168 16.4375 121 16.1367 120.859C15.8398 120.715 15.6133 120.518 15.457 120.268C15.3047 120.014 15.2285 119.734 15.2285 119.43C15.2285 119.152 15.291 118.896 15.416 118.662C15.5449 118.424 15.7188 118.227 15.9375 118.07C16.1016 117.949 16.3242 117.848 16.6055 117.766C16.8906 117.68 17.1953 117.637 17.5195 117.637C18.0078 117.637 18.4355 117.707 18.8027 117.848C19.1738 117.988 19.4473 118.18 19.623 118.422C19.7988 118.66 19.9199 118.98 19.9863 119.383L18.9551 119.523C18.9082 119.203 18.7715 118.953 18.5449 118.773C18.3223 118.594 18.0059 118.504 17.5957 118.504C17.1113 118.504 16.7656 118.584 16.5586 118.744C16.3516 118.904 16.248 119.092 16.248 119.307C16.248 119.443 16.291 119.566 16.377 119.676C16.4629 119.789 16.5977 119.883 16.7812 119.957C16.8867 119.996 17.1973 120.086 17.7129 120.227C18.459 120.426 18.9785 120.59 19.2715 120.719C19.5684 120.844 19.8008 121.027 19.9688 121.27C20.1367 121.512 20.2207 121.812 20.2207 122.172C20.2207 122.523 20.1172 122.855 19.9102 123.168C19.707 123.477 19.4121 123.717 19.0254 123.889C18.6387 124.057 18.2012 124.141 17.7129 124.141C16.9043 124.141 16.2871 123.973 15.8613 123.637C15.4395 123.301 15.1699 122.803 15.0527 122.143ZM25.1543 124H24.0996V117.279C23.8457 117.521 23.5117 117.764 23.0977 118.006C22.6875 118.248 22.3184 118.43 21.9902 118.551V117.531C22.5801 117.254 23.0957 116.918 23.5371 116.523C23.9785 116.129 24.291 115.746 24.4746 115.375H25.1543V124ZM28.1777 126.385V115.41H30.5039V116.283H29.2324V125.512H30.5039V126.385H28.1777ZM35.1738 124H34.1191V117.279C33.8652 117.521 33.5312 117.764 33.1172 118.006C32.707 118.248 32.3379 118.43 32.0098 118.551V117.531C32.5996 117.254 33.1152 116.918 33.5566 116.523C33.998 116.129 34.3105 115.746 34.4941 115.375H35.1738V124ZM43.3535 117.514L42.3047 117.596C42.2109 117.182 42.0781 116.881 41.9062 116.693C41.6211 116.393 41.2695 116.242 40.8516 116.242C40.5156 116.242 40.2207 116.336 39.9668 116.523C39.6348 116.766 39.373 117.119 39.1816 117.584C38.9902 118.049 38.8906 118.711 38.8828 119.57C39.1367 119.184 39.4473 118.896 39.8145 118.709C40.1816 118.521 40.5664 118.428 40.9688 118.428C41.6719 118.428 42.2695 118.688 42.7617 119.207C43.2578 119.723 43.5059 120.391 43.5059 121.211C43.5059 121.75 43.3887 122.252 43.1543 122.717C42.9238 123.178 42.6055 123.531 42.1992 123.777C41.793 124.023 41.332 124.146 40.8164 124.146C39.9375 124.146 39.2207 123.824 38.666 123.18C38.1113 122.531 37.834 121.465 37.834 119.98C37.834 118.32 38.1406 117.113 38.7539 116.359C39.2891 115.703 40.0098 115.375 40.916 115.375C41.5918 115.375 42.1445 115.564 42.5742 115.943C43.0078 116.322 43.2676 116.846 43.3535 117.514ZM39.0469 121.217C39.0469 121.58 39.123 121.928 39.2754 122.26C39.4316 122.592 39.6484 122.846 39.9258 123.021C40.2031 123.193 40.4941 123.279 40.7988 123.279C41.2441 123.279 41.627 123.1 41.9473 122.74C42.2676 122.381 42.4277 121.893 42.4277 121.275C42.4277 120.682 42.2695 120.215 41.9531 119.875C41.6367 119.531 41.2383 119.359 40.7578 119.359C40.2812 119.359 39.877 119.531 39.5449 119.875C39.2129 120.215 39.0469 120.662 39.0469 121.217ZM46.6172 126.385H44.291V125.512H45.5625V116.283H44.291V115.41H46.6172V126.385Z" fill="black"/>
<path d="M213.619 241H211.732L210.982 239.049H207.549L206.84 241H205L208.346 232.41H210.18L213.619 241ZM210.426 237.602L209.242 234.414L208.082 237.602H210.426ZM220.24 241H218.711V240.086C218.457 240.441 218.156 240.707 217.809 240.883C217.465 241.055 217.117 241.141 216.766 241.141C216.051 241.141 215.438 240.854 214.926 240.279C214.418 239.701 214.164 238.896 214.164 237.865C214.164 236.811 214.412 236.01 214.908 235.463C215.404 234.912 216.031 234.637 216.789 234.637C217.484 234.637 218.086 234.926 218.594 235.504V232.41H220.24V241ZM215.846 237.754C215.846 238.418 215.938 238.898 216.121 239.195C216.387 239.625 216.758 239.84 217.234 239.84C217.613 239.84 217.936 239.68 218.201 239.359C218.467 239.035 218.6 238.553 218.6 237.912C218.6 237.197 218.471 236.684 218.213 236.371C217.955 236.055 217.625 235.896 217.223 235.896C216.832 235.896 216.504 236.053 216.238 236.365C215.977 236.674 215.846 237.137 215.846 237.754ZM227.576 241H226.047V240.086C225.793 240.441 225.492 240.707 225.145 240.883C224.801 241.055 224.453 241.141 224.102 241.141C223.387 241.141 222.773 240.854 222.262 240.279C221.754 239.701 221.5 238.896 221.5 237.865C221.5 236.811 221.748 236.01 222.244 235.463C222.74 234.912 223.367 234.637 224.125 234.637C224.82 234.637 225.422 234.926 225.93 235.504V232.41H227.576V241ZM223.182 237.754C223.182 238.418 223.273 238.898 223.457 239.195C223.723 239.625 224.094 239.84 224.57 239.84C224.949 239.84 225.271 239.68 225.537 239.359C225.803 239.035 225.936 238.553 225.936 237.912C225.936 237.197 225.807 236.684 225.549 236.371C225.291 236.055 224.961 235.896 224.559 235.896C224.168 235.896 223.84 236.053 223.574 236.365C223.312 236.674 223.182 237.137 223.182 237.754ZM233.066 241H231.42V234.795C230.818 235.357 230.109 235.773 229.293 236.043V234.549C229.723 234.408 230.189 234.143 230.693 233.752C231.197 233.357 231.543 232.898 231.73 232.375H233.066V241ZM241.111 234.514L239.518 234.689C239.479 234.361 239.377 234.119 239.213 233.963C239.049 233.807 238.836 233.729 238.574 233.729C238.227 233.729 237.932 233.885 237.689 234.197C237.451 234.51 237.301 235.16 237.238 236.148C237.648 235.664 238.158 235.422 238.768 235.422C239.455 235.422 240.043 235.684 240.531 236.207C241.023 236.73 241.27 237.406 241.27 238.234C241.27 239.113 241.012 239.818 240.496 240.35C239.98 240.881 239.318 241.146 238.51 241.146C237.643 241.146 236.93 240.811 236.371 240.139C235.812 239.463 235.533 238.357 235.533 236.822C235.533 235.248 235.824 234.113 236.406 233.418C236.988 232.723 237.744 232.375 238.674 232.375C239.326 232.375 239.865 232.559 240.291 232.926C240.721 233.289 240.994 233.818 241.111 234.514ZM237.379 238.105C237.379 238.641 237.502 239.055 237.748 239.348C237.994 239.637 238.275 239.781 238.592 239.781C238.896 239.781 239.15 239.662 239.354 239.424C239.557 239.186 239.658 238.795 239.658 238.252C239.658 237.693 239.549 237.285 239.33 237.027C239.111 236.766 238.838 236.635 238.51 236.635C238.193 236.635 237.926 236.76 237.707 237.01C237.488 237.256 237.379 237.621 237.379 238.105Z" fill="black"/>
<path d="M213.619 77H211.732L210.982 75.0488H207.549L206.84 77H205L208.346 68.4102H210.18L213.619 77ZM210.426 73.6016L209.242 70.4141L208.082 73.6016H210.426ZM220.24 77H218.711V76.0859C218.457 76.4414 218.156 76.707 217.809 76.8828C217.465 77.0547 217.117 77.1406 216.766 77.1406C216.051 77.1406 215.438 76.8535 214.926 76.2793C214.418 75.7012 214.164 74.8965 214.164 73.8652C214.164 72.8105 214.412 72.0098 214.908 71.4629C215.404 70.9121 216.031 70.6367 216.789 70.6367C217.484 70.6367 218.086 70.9258 218.594 71.5039V68.4102H220.24V77ZM215.846 73.7539C215.846 74.418 215.938 74.8984 216.121 75.1953C216.387 75.625 216.758 75.8398 217.234 75.8398C217.613 75.8398 217.936 75.6797 218.201 75.3594C218.467 75.0352 218.6 74.5527 218.6 73.9121C218.6 73.1973 218.471 72.6836 218.213 72.3711C217.955 72.0547 217.625 71.8965 217.223 71.8965C216.832 71.8965 216.504 72.0527 216.238 72.3652C215.977 72.6738 215.846 73.1367 215.846 73.7539ZM227.576 77H226.047V76.0859C225.793 76.4414 225.492 76.707 225.145 76.8828C224.801 77.0547 224.453 77.1406 224.102 77.1406C223.387 77.1406 222.773 76.8535 222.262 76.2793C221.754 75.7012 221.5 74.8965 221.5 73.8652C221.5 72.8105 221.748 72.0098 222.244 71.4629C222.74 70.9121 223.367 70.6367 224.125 70.6367C224.82 70.6367 225.422 70.9258 225.93 71.5039V68.4102H227.576V77ZM223.182 73.7539C223.182 74.418 223.273 74.8984 223.457 75.1953C223.723 75.625 224.094 75.8398 224.57 75.8398C224.949 75.8398 225.271 75.6797 225.537 75.3594C225.803 75.0352 225.936 74.5527 225.936 73.9121C225.936 73.1973 225.807 72.6836 225.549 72.3711C225.291 72.0547 224.961 71.8965 224.559 71.8965C224.168 71.8965 223.84 72.0527 223.574 72.3652C223.312 72.6738 223.182 73.1367 223.182 73.7539Z" fill="black"/>
<path d="M57.873 11V2.41016H64.2422V3.86328H59.6074V5.76758H63.9199V7.21484H59.6074V9.55273H64.4062V11H57.873ZM65.0742 11L67.3184 7.79492L65.168 4.77734H67.1777L68.2793 6.48828L69.4395 4.77734H71.373L69.2637 7.72461L71.5664 11H69.5449L68.2793 9.07227L67.002 11H65.0742ZM73.7754 6.67578L72.2812 6.40625C72.4492 5.80469 72.7383 5.35938 73.1484 5.07031C73.5586 4.78125 74.168 4.63672 74.9766 4.63672C75.7109 4.63672 76.2578 4.72461 76.6172 4.90039C76.9766 5.07227 77.2285 5.29297 77.373 5.5625C77.5215 5.82812 77.5957 6.31836 77.5957 7.0332L77.5781 8.95508C77.5781 9.50195 77.6035 9.90625 77.6543 10.168C77.709 10.4258 77.8086 10.7031 77.9531 11H76.3242C76.2812 10.8906 76.2285 10.7285 76.166 10.5137C76.1387 10.416 76.1191 10.3516 76.1074 10.3203C75.8262 10.5938 75.5254 10.7988 75.2051 10.9355C74.8848 11.0723 74.543 11.1406 74.1797 11.1406C73.5391 11.1406 73.0332 10.9668 72.6621 10.6191C72.2949 10.2715 72.1113 9.83203 72.1113 9.30078C72.1113 8.94922 72.1953 8.63672 72.3633 8.36328C72.5312 8.08594 72.7656 7.875 73.0664 7.73047C73.3711 7.58203 73.8086 7.45312 74.3789 7.34375C75.1484 7.19922 75.6816 7.06445 75.9785 6.93945V6.77539C75.9785 6.45898 75.9004 6.23438 75.7441 6.10156C75.5879 5.96484 75.293 5.89648 74.8594 5.89648C74.5664 5.89648 74.3379 5.95508 74.1738 6.07227C74.0098 6.18555 73.877 6.38672 73.7754 6.67578ZM75.9785 8.01172C75.7676 8.08203 75.4336 8.16602 74.9766 8.26367C74.5195 8.36133 74.2207 8.45703 74.0801 8.55078C73.8652 8.70312 73.7578 8.89648 73.7578 9.13086C73.7578 9.36133 73.8438 9.56055 74.0156 9.72852C74.1875 9.89648 74.4062 9.98047 74.6719 9.98047C74.9688 9.98047 75.252 9.88281 75.5215 9.6875C75.7207 9.53906 75.8516 9.35742 75.9141 9.14258C75.957 9.00195 75.9785 8.73438 75.9785 8.33984V8.01172ZM79.1016 4.77734H80.6191V5.62695C81.1621 4.9668 81.8086 4.63672 82.5586 4.63672C82.957 4.63672 83.3027 4.71875 83.5957 4.88281C83.8887 5.04688 84.1289 5.29492 84.3164 5.62695C84.5898 5.29492 84.8848 5.04688 85.2012 4.88281C85.5176 4.71875 85.8555 4.63672 86.2148 4.63672C86.6719 4.63672 87.0586 4.73047 87.375 4.91797C87.6914 5.10156 87.9277 5.37305 88.084 5.73242C88.1973 5.99805 88.2539 6.42773 88.2539 7.02148V11H86.6074V7.44336C86.6074 6.82617 86.5508 6.42773 86.4375 6.24805C86.2852 6.01367 86.0508 5.89648 85.7344 5.89648C85.5039 5.89648 85.2871 5.9668 85.084 6.10742C84.8809 6.24805 84.7344 6.45508 84.6445 6.72852C84.5547 6.99805 84.5098 7.42578 84.5098 8.01172V11H82.8633V7.58984C82.8633 6.98438 82.834 6.59375 82.7754 6.41797C82.7168 6.24219 82.625 6.11133 82.5 6.02539C82.3789 5.93945 82.2129 5.89648 82.002 5.89648C81.748 5.89648 81.5195 5.96484 81.3164 6.10156C81.1133 6.23828 80.9668 6.43555 80.877 6.69336C80.791 6.95117 80.748 7.37891 80.748 7.97656V11H79.1016V4.77734ZM89.8535 4.77734H91.3887V5.69141C91.5879 5.37891 91.8574 5.125 92.1973 4.92969C92.5371 4.73438 92.9141 4.63672 93.3281 4.63672C94.0508 4.63672 94.6641 4.91992 95.168 5.48633C95.6719 6.05273 95.9238 6.8418 95.9238 7.85352C95.9238 8.89258 95.6699 9.70117 95.1621 10.2793C94.6543 10.8535 94.0391 11.1406 93.3164 11.1406C92.9727 11.1406 92.6602 11.0723 92.3789 10.9355C92.1016 10.7988 91.8086 10.5645 91.5 10.2324V13.3672H89.8535V4.77734ZM91.4824 7.7832C91.4824 8.48242 91.6211 9 91.8984 9.33594C92.1758 9.66797 92.5137 9.83398 92.9121 9.83398C93.2949 9.83398 93.6133 9.68164 93.8672 9.37695C94.1211 9.06836 94.248 8.56445 94.248 7.86523C94.248 7.21289 94.1172 6.72852 93.8555 6.41211C93.5938 6.0957 93.2695 5.9375 92.8828 5.9375C92.4805 5.9375 92.1465 6.09375 91.8809 6.40625C91.6152 6.71484 91.4824 7.17383 91.4824 7.7832ZM97.2363 11V2.41016H98.8828V11H97.2363ZM104.18 9.01953L105.82 9.29492C105.609 9.89648 105.275 10.3555 104.818 10.6719C104.365 10.9844 103.797 11.1406 103.113 11.1406C102.031 11.1406 101.23 10.7871 100.711 10.0801C100.301 9.51367 100.096 8.79883 100.096 7.93555C100.096 6.9043 100.365 6.09766 100.904 5.51562C101.443 4.92969 102.125 4.63672 102.949 4.63672C103.875 4.63672 104.605 4.94336 105.141 5.55664C105.676 6.16602 105.932 7.10156 105.908 8.36328H101.783C101.795 8.85156 101.928 9.23242 102.182 9.50586C102.436 9.77539 102.752 9.91016 103.131 9.91016C103.389 9.91016 103.605 9.83984 103.781 9.69922C103.957 9.55859 104.09 9.33203 104.18 9.01953ZM104.273 7.35547C104.262 6.87891 104.139 6.51758 103.904 6.27148C103.67 6.02148 103.385 5.89648 103.049 5.89648C102.689 5.89648 102.393 6.02734 102.158 6.28906C101.924 6.55078 101.809 6.90625 101.812 7.35547H104.273ZM111.117 11H109.471V4.79492C108.869 5.35742 108.16 5.77344 107.344 6.04297V4.54883C107.773 4.4082 108.24 4.14258 108.744 3.75195C109.248 3.35742 109.594 2.89844 109.781 2.375H111.117V11ZM119.162 4.51367L117.568 4.68945C117.529 4.36133 117.428 4.11914 117.264 3.96289C117.1 3.80664 116.887 3.72852 116.625 3.72852C116.277 3.72852 115.982 3.88477 115.74 4.19727C115.502 4.50977 115.352 5.16016 115.289 6.14844C115.699 5.66406 116.209 5.42188 116.818 5.42188C117.506 5.42188 118.094 5.68359 118.582 6.20703C119.074 6.73047 119.32 7.40625 119.32 8.23438C119.32 9.11328 119.062 9.81836 118.547 10.3496C118.031 10.8809 117.369 11.1465 116.561 11.1465C115.693 11.1465 114.98 10.8105 114.422 10.1387C113.863 9.46289 113.584 8.35742 113.584 6.82227C113.584 5.24805 113.875 4.11328 114.457 3.41797C115.039 2.72266 115.795 2.375 116.725 2.375C117.377 2.375 117.916 2.55859 118.342 2.92578C118.771 3.28906 119.045 3.81836 119.162 4.51367ZM115.43 8.10547C115.43 8.64062 115.553 9.05469 115.799 9.34766C116.045 9.63672 116.326 9.78125 116.643 9.78125C116.947 9.78125 117.201 9.66211 117.404 9.42383C117.607 9.18555 117.709 8.79492 117.709 8.25195C117.709 7.69336 117.6 7.28516 117.381 7.02734C117.162 6.76562 116.889 6.63477 116.561 6.63477C116.244 6.63477 115.977 6.75977 115.758 7.00977C115.539 7.25586 115.43 7.62109 115.43 8.10547Z" fill="black"/>
<path d="M1.87891 351V342.41H5.10156C5.75781 342.41 6.2832 342.498 6.67773 342.674C7.07617 342.846 7.38672 343.113 7.60938 343.477C7.83594 343.836 7.94922 344.213 7.94922 344.607C7.94922 344.975 7.84961 345.32 7.65039 345.645C7.45117 345.969 7.15039 346.23 6.74805 346.43C7.26758 346.582 7.66602 346.842 7.94336 347.209C8.22461 347.576 8.36523 348.01 8.36523 348.51C8.36523 348.912 8.2793 349.287 8.10742 349.635C7.93945 349.979 7.73047 350.244 7.48047 350.432C7.23047 350.619 6.91602 350.762 6.53711 350.859C6.16211 350.953 5.70117 351 5.1543 351H1.87891ZM3.01562 346.02H4.87305C5.37695 346.02 5.73828 345.986 5.95703 345.92C6.24609 345.834 6.46289 345.691 6.60742 345.492C6.75586 345.293 6.83008 345.043 6.83008 344.742C6.83008 344.457 6.76172 344.207 6.625 343.992C6.48828 343.773 6.29297 343.625 6.03906 343.547C5.78516 343.465 5.34961 343.424 4.73242 343.424H3.01562V346.02ZM3.01562 349.986H5.1543C5.52148 349.986 5.7793 349.973 5.92773 349.945C6.18945 349.898 6.4082 349.82 6.58398 349.711C6.75977 349.602 6.9043 349.443 7.01758 349.236C7.13086 349.025 7.1875 348.783 7.1875 348.51C7.1875 348.189 7.10547 347.912 6.94141 347.678C6.77734 347.439 6.54883 347.273 6.25586 347.18C5.9668 347.082 5.54883 347.033 5.00195 347.033H3.01562V349.986ZM13.873 351V350.086C13.3887 350.789 12.7305 351.141 11.8984 351.141C11.5312 351.141 11.1875 351.07 10.8672 350.93C10.5508 350.789 10.3145 350.613 10.1582 350.402C10.0059 350.188 9.89844 349.926 9.83594 349.617C9.79297 349.41 9.77148 349.082 9.77148 348.633V344.777H10.8262V348.229C10.8262 348.779 10.8477 349.15 10.8906 349.342C10.957 349.619 11.0977 349.838 11.3125 349.998C11.5273 350.154 11.793 350.232 12.1094 350.232C12.4258 350.232 12.7227 350.152 13 349.992C13.2773 349.828 13.4727 349.607 13.5859 349.33C13.7031 349.049 13.7617 348.643 13.7617 348.111V344.777H14.8164V351H13.873ZM16.0527 349.143L17.0957 348.979C17.1543 349.396 17.3164 349.717 17.582 349.939C17.8516 350.162 18.2266 350.273 18.707 350.273C19.1914 350.273 19.5508 350.176 19.7852 349.98C20.0195 349.781 20.1367 349.549 20.1367 349.283C20.1367 349.045 20.0332 348.857 19.8262 348.721C19.6816 348.627 19.3223 348.508 18.748 348.363C17.9746 348.168 17.4375 348 17.1367 347.859C16.8398 347.715 16.6133 347.518 16.457 347.268C16.3047 347.014 16.2285 346.734 16.2285 346.43C16.2285 346.152 16.291 345.896 16.416 345.662C16.5449 345.424 16.7188 345.227 16.9375 345.07C17.1016 344.949 17.3242 344.848 17.6055 344.766C17.8906 344.68 18.1953 344.637 18.5195 344.637C19.0078 344.637 19.4355 344.707 19.8027 344.848C20.1738 344.988 20.4473 345.18 20.623 345.422C20.7988 345.66 20.9199 345.98 20.9863 346.383L19.9551 346.523C19.9082 346.203 19.7715 345.953 19.5449 345.773C19.3223 345.594 19.0059 345.504 18.5957 345.504C18.1113 345.504 17.7656 345.584 17.5586 345.744C17.3516 345.904 17.248 346.092 17.248 346.307C17.248 346.443 17.291 346.566 17.377 346.676C17.4629 346.789 17.5977 346.883 17.7812 346.957C17.8867 346.996 18.1973 347.086 18.7129 347.227C19.459 347.426 19.9785 347.59 20.2715 347.719C20.5684 347.844 20.8008 348.027 20.9688 348.27C21.1367 348.512 21.2207 348.812 21.2207 349.172C21.2207 349.523 21.1172 349.855 20.9102 350.168C20.707 350.477 20.4121 350.717 20.0254 350.889C19.6387 351.057 19.2012 351.141 18.7129 351.141C17.9043 351.141 17.2871 350.973 16.8613 350.637C16.4395 350.301 16.1699 349.803 16.0527 349.143ZM27.7246 349.986V351H22.0469C22.0391 350.746 22.0801 350.502 22.1699 350.268C22.3145 349.881 22.5449 349.5 22.8613 349.125C23.1816 348.75 23.6426 348.316 24.2441 347.824C25.1777 347.059 25.8086 346.453 26.1367 346.008C26.4648 345.559 26.6289 345.135 26.6289 344.736C26.6289 344.318 26.4785 343.967 26.1777 343.682C25.8809 343.393 25.4922 343.248 25.0117 343.248C24.5039 343.248 24.0977 343.4 23.793 343.705C23.4883 344.01 23.334 344.432 23.3301 344.971L22.2461 344.859C22.3203 344.051 22.5996 343.436 23.084 343.014C23.5684 342.588 24.2188 342.375 25.0352 342.375C25.8594 342.375 26.5117 342.604 26.9922 343.061C27.4727 343.518 27.7129 344.084 27.7129 344.76C27.7129 345.104 27.6426 345.441 27.502 345.773C27.3613 346.105 27.127 346.455 26.7988 346.822C26.4746 347.189 25.9336 347.693 25.1758 348.334C24.543 348.865 24.1367 349.227 23.957 349.418C23.7773 349.605 23.6289 349.795 23.5117 349.986H27.7246ZM29.1777 353.385V342.41H31.5039V343.283H30.2324V352.512H31.5039V353.385H29.1777ZM36.1738 351H35.1191V344.279C34.8652 344.521 34.5312 344.764 34.1172 345.006C33.707 345.248 33.3379 345.43 33.0098 345.551V344.531C33.5996 344.254 34.1152 343.918 34.5566 343.523C34.998 343.129 35.3105 342.746 35.4941 342.375H36.1738V351ZM44.3535 344.514L43.3047 344.596C43.2109 344.182 43.0781 343.881 42.9062 343.693C42.6211 343.393 42.2695 343.242 41.8516 343.242C41.5156 343.242 41.2207 343.336 40.9668 343.523C40.6348 343.766 40.373 344.119 40.1816 344.584C39.9902 345.049 39.8906 345.711 39.8828 346.57C40.1367 346.184 40.4473 345.896 40.8145 345.709C41.1816 345.521 41.5664 345.428 41.9688 345.428C42.6719 345.428 43.2695 345.688 43.7617 346.207C44.2578 346.723 44.5059 347.391 44.5059 348.211C44.5059 348.75 44.3887 349.252 44.1543 349.717C43.9238 350.178 43.6055 350.531 43.1992 350.777C42.793 351.023 42.332 351.146 41.8164 351.146C40.9375 351.146 40.2207 350.824 39.666 350.18C39.1113 349.531 38.834 348.465 38.834 346.98C38.834 345.32 39.1406 344.113 39.7539 343.359C40.2891 342.703 41.0098 342.375 41.916 342.375C42.5918 342.375 43.1445 342.564 43.5742 342.943C44.0078 343.322 44.2676 343.846 44.3535 344.514ZM40.0469 348.217C40.0469 348.58 40.123 348.928 40.2754 349.26C40.4316 349.592 40.6484 349.846 40.9258 350.021C41.2031 350.193 41.4941 350.279 41.7988 350.279C42.2441 350.279 42.627 350.1 42.9473 349.74C43.2676 349.381 43.4277 348.893 43.4277 348.275C43.4277 347.682 43.2695 347.215 42.9531 346.875C42.6367 346.531 42.2383 346.359 41.7578 346.359C41.2812 346.359 40.877 346.531 40.5449 346.875C40.2129 347.215 40.0469 347.662 40.0469 348.217ZM47.6172 353.385H45.291V352.512H46.5625V343.283H45.291V342.41H47.6172V353.385Z" fill="black"/>
<path d="M164.852 123.232C164.461 123.564 164.084 123.799 163.721 123.936C163.361 124.072 162.975 124.141 162.561 124.141C161.877 124.141 161.352 123.975 160.984 123.643C160.617 123.307 160.434 122.879 160.434 122.359C160.434 122.055 160.502 121.777 160.639 121.527C160.779 121.273 160.961 121.07 161.184 120.918C161.41 120.766 161.664 120.65 161.945 120.572C162.152 120.518 162.465 120.465 162.883 120.414C163.734 120.312 164.361 120.191 164.764 120.051C164.768 119.906 164.77 119.814 164.77 119.775C164.77 119.346 164.67 119.043 164.471 118.867C164.201 118.629 163.801 118.51 163.27 118.51C162.773 118.51 162.406 118.598 162.168 118.773C161.934 118.945 161.76 119.252 161.646 119.693L160.615 119.553C160.709 119.111 160.863 118.756 161.078 118.486C161.293 118.213 161.604 118.004 162.01 117.859C162.416 117.711 162.887 117.637 163.422 117.637C163.953 117.637 164.385 117.699 164.717 117.824C165.049 117.949 165.293 118.107 165.449 118.299C165.605 118.486 165.715 118.725 165.777 119.014C165.812 119.193 165.83 119.518 165.83 119.986V121.393C165.83 122.373 165.852 122.994 165.895 123.256C165.941 123.514 166.031 123.762 166.164 124H165.062C164.953 123.781 164.883 123.525 164.852 123.232ZM164.764 120.877C164.381 121.033 163.807 121.166 163.041 121.275C162.607 121.338 162.301 121.408 162.121 121.486C161.941 121.564 161.803 121.68 161.705 121.832C161.607 121.98 161.559 122.146 161.559 122.33C161.559 122.611 161.664 122.846 161.875 123.033C162.09 123.221 162.402 123.314 162.812 123.314C163.219 123.314 163.58 123.227 163.896 123.051C164.213 122.871 164.445 122.627 164.594 122.318C164.707 122.08 164.764 121.729 164.764 121.264V120.877Z" fill="black"/>
<path d="M161.764 239H160.785V230.41H161.84V233.475C162.285 232.916 162.854 232.637 163.545 232.637C163.928 232.637 164.289 232.715 164.629 232.871C164.973 233.023 165.254 233.24 165.473 233.521C165.695 233.799 165.869 234.135 165.994 234.529C166.119 234.924 166.182 235.346 166.182 235.795C166.182 236.861 165.918 237.686 165.391 238.268C164.863 238.85 164.23 239.141 163.492 239.141C162.758 239.141 162.182 238.834 161.764 238.221V239ZM161.752 235.842C161.752 236.588 161.854 237.127 162.057 237.459C162.389 238.002 162.838 238.273 163.404 238.273C163.865 238.273 164.264 238.074 164.6 237.676C164.936 237.273 165.104 236.676 165.104 235.883C165.104 235.07 164.941 234.471 164.617 234.084C164.297 233.697 163.908 233.504 163.451 233.504C162.99 233.504 162.592 233.705 162.256 234.107C161.92 234.506 161.752 235.084 161.752 235.842Z" fill="black"/>
<path d="M277.398 182.889C277.398 181.736 277.719 180.883 278.359 180.328C278.895 179.867 279.547 179.637 280.316 179.637C281.172 179.637 281.871 179.918 282.414 180.48C282.957 181.039 283.229 181.812 283.229 182.801C283.229 183.602 283.107 184.232 282.865 184.693C282.627 185.15 282.277 185.506 281.816 185.76C281.359 186.014 280.859 186.141 280.316 186.141C279.445 186.141 278.74 185.861 278.201 185.303C277.666 184.744 277.398 183.939 277.398 182.889ZM278.482 182.889C278.482 183.686 278.656 184.283 279.004 184.682C279.352 185.076 279.789 185.273 280.316 185.273C280.84 185.273 281.275 185.074 281.623 184.676C281.971 184.277 282.145 183.67 282.145 182.854C282.145 182.084 281.969 181.502 281.617 181.107C281.27 180.709 280.836 180.51 280.316 180.51C279.789 180.51 279.352 180.707 279.004 181.102C278.656 181.496 278.482 182.092 278.482 182.889ZM288.549 186V185.086C288.064 185.789 287.406 186.141 286.574 186.141C286.207 186.141 285.863 186.07 285.543 185.93C285.227 185.789 284.99 185.613 284.834 185.402C284.682 185.188 284.574 184.926 284.512 184.617C284.469 184.41 284.447 184.082 284.447 183.633V179.777H285.502V183.229C285.502 183.779 285.523 184.15 285.566 184.342C285.633 184.619 285.773 184.838 285.988 184.998C286.203 185.154 286.469 185.232 286.785 185.232C287.102 185.232 287.398 185.152 287.676 184.992C287.953 184.828 288.148 184.607 288.262 184.33C288.379 184.049 288.438 183.643 288.438 183.111V179.777H289.492V186H288.549ZM293.453 185.057L293.605 185.988C293.309 186.051 293.043 186.082 292.809 186.082C292.426 186.082 292.129 186.021 291.918 185.9C291.707 185.779 291.559 185.621 291.473 185.426C291.387 185.227 291.344 184.811 291.344 184.178V180.598H290.57V179.777H291.344V178.236L292.393 177.604V179.777H293.453V180.598H292.393V184.236C292.393 184.537 292.41 184.73 292.445 184.816C292.484 184.902 292.545 184.971 292.627 185.021C292.713 185.072 292.834 185.098 292.99 185.098C293.107 185.098 293.262 185.084 293.453 185.057Z" fill="black"/>
<path d="M251.889 253.602C250.736 253.602 249.883 253.281 249.328 252.641C248.867 252.105 248.637 251.453 248.637 250.684C248.637 249.828 248.918 249.129 249.48 248.586C250.039 248.043 250.812 247.771 251.801 247.771C252.602 247.771 253.232 247.893 253.693 248.135C254.15 248.373 254.506 248.723 254.76 249.184C255.014 249.641 255.141 250.141 255.141 250.684C255.141 251.555 254.861 252.26 254.303 252.799C253.744 253.334 252.939 253.602 251.889 253.602ZM251.889 252.518C252.686 252.518 253.283 252.344 253.682 251.996C254.076 251.648 254.273 251.211 254.273 250.684C254.273 250.16 254.074 249.725 253.676 249.377C253.277 249.029 252.67 248.855 251.854 248.855C251.084 248.855 250.502 249.031 250.107 249.383C249.709 249.73 249.51 250.164 249.51 250.684C249.51 251.211 249.707 251.648 250.102 251.996C250.496 252.344 251.092 252.518 251.889 252.518ZM255 242.451L254.086 242.451C254.789 242.936 255.141 243.594 255.141 244.426C255.141 244.793 255.07 245.137 254.93 245.457C254.789 245.773 254.613 246.01 254.402 246.166C254.187 246.318 253.926 246.426 253.617 246.488C253.41 246.531 253.082 246.553 252.633 246.553L248.777 246.553L248.777 245.498L252.229 245.498C252.779 245.498 253.15 245.477 253.342 245.434C253.619 245.367 253.838 245.227 253.998 245.012C254.154 244.797 254.232 244.531 254.232 244.215C254.232 243.898 254.152 243.602 253.992 243.324C253.828 243.047 253.607 242.852 253.33 242.738C253.049 242.621 252.643 242.562 252.111 242.562L248.777 242.562L248.777 241.508L255 241.508L255 242.451ZM254.057 237.547L254.988 237.395C255.051 237.691 255.082 237.957 255.082 238.191C255.082 238.574 255.021 238.871 254.9 239.082C254.779 239.293 254.621 239.441 254.426 239.527C254.227 239.613 253.811 239.656 253.178 239.656L249.598 239.656L249.598 240.43L248.777 240.43L248.777 239.656L247.236 239.656L246.604 238.607L248.777 238.607L248.777 237.547L249.598 237.547L249.598 238.607L253.236 238.607C253.537 238.607 253.73 238.59 253.816 238.555C253.902 238.516 253.971 238.455 254.021 238.373C254.072 238.287 254.098 238.166 254.098 238.01C254.098 237.893 254.084 237.738 254.057 237.547ZM249.949 230.961L249.949 236.633L248.965 236.633L248.965 230.961L249.949 230.961ZM252.557 230.961L252.557 236.633L251.572 236.633L251.572 230.961L252.557 230.961ZM251.889 229.895C250.736 229.895 249.883 229.574 249.328 228.934C248.867 228.398 248.637 227.746 248.637 226.977C248.637 226.121 248.918 225.422 249.48 224.879C250.039 224.336 250.812 224.064 251.801 224.064C252.602 224.064 253.232 224.186 253.693 224.428C254.15 224.666 254.506 225.016 254.76 225.477C255.014 225.934 255.141 226.434 255.141 226.977C255.141 227.848 254.861 228.553 254.303 229.092C253.744 229.627 252.939 229.895 251.889 229.895ZM251.889 228.811C252.686 228.811 253.283 228.637 253.682 228.289C254.076 227.941 254.273 227.504 254.273 226.977C254.273 226.453 254.074 226.018 253.676 225.67C253.277 225.322 252.67 225.148 251.854 225.148C251.084 225.148 250.502 225.324 250.107 225.676C249.709 226.023 249.51 226.457 249.51 226.977C249.51 227.504 249.707 227.941 250.102 228.289C250.496 228.637 251.092 228.811 251.889 228.811ZM255 218.744L254.086 218.744C254.789 219.229 255.141 219.887 255.141 220.719C255.141 221.086 255.07 221.43 254.93 221.75C254.789 222.066 254.613 222.303 254.402 222.459C254.187 222.611 253.926 222.719 253.617 222.781C253.41 222.824 253.082 222.846 252.633 222.846L248.777 222.846L248.777 221.791L252.229 221.791C252.779 221.791 253.15 221.77 253.342 221.727C253.619 221.66 253.838 221.52 253.998 221.305C254.154 221.09 254.232 220.824 254.232 220.508C254.232 220.191 254.152 219.895 253.992 219.617C253.828 219.34 253.607 219.145 253.33 219.031C253.049 218.914 252.643 218.855 252.111 218.855L248.777 218.855L248.777 217.801L255 217.801L255 218.744ZM254.057 213.84L254.988 213.687C255.051 213.984 255.082 214.25 255.082 214.484C255.082 214.867 255.021 215.164 254.9 215.375C254.779 215.586 254.621 215.734 254.426 215.82C254.227 215.906 253.811 215.949 253.178 215.949L249.598 215.949L249.598 216.723L248.777 216.723L248.777 215.949L247.236 215.949L246.604 214.9L248.777 214.9L248.777 213.84L249.598 213.84L249.598 214.9L253.236 214.9C253.537 214.9 253.73 214.883 253.816 214.848C253.902 214.809 253.971 214.748 254.021 214.666C254.072 214.58 254.098 214.459 254.098 214.303C254.098 214.186 254.084 214.031 254.057 213.84ZM253.986 207.553L255 207.553L255 213.23C254.746 213.238 254.502 213.197 254.268 213.107C253.881 212.963 253.5 212.732 253.125 212.416C252.75 212.096 252.316 211.635 251.824 211.033C251.059 210.1 250.453 209.469 250.008 209.141C249.559 208.812 249.135 208.648 248.736 208.648C248.318 208.648 247.967 208.799 247.682 209.1C247.393 209.396 247.248 209.785 247.248 210.266C247.248 210.773 247.4 211.18 247.705 211.484C248.01 211.789 248.432 211.943 248.971 211.947L248.859 213.031C248.051 212.957 247.436 212.678 247.014 212.193C246.588 211.709 246.375 211.059 246.375 210.242C246.375 209.418 246.604 208.766 247.061 208.285C247.518 207.805 248.084 207.564 248.76 207.564C249.104 207.564 249.441 207.635 249.773 207.775C250.105 207.916 250.455 208.15 250.822 208.479C251.189 208.803 251.693 209.344 252.334 210.102C252.865 210.734 253.227 211.141 253.418 211.32C253.605 211.5 253.795 211.648 253.986 211.766L253.986 207.553Z" fill="black"/>
<path d="M338.498 284.764C338.498 283.748 338.602 282.932 338.809 282.314C339.02 281.693 339.33 281.215 339.74 280.879C340.154 280.543 340.674 280.375 341.299 280.375C341.76 280.375 342.164 280.469 342.512 280.656C342.859 280.84 343.146 281.107 343.373 281.459C343.6 281.807 343.777 282.232 343.906 282.736C344.035 283.236 344.1 283.912 344.1 284.764C344.1 285.771 343.996 286.586 343.789 287.207C343.582 287.824 343.271 288.303 342.857 288.643C342.447 288.979 341.928 289.146 341.299 289.146C340.471 289.146 339.82 288.85 339.348 288.256C338.781 287.541 338.498 286.377 338.498 284.764ZM339.582 284.764C339.582 286.174 339.746 287.113 340.074 287.582C340.406 288.047 340.814 288.279 341.299 288.279C341.783 288.279 342.189 288.045 342.518 287.576C342.85 287.107 343.016 286.17 343.016 284.764C343.016 283.35 342.85 282.41 342.518 281.945C342.189 281.48 341.779 281.248 341.287 281.248C340.803 281.248 340.416 281.453 340.127 281.863C339.764 282.387 339.582 283.354 339.582 284.764Z" fill="#FF6B00"/>
<mask id="path-24-inside-2_71_779" fill="white">
<path fill-rule="evenodd" clip-rule="evenodd" d="M237 126.842H185V340H237C250.807 340 262 292.283 262 233.421C262 174.559 250.807 126.842 237 126.842Z"/>
</mask>
<path d="M185 126.842V124.842H183V126.842H185ZM185 340H183V342H185V340ZM185 128.842H237V124.842H185V128.842ZM187 340V126.842H183V340H187ZM237 338H185V342H237V338ZM260 233.421C260 262.745 257.21 289.229 252.731 308.327C250.487 317.892 247.845 325.493 244.982 330.655C243.551 333.236 242.114 335.115 240.724 336.328C239.346 337.529 238.11 338 237 338V342C239.342 342 241.476 340.98 243.353 339.342C245.218 337.715 246.921 335.406 248.48 332.595C251.6 326.97 254.344 318.963 256.625 309.241C261.193 289.764 264 262.959 264 233.421H260ZM237 128.842C238.11 128.842 239.346 129.313 240.724 130.515C242.114 131.728 243.551 133.606 244.982 136.188C247.845 141.349 250.487 148.95 252.731 158.515C257.21 177.613 260 204.097 260 233.421H264C264 203.883 261.193 177.078 256.625 157.602C254.344 147.879 251.6 139.873 248.48 134.248C246.921 131.436 245.218 129.127 243.353 127.5C241.476 125.862 239.342 124.842 237 124.842V128.842Z" fill="black" mask="url(#path-24-inside-2_71_779)"/>
<line x1="41" y1="131" x2="152" y2="131" stroke="#FF6B00" stroke-width="2"/>
<line x1="41" y1="137" x2="152" y2="137" stroke="#FF6B00" stroke-width="2"/>
<line x1="41" y1="143" x2="152" y2="143" stroke="#FF6B00" stroke-width="2"/>
<line x1="41" y1="149" x2="152" y2="149" stroke="#FF6B00" stroke-width="2"/>
<line x1="41" y1="155" x2="152" y2="155" stroke="#FF6B00" stroke-width="2"/>
<line x1="41" y1="161" x2="152" y2="161" stroke="#FF6B00" stroke-width="2"/>
<line x1="41" y1="167" x2="152" y2="167" stroke="#FF6B00" stroke-width="2"/>
<line x1="41" y1="173" x2="152" y2="173" stroke="#FF6B00" stroke-width="2"/>
<line x1="41" y1="179" x2="152" y2="179" stroke="#FF6B00" stroke-width="2"/>
<line x1="41" y1="185" x2="152" y2="185" stroke="#FF6B00" stroke-width="2"/>
<line x1="41" y1="191" x2="152" y2="191" stroke="#FF6B00" stroke-width="2"/>
<line x1="41" y1="197" x2="152" y2="197" stroke="#FF6B00" stroke-width="2"/>
<line x1="41" y1="203" x2="152" y2="203" stroke="#FF6B00" stroke-width="2"/>
<line x1="41" y1="209" x2="152" y2="209" stroke="#FF6B00" stroke-width="2"/>
<line x1="41" y1="215" x2="152" y2="215" stroke="#FF6B00" stroke-width="2"/>
<line x1="41" y1="221" x2="152" y2="221" stroke="#FF6B00" stroke-width="2"/>
<line x1="292" y1="193" x2="403" y2="193" stroke="#FF6B00" stroke-width="2"/>
<line x1="292" y1="199" x2="403" y2="199" stroke="#FF6B00" stroke-width="2"/>
<line x1="292" y1="205" x2="403" y2="205" stroke="#FF6B00" stroke-width="2"/>
<line x1="292" y1="211" x2="403" y2="211" stroke="#FF6B00" stroke-width="2"/>
<line x1="292" y1="217" x2="403" y2="217" stroke="#FF6B00" stroke-width="2"/>
<line x1="292" y1="223" x2="403" y2="223" stroke="#FF6B00" stroke-width="2"/>
<line x1="292" y1="229" x2="403" y2="229" stroke="#FF6B00" stroke-width="2"/>
<line x1="292" y1="235" x2="403" y2="235" stroke="#FF6B00" stroke-width="2"/>
<line x1="292" y1="241" x2="403" y2="241" stroke="#FF6B00" stroke-width="2"/>
<line x1="292" y1="247" x2="403" y2="247" stroke="#FF6B00" stroke-width="2"/>
<line x1="292" y1="253" x2="403" y2="253" stroke="#FF6B00" stroke-width="2"/>
<line x1="292" y1="259" x2="403" y2="259" stroke="#FF6B00" stroke-width="2"/>
<line x1="292" y1="265" x2="403" y2="265" stroke="#FF6B00" stroke-width="2"/>
<line x1="292" y1="271" x2="403" y2="271" stroke="#FF6B00" stroke-width="2"/>
<line x1="292" y1="277" x2="403" y2="277" stroke="#FF6B00" stroke-width="2"/>
<line x1="351" y1="283" x2="403" y2="283" stroke="#FF6B00" stroke-width="2"/>
<line x1="292" y1="283" x2="332" y2="283" stroke="#FF6B00" stroke-width="2"/>
<line x1="152" y1="131" x2="185" y2="131" stroke="black" stroke-width="2"/>
<line x1="152" y1="137" x2="185" y2="137" stroke="black" stroke-width="2"/>
<line x1="152" y1="143" x2="185" y2="143" stroke="black" stroke-width="2"/>
<line x1="152" y1="149" x2="185" y2="149" stroke="black" stroke-width="2"/>
<line x1="152" y1="155" x2="185" y2="155" stroke="black" stroke-width="2"/>
<line x1="152" y1="161" x2="185" y2="161" stroke="black" stroke-width="2"/>
<line x1="152" y1="167" x2="185" y2="167" stroke="black" stroke-width="2"/>
<line x1="152" y1="173" x2="185" y2="173" stroke="black" stroke-width="2"/>
<line x1="152" y1="179" x2="185" y2="179" stroke="black" stroke-width="2"/>
<line x1="152" y1="185" x2="185" y2="185" stroke="black" stroke-width="2"/>
<line x1="152" y1="191" x2="185" y2="191" stroke="black" stroke-width="2"/>
<line x1="152" y1="197" x2="185" y2="197" stroke="black" stroke-width="2"/>
<line x1="152" y1="203" x2="185" y2="203" stroke="black" stroke-width="2"/>
<line x1="152" y1="209" x2="185" y2="209" stroke="black" stroke-width="2"/>
<line x1="152" y1="215" x2="185" y2="215" stroke="black" stroke-width="2"/>
<line x1="152" y1="221" x2="185" y2="221" stroke="black" stroke-width="2"/>
<line x1="152" y1="245" x2="185" y2="245" stroke="black" stroke-width="2"/>
<line x1="152" y1="251" x2="185" y2="251" stroke="black" stroke-width="2"/>
<line x1="152" y1="257" x2="185" y2="257" stroke="black" stroke-width="2"/>
<line x1="152" y1="263" x2="185" y2="263" stroke="black" stroke-width="2"/>
<line x1="152" y1="269" x2="185" y2="269" stroke="black" stroke-width="2"/>
<line x1="152" y1="275" x2="185" y2="275" stroke="black" stroke-width="2"/>
<line x1="152" y1="281" x2="185" y2="281" stroke="black" stroke-width="2"/>
<line x1="152" y1="287" x2="185" y2="287" stroke="black" stroke-width="2"/>
<line x1="152" y1="293" x2="185" y2="293" stroke="black" stroke-width="2"/>
<line x1="152" y1="299" x2="185" y2="299" stroke="black" stroke-width="2"/>
<line x1="152" y1="305" x2="185" y2="305" stroke="black" stroke-width="2"/>
<line x1="152" y1="311" x2="185" y2="311" stroke="black" stroke-width="2"/>
<line x1="152" y1="317" x2="185" y2="317" stroke="black" stroke-width="2"/>
<line x1="152" y1="323" x2="185" y2="323" stroke="black" stroke-width="2"/>
<line x1="152" y1="329" x2="185" y2="329" stroke="black" stroke-width="2"/>
<line x1="152" y1="335" x2="185" y2="335" stroke="black" stroke-width="2"/>
<line x1="259" y1="193" x2="292" y2="193" stroke="black" stroke-width="2"/>
<line x1="259" y1="199" x2="292" y2="199" stroke="black" stroke-width="2"/>
<line x1="259" y1="205" x2="292" y2="205" stroke="black" stroke-width="2"/>
<line x1="259" y1="211" x2="292" y2="211" stroke="black" stroke-width="2"/>
<line x1="259" y1="217" x2="292" y2="217" stroke="black" stroke-width="2"/>
<line x1="259" y1="223" x2="292" y2="223" stroke="black" stroke-width="2"/>
<line x1="259" y1="229" x2="292" y2="229" stroke="black" stroke-width="2"/>
<line x1="259" y1="235" x2="292" y2="235" stroke="black" stroke-width="2"/>
<line x1="259" y1="241" x2="292" y2="241" stroke="black" stroke-width="2"/>
<line x1="259" y1="247" x2="292" y2="247" stroke="black" stroke-width="2"/>
<line x1="259" y1="253" x2="292" y2="253" stroke="black" stroke-width="2"/>
<line x1="259" y1="259" x2="292" y2="259" stroke="black" stroke-width="2"/>
<line x1="259" y1="265" x2="292" y2="265" stroke="black" stroke-width="2"/>
<line x1="259" y1="271" x2="292" y2="271" stroke="black" stroke-width="2"/>
<line x1="259" y1="277" x2="292" y2="277" stroke="black" stroke-width="2"/>
<line x1="259" y1="283" x2="292" y2="283" stroke="black" stroke-width="2"/>
<line x1="41" y1="245" x2="153" y2="245" stroke="#FF6B00" stroke-width="2"/>
<line x1="41" y1="251" x2="153" y2="251" stroke="#FF6B00" stroke-width="2"/>
<line x1="41" y1="257" x2="153" y2="257" stroke="#FF6B00" stroke-width="2"/>
<line x1="41" y1="263" x2="153" y2="263" stroke="#FF6B00" stroke-width="2"/>
<line x1="41" y1="269" x2="153" y2="269" stroke="#FF6B00" stroke-width="2"/>
<line x1="41" y1="275" x2="153" y2="275" stroke="#FF6B00" stroke-width="2"/>
<line x1="41" y1="281" x2="153" y2="281" stroke="#FF6B00" stroke-width="2"/>
<line x1="128" y1="87" x2="158" y2="87" stroke="#FF0000" stroke-width="2"/>
<line x1="129" y1="88" x2="129" y2="288" stroke="#FF0000" stroke-width="2" stroke-dasharray="4 4"/>
<line x1="41" y1="287" x2="153" y2="287" stroke="#FF6B00" stroke-width="2"/>
<line x1="41" y1="293" x2="153" y2="293" stroke="#FF6B00" stroke-width="2"/>
<line x1="41" y1="299" x2="153" y2="299" stroke="#FF6B00" stroke-width="2"/>
<line x1="41" y1="305" x2="153" y2="305" stroke="#FF6B00" stroke-width="2"/>
<line x1="41" y1="311" x2="153" y2="311" stroke="#FF6B00" stroke-width="2"/>
<line x1="41" y1="317" x2="153" y2="317" stroke="#FF6B00" stroke-width="2"/>
<line x1="41" y1="323" x2="153" y2="323" stroke="#FF6B00" stroke-width="2"/>
<line x1="41" y1="329" x2="153" y2="329" stroke="#FF6B00" stroke-width="2"/>
<line x1="41" y1="335" x2="153" y2="335" stroke="#FF6B00" stroke-width="2"/>
<line x1="41" y1="57" x2="158" y2="57" stroke="#FF0000" stroke-width="2"/>
<line x1="279" y1="72" x2="396" y2="72" stroke="#FF0000" stroke-width="2"/>
<rect x="57.5" y="21.5" width="321" height="362" stroke="black" stroke-dasharray="2 2"/>
<circle cx="129" cy="287" r="4" fill="#FF0000"/>
</svg>
