<svg width="481" height="301" viewBox="0 0 481 301" fill="none" xmlns="http://www.w3.org/2000/svg">
<line x1="202" y1="95" x2="202" y2="63" stroke="#FF6B00" stroke-width="2"/>
<line x1="324" y1="150" x2="324" y2="108" stroke="#FF6B00" stroke-width="2"/>
<line x1="324" y1="227" x2="324" y2="177" stroke="#FF6B00" stroke-width="2"/>
<line x1="203" y1="161" x2="203" y2="123" stroke="#FF6B00" stroke-width="2"/>
<line x1="203" y1="281" x2="203" y2="243" stroke="#FF6B00" stroke-width="2"/>
<path d="M32 11L34.9355 6.51758L32.2754 2.41016H34.3027L36.0254 5.16992L37.7129 2.41016H39.7227L37.0508 6.58203L39.9863 11H37.8945L35.9902 8.0293L34.0801 11H32ZM40.4844 7.80078C40.4844 7.25391 40.6191 6.72461 40.8887 6.21289C41.1582 5.70117 41.5391 5.31055 42.0312 5.04102C42.5273 4.77148 43.0801 4.63672 43.6895 4.63672C44.6309 4.63672 45.4023 4.94336 46.0039 5.55664C46.6055 6.16602 46.9062 6.9375 46.9062 7.87109C46.9062 8.8125 46.6016 9.59375 45.9922 10.2148C45.3867 10.832 44.623 11.1406 43.7012 11.1406C43.1309 11.1406 42.5859 11.0117 42.0664 10.7539C41.5508 10.4961 41.1582 10.1191 40.8887 9.62305C40.6191 9.12305 40.4844 8.51562 40.4844 7.80078ZM42.1719 7.88867C42.1719 8.50586 42.3184 8.97852 42.6113 9.30664C42.9043 9.63477 43.2656 9.79883 43.6953 9.79883C44.125 9.79883 44.4844 9.63477 44.7734 9.30664C45.0664 8.97852 45.2129 8.50195 45.2129 7.87695C45.2129 7.26758 45.0664 6.79883 44.7734 6.4707C44.4844 6.14258 44.125 5.97852 43.6953 5.97852C43.2656 5.97852 42.9043 6.14258 42.6113 6.4707C42.3184 6.79883 42.1719 7.27148 42.1719 7.88867ZM49.7773 11H48.1309V4.77734H49.6602V5.66211C49.9219 5.24414 50.1562 4.96875 50.3633 4.83594C50.5742 4.70312 50.8125 4.63672 51.0781 4.63672C51.4531 4.63672 51.8145 4.74023 52.1621 4.94727L51.6523 6.38281C51.375 6.20312 51.1172 6.11328 50.8789 6.11328C50.6484 6.11328 50.4531 6.17773 50.293 6.30664C50.1328 6.43164 50.0059 6.66016 49.9121 6.99219C49.8223 7.32422 49.7773 8.01953 49.7773 9.07812V11Z" fill="black"/>
<path d="M457.398 152.889C457.398 151.736 457.719 150.883 458.359 150.328C458.895 149.867 459.547 149.637 460.316 149.637C461.172 149.637 461.871 149.918 462.414 150.48C462.957 151.039 463.229 151.812 463.229 152.801C463.229 153.602 463.107 154.232 462.865 154.693C462.627 155.15 462.277 155.506 461.816 155.76C461.359 156.014 460.859 156.141 460.316 156.141C459.445 156.141 458.74 155.861 458.201 155.303C457.666 154.744 457.398 153.939 457.398 152.889ZM458.482 152.889C458.482 153.686 458.656 154.283 459.004 154.682C459.352 155.076 459.789 155.273 460.316 155.273C460.84 155.273 461.275 155.074 461.623 154.676C461.971 154.277 462.145 153.67 462.145 152.854C462.145 152.084 461.969 151.502 461.617 151.107C461.27 150.709 460.836 150.51 460.316 150.51C459.789 150.51 459.352 150.707 459.004 151.102C458.656 151.496 458.482 152.092 458.482 152.889ZM468.549 156V155.086C468.064 155.789 467.406 156.141 466.574 156.141C466.207 156.141 465.863 156.07 465.543 155.93C465.227 155.789 464.99 155.613 464.834 155.402C464.682 155.188 464.574 154.926 464.512 154.617C464.469 154.41 464.447 154.082 464.447 153.633V149.777H465.502V153.229C465.502 153.779 465.523 154.15 465.566 154.342C465.633 154.619 465.773 154.838 465.988 154.998C466.203 155.154 466.469 155.232 466.785 155.232C467.102 155.232 467.398 155.152 467.676 154.992C467.953 154.828 468.148 154.607 468.262 154.33C468.379 154.049 468.438 153.643 468.438 153.111V149.777H469.492V156H468.549ZM473.453 155.057L473.605 155.988C473.309 156.051 473.043 156.082 472.809 156.082C472.426 156.082 472.129 156.021 471.918 155.9C471.707 155.779 471.559 155.621 471.473 155.426C471.387 155.227 471.344 154.811 471.344 154.178V150.598H470.57V149.777H471.344V148.236L472.393 147.604V149.777H473.453V150.598H472.393V154.236C472.393 154.537 472.41 154.73 472.445 154.816C472.484 154.902 472.545 154.971 472.627 155.021C472.713 155.072 472.834 155.098 472.99 155.098C473.107 155.098 473.262 155.084 473.453 155.057Z" fill="black"/>
<line x1="443" y1="163" x2="481" y2="163" stroke="#FF6B00" stroke-width="2"/>
<mask id="path-9-inside-1_37_486" fill="white">
<path fill-rule="evenodd" clip-rule="evenodd" d="M277 84H225V134H277C290.807 134 302 122.807 302 109C302 95.1929 290.807 84 277 84Z"/>
</mask>
<path fill-rule="evenodd" clip-rule="evenodd" d="M277 84H225V134H277C290.807 134 302 122.807 302 109C302 95.1929 290.807 84 277 84Z" fill="#D9D9D9"/>
<path d="M225 84V82H223V84H225ZM225 134H223V136H225V134ZM225 86H277V82H225V86ZM227 134V84H223V134H227ZM277 132H225V136H277V132ZM300 109C300 121.703 289.703 132 277 132V136C291.912 136 304 123.912 304 109H300ZM277 86C289.703 86 300 96.2975 300 109H304C304 94.0883 291.912 82 277 82V86Z" fill="black" mask="url(#path-9-inside-1_37_486)"/>
<line x1="203" y1="94" x2="225" y2="94" stroke="black" stroke-width="2"/>
<line x1="203" y1="124" x2="225" y2="124" stroke="black" stroke-width="2"/>
<line x1="302" y1="109" x2="324" y2="109" stroke="black" stroke-width="2"/>
<path d="M212.852 87.2324C212.461 87.5645 212.084 87.7988 211.721 87.9355C211.361 88.0723 210.975 88.1406 210.561 88.1406C209.877 88.1406 209.352 87.9746 208.984 87.6426C208.617 87.3066 208.434 86.8789 208.434 86.3594C208.434 86.0547 208.502 85.7773 208.639 85.5273C208.779 85.2734 208.961 85.0703 209.184 84.918C209.41 84.7656 209.664 84.6504 209.945 84.5723C210.152 84.5176 210.465 84.4648 210.883 84.4141C211.734 84.3125 212.361 84.1914 212.764 84.0508C212.768 83.9062 212.77 83.8145 212.77 83.7754C212.77 83.3457 212.67 83.043 212.471 82.8672C212.201 82.6289 211.801 82.5098 211.27 82.5098C210.773 82.5098 210.406 82.5977 210.168 82.7734C209.934 82.9453 209.76 83.252 209.646 83.6934L208.615 83.5527C208.709 83.1113 208.863 82.7559 209.078 82.4863C209.293 82.2129 209.604 82.0039 210.01 81.8594C210.416 81.7109 210.887 81.6367 211.422 81.6367C211.953 81.6367 212.385 81.6992 212.717 81.8242C213.049 81.9492 213.293 82.1074 213.449 82.2988C213.605 82.4863 213.715 82.7246 213.777 83.0137C213.812 83.1934 213.83 83.5176 213.83 83.9863V85.3926C213.83 86.373 213.852 86.9941 213.895 87.2559C213.941 87.5137 214.031 87.7617 214.164 88H213.062C212.953 87.7812 212.883 87.5254 212.852 87.2324ZM212.764 84.877C212.381 85.0332 211.807 85.166 211.041 85.2754C210.607 85.3379 210.301 85.4082 210.121 85.4863C209.941 85.5645 209.803 85.6797 209.705 85.832C209.607 85.9805 209.559 86.1465 209.559 86.3301C209.559 86.6113 209.664 86.8457 209.875 87.0332C210.09 87.2207 210.402 87.3145 210.812 87.3145C211.219 87.3145 211.58 87.2266 211.896 87.0508C212.213 86.8711 212.445 86.627 212.594 86.3184C212.707 86.0801 212.764 85.7285 212.764 85.2637V84.877Z" fill="black"/>
<path d="M256.619 114H254.732L253.982 112.049H250.549L249.84 114H248L251.346 105.41H253.18L256.619 114ZM253.426 110.602L252.242 107.414L251.082 110.602H253.426ZM263.193 114H261.547V110.824C261.547 110.152 261.512 109.719 261.441 109.523C261.371 109.324 261.256 109.17 261.096 109.061C260.939 108.951 260.75 108.896 260.527 108.896C260.242 108.896 259.986 108.975 259.76 109.131C259.533 109.287 259.377 109.494 259.291 109.752C259.209 110.01 259.168 110.486 259.168 111.182V114H257.521V107.777H259.051V108.691C259.594 107.988 260.277 107.637 261.102 107.637C261.465 107.637 261.797 107.703 262.098 107.836C262.398 107.965 262.625 108.131 262.777 108.334C262.934 108.537 263.041 108.768 263.1 109.025C263.162 109.283 263.193 109.652 263.193 110.133V114ZM270.576 114H269.047V113.086C268.793 113.441 268.492 113.707 268.145 113.883C267.801 114.055 267.453 114.141 267.102 114.141C266.387 114.141 265.773 113.854 265.262 113.279C264.754 112.701 264.5 111.896 264.5 110.865C264.5 109.811 264.748 109.01 265.244 108.463C265.74 107.912 266.367 107.637 267.125 107.637C267.82 107.637 268.422 107.926 268.93 108.504V105.41H270.576V114ZM266.182 110.754C266.182 111.418 266.273 111.898 266.457 112.195C266.723 112.625 267.094 112.84 267.57 112.84C267.949 112.84 268.271 112.68 268.537 112.359C268.803 112.035 268.936 111.553 268.936 110.912C268.936 110.197 268.807 109.684 268.549 109.371C268.291 109.055 267.961 108.896 267.559 108.896C267.168 108.896 266.84 109.053 266.574 109.365C266.312 109.674 266.182 110.137 266.182 110.754Z" fill="black"/>
<path d="M209.764 120H208.785V111.41H209.84V114.475C210.285 113.916 210.854 113.637 211.545 113.637C211.928 113.637 212.289 113.715 212.629 113.871C212.973 114.023 213.254 114.24 213.473 114.521C213.695 114.799 213.869 115.135 213.994 115.529C214.119 115.924 214.182 116.346 214.182 116.795C214.182 117.861 213.918 118.686 213.391 119.268C212.863 119.85 212.23 120.141 211.492 120.141C210.758 120.141 210.182 119.834 209.764 119.221V120ZM209.752 116.842C209.752 117.588 209.854 118.127 210.057 118.459C210.389 119.002 210.838 119.273 211.404 119.273C211.865 119.273 212.264 119.074 212.6 118.676C212.936 118.273 213.104 117.676 213.104 116.883C213.104 116.07 212.941 115.471 212.617 115.084C212.297 114.697 211.908 114.504 211.451 114.504C210.99 114.504 210.592 114.705 210.256 115.107C209.92 115.506 209.752 116.084 209.752 116.842Z" fill="black"/>
<path d="M306.398 100.889C306.398 99.7363 306.719 98.8828 307.359 98.3281C307.895 97.8672 308.547 97.6367 309.316 97.6367C310.172 97.6367 310.871 97.918 311.414 98.4805C311.957 99.0391 312.229 99.8125 312.229 100.801C312.229 101.602 312.107 102.232 311.865 102.693C311.627 103.15 311.277 103.506 310.816 103.76C310.359 104.014 309.859 104.141 309.316 104.141C308.445 104.141 307.74 103.861 307.201 103.303C306.666 102.744 306.398 101.939 306.398 100.889ZM307.482 100.889C307.482 101.686 307.656 102.283 308.004 102.682C308.352 103.076 308.789 103.273 309.316 103.273C309.84 103.273 310.275 103.074 310.623 102.676C310.971 102.277 311.145 101.67 311.145 100.854C311.145 100.084 310.969 99.502 310.617 99.1074C310.27 98.709 309.836 98.5098 309.316 98.5098C308.789 98.5098 308.352 98.707 308.004 99.1016C307.656 99.4961 307.482 100.092 307.482 100.889ZM317.549 104V103.086C317.064 103.789 316.406 104.141 315.574 104.141C315.207 104.141 314.863 104.07 314.543 103.93C314.227 103.789 313.99 103.613 313.834 103.402C313.682 103.188 313.574 102.926 313.512 102.617C313.469 102.41 313.447 102.082 313.447 101.633V97.7773H314.502V101.229C314.502 101.779 314.523 102.15 314.566 102.342C314.633 102.619 314.773 102.838 314.988 102.998C315.203 103.154 315.469 103.232 315.785 103.232C316.102 103.232 316.398 103.152 316.676 102.992C316.953 102.828 317.148 102.607 317.262 102.33C317.379 102.049 317.438 101.643 317.438 101.111V97.7773H318.492V104H317.549ZM322.453 103.057L322.605 103.988C322.309 104.051 322.043 104.082 321.809 104.082C321.426 104.082 321.129 104.021 320.918 103.9C320.707 103.779 320.559 103.621 320.473 103.426C320.387 103.227 320.344 102.811 320.344 102.178V98.5977H319.57V97.7773H320.344V96.2363L321.393 95.6035V97.7773H322.453V98.5977H321.393V102.236C321.393 102.537 321.41 102.73 321.445 102.816C321.484 102.902 321.545 102.971 321.627 103.021C321.713 103.072 321.834 103.098 321.99 103.098C322.107 103.098 322.262 103.084 322.453 103.057Z" fill="black"/>
<path d="M304.398 122.889C304.398 121.736 304.719 120.883 305.359 120.328C305.895 119.867 306.547 119.637 307.316 119.637C308.172 119.637 308.871 119.918 309.414 120.48C309.957 121.039 310.229 121.812 310.229 122.801C310.229 123.602 310.107 124.232 309.865 124.693C309.627 125.15 309.277 125.506 308.816 125.76C308.359 126.014 307.859 126.141 307.316 126.141C306.445 126.141 305.74 125.861 305.201 125.303C304.666 124.744 304.398 123.939 304.398 122.889ZM305.482 122.889C305.482 123.686 305.656 124.283 306.004 124.682C306.352 125.076 306.789 125.273 307.316 125.273C307.84 125.273 308.275 125.074 308.623 124.676C308.971 124.277 309.145 123.67 309.145 122.854C309.145 122.084 308.969 121.502 308.617 121.107C308.27 120.709 307.836 120.51 307.316 120.51C306.789 120.51 306.352 120.707 306.004 121.102C305.656 121.496 305.482 122.092 305.482 122.889ZM316.721 124.986V126H311.043C311.035 125.746 311.076 125.502 311.166 125.268C311.311 124.881 311.541 124.5 311.857 124.125C312.178 123.75 312.639 123.316 313.24 122.824C314.174 122.059 314.805 121.453 315.133 121.008C315.461 120.559 315.625 120.135 315.625 119.736C315.625 119.318 315.475 118.967 315.174 118.682C314.877 118.393 314.488 118.248 314.008 118.248C313.5 118.248 313.094 118.4 312.789 118.705C312.484 119.01 312.33 119.432 312.326 119.971L311.242 119.859C311.316 119.051 311.596 118.436 312.08 118.014C312.564 117.588 313.215 117.375 314.031 117.375C314.855 117.375 315.508 117.604 315.988 118.061C316.469 118.518 316.709 119.084 316.709 119.76C316.709 120.104 316.639 120.441 316.498 120.773C316.357 121.105 316.123 121.455 315.795 121.822C315.471 122.189 314.93 122.693 314.172 123.334C313.539 123.865 313.133 124.227 312.953 124.418C312.773 124.605 312.625 124.795 312.508 124.986H316.721Z" fill="black"/>
<mask id="path-19-inside-2_37_486" fill="white">
<path fill-rule="evenodd" clip-rule="evenodd" d="M278 203H226V253H278C291.807 253 303 241.807 303 228C303 214.193 291.807 203 278 203Z"/>
</mask>
<path fill-rule="evenodd" clip-rule="evenodd" d="M278 203H226V253H278C291.807 253 303 241.807 303 228C303 214.193 291.807 203 278 203Z" fill="#D9D9D9"/>
<path d="M226 203V201H224V203H226ZM226 253H224V255H226V253ZM226 205H278V201H226V205ZM228 253V203H224V253H228ZM278 251H226V255H278V251ZM301 228C301 240.703 290.703 251 278 251V255C292.912 255 305 242.912 305 228H301ZM278 205C290.703 205 301 215.297 301 228H305C305 213.088 292.912 201 278 201V205Z" fill="black" mask="url(#path-19-inside-2_37_486)"/>
<line x1="204" y1="213" x2="226" y2="213" stroke="black" stroke-width="2"/>
<line x1="204" y1="243" x2="226" y2="243" stroke="black" stroke-width="2"/>
<line x1="303" y1="228" x2="325" y2="228" stroke="black" stroke-width="2"/>
<path d="M213.852 206.232C213.461 206.564 213.084 206.799 212.721 206.936C212.361 207.072 211.975 207.141 211.561 207.141C210.877 207.141 210.352 206.975 209.984 206.643C209.617 206.307 209.434 205.879 209.434 205.359C209.434 205.055 209.502 204.777 209.639 204.527C209.779 204.273 209.961 204.07 210.184 203.918C210.41 203.766 210.664 203.65 210.945 203.572C211.152 203.518 211.465 203.465 211.883 203.414C212.734 203.312 213.361 203.191 213.764 203.051C213.768 202.906 213.77 202.814 213.77 202.775C213.77 202.346 213.67 202.043 213.471 201.867C213.201 201.629 212.801 201.51 212.27 201.51C211.773 201.51 211.406 201.598 211.168 201.773C210.934 201.945 210.76 202.252 210.646 202.693L209.615 202.553C209.709 202.111 209.863 201.756 210.078 201.486C210.293 201.213 210.604 201.004 211.01 200.859C211.416 200.711 211.887 200.637 212.422 200.637C212.953 200.637 213.385 200.699 213.717 200.824C214.049 200.949 214.293 201.107 214.449 201.299C214.605 201.486 214.715 201.725 214.777 202.014C214.812 202.193 214.83 202.518 214.83 202.986V204.393C214.83 205.373 214.852 205.994 214.895 206.256C214.941 206.514 215.031 206.762 215.164 207H214.062C213.953 206.781 213.883 206.525 213.852 206.232ZM213.764 203.877C213.381 204.033 212.807 204.166 212.041 204.275C211.607 204.338 211.301 204.408 211.121 204.486C210.941 204.564 210.803 204.68 210.705 204.832C210.607 204.98 210.559 205.146 210.559 205.33C210.559 205.611 210.664 205.846 210.875 206.033C211.09 206.221 211.402 206.314 211.812 206.314C212.219 206.314 212.58 206.227 212.896 206.051C213.213 205.871 213.445 205.627 213.594 205.318C213.707 205.08 213.764 204.729 213.764 204.264V203.877Z" fill="black"/>
<path d="M257.619 233H255.732L254.982 231.049H251.549L250.84 233H249L252.346 224.41H254.18L257.619 233ZM254.426 229.602L253.242 226.414L252.082 229.602H254.426ZM264.193 233H262.547V229.824C262.547 229.152 262.512 228.719 262.441 228.523C262.371 228.324 262.256 228.17 262.096 228.061C261.939 227.951 261.75 227.896 261.527 227.896C261.242 227.896 260.986 227.975 260.76 228.131C260.533 228.287 260.377 228.494 260.291 228.752C260.209 229.01 260.168 229.486 260.168 230.182V233H258.521V226.777H260.051V227.691C260.594 226.988 261.277 226.637 262.102 226.637C262.465 226.637 262.797 226.703 263.098 226.836C263.398 226.965 263.625 227.131 263.777 227.334C263.934 227.537 264.041 227.768 264.1 228.025C264.162 228.283 264.193 228.652 264.193 229.133V233ZM271.576 233H270.047V232.086C269.793 232.441 269.492 232.707 269.145 232.883C268.801 233.055 268.453 233.141 268.102 233.141C267.387 233.141 266.773 232.854 266.262 232.279C265.754 231.701 265.5 230.896 265.5 229.865C265.5 228.811 265.748 228.01 266.244 227.463C266.74 226.912 267.367 226.637 268.125 226.637C268.82 226.637 269.422 226.926 269.93 227.504V224.41H271.576V233ZM267.182 229.754C267.182 230.418 267.273 230.898 267.457 231.195C267.723 231.625 268.094 231.84 268.57 231.84C268.949 231.84 269.271 231.68 269.537 231.359C269.803 231.035 269.936 230.553 269.936 229.912C269.936 229.197 269.807 228.684 269.549 228.371C269.291 228.055 268.961 227.896 268.559 227.896C268.168 227.896 267.84 228.053 267.574 228.365C267.312 228.674 267.182 229.137 267.182 229.754Z" fill="black"/>
<path d="M210.764 239H209.785V230.41H210.84V233.475C211.285 232.916 211.854 232.637 212.545 232.637C212.928 232.637 213.289 232.715 213.629 232.871C213.973 233.023 214.254 233.24 214.473 233.521C214.695 233.799 214.869 234.135 214.994 234.529C215.119 234.924 215.182 235.346 215.182 235.795C215.182 236.861 214.918 237.686 214.391 238.268C213.863 238.85 213.23 239.141 212.492 239.141C211.758 239.141 211.182 238.834 210.764 238.221V239ZM210.752 235.842C210.752 236.588 210.854 237.127 211.057 237.459C211.389 238.002 211.838 238.273 212.404 238.273C212.865 238.273 213.264 238.074 213.6 237.676C213.936 237.273 214.104 236.676 214.104 235.883C214.104 235.07 213.941 234.471 213.617 234.084C213.297 233.697 212.908 233.504 212.451 233.504C211.99 233.504 211.592 233.705 211.256 234.107C210.92 234.506 210.752 235.084 210.752 235.842Z" fill="black"/>
<path d="M307.398 219.889C307.398 218.736 307.719 217.883 308.359 217.328C308.895 216.867 309.547 216.637 310.316 216.637C311.172 216.637 311.871 216.918 312.414 217.48C312.957 218.039 313.229 218.812 313.229 219.801C313.229 220.602 313.107 221.232 312.865 221.693C312.627 222.15 312.277 222.506 311.816 222.76C311.359 223.014 310.859 223.141 310.316 223.141C309.445 223.141 308.74 222.861 308.201 222.303C307.666 221.744 307.398 220.939 307.398 219.889ZM308.482 219.889C308.482 220.686 308.656 221.283 309.004 221.682C309.352 222.076 309.789 222.273 310.316 222.273C310.84 222.273 311.275 222.074 311.623 221.676C311.971 221.277 312.145 220.67 312.145 219.854C312.145 219.084 311.969 218.502 311.617 218.107C311.27 217.709 310.836 217.51 310.316 217.51C309.789 217.51 309.352 217.707 309.004 218.102C308.656 218.496 308.482 219.092 308.482 219.889ZM318.549 223V222.086C318.064 222.789 317.406 223.141 316.574 223.141C316.207 223.141 315.863 223.07 315.543 222.93C315.227 222.789 314.99 222.613 314.834 222.402C314.682 222.188 314.574 221.926 314.512 221.617C314.469 221.41 314.447 221.082 314.447 220.633V216.777H315.502V220.229C315.502 220.779 315.523 221.15 315.566 221.342C315.633 221.619 315.773 221.838 315.988 221.998C316.203 222.154 316.469 222.232 316.785 222.232C317.102 222.232 317.398 222.152 317.676 221.992C317.953 221.828 318.148 221.607 318.262 221.33C318.379 221.049 318.438 220.643 318.438 220.111V216.777H319.492V223H318.549ZM323.453 222.057L323.605 222.988C323.309 223.051 323.043 223.082 322.809 223.082C322.426 223.082 322.129 223.021 321.918 222.9C321.707 222.779 321.559 222.621 321.473 222.426C321.387 222.227 321.344 221.811 321.344 221.178V217.598H320.57V216.777H321.344V215.236L322.393 214.604V216.777H323.453V217.598H322.393V221.236C322.393 221.537 322.41 221.73 322.445 221.816C322.484 221.902 322.545 221.971 322.627 222.021C322.713 222.072 322.834 222.098 322.99 222.098C323.107 222.098 323.262 222.084 323.453 222.057Z" fill="black"/>
<path d="M304.398 240.889C304.398 239.736 304.719 238.883 305.359 238.328C305.895 237.867 306.547 237.637 307.316 237.637C308.172 237.637 308.871 237.918 309.414 238.48C309.957 239.039 310.229 239.812 310.229 240.801C310.229 241.602 310.107 242.232 309.865 242.693C309.627 243.15 309.277 243.506 308.816 243.76C308.359 244.014 307.859 244.141 307.316 244.141C306.445 244.141 305.74 243.861 305.201 243.303C304.666 242.744 304.398 241.939 304.398 240.889ZM305.482 240.889C305.482 241.686 305.656 242.283 306.004 242.682C306.352 243.076 306.789 243.273 307.316 243.273C307.84 243.273 308.275 243.074 308.623 242.676C308.971 242.277 309.145 241.67 309.145 240.854C309.145 240.084 308.969 239.502 308.617 239.107C308.27 238.709 307.836 238.51 307.316 238.51C306.789 238.51 306.352 238.707 306.004 239.102C305.656 239.496 305.482 240.092 305.482 240.889ZM314.559 244V241.943H310.832V240.977L314.752 235.41H315.613V240.977H316.773V241.943H315.613V244H314.559ZM314.559 240.977V237.104L311.869 240.977H314.559Z" fill="black"/>
<line x1="163" y1="63.8" x2="203" y2="63.8" stroke="black" stroke-width="2.4"/>
<path d="M64.7969 48.623V47.4102H65.8516V48.623H64.7969ZM64.7969 56V49.7773H65.8516V56H64.7969ZM67.4629 56V49.7773H68.4121V50.6621C68.8691 49.9785 69.5293 49.6367 70.3926 49.6367C70.7676 49.6367 71.1113 49.7051 71.4238 49.8418C71.7402 49.9746 71.9766 50.1504 72.1328 50.3691C72.2891 50.5879 72.3984 50.8477 72.4609 51.1484C72.5 51.3438 72.5195 51.6855 72.5195 52.1738V56H71.4648V52.2148C71.4648 51.7852 71.4238 51.4648 71.3418 51.2539C71.2598 51.0391 71.1133 50.8691 70.9023 50.7441C70.6953 50.6152 70.4512 50.5508 70.1699 50.5508C69.7207 50.5508 69.332 50.6934 69.0039 50.9785C68.6797 51.2637 68.5176 51.8047 68.5176 52.6016V56H67.4629Z" fill="black"/>
<line x1="57" y1="63.8" x2="104" y2="63.8" stroke="black" stroke-width="2.4"/>
<path d="M184.398 50.8887C184.398 49.7363 184.719 48.8828 185.359 48.3281C185.895 47.8672 186.547 47.6367 187.316 47.6367C188.172 47.6367 188.871 47.918 189.414 48.4805C189.957 49.0391 190.229 49.8125 190.229 50.8008C190.229 51.6016 190.107 52.2324 189.865 52.6934C189.627 53.1504 189.277 53.5059 188.816 53.7598C188.359 54.0137 187.859 54.1406 187.316 54.1406C186.445 54.1406 185.74 53.8613 185.201 53.3027C184.666 52.7441 184.398 51.9395 184.398 50.8887ZM185.482 50.8887C185.482 51.6855 185.656 52.2832 186.004 52.6816C186.352 53.0762 186.789 53.2734 187.316 53.2734C187.84 53.2734 188.275 53.0742 188.623 52.6758C188.971 52.2773 189.145 51.6699 189.145 50.8535C189.145 50.084 188.969 49.502 188.617 49.1074C188.27 48.709 187.836 48.5098 187.316 48.5098C186.789 48.5098 186.352 48.707 186.004 49.1016C185.656 49.4961 185.482 50.0918 185.482 50.8887ZM195.549 54V53.0859C195.064 53.7891 194.406 54.1406 193.574 54.1406C193.207 54.1406 192.863 54.0703 192.543 53.9297C192.227 53.7891 191.99 53.6133 191.834 53.4023C191.682 53.1875 191.574 52.9258 191.512 52.6172C191.469 52.4102 191.447 52.082 191.447 51.6328V47.7773H192.502V51.2285C192.502 51.7793 192.523 52.1504 192.566 52.3418C192.633 52.6191 192.773 52.8379 192.988 52.998C193.203 53.1543 193.469 53.2324 193.785 53.2324C194.102 53.2324 194.398 53.1523 194.676 52.9922C194.953 52.8281 195.148 52.6074 195.262 52.3301C195.379 52.0488 195.438 51.6426 195.438 51.1113V47.7773H196.492V54H195.549ZM200.453 53.0566L200.605 53.9883C200.309 54.0508 200.043 54.082 199.809 54.082C199.426 54.082 199.129 54.0215 198.918 53.9004C198.707 53.7793 198.559 53.6211 198.473 53.4258C198.387 53.2266 198.344 52.8105 198.344 52.1777V48.5977H197.57V47.7773H198.344V46.2363L199.393 45.6035V47.7773H200.453V48.5977H199.393V52.2363C199.393 52.5371 199.41 52.7305 199.445 52.8164C199.484 52.9023 199.545 52.9707 199.627 53.0215C199.713 53.0723 199.834 53.0977 199.99 53.0977C200.107 53.0977 200.262 53.084 200.453 53.0566Z" fill="black"/>
<path d="M104.4 33.0785L158.4 64.2554L104.4 95.4323L104.4 33.0785Z" fill="#D9D9D9" stroke="black" stroke-width="2.4"/>
<circle cx="165.4" cy="64.2554" r="6" fill="#D9D9D9" stroke="black" stroke-width="2.4"/>
<path d="M107.891 67.8554V59.2655H109.578L113.094 65.0019V59.2655H114.705V67.8554H112.965L109.502 62.2538V67.8554H107.891ZM116.152 64.6562C116.152 64.1093 116.287 63.58 116.557 63.0683C116.826 62.5565 117.207 62.1659 117.699 61.8964C118.195 61.6269 118.748 61.4921 119.357 61.4921C120.299 61.4921 121.07 61.7987 121.672 62.412C122.273 63.0214 122.574 63.7929 122.574 64.7265C122.574 65.6679 122.27 66.4491 121.66 67.0702C121.055 67.6874 120.291 67.996 119.369 67.996C118.799 67.996 118.254 67.8671 117.734 67.6093C117.219 67.3515 116.826 66.9745 116.557 66.4784C116.287 65.9784 116.152 65.371 116.152 64.6562ZM117.84 64.744C117.84 65.3612 117.986 65.8339 118.279 66.162C118.572 66.4901 118.934 66.6542 119.363 66.6542C119.793 66.6542 120.152 66.4901 120.441 66.162C120.734 65.8339 120.881 65.3573 120.881 64.7323C120.881 64.123 120.734 63.6542 120.441 63.3261C120.152 62.998 119.793 62.8339 119.363 62.8339C118.934 62.8339 118.572 62.998 118.279 63.3261C117.986 63.6542 117.84 64.1269 117.84 64.744ZM126.723 61.6327V62.9452H125.598V65.453C125.598 65.9608 125.607 66.2577 125.627 66.3437C125.65 66.4257 125.699 66.494 125.773 66.5487C125.852 66.6034 125.945 66.6308 126.055 66.6308C126.207 66.6308 126.428 66.578 126.717 66.4726L126.857 67.7499C126.475 67.914 126.041 67.996 125.557 67.996C125.26 67.996 124.992 67.9472 124.754 67.8495C124.516 67.748 124.34 67.619 124.227 67.4628C124.117 67.3026 124.041 67.0878 123.998 66.8183C123.963 66.6269 123.945 66.2401 123.945 65.6581V62.9452H123.189V61.6327H123.945V60.3964L125.598 59.4355V61.6327H126.723Z" fill="black"/>
<path d="M178.398 77.8887C178.398 76.7363 178.719 75.8828 179.359 75.3281C179.895 74.8672 180.547 74.6367 181.316 74.6367C182.172 74.6367 182.871 74.918 183.414 75.4805C183.957 76.0391 184.229 76.8125 184.229 77.8008C184.229 78.6016 184.107 79.2324 183.865 79.6934C183.627 80.1504 183.277 80.5059 182.816 80.7598C182.359 81.0137 181.859 81.1406 181.316 81.1406C180.445 81.1406 179.74 80.8613 179.201 80.3027C178.666 79.7441 178.398 78.9395 178.398 77.8887ZM179.482 77.8887C179.482 78.6855 179.656 79.2832 180.004 79.6816C180.352 80.0762 180.789 80.2734 181.316 80.2734C181.84 80.2734 182.275 80.0742 182.623 79.6758C182.971 79.2773 183.145 78.6699 183.145 77.8535C183.145 77.084 182.969 76.502 182.617 76.1074C182.27 75.709 181.836 75.5098 181.316 75.5098C180.789 75.5098 180.352 75.707 180.004 76.1016C179.656 76.4961 179.482 77.0918 179.482 77.8887ZM189.15 81H188.096V74.2793C187.842 74.5215 187.508 74.7637 187.094 75.0059C186.684 75.248 186.314 75.4297 185.986 75.5508V74.5312C186.576 74.2539 187.092 73.918 187.533 73.5234C187.975 73.1289 188.287 72.7461 188.471 72.375H189.15V81Z" fill="black"/>
<line x1="164" y1="212.8" x2="204" y2="212.8" stroke="black" stroke-width="2.4"/>
<path d="M65.7969 197.623V196.41H66.8516V197.623H65.7969ZM65.7969 205V198.777H66.8516V205H65.7969ZM68.4629 205V198.777H69.4121V199.662C69.8691 198.979 70.5293 198.637 71.3926 198.637C71.7676 198.637 72.1113 198.705 72.4238 198.842C72.7402 198.975 72.9766 199.15 73.1328 199.369C73.2891 199.588 73.3984 199.848 73.4609 200.148C73.5 200.344 73.5195 200.686 73.5195 201.174V205H72.4648V201.215C72.4648 200.785 72.4238 200.465 72.3418 200.254C72.2598 200.039 72.1133 199.869 71.9023 199.744C71.6953 199.615 71.4512 199.551 71.1699 199.551C70.7207 199.551 70.332 199.693 70.0039 199.979C69.6797 200.264 69.5176 200.805 69.5176 201.602V205H68.4629Z" fill="black"/>
<line x1="58" y1="212.8" x2="105" y2="212.8" stroke="black" stroke-width="2.4"/>
<path d="M185.398 199.889C185.398 198.736 185.719 197.883 186.359 197.328C186.895 196.867 187.547 196.637 188.316 196.637C189.172 196.637 189.871 196.918 190.414 197.48C190.957 198.039 191.229 198.812 191.229 199.801C191.229 200.602 191.107 201.232 190.865 201.693C190.627 202.15 190.277 202.506 189.816 202.76C189.359 203.014 188.859 203.141 188.316 203.141C187.445 203.141 186.74 202.861 186.201 202.303C185.666 201.744 185.398 200.939 185.398 199.889ZM186.482 199.889C186.482 200.686 186.656 201.283 187.004 201.682C187.352 202.076 187.789 202.273 188.316 202.273C188.84 202.273 189.275 202.074 189.623 201.676C189.971 201.277 190.145 200.67 190.145 199.854C190.145 199.084 189.969 198.502 189.617 198.107C189.27 197.709 188.836 197.51 188.316 197.51C187.789 197.51 187.352 197.707 187.004 198.102C186.656 198.496 186.482 199.092 186.482 199.889ZM196.549 203V202.086C196.064 202.789 195.406 203.141 194.574 203.141C194.207 203.141 193.863 203.07 193.543 202.93C193.227 202.789 192.99 202.613 192.834 202.402C192.682 202.188 192.574 201.926 192.512 201.617C192.469 201.41 192.447 201.082 192.447 200.633V196.777H193.502V200.229C193.502 200.779 193.523 201.15 193.566 201.342C193.633 201.619 193.773 201.838 193.988 201.998C194.203 202.154 194.469 202.232 194.785 202.232C195.102 202.232 195.398 202.152 195.676 201.992C195.953 201.828 196.148 201.607 196.262 201.33C196.379 201.049 196.438 200.643 196.438 200.111V196.777H197.492V203H196.549ZM201.453 202.057L201.605 202.988C201.309 203.051 201.043 203.082 200.809 203.082C200.426 203.082 200.129 203.021 199.918 202.9C199.707 202.779 199.559 202.621 199.473 202.426C199.387 202.227 199.344 201.811 199.344 201.178V197.598H198.57V196.777H199.344V195.236L200.393 194.604V196.777H201.453V197.598H200.393V201.236C200.393 201.537 200.41 201.73 200.445 201.816C200.484 201.902 200.545 201.971 200.627 202.021C200.713 202.072 200.834 202.098 200.99 202.098C201.107 202.098 201.262 202.084 201.453 202.057Z" fill="black"/>
<path d="M105.4 182.078L159.4 213.255L105.4 244.432L105.4 182.078Z" fill="#D9D9D9" stroke="black" stroke-width="2.4"/>
<circle cx="166.4" cy="213.255" r="6" fill="#D9D9D9" stroke="black" stroke-width="2.4"/>
<path d="M108.891 216.855V208.266H110.578L114.094 214.002V208.266H115.705V216.855H113.965L110.502 211.254V216.855H108.891ZM117.152 213.656C117.152 213.109 117.287 212.58 117.557 212.068C117.826 211.557 118.207 211.166 118.699 210.896C119.195 210.627 119.748 210.492 120.357 210.492C121.299 210.492 122.07 210.799 122.672 211.412C123.273 212.021 123.574 212.793 123.574 213.726C123.574 214.668 123.27 215.449 122.66 216.07C122.055 216.687 121.291 216.996 120.369 216.996C119.799 216.996 119.254 216.867 118.734 216.609C118.219 216.351 117.826 215.975 117.557 215.478C117.287 214.978 117.152 214.371 117.152 213.656ZM118.84 213.744C118.84 214.361 118.986 214.834 119.279 215.162C119.572 215.49 119.934 215.654 120.363 215.654C120.793 215.654 121.152 215.49 121.441 215.162C121.734 214.834 121.881 214.357 121.881 213.732C121.881 213.123 121.734 212.654 121.441 212.326C121.152 211.998 120.793 211.834 120.363 211.834C119.934 211.834 119.572 211.998 119.279 212.326C118.986 212.654 118.84 213.127 118.84 213.744ZM127.723 210.633V211.945H126.598V214.453C126.598 214.961 126.607 215.258 126.627 215.344C126.65 215.426 126.699 215.494 126.773 215.549C126.852 215.603 126.945 215.631 127.055 215.631C127.207 215.631 127.428 215.578 127.717 215.473L127.857 216.75C127.475 216.914 127.041 216.996 126.557 216.996C126.26 216.996 125.992 216.947 125.754 216.85C125.516 216.748 125.34 216.619 125.227 216.463C125.117 216.303 125.041 216.088 124.998 215.818C124.963 215.627 124.945 215.24 124.945 214.658V211.945H124.189V210.633H124.945V209.396L126.598 208.435V210.633H127.723Z" fill="black"/>
<path d="M178.398 225.889C178.398 224.736 178.719 223.883 179.359 223.328C179.895 222.867 180.547 222.637 181.316 222.637C182.172 222.637 182.871 222.918 183.414 223.48C183.957 224.039 184.229 224.812 184.229 225.801C184.229 226.602 184.107 227.232 183.865 227.693C183.627 228.15 183.277 228.506 182.816 228.76C182.359 229.014 181.859 229.141 181.316 229.141C180.445 229.141 179.74 228.861 179.201 228.303C178.666 227.744 178.398 226.939 178.398 225.889ZM179.482 225.889C179.482 226.686 179.656 227.283 180.004 227.682C180.352 228.076 180.789 228.273 181.316 228.273C181.84 228.273 182.275 228.074 182.623 227.676C182.971 227.277 183.145 226.67 183.145 225.854C183.145 225.084 182.969 224.502 182.617 224.107C182.27 223.709 181.836 223.51 181.316 223.51C180.789 223.51 180.352 223.707 180.004 224.102C179.656 224.496 179.482 225.092 179.482 225.889ZM185.184 226.732L186.238 226.592C186.359 227.189 186.564 227.621 186.854 227.887C187.146 228.148 187.502 228.279 187.92 228.279C188.416 228.279 188.834 228.107 189.174 227.764C189.518 227.42 189.689 226.994 189.689 226.486C189.689 226.002 189.531 225.604 189.215 225.291C188.898 224.975 188.496 224.816 188.008 224.816C187.809 224.816 187.561 224.855 187.264 224.934L187.381 224.008C187.451 224.016 187.508 224.02 187.551 224.02C188 224.02 188.404 223.902 188.764 223.668C189.123 223.434 189.303 223.072 189.303 222.584C189.303 222.197 189.172 221.877 188.91 221.623C188.648 221.369 188.311 221.242 187.896 221.242C187.486 221.242 187.145 221.371 186.871 221.629C186.598 221.887 186.422 222.273 186.344 222.789L185.289 222.602C185.418 221.895 185.711 221.348 186.168 220.961C186.625 220.57 187.193 220.375 187.873 220.375C188.342 220.375 188.773 220.477 189.168 220.68C189.562 220.879 189.863 221.152 190.07 221.5C190.281 221.848 190.387 222.217 190.387 222.607C190.387 222.979 190.287 223.316 190.088 223.621C189.889 223.926 189.594 224.168 189.203 224.348C189.711 224.465 190.105 224.709 190.387 225.08C190.668 225.447 190.809 225.908 190.809 226.463C190.809 227.213 190.535 227.85 189.988 228.373C189.441 228.893 188.75 229.152 187.914 229.152C187.16 229.152 186.533 228.928 186.033 228.479C185.537 228.029 185.254 227.447 185.184 226.732Z" fill="black"/>
<rect x="29.5" y="20.5" width="420" height="280" stroke="black" stroke-dasharray="2 2"/>
<path d="M14.8516 56.2324C14.4609 56.5645 14.084 56.7988 13.7207 56.9355C13.3613 57.0723 12.9746 57.1406 12.5605 57.1406C11.877 57.1406 11.3516 56.9746 10.9844 56.6426C10.6172 56.3066 10.4336 55.8789 10.4336 55.3594C10.4336 55.0547 10.502 54.7773 10.6387 54.5273C10.7793 54.2734 10.9609 54.0703 11.1836 53.918C11.4102 53.7656 11.6641 53.6504 11.9453 53.5723C12.1523 53.5176 12.4648 53.4648 12.8828 53.4141C13.7344 53.3125 14.3613 53.1914 14.7637 53.0508C14.7676 52.9062 14.7695 52.8145 14.7695 52.7754C14.7695 52.3457 14.6699 52.043 14.4707 51.8672C14.2012 51.6289 13.8008 51.5098 13.2695 51.5098C12.7734 51.5098 12.4062 51.5977 12.168 51.7734C11.9336 51.9453 11.7598 52.252 11.6465 52.6934L10.6152 52.5527C10.709 52.1113 10.8633 51.7559 11.0781 51.4863C11.293 51.2129 11.6035 51.0039 12.0098 50.8594C12.416 50.7109 12.8867 50.6367 13.4219 50.6367C13.9531 50.6367 14.3848 50.6992 14.7168 50.8242C15.0488 50.9492 15.293 51.1074 15.4492 51.2988C15.6055 51.4863 15.7148 51.7246 15.7773 52.0137C15.8125 52.1934 15.8301 52.5176 15.8301 52.9863V54.3926C15.8301 55.373 15.8516 55.9941 15.8945 56.2559C15.9414 56.5137 16.0312 56.7617 16.1641 57H15.0625C14.9531 56.7812 14.8828 56.5254 14.8516 56.2324ZM14.7637 53.877C14.3809 54.0332 13.8066 54.166 13.041 54.2754C12.6074 54.3379 12.3008 54.4082 12.1211 54.4863C11.9414 54.5645 11.8027 54.6797 11.7051 54.832C11.6074 54.9805 11.5586 55.1465 11.5586 55.3301C11.5586 55.6113 11.6641 55.8457 11.875 56.0332C12.0898 56.2207 12.4023 56.3145 12.8125 56.3145C13.2188 56.3145 13.5801 56.2266 13.8965 56.0508C14.2129 55.8711 14.4453 55.627 14.5938 55.3184C14.707 55.0801 14.7637 54.7285 14.7637 54.2637V53.877Z" fill="black"/>
<path d="M11.7637 154H10.7852V145.41H11.8398V148.475C12.2852 147.916 12.8535 147.637 13.5449 147.637C13.9277 147.637 14.2891 147.715 14.6289 147.871C14.9727 148.023 15.2539 148.24 15.4727 148.521C15.6953 148.799 15.8691 149.135 15.9941 149.529C16.1191 149.924 16.1816 150.346 16.1816 150.795C16.1816 151.861 15.918 152.686 15.3906 153.268C14.8633 153.85 14.2305 154.141 13.4922 154.141C12.7578 154.141 12.1816 153.834 11.7637 153.221V154ZM11.752 150.842C11.752 151.588 11.8535 152.127 12.0566 152.459C12.3887 153.002 12.8379 153.273 13.4043 153.273C13.8652 153.273 14.2637 153.074 14.5996 152.676C14.9355 152.273 15.1035 151.676 15.1035 150.883C15.1035 150.07 14.9414 149.471 14.6172 149.084C14.2969 148.697 13.9082 148.504 13.4512 148.504C12.9902 148.504 12.5918 148.705 12.2559 149.107C11.9199 149.506 11.752 150.084 11.752 150.842Z" fill="black"/>
<line x1="-8.74228e-08" y1="64" x2="58" y2="64" stroke="#FF6B00" stroke-width="2"/>
<line x1="-8.74228e-08" y1="161" x2="204" y2="161" stroke="#FF6B00" stroke-width="2"/>
<line x1="42" y1="281" x2="204" y2="281" stroke="#FF6B00" stroke-width="2"/>
<line x1="59" y1="162" x2="59" y2="213" stroke="#FF6B00" stroke-width="2"/>
<line x1="43" y1="281" x2="43" y2="65" stroke="#FF6B00" stroke-width="2" stroke-dasharray="4 4"/>
<circle cx="59" cy="161" r="5" fill="#FF6B00"/>
<circle cx="43" cy="64" r="5" fill="#FF6B00"/>
<line x1="420" y1="163" x2="443" y2="163" stroke="black" stroke-width="2"/>
<line x1="325" y1="149" x2="355" y2="149" stroke="black" stroke-width="2"/>
<line x1="325" y1="178" x2="355" y2="178" stroke="black" stroke-width="2"/>
<path d="M334.852 142.232C334.461 142.564 334.084 142.799 333.721 142.936C333.361 143.072 332.975 143.141 332.561 143.141C331.877 143.141 331.352 142.975 330.984 142.643C330.617 142.307 330.434 141.879 330.434 141.359C330.434 141.055 330.502 140.777 330.639 140.527C330.779 140.273 330.961 140.07 331.184 139.918C331.41 139.766 331.664 139.65 331.945 139.572C332.152 139.518 332.465 139.465 332.883 139.414C333.734 139.312 334.361 139.191 334.764 139.051C334.768 138.906 334.77 138.814 334.77 138.775C334.77 138.346 334.67 138.043 334.471 137.867C334.201 137.629 333.801 137.51 333.27 137.51C332.773 137.51 332.406 137.598 332.168 137.773C331.934 137.945 331.76 138.252 331.646 138.693L330.615 138.553C330.709 138.111 330.863 137.756 331.078 137.486C331.293 137.213 331.604 137.004 332.01 136.859C332.416 136.711 332.887 136.637 333.422 136.637C333.953 136.637 334.385 136.699 334.717 136.824C335.049 136.949 335.293 137.107 335.449 137.299C335.605 137.486 335.715 137.725 335.777 138.014C335.812 138.193 335.83 138.518 335.83 138.986V140.393C335.83 141.373 335.852 141.994 335.895 142.256C335.941 142.514 336.031 142.762 336.164 143H335.062C334.953 142.781 334.883 142.525 334.852 142.232ZM334.764 139.877C334.381 140.033 333.807 140.166 333.041 140.275C332.607 140.338 332.301 140.408 332.121 140.486C331.941 140.564 331.803 140.68 331.705 140.832C331.607 140.98 331.559 141.146 331.559 141.33C331.559 141.611 331.664 141.846 331.875 142.033C332.09 142.221 332.402 142.314 332.812 142.314C333.219 142.314 333.58 142.227 333.896 142.051C334.213 141.871 334.445 141.627 334.594 141.318C334.707 141.08 334.764 140.729 334.764 140.264V139.877Z" fill="black"/>
<path d="M331.764 172H330.785V163.41H331.84V166.475C332.285 165.916 332.854 165.637 333.545 165.637C333.928 165.637 334.289 165.715 334.629 165.871C334.973 166.023 335.254 166.24 335.473 166.521C335.695 166.799 335.869 167.135 335.994 167.529C336.119 167.924 336.182 168.346 336.182 168.795C336.182 169.861 335.918 170.686 335.391 171.268C334.863 171.85 334.23 172.141 333.492 172.141C332.758 172.141 332.182 171.834 331.764 171.221V172ZM331.752 168.842C331.752 169.588 331.854 170.127 332.057 170.459C332.389 171.002 332.838 171.273 333.404 171.273C333.865 171.273 334.264 171.074 334.6 170.676C334.936 170.273 335.104 169.676 335.104 168.883C335.104 168.07 334.941 167.471 334.617 167.084C334.297 166.697 333.908 166.504 333.451 166.504C332.99 166.504 332.592 166.705 332.256 167.107C331.92 167.506 331.752 168.084 331.752 168.842Z" fill="black"/>
<path d="M424.398 154.889C424.398 153.736 424.719 152.883 425.359 152.328C425.895 151.867 426.547 151.637 427.316 151.637C428.172 151.637 428.871 151.918 429.414 152.48C429.957 153.039 430.229 153.812 430.229 154.801C430.229 155.602 430.107 156.232 429.865 156.693C429.627 157.15 429.277 157.506 428.816 157.76C428.359 158.014 427.859 158.141 427.316 158.141C426.445 158.141 425.74 157.861 425.201 157.303C424.666 156.744 424.398 155.939 424.398 154.889ZM425.482 154.889C425.482 155.686 425.656 156.283 426.004 156.682C426.352 157.076 426.789 157.273 427.316 157.273C427.84 157.273 428.275 157.074 428.623 156.676C428.971 156.277 429.145 155.67 429.145 154.854C429.145 154.084 428.969 153.502 428.617 153.107C428.27 152.709 427.836 152.51 427.316 152.51C426.789 152.51 426.352 152.707 426.004 153.102C425.656 153.496 425.482 154.092 425.482 154.889ZM435.549 158V157.086C435.064 157.789 434.406 158.141 433.574 158.141C433.207 158.141 432.863 158.07 432.543 157.93C432.227 157.789 431.99 157.613 431.834 157.402C431.682 157.188 431.574 156.926 431.512 156.617C431.469 156.41 431.447 156.082 431.447 155.633V151.777H432.502V155.229C432.502 155.779 432.523 156.15 432.566 156.342C432.633 156.619 432.773 156.838 432.988 156.998C433.203 157.154 433.469 157.232 433.785 157.232C434.102 157.232 434.398 157.152 434.676 156.992C434.953 156.828 435.148 156.607 435.262 156.33C435.379 156.049 435.438 155.643 435.438 155.111V151.777H436.492V158H435.549ZM440.453 157.057L440.605 157.988C440.309 158.051 440.043 158.082 439.809 158.082C439.426 158.082 439.129 158.021 438.918 157.9C438.707 157.779 438.559 157.621 438.473 157.426C438.387 157.227 438.344 156.811 438.344 156.178V152.598H437.57V151.777H438.344V150.236L439.393 149.604V151.777H440.453V152.598H439.393V156.236C439.393 156.537 439.41 156.73 439.445 156.816C439.484 156.902 439.545 156.971 439.627 157.021C439.713 157.072 439.834 157.098 439.99 157.098C440.107 157.098 440.262 157.084 440.453 157.057Z" fill="black"/>
<mask id="path-61-inside-3_37_486" fill="white">
<path fill-rule="evenodd" clip-rule="evenodd" d="M348.603 189.86C353.884 182.601 357 173.664 357 164C357 153.399 353.251 143.673 347.006 136.076C375.183 137.032 401.094 146.921 421.997 163C401.49 178.775 376.162 188.591 348.603 189.86Z"/>
</mask>
<path fill-rule="evenodd" clip-rule="evenodd" d="M348.603 189.86C353.884 182.601 357 173.664 357 164C357 153.399 353.251 143.673 347.006 136.076C375.183 137.032 401.094 146.921 421.997 163C401.49 178.775 376.162 188.591 348.603 189.86Z" fill="#D9D9D9"/>
<path d="M348.603 189.86L346.985 188.683L344.536 192.049L348.695 191.858L348.603 189.86ZM347.006 136.076L347.073 134.077L342.65 133.927L345.461 137.346L347.006 136.076ZM421.997 163L423.216 164.585L425.277 163L423.216 161.415L421.997 163ZM350.22 191.037C355.742 183.447 359 174.101 359 164H355C355 173.227 352.027 181.754 346.985 188.683L350.22 191.037ZM359 164C359 152.918 355.079 142.747 348.551 134.806L345.461 137.346C351.422 144.598 355 153.879 355 164H359ZM346.938 138.075C374.683 139.017 400.195 148.753 420.777 164.585L423.216 161.415C401.993 145.09 375.682 135.048 347.073 134.077L346.938 138.075ZM420.777 161.415C400.584 176.948 375.647 186.613 348.511 187.862L348.695 191.858C376.676 190.57 402.395 180.601 423.216 164.585L420.777 161.415Z" fill="black" mask="url(#path-61-inside-3_37_486)"/>
<path d="M369.521 163.758C369.521 162.883 369.652 162.148 369.914 161.555C370.109 161.117 370.375 160.725 370.711 160.377C371.051 160.029 371.422 159.771 371.824 159.604C372.359 159.377 372.977 159.264 373.676 159.264C374.941 159.264 375.953 159.656 376.711 160.441C377.473 161.227 377.854 162.318 377.854 163.717C377.854 165.104 377.477 166.189 376.723 166.975C375.969 167.756 374.961 168.146 373.699 168.146C372.422 168.146 371.406 167.758 370.652 166.98C369.898 166.199 369.521 165.125 369.521 163.758ZM371.309 163.699C371.309 164.672 371.533 165.41 371.982 165.914C372.432 166.414 373.002 166.664 373.693 166.664C374.385 166.664 374.951 166.416 375.393 165.92C375.838 165.42 376.061 164.672 376.061 163.676C376.061 162.691 375.844 161.957 375.41 161.473C374.98 160.988 374.408 160.746 373.693 160.746C372.979 160.746 372.402 160.992 371.965 161.484C371.527 161.973 371.309 162.711 371.309 163.699ZM380.777 168H379.131V161.777H380.66V162.662C380.922 162.244 381.156 161.969 381.363 161.836C381.574 161.703 381.812 161.637 382.078 161.637C382.453 161.637 382.814 161.74 383.162 161.947L382.652 163.383C382.375 163.203 382.117 163.113 381.879 163.113C381.648 163.113 381.453 163.178 381.293 163.307C381.133 163.432 381.006 163.66 380.912 163.992C380.822 164.324 380.777 165.02 380.777 166.078V168Z" fill="black"/>
</svg>
