<svg width="173" height="95" viewBox="0 0 173 95" fill="none" xmlns="http://www.w3.org/2000/svg">
<line x1="150" y1="47" x2="173" y2="47" stroke="black" stroke-width="2"/>
<line x1="55" y1="33" x2="91" y2="33" stroke="black" stroke-width="2"/>
<line x1="55" y1="62" x2="92" y2="62" stroke="black" stroke-width="2"/>
<path d="M64.8516 26.2324C64.4609 26.5645 64.084 26.7988 63.7207 26.9355C63.3613 27.0723 62.9746 27.1406 62.5605 27.1406C61.877 27.1406 61.3516 26.9746 60.9844 26.6426C60.6172 26.3066 60.4336 25.8789 60.4336 25.3594C60.4336 25.0547 60.502 24.7773 60.6387 24.5273C60.7793 24.2734 60.9609 24.0703 61.1836 23.918C61.4102 23.7656 61.6641 23.6504 61.9453 23.5723C62.1523 23.5176 62.4648 23.4648 62.8828 23.4141C63.7344 23.3125 64.3613 23.1914 64.7637 23.0508C64.7676 22.9062 64.7695 22.8145 64.7695 22.7754C64.7695 22.3457 64.6699 22.043 64.4707 21.8672C64.2012 21.6289 63.8008 21.5098 63.2695 21.5098C62.7734 21.5098 62.4062 21.5977 62.168 21.7734C61.9336 21.9453 61.7598 22.252 61.6465 22.6934L60.6152 22.5527C60.709 22.1113 60.8633 21.7559 61.0781 21.4863C61.293 21.2129 61.6035 21.0039 62.0098 20.8594C62.416 20.7109 62.8867 20.6367 63.4219 20.6367C63.9531 20.6367 64.3848 20.6992 64.7168 20.8242C65.0488 20.9492 65.293 21.1074 65.4492 21.2988C65.6055 21.4863 65.7148 21.7246 65.7773 22.0137C65.8125 22.1934 65.8301 22.5176 65.8301 22.9863V24.3926C65.8301 25.373 65.8516 25.9941 65.8945 26.2559C65.9414 26.5137 66.0312 26.7617 66.1641 27H65.0625C64.9531 26.7812 64.8828 26.5254 64.8516 26.2324ZM64.7637 23.877C64.3809 24.0332 63.8066 24.166 63.041 24.2754C62.6074 24.3379 62.3008 24.4082 62.1211 24.4863C61.9414 24.5645 61.8027 24.6797 61.7051 24.832C61.6074 24.9805 61.5586 25.1465 61.5586 25.3301C61.5586 25.6113 61.6641 25.8457 61.875 26.0332C62.0898 26.2207 62.4023 26.3145 62.8125 26.3145C63.2188 26.3145 63.5801 26.2266 63.8965 26.0508C64.2129 25.8711 64.4453 25.627 64.5938 25.3184C64.707 25.0801 64.7637 24.7285 64.7637 24.2637V23.877Z" fill="black"/>
<path d="M61.7637 56H60.7852V47.4102H61.8398V50.4746C62.2852 49.916 62.8535 49.6367 63.5449 49.6367C63.9277 49.6367 64.2891 49.7148 64.6289 49.8711C64.9727 50.0234 65.2539 50.2402 65.4727 50.5215C65.6953 50.7988 65.8691 51.1348 65.9941 51.5293C66.1191 51.9238 66.1816 52.3457 66.1816 52.7949C66.1816 53.8613 65.918 54.6855 65.3906 55.2676C64.8633 55.8496 64.2305 56.1406 63.4922 56.1406C62.7578 56.1406 62.1816 55.834 61.7637 55.2207V56ZM61.752 52.8418C61.752 53.5879 61.8535 54.127 62.0566 54.459C62.3887 55.002 62.8379 55.2734 63.4043 55.2734C63.8652 55.2734 64.2637 55.0742 64.5996 54.6758C64.9355 54.2734 65.1035 53.6758 65.1035 52.8828C65.1035 52.0703 64.9414 51.4707 64.6172 51.084C64.2969 50.6973 63.9082 50.5039 63.4512 50.5039C62.9902 50.5039 62.5918 50.7051 62.2559 51.1074C61.9199 51.5059 61.752 52.084 61.752 52.8418Z" fill="black"/>
<path d="M154.398 38.8887C154.398 37.7363 154.719 36.8828 155.359 36.3281C155.895 35.8672 156.547 35.6367 157.316 35.6367C158.172 35.6367 158.871 35.918 159.414 36.4805C159.957 37.0391 160.229 37.8125 160.229 38.8008C160.229 39.6016 160.107 40.2324 159.865 40.6934C159.627 41.1504 159.277 41.5059 158.816 41.7598C158.359 42.0137 157.859 42.1406 157.316 42.1406C156.445 42.1406 155.74 41.8613 155.201 41.3027C154.666 40.7441 154.398 39.9395 154.398 38.8887ZM155.482 38.8887C155.482 39.6855 155.656 40.2832 156.004 40.6816C156.352 41.0762 156.789 41.2734 157.316 41.2734C157.84 41.2734 158.275 41.0742 158.623 40.6758C158.971 40.2773 159.145 39.6699 159.145 38.8535C159.145 38.084 158.969 37.502 158.617 37.1074C158.27 36.709 157.836 36.5098 157.316 36.5098C156.789 36.5098 156.352 36.707 156.004 37.1016C155.656 37.4961 155.482 38.0918 155.482 38.8887ZM165.549 42V41.0859C165.064 41.7891 164.406 42.1406 163.574 42.1406C163.207 42.1406 162.863 42.0703 162.543 41.9297C162.227 41.7891 161.99 41.6133 161.834 41.4023C161.682 41.1875 161.574 40.9258 161.512 40.6172C161.469 40.4102 161.447 40.082 161.447 39.6328V35.7773H162.502V39.2285C162.502 39.7793 162.523 40.1504 162.566 40.3418C162.633 40.6191 162.773 40.8379 162.988 40.998C163.203 41.1543 163.469 41.2324 163.785 41.2324C164.102 41.2324 164.398 41.1523 164.676 40.9922C164.953 40.8281 165.148 40.6074 165.262 40.3301C165.379 40.0488 165.438 39.6426 165.438 39.1113V35.7773H166.492V42H165.549ZM170.453 41.0566L170.605 41.9883C170.309 42.0508 170.043 42.082 169.809 42.082C169.426 42.082 169.129 42.0215 168.918 41.9004C168.707 41.7793 168.559 41.6211 168.473 41.4258C168.387 41.2266 168.344 40.8105 168.344 40.1777V36.5977H167.57V35.7773H168.344V34.2363L169.393 33.6035V35.7773H170.453V36.5977H169.393V40.2363C169.393 40.5371 169.41 40.7305 169.445 40.8164C169.484 40.9023 169.545 40.9707 169.627 41.0215C169.713 41.0723 169.834 41.0977 169.99 41.0977C170.107 41.0977 170.262 41.084 170.453 41.0566Z" fill="black"/>
<mask id="path-7-inside-1_40_488" fill="white">
<path fill-rule="evenodd" clip-rule="evenodd" d="M90.6656 72.7458C94.6992 65.5801 97.0001 57.3087 97.0001 48.5C97.0001 38.3201 93.9271 28.8579 88.6582 20.9905C112.315 23.9118 134.01 33.1642 151.997 47C134.52 60.4436 113.542 69.5599 90.6656 72.7458Z"/>
</mask>
<path fill-rule="evenodd" clip-rule="evenodd" d="M90.6656 72.7458C94.6992 65.5801 97.0001 57.3087 97.0001 48.5C97.0001 38.3201 93.9271 28.8579 88.6582 20.9905C112.315 23.9118 134.01 33.1642 151.997 47C134.52 60.4436 113.542 69.5599 90.6656 72.7458Z" fill="#D9D9D9"/>
<path d="M90.6656 72.7458L88.9227 71.7647L86.9419 75.2837L90.9415 74.7267L90.6656 72.7458ZM88.6582 20.9905L88.9033 19.0056L84.5628 18.4696L86.9964 22.1034L88.6582 20.9905ZM151.997 47L153.216 48.5852L155.277 47L153.216 45.4147L151.997 47ZM95.0001 48.5C95.0001 56.9562 92.7921 64.8907 88.9227 71.7647L92.4084 73.7269C96.6062 66.2695 99.0001 57.6613 99.0001 48.5H95.0001ZM86.9964 22.1034C92.0517 29.6518 95.0001 38.7286 95.0001 48.5H99.0001C99.0001 37.9116 95.8025 28.064 90.32 19.8776L86.9964 22.1034ZM88.4131 22.9754C111.705 25.8516 133.065 34.9608 150.777 48.5852L153.216 45.4147C134.955 31.3675 112.925 21.972 88.9033 19.0056L88.4131 22.9754ZM150.777 45.4147C133.568 58.653 112.913 67.6282 90.3897 70.7649L90.9415 74.7267C114.171 71.4915 135.472 62.2341 153.216 48.5852L150.777 45.4147Z" fill="black" mask="url(#path-7-inside-1_40_488)"/>
<mask id="path-9-inside-2_40_488" fill="white">
<path d="M87.034 21.1692C92.1215 28.8078 94.8872 37.7567 94.9966 46.9338C95.106 56.1109 92.5545 65.1232 87.6505 72.8809L85.8576 71.7475C90.5426 64.3362 92.9802 55.7264 92.8757 46.9591C92.7711 38.1918 90.129 29.6425 85.2686 22.345L87.034 21.1692Z"/>
</mask>
<path d="M87.034 21.1692C92.1215 28.8078 94.8872 37.7567 94.9966 46.9338C95.106 56.1109 92.5545 65.1232 87.6505 72.8809L85.8576 71.7475C90.5426 64.3362 92.9802 55.7264 92.8757 46.9591C92.7711 38.1918 90.129 29.6425 85.2686 22.345L87.034 21.1692Z" stroke="black" stroke-width="4" mask="url(#path-9-inside-2_40_488)"/>
<path d="M103 51L105.936 46.5176L103.275 42.4102H105.303L107.025 45.1699L108.713 42.4102H110.723L108.051 46.582L110.986 51H108.895L106.99 48.0293L105.08 51H103ZM111.484 47.8008C111.484 47.2539 111.619 46.7246 111.889 46.2129C112.158 45.7012 112.539 45.3105 113.031 45.041C113.527 44.7715 114.08 44.6367 114.689 44.6367C115.631 44.6367 116.402 44.9434 117.004 45.5566C117.605 46.166 117.906 46.9375 117.906 47.8711C117.906 48.8125 117.602 49.5938 116.992 50.2148C116.387 50.832 115.623 51.1406 114.701 51.1406C114.131 51.1406 113.586 51.0117 113.066 50.7539C112.551 50.4961 112.158 50.1191 111.889 49.623C111.619 49.123 111.484 48.5156 111.484 47.8008ZM113.172 47.8887C113.172 48.5059 113.318 48.9785 113.611 49.3066C113.904 49.6348 114.266 49.7988 114.695 49.7988C115.125 49.7988 115.484 49.6348 115.773 49.3066C116.066 48.9785 116.213 48.502 116.213 47.877C116.213 47.2676 116.066 46.7988 115.773 46.4707C115.484 46.1426 115.125 45.9785 114.695 45.9785C114.266 45.9785 113.904 46.1426 113.611 46.4707C113.318 46.7988 113.172 47.2715 113.172 47.8887ZM120.777 51H119.131V44.7773H120.66V45.6621C120.922 45.2441 121.156 44.9688 121.363 44.8359C121.574 44.7031 121.812 44.6367 122.078 44.6367C122.453 44.6367 122.814 44.7402 123.162 44.9473L122.652 46.3828C122.375 46.2031 122.117 46.1133 121.879 46.1133C121.648 46.1133 121.453 46.1777 121.293 46.3066C121.133 46.4316 121.006 46.6602 120.912 46.9922C120.822 47.3242 120.777 48.0195 120.777 49.0781V51Z" fill="black"/>
</svg>
