<svg width="175" height="95" viewBox="0 0 175 95" fill="none" xmlns="http://www.w3.org/2000/svg">
<line x1="150" y1="47" x2="173" y2="47" stroke="black" stroke-width="2"/>
<line x1="55" y1="33" x2="91" y2="33" stroke="black" stroke-width="2"/>
<line x1="55" y1="62" x2="92" y2="62" stroke="black" stroke-width="2"/>
<path d="M64.8516 26.2324C64.4609 26.5645 64.084 26.7988 63.7207 26.9355C63.3613 27.0723 62.9746 27.1406 62.5605 27.1406C61.877 27.1406 61.3516 26.9746 60.9844 26.6426C60.6172 26.3066 60.4336 25.8789 60.4336 25.3594C60.4336 25.0547 60.502 24.7773 60.6387 24.5273C60.7793 24.2734 60.9609 24.0703 61.1836 23.918C61.4102 23.7656 61.6641 23.6504 61.9453 23.5723C62.1523 23.5176 62.4648 23.4648 62.8828 23.4141C63.7344 23.3125 64.3613 23.1914 64.7637 23.0508C64.7676 22.9062 64.7695 22.8145 64.7695 22.7754C64.7695 22.3457 64.6699 22.043 64.4707 21.8672C64.2012 21.6289 63.8008 21.5098 63.2695 21.5098C62.7734 21.5098 62.4062 21.5977 62.168 21.7734C61.9336 21.9453 61.7598 22.252 61.6465 22.6934L60.6152 22.5527C60.709 22.1113 60.8633 21.7559 61.0781 21.4863C61.293 21.2129 61.6035 21.0039 62.0098 20.8594C62.416 20.7109 62.8867 20.6367 63.4219 20.6367C63.9531 20.6367 64.3848 20.6992 64.7168 20.8242C65.0488 20.9492 65.293 21.1074 65.4492 21.2988C65.6055 21.4863 65.7148 21.7246 65.7773 22.0137C65.8125 22.1934 65.8301 22.5176 65.8301 22.9863V24.3926C65.8301 25.373 65.8516 25.9941 65.8945 26.2559C65.9414 26.5137 66.0312 26.7617 66.1641 27H65.0625C64.9531 26.7812 64.8828 26.5254 64.8516 26.2324ZM64.7637 23.877C64.3809 24.0332 63.8066 24.166 63.041 24.2754C62.6074 24.3379 62.3008 24.4082 62.1211 24.4863C61.9414 24.5645 61.8027 24.6797 61.7051 24.832C61.6074 24.9805 61.5586 25.1465 61.5586 25.3301C61.5586 25.6113 61.6641 25.8457 61.875 26.0332C62.0898 26.2207 62.4023 26.3145 62.8125 26.3145C63.2188 26.3145 63.5801 26.2266 63.8965 26.0508C64.2129 25.8711 64.4453 25.627 64.5938 25.3184C64.707 25.0801 64.7637 24.7285 64.7637 24.2637V23.877Z" fill="black"/>
<path d="M61.7637 56H60.7852V47.4102H61.8398V50.4746C62.2852 49.916 62.8535 49.6367 63.5449 49.6367C63.9277 49.6367 64.2891 49.7148 64.6289 49.8711C64.9727 50.0234 65.2539 50.2402 65.4727 50.5215C65.6953 50.7988 65.8691 51.1348 65.9941 51.5293C66.1191 51.9238 66.1816 52.3457 66.1816 52.7949C66.1816 53.8613 65.918 54.6855 65.3906 55.2676C64.8633 55.8496 64.2305 56.1406 63.4922 56.1406C62.7578 56.1406 62.1816 55.834 61.7637 55.2207V56ZM61.752 52.8418C61.752 53.5879 61.8535 54.127 62.0566 54.459C62.3887 55.002 62.8379 55.2734 63.4043 55.2734C63.8652 55.2734 64.2637 55.0742 64.5996 54.6758C64.9355 54.2734 65.1035 53.6758 65.1035 52.8828C65.1035 52.0703 64.9414 51.4707 64.6172 51.084C64.2969 50.6973 63.9082 50.5039 63.4512 50.5039C62.9902 50.5039 62.5918 50.7051 62.2559 51.1074C61.9199 51.5059 61.752 52.084 61.752 52.8418Z" fill="black"/>
<path d="M158.398 38.8887C158.398 37.7363 158.719 36.8828 159.359 36.3281C159.895 35.8672 160.547 35.6367 161.316 35.6367C162.172 35.6367 162.871 35.918 163.414 36.4805C163.957 37.0391 164.229 37.8125 164.229 38.8008C164.229 39.6016 164.107 40.2324 163.865 40.6934C163.627 41.1504 163.277 41.5059 162.816 41.7598C162.359 42.0137 161.859 42.1406 161.316 42.1406C160.445 42.1406 159.74 41.8613 159.201 41.3027C158.666 40.7441 158.398 39.9395 158.398 38.8887ZM159.482 38.8887C159.482 39.6855 159.656 40.2832 160.004 40.6816C160.352 41.0762 160.789 41.2734 161.316 41.2734C161.84 41.2734 162.275 41.0742 162.623 40.6758C162.971 40.2773 163.145 39.6699 163.145 38.8535C163.145 38.084 162.969 37.502 162.617 37.1074C162.27 36.709 161.836 36.5098 161.316 36.5098C160.789 36.5098 160.352 36.707 160.004 37.1016C159.656 37.4961 159.482 38.0918 159.482 38.8887ZM169.549 42V41.0859C169.064 41.7891 168.406 42.1406 167.574 42.1406C167.207 42.1406 166.863 42.0703 166.543 41.9297C166.227 41.7891 165.99 41.6133 165.834 41.4023C165.682 41.1875 165.574 40.9258 165.512 40.6172C165.469 40.4102 165.447 40.082 165.447 39.6328V35.7773H166.502V39.2285C166.502 39.7793 166.523 40.1504 166.566 40.3418C166.633 40.6191 166.773 40.8379 166.988 40.998C167.203 41.1543 167.469 41.2324 167.785 41.2324C168.102 41.2324 168.398 41.1523 168.676 40.9922C168.953 40.8281 169.148 40.6074 169.262 40.3301C169.379 40.0488 169.438 39.6426 169.438 39.1113V35.7773H170.492V42H169.549ZM174.453 41.0566L174.605 41.9883C174.309 42.0508 174.043 42.082 173.809 42.082C173.426 42.082 173.129 42.0215 172.918 41.9004C172.707 41.7793 172.559 41.6211 172.473 41.4258C172.387 41.2266 172.344 40.8105 172.344 40.1777V36.5977H171.57V35.7773H172.344V34.2363L173.393 33.6035V35.7773H174.453V36.5977H173.393V40.2363C173.393 40.5371 173.41 40.7305 173.445 40.8164C173.484 40.9023 173.545 40.9707 173.627 41.0215C173.713 41.0723 173.834 41.0977 173.99 41.0977C174.107 41.0977 174.262 41.084 174.453 41.0566Z" fill="black"/>
<mask id="path-7-inside-1_4_320" fill="white">
<path fill-rule="evenodd" clip-rule="evenodd" d="M90.6655 72.7458C94.6991 65.5801 97 57.3087 97 48.5C97 38.3201 93.927 28.8579 88.6581 20.9905C112.315 23.9118 134.01 33.1642 151.997 47C134.52 60.4436 113.542 69.5599 90.6655 72.7458Z"/>
</mask>
<path d="M90.6655 72.7458L88.9226 71.7648L86.9418 75.2837L90.9413 74.7267L90.6655 72.7458ZM88.6581 20.9905L88.9032 19.0056L84.5627 18.4696L86.9963 22.1034L88.6581 20.9905ZM151.997 47L153.216 48.5852L155.277 47L153.216 45.4147L151.997 47ZM95 48.5C95 56.9562 92.792 64.8907 88.9226 71.7648L92.4083 73.7269C96.6061 66.2695 99 57.6613 99 48.5H95ZM86.9963 22.1034C92.0516 29.6518 95 38.7286 95 48.5H99C99 37.9116 95.8024 28.064 90.3198 19.8776L86.9963 22.1034ZM88.413 22.9754C111.704 25.8516 133.065 34.9608 150.777 48.5852L153.216 45.4147C134.954 31.3675 112.925 21.972 88.9032 19.0056L88.413 22.9754ZM150.777 45.4148C133.567 58.653 112.913 67.6282 90.3896 70.7649L90.9413 74.7267C114.171 71.4915 135.472 62.2342 153.216 48.5852L150.777 45.4148Z" fill="black" mask="url(#path-7-inside-1_4_320)"/>
<mask id="path-9-inside-2_4_320" fill="white">
<path d="M87.034 21.1692C92.1216 28.8078 94.8872 37.7567 94.9966 46.9338C95.106 56.1109 92.5545 65.1232 87.6505 72.8809L85.8576 71.7475C90.5426 64.3362 92.9802 55.7264 92.8757 46.9591C92.7711 38.1918 90.129 29.6425 85.2686 22.345L87.034 21.1692Z"/>
</mask>
<path d="M87.034 21.1692C92.1216 28.8078 94.8872 37.7567 94.9966 46.9338C95.106 56.1109 92.5545 65.1232 87.6505 72.8809L85.8576 71.7475C90.5426 64.3362 92.9802 55.7264 92.8757 46.9591C92.7711 38.1918 90.129 29.6425 85.2686 22.345L87.034 21.1692Z" stroke="black" stroke-width="4" mask="url(#path-9-inside-2_4_320)"/>
</svg>
